<?xml version="1.0" encoding="UTF-8"?><svg xmlns="http://www.w3.org/2000/svg" width="8.04in" height="1.35in" viewBox="0 0 578.73 97.02"><g id="a"/><g id="b"><g><g><g><path d="M48.13,61.93c-.13,.31-.24,.57-.35,.8-.02,.06-.09,.2-.24,.24-.03,.02-.06,.02-.09,.02-.06,0-.11-.02-.17-.05-.13-.07-.24-.22-.07-.54,.19-.39,.39-.84,.5-1.28,.17-.61,.19-1.25,.06-1.86l-.03-.13c-.1-.42-.2-.84-.49-1.1-.11-.06-.19-.15-.2-.27s.03-.24,.13-.32c.1-.07,.24-.08,.36-.02,.5,.31,.67,.9,.8,1.38v.05c.28,.99,.21,2.07-.2,3.07Z" fill="#fff"/><path d="M51.13,62.78c-.07,.17-.15,.34-.22,.51-.09,.19-.17,.38-.24,.58-.05,.12-.14,.2-.25,.25-.06,.02-.12,.03-.18,.03s-.12,0-.17-.03c-.24-.1-.35-.37-.25-.61,.07-.18,.15-.36,.23-.54,.1-.24,.21-.49,.3-.73,.22-.61,.23-1.27,.22-2,0-.72-.04-1.47-.31-2.18l-.08-.22c-.14-.36-.28-.75-.5-1.04-.06-.06-.35-.32-.15-.65,.06-.12,.19-.2,.34-.22,.14-.02,.29,.03,.39,.13,.3,.27,.46,.66,.61,1.01l.06,.16c.33,.77,.5,1.48,.53,2.16v.23c.05,1.05,.09,2.14-.32,3.15Z" fill="#fff"/><path d="M54.59,63.19c-.21,.62-.53,1.2-.83,1.73-.12,.25-.28,.43-.48,.49-.05,.02-.11,.02-.17,.02-.09,0-.2-.02-.32-.08h0c-.3-.18-.39-.56-.23-.85,.2-.34,.36-.63,.5-.91,.15-.3,.28-.61,.39-.91,.69-1.99,.54-4.25-.43-6.17l-.09-.17c-.2-.35-.38-.68-.61-.97-.04-.06-.08-.09-.13-.13-.13-.11-.32-.28-.33-.56,0-.35,.28-.63,.62-.63,.55,.08,.94,.7,1.2,1.12l.07,.12c1.44,2.32,1.77,5.35,.84,7.91Z" fill="#fff"/><path d="M46.46,52.02c-.18,.42-.54,.67-.85,.9-.11,.08-.2,.14-.3,.22-.61,.48-1.1,.9-1.43,1.51-.31,.6-.35,1.25-.09,1.73,.07,.13,.16,.26,.24,.39,.14,.22,.3,.46,.39,.73,.15,.47-.04,.97-.46,1.29-.54,.43-.84,.69-.85,.87-.02,.2,.29,.53,.72,.99,.22,.24,.3,.55,.23,.87-.08,.34-.32,.61-.65,.73-.04,.02-.08,.03-.13,.05-.17,.06-.26,.09-.28,.16-.06,.2,0,.46,.05,.7,.02,.09,.04,.19,.05,.28,.03,.17,.06,.35,.1,.51,.07,.36,.14,.71,.16,1.08,.03,2-1.93,3.33-3.62,3.86-1.24,.31-2.46,.14-3.64-.02-1.04-.14-2.11-.28-3.13-.1-1.64,.37-2.6,1.25-4.16,2.77-1.2,1.48-4.99,3.77-7.06,3.97l-.87,.09h-.11l-.86,.09,1.72-.68c.81-.32,3-1.63,4.39-3.18,.62-.56,1.1-1.02,1.54-1.48,.67-.66,1.25-1.24,2.05-1.83,.94-.69,1.97-1.36,3.19-1.6,1.14-.22,2.27-.05,3.37,.12,1.79,.28,3.48,.53,4.93-.97,.63-.65,.4-1.33,.11-2.19l-.03-.09c-.18-.55-.48-1.87,.37-2.68-.36-.55-.5-1.1-.39-1.65,.11-.63,.54-1.21,1.26-1.73-.2-.32-.37-.66-.5-.99-.54-1.78,.74-3.43,1.32-4.06,.31-.32,.66-.6,1.01-.86,.13-.1,.26-.2,.39-.3,.06-.06,.13-.11,.18-.17-1.5-.88-3.41-2.4-4.38-4.78-.55-1.39-.61-2.88-.65-4.32l-.02-.35c0-.41,0-.82,0-1.22v-.06c0-.61,0-1.3-.02-1.97-.07-1.21-.47-2.41-.86-3.57l-.09-.27c-.63-1.75-1.56-3.34-2.77-4.72-.65-.79-1.36-1.61-2.19-2.31-1.37-1.11-2.76-2.02-4.12-2.69-.99-.47-1.86-.84-2.69-1.1-.94-.31-1.92-.51-2.77-.69-.28-.05-.58-.11-.86-.17-.59-.13-1.17-.24-1.75-.31l-1.81-.39,1.52-.07c.38-.02,.77-.02,1.17-.02,.28,0,.58,0,.86,.02,.17,0,.33,0,.5,.02,1.25,.05,2.47,.16,3.37,.28,2.31,.41,4.35,1.62,6.05,2.75,.85,.58,1.68,1.27,2.52,2.14,1.08,1.1,2.31,2.4,3.27,3.89,1.22,1.95,2.07,4.11,2.47,6.26,.17,1.25,.21,2.5,.24,3.71,.02,.65,.04,1.31,.08,1.95,.11,1.79,.77,3.39,1.86,4.52,.47,.5,1.02,.97,1.71,1.44,1.14,.69,1.47,1.58,1.02,2.7Z" fill="#fff"/></g><g><path d="M93.63,22.65l-.19,.04-.25,.06-.28,.06-.23,.05-.31,.05c-1.45,.16-3.94,.85-5.16,1.24l-.37,.13c-1.08,.39-2.19,.78-3.23,1.31-3.54,1.77-6.39,5.09-7.81,9.1-.57,1.59-.8,3.3-1.02,4.96-.17,1.24-.35,2.51-.66,3.74-.12,.42-.21,.84-.3,1.23-.28,1.17-.55,2.39-1.38,3.41-.8,1.18-1.58,1.69-2.57,2.35-.32,.2-.67,.44-1.06,.73,.19,.13,.38,.24,.56,.36,.65,.42,1.32,.85,1.85,1.47,.52,.59,1.4,1.81,1.36,3.31,0,.53-.02,1.12-.31,1.62,.24,.15,.45,.34,.57,.63,.19,.44,.19,.96,0,1.51,.5,.44,.68,1.12,.8,1.73,.17,.72,.17,1.47,.16,2.19,0,.89-.02,1.81,.34,2.64,.4,.64,1.72,.52,2.78,.42,.32-.02,.63-.06,.87-.06,.18-.02,.38-.02,.58-.04,.88-.06,1.78-.13,2.68,.02,1.48,.3,2.62,1.75,3.73,3.15,.65,.84,1.27,1.62,1.92,2.1,.22,.19,.42,.37,.62,.56,1,.89,2.03,1.82,3.29,2.26,.37,.13,.76,.23,1.17,.29l1.82,.31-1.38,.07c-.28,.03-.73,.05-1,.05l-.46-.02c-.43-.03-.67-.02-1.28-.18-.84-.26-1.08-.28-2.02-.83-.44-.26-1.07-.73-1.58-1.09-.65-.43-1.74-1.41-2.31-2.09-.24-.24-.5-.54-.75-.84-.62-.74-1.32-1.58-2.01-1.77-.95-.11-1.97,0-2.96,.1-.64,.07-1.3,.13-1.95,.15-.13,0-.26,0-.39,0-.76,.02-1.53,.04-2.22-.34-.69-.41-1.22-1.1-1.45-1.91-.28-.92-.23-1.87-.17-2.79,.06-.87,.1-1.77-.15-2.59-.44-.17-.73-.46-.86-.84-.14-.4-.07-.91,.19-1.4-.39-.17-.81-.47-.8-1.11-.02-.36,.18-.61,.35-.84,.09-.13,.17-.24,.22-.37,.09-.38,.18-.84,.04-1.24-.23-.6-.65-1.19-1.29-1.81-.2-.21-.55-.43-.88-.65-.95-.6-2.11-1.36-1.58-2.58,.19-.35,.54-.5,.74-.58,.31-.2,.58-.39,.92-.66,.39-.38,.76-.72,1.06-.99,1.16-1.03,1.92-1.72,2.38-3.53,.37-1.39,.57-2.84,.75-4.24,.16-1.16,.32-2.35,.58-3.52,.32-1.48,.83-2.98,1.54-4.58,.42-.95,.99-1.88,1.7-2.8,.95-1.25,2.01-2.54,3.35-3.58,1.73-1.38,3.7-2.44,5.86-3.14,1.84-.5,4.92-.85,6.68-.62" fill="#fff"/><line x1="92.56" y1="22.48" x2="92.69" y2="22.51" fill="#fff"/></g></g><g><path d="M120.4,54.08c.06-.51,.09-.9,.09-1.2,.03-.72-.21-.9-.9-1.02l-1.68-.24,.21-1.44h7.74l-.21,1.44-1.2,.15c-.93,.12-1.02,.48-1.26,2.22l-.69,5.31c-2.1,1.05-4.47,1.41-6.63,1.41-6.72,0-9.24-4.26-9.24-9.21,0-8.34,6.15-12.93,12.48-12.93,3.33,0,5.46,.93,5.85,1.14l-.9,4.77-1.77-.15-.09-2.1c-.06-1.32-.81-1.71-3.24-1.71-4.2,0-9.15,3-9.15,11.04,0,5.4,3.18,7.17,6.48,7.17,.99,0,2.07-.15,2.55-.27,.93-.21,1.02-.51,1.14-1.32l.42-3.06Z" fill="#fff"/><path d="M132.79,60.65c-2.79,0-4.53-1.77-3.84-5.85l1.17-6.81c.03-.15,.03-.3,.03-.42,0-.69-.42-.99-1.17-.99-.42,0-.93,.09-1.56,.24l-.27-1.23c.96-.57,2.52-.93,3.3-.93,1.92,0,2.61,1.29,2.31,3.09l-1.29,7.56c-.33,2.01,.33,3.03,2.19,3.03s2.94-.75,4.14-1.56l1.14-7.5,.48-4.11,2.46-.27,.27,.21-1.8,11.94c-.15,.99,0,1.47,.87,1.56,.42,.03,1.02-.06,1.83-.24l.21,1.35c-.87,.51-2.4,.93-3.42,.93-1.41,0-2.07-.96-2.07-2.34-1.38,1.35-2.7,2.34-4.98,2.34Z" fill="#fff"/><path d="M149.56,48.27c.03-.21,.03-.42,.03-.57-.06-.66-.45-.99-1.32-.99-.42,0-.93,.06-1.56,.21l-.24-1.35c.93-.48,2.73-.9,3.66-.9,1.41,0,2.49,.63,2.19,2.7-.57,3.3-1.11,6.57-1.68,9.87-.03,.18-.03,.33-.03,.48,.03,.66,.45,.93,1.08,.93,.54,0,1.17-.12,1.89-.33l.27,1.32c-.96,.6-2.61,1.02-3.63,1.02-1.62,0-2.37-.9-2.37-2.28,0-.24,0-.51,.06-.81l1.65-9.3Zm1.26-6.78c-1.11,0-1.71-.69-1.71-1.74,0-1.23,.87-2.04,2.22-2.04,1.14,0,1.74,.6,1.74,1.65,0,1.32-.81,2.13-2.25,2.13Z" fill="#fff"/><path d="M161.8,60.65c-3.63,0-5.04-3.24-5.04-5.82,0-7.14,3.93-10.17,7.47-10.17,1.71,0,2.76,.72,4.02,1.95l.84-5.61c.18-1.29,.06-1.56-1.11-1.8l-1.38-.3,.24-1.26,4.83-.48,.45,.33-2.82,19.77c-.03,.18-.03,.33-.03,.48,.03,.6,.39,.87,1.29,.87,.39-.03,.87-.09,1.44-.21l.27,1.32c-.87,.51-2.58,.93-3.27,.93-1.47,0-2.25-.75-2.28-2.25-1.14,1.17-2.61,2.25-4.92,2.25Zm6.24-12.57c-1.29-.9-2.46-1.17-3.57-1.17-3.03,0-4.83,2.61-4.83,7.65,0,2.64,1.11,3.9,3,3.9,1.23,0,2.73-.48,4.08-1.5l1.32-8.88Z" fill="#fff"/><path d="M187.09,57.62c-1.35,1.71-3.69,3.03-6.51,3.03-4.23,0-5.7-3.03-5.7-5.88,0-6.99,4.35-10.11,8.25-10.11,2.79,0,4.65,1.44,4.65,3.84,0,4.95-5.94,5.58-10.05,5.49-.06,2.61,.78,4.23,3.81,4.23,1.83,0,3.33-.69,4.68-1.74l.87,1.14Zm-2.34-9.12c0-1.14-.69-2.04-2.28-2.04-1.92,0-4.08,1.77-4.59,5.67,3.39,.03,6.87-.12,6.87-3.63Z" fill="#fff"/><path d="M206.53,49.67c-.06-2.49-1.17-3.21-2.88-3.21-1.41,0-2.79,.57-2.79,2.16,0,3.24,6.66,2.4,6.66,7.02,0,2.58-2.37,5.01-6.24,5.01-2.76,0-4.8-1.08-4.8-2.76,0-.63,.27-1.59,.9-2.4l1.29-.09c.06,2.49,1.02,3.42,3.03,3.42,1.74,0,3.18-.81,3.18-2.58,0-3.42-6.6-2.28-6.6-6.99,0-2.88,2.58-4.59,5.88-4.59,2.49,0,4.44,1.11,4.44,2.79,0,.63-.24,1.35-.78,2.13l-1.29,.09Z" fill="#fff"/><path d="M216.58,60.65c-2.79,0-4.53-1.77-3.84-5.85l1.17-6.81c.03-.15,.03-.3,.03-.42,0-.69-.42-.99-1.17-.99-.42,0-.93,.09-1.56,.24l-.27-1.23c.96-.57,2.52-.93,3.3-.93,1.92,0,2.61,1.29,2.31,3.09l-1.29,7.56c-.33,2.01,.33,3.03,2.19,3.03s2.94-.75,4.14-1.56l1.14-7.5,.48-4.11,2.46-.27,.27,.21-1.8,11.94c-.15,.99,0,1.47,.87,1.56,.42,.03,1.02-.06,1.83-.24l.21,1.35c-.87,.51-2.4,.93-3.42,.93-1.41,0-2.07-.96-2.07-2.34-1.38,1.35-2.7,2.34-4.98,2.34Z" fill="#fff"/><path d="M240.49,44.66c1.71,0,2.82,.99,2.82,2.52,0,.9-.39,2.1-1.17,3.3l-1.59,.06c.27-1.89,.03-3.3-1.47-3.3-1.29,0-2.55,1.02-3.42,1.89l-1.08,6.93-.45,4.11-2.61,.27-.27-.21,1.86-11.97c.03-.21,.03-.39,.03-.54-.03-.69-.42-1.02-1.32-1.02-.39,0-.93,.06-1.56,.21l-.27-1.35c.93-.48,2.88-.9,3.81-.9,1.41,0,2.07,.96,1.98,2.76,.84-1.14,2.52-2.76,4.71-2.76Z" fill="#fff"/><path d="M255.88,57.26c-.15,.99,.27,1.41,1.17,1.41,.42,0,1.02-.12,1.62-.27l.27,1.29c-.96,.57-2.61,.96-3.39,.96-1.65,0-2.4-.87-2.46-2.19,0-.27,0-.57,.06-.9l2.55-16.5c.18-1.23,.09-1.62-.96-1.83l-1.35-.3,.24-1.26,4.71-.51,.45,.33-2.91,19.77Z" fill="#fff"/><path d="M262.78,44.24l-.6-.84c1.11-.75,1.89-1.83,2.07-2.79-.99-.06-1.44-.6-1.44-1.38,0-1.23,1.02-1.98,2.07-1.98,.87,0,1.71,.51,1.71,1.83,0,2.22-1.86,4.14-3.81,5.16Z" fill="#fff"/><path d="M272.8,46.98c1.44-1.23,2.91-2.31,5.07-2.31,2.43,0,4.17,1.32,4.17,4.29,0,.48-.06,.99-.15,1.56l-1.17,6.75c-.03,.24-.06,.45-.03,.63,.09,.51,.45,.75,1.05,.78,.45,0,.99-.09,1.68-.24l.27,1.29c-.96,.57-2.61,.93-3.39,.93-1.65,0-2.4-.96-2.37-2.37,0-.21,.03-.48,1.35-8.28,.06-.3,.06-.57,.06-.81,0-1.47-.87-2.22-2.34-2.22-1.71,0-3.15,.72-4.35,1.5l-1.2,7.56-.48,4.17-2.58,.27-.27-.21,2.94-19.26c.18-1.2,.03-1.56-.96-1.77l-1.35-.3,.24-1.26,4.71-.51,.45,.33-1.35,9.48Z" fill="#fff"/><path d="M298.99,57.62c-1.35,1.71-3.69,3.03-6.51,3.03-4.23,0-5.7-3.03-5.7-5.88,0-6.99,4.35-10.11,8.25-10.11,2.79,0,4.65,1.44,4.65,3.84,0,4.95-5.94,5.58-10.05,5.49-.06,2.61,.78,4.23,3.81,4.23,1.83,0,3.33-.69,4.68-1.74l.87,1.14Zm-2.34-9.12c0-1.14-.69-2.04-2.28-2.04-1.92,0-4.08,1.77-4.59,5.67,3.39,.03,6.87-.12,6.87-3.63Zm3.3-9.54c-1.35,.6-3.72,2.28-6.06,4.2l-.9-1.11c2.82-3.81,3.66-4.62,4.44-5.13,.93-.6,1.89-.18,2.61,1.41l-.09,.63Z" fill="#fff"/><path d="M311.95,49.67c-.06-2.49-1.17-3.21-2.88-3.21-1.41,0-2.79,.57-2.79,2.16,0,3.24,6.66,2.4,6.66,7.02,0,2.58-2.37,5.01-6.24,5.01-2.76,0-4.8-1.08-4.8-2.76,0-.63,.27-1.59,.9-2.4l1.29-.09c.06,2.49,1.02,3.42,3.03,3.42,1.74,0,3.18-.81,3.18-2.58,0-3.42-6.6-2.28-6.6-6.99,0-2.88,2.58-4.59,5.88-4.59,2.49,0,4.44,1.11,4.44,2.79,0,.63-.24,1.35-.78,2.13l-1.29,.09Z" fill="#fff"/><path d="M319.72,48.27c.03-.21,.03-.42,.03-.57-.06-.66-.45-.99-1.32-.99-.42,0-.93,.06-1.56,.21l-.24-1.35c.93-.48,2.73-.9,3.66-.9,1.41,0,2.49,.63,2.19,2.7-.57,3.3-1.11,6.57-1.68,9.87-.03,.18-.03,.33-.03,.48,.03,.66,.45,.93,1.08,.93,.54,0,1.17-.12,1.89-.33l.27,1.32c-.96,.6-2.61,1.02-3.63,1.02-1.62,0-2.37-.9-2.37-2.28,0-.24,0-.51,.06-.81l1.65-9.3Zm1.26-6.78c-1.11,0-1.71-.69-1.71-1.74,0-1.23,.87-2.04,2.22-2.04,1.14,0,1.74,.6,1.74,1.65,0,1.32-.81,2.13-2.25,2.13Z" fill="#fff"/><path d="M336.97,58.64c-1.08,1.02-3.24,2.01-5.13,2.01-2.73,0-3.78-1.8-3.39-4.56l1.26-9.03h-2.43l.39-1.8c1.92-.27,2.79-.9,3.21-2.07l.81-2.22h1.59l-.63,4.2h4.32l-.45,1.89h-4.14l-1.2,8.73c-.24,1.65,.3,2.55,1.68,2.55,1.14,0,2.16-.33,3.42-1.08l.69,1.38Z" fill="#fff"/><path d="M351.94,57.29c-.03,.21-.03,.36-.03,.51,.06,.48,.3,.72,.87,.78,.42,.06,1.02,0,1.83-.18l.27,1.32c-.84,.51-2.61,.93-3.27,.93-1.41,0-2.22-.78-2.25-2.28-1.14,1.14-2.46,2.28-4.89,2.28-3.75,0-5.04-3.3-5.04-5.88,0-6.87,3.69-10.11,7.56-10.11,1.5,0,2.76,.72,3.93,1.95l.57-1.74,.45-.21,1.95,.63-.75,3.3-1.2,8.7Zm-1.29-9.18c-1.23-.9-2.58-1.17-3.63-1.17-3.15,0-4.74,2.85-4.74,7.59,0,2.61,.99,3.96,3.03,3.96,1.38,0,2.76-.6,4.05-1.62l1.29-8.76Z" fill="#fff"/><path d="M367.27,58.64c-1.08,1.02-3.24,2.01-5.13,2.01-2.73,0-3.78-1.8-3.39-4.56l1.26-9.03h-2.43l.39-1.8c1.92-.27,2.79-.9,3.21-2.07l.81-2.22h1.59l-.63,4.2h4.32l-.45,1.89h-4.14l-1.2,8.73c-.24,1.65,.3,2.55,1.68,2.55,1.14,0,2.16-.33,3.42-1.08l.69,1.38Z" fill="#fff"/><path d="M372.97,48.27c.03-.21,.03-.42,.03-.57-.06-.66-.45-.99-1.32-.99-.42,0-.93,.06-1.56,.21l-.24-1.35c.93-.48,2.73-.9,3.66-.9,1.41,0,2.49,.63,2.19,2.7-.57,3.3-1.11,6.57-1.68,9.87-.03,.18-.03,.33-.03,.48,.03,.66,.45,.93,1.08,.93,.54,0,1.17-.12,1.89-.33l.27,1.32c-.96,.6-2.61,1.02-3.63,1.02-1.62,0-2.37-.9-2.37-2.28,0-.24,0-.51,.06-.81l1.65-9.3Zm1.26-6.78c-1.11,0-1.71-.69-1.71-1.74,0-1.23,.87-2.04,2.22-2.04,1.14,0,1.74,.6,1.74,1.65,0,1.32-.81,2.13-2.25,2.13Z" fill="#fff"/><path d="M380.17,54.53c0-5.07,2.61-9.87,8.34-9.87,3.81,0,5.64,2.28,5.64,5.88,0,4.95-2.34,10.11-8.07,10.11-4.08,0-5.91-2.37-5.91-6.12Zm11.16-4.08c0-2.97-1.29-3.99-3.3-3.99-3.81,0-5.04,4.59-5.04,8.1,0,3,1.08,4.29,3.21,4.29,4.05,0,5.13-4.89,5.13-8.4Z" fill="#fff"/><path d="M408.16,44.66c2.37,0,4.02,1.29,4.02,4.2,0,.48-.06,1.05-.15,1.65l-1.14,6.75c-.03,.21-.03,.36-.03,.51,.03,.6,.42,.87,1.05,.9,.45,0,.99-.09,1.68-.24l.27,1.29c-.96,.57-2.37,.93-3.39,.93-1.62,0-2.37-.9-2.37-2.25,0-.27,0-.54,.06-.84l1.26-7.56c.33-2.01-.36-3-2.13-3s-3.27,.69-4.47,1.47l-1.2,7.62-.48,4.11-2.58,.27-.27-.21,1.86-12c.03-.24,.03-.45,.03-.63-.09-.69-.54-.99-1.53-.93-.36,.03-.81,.09-1.35,.21l-.27-1.35c.93-.48,2.82-.9,3.75-.9,1.41,0,2.22,.6,2.13,2.4,1.47-1.29,2.97-2.4,5.25-2.4Z" fill="#fff"/><path d="M429.88,57.62c1.11-1.5,2.22-2.94,3.21-4.5,.99-1.53,2.61-3.93,2.61-5.46,0-.6-.3-1.05-1.08-1.05-.39,0-.93,.06-1.23,.09l-.12-1.38c1.02-.42,2.31-.66,2.88-.66,1.53,0,2.16,.75,2.16,1.98,0,2.55-2.31,5.67-5.52,9.93-1.08,1.44-1.65,2.31-2.52,3.66-.66,.09-1.5,.27-2.16,.42l-.33-.15-2.01-12.06c-.21-1.29-.51-1.92-2.82-1.41l-.21-1.41c.99-.48,2.28-.96,3.42-.96,1.53,0,2.07,.96,2.28,2.76l1.44,10.2Z" fill="#fff"/><path d="M452.71,57.29c-.03,.21-.03,.36-.03,.51,.06,.48,.3,.72,.87,.78,.42,.06,1.02,0,1.83-.18l.27,1.32c-.84,.51-2.61,.93-3.27,.93-1.41,0-2.22-.78-2.25-2.28-1.14,1.14-2.46,2.28-4.89,2.28-3.75,0-5.04-3.3-5.04-5.88,0-6.87,3.69-10.11,7.56-10.11,1.5,0,2.76,.72,3.93,1.95l.57-1.74,.45-.21,1.95,.63-.75,3.3-1.2,8.7Zm-1.29-9.18c-1.23-.9-2.58-1.17-3.63-1.17-3.15,0-4.74,2.85-4.74,7.59,0,2.61,.99,3.96,3.03,3.96,1.38,0,2.76-.6,4.05-1.62l1.29-8.76Z" fill="#fff"/><path d="M470.47,57.56c-1.02,1.23-3.09,3.09-5.64,3.09-4.17,0-6.27-2.67-6.27-6.54,0-6.72,4.32-9.45,8.52-9.45,2.16,0,4.59,.84,4.59,2.97,0,.69-.33,1.8-.9,2.76l-1.74,.09c.21-2.61-.51-3.78-2.52-3.78-2.55,0-5.13,2.1-5.13,7.11,0,3.21,1.8,4.35,3.81,4.35,1.89,0,3.3-1.05,4.35-1.86l.93,1.26Z" fill="#fff"/><path d="M485.74,57.56c-1.02,1.23-3.09,3.09-5.64,3.09-4.17,0-6.27-2.67-6.27-6.54,0-6.72,4.32-9.45,8.52-9.45,2.16,0,4.59,.84,4.59,2.97,0,.69-.33,1.8-.9,2.76l-1.74,.09c.21-2.61-.51-3.78-2.52-3.78-2.55,0-5.13,2.1-5.13,7.11,0,3.21,1.8,4.35,3.81,4.35,1.89,0,3.3-1.05,4.35-1.86l.93,1.26Z" fill="#fff"/><path d="M492.34,48.27c.03-.21,.03-.42,.03-.57-.06-.66-.45-.99-1.32-.99-.42,0-.93,.06-1.56,.21l-.24-1.35c.93-.48,2.73-.9,3.66-.9,1.41,0,2.49,.63,2.19,2.7-.57,3.3-1.11,6.57-1.68,9.87-.03,.18-.03,.33-.03,.48,.03,.66,.45,.93,1.08,.93,.54,0,1.17-.12,1.89-.33l.27,1.32c-.96,.6-2.61,1.02-3.63,1.02-1.62,0-2.37-.9-2.37-2.28,0-.24,0-.51,.06-.81l1.65-9.3Zm1.26-6.78c-1.11,0-1.71-.69-1.71-1.74,0-1.23,.87-2.04,2.22-2.04,1.14,0,1.74,.6,1.74,1.65,0,1.32-.81,2.13-2.25,2.13Z" fill="#fff"/><path d="M510.67,44.66c2.37,0,4.02,1.29,4.02,4.2,0,.48-.06,1.05-.15,1.65l-1.14,6.75c-.03,.21-.03,.36-.03,.51,.03,.6,.42,.87,1.05,.9,.45,0,.99-.09,1.68-.24l.27,1.29c-.96,.57-2.37,.93-3.39,.93-1.62,0-2.37-.9-2.37-2.25,0-.27,0-.54,.06-.84l1.26-7.56c.33-2.01-.36-3-2.13-3s-3.27,.69-4.47,1.47l-1.2,7.62-.48,4.11-2.58,.27-.27-.21,1.86-12c.03-.24,.03-.45,.03-.63-.09-.69-.54-.99-1.53-.93-.36,.03-.81,.09-1.35,.21l-.27-1.35c.93-.48,2.82-.9,3.75-.9,1.41,0,2.22,.6,2.13,2.4,1.47-1.29,2.97-2.4,5.25-2.4Z" fill="#fff"/><path d="M531.94,57.29c-.03,.21-.03,.36-.03,.51,.06,.48,.3,.72,.87,.78,.42,.06,1.02,0,1.83-.18l.27,1.32c-.84,.51-2.61,.93-3.27,.93-1.41,0-2.22-.78-2.25-2.28-1.14,1.14-2.46,2.28-4.89,2.28-3.75,0-5.04-3.3-5.04-5.88,0-6.87,3.69-10.11,7.56-10.11,1.5,0,2.76,.72,3.93,1.95l.57-1.74,.45-.21,1.95,.63-.75,3.3-1.2,8.7Zm-1.29-9.18c-1.23-.9-2.58-1.17-3.63-1.17-3.15,0-4.74,2.85-4.74,7.59,0,2.61,.99,3.96,3.03,3.96,1.38,0,2.76-.6,4.05-1.62l1.29-8.76Z" fill="#fff"/><path d="M541.09,57.26c-.15,.99,.27,1.41,1.17,1.41,.42,0,1.02-.12,1.62-.27l.27,1.29c-.96,.57-2.61,.96-3.39,.96-1.65,0-2.4-.87-2.46-2.19,0-.27,0-.57,.06-.9l2.55-16.5c.18-1.23,.09-1.62-.96-1.83l-1.35-.3,.24-1.26,4.71-.51,.45,.33-2.91,19.77Z" fill="#fff"/><path d="M559.09,57.62c-1.35,1.71-3.69,3.03-6.51,3.03-4.23,0-5.7-3.03-5.7-5.88,0-6.99,4.35-10.11,8.25-10.11,2.79,0,4.65,1.44,4.65,3.84,0,4.95-5.94,5.58-10.05,5.49-.06,2.61,.78,4.23,3.81,4.23,1.83,0,3.33-.69,4.68-1.74l.87,1.14Zm-2.34-9.12c0-1.14-.69-2.04-2.28-2.04-1.92,0-4.08,1.77-4.59,5.67,3.39,.03,6.87-.12,6.87-3.63Z" fill="#fff"/></g></g></g></svg>