<svg xmlns="http://www.w3.org/2000/svg" width="6.64in" height="1.35in" viewBox="0 0 477.85 97.02"><path d="M111.67,57.38h.12L120,40.25,117.58,40l.21-1.47h6.78L124.39,40l-1.38.24c-1.05.18-1.11.36-1.68,1.56l-8.61,18h-3.39l-3.39-17.16c-.39-2-.48-2.22-1.35-2.4L103.3,40l.18-1.41h8L111.28,40l-2.64.33Z" fill="#f2f3fc"/><path d="M134.29,56.78a3.27,3.27,0,0,0,0,.51c.06.48.3.72.87.78a5.5,5.5,0,0,0,1.83-.18l.27,1.32a8.77,8.77,0,0,1-3.27.93,2.06,2.06,0,0,1-2.25-2.28,6.39,6.39,0,0,1-4.89,2.28c-3.75,0-5-3.3-5-5.88,0-6.87,3.69-10.11,7.56-10.11a5.36,5.36,0,0,1,3.93,2l.57-1.74.45-.21,2,.63-.75,3.3ZM133,47.6a6.16,6.16,0,0,0-3.63-1.17c-3.15,0-4.74,2.85-4.74,7.59,0,2.61,1,4,3,4a6.64,6.64,0,0,0,4.05-1.62Z" fill="#f2f3fc"/><path d="M152.05,57.05c-1,1.23-3.09,3.09-5.64,3.09-4.17,0-6.27-2.67-6.27-6.54,0-6.72,4.32-9.45,8.52-9.45,2.16,0,4.59.84,4.59,3a6.14,6.14,0,0,1-.9,2.76l-1.74.09c.21-2.61-.51-3.78-2.52-3.78-2.55,0-5.13,2.1-5.13,7.11,0,3.21,1.8,4.35,3.81,4.35a7.11,7.11,0,0,0,4.35-1.86Z" fill="#f2f3fc"/><path d="M167.32,57.05c-1,1.23-3.09,3.09-5.64,3.09-4.17,0-6.27-2.67-6.27-6.54,0-6.72,4.32-9.45,8.52-9.45,2.16,0,4.59.84,4.59,3a6.14,6.14,0,0,1-.9,2.76l-1.74.09c.21-2.61-.51-3.78-2.52-3.78-2.55,0-5.13,2.1-5.13,7.11,0,3.21,1.8,4.35,3.81,4.35a7.11,7.11,0,0,0,4.35-1.86Z" fill="#f2f3fc"/><path d="M173.92,47.75a4,4,0,0,0,0-.57c-.06-.66-.45-1-1.32-1a6.79,6.79,0,0,0-1.56.21l-.24-1.35a10.24,10.24,0,0,1,3.66-.9c1.41,0,2.49.63,2.19,2.7-.57,3.3-1.11,6.57-1.68,9.87a2.75,2.75,0,0,0,0,.48c0,.66.45.93,1.08.93a7,7,0,0,0,1.89-.33l.27,1.32a8.09,8.09,0,0,1-3.63,1,2.1,2.1,0,0,1-2.37-2.28,4,4,0,0,1,.06-.81ZM175.18,41a1.59,1.59,0,0,1-1.71-1.74,2,2,0,0,1,2.22-2,1.53,1.53,0,0,1,1.74,1.65A2,2,0,0,1,175.18,41Z" fill="#f2f3fc"/><path d="M192.25,44.15c2.37,0,4,1.29,4,4.2a11.59,11.59,0,0,1-.15,1.65L195,56.75a3.27,3.27,0,0,0,0,.51c0,.6.42.87,1.05.9a8.29,8.29,0,0,0,1.68-.24l.27,1.29a7.39,7.39,0,0,1-3.39.93,2.09,2.09,0,0,1-2.37-2.25,4.1,4.1,0,0,1,.06-.84l1.26-7.56c.33-2-.36-3-2.13-3A8.19,8.19,0,0,0,186.91,48l-1.2,7.62-.48,4.11-2.58.27-.27-.21,1.86-12a4.87,4.87,0,0,0,0-.63c-.09-.69-.54-1-1.53-.93a10.06,10.06,0,0,0-1.35.21l-.27-1.35a10.7,10.7,0,0,1,3.75-.9c1.41,0,2.22.6,2.13,2.4C188.47,45.26,190,44.15,192.25,44.15Z" fill="#f2f3fc"/><path d="M213.21,57.11a8.26,8.26,0,0,1-6.5,3c-4.23,0-5.7-3-5.7-5.88,0-7,4.35-10.11,8.25-10.11,2.79,0,4.65,1.44,4.65,3.84,0,4.95-5.95,5.58-10,5.49-.06,2.61.78,4.23,3.81,4.23A7.43,7.43,0,0,0,212.35,56ZM210.88,48c0-1.14-.69-2-2.28-2-1.92,0-4.08,1.77-4.59,5.67C207.4,51.65,210.88,51.5,210.88,48Z" fill="#f2f3fc"/><path d="M230.29,47.9h10.17l.68-5.43c.31-1.95.28-2.16-.68-2.31L239.08,40l.14-1.41h8L247,40l-1.5.21c-1,.15-1.13.3-1.4,2.1l-1.8,13.56c-.27,1.92-.18,2.1.84,2.28l1.34.24-.17,1.41h-7.86l.18-1.41,1.52-.24c.84-.15,1-.36,1.21-2.1l.8-6.06H230l-.78,5.88c-.3,2-.3,2.13.69,2.28l1.44.24-.18,1.41h-7.95l.18-1.41,1.47-.24c1.08-.18,1.14-.24,1.44-2.25l1.8-13.56c.24-1.74.15-2-.87-2.13L225.91,40l.18-1.41H234L233.77,40l-1.53.21c-.9.12-1,.39-1.23,2.13Z" fill="#f2f3fc"/><path d="M260.53,57.11a8.3,8.3,0,0,1-6.51,3c-4.23,0-5.7-3-5.7-5.88,0-7,4.35-10.11,8.24-10.11,2.8,0,4.65,1.44,4.65,3.84,0,4.95-5.93,5.58-10,5.49-.06,2.61.78,4.23,3.8,4.23A7.43,7.43,0,0,0,259.65,56ZM258.19,48c0-1.14-.69-2-2.28-2-1.92,0-4.08,1.77-4.59,5.67C254.71,51.65,258.19,51.5,258.19,48Z" fill="#f2f3fc"/><path d="M273.49,49.16c-.06-2.49-1.17-3.21-2.88-3.21-1.41,0-2.79.57-2.79,2.16,0,3.24,6.65,2.4,6.65,7,0,2.58-2.36,5-6.23,5-2.76,0-4.8-1.08-4.8-2.76a4.21,4.21,0,0,1,.9-2.4l1.29-.09c.06,2.49,1,3.42,3,3.42,1.74,0,3.18-.81,3.18-2.58,0-3.42-6.6-2.28-6.6-7,0-2.88,2.58-4.59,5.88-4.59,2.49,0,4.43,1.11,4.43,2.79a3.79,3.79,0,0,1-.77,2.13Z" fill="#f2f3fc"/><path d="M281.26,47.75a4,4,0,0,0,0-.57c-.07-.66-.45-1-1.33-1a6.93,6.93,0,0,0-1.56.21l-.23-1.35a10.19,10.19,0,0,1,3.65-.9c1.41,0,2.49.63,2.2,2.7-.57,3.3-1.12,6.57-1.68,9.87a2.07,2.07,0,0,0,0,.48c0,.66.46.93,1.08.93a7,7,0,0,0,1.9-.33l.27,1.32a8.13,8.13,0,0,1-3.64,1,2.09,2.09,0,0,1-2.36-2.28,4,4,0,0,1,.06-.81ZM282.52,41a1.59,1.59,0,0,1-1.72-1.74,2,2,0,0,1,2.23-2,1.53,1.53,0,0,1,1.74,1.65A2,2,0,0,1,282.52,41Z" fill="#f2f3fc"/><path d="M298.5,58.13a8.31,8.31,0,0,1-5.12,2c-2.74,0-3.78-1.8-3.4-4.56l1.26-9h-2.43l.4-1.8c1.92-.27,2.78-.9,3.2-2.07l.81-2.22h1.59l-.62,4.2h4.31l-.45,1.89h-4.14l-1.2,8.73c-.24,1.65.31,2.55,1.68,2.55a6.39,6.39,0,0,0,3.42-1.08Z" fill="#f2f3fc"/><path d="M313.47,56.78a4.89,4.89,0,0,0,0,.51c.05.48.29.72.86.78a5.5,5.5,0,0,0,1.83-.18l.27,1.32a8.77,8.77,0,0,1-3.27.93,2.06,2.06,0,0,1-2.25-2.28A6.38,6.38,0,0,1,306,60.14c-3.74,0-5-3.3-5-5.88,0-6.87,3.69-10.11,7.57-10.11a5.36,5.36,0,0,1,3.93,2l.57-1.74.44-.21,1.95.63-.75,3.3Zm-1.28-9.18a6.16,6.16,0,0,0-3.64-1.17c-3.15,0-4.74,2.85-4.74,7.59,0,2.61,1,4,3,4a6.61,6.61,0,0,0,4-1.62Z" fill="#f2f3fc"/><path d="M330.46,44.15c2.36,0,4,1.29,4,4.2a11.59,11.59,0,0,1-.15,1.65l-1.13,6.75a2.46,2.46,0,0,0,0,.51c0,.6.42.87,1.06.9a8.21,8.21,0,0,0,1.67-.24l.27,1.29a7.31,7.31,0,0,1-3.38.93,2.09,2.09,0,0,1-2.38-2.25,3.53,3.53,0,0,1,.07-.84l1.25-7.56c.34-2-.35-3-2.12-3A8.13,8.13,0,0,0,325.12,48l-1.2,7.62-.48,4.11-2.58.27-.27-.21,1.86-12c0-.24,0-.45,0-.63-.09-.69-.53-1-1.52-.93a9.82,9.82,0,0,0-1.35.21l-.27-1.35a10.65,10.65,0,0,1,3.75-.9c1.4,0,2.22.6,2.13,2.4C326.68,45.26,328.18,44.15,330.46,44.15Z" fill="#f2f3fc"/><path d="M351.13,57.05c-1,1.23-3.09,3.09-5.65,3.09-4.17,0-6.27-2.67-6.27-6.54,0-6.72,4.33-9.45,8.52-9.45,2.16,0,4.59.84,4.59,3a6.14,6.14,0,0,1-.9,2.76l-1.73.09c.2-2.61-.52-3.78-2.53-3.78-2.54,0-5.12,2.1-5.12,7.11,0,3.21,1.79,4.35,3.81,4.35a7.16,7.16,0,0,0,4.35-1.86Z" fill="#f2f3fc"/><path d="M360.9,56.75a34.27,34.27,0,0,0,5.37-8.55c.39-1,.36-2.1-.84-2.1-.38,0-.93.06-1.22.09l-.13-1.38a9.31,9.31,0,0,1,2.88-.66c1.53,0,2.17.75,2.17,2,0,2.55-3.16,6.93-5.67,10.38-1.06,1.41-2,2.52-2.91,3.87A5.4,5.4,0,0,0,359.4,63c0,.54.33,1.2,1.63,1.2a7.37,7.37,0,0,0,1.59-.21l.26,1.5a9.16,9.16,0,0,1-3.59.87c-1.54,0-2.83-.84-2.83-2.46s1.15-2.85,2.23-4.32l-1.78-11.67c-.2-1.29-.51-1.92-2.81-1.41l-.22-1.41a8.78,8.78,0,0,1,3.49-1c1.52,0,2,1,2.27,2.76Z" fill="#f2f3fc"/><path d="M393.39,53.57a8.77,8.77,0,0,0,.09-1.2c0-.72-.2-.9-.9-1l-1.68-.24.22-1.44h7.73l-.21,1.44-1.2.15c-.93.12-1,.48-1.26,2.22l-.69,5.31a14.88,14.88,0,0,1-6.62,1.41c-6.73,0-9.24-4.26-9.24-9.21,0-8.34,6.15-12.93,12.48-12.93A13.71,13.71,0,0,1,398,39.2L397.05,44l-1.76-.15-.09-2.1C395.13,40.4,394.38,40,392,40c-4.21,0-9.16,3-9.16,11,0,5.4,3.18,7.17,6.49,7.17a12.24,12.24,0,0,0,2.54-.27c.93-.21,1-.51,1.14-1.32Z" fill="#f2f3fc"/><path d="M405.79,60.14c-2.8,0-4.54-1.77-3.84-5.85l1.17-6.81a3.17,3.17,0,0,0,0-.42c0-.69-.42-1-1.17-1a7.16,7.16,0,0,0-1.56.24l-.27-1.23a7.93,7.93,0,0,1,3.31-.93c1.92,0,2.6,1.29,2.3,3.09l-1.29,7.56c-.33,2,.34,3,2.19,3a6.71,6.71,0,0,0,4.15-1.56l1.13-7.5.48-4.11,2.47-.27.26.21-1.8,11.94c-.15,1,0,1.47.87,1.56a7.15,7.15,0,0,0,1.84-.24l.2,1.35a8,8,0,0,1-3.42.93c-1.41,0-2.07-1-2.07-2.34A6.58,6.58,0,0,1,405.79,60.14Z" fill="#f2f3fc"/><path d="M422.55,47.75a4,4,0,0,0,0-.57c-.05-.66-.45-1-1.31-1a6.72,6.72,0,0,0-1.56.21l-.25-1.35a10.29,10.29,0,0,1,3.67-.9c1.41,0,2.49.63,2.18,2.7-.57,3.3-1.1,6.57-1.68,9.87a4.1,4.1,0,0,0,0,.48c0,.66.44.93,1.08.93a6.9,6.9,0,0,0,1.88-.33l.27,1.32a8.09,8.09,0,0,1-3.63,1,2.09,2.09,0,0,1-2.36-2.28,4.74,4.74,0,0,1,0-.81ZM423.81,41a1.58,1.58,0,0,1-1.7-1.74,2,2,0,0,1,2.21-2,1.53,1.53,0,0,1,1.74,1.65A2,2,0,0,1,423.81,41Z" fill="#f2f3fc"/><path d="M434.79,60.14c-3.63,0-5-3.24-5-5.82,0-7.14,3.93-10.17,7.47-10.17a5.35,5.35,0,0,1,4,2l.84-5.61c.18-1.29.06-1.56-1.11-1.8l-1.38-.3.24-1.26,4.83-.48.45.33-2.82,19.77a2.75,2.75,0,0,0,0,.48c0,.6.39.87,1.29.87a11.09,11.09,0,0,0,1.44-.21l.27,1.32a8.77,8.77,0,0,1-3.27.93,2,2,0,0,1-2.28-2.25A6.55,6.55,0,0,1,434.79,60.14ZM441,47.57a6,6,0,0,0-3.57-1.17c-3,0-4.83,2.61-4.83,7.65,0,2.64,1.11,3.9,3,3.9a7,7,0,0,0,4.08-1.5Z" fill="#f2f3fc"/><path d="M460.08,57.11a8.3,8.3,0,0,1-6.51,3c-4.23,0-5.69-3-5.69-5.88,0-7,4.34-10.11,8.24-10.11,2.79,0,4.65,1.44,4.65,3.84,0,4.95-5.94,5.58-10,5.49-.06,2.61.78,4.23,3.81,4.23A7.43,7.43,0,0,0,459.21,56ZM457.74,48c0-1.14-.69-2-2.28-2-1.91,0-4.08,1.77-4.58,5.67C454.26,51.65,457.74,51.5,457.74,48Z" fill="#f2f3fc"/><path d="M45.39,61.42c-.12.3-.23.56-.35.8a.42.42,0,0,1-.25.24.15.15,0,0,1-.09,0,.41.41,0,0,1-.17,0c-.12-.07-.24-.22-.07-.53A7.7,7.7,0,0,0,45,60.61,3.78,3.78,0,0,0,45,58.75l0-.13a2.1,2.1,0,0,0-.49-1.1.33.33,0,0,1-.2-.27.33.33,0,0,1,.12-.31.37.37,0,0,1,.37,0,2.17,2.17,0,0,1,.8,1.38v.05A4.79,4.79,0,0,1,45.39,61.42Z" fill="#f2f3fc"/><path d="M48.4,62.27l-.22.51c-.09.19-.17.38-.25.57a.49.49,0,0,1-.25.26.57.57,0,0,1-.18,0,.47.47,0,0,1-.17,0,.48.48,0,0,1-.26-.61c.07-.18.15-.36.23-.54s.21-.49.3-.73a5.62,5.62,0,0,0,.22-2,6.06,6.06,0,0,0-.31-2.18l-.07-.22a4.79,4.79,0,0,0-.51-1,.5.5,0,0,1-.15-.64.45.45,0,0,1,.34-.23.51.51,0,0,1,.39.14,2.79,2.79,0,0,1,.62,1l.06.15a6,6,0,0,1,.53,2.16v.23A7.55,7.55,0,0,1,48.4,62.27Z" fill="#f2f3fc"/><path d="M51.86,62.67A11.07,11.07,0,0,1,51,64.4a.85.85,0,0,1-.48.49.47.47,0,0,1-.17,0,.66.66,0,0,1-.32-.07h0a.63.63,0,0,1-.23-.85c.2-.33.36-.63.51-.91a7,7,0,0,0,.38-.91A8,8,0,0,0,50.3,56l-.1-.17a6.66,6.66,0,0,0-.61-1l-.13-.13a.77.77,0,0,1-.33-.56.62.62,0,0,1,.62-.63c.55.08.94.7,1.2,1.12l.07.11A9.32,9.32,0,0,1,51.86,62.67Z" fill="#f2f3fc"/><path d="M43.73,51.5a2.31,2.31,0,0,1-.85.9c-.11.08-.21.14-.3.22a5,5,0,0,0-1.43,1.51,1.91,1.91,0,0,0-.1,1.73c.07.13.16.26.24.38a3.24,3.24,0,0,1,.39.74,1.18,1.18,0,0,1-.46,1.29c-.54.43-.84.69-.86.87s.3.53.72,1a1,1,0,0,1,.23.88,1,1,0,0,1-.65.73l-.12.05c-.18.06-.26.09-.28.16a1.72,1.72,0,0,0,.05.7,2.74,2.74,0,0,1,0,.28c0,.17.06.35.1.51a8,8,0,0,1,.16,1.08c0,2-1.93,3.34-3.62,3.87a9.68,9.68,0,0,1-3.64,0,10.31,10.31,0,0,0-3.13-.1c-1.64.37-2.6,1.25-4.16,2.77-1.2,1.48-5,3.77-7.07,4l-.87.09H18l-.86.08,1.72-.68a14.66,14.66,0,0,0,4.39-3.18c.62-.56,1.09-1,1.54-1.49A19.19,19.19,0,0,1,26.87,68a8.42,8.42,0,0,1,3.19-1.6,10.08,10.08,0,0,1,3.38.12c1.79.28,3.48.53,4.92-1,.63-.65.4-1.33.11-2.19l0-.08a2.63,2.63,0,0,1,.37-2.68A2.24,2.24,0,0,1,38.42,59a2.76,2.76,0,0,1,1.26-1.73,5.41,5.41,0,0,1-.5-1c-.53-1.78.74-3.43,1.32-4.06a8.2,8.2,0,0,1,1-.86l.38-.3.19-.17a10.23,10.23,0,0,1-4.39-4.78A12.77,12.77,0,0,1,37,41.74l0-.35c0-.41,0-.82,0-1.22v-.05c0-.61,0-1.3,0-2a13.79,13.79,0,0,0-.86-3.57l-.09-.27a14.55,14.55,0,0,0-2.77-4.72,19,19,0,0,0-2.19-2.31A21.52,21.52,0,0,0,27,24.59a22.65,22.65,0,0,0-2.68-1.11,26,26,0,0,0-2.78-.68l-.86-.17c-.59-.12-1.17-.24-1.75-.3l-1.81-.39,1.52-.07c.38,0,.77,0,1.18,0s.57,0,.85,0l.5,0c1.25,0,2.47.15,3.38.27a16.49,16.49,0,0,1,6,2.75A16,16,0,0,1,33.07,27a25.15,25.15,0,0,1,3.27,3.89,17.7,17.7,0,0,1,2.47,6.25,33.68,33.68,0,0,1,.25,3.72c0,.65,0,1.31.08,1.94A7.09,7.09,0,0,0,41,47.36a9.33,9.33,0,0,0,1.71,1.44A2,2,0,0,1,43.73,51.5Z" fill="#f2f3fc"/><path d="M90.89,22.13l-.19,0-.25.06-.28.07-.23.05-.31,0a34.3,34.3,0,0,0-5.17,1.24l-.37.14a26.32,26.32,0,0,0-3.23,1.31,16.2,16.2,0,0,0-7.81,9.1,24,24,0,0,0-1,5,34.5,34.5,0,0,1-.67,3.74c-.11.41-.21.84-.3,1.22a8.12,8.12,0,0,1-3.94,5.77c-.32.2-.67.44-1.07.72l.56.36a8.37,8.37,0,0,1,1.85,1.47,5.08,5.08,0,0,1,1.37,3.31,3.46,3.46,0,0,1-.31,1.63,1.3,1.3,0,0,1,.57.63,2,2,0,0,1,0,1.5,3,3,0,0,1,.79,1.73A8.48,8.48,0,0,1,71,63.41a6.37,6.37,0,0,0,.34,2.64c.4.64,1.72.52,2.78.42.33,0,.63-.06.88-.06l.57,0a11.44,11.44,0,0,1,2.68,0c1.48.3,2.63,1.75,3.73,3.15a11.88,11.88,0,0,0,1.92,2.11l.62.56a10.24,10.24,0,0,0,3.29,2.26,7.29,7.29,0,0,0,1.16.29l1.82.31-1.38.06a8.48,8.48,0,0,1-1,.05l-.47,0A5.45,5.45,0,0,1,86.7,75a6.87,6.87,0,0,1-2-.83c-.44-.26-1.08-.73-1.59-1.09A13.57,13.57,0,0,1,80.79,71c-.24-.24-.5-.55-.75-.84a5.22,5.22,0,0,0-2-1.76,14.08,14.08,0,0,0-3,.1c-.64.07-1.3.13-2,.15h-.38a4.37,4.37,0,0,1-2.23-.34,3.3,3.3,0,0,1-1.45-1.91,8,8,0,0,1-.17-2.79A7.24,7.24,0,0,0,68.73,61a1.43,1.43,0,0,1-.86-.84,1.79,1.79,0,0,1,.19-1.4,1.16,1.16,0,0,1-.8-1.11,1.37,1.37,0,0,1,.35-.85,1.1,1.1,0,0,0,.22-.37,2.15,2.15,0,0,0,0-1.23,5.13,5.13,0,0,0-1.29-1.81,6.29,6.29,0,0,0-.88-.65c-1-.6-2.12-1.35-1.58-2.57a1.32,1.32,0,0,1,.74-.58,10.84,10.84,0,0,0,.92-.66c.39-.38.77-.72,1.07-1a6.2,6.2,0,0,0,2.38-3.54A32.17,32.17,0,0,0,70,40.16c.15-1.16.31-2.35.57-3.51a23.58,23.58,0,0,1,1.55-4.58,13,13,0,0,1,1.7-2.8A17.76,17.76,0,0,1,83,22.55a21,21,0,0,1,6.69-.62" fill="#f2f3fc"/><line x1="89.83" y1="21.96" x2="89.96" y2="21.99" fill="#f2f3fc"/></svg>