<svg xmlns="http://www.w3.org/2000/svg" viewBox="0 0 288 288"><defs><style>.cls-1{fill:#f2f3fc;}</style></defs><g id="Layer_2" data-name="Layer 2"><path class="cls-1" d="M144,45a99,99,0,1,0,99,99A99,99,0,0,0,144,45Zm56.92,65.46C181.4,75.81,142.16,78.63,140.5,78.77a9,9,0,0,1-1.58-17.93c2.12-.19,52.37-4.15,77.69,40.81a9,9,0,0,1-3.43,12.25,8.9,8.9,0,0,1-4.41,1.16A9,9,0,0,1,200.92,110.48Zm31.27,52.67a9,9,0,0,1-8.86,7.48,7.91,7.91,0,0,1-1.53-.13,9,9,0,0,1-7.35-10.39,42.53,42.53,0,0,0,.28-14.05.11.11,0,0,0,0-.05,47.64,47.64,0,0,0-3.32-9,9,9,0,0,1,4.2-12,10,10,0,0,1,1.43-.54,9,9,0,0,1,10.58,4.74,42.79,42.79,0,0,1,4.74,13.16.07.07,0,0,1,0,.05,59.27,59.27,0,0,1,0,19.73C232.3,162.49,232.25,162.82,232.19,163.15Z"/></g></svg>