<svg xmlns="http://www.w3.org/2000/svg" viewBox="0 0 288 288"><defs><style>.cls-1{fill:#152063;}</style></defs><g id="Layer_1" data-name="Layer 1"><path class="cls-1" d="M144,45A99,99,0,0,0,76.35,216.25a46.19,46.19,0,0,1-16.58,18.88c-11.55,7.17,29.08,4.49,35.88-4.75A99,99,0,1,0,144,45ZM94.9,157.16A13.16,13.16,0,1,1,108.06,144,13.16,13.16,0,0,1,94.9,157.16Zm49.1,0A13.16,13.16,0,1,1,157.16,144,13.16,13.16,0,0,1,144,157.16Zm49.1,0A13.16,13.16,0,1,1,206.25,144,13.16,13.16,0,0,1,193.1,157.16Z"/></g></svg>