<svg xmlns="http://www.w3.org/2000/svg" xmlns:xlink="http://www.w3.org/1999/xlink" viewBox="0 0 322.94 322.94"><defs><style>.cls-1{fill:none;}.cls-2{fill:#bcbcbc;}.cls-3{clip-path:url(#clip-path);}.cls-4{fill:#af6a39;}.cls-5{fill:#9b5322;}.cls-6{fill:#0b1547;}.cls-7{fill:#b1770c;}.cls-8{fill:#915d0a;}.cls-9{fill:#152063;}.cls-10{fill:#223077;}.cls-11{fill:#dfe9f4;}.cls-12{fill:#b6c5d3;}.cls-13{fill:#c6d4e0;}.cls-14{fill:#9fafbc;}.cls-15{fill:#914f23;}.cls-16{fill:#fcfcfc;}.cls-17{fill:#fff;}.cls-18{fill:#9ea9af;}.cls-19{opacity:0.45;}.cls-20{fill:#b06939;}.cls-21{fill:#b06839;}.cls-22{fill:#b16739;}.cls-23{fill:#b16639;}.cls-24{fill:#b26539;}.cls-25{fill:#b26439;}.cls-26{fill:#b36338;}.cls-27{fill:#b36238;}.cls-28{fill:#b46138;}.cls-29{fill:#b46038;}.cls-30{fill:#b56038;}.cls-31{fill:#b55f38;}.cls-32{fill:#b65e38;}.cls-33{fill:#b65d38;}.cls-34{fill:#b75c38;}.cls-35{fill:#b75b38;}.cls-36{fill:#b85a38;}.cls-37{fill:#b85938;}.cls-38{fill:#b95838;}.cls-39{fill:#b95738;}.cls-40{fill:#ba5637;}.cls-41{fill:#ba5537;}.cls-42{fill:#bb5437;}.cls-43{fill:#bb5337;}.cls-44{fill:#bc5237;}.cls-45{fill:#bc5137;}.cls-46{fill:#bd5037;}.cls-47{fill:#bd4f37;}.cls-48{fill:#be4e37;}.cls-49{fill:#be4d37;}.cls-50{fill:#bf4d37;}.cls-51{fill:#bf4c37;}.cls-52{fill:#c04b37;}.cls-53{fill:#c04a37;}.cls-54{fill:#c14936;}.cls-55{fill:#c14836;}.cls-56{fill:#c24736;}.cls-57{fill:#c24636;}.cls-58{fill:#c34536;}.cls-59{fill:#c34436;}.cls-60{fill:#c44336;}.cls-61{fill:#54301d;}.cls-62{fill:#a05946;}.cls-63{fill:#c6865c;}.cls-64{fill:#89493c;}.cls-65{fill:#7c3c28;}</style><clipPath id="clip-path"><rect class="cls-1" width="322.94" height="322.94" rx="64.41"/></clipPath></defs><g id="background"><rect class="cls-2" width="322.94" height="322.94" rx="64.41"/></g><g id="image"><g class="cls-3"><path class="cls-4" d="M134.2,99s.48,17-1.33,23,6.93,18.4,17.53,20c24.8,3.63,29-9.07,29-9.07s-1.21-23,0-29a25,25,0,0,1-18.14,6C149.8,109.37,134.2,99,134.2,99Z"/><path class="cls-5" d="M162.24,113.59c-11.49-.61-28-14.14-28-14.14s-.42,1.11,1.94,7.92c3.37,7.27,10.8,22,24.13,21.33,10.91-.55,15.38-8.37,18.35-16.27.08-1,.83-7,1.29-5.92A22,22,0,0,1,162.24,113.59Z"/><path class="cls-6" d="M179.73,122.37s-5.89,12.85-10,16.33-8.46,2.27-13.6-1.06-22.37-19.35-22.37-19.35L125,126.45s8.77,31.75,13,40.22,16.78,34.76,19.65,37.94,9.37,11.49,18.44,3.17,18.9-22.67,9.68-72.41C185.06,131.47,179.73,122.37,179.73,122.37Z"/><path class="cls-7" d="M160.23,195.39s.15-19.2.76-26.46a148.61,148.61,0,0,0-.15-18s3-3.62,5.89-3.32a6.49,6.49,0,0,1,4.08,1.66s6.07,17.54,7.41,24.49c1.66,8.62,3.33,25.25,3.33,25.25L171,209.9S161.89,200.68,160.23,195.39Z"/><path class="cls-8" d="M164.31,149.13c-1.35,1.43-.69,5.75-.45,7.56.3,2.27,1.06,4.38,1.66,3.17s.76-10.13.76-10.13a36.11,36.11,0,0,0,2,5.6c.51.94,3.18,1.36,1.82-1.82S166.73,146.56,164.31,149.13Z"/><path class="cls-8" d="M170.81,149.28a6.49,6.49,0,0,0-4.08-1.66c-2.87-.3-5.89,3.32-5.89,3.32s.1,2.45.15,3.18a29.77,29.77,0,0,1,2.87-1.36c2.57-.91,6.16-.15,7.71-1.21C171.25,150.62,170.81,149.28,170.81,149.28Z"/><path class="cls-7" d="M155.24,144.9c.76.9,2.27,2.87,3.18,4.08s2.49,3.12,2.49,3.12a33.4,33.4,0,0,1,4.31-1.31c2.57-.6,5.65.28,6.1,0s3.42-6,3.12-7.53-6.05-2.72-7.1-2.72-6.09,0-7.56.91A26.85,26.85,0,0,0,155.24,144.9Z"/><path class="cls-8" d="M153.73,143.54c.63.75,1.53,1.39,2.42,2.57,1-1.68,1.82-3.56,4.08-4.24a32,32,0,0,0,3.88-1.27c-1.69.11-4.44-1-5.24-.54C156.15,141.72,153.73,143.54,153.73,143.54Z"/><path class="cls-8" d="M167.34,140.51h-.74a38,38,0,0,1,5,3c.87.78,1.12,1.9,2.19,2.53a6.67,6.67,0,0,0,.68-2.84C174.14,141.72,168.39,140.51,167.34,140.51Z"/><path class="cls-9" d="M165.37,140.21s6.56-4.74,10.13-10.43c4.08-6.5,3.63-9.68,3.63-9.68a1.49,1.49,0,0,1,.9.91c.31.76,1.36,3,1.36,3,.46,19.46.48,19.48,1.06,22.08a31.92,31.92,0,0,0,1.67,5.14,21.41,21.41,0,0,1-5.6-2.72c-4.38-3.33-4.84-5.9-7.25-6.51S165.37,140.21,165.37,140.21Z"/><path class="cls-9" d="M166.6,140.52c-.61-1.06-3.8-2-6.37-3.18a105.71,105.71,0,0,1-15.57-10.58c-4.84-4.09-8.62-8.62-10.43-14.37a17.09,17.09,0,0,0-1.81,4.39,35.38,35.38,0,0,1-1.67,5s-.15,10.13,1.82,14.21,4.38,9.37,4.53,11.49.76,6.8.76,6.8,6.5-1.81,9.22-3.93,6.48-6.3,9.36-7.81S166.6,140.52,166.6,140.52Z"/><path class="cls-10" d="M162.55,139.47a45.38,45.38,0,0,1-4.28-2.2q-2.07-1.2-4.05-2.52c-2.65-1.75-5.19-3.64-7.66-5.64-.61-.5-1.23-1-1.83-1.51s-1.21-1-1.81-1.55-1.21-1.06-1.78-1.58-1.11-1.08-1.64-1.65a34.24,34.24,0,0,1-3-3.67,40,40,0,0,1-2.54-4.08,16.21,16.21,0,0,0,.66,2.36,23.58,23.58,0,0,0,.94,2.27,25.42,25.42,0,0,0,2.56,4.24,22.72,22.72,0,0,0,1.61,1.92c.29.32.57.6.86.89l.87.85c.59.57,1.2,1.11,1.8,1.66s1.24,1.06,1.88,1.58a50.7,50.7,0,0,0,8.16,5.42,38.9,38.9,0,0,0,4.48,2c.77.28,1.55.54,2.34.75A16.42,16.42,0,0,0,162.55,139.47Z"/><path class="cls-10" d="M179.73,122.37a27.59,27.59,0,0,1-1.86,4.78c-.38.75-.77,1.48-1.2,2.19-.21.36-.44.7-.66,1s-.47.7-.7,1c-1,1.27-2.13,2.51-3.27,3.78s-2.3,2.57-3.37,4a16.75,16.75,0,0,0,2.4-1.19,25.13,25.13,0,0,0,2.21-1.49,22.21,22.21,0,0,0,2-1.75c.33-.32.64-.64.94-1a13.3,13.3,0,0,0,.86-1.09c.28-.4.51-.79.74-1.18s.43-.81.63-1.22a16.59,16.59,0,0,0,.94-2.55,13.69,13.69,0,0,0,.47-2.68A9.33,9.33,0,0,0,179.73,122.37Z"/><path class="cls-11" d="M221.46,142.93c3.62,1.82,8.61,5.9,10.88,9.53s6.62,9.69,10,27.57c2.21,11.6,6,20.44,7.94,28.67,1.68,6.93,6.07,18.59,6.52,21.76s-1.86,22.48-3.68,27.92-2.22,5.64-12.65,2.47-18.59-8.17-22.67-16.33-4.08-20-5-26.3,1.36-21.32,4.53-30.84,5.45-22.23,5.45-30.39A69.13,69.13,0,0,0,221.46,142.93Z"/><path class="cls-12" d="M236.83,215.66c-8.16-5-11.29-6.06-7.21-11.5s13.15-9.53,9.52-11.34-17.68,8.61-13.6,1.81,12.7-6.8,9.07-9.07-10.43,6.35-11.34,5.45,3.17-10.89,2.27-19A118,118,0,0,0,222.82,157c0,8.16-2.28,20.83-5.45,30.34s-5.44,24.49-4.53,30.84.91,18.14,5,26.3c2.82,5.65,7.61,9.78,13.75,12.84,5.38-6.08-7.12-26.15-3.78-31,4.09-5.9,12.25-1.82,17.24.91S245,220.65,236.83,215.66Z"/><path class="cls-11" d="M181.39,124s14.67,8.92,18.75,9.83,18.59,7.71,21.32,9.07,2.72,8.16,3.17,16.78-2.27,20.41-4.08,30.84-5.9,23.13-5.9,29.93c0,0,5.44,30.84,6.35,38.1s1.62,34,3.7,47.5c6.81,44.28,4.25,149,4.25,149s-10.8,5.1-17.67,5.1c-7.1,0-23.2.86-30.87.86s-27.25,5.11-53.64,5.11a227.44,227.44,0,0,1-47.69-5.11s6-106.45,10.13-141.23c1.47-12.23,5.71-40.85,7.07-49.92s8.17-49,7.26-59.87-.45-32.65-3.63-38.55S81.77,152,81.77,152s7.71-8.62,12.25-11.34,15.42-7.71,19.5-10,13.6-8.17,13.6-8.17,11.34,21.32,15,25.4S157,165.19,163,175.58c7.26,12.7,9.07,21.77,9.07,21.77a148,148,0,0,1,3.18-28.57c3.17-14.06,5.89-30.38,5.89-30.38Z"/><path class="cls-13" d="M223.35,294.15c-.85-14.2-.4-28.73-1.31-36s-7.39-37.69-7.39-37.69c0-4,1.43-10.11,3-16.56-1.11-2.62-1-8.57-.7-14.73.45-9.07.45-26.3-1.81-31.75s-.46,15.88-2.27,26.31-5,8.61-7.26,5.44-9.52,10.88-10.43,16.78-4.53,14.06-7.25,14.51-6.35,1.36-10.44,2.27-12.7,0-19-2.72S148,204.61,145.26,199.62s-11.33-16.33-10.43-8.16-3.17,5-5.44,0-7.73-22-12.24-29C108.08,148.37,104,148.37,104,148.37a161.87,161.87,0,0,1,10,15.88c5,9.07,7.26,23.13,7.26,23.13s-5-15.42-9.53-20.87a16.1,16.1,0,0,0-5.44-4.53c8.62,10,11,30.27,7.71,38.55-1.23,3.07-6.21-6.35-11.55-14.3.53,8.22.61,17.73,1.12,23.82.91,10.89-5.89,50.8-7.26,59.87s-4.93,37.79-7.07,49.92c-3.9,22.09-10.13,141.23-10.13,141.23s2.55-23,8.51-57.06c10-57.19,10.22-91.12,28.1-92.82,19.59,0,55.4-1.71,79.2-8.51C200.85,301,208,293.3,223.35,294.15Z"/><path class="cls-12" d="M171.57,303.78c-.3-9.07-.91-40.51-.61-49.89s1.52-38.7,1.52-38.7,3.62-16,6.65-22.37,11.51-22.09,14.51-27.82a23.83,23.83,0,0,1,9.37-9.37l-4.23-6.35h8.77a106.3,106.3,0,0,0-16.33-19.35,47.29,47.29,0,0,1-9.83-5.9l-.3,14.37s-2.72,16.32-5.89,30.38A148,148,0,0,0,172,197.35s-.82-6.26-8.08-19c-5.94-10.4-17.77-24.83-21.4-28.91s-15.42-27-15.42-27-2.63,1.64-5.72,3.51l-7.88,20.53s4.53-1.21,6.65-.91a48.52,48.52,0,0,1,7.26,2.42l-3.93,9.07s10.58,9.37,13.6,12.7,17.54,22.37,20,25.09,10.58,17.54,11.49,20a31.48,31.48,0,0,1,1.81,15.42c-.91,7.86-.91,57.14-.91,62.58,0,5.11-2,165.1-1.74,169.59l2.41-.14C169.93,458.71,171.85,312.19,171.57,303.78Z"/><path class="cls-11" d="M131.05,117.23a30.46,30.46,0,0,0-4.53,2.72A43.8,43.8,0,0,0,121.4,126l-6.07,15.39s10.58,1.51,12.1,2.72l-.91,10s10,10,16.33,15.42,13,14.21,17.23,20.86,12.39,25.52,12.39,25.52.91-15.24-1.2-25.22-26-37.49-31.15-46.56-6.34-10.28-7.25-16.63a48.08,48.08,0,0,1-.45-10.73Z"/><path class="cls-11" d="M172.48,215.19s-1.82-26.91,0-37.79,6-28.12,7.25-33,2.12-19.35,1.66-20.41-2.26-3.93-2.26-3.93,3.93,2.27,6,3.78,17.84,20.26,19.66,23c0,0-8.17-.6-9.38,0s5.14,7.26,5.14,7.26-4.83,1.21-8.76,7.56-10.89,21.16-13.31,27.51S172.48,215.19,172.48,215.19Z"/><path class="cls-14" d="M223.06,280.81c-4.44.91-10.2.65-14.67,1.15a139.21,139.21,0,0,1-17.52.42,45.38,45.38,0,0,1-.17,5.52c-1,1.35-5.38,1.72-9.08,2.56-9.17,2.08-60,12.77-70.38,10.68-5.27-1.05-12-5.72-17.68-11.26,1.13-8.38,2.13-16,2.72-20,.9-6,4.16-25.33,6-41,15.72.14,36.51.76,44.38,3,13.34,3.75,50.87,12.09,65,9.17q3.39-.69,6.3-1.15c1.31,7.68,2.58,15.44,3,18.63A199.72,199.72,0,0,1,223.06,280.81Z"/><path class="cls-11" d="M133.93,234.09c-2.73.91-14.13,7.2-16.78,10.43-6.35,7.71-15,10.88-18.6,20s-5.44,11.8-2.27,15.42,30.39,9.07,54,3.63c12.58-2.9,36.74-5.44,36.74-5.44s4.08-7.26,3.17-18.6-7.25-25.39-7.25-25.39-15.42-.91-22.68-.45S133.93,234.09,133.93,234.09Z"/><path class="cls-14" d="M182.91,234.09s-15.42-.91-22.68-.45-26.3.45-26.3.45c8.16,7.43,18,14.52,24.84,14.52,1.75,0,5.32,2.68,9,3.81s4.7,3.89,8.71,5.56c6.67,2.78,12.56,2.29,15.38.93C189.79,249.29,182.91,234.09,182.91,234.09Z"/><path class="cls-5" d="M193.38,226.26s5.81-11.33,10.26-17.66,5.14-7,9.58-10.33,10.61-7.66,11.64-6-2.05,5.33-2.05,5.33-6.85,5-8.22,7.34a38.66,38.66,0,0,0-2.39,5,85.86,85.86,0,0,1,6.16-7.33c2.39-2.33,4.45-3,6.5-4.33s6.7-3.82,7.53-2.33c1.18,2.12-1.46,4.05-3.51,5.38s-6.76,5-8.13,7l-3.42,5s5.48-5.66,7.53-7.33a28.36,28.36,0,0,1,4.73-3.05c.43-.25,2.72-1.56,3.41-1.84,2.05-.86,3.35.89,2.41,2.55-2.41,4.26-5.42,5-7.47,6.67s-5.82,5.67-5.82,5.67,3.42-1,4.79-2.33,5.82-5,5.82-3a8.13,8.13,0,0,1-2.74,5.66c-1.71,1.67-6.16,5.67-6.16,5.67S198.85,222.26,193.38,226.26Z"/><path class="cls-15" d="M193.38,226.26l.81-1.55c4-1.47,11.86-3.7,14.51-4.62A46.31,46.31,0,0,1,220,217.58c4.3-.4,7.51-1.39,8.76-2.36a27.72,27.72,0,0,0,4-4.81,1.11,1.11,0,0,1,0,.19,8.13,8.13,0,0,1-2.74,5.66c-1.71,1.67-6.16,5.67-6.16,5.67S198.85,222.26,193.38,226.26Z"/><path class="cls-14" d="M178.37,227.29c-5,7.71-3.63,27.21,1.36,38.09,3,6.52,4.18,7,5.8,5.2,4.26-4.81,7.6-12.41,4.63-28.33C188.14,231.39,181,223.17,178.37,227.29Z"/><path class="cls-5" d="M179.28,229s-14.43-3.59-21-5.62S142,214,134,215s-24.09,8-24.09,8L119,238.53s10.16-6.17,14.93-4.44,20.71,10,24.73,10.69,12.14,4.35,12.14,4.35S180.76,233.8,179.28,229Z"/><path class="cls-15" d="M174.38,243.12a9.4,9.4,0,0,0-1.84-1.51c-9.16-5.69-17.08-6-22.22-8.27s-10.63-8.72-11.67-10.2c-5.38-5.74-8-6.17-9.81-6-8,.95-17.48,10.84-17.48,10.84l12.83,8.65s5.75-5.74,17.24.93c4.38,2.54,13.21,6.49,17.23,7.18s12.14,4.35,12.14,4.35S172.49,246.53,174.38,243.12Z"/><path class="cls-9" d="M163.64,223.54s2.37,5-.12,17c-.66,3.14-1.29,7.6-1.29,7.6a32.34,32.34,0,0,0,4.94,2.53c1.46.4,5,1.45,5,1.45s3.35,4.71,5.51,5.53,15.72,5,15.72,5,11.39-23.83,10.44-29.05-13.4-7.79-13.4-7.79-9.54-.7-11.48-.11S163.64,223.54,163.64,223.54Z"/><path class="cls-6" d="M181.27,225.55l.25-.11c3.5-.06,8.88.34,8.88.34s12.44,2.57,13.4,7.79-10.44,29.05-10.44,29.05-6.15-1.88-10.83-3.36a35.6,35.6,0,0,0,2.09-9.4C186.7,232.76,181.27,225.55,181.27,225.55Z"/><path class="cls-11" d="M181.52,225.44s6.83,0,12.72-.42,17.69-4.08,20.41-4.54,13.83-.85,21.61,2.13c18.17,7,17.75,14.37,18.17,19.73.46,5.88.25,15.45-1.56,18.17s-9.19,8.5-13.73,8.95-30.56,1.86-35.63,1.86c-9.83,0-19.83.19-19.83.19s3.15-2,4.07-16.31C188.37,245.69,185.6,225.89,181.52,225.44Z"/><path class="cls-11" d="M81.77,152a38.37,38.37,0,0,1,16.78,8.17C106.72,167,115.79,181,119,186.92A161.12,161.12,0,0,1,127.58,206c1.36,4.08,1.81,9.52,2.27,14.51s1,8.22,2.72,11.34c2,3.74,5.24,7.17-2.27,7.26-3.9,0-5.44,11.79-6.8,16.78s-11.8,23.58-16.33,24.94-5.9,3.63-10.89-.91-12.69-24-18.14-43.08-6.35-40.36-5-54.88S75.42,156.54,81.77,152Z"/><path class="cls-13" d="M111.25,232.27c-3.63-4.08-14.06,16.78-14.51,8.17s8.61-13.15,8.16-19.05-14.06,2.27-19.05,5-7.71-27.67-8.61-39.46c-.76-9.85,2-25.7,2.08-32.51-4.16,5.41-5,15.14-6.17,27.52-1.36,14.52-.45,35.83,5,54.88S92,274.71,96.28,279.89c2.27,2.72,6.12,4.21,10.79,5,2.72.46,13.57,2.24,15.06.47-10.88-2.73-19.11-7.67-19.5-15C102.18,261.75,114.88,236.36,111.25,232.27Z"/><path class="cls-16" d="M171.73,204.52a23.23,23.23,0,0,0-.07-6.12,44.23,44.23,0,0,0-1.21-6,59.93,59.93,0,0,0-1.93-5.86c-.36-1-.75-1.91-1.16-2.85s-.85-1.89-1.32-2.81a70.86,70.86,0,0,0-6.55-10.49c-1.22-1.65-2.5-3.25-3.8-4.83s-2.65-3.11-4-4.63-2.68-3-3.9-4.55c-.31-.38-.6-.76-.88-1.14s-.5-.72-.82-1.2c-.59-.88-1.2-1.72-1.82-2.53-1.24-1.64-2.5-3.23-3.77-4.81s-2.53-3.15-3.78-4.73-2.46-3.16-3.6-4.79c-.57-.81-1.12-1.64-1.62-2.48-.25-.41-.48-.84-.69-1.26-.1-.21-.19-.42-.28-.64l-.29-.71c-.77-1.87-1.56-3.72-2.16-5.62a12.57,12.57,0,0,1-.6-2.9,7.47,7.47,0,0,1,.3-3,7.55,7.55,0,0,0-.81,3,13.41,13.41,0,0,0,.21,3.1,55.28,55.28,0,0,0,1.51,6l.22.72c.07.26.17.53.26.78.19.5.4,1,.62,1.47.46,1,1,1.86,1.48,2.75,1.05,1.78,2.18,3.49,3.34,5.17,2.32,3.36,4.78,6.59,7.11,9.85.57.81,1.15,1.62,1.67,2.44l.4.64.46.68c.32.44.63.87,1,1.28,1.3,1.65,2.64,3.17,4,4.7s2.67,3,4,4.56,2.58,3.06,3.81,4.63a83.77,83.77,0,0,1,6.76,9.81c.5.86,1,1.72,1.44,2.6s.9,1.78,1.34,2.68c.86,1.8,1.66,3.63,2.38,5.5a54.29,54.29,0,0,1,1.85,5.71c.26,1,.48,2,.65,2.94A20.09,20.09,0,0,1,171.73,204.52Z"/><path class="cls-17" d="M229,455.11s-2.55,3.4-13.62,5.11a112.55,112.55,0,0,1-24.77,1c-5-.23-10.15-.14-12.92-.29,2-4.25,8.76-55.36,11.29-70.53,3.89-23.35,6.14-51.76,6.14-51.76s19.22-18.47,23.66-24c2.2-2.75,6.52,28.92,6,54.5C224.19,392.58,229.16,448.46,229,455.11Z"/><path class="cls-16" d="M133.64,236.52c-4.82-6.81-5.11-18.17-6.53-25.83s-6.53-18.74-10.22-26.12a93.83,93.83,0,0,0-15.33-22.14c-6.24-6.53-13-9.37-13.34-7.66s5.68,4.54,11.92,14.76,14.2,24.69,9.66,24.41-15,12.49-14.76,18.17,2.83.28,11.63,2,3.13,3.4.86,7.38S103.27,231.7,109,228s11.07-9.09,12.77-4.83.85,10.22-.85,15.9,13.06,6,19.87,5.67C145,244.58,133.64,236.52,133.64,236.52Z"/><path class="cls-16" d="M170.83,276c-.85-.28-16.46,3.12-22.71,4.83s-36.05,5.39-39.46-6,4.54.57,13.91,1.42S170.83,276,170.83,276Z"/><path class="cls-16" d="M256.28,231.84s.14-3.69-2.42-9.94c-2.21-5.4-5.68-15.89-6.1-19.16s-3-9.94-3.83-13.63-3.84-16.89-5-20.86-5-12.49-6.81-14.34a13.21,13.21,0,0,0-3.41-2.55s2.55,3.83,2.84,6.53-2.27,15-3.55,19.16-4.54,8.94,0,7,8.66-4.69,9.51-2.84,1.7,4.4-.57,6.1-7.95,4.4-4.54,4.26,7.1-3.84,8.52-1.28,2.69,6.39-.29,8.09-4.54,1.14-3.69,4.12-2,1.27-.42,4.4,7.66,3.83,10.64,8.09S255.42,228.57,256.28,231.84Z"/><path class="cls-16" d="M248.89,231.7S236.83,224,232,222.61s-12.91-1.7-15.89-1.13-11.64,3-15.05,3.54-12.91,1.42-12.91,1.42l-4.83-.56s3.41,5.39,3.83,7.94.29,4.83,2.56,3,14.25-5.75,18.87-6.39c8.24-1.14,15.33,5.25,19.31,6.53s.14-6.11,4.54-5.4S257.55,241.91,248.89,231.7Z"/><path class="cls-6" d="M152.44,205.27c0,4.89-3.5,8.85-7.83,8.85s-7.82-4-7.82-8.85,3.5-8.84,7.82-8.84S152.44,200.39,152.44,205.27Z"/><path class="cls-18" d="M153.57,204.59c0,4.89-3.5,8.85-7.82,8.85s-7.83-4-7.83-8.85,3.51-8.84,7.83-8.84S153.57,199.71,153.57,204.59Z"/><path class="cls-6" d="M152.89,203.94c0,3.13-2.24,5.67-5,5.67s-5-2.54-5-5.67,2.25-5.67,5-5.67S152.89,200.81,152.89,203.94Z"/><path class="cls-18" d="M151.76,203.94a3.91,3.91,0,1,1-3.88-4.39A4.16,4.16,0,0,1,151.76,203.94Z"/><path class="cls-18" d="M143.82,196.66l.11-7.8s1.63-.67,2.31.46,0,6.58,0,6.58S146.09,197.79,143.82,196.66Z"/><path class="cls-6" d="M145.18,191.44a1.35,1.35,0,0,1-1.36-1.29c0-.15-.46-14.9-1.57-22.73-1-6.77-4.58-21.73-7.61-28.51-.42-.93-.85-1.83-1.28-2.72-2.91-6.11-5.66-11.87-1.93-22,.25-.69,1.79-3.3,2.49-3s-.3,3.34-.56,4c-3.35,9.12-.32,14.07,2.47,19.91.44.91.88,1.83,1.3,2.78,3.23,7.23,6.84,22.37,7.81,29.22,1.13,8,1.58,22.4,1.6,23a1.35,1.35,0,0,1-1.32,1.37Z"/><path class="cls-18" d="M208.78,199.63c-1.58.35-3.21.61-4.64.84-.69.11-1.31.21-1.84.31a45.73,45.73,0,0,1-6,.69l-.07-1.81A45.57,45.57,0,0,0,202,199c.53-.1,1.17-.2,1.87-.31,3-.48,8.1-1.29,9.52-2.83,1.66-1.79.15-9.78-.84-15.07-1.13-6-4.29-17.8-4.32-17.92l1.75-.47c0,.12,3.21,12,4.35,18.05,1.51,8,2.5,14.36.39,16.65C213.57,198.3,211.25,199.08,208.78,199.63Z"/><path class="cls-18" d="M216.31,200.45s-2.77-.34-7.45-.61c-1-.05-1.89-.08-2.73-.11-3.26-.1-5.62-.18-8.37-1.61-1.56-.81-3.49-4-4.51-6.52a90.53,90.53,0,0,1-2.8-8.73c-.33-1.14-.61-2.15-.85-2.91-1.3-4.06-3.11-16.29-3.18-16.81l1.79-.26c0,.12,1.86,12.6,3.11,16.52.25.77.54,1.8.87,3,.74,2.61,1.66,5.86,2.74,8.56s2.82,5.14,3.67,5.58c2.38,1.24,4.45,1.31,7.59,1.41.85,0,1.77.06,2.77.11,4.76.27,7.46.61,7.58.62Z"/><path class="cls-6" d="M192.89,203.68a2.87,2.87,0,0,1-2.85-1.33c-.76-.85,0-3.19,1.26-3.76s2.5,0,3.63-.1,1.91,1,2.26,2.31a2.78,2.78,0,0,1-.48,2.32Z"/><path class="cls-6" d="M219.63,201.81a2.89,2.89,0,0,0,2.93-1.15c.81-.8.26-3.17-1-3.83s-2.5-.16-3.62-.33-2,.84-2.39,2.15a2.75,2.75,0,0,0,.32,2.35Z"/><path class="cls-18" d="M185.89,161.49s.5,7,1,7.9a1.66,1.66,0,0,0,2.93-.57c.39-1.6-1.2-7.44-1.2-7.44A5.2,5.2,0,0,0,185.89,161.49Z"/><path class="cls-18" d="M207,160.66a24.48,24.48,0,0,0,2.07,6.73c.7.43,3,.12,2.68-1.24-.85-4.28-2.27-5.81-2.27-5.81S207.84,159.72,207,160.66Z"/><path class="cls-6" d="M208.87,162.61a1.35,1.35,0,0,1-1.55-.82c0-.09-3.58-8.81-7.19-12.15a8.73,8.73,0,0,0-6.75-2,5.07,5.07,0,0,0-3.81,2.65c-2.68,4.82-.68,13.49-.66,13.58a1.37,1.37,0,0,1-1,1.64h0a1.36,1.36,0,0,1-1.62-1c-.09-.39-2.26-9.79.93-15.52a7.78,7.78,0,0,1,5.76-4,11.27,11.27,0,0,1,9,2.72c4.06,3.76,7.72,12.75,7.87,13.13a1.36,1.36,0,0,1-.75,1.77Z"/><path class="cls-6" d="M192.35,147.6l-.14-1.34c0-.1-.38-2.6-3.3-9.37a67.93,67.93,0,0,0-8.71-14.65c-1.66-2.36-1.56-4-.87-3.47,2.33,1.79,7.62,6.7,12.08,17,3.13,7.26,3.48,9.87,3.51,10.14l.14,1.36Z"/><path class="cls-4" d="M180,40c2.41,2.43,7.95,12.59,8.16,18.67s-1,22.38-1,25.4-3,19.11-5.62,23a94.25,94.25,0,0,1-12.36,13.77c-4,3.31-10.79,4.83-18.53,1.1s-12.07-11.7-14.49-15.71-5.28-16.89-4.83-24.68.05-19.94.09-26S134,37.87,143.91,34.22,171.21,31.15,180,40Z"/><g class="cls-19"><path class="cls-4" d="M182.76,89.18a7.18,7.18,0,0,0,.29-4.46,9.48,9.48,0,0,0-1.67-3.51c-1.37-1.78-4.81-2.3-6.93-1.38-2.7,1.17-4.95,3.55-3,5.89a15.7,15.7,0,0,0,6.51,5C180.05,91.37,181.62,91.94,182.76,89.18Z"/><path class="cls-20" d="M174.47,79.86c-2.08.9-3.89,2.54-3.67,4.31a2.83,2.83,0,0,0,.68,1.48c.29.36.61.71.93,1a14.27,14.27,0,0,0,5.48,3.81c2.1.66,3.64,1.21,4.77-1.49a6.92,6.92,0,0,0,.31-4.37,9.35,9.35,0,0,0-1.68-3.45C179.93,79.47,176.56,79,174.47,79.86Z"/><path class="cls-21" d="M174.49,79.89c-2.05.89-3.82,2.5-3.62,4.24a2.78,2.78,0,0,0,.66,1.45,12.9,12.9,0,0,0,.93,1,14.07,14.07,0,0,0,5.4,3.71c2.06.64,3.57,1.18,4.71-1.45a6.75,6.75,0,0,0,.31-4.29,8.84,8.84,0,0,0-1.68-3.39C179.85,79.5,176.54,79,174.49,79.89Z"/><path class="cls-22" d="M174.5,79.92c-2,.88-3.75,2.46-3.56,4.17a2.82,2.82,0,0,0,.65,1.43c.28.34.59.68.91,1a14,14,0,0,0,5.32,3.61c2,.63,3.52,1.14,4.65-1.42a6.53,6.53,0,0,0,.33-4.21,8.48,8.48,0,0,0-1.68-3.31C179.77,79.54,176.53,79,174.5,79.92Z"/><path class="cls-23" d="M174.52,80c-2,.87-3.68,2.42-3.5,4.09a2.66,2.66,0,0,0,.62,1.41c.28.34.59.67.9,1A14,14,0,0,0,177.79,90c2,.6,3.46,1.1,4.58-1.4a6.34,6.34,0,0,0,.35-4.12A8.17,8.17,0,0,0,181,81.18C179.69,79.57,176.51,79.07,174.52,80Z"/><path class="cls-24" d="M174.54,80c-1.95.86-3.61,2.39-3.45,4a2.53,2.53,0,0,0,.61,1.38,10,10,0,0,0,.89,1,13.68,13.68,0,0,0,5.16,3.42c2,.59,3.41,1.07,4.53-1.36a6.11,6.11,0,0,0,.35-4A8,8,0,0,0,181,81.17C179.61,79.6,176.5,79.11,174.54,80Z"/><path class="cls-25" d="M174.56,80c-1.92.85-3.55,2.35-3.4,3.95a2.62,2.62,0,0,0,.59,1.36,12.77,12.77,0,0,0,.88.93,13.66,13.66,0,0,0,5.09,3.32c1.94.57,3.35,1,4.46-1.33a5.88,5.88,0,0,0,.37-3.95,7.81,7.81,0,0,0-1.69-3.13C179.54,79.64,176.48,79.15,174.56,80Z"/><path class="cls-26" d="M174.58,80c-1.89.84-3.48,2.31-3.34,3.88a2.42,2.42,0,0,0,.57,1.33,10.53,10.53,0,0,0,.86.91,13.52,13.52,0,0,0,5,3.22c1.92.56,3.3,1,4.4-1.3a5.66,5.66,0,0,0,.39-3.87,7.55,7.55,0,0,0-1.69-3A6,6,0,0,0,174.58,80Z"/><path class="cls-27" d="M174.6,80.06c-1.85.83-3.41,2.28-3.29,3.81a2.34,2.34,0,0,0,.55,1.31,9,9,0,0,0,.86.89,13.36,13.36,0,0,0,4.92,3.13c1.89.53,3.25,1,4.35-1.27a5.51,5.51,0,0,0,.39-3.79,7.11,7.11,0,0,0-1.69-3A5.91,5.91,0,0,0,174.6,80.06Z"/><path class="cls-28" d="M174.61,80.09c-1.81.82-3.34,2.24-3.22,3.74a2.28,2.28,0,0,0,.53,1.29,9.69,9.69,0,0,0,.84.86,13.23,13.23,0,0,0,4.85,3c1.85.52,3.19.92,4.28-1.24a5.29,5.29,0,0,0,.41-3.7,7.11,7.11,0,0,0-1.69-2.93A5.88,5.88,0,0,0,174.61,80.09Z"/><path class="cls-29" d="M174.63,80.12c-1.78.81-3.27,2.2-3.17,3.67a2.15,2.15,0,0,0,.52,1.26,8.11,8.11,0,0,0,.82.84,13.25,13.25,0,0,0,4.77,2.93c1.83.51,3.14.89,4.22-1.21a5.06,5.06,0,0,0,.43-3.61,6.77,6.77,0,0,0-1.7-2.86A5.77,5.77,0,0,0,174.63,80.12Z"/><path class="cls-30" d="M174.65,80.15c-1.75.8-3.21,2.16-3.12,3.59A2.08,2.08,0,0,0,172,85a6.35,6.35,0,0,0,.82.82,12.89,12.89,0,0,0,4.69,2.83c1.79.49,3.08.86,4.15-1.17a4.85,4.85,0,0,0,.44-3.54,6.5,6.5,0,0,0-1.7-2.79A5.71,5.71,0,0,0,174.65,80.15Z"/><path class="cls-31" d="M174.67,80.18c-1.72.79-3.14,2.12-3.06,3.52a2,2,0,0,0,.48,1.22,5.91,5.91,0,0,0,.8.78,12.91,12.91,0,0,0,4.61,2.75c1.77.47,3,.81,4.1-1.15a4.73,4.73,0,0,0,.45-3.45,6.32,6.32,0,0,0-1.7-2.73A5.64,5.64,0,0,0,174.67,80.18Z"/><path class="cls-32" d="M174.69,80.21c-1.69.78-3.07,2.08-3,3.45a2,2,0,0,0,.46,1.19,6.32,6.32,0,0,0,.79.76,12.83,12.83,0,0,0,4.54,2.65c1.73.45,3,.78,4-1.12a4.52,4.52,0,0,0,.47-3.36,6.15,6.15,0,0,0-1.71-2.67A5.56,5.56,0,0,0,174.69,80.21Z"/><path class="cls-33" d="M174.7,80.24c-1.64.76-3,2.05-2.95,3.38a1.88,1.88,0,0,0,.45,1.16,4.58,4.58,0,0,0,.78.74,12.78,12.78,0,0,0,4.45,2.55c1.71.44,2.92.75,4-1.08a4.35,4.35,0,0,0,.48-3.28,5.87,5.87,0,0,0-1.7-2.6A5.51,5.51,0,0,0,174.7,80.24Z"/><path class="cls-34" d="M174.72,80.27c-1.61.75-2.93,2-2.89,3.3a1.86,1.86,0,0,0,.42,1.15,5.23,5.23,0,0,0,.77.71,12.73,12.73,0,0,0,4.37,2.46c1.68.42,2.88.71,3.92-1.06a4.21,4.21,0,0,0,.49-3.2,5.77,5.77,0,0,0-1.71-2.53A5.42,5.42,0,0,0,174.72,80.27Z"/><path class="cls-35" d="M174.74,80.3c-1.58.74-2.87,2-2.84,3.23a1.76,1.76,0,0,0,.41,1.12,4.49,4.49,0,0,0,.75.69,12.63,12.63,0,0,0,4.3,2.36c1.65.4,2.82.67,3.85-1a4,4,0,0,0,.5-3.11,5.46,5.46,0,0,0-1.7-2.47A5.36,5.36,0,0,0,174.74,80.3Z"/><path class="cls-36" d="M174.76,80.33c-1.55.73-2.8,1.93-2.79,3.16a1.72,1.72,0,0,0,.39,1.09,4,4,0,0,0,.75.67,12.54,12.54,0,0,0,4.21,2.26c1.62.39,2.78.64,3.79-1a3.82,3.82,0,0,0,.52-3,5.24,5.24,0,0,0-6.87-3.16Z"/><path class="cls-37" d="M174.78,80.36c-1.52.72-2.74,1.89-2.73,3.09a1.64,1.64,0,0,0,.37,1.07,4.13,4.13,0,0,0,.73.64,12.56,12.56,0,0,0,4.14,2.16c1.59.37,2.72.61,3.73-1a3.71,3.71,0,0,0,.53-2.94,5.19,5.19,0,0,0-6.77-3.06Z"/><path class="cls-38" d="M174.79,80.39c-1.48.71-2.66,1.85-2.67,3a1.6,1.6,0,0,0,.35,1,3.68,3.68,0,0,0,.73.62,12.56,12.56,0,0,0,4.05,2.07c1.56.35,2.68.57,3.67-.94a3.5,3.5,0,0,0,.54-2.86,5,5,0,0,0-1.71-2.27A5.17,5.17,0,0,0,174.79,80.39Z"/><path class="cls-39" d="M174.81,80.42c-1.44.69-2.6,1.82-2.62,2.94a1.52,1.52,0,0,0,.34,1,3,3,0,0,0,.71.6,12.65,12.65,0,0,0,4,2c1.53.34,2.63.54,3.6-.9a3.36,3.36,0,0,0,.56-2.78,4.83,4.83,0,0,0-1.72-2.2A5.06,5.06,0,0,0,174.81,80.42Z"/><path class="cls-40" d="M174.83,80.45c-1.41.68-2.53,1.78-2.56,2.87a1.4,1.4,0,0,0,.32,1,3.28,3.28,0,0,0,.69.57,12.62,12.62,0,0,0,3.9,1.87c1.5.32,2.58.5,3.54-.87a3.2,3.2,0,0,0,.58-2.69,4.73,4.73,0,0,0-1.72-2.14A5,5,0,0,0,174.83,80.45Z"/><path class="cls-41" d="M174.85,80.48c-1.38.67-2.47,1.74-2.51,2.79a1.35,1.35,0,0,0,.3,1,2.74,2.74,0,0,0,.69.55,12.7,12.7,0,0,0,3.81,1.77c1.47.31,2.54.47,3.49-.84a3,3,0,0,0,.58-2.6,4.53,4.53,0,0,0-1.72-2.08A4.92,4.92,0,0,0,174.85,80.48Z"/><path class="cls-42" d="M174.87,80.51c-1.35.66-2.4,1.7-2.46,2.72a1.32,1.32,0,0,0,.29,1,2.38,2.38,0,0,0,.67.53,13,13,0,0,0,3.74,1.68c1.44.28,2.49.43,3.42-.81a2.88,2.88,0,0,0,.6-2.53,4.54,4.54,0,0,0-1.72-2A4.86,4.86,0,0,0,174.87,80.51Z"/><path class="cls-43" d="M174.89,80.54c-1.32.65-2.34,1.66-2.4,2.65a1.26,1.26,0,0,0,.26.93,2.23,2.23,0,0,0,.66.49,12.83,12.83,0,0,0,3.66,1.59c1.41.27,2.45.4,3.36-.78a2.74,2.74,0,0,0,.62-2.44A4.41,4.41,0,0,0,179.32,81,4.75,4.75,0,0,0,174.89,80.54Z"/><path class="cls-44" d="M174.9,80.57a3.82,3.82,0,0,0-2.34,2.58,1.17,1.17,0,0,0,.25.9,1.88,1.88,0,0,0,.65.47A12.9,12.9,0,0,0,177,86c1.38.26,2.4.37,3.3-.75a2.61,2.61,0,0,0,.62-2.35A4.2,4.2,0,0,0,179.24,81,4.71,4.71,0,0,0,174.9,80.57Z"/><path class="cls-45" d="M174.92,80.6a3.79,3.79,0,0,0-2.29,2.5,1.18,1.18,0,0,0,.23.88,1.8,1.8,0,0,0,.64.45,13.49,13.49,0,0,0,3.5,1.4c1.35.23,2.37.33,3.24-.72a2.49,2.49,0,0,0,.64-2.27A4.17,4.17,0,0,0,179.15,81,4.66,4.66,0,0,0,174.92,80.6Z"/><path class="cls-46" d="M174.94,80.63a3.73,3.73,0,0,0-2.23,2.43,1.09,1.09,0,0,0,.21.86,1.78,1.78,0,0,0,.62.42,13.63,13.63,0,0,0,3.43,1.3c1.32.22,2.32.31,3.17-.69a2.36,2.36,0,0,0,.66-2.19A4,4,0,0,0,179.07,81,4.58,4.58,0,0,0,174.94,80.63Z"/><path class="cls-47" d="M175,80.66A3.73,3.73,0,0,0,172.78,83a1,1,0,0,0,.19.83,1.62,1.62,0,0,0,.62.4,13.87,13.87,0,0,0,3.34,1.2c1.29.21,2.28.28,3.11-.66a2.19,2.19,0,0,0,.67-2.1A3.89,3.89,0,0,0,179,81,4.5,4.5,0,0,0,175,80.66Z"/><path class="cls-48" d="M175,80.69A3.7,3.7,0,0,0,172.85,83a1,1,0,0,0,.18.8,1.44,1.44,0,0,0,.6.38,14.52,14.52,0,0,0,3.26,1.1c1.27.19,2.25.25,3.06-.62a2.11,2.11,0,0,0,.68-2c-.16-.55-.93-1.14-1.74-1.62A4.42,4.42,0,0,0,175,80.69Z"/><path class="cls-49" d="M175,80.72a3.64,3.64,0,0,0-2.06,2.21.94.94,0,0,0,.16.79,1.33,1.33,0,0,0,.58.35,15.73,15.73,0,0,0,3.19,1c1.23.17,2.2.21,3-.6a2,2,0,0,0,.7-1.93c-.16-.53-.93-1.1-1.74-1.56A4.39,4.39,0,0,0,175,80.72Z"/><path class="cls-50" d="M175,80.75a3.62,3.62,0,0,0-2,2.14.9.9,0,0,0,.14.76,1.25,1.25,0,0,0,.58.33,16.76,16.76,0,0,0,3.1.91c1.2.16,2.17.19,2.93-.57a1.87,1.87,0,0,0,.71-1.85c-.15-.49-.92-1-1.74-1.48A4.29,4.29,0,0,0,175,80.75Z"/><path class="cls-51" d="M175,80.78a3.63,3.63,0,0,0-2,2.07.82.82,0,0,0,.13.73,1.11,1.11,0,0,0,.56.31,18.07,18.07,0,0,0,3,.81,3.33,3.33,0,0,0,2.87-.53c.84-.8.81-1.47.72-1.77-.15-.46-.92-1-1.74-1.42A4.2,4.2,0,0,0,175,80.78Z"/><path class="cls-52" d="M175.05,80.81a3.6,3.6,0,0,0-1.9,2,.78.78,0,0,0,.1.71,1.1,1.1,0,0,0,.55.28,19.7,19.7,0,0,0,2.95.71,3.4,3.4,0,0,0,2.81-.5c.86-.77.82-1.42.73-1.68-.14-.44-.91-1-1.74-1.36A4.13,4.13,0,0,0,175.05,80.81Z"/><path class="cls-53" d="M175.07,80.84a3.62,3.62,0,0,0-1.85,1.92.74.74,0,0,0,.09.69.92.92,0,0,0,.54.26,22.66,22.66,0,0,0,2.87.62,3.55,3.55,0,0,0,2.74-.48c.88-.74.83-1.36.75-1.6-.13-.4-.91-.89-1.74-1.28A4.09,4.09,0,0,0,175.07,80.84Z"/><path class="cls-54" d="M175.08,80.87a3.64,3.64,0,0,0-1.79,1.85.73.73,0,0,0,.07.66.91.91,0,0,0,.53.24c.71.12,1.76.43,2.79.52a3.75,3.75,0,0,0,2.69-.45c.89-.7.83-1.31.76-1.51-.13-.37-.91-.85-1.75-1.22A4,4,0,0,0,175.08,80.87Z"/><path class="cls-55" d="M175.1,80.9a3.59,3.59,0,0,0-1.73,1.78.67.67,0,0,0,0,.64.75.75,0,0,0,.51.2c.68.09,1.71.36,2.72.43a4,4,0,0,0,2.62-.41c.91-.68.83-1.27.77-1.43-.12-.35-.89-.81-1.74-1.16A4,4,0,0,0,175.1,80.9Z"/><path class="cls-56" d="M175.12,80.93a3.65,3.65,0,0,0-1.68,1.7.63.63,0,0,0,0,.62c.1.12.27.13.51.18a15.86,15.86,0,0,0,2.63.34,4.23,4.23,0,0,0,2.56-.39c.93-.64.84-1.21.79-1.34A3.58,3.58,0,0,0,178.21,81,3.82,3.82,0,0,0,175.12,80.93Z"/><path class="cls-57" d="M175.14,81a3.7,3.7,0,0,0-1.63,1.63.6.6,0,0,0,0,.59c.09.11.26.13.49.16.6.1,1.59.19,2.55.24a4.6,4.6,0,0,0,2.5-.36c1-.6.84-1.16.81-1.26a3.69,3.69,0,0,0-1.76-1A3.76,3.76,0,0,0,175.14,81Z"/><path class="cls-58" d="M175.16,81a3.68,3.68,0,0,0-1.57,1.56.57.57,0,0,0,0,.57c.09.1.25.12.49.13.56,0,1.52.11,2.47.14a5.08,5.08,0,0,0,2.44-.32c1-.56.84-1.11.81-1.18a4.73,4.73,0,0,0-4.63-.9Z"/><path class="cls-59" d="M175.18,81a3.72,3.72,0,0,0-1.52,1.49c-.1.23-.12.42,0,.54s.23.13.47.11c.54,0,1.47,0,2.39,0a5.71,5.71,0,0,0,2.38-.29c1-.51.84-1.06.83-1.09a3.75,3.75,0,0,0-1.76-.9A3.58,3.58,0,0,0,175.18,81Z"/><path class="cls-60" d="M179.63,81.75a4.32,4.32,0,0,0-1.76-.83,3.53,3.53,0,0,0-2.68.13,3.94,3.94,0,0,0-1.46,1.41c-.2.42-.09.7.42.61a17.92,17.92,0,0,1,2.32,0,6.55,6.55,0,0,0,2.31-.27C179.81,82.3,179.63,81.75,179.63,81.75Z"/></g><g class="cls-19"><path class="cls-4" d="M136.81,88.12a7.17,7.17,0,0,1,.2-4.46,9.62,9.62,0,0,1,2-3.32c1.55-1.62,5-1.77,7-.62,2.56,1.45,4.54,4.06,2.38,6.17a15.56,15.56,0,0,1-7,4.25C139.27,90.59,137.65,91,136.81,88.12Z"/><path class="cls-20" d="M139.08,80.36a4.8,4.8,0,0,1,2.77-1.27,6.8,6.8,0,0,1,4.2.65c2,1.13,3.6,3,3.18,4.69a2.85,2.85,0,0,1-.83,1.39c-.33.33-.69.65-1.05,1A14.27,14.27,0,0,1,141.5,90c-2.15.43-3.75.82-4.58-2a7,7,0,0,1,.17-4.37A9.11,9.11,0,0,1,139.08,80.36Z"/><path class="cls-21" d="M139.11,80.37a4.82,4.82,0,0,1,2.74-1.25,6.65,6.65,0,0,1,4.16.65c2,1.11,3.53,2.9,3.14,4.6a2.77,2.77,0,0,1-.81,1.38c-.33.32-.68.63-1,.92a14.06,14.06,0,0,1-5.77,3.11c-2.12.41-3.7.79-4.52-2a6.81,6.81,0,0,1,.15-4.27A9,9,0,0,1,139.11,80.37Z"/><path class="cls-22" d="M139.13,80.39a4.82,4.82,0,0,1,2.73-1.24,6.61,6.61,0,0,1,4.12.64c1.91,1.1,3.47,2.86,3.09,4.53a2.65,2.65,0,0,1-.79,1.35c-.32.32-.67.62-1,.91a13.88,13.88,0,0,1-5.68,3c-2.08.41-3.65.77-4.46-1.91a6.74,6.74,0,0,1,.13-4.18A8.72,8.72,0,0,1,139.13,80.39Z"/><path class="cls-23" d="M139.16,80.41a4.75,4.75,0,0,1,2.7-1.23,6.6,6.6,0,0,1,4.09.64c1.87,1.08,3.4,2.81,3,4.45a2.62,2.62,0,0,1-.77,1.33c-.32.31-.66.6-1,.88a13.7,13.7,0,0,1-5.59,2.93c-2.05.39-3.6.74-4.4-1.88a6.57,6.57,0,0,1,.11-4.08A8.41,8.41,0,0,1,139.16,80.41Z"/><path class="cls-24" d="M139.19,80.42a4.67,4.67,0,0,1,2.68-1.2,6.37,6.37,0,0,1,4,.63c1.85,1.07,3.34,2.76,3,4.37a2.57,2.57,0,0,1-.75,1.3,11.5,11.5,0,0,1-1,.86,13.72,13.72,0,0,1-5.5,2.85c-2,.37-3.56.71-4.35-1.85a6.34,6.34,0,0,1,.09-4A8.06,8.06,0,0,1,139.19,80.42Z"/><path class="cls-25" d="M139.22,80.44a4.63,4.63,0,0,1,2.65-1.19,6.41,6.41,0,0,1,4,.62c1.81,1.06,3.27,2.72,3,4.3a2.48,2.48,0,0,1-.73,1.28c-.31.3-.64.57-1,.84A13.56,13.56,0,0,1,141.71,89c-2,.36-3.51.69-4.29-1.8a6.28,6.28,0,0,1,.07-3.89A7.89,7.89,0,0,1,139.22,80.44Z"/><path class="cls-26" d="M139.25,80.46a4.57,4.57,0,0,1,2.63-1.18,6.27,6.27,0,0,1,4,.62c1.78,1,3.21,2.67,2.91,4.22a2.45,2.45,0,0,1-.71,1.26,10.54,10.54,0,0,1-1,.81,13.5,13.5,0,0,1-5.33,2.67c-2,.34-3.45.66-4.23-1.77a6.11,6.11,0,0,1,0-3.79A7.39,7.39,0,0,1,139.25,80.46Z"/><path class="cls-27" d="M139.27,80.47a4.65,4.65,0,0,1,2.61-1.16,6.24,6.24,0,0,1,3.93.61c1.74,1,3.15,2.63,2.85,4.14A2.27,2.27,0,0,1,148,85.3a10.31,10.31,0,0,1-.95.8,13.38,13.38,0,0,1-5.23,2.57c-1.94.34-3.41.64-4.18-1.73a6,6,0,0,1,0-3.69A7.38,7.38,0,0,1,139.27,80.47Z"/><path class="cls-28" d="M139.3,80.49a4.68,4.68,0,0,1,2.59-1.15,6.17,6.17,0,0,1,3.88.61c1.72,1,3.09,2.58,2.81,4.06a2.23,2.23,0,0,1-.67,1.22A7.76,7.76,0,0,1,147,86a13.1,13.1,0,0,1-5.14,2.49c-1.9.32-3.35.61-4.12-1.69a5.82,5.82,0,0,1,0-3.6A7.13,7.13,0,0,1,139.3,80.49Z"/><path class="cls-29" d="M139.33,80.5a4.6,4.6,0,0,1,2.56-1.12,6,6,0,0,1,3.85.6c1.68,1,3,2.53,2.76,4a2.14,2.14,0,0,1-.65,1.2,8.16,8.16,0,0,1-.91.74,13.14,13.14,0,0,1-5.06,2.41c-1.87.3-3.3.58-4.06-1.66a5.65,5.65,0,0,1,0-3.5A6.62,6.62,0,0,1,139.33,80.5Z"/><path class="cls-30" d="M139.36,80.52a4.57,4.57,0,0,1,2.53-1.11,6,6,0,0,1,3.82.59c1.64,1,2.95,2.49,2.71,3.91a2.09,2.09,0,0,1-.63,1.17,7.17,7.17,0,0,1-.9.73,13,13,0,0,1-5,2.31c-1.83.29-3.25.56-4-1.62a5.49,5.49,0,0,1,0-3.4A6.38,6.38,0,0,1,139.36,80.52Z"/><path class="cls-31" d="M139.39,80.54a4.5,4.5,0,0,1,2.51-1.1,5.9,5.9,0,0,1,3.77.59c1.62,1,2.89,2.44,2.67,3.83a2,2,0,0,1-.61,1.15,6.87,6.87,0,0,1-.89.7A12.94,12.94,0,0,1,142,87.94c-1.81.28-3.21.53-3.95-1.58a5.36,5.36,0,0,1,0-3.31A6.1,6.1,0,0,1,139.39,80.54Z"/><path class="cls-32" d="M139.41,80.55a4.53,4.53,0,0,1,2.49-1.08,5.81,5.81,0,0,1,3.74.59c1.58,1,2.83,2.4,2.62,3.75a2,2,0,0,1-.59,1.13,5.74,5.74,0,0,1-.87.67A12.86,12.86,0,0,1,142,87.76c-1.78.26-3.16.5-3.89-1.55a5.19,5.19,0,0,1-.06-3.21A5.9,5.9,0,0,1,139.41,80.55Z"/><path class="cls-33" d="M139.44,80.57a4.46,4.46,0,0,1,2.47-1.07,5.78,5.78,0,0,1,3.69.58c1.56,1,2.77,2.36,2.58,3.67a1.9,1.9,0,0,1-.57,1.11,5.6,5.6,0,0,1-.86.66,12.88,12.88,0,0,1-4.7,2c-1.74.25-3.1.48-3.83-1.51a5.11,5.11,0,0,1-.08-3.11A5.62,5.62,0,0,1,139.44,80.57Z"/><path class="cls-34" d="M139.47,80.59a4.42,4.42,0,0,1,2.44-1,5.64,5.64,0,0,1,3.66.57c1.52.93,2.7,2.31,2.53,3.59a1.9,1.9,0,0,1-.55,1.09,4.93,4.93,0,0,1-.85.63,12.71,12.71,0,0,1-4.61,2c-1.71.24-3.05.45-3.77-1.47a4.91,4.91,0,0,1-.1-3A5.39,5.39,0,0,1,139.47,80.59Z"/><path class="cls-35" d="M139.5,80.6a4.42,4.42,0,0,1,2.42-1,5.61,5.61,0,0,1,3.61.56c1.49.92,2.65,2.27,2.48,3.52a1.72,1.72,0,0,1-.52,1.06,4.23,4.23,0,0,1-.83.61,12.6,12.6,0,0,1-4.52,1.88c-1.68.23-3,.43-3.72-1.43a4.75,4.75,0,0,1-.12-2.92A5,5,0,0,1,139.5,80.6Z"/><path class="cls-36" d="M139.52,80.62a4.46,4.46,0,0,1,2.4-1,5.52,5.52,0,0,1,3.58.56c1.46.9,2.58,2.22,2.43,3.44a1.67,1.67,0,0,1-.5,1,4.51,4.51,0,0,1-.82.59A12.54,12.54,0,0,1,142.18,87c-1.65.21-3,.4-3.66-1.4a4.66,4.66,0,0,1-.14-2.82A4.93,4.93,0,0,1,139.52,80.62Z"/><path class="cls-37" d="M139.55,80.63a4.5,4.5,0,0,1,2.38-1,5.37,5.37,0,0,1,3.54.56c1.42.88,2.51,2.17,2.38,3.36a1.61,1.61,0,0,1-.49,1,3.67,3.67,0,0,1-.8.56,12.72,12.72,0,0,1-4.34,1.71c-1.62.19-2.9.37-3.6-1.36a4.46,4.46,0,0,1-.16-2.73A4.71,4.71,0,0,1,139.55,80.63Z"/><path class="cls-38" d="M139.58,80.65a4.35,4.35,0,0,1,2.35-1,5.3,5.3,0,0,1,3.5.54c1.39.87,2.45,2.13,2.34,3.28a1.56,1.56,0,0,1-.47,1,3.1,3.1,0,0,1-.78.54,12.51,12.51,0,0,1-4.26,1.62c-1.58.19-2.85.35-3.54-1.32a4.38,4.38,0,0,1-.18-2.63A4.49,4.49,0,0,1,139.58,80.65Z"/><path class="cls-39" d="M139.61,80.67a4.32,4.32,0,0,1,2.33-1,5.19,5.19,0,0,1,3.46.54c1.36.85,2.39,2.08,2.29,3.2a1.49,1.49,0,0,1-.45,1,3.06,3.06,0,0,1-.77.52,12.57,12.57,0,0,1-4.16,1.53c-1.56.17-2.81.32-3.49-1.29a4.23,4.23,0,0,1-.2-2.53A4.1,4.1,0,0,1,139.61,80.67Z"/><path class="cls-40" d="M139.64,80.68a4.41,4.41,0,0,1,2.3-1,5.19,5.19,0,0,1,3.42.53c1.33.85,2.33,2,2.25,3.13a1.46,1.46,0,0,1-.43,1,2.92,2.92,0,0,1-.76.49,12.66,12.66,0,0,1-4.07,1.45c-1.52.15-2.76.28-3.43-1.25a4.11,4.11,0,0,1-.22-2.44A4,4,0,0,1,139.64,80.68Z"/><path class="cls-41" d="M139.66,80.7a4.45,4.45,0,0,1,2.29-.94,5.09,5.09,0,0,1,3.38.53c1.29.83,2.27,2,2.2,3a1.39,1.39,0,0,1-.41.93,2.78,2.78,0,0,1-.74.48,12.9,12.9,0,0,1-4,1.35c-1.49.15-2.71.26-3.37-1.21a3.87,3.87,0,0,1-.23-2.34A3.68,3.68,0,0,1,139.66,80.7Z"/><path class="cls-42" d="M139.69,80.72a4.34,4.34,0,0,1,2.26-.93,5,5,0,0,1,3.34.53c1.27.81,2.21,1.94,2.15,3a1.27,1.27,0,0,1-.38.91,2.65,2.65,0,0,1-.73.45,12.84,12.84,0,0,1-3.9,1.27c-1.46.13-2.65.23-3.31-1.18a3.71,3.71,0,0,1-.25-2.24A3.4,3.4,0,0,1,139.69,80.72Z"/><path class="cls-43" d="M139.72,80.73a4.23,4.23,0,0,1,2.24-.9,4.91,4.91,0,0,1,3.3.51c1.23.8,2.14,1.91,2.1,2.9a1.26,1.26,0,0,1-.36.89,2.47,2.47,0,0,1-.71.42,12.69,12.69,0,0,1-3.81,1.18c-1.43.12-2.61.21-3.26-1.13a3.6,3.6,0,0,1-.27-2.15A3.24,3.24,0,0,1,139.72,80.73Z"/><path class="cls-44" d="M139.75,80.75a4.16,4.16,0,0,1,2.21-.89,4.83,4.83,0,0,1,3.27.51c1.19.78,2.08,1.86,2.05,2.81a1.19,1.19,0,0,1-.34.87,2.19,2.19,0,0,1-.7.41,13,13,0,0,1-3.72,1.09c-1.4.1-2.56.18-3.2-1.1a3.46,3.46,0,0,1-.29-2A3,3,0,0,1,139.75,80.75Z"/><path class="cls-45" d="M139.78,80.76a4.22,4.22,0,0,1,2.18-.87,4.76,4.76,0,0,1,3.23.51,3.81,3.81,0,0,1,2,2.73,1.14,1.14,0,0,1-.32.85,2,2,0,0,1-.69.38,13.08,13.08,0,0,1-3.63,1c-1.36.09-2.51.15-3.14-1.07a3.39,3.39,0,0,1-.31-2A2.77,2.77,0,0,1,139.78,80.76Z"/><path class="cls-46" d="M139.8,80.78a4.36,4.36,0,0,1,2.17-.86,4.72,4.72,0,0,1,3.19.5,3.8,3.8,0,0,1,2,2.66,1.12,1.12,0,0,1-.3.83,1.94,1.94,0,0,1-.67.35,13.42,13.42,0,0,1-3.55.92c-1.33.08-2.46.13-3.08-1a3.2,3.2,0,0,1-.33-1.86A2.69,2.69,0,0,1,139.8,80.78Z"/><path class="cls-47" d="M139.83,80.8A4.29,4.29,0,0,1,142,80a4.6,4.6,0,0,1,3.15.5A3.75,3.75,0,0,1,147,83a1,1,0,0,1-.29.8,1.67,1.67,0,0,1-.65.34,14.06,14.06,0,0,1-3.45.83c-1.31.06-2.42.1-3-1a3.08,3.08,0,0,1-.35-1.76A2.42,2.42,0,0,1,139.83,80.8Z"/><path class="cls-48" d="M139.86,80.81A4.28,4.28,0,0,1,142,80a4.55,4.55,0,0,1,3.11.48A3.74,3.74,0,0,1,147,83a1,1,0,0,1-.27.78,1.6,1.6,0,0,1-.64.31,14.54,14.54,0,0,1-3.36.75c-1.27.05-2.36.07-3-1a2.94,2.94,0,0,1-.37-1.66A2.25,2.25,0,0,1,139.86,80.81Z"/><path class="cls-49" d="M139.89,80.83A4.2,4.2,0,0,1,142,80a4.37,4.37,0,0,1,3.07.48,3.71,3.71,0,0,1,1.82,2.42.91.91,0,0,1-.24.76A1.28,1.28,0,0,1,146,84a14.87,14.87,0,0,1-3.28.66c-1.24,0-2.31.05-2.91-.91a2.87,2.87,0,0,1-.39-1.57A2.06,2.06,0,0,1,139.89,80.83Z"/><path class="cls-50" d="M139.92,80.85a4.18,4.18,0,0,1,2.07-.8,4.34,4.34,0,0,1,3,.48,3.67,3.67,0,0,1,1.77,2.34.89.89,0,0,1-.22.74,1.19,1.19,0,0,1-.61.27,17.41,17.41,0,0,1-3.18.57c-1.21,0-2.27,0-2.86-.88a2.74,2.74,0,0,1-.41-1.47A1.84,1.84,0,0,1,139.92,80.85Z"/><path class="cls-51" d="M139.94,80.86a5.1,5.1,0,0,1,5.05-.31,3.69,3.69,0,0,1,1.72,2.27.84.84,0,0,1-.2.72,1.1,1.1,0,0,1-.6.24,17.16,17.16,0,0,1-3.09.48c-1.18,0-2.22,0-2.8-.84a2.56,2.56,0,0,1-.43-1.37A1.75,1.75,0,0,1,139.94,80.86Z"/><path class="cls-52" d="M140,80.88a4.19,4.19,0,0,1,2-.76,4.11,4.11,0,0,1,2.95.46,3.65,3.65,0,0,1,1.68,2.19.79.79,0,0,1-.18.69.93.93,0,0,1-.58.22,19.67,19.67,0,0,1-3,.4c-1.15,0-2.17,0-2.74-.8a2.4,2.4,0,0,1-.44-1.28A1.54,1.54,0,0,1,140,80.88Z"/><path class="cls-53" d="M140,80.89a4.36,4.36,0,0,1,2-.74,4.14,4.14,0,0,1,2.92.45,3.69,3.69,0,0,1,1.63,2.12.75.75,0,0,1-.16.67.92.92,0,0,1-.57.2,23.4,23.4,0,0,1-2.92.31c-1.11,0-2.12-.06-2.68-.77a2.29,2.29,0,0,1-.46-1.18A1.4,1.4,0,0,1,140,80.89Z"/><path class="cls-54" d="M140,80.91a4.34,4.34,0,0,1,2-.73,4,4,0,0,1,2.87.45,3.67,3.67,0,0,1,1.59,2,.73.73,0,0,1-.14.65.83.83,0,0,1-.56.17,25.33,25.33,0,0,1-2.82.22c-1.09,0-2.08-.08-2.63-.73a2.11,2.11,0,0,1-.48-1.09A1.19,1.19,0,0,1,140,80.91Z"/><path class="cls-55" d="M140.06,80.93a4.2,4.2,0,0,1,1.95-.72,4,4,0,0,1,2.84.45,3.66,3.66,0,0,1,1.54,2,.68.68,0,0,1-.12.63.77.77,0,0,1-.54.16c-.68,0-1.73.17-2.74.13a3.66,3.66,0,0,1-2.56-.69,2,2,0,0,1-.51-1A1,1,0,0,1,140.06,80.93Z"/><path class="cls-56" d="M140.08,80.94a4.38,4.38,0,0,1,1.94-.7,3.84,3.84,0,0,1,2.79.44,3.63,3.63,0,0,1,1.49,1.88.62.62,0,0,1-.1.61.66.66,0,0,1-.52.13c-.64,0-1.66.09-2.65,0a3.9,3.9,0,0,1-2.5-.66,2,2,0,0,1-.53-.9A1,1,0,0,1,140.08,80.94Z"/><path class="cls-57" d="M140.11,81a4.26,4.26,0,0,1,1.91-.68,3.77,3.77,0,0,1,2.76.43,3.67,3.67,0,0,1,1.44,1.8.58.58,0,0,1-.08.59.63.63,0,0,1-.51.1c-.6,0-1.59,0-2.56,0a4.22,4.22,0,0,1-2.44-.62,1.89,1.89,0,0,1-.55-.8A.86.86,0,0,1,140.11,81Z"/><path class="cls-58" d="M140.14,81a4.19,4.19,0,0,1,1.88-.67,3.69,3.69,0,0,1,2.73.43,3.74,3.74,0,0,1,1.39,1.72c.07.25.06.45-.06.56s-.26.12-.49.09c-.57-.09-1.53-.06-2.47-.13a4.71,4.71,0,0,1-2.39-.59,1.7,1.7,0,0,1-.57-.7A.74.74,0,0,1,140.14,81Z"/><path class="cls-59" d="M140.17,81a4.48,4.48,0,0,1,1.86-.65,3.6,3.6,0,0,1,2.68.42,3.8,3.8,0,0,1,1.35,1.65.4.4,0,0,1-.52.6c-.53-.11-1.46-.13-2.38-.22a5.4,5.4,0,0,1-2.33-.54,1.74,1.74,0,0,1-.59-.61A.66.66,0,0,1,140.17,81Z"/><path class="cls-60" d="M140.19,81a4.54,4.54,0,0,1,1.84-.64,3.57,3.57,0,0,1,2.65.42,3.93,3.93,0,0,1,1.3,1.57c.16.43,0,.69-.48.55a19.32,19.32,0,0,0-2.3-.3,6.7,6.7,0,0,1-2.27-.51C140,81.54,140.19,81,140.19,81Z"/></g><path class="cls-17" d="M174.86,96.63c-.19.23-9.37,1.25-11.08,1.52a27.61,27.61,0,0,1-6.92.21c-2.33-.3-7-.72-8.6-.78s-3.25-.3-3.25-.3,4.25,6,9,8,10.64,1.47,14.1-1.33A48.27,48.27,0,0,0,174.86,96.63Z"/><path class="cls-61" d="M145,97.28s1.66.24,3.25.3l1,.06-.25,2.2s2,3.55,10.78,3.67c9.23.12,10.57-4.26,10.57-4.26a12.29,12.29,0,0,0-.25-1.9,43.41,43.41,0,0,0,4.78-.72,48.27,48.27,0,0,1-6.8,7.29c-3.46,2.8-9.39,3.28-14.1,1.33S145,97.28,145,97.28Z"/><path class="cls-62" d="M175.24,96.16s-3.56.35-4.57.34a40.91,40.91,0,0,0-6.17.28,13.58,13.58,0,0,1-4.37.78c-.59,0-4.34-.39-5.94-.37s-4-.11-5.88-.19-3.27-.13-3.3.28,1.93.94,2.86.94,9.08,1,11,1.25a14,14,0,0,0,4.41-.27c1.1-.16,7.27-1.28,8.46-1.42S175.5,97,175.24,96.16Z"/><path class="cls-63" d="M148.31,97c1.85.08,4.28.22,5.88.19s5.35.41,5.94.37a13.58,13.58,0,0,0,4.37-.78,40.91,40.91,0,0,1,6.17-.28c1,0,4.57-.34,4.57-.34a.42.42,0,0,1,0,.27,52.89,52.89,0,0,1-5.87.54,17.16,17.16,0,0,0-5.45.68,12.89,12.89,0,0,1-6.27.45,90.75,90.75,0,0,0-12.53-1A8.28,8.28,0,0,1,148.31,97Z"/><path class="cls-64" d="M175.24,96.16c-.08-.26-1.61,1.11-2.92,2.51s-4,4.18-7.36,5.06a23.83,23.83,0,0,1-10.36.07,15,15,0,0,1-5.62-3c-1-.85-3.31-3.49-3.58-3.26s.78,2.22,1.26,3.37c.67,1.61,3.93,4.33,6.25,5.72,1.74,1,5.8,2,10.27.93s8.1-4.2,9.4-6.65C173.71,98.83,175.37,96.59,175.24,96.16Z"/><path class="cls-62" d="M166.12,105.77c.8-.43,2.26-1.73,1.62-2s-3.34.62-4.37.78a23.53,23.53,0,0,1-6.33.26c-2.08-.35-5.1-1.38-5.57-.84s.38,1.38,1.91,2.2a14.1,14.1,0,0,0,7.47,1.1A20.79,20.79,0,0,0,166.12,105.77Z"/><path class="cls-65" d="M167.32,85.09c.59.36,1.17.73,1.7,1.1a2.87,2.87,0,0,1,1.18,1.35,2.94,2.94,0,0,1,.19,1.75,2.06,2.06,0,0,1-1.21,1.35,2.06,2.06,0,0,0,1-.29,1.83,1.83,0,0,0,.73-.87,2.87,2.87,0,0,0,0-2.23,2.85,2.85,0,0,0-.66-1,4,4,0,0,0-.92-.6A6.16,6.16,0,0,0,167.32,85.09Z"/><path class="cls-65" d="M152.9,84.53a4.92,4.92,0,0,0-2.07,1,3.85,3.85,0,0,0-1.32,2,3.08,3.08,0,0,0-.08,1.25,1.93,1.93,0,0,0,.63,1.13,3.17,3.17,0,0,0,2.2.73,4.36,4.36,0,0,1-1.77-1.13,1.48,1.48,0,0,1-.35-.82,2.7,2.7,0,0,1,.1-1,4,4,0,0,1,1-1.74A9.66,9.66,0,0,1,152.9,84.53Z"/><path class="cls-65" d="M168.42,90.61a6.88,6.88,0,0,0-2.12-.09,5,5,0,0,0-1.07.2,2,2,0,0,0-.57.25,5.1,5.1,0,0,0-.42.31,7.57,7.57,0,0,1-1.68,1.12,5.45,5.45,0,0,1-2.35.54c-.69.19-1.55-.35-2.13-.61s-1-.75-1.68-1a4.6,4.6,0,0,0-1.62-.56,14.69,14.69,0,0,0-2.1-.08l0,.1c.64.29,1.3.52,2,.75a13,13,0,0,1,1.86.71c.63.26,1.29.48,1.94.71a4.4,4.4,0,0,0,2.19.24,12.74,12.74,0,0,0,2.07-.49,12.37,12.37,0,0,0,2-.72l.45-.26a3.64,3.64,0,0,1,.38-.16c.29-.11.61-.2.93-.29q1-.25,2-.57Z"/><path class="cls-17" d="M179.12,75.64c-.94-.76-2.38-2.49-4.35-3a8.81,8.81,0,0,0-5.42.35,5.89,5.89,0,0,0-2.53,1.88c-.22.56,0,.5.8.49s3.11,1,6.9,1A22.56,22.56,0,0,0,179.12,75.64Z"/><path d="M170.27,74a2.71,2.71,0,0,1,.59-1.47,9.44,9.44,0,0,1,3.91.11c.22.06.43.14.64.22a2.77,2.77,0,0,1,.37,1.64,2.8,2.8,0,0,1-.93,1.82h-.33a21.56,21.56,0,0,1-3.63-.31A2.73,2.73,0,0,1,170.27,74Z"/><path class="cls-17" d="M174.67,75.57a1.61,1.61,0,0,0,.64-1.46c-.18-.86-.61-.73-.65-.31a2.82,2.82,0,0,1-.35,1.15C174.11,75.26,174.21,76,174.67,75.57Z"/><path class="cls-17" d="M171.49,75.36c.32.14-.2-.6-.15-1.11s.1-1.16-.29-.53S170.52,74.94,171.49,75.36Z"/><path d="M179.15,75.61a12.37,12.37,0,0,0-2.52-2.54,5.11,5.11,0,0,0-1.69-.78,8.61,8.61,0,0,0-1.82-.21,8.78,8.78,0,0,0-3.54.6,11.09,11.09,0,0,0-1.54.9,3.59,3.59,0,0,0-1.25,1.26l.07,0a3.33,3.33,0,0,1,1.3-1.1,10.57,10.57,0,0,1,1.56-.74,8.34,8.34,0,0,1,3.37-.35,7.24,7.24,0,0,1,3.14,1c1,.55,1.84,1.35,2.87,2Z"/><path class="cls-65" d="M167.43,73c1.31-.27,2.64-.51,4-.68a9.37,9.37,0,0,1,3.87.29,8.18,8.18,0,0,1,1.77.71,3.13,3.13,0,0,1,.7.5c.25.23.52.46.78.68a9.62,9.62,0,0,0,1.74,1.13,4.48,4.48,0,0,0,2,.57l0-.09a12.63,12.63,0,0,1-3.11-2.37c-.25-.22-.48-.44-.72-.68a4.12,4.12,0,0,0-1-.63,9.59,9.59,0,0,0-2-.6,9.79,9.79,0,0,0-4.14,0c-1.33.3-2.62.67-3.91,1.07Z"/><path class="cls-5" d="M168.1,77.29a21.31,21.31,0,0,0,3,1.92,9.2,9.2,0,0,0,3.59.57,25.94,25.94,0,0,0,3.52-.34,6.24,6.24,0,0,1,3.29.33l.06-.09a4.36,4.36,0,0,0-3.43-1.24c-1.25,0-2.35.43-3.49.54a8.81,8.81,0,0,1-3.36-.24,21.67,21.67,0,0,1-3.14-1.54Z"/><path class="cls-5" d="M179.22,77.44a7.55,7.55,0,0,1,2.26.71,7.05,7.05,0,0,1,.94.64,5.17,5.17,0,0,1,.87.77l.05,0a2,2,0,0,0-.59-1.13,2.93,2.93,0,0,0-1.11-.63,6.5,6.5,0,0,0-2.42-.39Z"/><path class="cls-5" d="M180.3,78.58a8.59,8.59,0,0,0-2.68-.77,19.83,19.83,0,0,0-2.79.14c-.92.07-1.84.16-2.71.18a12.41,12.41,0,0,1-2.68-.45l0,0a7.12,7.12,0,0,0,2.68.88,11.2,11.2,0,0,0,2.79-.24,21.34,21.34,0,0,1,2.72-.3,8.57,8.57,0,0,1,2.68.57Z"/><path d="M183.87,70.76c-.23-.78-2.5-4.18-4.25-5.18s-6.56-1.69-8.78-1.89-4.5.26-5.12,1.81-.52,3,1.44,2.9c1.79-.11,3.41-.9,5.22-.53,3,.61,5.06.63,6.89,1.55S184.41,72.67,183.87,70.76Z"/><path class="cls-17" d="M142.17,74.36c1-.65,2.66-2.2,4.68-2.47a8.78,8.78,0,0,1,5.34,1c1.07.7,2.14,1.57,2.29,2.16s-.1.5-.85.4-3.2.58-7,.14A22.74,22.74,0,0,1,142.17,74.36Z"/><path d="M151.16,73.77a2.75,2.75,0,0,0-.41-1.53,9.28,9.28,0,0,0-3.9-.35,5.18,5.18,0,0,0-.66.14,2.8,2.8,0,0,0-.56,1.58,2.69,2.69,0,0,0,.71,1.91l.33,0a21.14,21.14,0,0,0,3.63.12A2.75,2.75,0,0,0,151.16,73.77Z"/><path class="cls-17" d="M146.6,74.81a1.61,1.61,0,0,1-.46-1.52c.28-.83.69-.65.68-.23a2.67,2.67,0,0,0,.22,1.18C147.19,74.58,147,75.24,146.6,74.81Z"/><path class="cls-17" d="M149.78,75c-.33.11.27-.57.29-1.08s0-1.17.35-.49S150.8,74.68,149.78,75Z"/><path d="M142.15,74.32A12.75,12.75,0,0,1,145,72.1a5.33,5.33,0,0,1,1.77-.57,8.61,8.61,0,0,1,1.83,0,9.1,9.1,0,0,1,3.45,1,11.79,11.79,0,0,1,1.42,1.08,3.58,3.58,0,0,1,1.1,1.4l-.08,0a3.35,3.35,0,0,0-1.16-1.24,11.24,11.24,0,0,0-1.46-.93,8.53,8.53,0,0,0-3.31-.73,7.05,7.05,0,0,0-3.23.64c-1,.43-2,1.12-3.09,1.61Z"/><path class="cls-65" d="M154.09,73.14c-1.27-.43-2.56-.82-3.85-1.14a9.41,9.41,0,0,0-3.88-.17,7.79,7.79,0,0,0-1.84.5,2.9,2.9,0,0,0-.76.41l-.84.58a9.84,9.84,0,0,1-1.87.92,4.58,4.58,0,0,1-2.06.33v-.1a12.55,12.55,0,0,0,3.37-2c.27-.19.53-.38.8-.59a3.8,3.8,0,0,1,1-.51,9,9,0,0,1,2.09-.36,10,10,0,0,1,4.11.49c1.28.45,2.52,1,3.75,1.53Z"/><path class="cls-5" d="M152.92,77.3a21.53,21.53,0,0,1-3.2,1.55,9.5,9.5,0,0,1-3.64.15,29.12,29.12,0,0,1-3.45-.75,6.18,6.18,0,0,0-3.31-.07l0-.09a4.31,4.31,0,0,1,3.55-.83c1.23.18,2.28.7,3.4.94a8.53,8.53,0,0,0,3.37.16,20.18,20.18,0,0,0,3.29-1.16Z"/><path class="cls-5" d="M141.87,76.13a7.9,7.9,0,0,0-2.33.45,7,7,0,0,0-1,.52,5.52,5.52,0,0,0-1,.67l0,0a2,2,0,0,1,.71-1.06,2.91,2.91,0,0,1,1.18-.49,6.54,6.54,0,0,1,2.45-.11Z"/><path class="cls-5" d="M140.66,77.14a8.76,8.76,0,0,1,2.75-.45,19,19,0,0,1,2.75.47c.9.18,1.81.38,2.68.5a12.38,12.38,0,0,0,2.71-.13l0,0a7,7,0,0,1-2.76.56,12,12,0,0,1-2.75-.56,18.39,18.39,0,0,0-2.67-.62,8.31,8.31,0,0,0-2.71.24Z"/><path d="M138,69a14.34,14.34,0,0,1,4.82-4.65c1.86-.79,6.71-.9,8.94-.84s4.44.79,4.87,2.4.16,3.07-1.77,2.71c-1.76-.32-3.28-1.3-5.12-1.14-3,.25-5.09,0-7,.73S137.27,70.78,138,69Z"/><path class="cls-63" d="M164.81,86.79a4.43,4.43,0,0,0-1.4-1.89,6.36,6.36,0,0,0-2.11-1.14,8.23,8.23,0,0,0-1.17-.27,6.13,6.13,0,0,0-1.21,0,3.54,3.54,0,0,0-2.21.84,6.47,6.47,0,0,1,2.19-.05,8.85,8.85,0,0,1,1,.19,8.34,8.34,0,0,1,1,.28A11,11,0,0,1,164.81,86.79Z"/><path class="cls-4" d="M187.37,70.07s3-3.6,4.59-1.35.07,5.65-.7,7.68a71.59,71.59,0,0,0-1.88,8.67c-.33,1.74-.33,3.59-1.52,3.82a1.3,1.3,0,0,1-1.52-.9s.4-3.5.46-6,.23-6.21.28-7.72S187.37,70.07,187.37,70.07Z"/><path class="cls-65" d="M188.21,72.92s1.18-1.91,1.74-.59-.37,3.16-.63,4.15-1.11.15-1.27,1-.45,4.08-.64,4.32S187.05,75.51,188.21,72.92Z"/><path class="cls-4" d="M131.5,70.18S129.69,66,127,68.63c-2,1.9-.32,5.63.36,7.7a70.9,70.9,0,0,1,1.5,8.74c.25,1.75.16,3.61,1.35,3.89a1.3,1.3,0,0,0,1.56-.83s-.25-3.52-.2-6,0-6.21.06-7.72S131.5,70.18,131.5,70.18Z"/><path class="cls-65" d="M130.54,73s-1.09-2-1.71-.67.23,3.18.45,4.17,1.1.2,1.22,1,.28,4.1.46,4.34S131.59,75.63,130.54,73Z"/><path d="M189.22,66.81c.87-2.67-.56-6.74-.46-9.32.06-1.68,0-3.37-.09-5.07,0-.89-.29-4.14-.69-4.65.22-.16.45-.52.69-.71a27.83,27.83,0,0,0-2-4.92c-.6-1-2-4.18-3.18-4.11,0-1-.07-.73-.63-1.32.33-1.64-1.43-1.77-2.6-2,0-.28-.05-.66,0-.93a7.09,7.09,0,0,0-1.9-.5c.06-1.69-2.19-1.05-2.64-2.44a9.07,9.07,0,0,1-1.67-.4c-.18-.08-1.23-.82-1.44-.89-1.34-.41-2.56-.38-3.79-.84-1.75-.64-5.59-2.56-6.94-.53a1.83,1.83,0,0,0-2.78.52c0-.32-.27-.74-.25-1.16-1.81-.59-2.74,1.57-4.32.6-.85,1.45-4.3-1.43-4.73,1.79-1.18.39-2.14.12-3.34.43a8.41,8.41,0,0,0-2.92,1.49c-1.88,1.24-3.95,2.33-5.28,3.95-2.6,3.14-7.62,7.38-6.8,12a2.15,2.15,0,0,0-1.28,1.54c1,.46.63,1.37.06,2.09a1.25,1.25,0,0,0,.41.35c-.32.21-.54.84-.79,1.06.47.49-.17,4.29-.25,5.34a27.51,27.51,0,0,0-.23,5,98.71,98.71,0,0,0,2.21,11.16c1.42.14,1.27-3.58,1.44-4.57a23.82,23.82,0,0,1,1-3.19,20.75,20.75,0,0,0,.7-6.94c-.05-2.69,1-4,1.77-6.48.66-2.14,1.06-4.57,2.22-6.51,1.49.36,2.06-1.17,3.33-1.55.26-3.18,4.31-2.35,6.3-2.16a28.76,28.76,0,0,0,4.33-.37,6.59,6.59,0,0,0,2-.07c.89-.22,2-1.05,2.87-1,.05.2,2.64,1.26,2.69,1.48.21-.14.73-.27,1-.42a1.25,1.25,0,0,0,2.26.09,12.73,12.73,0,0,0,2.21.13c.7,1.4,5,1.28,6.24.87.24,1.15,2,1.55,2.91,1.23a3.57,3.57,0,0,0,1,.41c.65,1.15,2.24.49,3.39,1a19.81,19.81,0,0,1,1.71,1.18c.63,1.1,2.09,1.35,2,2.4-.06,2.31-1.11,1.18-.32,3.05a16.27,16.27,0,0,1,.42,4c0,1.77-.05,2.33.86,3.92a15.55,15.55,0,0,1,1.25,3.6c.43,1.36.93,1.84.91,3.36s.46,4.81.38,6.21a28,28,0,0,1,1.43-3.75c.29-.44,1.13-1.11,1.28-1.55C189.58,68.12,189.11,67.15,189.22,66.81Z"/><path class="cls-5" d="M173.23,89.25a10.72,10.72,0,0,0,2.21,1.13,6.3,6.3,0,0,1,1.87,1.08,2.26,2.26,0,0,1,.52.79,4.83,4.83,0,0,0,.23.44c.07.13.16.28.25.42a4.39,4.39,0,0,1,.92,1.83l.15.14a1.63,1.63,0,0,0,.88-1.28,3.3,3.3,0,0,0-.11-1.51,3.15,3.15,0,0,0-.29-.65,3.31,3.31,0,0,0-.42-.57,5.16,5.16,0,0,0-1.19-.91,6.12,6.12,0,0,0-2.56-.75,15.68,15.68,0,0,1-2.38-.34Z"/><path class="cls-5" d="M146,88.13a15.19,15.19,0,0,1-2.44.88,7.68,7.68,0,0,1-1.21.21l-.17,0a.62.62,0,0,0-.18,0l-.42.1a4.41,4.41,0,0,0-.74.3A3.87,3.87,0,0,0,138.68,92a2.7,2.7,0,0,0,.93,3l.19-.09a5.21,5.21,0,0,1,.76-2.17A6.57,6.57,0,0,1,141.71,91a4.15,4.15,0,0,1,.43-.3l.21-.1a.77.77,0,0,1,.15-.06l.15,0a7.76,7.76,0,0,0,1.31-.58,11.46,11.46,0,0,0,2.18-1.65Z"/><path d="M131.66,87.51c-.06.77-.89,1.94-.9,2.87,0,1.51.33,1.67.72,2.86a12.12,12.12,0,0,1,.35,2.34c.31,1.83,1.85,3.19,2.23,4.91.43,2-.12,4.48,1.5,5.75-.44,1.55,1.19,1.77,1.82,2.88.46.83.12,2.42.75,3.32a22.71,22.71,0,0,0,3.49,3.33c1.47,1.23,2.54,2.71,3.84,3.75,1.14.92,2.78,2.23,4.07,3.09a17.12,17.12,0,0,0,5.14,1.73,25.79,25.79,0,0,0,5.15,1c1.89,0,2.68-.81,4.48-1.42,3.48-1.17,6-3.53,8.8-5.56.19-1.63,2.29-1,2.27-2.73l-.42-.27c1.19-.32,1.43-1.62,2.63-1.89a4.71,4.71,0,0,1,1-1.89,9,9,0,0,1,1.48-.91c.69-1.34.38-2.08,1.56-3.42a9.41,9.41,0,0,0,2.52-7.21c1.4-.69.52-2,.67-3,.12-.79.66-2.08.81-3.14s.56-.51.8-1.71a7.44,7.44,0,0,0,.18-3.22c-.59-1.26-.35-2.33-.65-3.14-.65,2-1.75,4-2.14,6.08-.32,1.68.31,1.47-1.43,2.14-.89.35-2,0-2.18,1.28a2.89,2.89,0,0,1-1.92.07c-.2-.86-.15-1.6-.84-2.09a7.37,7.37,0,0,0,0-.94c-1.6,0-3.57-.2-5.32.64a6.29,6.29,0,0,0-5,.39.82.82,0,0,0,.15-.42c-1.78-.26-3.17.63-4.7.5s-2-.86-3.44-.34c-.83.29-1.88,1.06-2.76,1,0-.15,0-.29,0-.43-1.34-.24-5.11,0-6.16.88-1.06-1.16-3.47-1.15-4.58-1.17-.32-1.14-2-1.06-2.92-.74,0,.11.25.18.29.29-1.45.32-1.46,2.27-3.33,1.92.13-.39-.07-1,.05-1.43-1-.44-2.25.28-2.36-1,.18,1.2-1.21.06-1.44,0a1.23,1.23,0,0,0-1.61-1.43c-.22-.83.45-2.67.13-3.4-1.36-.86-1-2.08-3-2.34A6.69,6.69,0,0,1,131.66,87.51ZM143.35,96c.19.06.26.21.42.3.94-1.87,3.34,0,4.86-.51.56.71,1,.67,1.38-.13,1.3,1.18,3.38.34,4.93.11,1.17-.17,4.45.42,4.75-1.24-.11.61,6.3.44,7,.18a3.18,3.18,0,0,1,0,.62,4.83,4.83,0,0,1,1.74,0c.74.23,1.16.86,2,.95a17.57,17.57,0,0,0,3.81-.75.17.17,0,0,0-.1-.21,1.88,1.88,0,0,1,2.36,1,8.27,8.27,0,0,0-2.34,5.86c-.06,2.1-.61,4.41-.64,6.71-1.46,0-.81,1.41-1.23,2.41-1.94-.23-.24,1.94-2.87,2.59,0,.14-2.71.8-2.75.93-1.88-.28-2.44,1.26-2.54,2.82a2.76,2.76,0,0,0-1.7-.16,1.4,1.4,0,0,0-2.2-.78c-.52.08-.69-.11-1.29.27-.91-1.09-2.75-.38-3.68-.42-.4,0-1.36-.38-2.07-.39-.88,0-1.22.51-2.23,0,.08-.22.16-.45.26-.66-.26.1-.94,0-1.2.07-.88-2.6-3.76-3.66-5.6-5.06a1.2,1.2,0,0,0-.62-1.57c.91-1.71-.14-4.88-.37-6.87C143.23,100.73,142.18,96.87,143.35,96Z"/><path d="M167.55,107.29c-.15,2-2.69,2.18-3.71,3s-1,1.61-2.52,2c-2.85,0-5.12,0-6.9-1.89-.92-1,0-1-1.43-1.59-1-.46-2.52-.41-1.5-1.92,1.88-.68,3.74,1.39,5.58,1.69l.12-.41c1.48.72,2.59-.22,4.18.29l.12-.41c1.11.07,2.26-.28,2.42-1.54a2.82,2.82,0,0,1,2.41-.25S167.6,106.59,167.55,107.29Z"/><path d="M165,110.34c-2.57,0-.7,2.83-.26,3.76.53,0,.74.33,1.13.46a3.13,3.13,0,0,0,0,2.42c-1.31.21-2,1.7-3.18,2a20.18,20.18,0,0,1-4.79.38c-1.29.07-3.58.15-4.82-.47-.87-.44-3-3-.76-2.92-.48-1,.29-1.61,1.18-1.93.07-.18-.17-.2-.16-.38a1.4,1.4,0,0,0,.85-1.73l-.67-.13a1.76,1.76,0,0,0-.79-2.35c-.49-3.26,6.43,1.57,7.15-.07a18.91,18.91,0,0,0,2.81-.94c.67-.24.7-.47,1.45-.63C167,107.25,165.54,110.35,165,110.34Z"/><path class="cls-63" d="M184.85,77.66c-.24,1.16-.4,2.3-.56,3.44l-.41,3.38c-.14,1.12-.28,2.24-.47,3.34-.09.55-.2,1.1-.34,1.65a10.32,10.32,0,0,1-.55,1.62,4.65,4.65,0,0,0,1.16-1.37,8.9,8.9,0,0,0,.75-1.63,15.81,15.81,0,0,0,.78-3.45,22.72,22.72,0,0,0,.14-3.5A16.51,16.51,0,0,0,184.85,77.66Z"/><path class="cls-63" d="M134.16,77.48a1.76,1.76,0,0,1-.07.4l-.08.4c-.06.27-.1.54-.15.81-.09.54-.15,1.08-.19,1.62a18.92,18.92,0,0,0,.05,3.28,16.15,16.15,0,0,0,.66,3.22,11.18,11.18,0,0,0,1.4,3c-.11-1.1-.25-2.16-.37-3.21s-.24-2.09-.35-3.14l-.34-3.16q-.09-.8-.21-1.59c0-.27-.08-.54-.13-.81A3.36,3.36,0,0,0,134.16,77.48Z"/></g></g></svg>