<svg xmlns="http://www.w3.org/2000/svg" xmlns:xlink="http://www.w3.org/1999/xlink" viewBox="0 0 322.94 322.94"><defs><style>.cls-1{fill:none;}.cls-2{fill:#bcbcbc;}.cls-3{clip-path:url(#clip-path);}.cls-4{fill:#e5a785;}.cls-5{fill:#c98a60;}.cls-6{fill:#0b1547;}.cls-7{fill:#b1770c;}.cls-8{fill:#915d0a;}.cls-9{fill:#152063;}.cls-10{fill:#223077;}.cls-11{fill:#dfe9f4;}.cls-12{fill:#b6c5d3;}.cls-13{fill:#c6d4e0;}.cls-14{fill:#9fafbc;}.cls-15{fill:#fabf9a;}.cls-16{fill:#fcfcfc;}.cls-17{fill:#fff;}.cls-18{fill:#9ea9af;}.cls-19{opacity:0.6;}.cls-20{fill:#fabe99;}.cls-21{fill:#f9be99;}.cls-22{fill:#f9bd98;}.cls-23{fill:#f9bc98;}.cls-24{fill:#f9bc97;}.cls-25{fill:#f8bb97;}.cls-26{fill:#f8ba96;}.cls-27{fill:#f8b995;}.cls-28{fill:#f7b895;}.cls-29{fill:#f7b794;}.cls-30{fill:#f7b693;}.cls-31{fill:#f6b592;}.cls-32{fill:#f6b491;}.cls-33{fill:#f5b391;}.cls-34{fill:#f5b390;}.cls-35{fill:#f5b290;}.cls-36{fill:#f5b18f;}.cls-37{fill:#f4b18f;}.cls-38{fill:#f4b08e;}.cls-39{fill:#f4af8e;}.cls-40{fill:#f4af8d;}.cls-41{fill:#f3ae8d;}.cls-42{fill:#f3ad8c;}.cls-43{fill:#f2ac8b;}.cls-44{fill:#f2ab8a;}.cls-45{fill:#f2aa89;}.cls-46{fill:#f1a989;}.cls-47{fill:#f1a888;}.cls-48{fill:#f1a787;}.cls-49{fill:#f0a687;}.cls-50{fill:#f0a686;}.cls-51{fill:#f0a586;}.cls-52{fill:#f0a485;}.cls-53{fill:#efa485;}.cls-54{fill:#efa384;}.cls-55{fill:#c4c4c9;}.cls-56{fill:#5e1106;}.cls-57{fill:#f29d81;}.cls-58{fill:#d1846e;}.cls-59{fill:#602503;}.cls-60{fill:#e8b28f;}.cls-61{fill:#ce7143;}</style><clipPath id="clip-path"><rect class="cls-1" width="322.94" height="322.94" rx="64.41"/></clipPath></defs><g id="background"><rect class="cls-2" width="322.94" height="322.94" rx="64.41"/></g><g id="image"><g class="cls-3"><path class="cls-4" d="M136.16,98s.48,17-1.33,23,6.93,18.41,17.53,20c24.8,3.63,29-9.07,29-9.07s-1.21-23,0-29a24.94,24.94,0,0,1-18.14,6C151.76,108.39,136.16,98,136.16,98Z"/><path class="cls-5" d="M164.2,112.6c-11.49-.6-28-14.14-28-14.14s-2.45.06-.08,6.87c3.36,7.27,12.77,19,26.11,18.55,11.73-.38,15.33-7,19.12-14.95.07-1,.9-1.74,1-2.38A24.94,24.94,0,0,1,164.2,112.6Z"/><path class="cls-6" d="M181.69,121.39s-5.89,12.85-10,16.32-8.46,2.27-13.6-1.06-22.38-19.35-22.38-19.35L127,125.47s8.76,31.74,13,40.21,16.78,34.77,19.65,37.94,9.37,11.49,18.44,3.18,18.9-22.68,9.68-72.41C187,130.49,181.69,121.39,181.69,121.39Z"/><path class="cls-7" d="M162.19,194.4s.15-19.2.76-26.45a148.55,148.55,0,0,0-.15-18s3-3.63,5.89-3.33a6.46,6.46,0,0,1,4.08,1.67s6.07,17.53,7.41,24.48c1.66,8.62,3.33,25.25,3.33,25.25l-10.59,10.88S163.85,199.69,162.19,194.4Z"/><path class="cls-8" d="M166.27,148.14c-1.35,1.44-.69,5.76-.45,7.56.3,2.27,1.06,4.39,1.66,3.18s.76-10.13.76-10.13a35.75,35.75,0,0,0,2,5.59c.51.94,3.18,1.36,1.82-1.81S168.69,145.57,166.27,148.14Z"/><path class="cls-8" d="M172.77,148.3a6.46,6.46,0,0,0-4.08-1.67c-2.87-.3-5.89,3.33-5.89,3.33s.1,2.44.15,3.17c.55-.22,1.6-.91,2.87-1.36,2.57-.91,6.16-.14,7.71-1.21C173.21,149.63,172.77,148.3,172.77,148.3Z"/><path class="cls-7" d="M157.2,143.91c.76.91,2.27,2.87,3.18,4.08s2.49,3.13,2.49,3.13a31.57,31.57,0,0,1,4.31-1.31c2.57-.61,5.65.27,6.1,0s3.42-6,3.12-7.53-6.05-2.72-7.1-2.72-6.09,0-7.56.9A27,27,0,0,0,157.2,143.91Z"/><path class="cls-8" d="M155.69,142.55c.63.75,1.53,1.4,2.42,2.57,1-1.68,1.82-3.55,4.08-4.23a33.92,33.92,0,0,0,3.88-1.27c-1.69.1-4.44-1-5.24-.55C158.11,140.74,155.69,142.55,155.69,142.55Z"/><path class="cls-8" d="M169.3,139.53h-.74a38,38,0,0,1,5,3c.87.78,1.12,1.91,2.19,2.53a6.67,6.67,0,0,0,.68-2.83C176.1,140.74,170.35,139.53,169.3,139.53Z"/><path class="cls-9" d="M167.33,139.22s6.56-4.74,10.13-10.43c4.08-6.5,3.63-9.67,3.63-9.67a1.46,1.46,0,0,1,.9.9c.31.76,1.36,3,1.36,3,.46,19.45.48,19.47,1.06,22.07a31.92,31.92,0,0,0,1.67,5.14,21.41,21.41,0,0,1-5.6-2.72c-4.38-3.33-4.84-5.9-7.25-6.5S167.33,139.22,167.33,139.22Z"/><path class="cls-9" d="M168.56,139.53c-.61-1.06-3.8-2-6.37-3.18a105.71,105.71,0,0,1-15.57-10.58c-4.84-4.08-8.62-8.62-10.43-14.36a17.38,17.38,0,0,0-1.82,4.38,34.53,34.53,0,0,1-1.66,5s-.15,10.13,1.81,14.21,4.39,9.37,4.54,11.49.76,6.8.76,6.8,6.5-1.81,9.22-3.93,6.48-6.29,9.36-7.8S168.56,139.53,168.56,139.53Z"/><path class="cls-10" d="M164.51,138.49a45.45,45.45,0,0,1-4.28-2.21c-1.38-.8-2.73-1.63-4-2.51-2.65-1.75-5.19-3.65-7.66-5.65-.61-.49-1.23-1-1.83-1.51s-1.21-1-1.81-1.55l-1.78-1.57c-.56-.53-1.11-1.08-1.64-1.65a36.34,36.34,0,0,1-3-3.67,39.31,39.31,0,0,1-2.54-4.08,16.09,16.09,0,0,0,.66,2.35,23.76,23.76,0,0,0,.94,2.28,25.56,25.56,0,0,0,2.56,4.24,24.27,24.27,0,0,0,1.61,1.91c.29.32.57.6.86.89l.87.86c.59.56,1.2,1.11,1.8,1.65s1.24,1.07,1.88,1.58a49.41,49.41,0,0,0,8.16,5.42,37.32,37.32,0,0,0,4.48,2c.77.28,1.55.53,2.34.74A16.44,16.44,0,0,0,164.51,138.49Z"/><path class="cls-10" d="M181.69,121.39a27.91,27.91,0,0,1-1.86,4.78q-.57,1.13-1.2,2.19c-.21.35-.44.7-.66,1s-.47.69-.7,1c-1,1.27-2.13,2.5-3.27,3.78s-2.31,2.57-3.37,4A15.76,15.76,0,0,0,173,137a23.11,23.11,0,0,0,2.21-1.49,22.21,22.21,0,0,0,2-1.75,12.61,12.61,0,0,0,.94-1,11.79,11.79,0,0,0,.86-1.09c.28-.4.51-.78.74-1.18s.43-.8.63-1.21a16.7,16.7,0,0,0,.94-2.56,13.46,13.46,0,0,0,.47-2.67A9.31,9.31,0,0,0,181.69,121.39Z"/><path class="cls-11" d="M223.41,141.94c3.63,1.82,8.62,5.9,10.89,9.53s6.62,9.69,10,27.57c2.2,11.6,6,20.44,7.94,28.68,1.67,6.92,6.07,18.58,6.52,21.75s-1.86,22.48-3.68,27.92-2.22,5.64-12.65,2.47-18.59-8.16-22.67-16.33-4.08-19.95-5-26.3,1.36-21.32,4.53-30.84,5.45-22.22,5.45-30.39A68.65,68.65,0,0,0,223.41,141.94Z"/><path class="cls-12" d="M238.79,214.67c-8.16-5-11.29-6.06-7.21-11.5s13.15-9.52,9.52-11.34-17.69,8.62-13.6,1.82,12.69-6.81,9.07-9.07-10.43,6.34-11.34,5.44,3.17-10.89,2.27-19.05a121.69,121.69,0,0,0-2.72-14.92c0,8.17-2.28,20.83-5.45,30.34s-5.44,24.49-4.53,30.84.91,18.14,5,26.3c2.82,5.66,7.61,9.78,13.75,12.84,5.38-6.07-7.12-26.14-3.78-31,4.09-5.89,12.25-1.81,17.24.91S247,219.66,238.79,214.67Z"/><path class="cls-11" d="M183.35,123.05S198,132,202.1,132.88s18.59,7.7,21.31,9.06,2.73,8.17,3.18,16.79-2.27,20.4-4.08,30.83-5.9,23.13-5.9,29.94c0,0,5.44,30.84,6.35,38.09s1.62,34,3.7,47.51c6.81,44.28,4.25,149,4.25,149s-10.8,5.11-17.67,5.11c-7.1,0-23.2.85-30.87.85s-27.25,5.11-53.65,5.11A227.4,227.4,0,0,1,81,460.08s6-106.44,10.13-141.22c1.47-12.24,5.71-40.86,7.07-49.93s8.17-49,7.26-59.86-.45-32.66-3.63-38.55S83.73,151,83.73,151,91.44,142.4,96,139.68s15.42-7.71,19.5-10,13.6-8.16,13.6-8.16,11.34,21.31,15,25.39S159,164.2,164.91,174.6c7.26,12.7,9.07,21.77,9.07,21.77a148,148,0,0,1,3.18-28.57c3.17-14.06,5.89-30.39,5.89-30.39Z"/><path class="cls-13" d="M225.31,293.16c-.86-14.19-.41-28.72-1.31-36s-7.39-37.68-7.39-37.68c0-4,1.43-10.11,3-16.57-1.11-2.61-1-8.56-.7-14.73.45-9.07.45-26.3-1.82-31.74s-.45,15.87-2.26,26.3-5,8.62-7.26,5.44S198,199.09,197.11,205s-4.53,14.06-7.26,14.52-6.34,1.36-10.43,2.26-12.7,0-19-2.72-10.43-15.42-13.16-20.4-11.33-16.33-10.43-8.17-3.17,5-5.44,0-7.73-22-12.24-29C110,147.39,106,147.39,106,147.39a160.91,160.91,0,0,1,10,15.87c5,9.07,7.26,23.13,7.26,23.13s-5-15.42-9.53-20.86a16.07,16.07,0,0,0-5.44-4.54c8.62,10,11,30.28,7.71,38.55-1.23,3.08-6.21-6.35-11.55-14.3.53,8.22.61,17.73,1.12,23.83.91,10.88-5.9,50.79-7.26,59.86s-4.93,37.79-7.07,49.93C87.27,341,81,460.08,81,460.08s2.55-23,8.51-57.05c10-57.2,10.22-91.12,28.1-92.82,19.59,0,55.4-1.72,79.2-8.52C202.81,300,210,292.31,225.31,293.16Z"/><path class="cls-12" d="M173.53,302.79c-.3-9.07-.91-40.51-.61-49.88s1.51-38.7,1.51-38.7,3.63-16,6.66-22.38S192.6,169.75,195.6,164a23.77,23.77,0,0,1,9.37-9.37l-4.23-6.35h8.77a106.15,106.15,0,0,0-16.33-19.36,47.52,47.52,0,0,1-9.83-5.89l-.3,14.36s-2.72,16.33-5.89,30.39A148,148,0,0,0,174,196.37s-.82-6.27-8.08-19C160,167,148.13,152.58,144.5,148.49s-15.42-26.95-15.42-26.95-2.63,1.63-5.72,3.51l-7.88,20.52s4.53-1.21,6.65-.9a48.52,48.52,0,0,1,7.26,2.42l-3.94,9.07s10.59,9.37,13.61,12.69S156.6,191.23,159,194s10.59,17.54,11.49,20a31.32,31.32,0,0,1,1.82,15.42c-.91,7.86-.91,57.15-.91,62.59,0,5.1-2,165.1-1.74,169.59l2.41-.14C171.89,457.72,173.81,311.2,173.53,302.79Z"/><path class="cls-11" d="M133,116.25a29.57,29.57,0,0,0-4.53,2.72,43.2,43.2,0,0,0-5.12,6.08l-6.07,15.38s10.58,1.51,12.1,2.72l-.91,10s10,10,16.32,15.42,13,14.21,17.24,20.86,12.39,25.52,12.39,25.52.91-15.24-1.2-25.21-26-37.49-31.15-46.57-6.35-10.27-7.25-16.62a48.62,48.62,0,0,1-.46-10.74Z"/><path class="cls-11" d="M174.43,214.21s-1.81-26.91,0-37.8,6-28.11,7.26-32.95,2.12-19.35,1.66-20.41-2.26-3.93-2.26-3.93,3.93,2.27,6,3.78,17.84,20.25,19.66,23c0,0-8.17-.61-9.38,0s5.14,7.25,5.14,7.25-4.84,1.21-8.77,7.56-10.88,21.16-13.3,27.51S174.43,214.21,174.43,214.21Z"/><path class="cls-14" d="M225,279.82c-4.44.92-10.2.66-14.68,1.16a140.26,140.26,0,0,1-17.51.41,45.55,45.55,0,0,1-.17,5.53c-1,1.35-5.38,1.71-9.08,2.55-9.18,2.09-60,12.77-70.38,10.69-5.27-1.06-12-5.73-17.68-11.27,1.13-8.38,2.13-16,2.72-20,.9-6,4.16-25.33,6-41,15.72.13,36.51.75,44.38,3,13.34,3.76,50.86,12.1,65,9.18,2.26-.47,4.36-.85,6.3-1.16,1.31,7.68,2.58,15.44,3,18.63A199.72,199.72,0,0,1,225,279.82Z"/><path class="cls-11" d="M135.89,233.1c-2.73.91-14.13,7.21-16.78,10.43-6.35,7.71-15,10.89-18.6,20s-5.44,11.79-2.27,15.42,30.39,9.07,54,3.63c12.58-2.91,36.74-5.45,36.74-5.45s4.08-7.25,3.17-18.59-7.25-25.4-7.25-25.4-15.42-.91-22.68-.45S135.89,233.1,135.89,233.1Z"/><path class="cls-14" d="M184.87,233.1s-15.42-.91-22.68-.45-26.3.45-26.3.45c8.16,7.43,18,14.52,24.84,14.52,1.75,0,5.32,2.69,9,3.82,3.8,1.17,4.7,3.89,8.71,5.56,6.67,2.78,12.56,2.28,15.38.92C191.75,248.3,184.87,233.1,184.87,233.1Z"/><path class="cls-15" d="M195.34,225.27s5.81-11.33,10.26-17.66,5.14-7,9.58-10.32,10.61-7.67,11.64-6-2,5.33-2,5.33-6.85,5-8.22,7.33a38.45,38.45,0,0,0-2.39,5,84.26,84.26,0,0,1,6.16-7.33c2.39-2.34,4.45-3,6.5-4.33s6.7-3.82,7.52-2.34c1.18,2.12-1.45,4.05-3.5,5.38s-6.76,4.95-8.13,6.95l-3.42,5s5.48-5.67,7.53-7.33a27.73,27.73,0,0,1,4.73-3c.43-.25,2.72-1.56,3.41-1.85,2-.86,3.35.89,2.41,2.56-2.41,4.25-5.42,5-7.47,6.67s-5.82,5.66-5.82,5.66,3.42-1,4.79-2.33,5.82-5,5.82-3a8.15,8.15,0,0,1-2.74,5.67c-1.71,1.66-6.16,5.66-6.16,5.66S200.81,221.27,195.34,225.27Z"/><path class="cls-4" d="M195.34,225.27s.29-.58.8-1.54c4-1.47,11.87-3.71,14.51-4.63a46.43,46.43,0,0,1,11.26-2.5c4.3-.41,7.51-1.39,8.76-2.37a27.63,27.63,0,0,0,4-4.8.9.9,0,0,1,0,.18,8.15,8.15,0,0,1-2.74,5.67c-1.71,1.66-6.16,5.66-6.16,5.66S200.81,221.27,195.34,225.27Z"/><path class="cls-14" d="M180.33,226.3c-5,7.71-3.63,27.21,1.36,38.09,3,6.52,4.18,7,5.8,5.21,4.26-4.82,7.6-12.42,4.63-28.33C190.1,230.41,183,222.18,180.33,226.3Z"/><path class="cls-15" d="M181.24,228s-14.44-3.59-21-5.62S144,213.06,136,214s-24.09,8-24.09,8L121,237.54s10.16-6.17,14.93-4.44,20.7,10,24.73,10.69,12.14,4.36,12.14,4.36S182.72,232.82,181.24,228Z"/><path class="cls-4" d="M176.34,242.14a9.09,9.09,0,0,0-1.84-1.52c-9.16-5.69-17.08-6-22.22-8.27s-10.63-8.71-11.67-10.19c-5.38-5.75-8-6.18-9.81-6-8,.94-17.48,10.83-17.48,10.83l12.83,8.65s5.75-5.74,17.24.93c4.38,2.55,13.2,6.5,17.23,7.18s12.14,4.36,12.14,4.36S174.45,245.54,176.34,242.14Z"/><path class="cls-9" d="M165.6,222.55s2.37,5-.12,17c-.66,3.14-1.29,7.61-1.29,7.61a31.62,31.62,0,0,0,4.94,2.52c1.46.4,5,1.45,5,1.45s3.35,4.71,5.51,5.54,15.72,5,15.72,5,11.39-23.83,10.44-29-13.4-7.79-13.4-7.79-9.54-.7-11.48-.11S165.6,222.55,165.6,222.55Z"/><path class="cls-6" d="M183.23,224.57l.25-.12c3.5,0,8.88.34,8.88.34s12.44,2.57,13.4,7.79-10.44,29-10.44,29-6.15-1.88-10.83-3.35a35.6,35.6,0,0,0,2.09-9.41C188.66,231.78,183.23,224.57,183.23,224.57Z"/><path class="cls-11" d="M183.48,224.45s6.83,0,12.72-.42,17.69-4.08,20.41-4.53,13.82-.85,21.61,2.13c18.17,7,17.75,14.36,18.17,19.72.46,5.88.25,15.45-1.56,18.17s-9.19,8.5-13.73,9-30.56,1.86-35.63,1.86c-9.83,0-19.83.19-19.83.19s3.15-2,4.07-16.31C190.33,244.7,187.56,224.91,183.48,224.45Z"/><path class="cls-11" d="M83.73,151a38.41,38.41,0,0,1,16.78,8.16c8.16,6.8,17.23,20.86,20.41,26.76a160.34,160.34,0,0,1,8.62,19c1.36,4.09,1.81,9.53,2.26,14.52s1,8.21,2.72,11.33c2,3.74,5.25,7.17-2.26,7.26-3.9,0-5.45,11.79-6.81,16.78s-11.79,23.58-16.32,24.94-5.9,3.63-10.89-.9-12.7-24-18.14-43.09-6.35-40.36-5-54.87S77.38,155.55,83.73,151Z"/><path class="cls-13" d="M113.21,231.29c-3.63-4.08-14.06,16.78-14.51,8.16s8.61-13.15,8.16-19-14.06,2.27-19,5-7.71-27.66-8.61-39.45c-.76-9.85,2-25.71,2.08-32.51-4.16,5.4-5,15.13-6.17,27.52-1.36,14.51-.45,35.83,5,54.87s13.83,37.91,18.14,43.09c2.27,2.72,6.12,4.2,10.79,5,2.72.45,13.57,2.23,15.06.46-10.88-2.72-19.11-7.66-19.5-15C104.14,260.77,116.84,235.37,113.21,231.29Z"/><path class="cls-16" d="M173.68,203.53a23.23,23.23,0,0,0-.06-6.12,44.53,44.53,0,0,0-1.21-6,60.83,60.83,0,0,0-1.93-5.86c-.36-1-.75-1.91-1.16-2.85s-.85-1.89-1.32-2.81a70.77,70.77,0,0,0-6.55-10.48c-1.22-1.66-2.5-3.26-3.8-4.84s-2.65-3.1-4-4.63-2.68-3-3.9-4.55c-.31-.38-.6-.76-.88-1.13s-.5-.72-.82-1.21c-.59-.88-1.2-1.71-1.82-2.53q-1.86-2.44-3.77-4.8c-1.27-1.58-2.53-3.15-3.78-4.73s-2.46-3.17-3.6-4.8c-.58-.81-1.12-1.63-1.62-2.47-.25-.42-.48-.84-.69-1.27-.1-.21-.19-.42-.28-.64l-.29-.7c-.77-1.88-1.56-3.73-2.16-5.62a13.26,13.26,0,0,1-.61-2.9,7.64,7.64,0,0,1,.31-3,7.46,7.46,0,0,0-.81,3,13.49,13.49,0,0,0,.21,3.11,55.1,55.1,0,0,0,1.51,6l.22.73a7,7,0,0,0,.26.77c.19.51.4,1,.62,1.47.46,1,1,1.86,1.48,2.76,1.05,1.78,2.18,3.48,3.34,5.16,2.32,3.36,4.78,6.6,7.11,9.85.57.82,1.15,1.63,1.67,2.44l.4.64c.15.24.31.46.46.68.32.45.63.87,1,1.29,1.3,1.65,2.64,3.17,4,4.7s2.67,3,4,4.55,2.58,3.07,3.81,4.63a83.77,83.77,0,0,1,6.76,9.81c.5.87,1,1.72,1.44,2.61s.9,1.78,1.34,2.68c.86,1.8,1.66,3.63,2.38,5.5a55.74,55.74,0,0,1,1.85,5.7c.26,1,.48,1.95.65,2.95A18.85,18.85,0,0,1,173.68,203.53Z"/><path class="cls-17" d="M230.91,454.12s-2.55,3.41-13.62,5.11a111.92,111.92,0,0,1-24.77,1c-5-.23-10.15-.14-12.92-.28,2-4.26,8.76-55.37,11.29-70.54,3.89-23.35,6.14-51.76,6.14-51.76s19.22-18.47,23.66-24c2.2-2.74,6.52,28.93,6,54.5C226.15,391.59,231.12,447.47,230.91,454.12Z"/><path class="cls-16" d="M135.6,235.54c-4.82-6.82-5.11-18.17-6.53-25.84s-6.53-18.73-10.22-26.11a93.88,93.88,0,0,0-15.33-22.15c-6.24-6.53-13-9.36-13.34-7.66s5.68,4.54,11.92,14.76,14.2,24.7,9.66,24.41S96.71,205.44,97,211.12s2.84.29,11.64,2,3.13,3.41.86,7.38-4.26,10.22,1.41,6.53,11.08-9.08,12.78-4.83.85,10.22-.85,15.9,13.06,6,19.87,5.68C147,243.59,135.6,235.54,135.6,235.54Z"/><path class="cls-16" d="M172.79,275c-.85-.28-16.47,3.13-22.71,4.83s-36.05,5.39-39.46-6,4.54.57,13.91,1.42S172.79,275,172.79,275Z"/><path class="cls-16" d="M258.23,230.85s.15-3.69-2.41-9.93c-2.21-5.4-5.68-15.9-6.1-19.17s-3-9.93-3.83-13.62-3.84-16.89-5-20.87-5-12.49-6.81-14.33a13.13,13.13,0,0,0-3.41-2.56s2.55,3.84,2.84,6.53-2.27,15-3.55,19.16-4.54,8.95,0,7,8.66-4.69,9.51-2.84,1.7,4.4-.57,6.1-8,4.4-4.54,4.26,7.1-3.83,8.52-1.28,2.69,6.39-.29,8.09-4.54,1.14-3.69,4.12-2,1.28-.42,4.4,7.66,3.83,10.64,8.09S257.38,227.59,258.23,230.85Z"/><path class="cls-16" d="M250.85,230.71S238.79,223,234,221.63s-12.91-1.71-15.89-1.14-11.64,3-15,3.55-12.92,1.42-12.92,1.42l-4.82-.57s3.41,5.39,3.83,8,.29,4.82,2.56,3,14.25-5.75,18.87-6.39c8.24-1.13,15.33,5.25,19.31,6.53s.14-6.1,4.54-5.39S259.51,240.93,250.85,230.71Z"/><path class="cls-6" d="M154.4,204.29c0,4.88-3.5,8.84-7.83,8.84s-7.82-4-7.82-8.84,3.5-8.85,7.82-8.85S154.4,199.4,154.4,204.29Z"/><path class="cls-18" d="M155.53,203.61c0,4.88-3.5,8.84-7.82,8.84s-7.83-4-7.83-8.84,3.51-8.85,7.83-8.85S155.53,198.72,155.53,203.61Z"/><path class="cls-6" d="M154.85,203c0,3.14-2.24,5.67-5,5.67s-5-2.53-5-5.67,2.25-5.66,5-5.66S154.85,199.82,154.85,203Z"/><path class="cls-18" d="M153.72,203a3.91,3.91,0,1,1-3.88-4.38A4.16,4.16,0,0,1,153.72,203Z"/><path class="cls-18" d="M145.78,195.67l.11-7.8s1.63-.67,2.31.47,0,6.58,0,6.58S148.05,196.8,145.78,195.67Z"/><path class="cls-6" d="M147.14,190.45a1.35,1.35,0,0,1-1.36-1.29c0-.15-.46-14.89-1.57-22.72-1-6.78-4.58-21.74-7.61-28.51-.42-.93-.85-1.84-1.28-2.73-2.91-6.1-5.66-11.87-1.93-22,.25-.69,1.78-3.29,2.49-3.05s-.3,3.34-.56,4c-3.35,9.11-.32,14.07,2.47,19.9.44.91.88,1.84,1.3,2.79,3.23,7.22,6.84,22.37,7.81,29.21,1.13,8,1.58,22.4,1.6,23a1.34,1.34,0,0,1-1.32,1.37Z"/><path class="cls-18" d="M210.74,198.64c-1.58.35-3.21.62-4.64.84-.69.11-1.31.21-1.84.31a49,49,0,0,1-6,.7l-.07-1.82a46.61,46.61,0,0,0,5.75-.66l1.87-.32c3-.48,8.1-1.29,9.52-2.82,1.66-1.8.15-9.79-.85-15.08-1.12-6-4.28-17.8-4.31-17.92l1.75-.47c0,.12,3.21,12,4.35,18,1.51,8,2.5,14.37.39,16.65C215.53,197.32,213.21,198.09,210.74,198.64Z"/><path class="cls-18" d="M218.27,199.47s-2.77-.35-7.45-.61c-1-.06-1.89-.09-2.73-.11-3.26-.11-5.62-.19-8.37-1.62-1.56-.81-3.49-4-4.51-6.51a90.69,90.69,0,0,1-2.8-8.74c-.33-1.14-.61-2.15-.85-2.9-1.3-4.06-3.11-16.3-3.18-16.82l1.79-.26c0,.13,1.86,12.61,3.11,16.52.25.78.54,1.8.87,3,.74,2.61,1.66,5.85,2.74,8.55s2.82,5.14,3.67,5.58c2.38,1.24,4.45,1.31,7.59,1.41.85,0,1.76.06,2.77.12,4.76.26,7.46.6,7.58.62Z"/><path class="cls-6" d="M194.85,202.7a2.89,2.89,0,0,1-2.85-1.34c-.76-.84-.05-3.18,1.26-3.76s2.5,0,3.63-.09,1.91,1,2.26,2.3a2.77,2.77,0,0,1-.48,2.32Z"/><path class="cls-6" d="M221.59,200.82a2.87,2.87,0,0,0,2.93-1.15c.81-.79.26-3.17-1-3.83s-2.5-.15-3.62-.33-2,.85-2.39,2.16a2.72,2.72,0,0,0,.32,2.34Z"/><path class="cls-18" d="M187.85,160.5s.5,7,1,7.9a1.66,1.66,0,0,0,2.93-.56c.39-1.61-1.2-7.45-1.2-7.45A5.2,5.2,0,0,0,187.85,160.5Z"/><path class="cls-18" d="M208.93,159.68A24.35,24.35,0,0,0,211,166.4c.7.43,2.95.12,2.68-1.23-.85-4.28-2.27-5.82-2.27-5.82S209.8,158.74,208.93,159.68Z"/><path class="cls-6" d="M210.83,161.62a1.36,1.36,0,0,1-1.56-.82c0-.08-3.57-8.81-7.18-12.15a8.76,8.76,0,0,0-6.75-2,5.12,5.12,0,0,0-3.81,2.65c-2.68,4.82-.68,13.5-.66,13.58a1.36,1.36,0,0,1-1,1.64h0a1.35,1.35,0,0,1-1.62-1c-.09-.4-2.26-9.8.93-15.53a7.76,7.76,0,0,1,5.76-4,11.27,11.27,0,0,1,9,2.73c4.06,3.75,7.72,12.75,7.87,13.13a1.37,1.37,0,0,1-.75,1.77A.9.9,0,0,1,210.83,161.62Z"/><path class="cls-6" d="M194.31,146.62l-.14-1.35c0-.1-.38-2.6-3.3-9.36a68.08,68.08,0,0,0-8.71-14.66c-1.67-2.36-1.56-4-.87-3.47,2.33,1.79,7.62,6.7,12.08,17.05,3.13,7.27,3.48,9.87,3.51,10.15l.14,1.35Z"/><path class="cls-15" d="M130.74,69.82c.56,3.36,1.11,14.38,1.16,17.14s-.41,9.22,1.65,13.62a34.29,34.29,0,0,0,10.23,13.75,26.62,26.62,0,0,0,17,6.61c8.09.14,11.92-2.9,14.86-5.54,5.81-5.22,7.56-8,9.76-12.9,3.62-8,2.35-15,2.43-18.82s.21-13.32.43-18.54-2-27.86-17.64-30.14-28.47-2.18-35.46,9.91C130.36,53.24,130.19,66.46,130.74,69.82Z"/><g class="cls-19"><path class="cls-15" d="M133.68,90.7a9.51,9.51,0,0,1-.22-6,12.89,12.89,0,0,1,2.4-4.63c1.92-2.31,6.58-2.87,9.41-1.56,3.59,1.68,6.53,4.95,3.85,8s-6.09,5.58-9,6.4S135.11,94.44,133.68,90.7Z"/><path class="cls-20" d="M136,80.1c1.91-2.26,6.48-2.82,9.26-1.52s5.15,3.56,4.79,5.91a3.8,3.8,0,0,1-1,2c-.41.47-.85.93-1.3,1.37a19.22,19.22,0,0,1-7.56,4.87c-2.84.79-4.94,1.47-6.37-2.18a9.26,9.26,0,0,1-.24-5.86A12.31,12.31,0,0,1,136,80.1Z"/><path class="cls-21" d="M136.06,80.09c1.9-2.21,6.38-2.75,9.12-1.47s5,3.5,4.71,5.81a3.66,3.66,0,0,1-.95,1.92c-.41.46-.84.91-1.29,1.34a19,19,0,0,1-7.44,4.74c-2.8.77-4.86,1.42-6.29-2.14a8.93,8.93,0,0,1-.26-5.75A12,12,0,0,1,136.06,80.09Z"/><path class="cls-22" d="M136.16,80.08c1.88-2.15,6.28-2.69,9-1.42s5,3.44,4.64,5.71a3.61,3.61,0,0,1-.93,1.89c-.4.45-.83.89-1.27,1.31a18.93,18.93,0,0,1-7.33,4.61c-2.76.75-4.79,1.38-6.21-2.09a8.56,8.56,0,0,1-.28-5.64A11.36,11.36,0,0,1,136.16,80.08Z"/><path class="cls-23" d="M136.26,80.08c1.87-2.1,6.18-2.63,8.83-1.38s4.88,3.39,4.57,5.61a3.41,3.41,0,0,1-.9,1.85,15.1,15.1,0,0,1-1.25,1.28,18.72,18.72,0,0,1-7.22,4.49c-2.73.73-4.71,1.33-6.13-2.05a8.35,8.35,0,0,1-.31-5.52A11,11,0,0,1,136.26,80.08Z"/><path class="cls-24" d="M136.36,80.07c1.86-2,6.09-2.57,8.69-1.34s4.78,3.34,4.5,5.52a3.36,3.36,0,0,1-.88,1.82,14.62,14.62,0,0,1-1.24,1.25,18.57,18.57,0,0,1-7.1,4.36c-2.69.71-4.64,1.29-6.05-2a8,8,0,0,1-.33-5.41A10.65,10.65,0,0,1,136.36,80.07Z"/><path class="cls-25" d="M136.45,80.06c1.85-2,6-2.5,8.56-1.29s4.69,3.29,4.42,5.42a3.22,3.22,0,0,1-.85,1.79,14,14,0,0,1-1.22,1.22,18.38,18.38,0,0,1-7,4.23c-2.64.69-4.56,1.24-6-2a7.75,7.75,0,0,1-.35-5.3A10.38,10.38,0,0,1,136.45,80.06Z"/><path class="cls-26" d="M136.55,80.06c1.84-1.93,5.9-2.45,8.41-1.25s4.6,3.23,4.36,5.32a3.21,3.21,0,0,1-.83,1.76,13.37,13.37,0,0,1-1.2,1.18,18.19,18.19,0,0,1-6.89,4.11c-2.6.66-4.48,1.2-5.89-1.92a7.57,7.57,0,0,1-.36-5.19A10,10,0,0,1,136.55,80.06Z"/><path class="cls-26" d="M136.65,80.05c1.82-1.88,5.8-2.38,8.27-1.2s4.51,3.17,4.28,5.22a3.07,3.07,0,0,1-.8,1.73A12.84,12.84,0,0,1,147.22,87a18.13,18.13,0,0,1-6.78,4c-2.56.64-4.41,1.15-5.81-1.87a7.28,7.28,0,0,1-.38-5.08A9.61,9.61,0,0,1,136.65,80.05Z"/><path class="cls-27" d="M136.75,80c1.81-1.82,5.7-2.32,8.13-1.15S149.3,82,149.09,84a3,3,0,0,1-.78,1.7,10.28,10.28,0,0,1-1.17,1.11,17.71,17.71,0,0,1-6.66,3.86c-2.52.62-4.34,1.1-5.73-1.83a7,7,0,0,1-.41-5A9.43,9.43,0,0,1,136.75,80Z"/><path class="cls-28" d="M136.85,80c1.79-1.77,5.6-2.26,8-1.11S149.16,82,149,84a2.84,2.84,0,0,1-.75,1.66,9.14,9.14,0,0,1-1.15,1.09,17.73,17.73,0,0,1-6.55,3.73c-2.49.6-4.27,1.06-5.65-1.79a6.76,6.76,0,0,1-.43-4.85A9,9,0,0,1,136.85,80Z"/><path class="cls-29" d="M136.94,80A7.76,7.76,0,0,1,144.79,79c2.33,1.13,4.24,3,4.07,4.92a2.79,2.79,0,0,1-.73,1.63A8.75,8.75,0,0,1,147,86.58a17.65,17.65,0,0,1-6.45,3.6c-2.44.58-4.18,1-5.56-1.74a6.54,6.54,0,0,1-.45-4.74A8.74,8.74,0,0,1,136.94,80Z"/><path class="cls-29" d="M137,80a7.67,7.67,0,0,1,7.71-1c2.28,1.12,4.15,3,4,4.83a2.64,2.64,0,0,1-.7,1.6,8.29,8.29,0,0,1-1.11,1,17.46,17.46,0,0,1-6.34,3.48c-2.4.56-4.11,1-5.48-1.7a6.23,6.23,0,0,1-.47-4.63A8.29,8.29,0,0,1,137,80Z"/><path class="cls-30" d="M137.14,80a7.56,7.56,0,0,1,7.56-1c2.24,1.1,4.06,2.91,3.93,4.72a2.59,2.59,0,0,1-.68,1.58,7.46,7.46,0,0,1-1.1,1,17.19,17.19,0,0,1-6.22,3.35c-2.36.54-4,.92-5.4-1.65a6,6,0,0,1-.49-4.52A8.07,8.07,0,0,1,137.14,80Z"/><path class="cls-31" d="M137.24,80a7.49,7.49,0,0,1,7.42-.93c2.19,1.08,4,2.85,3.85,4.62a2.47,2.47,0,0,1-.65,1.55,7.7,7.7,0,0,1-1.08,1,17.22,17.22,0,0,1-6.11,3.22c-2.32.52-4,.88-5.32-1.61a5.76,5.76,0,0,1-.52-4.4A7.88,7.88,0,0,1,137.24,80Z"/><path class="cls-31" d="M137.34,80a7.35,7.35,0,0,1,7.28-.89c2.15,1.07,3.88,2.79,3.78,4.52a2.38,2.38,0,0,1-.63,1.51,5.94,5.94,0,0,1-1.06.93,17.14,17.14,0,0,1-6,3.1c-2.28.5-3.91.84-5.24-1.57a5.51,5.51,0,0,1-.54-4.29A7.54,7.54,0,0,1,137.34,80Z"/><path class="cls-32" d="M137.43,80a7.28,7.28,0,0,1,7.14-.84c2.11,1,3.79,2.74,3.71,4.42a2.26,2.26,0,0,1-.6,1.48,6.14,6.14,0,0,1-1.05.9,17.26,17.26,0,0,1-5.89,3c-2.23.47-3.83.78-5.15-1.53a5.28,5.28,0,0,1-.56-4.18A7.41,7.41,0,0,1,137.43,80Z"/><path class="cls-33" d="M137.53,80a7.19,7.19,0,0,1,7-.79c2.06,1,3.7,2.68,3.64,4.32a2.25,2.25,0,0,1-.58,1.45,5.41,5.41,0,0,1-1,.86,17.06,17.06,0,0,1-5.78,2.86c-2.2.45-3.77.74-5.07-1.49a5,5,0,0,1-.58-4.07A7.18,7.18,0,0,1,137.53,80Z"/><path class="cls-34" d="M137.63,80a7.11,7.11,0,0,1,6.86-.76c2,1,3.61,2.64,3.56,4.23a2.14,2.14,0,0,1-.55,1.42,4.87,4.87,0,0,1-1,.83,17.13,17.13,0,0,1-5.67,2.73c-2.16.43-3.7.69-5-1.44a4.87,4.87,0,0,1-.61-4A7,7,0,0,1,137.63,80Z"/><path class="cls-35" d="M137.73,80a7,7,0,0,1,6.71-.71c2,1,3.53,2.58,3.5,4.13a2.09,2.09,0,0,1-.53,1.39,4.62,4.62,0,0,1-1,.8,17.14,17.14,0,0,1-5.56,2.6c-2.12.4-3.64.65-4.91-1.4a4.64,4.64,0,0,1-.63-3.84A6.73,6.73,0,0,1,137.73,80Z"/><path class="cls-36" d="M137.83,80a6.91,6.91,0,0,1,6.57-.66c1.93,1,3.43,2.53,3.42,4a2,2,0,0,1-.5,1.36,4.2,4.2,0,0,1-1,.76,17,17,0,0,1-5.44,2.48c-2.08.38-3.58.61-4.83-1.36a4.42,4.42,0,0,1-.65-3.73A6.55,6.55,0,0,1,137.83,80Z"/><path class="cls-37" d="M137.92,80a6.79,6.79,0,0,1,6.44-.62c1.88,1,3.34,2.47,3.35,3.93a1.9,1.9,0,0,1-.48,1.32,3.77,3.77,0,0,1-1,.74,17.25,17.25,0,0,1-5.34,2.35c-2,.36-3.5.56-4.74-1.31a4.22,4.22,0,0,1-.67-3.62A6.31,6.31,0,0,1,137.92,80Z"/><path class="cls-38" d="M138,80a6.72,6.72,0,0,1,6.29-.57c1.84,1,3.26,2.42,3.28,3.83a1.79,1.79,0,0,1-.45,1.29,3.58,3.58,0,0,1-.94.71A17.44,17.44,0,0,1,141,87.44c-2,.34-3.44.52-4.66-1.27a4,4,0,0,1-.69-3.51A6.15,6.15,0,0,1,138,80Z"/><path class="cls-39" d="M138.12,80a6.6,6.6,0,0,1,6.15-.52c1.79.93,3.17,2.36,3.21,3.73a1.75,1.75,0,0,1-.43,1.26,3.08,3.08,0,0,1-.93.67,17.29,17.29,0,0,1-5.11,2.1c-1.95.32-3.38.48-4.58-1.22a3.88,3.88,0,0,1-.72-3.4A6,6,0,0,1,138.12,80Z"/><path class="cls-40" d="M138.22,80a6.55,6.55,0,0,1,6-.49c1.74.92,3.08,2.32,3.13,3.64a1.65,1.65,0,0,1-.4,1.23,3,3,0,0,1-.91.64,17.22,17.22,0,0,1-5,2c-1.91.3-3.32.44-4.5-1.18a3.66,3.66,0,0,1-.74-3.29A5.81,5.81,0,0,1,138.22,80Z"/><path class="cls-41" d="M138.32,79.94a6.42,6.42,0,0,1,5.86-.44c1.7.9,3,2.26,3.07,3.54a1.6,1.6,0,0,1-.38,1.2,2.73,2.73,0,0,1-.89.6,17.35,17.35,0,0,1-4.89,1.85c-1.88.28-3.27.4-4.42-1.14a3.46,3.46,0,0,1-.76-3.17A5.66,5.66,0,0,1,138.32,79.94Z"/><path class="cls-42" d="M138.41,79.93a6.37,6.37,0,0,1,5.73-.39c1.66.89,2.91,2.21,3,3.44a1.49,1.49,0,0,1-.35,1.17,2.48,2.48,0,0,1-.87.57,18.31,18.31,0,0,1-4.79,1.72c-1.83.26-3.2.36-4.33-1.09a3.27,3.27,0,0,1-.78-3.06A5.5,5.5,0,0,1,138.41,79.93Z"/><path class="cls-42" d="M138.51,79.93a6.23,6.23,0,0,1,5.59-.35c1.61.87,2.82,2.15,2.92,3.34a1.46,1.46,0,0,1-.33,1.13,2.2,2.2,0,0,1-.86.55,18.49,18.49,0,0,1-4.67,1.59c-1.79.24-3.15.32-4.26-1a3.09,3.09,0,0,1-.79-3A5.4,5.4,0,0,1,138.51,79.93Z"/><path class="cls-43" d="M138.61,79.92a6.13,6.13,0,0,1,5.44-.3c1.57.85,2.74,2.1,2.85,3.24a1.37,1.37,0,0,1-.3,1.1,2.1,2.1,0,0,1-.84.51,18.9,18.9,0,0,1-4.56,1.47c-1.75.22-3.09.28-4.18-1a3,3,0,0,1-.82-2.84A5.38,5.38,0,0,1,138.61,79.92Z"/><path class="cls-44" d="M138.71,79.91a6,6,0,0,1,5.3-.25c1.52.83,2.65,2,2.78,3.14a1.33,1.33,0,0,1-.28,1.07,2,2,0,0,1-.82.48,19.66,19.66,0,0,1-4.45,1.34c-1.71.2-3,.24-4.1-1A2.79,2.79,0,0,1,136.3,82,5.28,5.28,0,0,1,138.71,79.91Z"/><path class="cls-44" d="M138.81,79.91A5.92,5.92,0,0,1,144,79.7c1.47.81,2.56,2,2.7,3a1.22,1.22,0,0,1-.25,1,1.93,1.93,0,0,1-.8.45,20.57,20.57,0,0,1-4.34,1.21c-1.67.18-3,.2-4-.92a2.61,2.61,0,0,1-.86-2.61C136.63,81.22,137.7,80.49,138.81,79.91Z"/><path class="cls-45" d="M138.9,79.9a5.85,5.85,0,0,1,5-.17,4.93,4.93,0,0,1,2.64,3,1.18,1.18,0,0,1-.23,1,1.65,1.65,0,0,1-.79.41,20.83,20.83,0,0,1-4.23,1.09c-1.62.16-2.93.17-3.93-.87a2.47,2.47,0,0,1-.88-2.5C136.72,81.16,137.79,80.46,138.9,79.9Z"/><path class="cls-46" d="M139,79.9a5.75,5.75,0,0,1,4.88-.13,4.87,4.87,0,0,1,2.56,2.85,1.08,1.08,0,0,1-.2,1,1.48,1.48,0,0,1-.77.39,23.88,23.88,0,0,1-4.12,1c-1.58.14-2.88.13-3.85-.83s-1-2-.9-2.39C136.81,81.11,137.87,80.43,139,79.9Z"/><path class="cls-47" d="M139.1,79.89a5.63,5.63,0,0,1,4.73-.08,4.86,4.86,0,0,1,2.5,2.75,1,1,0,0,1-.18.94,1.36,1.36,0,0,1-.75.36,28.26,28.26,0,0,1-4,.84c-1.54.11-2.83.09-3.77-.79-1.13-1.07-1.05-1.93-.93-2.28C136.9,81.05,138,80.4,139.1,79.89Z"/><path class="cls-47" d="M139.2,79.88a5.57,5.57,0,0,1,4.59,0,4.85,4.85,0,0,1,2.42,2.65,1,1,0,0,1-.15.91,1.21,1.21,0,0,1-.74.32,31.48,31.48,0,0,1-3.89.72c-1.51.09-2.78,0-3.69-.75-1.15-1-1.06-1.86-1-2.17C137,81,138.05,80.37,139.2,79.88Z"/><path class="cls-48" d="M139.3,79.88a5.4,5.4,0,0,1,4.45,0,4.87,4.87,0,0,1,2.35,2.54,1,1,0,0,1-.13.89,1.14,1.14,0,0,1-.72.29c-1,.14-2.39.51-3.78.59s-2.73,0-3.61-.71c-1.18-1-1.07-1.79-1-2C137.08,80.94,138.14,80.34,139.3,79.88Z"/><path class="cls-49" d="M139.39,79.87a5.34,5.34,0,0,1,4.31.06A4.86,4.86,0,0,1,146,82.37a.87.87,0,0,1-.1.86,1,1,0,0,1-.7.25c-.91.09-2.31.41-3.68.47a5.42,5.42,0,0,1-3.52-.66c-1.21-.94-1.08-1.73-1-1.94C137.17,80.88,138.23,80.3,139.39,79.87Z"/><path class="cls-50" d="M139.49,79.86a5.25,5.25,0,0,1,4.17.1,5,5,0,0,1,2.21,2.35.86.86,0,0,1-.08.83.91.91,0,0,1-.68.22c-.87,0-2.23.3-3.57.34a5.73,5.73,0,0,1-3.44-.62c-1.23-.89-1.09-1.66-1-1.83A4.86,4.86,0,0,1,139.49,79.86Z"/><path class="cls-51" d="M139.59,79.86a5.16,5.16,0,0,1,4,.14,5,5,0,0,1,2.13,2.25.79.79,0,0,1-.05.79c-.12.15-.34.2-.67.2-.81,0-2.14.19-3.45.21a6.21,6.21,0,0,1-3.36-.58c-1.26-.84-1.09-1.58-1-1.71A4.84,4.84,0,0,1,139.59,79.86Z"/><path class="cls-52" d="M139.69,79.85a5,5,0,0,1,3.88.19,5.08,5.08,0,0,1,2.07,2.15.73.73,0,0,1,0,.76c-.12.14-.33.18-.65.16-.77,0-2.07.09-3.34.09a6.92,6.92,0,0,1-3.28-.53c-1.3-.78-1.1-1.52-1.06-1.61A5,5,0,0,1,139.69,79.85Z"/><path class="cls-53" d="M139.79,79.84a5,5,0,0,1,3.74.24,5.17,5.17,0,0,1,2,2c.13.32.14.58,0,.73s-.32.17-.63.13c-.73-.09-2,0-3.23,0a7.77,7.77,0,0,1-3.2-.49c-1.33-.72-1.1-1.45-1.08-1.49A5.11,5.11,0,0,1,139.79,79.84Z"/><path class="cls-54" d="M137.48,80.88a5.74,5.74,0,0,1,2.4-1,4.8,4.8,0,0,1,3.61.28,5.34,5.34,0,0,1,1.92,1.95c.25.56.09.93-.6.8a24.79,24.79,0,0,0-3.12-.17,9.3,9.3,0,0,1-3.11-.44C137.21,81.61,137.48,80.88,137.48,80.88Z"/></g><g class="cls-19"><path class="cls-15" d="M186.55,89.73a9.46,9.46,0,0,0,.42-6,12.63,12.63,0,0,0-2.23-4.72c-1.83-2.38-6.47-3.11-9.34-1.9-3.65,1.54-6.71,4.7-4.14,7.84s5.9,5.8,8.75,6.72S185,93.42,186.55,89.73Z"/><path class="cls-20" d="M175.44,77.2c-2.82,1.19-5.27,3.36-5,5.73a3.86,3.86,0,0,0,.9,2c.4.49.83,1,1.26,1.42A19.39,19.39,0,0,0,180,91.47c2.82.89,4.89,1.65,6.45-2a9.21,9.21,0,0,0,.44-5.84,12.28,12.28,0,0,0-2.24-4.63C182.82,76.72,178.27,76,175.44,77.2Z"/><path class="cls-21" d="M175.48,77.24c-2.77,1.18-5.17,3.31-4.91,5.63a3.63,3.63,0,0,0,.88,1.95c.39.48.81,1,1.24,1.39a19.11,19.11,0,0,0,7.27,5c2.78.87,4.81,1.6,6.36-1.91a9,9,0,0,0,.47-5.73A11.87,11.87,0,0,0,184.54,79C182.73,76.77,178.26,76.06,175.48,77.24Z"/><path class="cls-22" d="M175.52,77.28c-2.72,1.16-5.08,3.26-4.84,5.53a3.62,3.62,0,0,0,.86,1.92,17.74,17.74,0,0,0,1.23,1.36A18.84,18.84,0,0,0,179.93,91c2.74.85,4.74,1.55,6.28-1.87a8.65,8.65,0,0,0,.48-5.62A11.52,11.52,0,0,0,184.45,79C182.64,76.81,178.26,76.11,175.52,77.28Z"/><path class="cls-23" d="M175.57,77.32c-2.69,1.15-5,3.21-4.77,5.44a3.51,3.51,0,0,0,.83,1.89c.38.46.79.9,1.21,1.32a18.76,18.76,0,0,0,7.06,4.75c2.7.83,4.66,1.5,6.2-1.83a8.32,8.32,0,0,0,.5-5.5A11.11,11.11,0,0,0,184.35,79C182.55,76.86,178.26,76.16,175.57,77.32Z"/><path class="cls-24" d="M175.61,77.36c-2.64,1.13-4.9,3.16-4.69,5.34a3.43,3.43,0,0,0,.81,1.86,16.09,16.09,0,0,0,1.19,1.29,18.5,18.5,0,0,0,7,4.62c2.66.8,4.59,1.45,6.12-1.79a8.08,8.08,0,0,0,.51-5.39A10.73,10.73,0,0,0,184.25,79C182.46,76.9,178.25,76.22,175.61,77.36Z"/><path class="cls-25" d="M175.65,77.4c-2.59,1.12-4.8,3.11-4.61,5.25a3.27,3.27,0,0,0,.78,1.82A14,14,0,0,0,173,85.73a18.25,18.25,0,0,0,6.84,4.49c2.62.78,4.51,1.4,6-1.75a7.84,7.84,0,0,0,.53-5.28A10.27,10.27,0,0,0,184.15,79C182.37,77,178.25,76.27,175.65,77.4Z"/><path class="cls-26" d="M175.69,77.44c-2.54,1.1-4.71,3-4.54,5.15a3.22,3.22,0,0,0,.76,1.79,15.07,15.07,0,0,0,1.17,1.23A18.17,18.17,0,0,0,179.81,90c2.58.76,4.44,1.36,5.95-1.7a7.44,7.44,0,0,0,.55-5.17,9.87,9.87,0,0,0-2.26-4.1C182.29,77,178.25,76.33,175.69,77.44Z"/><path class="cls-26" d="M175.73,77.48c-2.5,1.09-4.62,3-4.46,5a3.07,3.07,0,0,0,.74,1.76,11.73,11.73,0,0,0,1.14,1.2,18.05,18.05,0,0,0,6.63,4.22c2.54.74,4.37,1.31,5.87-1.66a7.28,7.28,0,0,0,.57-5.06A9.76,9.76,0,0,0,184,79C182.2,77,178.24,76.38,175.73,77.48Z"/><path class="cls-27" d="M175.78,77.52c-2.46,1.07-4.53,3-4.39,5a3,3,0,0,0,.71,1.72,10.32,10.32,0,0,0,1.13,1.16,17.86,17.86,0,0,0,6.52,4.1c2.5.72,4.3,1.26,5.79-1.62a7,7,0,0,0,.58-4.94A9.31,9.31,0,0,0,183.86,79C182.11,77.08,178.24,76.44,175.78,77.52Z"/><path class="cls-28" d="M175.82,77.56c-2.41,1.06-4.44,2.9-4.32,4.86a3,3,0,0,0,.69,1.7,10.77,10.77,0,0,0,1.12,1.12,17.65,17.65,0,0,0,6.41,4c2.47.69,4.23,1.22,5.71-1.58a6.76,6.76,0,0,0,.6-4.83A8.92,8.92,0,0,0,183.76,79C182,77.13,178.24,76.49,175.82,77.56Z"/><path class="cls-29" d="M175.86,77.6c-2.37,1-4.34,2.85-4.24,4.77a2.82,2.82,0,0,0,.67,1.66,9.35,9.35,0,0,0,1.09,1.09A17.65,17.65,0,0,0,179.69,89c2.43.67,4.16,1.17,5.63-1.54a6.55,6.55,0,0,0,.62-4.72A8.8,8.8,0,0,0,183.66,79,7.75,7.75,0,0,0,175.86,77.6Z"/><path class="cls-29" d="M175.9,77.64c-2.32,1-4.25,2.8-4.16,4.67a2.65,2.65,0,0,0,.64,1.63A8.33,8.33,0,0,0,173.46,85a17.41,17.41,0,0,0,6.21,3.71c2.38.64,4.08,1.12,5.53-1.5a6.2,6.2,0,0,0,.64-4.61,8.5,8.5,0,0,0-2.27-3.66A7.65,7.65,0,0,0,175.9,77.64Z"/><path class="cls-30" d="M175.94,77.68c-2.27,1-4.16,2.75-4.08,4.57a2.65,2.65,0,0,0,.61,1.6,7.47,7.47,0,0,0,1.07,1,17.38,17.38,0,0,0,6.1,3.58c2.34.62,4,1.07,5.45-1.46a6,6,0,0,0,.66-4.49,8.19,8.19,0,0,0-2.28-3.58A7.58,7.58,0,0,0,175.94,77.68Z"/><path class="cls-31" d="M176,77.72c-2.23,1-4.07,2.7-4,4.48a2.51,2.51,0,0,0,.6,1.56,7,7,0,0,0,1,1,17.35,17.35,0,0,0,6,3.45c2.3.6,3.94,1,5.37-1.42a5.73,5.73,0,0,0,.67-4.38,7.84,7.84,0,0,0-2.28-3.49A7.44,7.44,0,0,0,176,77.72Z"/><path class="cls-31" d="M176,77.76c-2.19,1-4,2.65-3.94,4.38a2.39,2.39,0,0,0,.57,1.53,6.35,6.35,0,0,0,1,1A17.22,17.22,0,0,0,179.58,88c2.26.57,3.87,1,5.29-1.38a5.58,5.58,0,0,0,.69-4.27,7.7,7.7,0,0,0-2.29-3.4A7.38,7.38,0,0,0,176,77.76Z"/><path class="cls-32" d="M176.07,77.8c-2.14,1-3.89,2.6-3.86,4.28a2.29,2.29,0,0,0,.54,1.5,5.72,5.72,0,0,0,1,.94,17.1,17.1,0,0,0,5.78,3.19c2.22.55,3.81.92,5.2-1.34a5.26,5.26,0,0,0,.71-4.16,7.15,7.15,0,0,0-9.39-4.41Z"/><path class="cls-33" d="M176.11,77.84c-2.09,1-3.79,2.55-3.79,4.19a2.34,2.34,0,0,0,.52,1.47,6.24,6.24,0,0,0,1,.9,17.2,17.2,0,0,0,5.67,3.06c2.18.53,3.74.88,5.12-1.3a5.06,5.06,0,0,0,.73-4,7.08,7.08,0,0,0-9.26-4.28Z"/><path class="cls-34" d="M176.15,77.88c-2.05.94-3.7,2.5-3.71,4.09a2.17,2.17,0,0,0,.5,1.44,5.49,5.49,0,0,0,1,.87,17.29,17.29,0,0,0,5.57,2.93c2.14.5,3.68.83,5-1.26a4.84,4.84,0,0,0,.74-3.93A6.91,6.91,0,0,0,183,78.88,7.07,7.07,0,0,0,176.15,77.88Z"/><path class="cls-35" d="M176.2,77.92c-2,.92-3.62,2.45-3.64,4a2.08,2.08,0,0,0,.47,1.4,4.88,4.88,0,0,0,1,.83A17,17,0,0,0,179.46,87c2.1.48,3.61.78,5-1.22a4.62,4.62,0,0,0,.76-3.82,6.67,6.67,0,0,0-2.3-3A7,7,0,0,0,176.2,77.92Z"/><path class="cls-36" d="M176.24,78c-2,.91-3.52,2.4-3.56,3.9a2,2,0,0,0,.44,1.37,4.17,4.17,0,0,0,1,.8,17,17,0,0,0,5.35,2.68c2.06.46,3.55.73,4.88-1.18a4.45,4.45,0,0,0,.77-3.71,6.54,6.54,0,0,0-2.3-3A6.88,6.88,0,0,0,176.24,78Z"/><path class="cls-37" d="M176.28,78c-1.91.89-3.43,2.35-3.49,3.8a1.91,1.91,0,0,0,.43,1.34,3.9,3.9,0,0,0,.93.77,17.48,17.48,0,0,0,5.25,2.55c2,.44,3.49.69,4.79-1.14a4.21,4.21,0,0,0,.8-3.59,6.4,6.4,0,0,0-2.3-2.88A6.81,6.81,0,0,0,176.28,78Z"/><path class="cls-38" d="M176.32,78c-1.87.88-3.34,2.3-3.41,3.71a1.83,1.83,0,0,0,.4,1.3,3.56,3.56,0,0,0,.92.74,17,17,0,0,0,5.14,2.41c2,.42,3.43.65,4.71-1.09a4,4,0,0,0,.82-3.48,6.2,6.2,0,0,0-2.31-2.79A6.7,6.7,0,0,0,176.32,78Z"/><path class="cls-39" d="M176.36,78.08c-1.82.86-3.25,2.25-3.33,3.61A1.76,1.76,0,0,0,173.4,83a3.61,3.61,0,0,0,.91.7,17.11,17.11,0,0,0,5,2.28c1.94.4,3.36.61,4.62-1a3.83,3.83,0,0,0,.83-3.37,6,6,0,0,0-2.31-2.7A6.61,6.61,0,0,0,176.36,78.08Z"/><path class="cls-40" d="M176.41,78.12c-1.78.85-3.17,2.19-3.27,3.51a1.71,1.71,0,0,0,.36,1.25,3.1,3.1,0,0,0,.89.67,17.25,17.25,0,0,0,4.93,2.15c1.9.38,3.3.56,4.54-1a3.65,3.65,0,0,0,.85-3.26,5.88,5.88,0,0,0-2.32-2.61A6.48,6.48,0,0,0,176.41,78.12Z"/><path class="cls-41" d="M176.45,78.16c-1.73.83-3.08,2.14-3.19,3.42a1.6,1.6,0,0,0,.33,1.21,2.89,2.89,0,0,0,.87.64,17.51,17.51,0,0,0,4.83,2c1.86.35,3.24.52,4.46-1a3.45,3.45,0,0,0,.86-3.14,5.64,5.64,0,0,0-2.31-2.53A6.42,6.42,0,0,0,176.45,78.16Z"/><path class="cls-42" d="M176.49,78.2c-1.69.82-3,2.09-3.11,3.32a1.5,1.5,0,0,0,.3,1.18,2.77,2.77,0,0,0,.86.61,18.21,18.21,0,0,0,4.72,1.89c1.82.33,3.19.47,4.37-.93a3.27,3.27,0,0,0,.89-3,5.6,5.6,0,0,0-2.32-2.44A6.31,6.31,0,0,0,176.49,78.2Z"/><path class="cls-42" d="M176.53,78.24c-1.64.8-2.9,2-3,3.23a1.44,1.44,0,0,0,.29,1.14,2.41,2.41,0,0,0,.84.58A18.53,18.53,0,0,0,179.23,85c1.78.31,3.13.43,4.29-.89a3.1,3.1,0,0,0,.9-2.92,5.45,5.45,0,0,0-2.32-2.35A6.23,6.23,0,0,0,176.53,78.24Z"/><path class="cls-43" d="M176.57,78.28c-1.59.79-2.81,2-3,3.13a1.39,1.39,0,0,0,.26,1.11,2.36,2.36,0,0,0,.82.55,19.54,19.54,0,0,0,4.51,1.63c1.74.29,3.08.39,4.21-.85a3,3,0,0,0,.92-2.81A5.34,5.34,0,0,0,182,78.78,6.13,6.13,0,0,0,176.57,78.28Z"/><path class="cls-44" d="M176.62,78.32c-1.56.78-2.73,1.94-2.89,3a1.31,1.31,0,0,0,.23,1.08,1.88,1.88,0,0,0,.81.51,19.61,19.61,0,0,0,4.4,1.51c1.7.26,3,.35,4.13-.81a2.79,2.79,0,0,0,.93-2.7c-.21-.73-1.25-1.53-2.33-2.17A6,6,0,0,0,176.62,78.32Z"/><path class="cls-44" d="M176.66,78.36c-1.51.76-2.64,1.89-2.81,2.94a1.23,1.23,0,0,0,.21,1,1.7,1.7,0,0,0,.79.47,20.38,20.38,0,0,0,4.29,1.38c1.66.24,3,.31,4.05-.77a2.62,2.62,0,0,0,.95-2.58c-.21-.7-1.24-1.47-2.33-2.09A5.92,5.92,0,0,0,176.66,78.36Z"/><path class="cls-45" d="M176.7,78.4A4.9,4.9,0,0,0,174,81.24a1.2,1.2,0,0,0,.19,1,1.59,1.59,0,0,0,.78.44A21.53,21.53,0,0,0,179.11,84c1.62.22,2.93.27,4-.73a2.5,2.5,0,0,0,1-2.47c-.21-.66-1.24-1.4-2.34-2A5.85,5.85,0,0,0,176.7,78.4Z"/><path class="cls-46" d="M176.74,78.44a4.87,4.87,0,0,0-2.66,2.74,1.15,1.15,0,0,0,.16,1,1.54,1.54,0,0,0,.76.41,24.56,24.56,0,0,0,4.08,1.12c1.58.2,2.88.23,3.88-.69,1.15-1.06,1.12-2,1-2.36-.19-.62-1.23-1.34-2.34-1.91A5.71,5.71,0,0,0,176.74,78.44Z"/><path class="cls-47" d="M176.78,78.48a4.83,4.83,0,0,0-2.58,2.65,1,1,0,0,0,.14,1,1.34,1.34,0,0,0,.74.38,27.67,27.67,0,0,0,4,1c1.54.17,2.83.19,3.8-.65,1.17-1,1.12-1.89,1-2.25-.19-.58-1.23-1.27-2.35-1.82A5.64,5.64,0,0,0,176.78,78.48Z"/><path class="cls-47" d="M176.83,78.52a4.83,4.83,0,0,0-2.52,2.55,1,1,0,0,0,.12.92,1.2,1.2,0,0,0,.73.35,30.82,30.82,0,0,0,3.87.86c1.5.15,2.77.16,3.71-.61,1.19-1,1.12-1.82,1-2.13-.18-.55-1.22-1.21-2.34-1.74A5.51,5.51,0,0,0,176.83,78.52Z"/><path class="cls-48" d="M176.87,78.56A4.85,4.85,0,0,0,174.43,81a.94.94,0,0,0,.09.88,1.15,1.15,0,0,0,.71.32c1,.17,2.37.6,3.77.73s2.72.12,3.62-.57c1.22-.95,1.14-1.76,1-2-.17-.51-1.22-1.15-2.35-1.65A5.45,5.45,0,0,0,176.87,78.56Z"/><path class="cls-49" d="M176.91,78.6A4.83,4.83,0,0,0,174.55,81a.9.9,0,0,0,.06.86,1.11,1.11,0,0,0,.7.28c.91.12,2.29.49,3.66.6a5.41,5.41,0,0,0,3.54-.53c1.24-.9,1.14-1.69,1.06-1.91-.16-.47-1.2-1.09-2.35-1.56A5.31,5.31,0,0,0,176.91,78.6Z"/><path class="cls-50" d="M177,78.64a4.86,4.86,0,0,0-2.28,2.26.82.82,0,0,0,0,.83c.13.16.36.17.68.25a22.79,22.79,0,0,0,3.55.47,5.73,5.73,0,0,0,3.46-.5c1.27-.84,1.14-1.61,1.08-1.79a4.87,4.87,0,0,0-2.36-1.47A5.22,5.22,0,0,0,177,78.64Z"/><path class="cls-51" d="M177,78.68a5,5,0,0,0-2.21,2.17.8.8,0,0,0,0,.79c.12.15.35.16.67.22a33.25,33.25,0,0,0,3.44.33,6.24,6.24,0,0,0,3.38-.45c1.29-.79,1.14-1.54,1.09-1.67A4.81,4.81,0,0,0,181,78.68,5.08,5.08,0,0,0,177,78.68Z"/><path class="cls-52" d="M177,78.72a5,5,0,0,0-2.14,2.07.75.75,0,0,0,0,.76c.12.14.33.16.65.19.77.05,2.06.16,3.34.2a6.81,6.81,0,0,0,3.3-.41c1.32-.73,1.14-1.48,1.11-1.56a4.91,4.91,0,0,0-2.36-1.3A5,5,0,0,0,177,78.72Z"/><path class="cls-53" d="M177.08,78.76a5,5,0,0,0-2.06,2c-.14.31-.16.56,0,.72s.31.18.63.15c.73-.06,2,.06,3.23.08a7.73,7.73,0,0,0,3.21-.37c1.36-.67,1.15-1.41,1.14-1.45a5.05,5.05,0,0,0-2.37-1.21A4.9,4.9,0,0,0,177.08,78.76Z"/><path class="cls-54" d="M183.1,79.77a5.91,5.91,0,0,0-2.37-1.12,4.82,4.82,0,0,0-3.61.15,5.34,5.34,0,0,0-2,1.88c-.27.55-.12.93.57.81a27,27,0,0,1,3.12,0,9,9,0,0,0,3.13-.33C183.34,80.52,183.1,79.77,183.1,79.77Z"/></g><path class="cls-15" d="M187.54,75.57s2.37-4.8,5.15-5.78,4.67,3.74,4.08,7.27-2.64,7.56-2.76,9.86a6.6,6.6,0,0,1-2.86,5.27,15.52,15.52,0,0,1-4.25,1.16,59.58,59.58,0,0,0,.33-8.58A70.78,70.78,0,0,1,187.54,75.57Z"/><path class="cls-5" d="M188.74,77.84c1.29-1.1,1.94-1.57,2.24-2.8a3.59,3.59,0,0,1,2.25-2.5,2,2,0,0,1,2.34,1.79,23.57,23.57,0,0,1-.4,4.6c.14-.82-.6-3.33-1.48-3.71-1.43-.63-2.5,2-3.8,2.75.35,1.22,2.29-.66,3.13.7s.4,3.21-.07,4.45a13,13,0,0,1-1.75,2.79s.1-3.07-1.53-2.42a5.87,5.87,0,0,0-1.07-4Z"/><path class="cls-15" d="M131.7,76.7s-2.56-4.7-5.37-5.56-4.52,3.92-3.8,7.42,2.94,7.45,3.15,9.75a6.64,6.64,0,0,0,3.06,5.15,15.79,15.79,0,0,0,4.29,1,59.43,59.43,0,0,1-.66-8.56A72,72,0,0,0,131.7,76.7Z"/><path class="cls-5" d="M130.6,79c-1.34-1-2-1.5-2.36-2.71a3.59,3.59,0,0,0-2.35-2.41,2,2,0,0,0-2.26,1.89,23.14,23.14,0,0,0,.58,4.58c-.18-.82.47-3.35,1.33-3.77,1.4-.69,2.58,1.85,3.91,2.59-.31,1.23-2.31-.56-3.11.83s-.26,3.22.25,4.44a12.79,12.79,0,0,0,1.86,2.72s-.22-3.06,1.43-2.48a5.91,5.91,0,0,1,.91-4Z"/><path class="cls-5" d="M143.77,88.86c-1.46,1-2.93,1.44-3.39,3.29s.88,2.89,1.53,2.42-.06-2.61.91-3.7A3.23,3.23,0,0,0,143.77,88.86Z"/><path class="cls-5" d="M175.15,89c1.66.73,3.5,2.23,3.53,4.07s-.91,3.54-1.42,2.63.45-2-.06-3.06S175.15,89,175.15,89Z"/><path class="cls-5" d="M163.18,106.7c-5.11-.66-8.19,1.7-7.07-.16s2.59-1.74,4.74-1.48S163.18,106.7,163.18,106.7Z"/><path class="cls-17" d="M143.2,93.47s5.34,4,7.5,5.52a14.83,14.83,0,0,0,10.23,2.24c4.59-.55,6.72-1,9.15-2.94s6.15-4.88,6.15-4.88-9,.65-11.83.4a74.52,74.52,0,0,0-10.68.06A63.33,63.33,0,0,1,143.2,93.47Z"/><path class="cls-55" d="M175.8,93.44c-1.82.13-9,.58-11.4.37a74.52,74.52,0,0,0-10.68.06,63.33,63.33,0,0,1-10.52-.4l.38.28c2.11,1.15,6.62,2.85,14.8,2.78C169.61,96.45,171.28,96,175.8,93.44Z"/><path class="cls-56" d="M148.82,97.64a19.24,19.24,0,0,1-.83-3.76c-2.6-.15-4.79-.41-4.79-.41S146.37,95.86,148.82,97.64Z"/><path class="cls-56" d="M169.69,98.58l.39-.29c2.43-1.89,6.15-4.88,6.15-4.88s-2.77.2-5.71.33A41.37,41.37,0,0,1,169.69,98.58Z"/><path class="cls-57" d="M143.2,93.47a65,65,0,0,1,5.19,5c1.07,1.14,2.89,4.84,8.8,4.57s8.87,0,10.81-1.6,2.9-3.12,4.51-4.68,3.72-3.3,3.72-3.3-4.88,2.55-6.67,3.51a26.86,26.86,0,0,1-8,2.46c-2.29.2-6.39.44-9.05-.89S143.2,93.47,143.2,93.47Z"/><path class="cls-58" d="M165.86,101.13a38.12,38.12,0,0,1-11.33.38,13.55,13.55,0,0,1-5.29-2,8.73,8.73,0,0,0,7.95,3.52c5.91-.27,8.87,0,10.81-1.6s2.9-3.12,4.51-4.68C170.07,97.83,168.15,100.47,165.86,101.13Z"/><path class="cls-57" d="M143.2,93.47a34.92,34.92,0,0,0,6.73-.29,36.24,36.24,0,0,1,7.88-.31,30.92,30.92,0,0,0,5.26-.11,49.32,49.32,0,0,1,6.58.33l6.58.32a60.57,60.57,0,0,1-6.06,1.35c-2.45.36-8.2.63-10.34.67s-6.9-.17-9.2-.43S143.2,93.47,143.2,93.47Z"/><path class="cls-58" d="M170.17,94.76a60.57,60.57,0,0,0,6.06-1.35l-1,0c-3.79,1.15-7.52.68-9.21.71-2,0-4.92.56-6.73.44s-5.59-.19-9.2-.27a26.33,26.33,0,0,1-5-.73c-1.11,0-1.91,0-1.91,0s5.12,1.27,7.43,1.53,7.07.47,9.2.43S167.72,95.12,170.17,94.76Z"/><path class="cls-5" d="M160.66,87.14c1-.48,1.61-1.56,2.26-1.88,1.2-.59,2.62-.36,2.8.4s.18.76-1.29.94S160.66,87.14,160.66,87.14Z"/><path class="cls-5" d="M158,87c-1-.29-1.35-1.5-2.5-1.63s-2.3.2-2.28,1,.51.91,1.82.73A17,17,0,0,1,158,87Z"/><path class="cls-17" d="M153.53,72.44a23.49,23.49,0,0,0-2.61-1.81c-1.36-.8-2.69-1.8-4.94-1.42-3.08.53-7,3.35-7,3.35A11.81,11.81,0,0,0,141.83,74a17.92,17.92,0,0,0,7.28.08,15.82,15.82,0,0,1,3.69-.48C153.41,73.59,154,73.58,153.53,72.44Z"/><path d="M149.52,74a3.41,3.41,0,0,0,.92-2.33,3.25,3.25,0,0,0-.44-1.58,5.53,5.53,0,0,0-4-.88,12.14,12.14,0,0,0-2.75.91,3.29,3.29,0,0,0-.43,1.64,3.44,3.44,0,0,0,1.27,2.6,19.58,19.58,0,0,0,5-.28Z"/><path class="cls-17" d="M144.41,72.66c-.68-.37-1.25-1.94-.14-2.07s.25.57.38.92S145,73,144.41,72.66Z"/><path class="cls-17" d="M148.39,73.51c-1,.15-.38-.45,0-1.26s.47-1.5.85-.82S149.25,73.38,148.39,73.51Z"/><path class="cls-5" d="M139,72.56s1.33-3,3.29-4a8.14,8.14,0,0,1,7.14-.32,7.76,7.76,0,0,1,3.85,3.29c.25.57.51,1.38.51,1.38s-2.74-3.08-5.46-3.5-4-.17-5.82.79A25.35,25.35,0,0,0,139,72.56Z"/><path class="cls-59" d="M153.55,73.42a.49.49,0,0,0,.09-.47,3.12,3.12,0,0,0-.18-.48l0,0a26.26,26.26,0,0,0-3.43-2.14,6.4,6.4,0,0,0-3.82-.85,14.17,14.17,0,0,0-3.87,1A10.54,10.54,0,0,0,139,72.58l-.06,0a7.17,7.17,0,0,1,3.1-2.67,10,10,0,0,1,4.14-1,7,7,0,0,1,2.14.25,8.17,8.17,0,0,1,1.92.87,23,23,0,0,1,3.32,2.37h0a3.1,3.1,0,0,1,.15.52,1.31,1.31,0,0,1,0,.28.44.44,0,0,1-.14.25Z"/><path class="cls-59" d="M139,72.54a13,13,0,0,0,3.4,1.37,21.69,21.69,0,0,0,3.71.31,18,18,0,0,0,3.72-.4c.63-.11,1.25-.19,1.89-.24.31,0,.63,0,.95,0a1.54,1.54,0,0,0,.89-.12l0,0a1.67,1.67,0,0,1-.93.18c-.32,0-.63,0-.94.08-.62.07-1.24.19-1.85.32a18.25,18.25,0,0,1-3.76.55,15.39,15.39,0,0,1-3.83-.23A8.74,8.74,0,0,1,139,72.58Z"/><path class="cls-17" d="M166.63,71.91a25,25,0,0,1,2.58-1.86c1.35-.83,2.66-1.85,4.92-1.51,3.08.46,7,3.21,7,3.21a12.31,12.31,0,0,1-2.83,1.5,18.26,18.26,0,0,1-7.26.22,16.8,16.8,0,0,0-3.7-.42C166.76,73.06,166.14,73.06,166.63,71.91Z"/><path d="M170.66,73.39a3.37,3.37,0,0,1-.95-2.31,3.28,3.28,0,0,1,.41-1.6,5.59,5.59,0,0,1,4-.94,11.64,11.64,0,0,1,2.76.85,3.27,3.27,0,0,1,.45,1.63,3.42,3.42,0,0,1-1.22,2.62,19.19,19.19,0,0,1-5-.17Z"/><path class="cls-17" d="M175.75,72c.67-.38,1.22-2,.11-2.07s-.24.58-.36.92S175.13,72.3,175.75,72Z"/><path class="cls-17" d="M171.78,72.88c1,.14.38-.45,0-1.26s-.49-1.49-.86-.8S170.92,72.77,171.78,72.88Z"/><path class="cls-5" d="M181.17,71.75s-1.37-2.93-3.35-4a8.15,8.15,0,0,0-7.15-.17,7.86,7.86,0,0,0-3.8,3.36c-.24.57-.48,1.38-.48,1.38s2.69-3.12,5.4-3.6,4-.25,5.83.68A25.56,25.56,0,0,1,181.17,71.75Z"/><path class="cls-59" d="M166.62,72.89a.45.45,0,0,1-.09-.46,2.46,2.46,0,0,1,.17-.5l0,0a26.4,26.4,0,0,1,3.4-2.21,6.39,6.39,0,0,1,3.8-.92,14.28,14.28,0,0,1,3.89.88,10.38,10.38,0,0,1,3.37,2.06l.06,0a7.23,7.23,0,0,0-3.14-2.62,10.34,10.34,0,0,0-4.15-.88,7.11,7.11,0,0,0-2.15.29,8.13,8.13,0,0,0-1.9.91,23.2,23.2,0,0,0-3.28,2.43h0a2.6,2.6,0,0,0-.14.53.66.66,0,0,0,0,.28.48.48,0,0,0,.14.25Z"/><path class="cls-59" d="M181.15,71.73a12.9,12.9,0,0,1-3.37,1.43,20.63,20.63,0,0,1-3.7.38,18,18,0,0,1-3.73-.32c-.63-.09-1.26-.17-1.89-.21q-.48,0-1,0a1.66,1.66,0,0,1-.89-.11l0,0a1.63,1.63,0,0,0,.92.17c.32,0,.63,0,.94.05.63.06,1.25.17,1.86.29a18.26,18.26,0,0,0,3.77.47,14.47,14.47,0,0,0,3.82-.3,8.58,8.58,0,0,0,3.29-1.84Z"/><path class="cls-60" d="M168.85,117.21c-3-1.1-4.57-3.72-8.88-2.34-3.16,1-4.24,3.79-5.43,5.2a26.65,26.65,0,0,0,6.27.87,19.94,19.94,0,0,0,10.64-2.39A12.89,12.89,0,0,0,168.85,117.21Z"/><path class="cls-5" d="M167.61,74.27a4.7,4.7,0,0,0,2.74,1.5,13.51,13.51,0,0,0,3.22.3c1.06-.09,2.08-.48,3.18-.65a7,7,0,0,1,3.32.2v0a10.41,10.41,0,0,0-3.21.21,19,19,0,0,1-3.26.56,13.39,13.39,0,0,1-3.3-.43,4.81,4.81,0,0,1-2.71-1.7Z"/><path class="cls-5" d="M151.48,74.85a3.64,3.64,0,0,1-2.17,1.6,10.55,10.55,0,0,1-2.79.25c-.93,0-1.86,0-2.77,0a9.43,9.43,0,0,0-2.71.12l0,0a5.75,5.75,0,0,1,2.74-.54c.94,0,1.86.08,2.78.12a10.28,10.28,0,0,0,2.72-.1,3.58,3.58,0,0,0,2.19-1.4Z"/><path class="cls-59" d="M135.3,68.49c1-1.36,1.57-4.39,3.46-5.69a16.61,16.61,0,0,1,7.68-2.52c3.58-.33,7.28-.75,7.17.15A8.91,8.91,0,0,1,152.14,64c-.54.45-6.5.07-9.23.94-4.62,1.47-4.75,2.78-6,3.49S135.3,68.49,135.3,68.49Z"/><path class="cls-59" d="M184.22,68c-1.05-1.32-1.71-4.34-3.64-5.57a16.68,16.68,0,0,0-7.76-2.27c-3.58-.22-7.3-.51-7.16.38a8.89,8.89,0,0,0,1.58,3.51c.56.43,6.5-.14,9.26.64,4.66,1.32,4.83,2.63,6.1,3.29S184.22,68,184.22,68Z"/><path class="cls-59" d="M129.34,71.72c.39,1,.79,2.4,1.31,3.66s.83,5,1.33,5.25.82-2.19.76-5.18-.5-6.89-.46-11.14.65-10.93,4.62-15.61a19.76,19.76,0,0,1,12.81-6.92c3.56-.3,9,1.66,13.33,1.22s10.08-1.46,14.3.29,8.22,6.47,9.17,9.69,1.2,10,1.61,14.34c.35,3.82-.48,6-.54,7.45-.08,2.07-.27,5.66-.27,5.66a47.27,47.27,0,0,1,1.83-6.93c.83-1.74,2-3.14,3-3.39h0c.52-.16.85-8.18.93-9.21.29-3.8-1.2-10.67-2.76-14.89a26.2,26.2,0,0,0-11.6-13.44A38.24,38.24,0,0,0,167,29.19c-4.35-.66-9.32-1.39-13.7-.68-5,.8-9.38,3.61-13.27,6.45-3.24,2.36-6.92,5.18-8.8,8.69-1.5,2.79-1,3.91-1.59,7a32,32,0,0,0-.64,9.19C129.22,63,128.19,68.69,129.34,71.72Z"/><path class="cls-61" d="M150.7,77.56a.13.13,0,0,1-.12.13.13.13,0,0,1-.13-.13.12.12,0,0,1,.13-.12A.12.12,0,0,1,150.7,77.56Z"/><path class="cls-61" d="M152,78a.12.12,0,0,1-.24,0,.12.12,0,1,1,.24,0Z"/><path class="cls-61" d="M152.38,77.15a.12.12,0,1,1-.24,0,.12.12,0,0,1,.24,0Z"/><path class="cls-61" d="M153.42,76.57a.12.12,0,0,1-.24,0,.12.12,0,1,1,.24,0Z"/><path class="cls-61" d="M153.54,77.75a.13.13,0,0,1-.13.12.13.13,0,0,1-.12-.12.13.13,0,0,1,.12-.13A.13.13,0,0,1,153.54,77.75Z"/><path class="cls-61" d="M147.29,78.68a.13.13,0,0,1-.12.13.13.13,0,0,1-.13-.13.12.12,0,0,1,.13-.12A.12.12,0,0,1,147.29,78.68Z"/><path class="cls-61" d="M149.14,80.92a.12.12,0,1,1-.12-.12A.12.12,0,0,1,149.14,80.92Z"/><path class="cls-61" d="M146.93,82.33a.13.13,0,0,1-.12.13.13.13,0,0,1-.13-.13.13.13,0,0,1,.13-.12A.13.13,0,0,1,146.93,82.33Z"/><path class="cls-61" d="M145.08,80.34a.12.12,0,1,1-.24,0,.12.12,0,1,1,.24,0Z"/><path class="cls-61" d="M142.76,78.34a.12.12,0,0,1-.24,0,.12.12,0,1,1,.24,0Z"/><path class="cls-61" d="M149,79.16a.12.12,0,1,1-.12-.12A.12.12,0,0,1,149,79.16Z"/><path class="cls-61" d="M150.06,79.28a.12.12,0,0,1-.24,0,.12.12,0,1,1,.24,0Z"/><path class="cls-61" d="M150.87,80a.12.12,0,1,1-.24,0,.12.12,0,0,1,.24,0Z"/><path class="cls-61" d="M151.45,79a.12.12,0,1,1-.24,0,.12.12,0,1,1,.24,0Z"/><path class="cls-61" d="M156.2,75.51a.12.12,0,1,1-.12-.12A.12.12,0,0,1,156.2,75.51Z"/><path class="cls-61" d="M156.9,76.8a.13.13,0,0,1-.13.13.13.13,0,0,1-.12-.13.13.13,0,0,1,.12-.12A.13.13,0,0,1,156.9,76.8Z"/><path class="cls-61" d="M157.94,75.51a.12.12,0,0,1-.12.12.12.12,0,0,1,0-.24A.12.12,0,0,1,157.94,75.51Z"/><path class="cls-61" d="M158.52,76.68a.12.12,0,0,1-.12.12.12.12,0,1,1,0-.24A.12.12,0,0,1,158.52,76.68Z"/><path class="cls-61" d="M159.68,78.56a.12.12,0,1,1-.24,0,.12.12,0,0,1,.24,0Z"/><path class="cls-61" d="M158.29,78.92a.12.12,0,0,1-.24,0,.12.12,0,1,1,.24,0Z"/><path class="cls-61" d="M160.72,80.45a.12.12,0,0,1-.12.12.12.12,0,1,1,0-.24A.12.12,0,0,1,160.72,80.45Z"/><path class="cls-61" d="M159,74a.12.12,0,1,1-.24,0,.12.12,0,1,1,.24,0Z"/><path class="cls-61" d="M159.44,74.91a.12.12,0,1,1-.24,0,.12.12,0,0,1,.24,0Z"/><path class="cls-61" d="M161.18,76.32a.12.12,0,1,1-.12-.12A.12.12,0,0,1,161.18,76.32Z"/><path class="cls-61" d="M162,73.62a.12.12,0,0,1-.13.12.12.12,0,0,1-.12-.12.13.13,0,0,1,.12-.13A.13.13,0,0,1,162,73.62Z"/><path class="cls-61" d="M164.08,76a.12.12,0,1,1-.24,0,.12.12,0,0,1,.24,0Z"/><path class="cls-61" d="M164.89,78.33a.12.12,0,0,1-.12.12.12.12,0,0,1,0-.24A.12.12,0,0,1,164.89,78.33Z"/><path class="cls-61" d="M165.81,77a.13.13,0,0,1-.12.12.13.13,0,0,1-.13-.12.13.13,0,0,1,.13-.13A.12.12,0,0,1,165.81,77Z"/><path class="cls-61" d="M167,78.44a.12.12,0,1,1-.12-.12A.12.12,0,0,1,167,78.44Z"/><path class="cls-61" d="M168.36,78.21a.13.13,0,0,1-.12.13.13.13,0,0,1-.13-.13.12.12,0,0,1,.13-.12A.12.12,0,0,1,168.36,78.21Z"/><path class="cls-61" d="M168.59,80.21a.12.12,0,0,1-.12.13.13.13,0,0,1-.12-.13.13.13,0,0,1,.12-.12A.12.12,0,0,1,168.59,80.21Z"/><path class="cls-61" d="M171.14,81a.12.12,0,0,1-.12.12.12.12,0,1,1,0-.24A.12.12,0,0,1,171.14,81Z"/><path class="cls-61" d="M173.57,81.51a.12.12,0,1,1-.12-.12A.12.12,0,0,1,173.57,81.51Z"/><path class="cls-61" d="M173.34,83.28a.12.12,0,1,1-.24,0,.12.12,0,0,1,.24,0Z"/><path class="cls-61" d="M176.93,80.57a.12.12,0,0,1-.12.12.12.12,0,0,1-.12-.12.12.12,0,0,1,.12-.13A.13.13,0,0,1,176.93,80.57Z"/><path class="cls-61" d="M168.59,77.28a.12.12,0,0,1-.12.12.13.13,0,0,1-.12-.12.13.13,0,0,1,.12-.13A.12.12,0,0,1,168.59,77.28Z"/><path class="cls-61" d="M170.33,78a.12.12,0,0,1-.13.12.12.12,0,0,1-.12-.12.13.13,0,0,1,.12-.13A.13.13,0,0,1,170.33,78Z"/><path class="cls-61" d="M170.68,79.39a.12.12,0,0,1-.12.12.12.12,0,0,1,0-.24A.12.12,0,0,1,170.68,79.39Z"/><path class="cls-61" d="M172.76,79.4a.12.12,0,0,1-.12.12.13.13,0,0,1-.12-.12.13.13,0,0,1,.12-.13A.12.12,0,0,1,172.76,79.4Z"/><path class="cls-61" d="M167,77.39a.12.12,0,0,1-.12.12.12.12,0,0,1-.13-.12.13.13,0,0,1,.13-.13A.13.13,0,0,1,167,77.39Z"/><path class="cls-61" d="M165.7,75.86a.13.13,0,0,1-.12.13.12.12,0,0,1-.12-.13.12.12,0,0,1,.12-.12A.12.12,0,0,1,165.7,75.86Z"/><path class="cls-5" d="M167.5,83.19c.51.55,1.08.94,1,1.78-.14,1-.69,1.31-1.36,1.26a1.59,1.59,0,0,0,.87-1.12,3,3,0,0,0-.5-1.89Z"/><path class="cls-5" d="M151.24,83.21a2.56,2.56,0,0,0-.38,2.48c.34.9,1,1.16,1.9,1.47a2.27,2.27,0,0,1-1.56-.1,2.05,2.05,0,0,1-.92-1.08,2.83,2.83,0,0,1,0-1.39,4.83,4.83,0,0,1,.22-.64A2.07,2.07,0,0,1,151.24,83.21Z"/></g></g></svg>