<svg height='100px' width='100px'  fill="#000000" xmlns="http://www.w3.org/2000/svg" data-name="SOLID BLACK" viewBox="0 0 32 32" x="0px" y="0px"><title>radio, communication, sound, audio, music, media, ui</title><path d="M15,20.38a3.8,3.8,0,0,1-7.6,0,3.85,3.85,0,0,1,3.8-3.8A3.8,3.8,0,0,1,15,20.38Zm16-6.63V27a4,4,0,0,1-4,4H5a4,4,0,0,1-4-4V13.75A4,4,0,0,1,3.57,10v0l18-8.23a1,1,0,1,1,.84,1.82L9,9.75H27A4,4,0,0,1,31,13.75ZM17,20.38a5.8,5.8,0,0,0-5.8-5.8,5.88,5.88,0,0,0-5.8,5.8,5.8,5.8,0,0,0,11.6,0Zm7.66,2.37a1.91,1.91,0,1,0-1.91,1.91A1.92,1.92,0,0,0,24.66,22.75ZM26,16a1,1,0,0,0-1-1H20.47a1,1,0,0,0,0,2H25A1,1,0,0,0,26,16Z"></path></svg>