<?xml version="1.0" encoding="UTF-8" standalone="no"?>
<svg
   xmlns:dc="http://purl.org/dc/elements/1.1/"
   xmlns:cc="http://creativecommons.org/ns#"
   xmlns:rdf="http://www.w3.org/1999/02/22-rdf-syntax-ns#"
   xmlns:svg="http://www.w3.org/2000/svg"
   xmlns="http://www.w3.org/2000/svg"
   xmlns:sodipodi="http://sodipodi.sourceforge.net/DTD/sodipodi-0.dtd"
   xmlns:inkscape="http://www.inkscape.org/namespaces/inkscape"
   width="1997.144"
   height="1008.792"
   viewBox="0 0 1997.144 1008.792"
   version="1.1"
   id="svg60"
   sodipodi:docname="Line for Home Page - reversed.svg"
   inkscape:version="1.0.1 (c497b03c, 2020-09-10)">
  <metadata
     id="metadata66">
    <rdf:RDF>
      <cc:Work
         rdf:about="">
        <dc:format>image/svg+xml</dc:format>
        <dc:type
           rdf:resource="http://purl.org/dc/dcmitype/StillImage" />
        <dc:title></dc:title>
      </cc:Work>
    </rdf:RDF>
  </metadata>
  <defs
     id="defs64" />
  <sodipodi:namedview
     pagecolor="#ffffff"
     bordercolor="#666666"
     borderopacity="1"
     objecttolerance="10"
     gridtolerance="10"
     guidetolerance="10"
     inkscape:pageopacity="0"
     inkscape:pageshadow="2"
     inkscape:window-width="2560"
     inkscape:window-height="1395"
     id="namedview62"
     showgrid="false"
     inkscape:zoom="1.0705287"
     inkscape:cx="998.57202"
     inkscape:cy="504.396"
     inkscape:window-x="0"
     inkscape:window-y="23"
     inkscape:window-maximized="0"
     inkscape:current-layer="svg60" />
  <path
     id="Path_5183"
     data-name="Path 5183"
     d="M 2.7267875,34.610751 C -0.2303369,101.2105 5.144377,182.85514 64.877892,212.44515 c 15.772756,7.81292 33.541736,10.63624 51.096768,11.91705 86.14783,6.28647 178.71814,-21.09027 255.79633,17.89847 74.42636,37.64681 110.42266,126.39211 181.59253,169.88365 44.00502,26.8911 99.75947,33.70709 148.94047,18.2084 14.79094,-4.65885 31.73985,-16.38643 27.91995,-31.41706 -4.29556,-16.8976 -30.0502,-16.25102 -43.469,-5.12114 -29.8978,24.79657 -25.93347,75.37508 -0.0304,104.31642 25.90304,28.94134 66.47462,40.02296 105.1948,43.13367 38.72019,3.11071 77.96879,-0.29179 116.26953,6.17776 a 229.99,229.99 0 0 1 129.79676,70.42146 c 42.9287,46.64689 65.1234,109.63713 109.098,155.30063 95.1286,98.78982 254.244,86.25196 382.9148,133.70258 44.9662,16.58175 86.9284,40.97813 132.7683,54.95424 108.0232,32.93475 224.1241,4.92824 333.5159,-23.14118"
     fill="none"
     stroke="#e6ecf5"
     stroke-miterlimit="10"
     stroke-width="3"
     opacity="0.25" />
</svg>
