<svg xmlns="http://www.w3.org/2000/svg" width="1997.144" height="1008.792" viewBox="0 0 1997.144 1008.792">
  <path id="Path_5183" data-name="Path 5183" d="M1.17,972.856C-2.949,906.318,1,824.592,60.208,793.964c15.634-8.087,33.351-11.22,50.881-12.807,86.025-7.789,179.059,17.968,255.445-22.36,73.758-38.94,108.2-128.3,178.6-173.027,43.529-27.655,99.156-35.443,148.6-20.805,14.87,4.4,32.021,15.83,28.464,30.925-4,16.97-29.762,16.773-43.373,5.879-30.326-24.271-27.245-74.911-1.851-104.3S742.74,456.292,781.4,452.506s77.962-1.069,116.144-8.206a229.99,229.99,0,0,0,128.548-72.676c42.108-47.389,63.2-110.757,106.371-157.181,93.39-100.435,252.7-90.676,380.523-140.365,44.67-17.364,86.2-42.489,131.789-57.263C1752.207-18,1868.779,7.976,1978.644,34.132" transform="translate(1978.715 1007.339) rotate(-179)" fill="none" stroke="#e6ecf5" stroke-miterlimit="10" stroke-width="3" opacity="0.25"/>
</svg>
