<svg xmlns="http://www.w3.org/2000/svg" width="1997.144" height="1008.791" viewBox="0 0 1997.144 1008.791">
  <path id="Path_40381" data-name="Path 40381" d="M1.17,972.856C-2.949,906.318,1,824.592,60.208,793.964c15.634-8.087,33.351-11.22,50.881-12.807,86.025-7.789,179.059,17.968,255.445-22.36,73.758-38.94,108.2-128.3,178.6-173.027,43.529-27.655,51.273-16.048,87.864-41.4,19.8-9.183,18.587-17.514,43.981-46.9S742.74,456.292,781.4,452.506s77.962-1.069,116.144-8.206a229.99,229.99,0,0,0,128.548-72.676c42.108-47.389,63.2-110.757,106.371-157.181,93.39-100.435,252.7-90.676,380.523-140.365,44.67-17.364,86.2-42.489,131.789-57.263C1752.207-18,1868.779,7.976,1978.644,34.132" transform="translate(1978.715 1007.338) rotate(-179)" fill="none" stroke="#e6ecf5" stroke-miterlimit="10" stroke-width="3" opacity="0.25"/>
</svg>
