<svg xmlns="http://www.w3.org/2000/svg" width="2000" height="2000" viewBox="0 0 2000 2000"><path d="M166.54,1340.18c30.22-88.08,39.69-178.7,22.24-266.55-37.6-189.29,69.8-393.29,298.39-519,255.49-140.47,584.49-140.32,815.15-16.6,105.26,56.47,99.62,82.79,228.1,103.9,101.33,16.65,273.4,96.69,349.87,199.27,142.5,191.13,109.65,423.82-139.44,560.78-175.72,96.61-332.47,94.42-505.93,30.36-15,117.87-97.69,233.07-239,310.2C747.65,1878,409.15,1843.89,242,1666.56,151.07,1570,128.57,1450.89,166.54,1340.18Z" opacity="0.06"/><path d="M107.13,1396.05c31-88.13,40.79-178.78,23.08-266.61C92.05,940.19,202.06,736,435.79,610,697,469.2,1033.17,468.91,1268.68,592.33c107.47,56.33,101.67,82.65,232.91,103.59,103.52,16.51,279.21,96.33,357.21,198.82,145.34,190.94,111.45,423.71-143.24,561-179.66,96.86-339.82,94.88-517,31C1183.13,1604.7,1098.47,1720,954,1797.36c-253.83,135.8-599.64,102.11-770.14-75C91,1625.93,68.17,1506.82,107.13,1396.05Z" fill="none" stroke="#000" stroke-miterlimit="10" stroke-width="9" opacity="0.2"/><circle cx="458.46" cy="581.05" r="82.07" fill="none" stroke="#000" stroke-miterlimit="10" stroke-width="6" opacity="0.35"/><ellipse cx="670.42" cy="382.49" rx="59.31" ry="58.71" transform="translate(-90.7 510.79) rotate(-39.27)" fill="none" stroke="#000" stroke-miterlimit="10" stroke-width="6" opacity="0.35"/><ellipse cx="705.03" cy="574.7" rx="37.66" ry="37.57" transform="translate(-204.56 576.11) rotate(-39.27)" fill="none" stroke="#000" stroke-miterlimit="10" stroke-width="6" opacity="0.35"/><ellipse cx="1593.38" cy="717.4" rx="37.57" ry="37.66" transform="translate(-16.88 1396.05) rotate(-47.09)" fill="none" stroke="#000" stroke-miterlimit="10" stroke-width="6" opacity="0.35"/><ellipse cx="1490.88" cy="597.5" rx="57.48" ry="57.61" transform="translate(-67.42 208.36) rotate(-7.82)" fill="none" stroke="#000" stroke-miterlimit="10" stroke-width="6" opacity="0.35"/><path d="M1589.91,1600.55h0a5.57,5.57,0,0,0,3.07-7.23L1492.2,1343.81a5.55,5.55,0,0,0-7.23-3.07h0a5.55,5.55,0,0,0-3.07,7.23l100.78,249.51A5.56,5.56,0,0,0,1589.91,1600.55Z" fill="#a2adf5" fill-rule="evenodd"/><path d="M1614.06,1597.62c0,7.66-121.85,13.86-272.15,13.86s-272.15-6.2-272.15-13.86,121.85-13.85,272.15-13.85S1614.06,1590,1614.06,1597.62Z" fill="#a2adf5" opacity="0.35"/><path d="M1378.11,1600.55h0a5.57,5.57,0,0,1-3.07-7.23l100.78-249.51a5.55,5.55,0,0,1,7.23-3.07h0a5.56,5.56,0,0,1,3.07,7.23l-100.78,249.51A5.56,5.56,0,0,1,1378.11,1600.55Z" fill="#a2adf5" fill-rule="evenodd"/><path d="M1455.87,1600.55h0a5.55,5.55,0,0,0,3.07-7.23l-100.78-249.51a5.55,5.55,0,0,0-7.23-3.07h0a5.55,5.55,0,0,0-3.06,7.23l100.78,249.51A5.55,5.55,0,0,0,1455.87,1600.55Z" fill="#a2adf5" fill-rule="evenodd"/><rect x="1262.41" y="1345.95" width="258.12" height="49.18" rx="23.93" fill="#919fe8"/><path d="M761.86,1376.94H708.39c-19.38,0-39.29-16.9-44.23-37.56l-41.62-173.81c-4.95-20.67,6.86-37.57,26.24-37.57h53.47c19.39,0,39.29,16.9,44.24,37.57l41.61,173.81C793.05,1360,781.24,1376.94,761.86,1376.94Z" fill="#a2adf5" fill-rule="evenodd"/><path d="M633.34,1581.21c0,9.16,91.84,16.59,205.12,16.59s205.12-7.43,205.12-16.59-91.83-16.6-205.12-16.6S633.34,1572,633.34,1581.21Z" fill="#a2adf5" opacity="0.35"/><path d="M1005.66,1577.56h0a5.19,5.19,0,0,0,3-6.82l-98-235.46a5.47,5.47,0,0,0-7-2.9h0a5.2,5.2,0,0,0-3,6.83l98,235.46A5.46,5.46,0,0,0,1005.66,1577.56Z" fill="#a2adf5" fill-rule="evenodd"/><path d="M799.76,1577.56h0a5.19,5.19,0,0,1-3-6.82l98-235.46a5.47,5.47,0,0,1,7-2.9h0a5.2,5.2,0,0,1,3,6.83l-98,235.46A5.46,5.46,0,0,1,799.76,1577.56Z" fill="#a2adf5" fill-rule="evenodd"/><path d="M673.8,1577.55h0a5.4,5.4,0,0,1-3-7l98-242.56a5.39,5.39,0,0,1,7-3h0a5.39,5.39,0,0,1,3,7l-98,242.57A5.39,5.39,0,0,1,673.8,1577.55Z" fill="#a2adf5" fill-rule="evenodd"/><path d="M875.36,1577.55h0a5.4,5.4,0,0,0,3-7l-98-242.56a5.39,5.39,0,0,0-7-3h0a5.39,5.39,0,0,0-3,7l98,242.57A5.4,5.4,0,0,0,875.36,1577.55Z" fill="#a2adf5" fill-rule="evenodd"/><rect x="687.28" y="1330.04" width="250.93" height="47.81" rx="23.26" fill="#919fe8"/><path d="M1471.3,1058.11c30.8,18.17,31.7,110.77,37,142.19,2.45,14.61,10.6,63.79,3.29,76.54-2.42,4.22-19.84,1-24.36,1.77-19.19,3.42-105.21,10.1-117-3.08s-16.62-46-18.88-61.45c-11.91-81.37,34.08-159.6,34.08-159.6S1437.94,1038.43,1471.3,1058.11Z" fill="#b1770c" fill-rule="evenodd"/><path d="M1357.55,1170.62c19.58,45.18,141.9-3.06,126.33-24.77-21.74-30.3,10,20.9,17.26,52.78,3.38,14.83,20.26,64.73,13.68,77.65-2.17,4.28-9.93,38.89-14.55,39-61.2,2.12-155.32,5.46-160.63-12-7.49-24.58,17.45-66.6,18.5-82.34C1360.85,1180.17,1357.55,1170.62,1357.55,1170.62Z" fill="#b1770c" fill-rule="evenodd"/><path d="M1168.94,1547.77s25-123.36,44.27-172.53c5.33-13.59,16.33-24.66,30.68-30.88l114.42-49.6,74.76,58.68-157.35,56.27c-6.12,37.26-35.23,90.85-68.48,141.59Z" fill="#03050f" fill-rule="evenodd"/><path d="M1188.08,1549.54c4.58-34.21,34.1-64.39,47.42-81.23,16.93-21.4,6.6-57.66,13.64-75.62,2-5.1,7.59-11.67,14.55-18.21,15.45-14.52,35.29-24.48,56.84-29.87,29.16-7.31,46.45-18.18,64.63-28.78l78.48,7.34-187.92,86.54c-6.12,37.26-35.23,90.85-68.48,141.59Z" fill="#191919" fill-rule="evenodd"/><path d="M1385.36,1054.48c-20.65,4.66-35.71,14.28-42.81,34.22-1.18,2-19.22,32.89-26.74,87.66a66,66,0,0,1-13.75,32.18l-.66.82L1260,1245.63l1.91,14.66,4.91,14.72c21.05-5.8,38.06-14.63,52.17-25.65-4.9,33.15-8.77,58.65-8.77,58.65.74,3.94-41.53,6.55-85.84,47.9-5.38,5,52.8,4,94.2-15.66a67.55,67.55,0,0,0,37.62-48.94c0-.23.08-.44.11-.63,4.61-27.45,8.92-70.7,4.07-108.7C1351.28,1110.53,1385.36,1054.48,1385.36,1054.48Z" fill="#f8f9fa" fill-rule="evenodd"/><polygon points="1319 1570.2 1319.06 1540.74 1344.97 1543.04 1341.06 1572.27 1319 1570.2" fill="#84462a" fill-rule="evenodd"/><path d="M1288.62,1593.21a2.87,2.87,0,0,0,.83,2.26c.6.59,7.5,1.54,8.4,1.49,8.53-.44,24.87-2.23,36.16-2.81a7.38,7.38,0,0,0,4.77-2.15,6.82,6.82,0,0,0,2-4.65c.1-6.35,1.08-17.18,1.08-17.18h-22.33s-17.65,11.8-26.54,15.95c-3.72,1.74-4.13,3.25-4.42,7.09Z" fill="#20212e" fill-rule="evenodd"/><polygon points="1166.67 1570.52 1176.41 1541.13 1201.53 1544.76 1188.02 1573.72 1166.67 1570.52" fill="#84462a" fill-rule="evenodd"/><path d="M1248.54,1600.55h0a5.56,5.56,0,0,1-3.07-7.23l100.78-249.51a5.55,5.55,0,0,1,7.23-3.07h0a5.56,5.56,0,0,1,3.07,7.23l-100.78,249.51A5.57,5.57,0,0,1,1248.54,1600.55Z" fill="#f2f3fc" fill-rule="evenodd"/><path d="M1468.26,1359.3l3-30.28-81.7-6.61-60.35,25c-18.19,7.53-29.72,24-29.55,42.23l.4,45.65.12,0,9.35,116,36-1.71c16.93-60.54,29.82-93.92,19.63-145.45Z" fill="#03050f" fill-rule="evenodd"/><path d="M1134.57,1591.93a2.87,2.87,0,0,0,.71,2.31c.57.61,7.42,1.92,8.32,1.91,8.54,0,24.94-1,36.26-1a7.33,7.33,0,0,0,4.87-1.9,6.74,6.74,0,0,0,2.28-4.53c.43-6.33,2-17.1,2-17.1l-22.31-1.15s-18.23,10.87-27.32,14.56c-3.8,1.55-4.29,3-4.78,6.85Z" fill="#20212e" fill-rule="evenodd"/><rect x="1264.35" y="1288.74" width="15.18" height="308.22" rx="6.27" fill="#20212e"/><path d="M1345.62,1549.55s37.56-102.28,19.63-145.45l106-45.4s40.24-12,40.24-46.91l-47.86,16.61s-48.49,45-87.84,53.28-18.12,25.37-22.26,44-22.43,124.55-22.43,124.55Z" fill="#191919" fill-rule="evenodd"/><path d="M1338.35,1256s-14.27-9.76-23.38-5c-4.34,2.26-11.56,2.38-18,6-7.12,4-14.82,14.86-14.82,14.86s0,10.1,9,11.85c3.21.63,12.82-8,12.82-8,8.69,3.11,19.06,3,30.82.38Z" fill="#84462a" fill-rule="evenodd"/><path d="M1271.94,1255.23s-13.51-10.78-22.94-6.72c-4.5,1.93-11.71,1.52-18.44,4.64-7.4,3.42-15.87,13.73-15.87,13.73s-.77,10.07,8.06,12.48c3.16.86,13.38-7,13.38-7,8.43,3.73,18.78,4.43,30.7,2.64Z" fill="#84462a" fill-rule="evenodd"/><polygon points="1338.35 1256.04 1383.58 1252.71 1385.36 1276.84 1328.71 1273.71 1338.35 1256.04" fill="#84462a" fill-rule="evenodd"/><path d="M1351.28,1279H1218.94v-10h122.32a10,10,0,0,1,10,10Z" fill="#d0d1e8" fill-rule="evenodd"/><path d="M1539.12,1219a579.47,579.47,0,0,0-6.42-74.9c-4.9-31.41-11.24-55-22.26-68-6.72-7.93-13.22-11.2-20.7-14.48a121.91,121.91,0,0,0-23-7.48l-9.73-2.13c-20.46,61.29-36.94,101.23-30.88,181.4l-57,11.3.16,34.29h111.09l22.14-7.19,21.06-11.78A58.29,58.29,0,0,0,1539.12,1219Z" fill="#f8f9fa" fill-rule="evenodd"/><path d="M1252.64,1279H1100.77l-45.83-102.12h148.4a5.37,5.37,0,0,1,4.9,3.18Z" fill="#20212e" fill-rule="evenodd"/><path d="M1440.31,1269s-1.35-3.29-15.37,24.65c-6.2,12.36-89.7,57.73-89.7,57.73s42.13,16.85,46.35,46.17c2.28,15.85,105.23-41.34,116.57-47.86,10.09-5.79,15.49-37.43,16.37-48.57,4.13-52.33,1.92-44.11,1.92-44.11Z" fill="#f8f9fa" fill-rule="evenodd"/><ellipse cx="1139.14" cy="1228.59" rx="10.87" ry="15.14" transform="translate(-420.14 1841.53) rotate(-68.62)" fill="#dedeff"/><rect x="1054.94" y="1279" width="408.73" height="17.76" rx="8.32" fill="#20212e"/><path d="M1399.53,1048.31A31,31,0,0,0,1379,1073.1c-3.34,20-3.68,51.63-3.68,51.63" fill="none" stroke="#20212e" stroke-linecap="round" stroke-linejoin="round" stroke-width="2.06"/><path d="M1363.33,1136.7a12,12,0,1,0,12-12A12,12,0,0,0,1363.33,1136.7Z" fill="none" stroke="#20212e" stroke-linecap="round" stroke-linejoin="round" stroke-width="2.06"/><path d="M1369.79,1136.51a5.52,5.52,0,1,0,5.51-5.51A5.52,5.52,0,0,0,1369.79,1136.51Z" fill="#cc93cc"/><path d="M1458.71,1091.37s8.55-36.37-19.29-44.42" fill="none" stroke="#20212e" stroke-linecap="round" stroke-linejoin="round" stroke-width="2.06"/><path d="M1442.66,1112.09c4.51-9.63,9.76-16.87,16-20.72,0,0,5.5,17.79,3.83,24.77" fill="none" stroke="#20212e" stroke-linecap="round" stroke-linejoin="round" stroke-width="2.06"/><path d="M1460.89,1122.61h0a4.16,4.16,0,0,0,5.14-2.83h0a4.17,4.17,0,0,0-2.83-5.14h0a4.16,4.16,0,0,0-5.14,2.83h0A4.15,4.15,0,0,0,1460.89,1122.61Z" fill="#20212e"/><path d="M1440.64,1115.24h0a4.17,4.17,0,0,0,5.14-2.83h0a4.17,4.17,0,0,0-2.83-5.14h0a4.16,4.16,0,0,0-5.14,2.83h0A4.15,4.15,0,0,0,1440.64,1115.24Z" fill="#20212e"/><path d="M1461.4,1120.12s-18.09,41.3-26.62,41.13-13-1.74-13-1.74" fill="none" stroke="#20212e" stroke-linecap="round" stroke-linejoin="round" stroke-width="2.06"/><path d="M1419.21,1162.64l2.44.36a4,4,0,0,0,4.55-3.38h0a4,4,0,0,0-3.38-4.55l-2.44-.36a4,4,0,0,0-4.56,3.38h0A4,4,0,0,0,1419.21,1162.64Z" fill="#20212e"/><path d="M1440.42,1113.24s-13.73,43-7.23,48.46,7.61,5.53,7.61,5.53" fill="none" stroke="#20212e" stroke-linecap="round" stroke-linejoin="round" stroke-width="2.06"/><path d="M1441,1172.46l-2.08-1.33a4,4,0,0,1-1.21-5.54h0a4,4,0,0,1,5.54-1.21l2.08,1.33a4,4,0,0,1,1.21,5.54h0A4,4,0,0,1,1441,1172.46Z" fill="#20212e"/><path d="M1430.44,1232.63l58.43-13.28s-.25-45.1-6.23-75.22" fill="none" stroke="#ddd" stroke-linecap="round" stroke-linejoin="round" stroke-width="2.06" fill-rule="evenodd"/><polyline points="1310.58 1245.47 1328.71 1221.45 1334.24 1157.41" fill="none" stroke="#ddd" stroke-linecap="round" stroke-linejoin="round" stroke-width="2.06" fill-rule="evenodd"/><path d="M1387.26,1008l10,56.69a19.24,19.24,0,0,0,31.63,11.13l4.95-4.34a24.61,24.61,0,0,0,7.44-25.29c-6.72-23.47-19-66.23-19-66.23l-35.07,28Z" fill="#84462a" fill-rule="evenodd"/><path d="M1386.25,955.64s-25.92,7.53-10.1,32.94,10.1-32.94,10.1-32.94Z" fill="#3d2213" fill-rule="evenodd"/><path d="M1379,974.41a29.85,29.85,0,0,1,36.46-23.56h0a30,30,0,0,1,22.35,34.59c-1.66,9-3.48,18.83-5,27.36a21.31,21.31,0,0,1-26,16.83c-5.28-1.29-9,8-14.3,7.48-21.37-1.94-20.33-25.34-18.21-36.82,1.46-7.92,3.17-17.17,4.78-25.88Z" fill="#84462a" fill-rule="evenodd"/><path d="M1421.6,977s-7.64,26.46,13.46,30.11c0,0,14.26-22.8,17.29-35.11,5.62-22.9-40.22-34.17-60.47-27s-11.25,26.68,29.72,32Z" fill="#3d2213" fill-rule="evenodd"/><path d="M1436.22,995.71c-3.7-1.53-8.3,1.07-10.25,5.8s-.53,9.81,3.17,11.34,8.3-1.07,10.26-5.8.53-9.81-3.18-11.34Z" fill="#84462a" fill-rule="evenodd"/><path d="M1380.31,1009.61l14.16,3.83s-2.89,9.58-9.48,6.94S1380.31,1009.61,1380.31,1009.61Z" fill="#fff" fill-rule="evenodd"/><path d="M1392.4,1037.11l3.35,19s16.09-17.82,18.41-22.84C1414.16,1033.26,1400.1,1041.16,1392.4,1037.11Z" fill="#3d2213" fill-rule="evenodd"/><path d="M890.86,1104l35.54,63.67,34.65-12.44,19.25,18.66-59.86,33.39a23.46,23.46,0,0,1-22.78-9.9l-41.45-60.21,36.13-18.37Z" fill="#442518" fill-rule="evenodd"/><path d="M918.3,1555.1c1.33-6.27,38.76-183,38.76-197.26,0-16.12-32.83-44.13-44.76-50.83l-45-20.84L778.23,1318l120.44,55.67c-21.26,47.23,5.61,118.12-1.61,181.69Z" fill="#442518" fill-rule="evenodd"/><path d="M858.12,1547.5c2.09-5.17,30-134.43,29-185.27-.29-14-7.48-26.88-20.05-35.79l-100.24-71-18.39,72.51L835,1380.5c-14.23,47.38-4.83,107.82,3.76,169.94Z" fill="#442518" fill-rule="evenodd"/><path d="M917.17,1553.23l18.62,13.42a21.44,21.44,0,0,0,12.47,5.39l4.55.33a5.37,5.37,0,0,1,4.54,3.82h0c.92,2.92-.62,5.85-3.33,6.3l-50.11-2.15s-12-2.85-5.83-26.94Z" fill="#160a04" fill-rule="evenodd"/><path d="M855.88,1547s5.06,16.46,5.72,26.85a7.76,7.76,0,0,1-7.22,7.68l-10.86,0a5.73,5.73,0,0,1-4.2-1.67l-2.2-2.26c-3.65-3.75-2.48-8.15-1-14.32a137.92,137.92,0,0,0,2.39-13.61C847.44,1542,855.88,1547,855.88,1547Z" fill="#160a04" fill-rule="evenodd"/><path d="M848.22,1250.58s85.42,43.89,97.4,60.21c25,34,13,100.88,16.1,104.86,0,0-24.56,24.46-67,19.95-63.09-6.69-88.35.56-88.35.56s-8.11-50.6-28.89-63.43-56.63-29-55.07-60.25a540.16,540.16,0,0,1,7.21-61.9Z" fill="#263ec5" fill-rule="evenodd"/><path d="M840.72,958.71s38.68,23.58,16.86,66-29.36,9.7-29.36,9.7S818.15,974.24,840.72,958.71Z" fill="#7f533d" fill-rule="evenodd"/><path d="M780.21,965s-71.43,89.33-20.72,174.15c41.32,69.11,117.92-44.57,116.19-63.5s19.41-29.32-9-62.39S780.21,965,780.21,965Z" fill="#7f533d" fill-rule="evenodd"/><path d="M729.66,1141.29c3.61-35.08-3.71-58.82,17.71-76.08,15.4-6.5,52.35-15.06,52.35-15.06l10.63-.84,4-.68c12.82-2.18,29.16,2.89,47.49,16,26.18,16.21,1.08,22.87,18.2,57.22,14.46,29-11.4,56-11.4,56l11.1,11a60,60,0,0,1,15.52,25.59c0,.17.09.33.14.49a60.29,60.29,0,0,1-2.95,40.71l-7.51,17.2S719.17,1297.35,729.66,1248Z" fill="#263ec5" fill-rule="evenodd"/><path d="M837.51,1008.94s-4.8,27.39-8.78,50.07a17,17,0,0,1-27.92,9.85l-4.38-3.83a21.75,21.75,0,0,1-6.59-22.32c5.92-20.73,16.69-58.5,16.69-58.5l31,24.73Z" fill="#442518" fill-rule="evenodd"/><path d="M789.91,984.43a14.75,14.75,0,0,1,12.16-16.95l28-4.61c8-1.32,14.4,4.42,17,12.16,3,9.13,4.77,28.82,4.3,43.26-.26,8.14-5.3,16.44-13.34,17.76-8.58,1.42-35.64-2.52-40.65-17.45-3.81-11.37-5.45-22.34-7.4-34.17Z" fill="#442518" fill-rule="evenodd"/><path d="M772.5,1007.9S768,976.74,780.21,965c16.38-15.84,38.5-24.58,62.75-4.51,0,0,4,48.26-70.46,47.46Z" fill="#7f533d" fill-rule="evenodd"/><path d="M786.24,1017.83c3.27,5.84,9.85,8.37,14.68,5.66s6.09-9.65,2.81-15.48-9.85-8.37-14.68-5.66S783,1012,786.24,1017.83Z" fill="#442518" fill-rule="evenodd"/><polygon points="832.64 1035.94 830.33 1049.06 815.66 1031.04 832.64 1035.94" fill="#2b160b" fill-rule="evenodd"/><path d="M729.66,1141.29l11.53,69c5,19.29,4,22.38,22.25,36.5l58.21,36.84,10.66-15.33-51.33-55-16.71-79.16S748.78,1147,729.66,1141.29Z" fill="#442518" fill-rule="evenodd"/><path d="M747.37,1065.21s-32.51,20.65-21.87,101.58c0,0,61-12.47,62.33-12.46s-5.25-72.42-5.25-72.42Z" fill="#263ec5" fill-rule="evenodd"/><path d="M871,1072l30.73,47.4a12,12,0,0,1-7.23,18.21l-28.33,6.92Z" fill="#263ec5" fill-rule="evenodd"/><polyline points="769.55 1145.48 767.74 1106.47 765.3 1102.3" fill="none" stroke="#628eef" stroke-linecap="round" stroke-linejoin="round" stroke-width="1.5" fill-rule="evenodd"/><line x1="882.26" y1="1127.18" x2="860.14" y2="1089.99" fill="none" stroke="#628eef" stroke-linecap="round" stroke-linejoin="round" stroke-width="1.5"/><path d="M850.18,1330.84l69.73-10.73c7.58-1.16,9.33-6.56,3.88-12l-18-18c-5.45-5.43-16.11-8.91-23.69-7.75l-69.73,10.73c-7.58,1.17-9.32,6.56-3.88,12l18,18C831.94,1328.52,842.6,1332,850.18,1330.84Z" fill-rule="evenodd"/><path d="M991.38,1169.19s6.06-1.48,10.72-11.75c6-13.34,7.11-10.91-2.62-19-2.73-2.25-12.85-1.22-12.85-1.22L970.5,1149.5s-23.07,7.75-14.78,21.18C961.56,1180.15,991.38,1169.19,991.38,1169.19Z" fill="#442518" fill-rule="evenodd"/><path d="M885.22,1270.92s-14.07,11.44-28,5" fill="none" stroke="#628eef" stroke-linecap="round" stroke-linejoin="round" stroke-width="1.5" fill-rule="evenodd"/><path d="M804.19,1200.85s23-49.38,63.59-23.25" fill="none" stroke="#628eef" stroke-linecap="round" stroke-linejoin="round" stroke-width="1.5" fill-rule="evenodd"/><path d="M850,1268.94s6.18.81,11.93,10.51c7.46,12.61,8.26,10.07-.54,19.14-2.47,2.54-12.64,2.62-12.64,2.62l-17.37-10.43s-23.78-5.2-17-19.45C819.18,1261.28,850,1268.94,850,1268.94Z" fill="#442518" fill-rule="evenodd"/><path d="M490.45,1410.38H437c-19.38,0-39.28-16.9-44.23-37.57L351.13,1199c-4.94-20.66,6.87-37.56,26.25-37.56h53.47c19.38,0,39.28,16.9,44.23,37.56l41.62,173.81C521.64,1393.48,509.83,1410.38,490.45,1410.38Z" fill="#a2adf5" fill-rule="evenodd"/><path d="M361.94,1614.64c0,9.17,91.83,16.6,205.11,16.6s205.12-7.43,205.12-16.6-91.83-16.59-205.12-16.59S361.94,1605.48,361.94,1614.64Z" fill="#a2adf5" opacity="0.35"/><path d="M734.25,1611h0a5.18,5.18,0,0,0,3-6.82l-98-235.46a5.47,5.47,0,0,0-7-2.9h0a5.19,5.19,0,0,0-3,6.82l98,235.46A5.45,5.45,0,0,0,734.25,1611Z" fill="#a2adf5" fill-rule="evenodd"/><path d="M528.35,1611h0a5.19,5.19,0,0,1-3-6.82l98-235.46a5.47,5.47,0,0,1,7-2.9h0a5.19,5.19,0,0,1,3,6.82l-98,235.46A5.46,5.46,0,0,1,528.35,1611Z" fill="#a2adf5" fill-rule="evenodd"/><path d="M402.39,1611h0a5.4,5.4,0,0,1-3-7l98-242.56a5.4,5.4,0,0,1,7-3h0a5.41,5.41,0,0,1,3,7l-98,242.57A5.4,5.4,0,0,1,402.39,1611Z" fill="#a2adf5" fill-rule="evenodd"/><path d="M604,1611h0a5.4,5.4,0,0,0,3-7L509,1361.4a5.4,5.4,0,0,0-7-3h0a5.4,5.4,0,0,0-3,7l98,242.57A5.41,5.41,0,0,0,604,1611Z" fill="#a2adf5" fill-rule="evenodd"/><rect x="415.87" y="1363.48" width="250.93" height="47.81" rx="23.26" fill="#919fe8"/><polygon points="609.57 1153.9 638.33 1276.32 607.41 1257.97 594.24 1278.07 592.13 1239.75 579.6 1166.19 609.57 1153.9" fill="#3a241b" fill-rule="evenodd"/><path d="M571.59,1084.65s22.61,19.68,39.14,67.76L577.67,1203Z" fill="#b1770c" fill-rule="evenodd"/><polygon points="682.15 1595.22 703.59 1590.77 705.03 1557.71 680.47 1562.24 682.15 1595.22" fill="#3a241b" fill-rule="evenodd"/><path d="M593.46,1244.94s21.56,62,20.07,74a86.9,86.9,0,0,1-15.14,38.66l-105.81-.83a49,49,0,0,1-47.88-57.29c0-.15.05-.29.07-.43q.74-4.26,1.31-8.55c1.82-13.4,7.26-53.59,7.26-53.59,32.87,21.31,92.42,30.08,144.61,16Z" fill="#03050f" fill-rule="evenodd"/><path d="M541.39,1069.4c-13.16,19.85-28.59,5.24-33.73-1.79-.81-1.11-22.58,7.12-24.37,8.36-27.68,19.09-31.28,101-36.22,130.6-2.3,13.74-15.19,60-8.32,72,2.28,4,23.88.93,28.14,1.69,18,3.21,98.92,9.49,110-2.9s2.76-35.21,4.89-49.77c11.2-76.51-10.22-142.89-10.22-142.89Z" fill="#b1770c" fill-rule="evenodd"/><path d="M703.59,1590.77l20.47,13.77a23.52,23.52,0,0,0,14,5.41l5.21.25a5.39,5.39,0,0,1,4.94,3.93h0a5.39,5.39,0,0,1-4.27,6.77l-57.47-1.05s-13.56-2.73-4.8-28.44Z" fill-rule="evenodd"/><polygon points="617.6 1595.22 639.04 1590.77 640.48 1557.71 615.91 1562.24 617.6 1595.22" fill="#3a241b" fill-rule="evenodd"/><path d="M639,1590.77l20.47,13.77a23.52,23.52,0,0,0,14,5.41l5.22.25a5.39,5.39,0,0,1,4.94,3.93h0a5.4,5.4,0,0,1-4.27,6.77l-57.47-1.05s-13.56-2.73-4.8-28.44Z" fill-rule="evenodd"/><path d="M549.21,1032.31l-10.86,61.62A20.91,20.91,0,0,1,504,1106l-5.38-4.72a26.74,26.74,0,0,1-8.09-27.48l20.6-72,38.11,30.47Z" fill="#3a241b" fill-rule="evenodd"/><path d="M550.31,975.45s28.17,8.17,11,35.79-11-35.79-11-35.79Z" fill="#3d2213" fill-rule="evenodd"/><path d="M558.22,995.85a32.43,32.43,0,0,0-39.62-25.61h0a32.6,32.6,0,0,0-24.3,37.58c1.81,9.78,3.79,20.48,5.5,29.75a23.17,23.17,0,0,0,28.29,18.29l17.49-4.29a23.94,23.94,0,0,0,17.84-27.6c-1.59-8.61-3.45-18.66-5.2-28.12Z" fill="#3a241b" fill-rule="evenodd"/><path d="M511.89,998.6s8.31,28.75-14.63,32.72c0,0-15.5-24.77-18.78-38.15-6.11-24.88,43.71-37.14,65.71-29.32s12.23,29-32.3,34.75Z" fill-rule="evenodd"/><path d="M496,1019c4-1.66,9,1.16,11.14,6.3s.58,10.67-3.44,12.33-9-1.16-11.15-6.3S492,1020.65,496,1019Z" fill="#3a241b" fill-rule="evenodd"/><path d="M563.47,1023.91c1.21-2.72,13.66,38.74-12.69,42.68s-39-5.57-47.5-53.58c0,0,14.76,28.52,30.39,27.9,32.66-1.28,28.35-13.73,29.8-17Z" fill-rule="evenodd"/><path d="M528.24,995.32s55.51-12.43,38.91-35.46c-15.35-21.29-47.72,32.82-57.24,25.15Z" fill-rule="evenodd"/><path d="M556.76,1034.1l-15.38,4.16s3.14,10.41,10.3,7.54S556.76,1034.1,556.76,1034.1Z" fill="#fcf0db" fill-rule="evenodd"/><path d="M709.51,1569.68c-1.48-15.24,21.27-130,20.54-181.9-.2-14.36-6.81-26.18-18.42-33l-100.9-57.55L525.31,1361,665,1420.34c-7.66,39.21-1.77,98.07,11.9,151.91Z" fill="#03050f" fill-rule="evenodd"/><path d="M476.82,1354.07l5.64-23.31,81.14-5.47,59.94,26.77c18.06,8.07,29.51,25.26,29.35,44.07l-.4,47.1-.12-.07-5.27,129.09H609.75c-16.81-62.74-30.82-116.09-25.57-164.71Z" fill="#03050f" fill-rule="evenodd"/><path d="M579.47,1180.84c-15.68,41.85-132.6-3.07-119.31-23.17,18.54-28-8.15,19.35-13.09,48.9-2.3,13.74-15.19,60-8.32,72,2.28,4,11.51,36.06,15.83,36.22,57.23,2.06,152.19-1.3,156.15-17.47,5.58-22.77-22.81-79.67-24.68-94.26C581.17,1165.16,579.47,1180.84,579.47,1180.84Z" fill="#b1770c" fill-rule="evenodd"/><path d="M537.65,1300.73l35.47,18.86s23.29,23.28,7.34,32-20.64-4-23.48-7.66-16.47-2.86-29.68-27.9Z" fill="#3a241b" fill-rule="evenodd"/><path d="M402.59,1189.78V1259a47.91,47.91,0,0,0,23.35,41.26c26.89,16,72.68,37,113.93,26.63l3.15-23.66-92.58-44.86,1.5-90.21Z" fill="#3a241b" fill-rule="evenodd"/><path d="M483.29,1076s-28,4.37-52.29,30.44c-18.13,19.5-34,52.78-35.22,96.6,0,20.11,74.63,20.11,74.63,0Z" fill="#b1770c" fill-rule="evenodd"/><path d="M652.89,1396.13s4.87-38.16-16-49.74S585.05,1319,585.05,1319" fill="none" stroke="#2b2b2b" stroke-linecap="round" stroke-linejoin="round" stroke-width="1.38" fill-rule="evenodd"/><path d="M582.94,1192.61a305,305,0,0,1-7.67-40.91" fill="none" stroke="#7c4e05" stroke-miterlimit="10" stroke-width="2" fill-rule="evenodd"/><polyline points="458.46 1214.42 461.52 1159.37 458.46 1155.22" fill="none" stroke="#7c4e05" stroke-miterlimit="10" stroke-width="2" fill-rule="evenodd"/><path d="M660.67,1304.9s5.47,3.25,6.25,15.93c1,16.5,3,14.06-9.72,20.49-3.55,1.8-13.23-2-13.23-2l-11.44-17.94s-20-14.73-6.75-27.53C635.14,1284.8,660.67,1304.9,660.67,1304.9Z" fill="#3a241b" fill-rule="evenodd"/><path d="M613.56,1215.47s31.09,24.24,34.78,91.15L622,1305l-17.39-48.47Z" fill="#3a241b" fill-rule="evenodd"/></svg>