<svg xmlns="http://www.w3.org/2000/svg" xmlns:xlink="http://www.w3.org/1999/xlink" width="2000" height="2000" viewBox="0 0 2000 2000"><defs><clipPath id="a"><polygon points="768.19 1181.1 782 876.37 974.08 862.32 960.27 1167.05 768.19 1181.1" fill="none"/></clipPath><clipPath id="b"><polygon points="774.15 1181.35 787.78 880.76 888.05 873.43 874.42 1174.01 774.15 1181.35" fill="none"/></clipPath><clipPath id="c"><polygon points="829.09 958.67 832.18 890.52 890.17 886.28 887.08 954.43 829.09 958.67" fill="none"/></clipPath><clipPath id="d"><polygon points="860.91 926.49 862.84 883.86 909.78 880.43 907.85 923.06 860.91 926.49" fill="none"/></clipPath><clipPath id="e"><path d="M621.77,1222.61l-71.39,15.33c-14,3-21.72-4.38-17.25-16.4l40.43-108.66c4.47-12,19.55-24.3,33.5-27.3l71.39-15.33c14-3,21.72,4.39,17.25,16.4l-40.43,108.66C650.8,1207.33,635.72,1219.61,621.77,1222.61Z" fill="none"/></clipPath></defs><path d="M1708,1136.47c-27.35-78.43-37.42-159.76-24.92-239.39,22.25-141.78-37.91-265.4-169-364.07a545.32,545.32,0,0,0-159-82.32c-161.71-52.71-285.17-61.6-437.62-13.11a530.42,530.42,0,0,0-94.86,40.58C749.41,518.42,689,529.62,593.85,550c-84.3,18-227,59.72-288.52,154.38-114.55,176.37-64,502.08,147.48,618,57.79,31.67,104,37.6,147.2,29.31,121.65-23.31,247.92-6.39,357.74,49.79,10.26,5.25,21.26,11,33,17.4,210.7,114.58,526.38,178.52,661.84,13.84C1726.36,1343,1742.34,1235,1708,1136.47Z" fill="#e6ecf5" opacity="0.25"/><path d="M1737.13,1095.2c-27.35-78.42-37.42-159.75-24.92-239.38,22.26-141.79-37.91-265.4-169-364.07a544.84,544.84,0,0,0-159-82.32c-161.71-52.71-285.17-61.6-437.62-13.11a530.38,530.38,0,0,0-94.86,40.57c-73.2,40.26-133.66,51.47-228.76,71.8-84.3,18-227,59.71-288.52,154.37-114.55,176.38-64,502.08,147.48,618,57.79,31.68,104,37.6,147.2,29.32,121.65-23.31,247.92-6.4,357.74,49.78,10.26,5.25,21.26,11,33,17.41,210.7,114.57,526.38,178.52,661.84,13.83C1755.52,1301.73,1771.5,1193.77,1737.13,1095.2Z" fill="none" stroke="#e6ecf5" stroke-miterlimit="10" stroke-width="9" opacity="0.5"/><circle cx="1568.18" cy="521.79" r="82.07" fill="none" stroke="#fff" stroke-miterlimit="10" stroke-width="6"/><ellipse cx="1488.1" cy="343.13" rx="58.71" ry="59.31" transform="translate(280.46 1277.9) rotate(-50.73)" fill="none" stroke="#fff" stroke-miterlimit="10" stroke-width="6"/><ellipse cx="1394.66" cy="487.84" rx="37.57" ry="37.66" transform="translate(134.15 1258.66) rotate(-50.73)" fill="none" stroke="#fff" stroke-miterlimit="10" stroke-width="6"/><ellipse cx="545.03" cy="636.62" rx="37.66" ry="37.57" transform="translate(-291.2 692.03) rotate(-53.22)" fill="none" stroke="#fff" stroke-miterlimit="10" stroke-width="6"/><ellipse cx="634.4" cy="510.3" rx="57.48" ry="57.61" transform="translate(-21.63 28.12) rotate(-2.5)" fill="none" stroke="#fff" stroke-miterlimit="10" stroke-width="6"/><rect x="793.82" y="1165.82" width="150.11" height="247.76" fill="#ddd"/><path d="M1751.79,1670.81c0,16.75-141.72,30.34-316.54,30.34s-316.55-13.59-316.55-30.34,141.72-30.34,316.55-30.34S1751.79,1654.05,1751.79,1670.81Z" fill="#e6ecf5" opacity="0.25"/><polygon points="1390.43 1646.86 1390.5 1609.45 1423.4 1612.37 1418.44 1649.49 1390.43 1646.86" fill="#84462a" fill-rule="evenodd"/><path d="M1351.85,1676.08a3.64,3.64,0,0,0,1.05,2.88c.76.74,9.53,1.94,10.67,1.88,10.83-.55,31.58-2.83,45.92-3.57a9.28,9.28,0,0,0,6-2.73,8.63,8.63,0,0,0,2.61-5.9c.12-8.06,1.37-21.81,1.37-21.81h-28.36s-22.41,15-33.69,20.25c-4.73,2.21-5.26,4.12-5.62,9Z" fill="#0b1547" fill-rule="evenodd"/><polygon points="1223.58 1647.27 1235.95 1609.96 1267.85 1614.56 1250.68 1651.33 1223.58 1647.27" fill="#84462a" fill-rule="evenodd"/><path d="M1182.82,1674.46a3.62,3.62,0,0,0,.9,2.93c.72.78,9.42,2.43,10.56,2.43,10.84,0,31.68-1.2,46-1.2a9.32,9.32,0,0,0,6.19-2.42,8.6,8.6,0,0,0,2.9-5.76c.54-8,2.49-21.71,2.49-21.71l-28.32-1.46s-23.15,13.81-34.69,18.5c-4.83,2-5.46,3.84-6.07,8.69Z" fill="#0b1547" fill-rule="evenodd"/><path d="M1694.59,1673.72h0a6.15,6.15,0,0,0,3.4-8l-111.58-276.26a6.15,6.15,0,0,0-8-3.39h0a6.15,6.15,0,0,0-3.39,8l111.58,276.25A6.14,6.14,0,0,0,1694.59,1673.72Z" fill="#20212e" fill-rule="evenodd"/><path d="M1460.1,1673.72h0a6.15,6.15,0,0,1-3.4-8l111.58-276.26a6.15,6.15,0,0,1,8-3.39h0a6.14,6.14,0,0,1,3.4,8L1468.1,1670.32A6.14,6.14,0,0,1,1460.1,1673.72Z" fill="#20212e" fill-rule="evenodd"/><path d="M1546.19,1673.72h0a6.15,6.15,0,0,0,3.4-8L1438,1389.46a6.15,6.15,0,0,0-8-3.39h0a6.14,6.14,0,0,0-3.4,8l111.58,276.25A6.14,6.14,0,0,0,1546.19,1673.72Z" fill="#20212e" fill-rule="evenodd"/><rect x="1331.99" y="1391.83" width="285.78" height="54.45" rx="26.49" fill="#0b1547"/><path d="M1563.28,1075.1c34.09,20.12,35.09,122.64,40.9,157.43,2.71,16.17,11.74,70.62,3.65,84.74-2.68,4.67-22,1.07-27,2-21.24,3.78-116.48,11.17-129.56-3.41s-18.39-50.9-20.9-68c-13.19-90.08,37.73-176.7,37.73-176.7S1526.34,1053.31,1563.28,1075.1Z" fill="#263ec5" fill-rule="evenodd"/><path d="M1437.33,1199.67c21.68,50,157.11-3.39,139.87-27.42-24.07-33.55,11.08,23.13,19.11,58.44,3.74,16.41,22.43,71.66,15.15,86-2.41,4.73-11,43-16.11,43.23-67.76,2.35-172,6-177.85-13.28-8.29-27.21,19.32-73.73,20.48-91.16C1441,1210.24,1437.33,1199.67,1437.33,1199.67Z" fill="#263ec5" fill-rule="evenodd"/><path d="M1228.51,1617.24s27.68-136.59,49-191c5.89-15,18.07-27.3,34-34.19l126.69-54.91,82.77,65-174.22,62.29c-6.77,41.25-39,100.59-75.81,156.77Z" fill="#03050f" fill-rule="evenodd"/><path d="M1249.7,1619.2c5.07-37.88,37.75-71.29,52.5-89.94,18.75-23.69,7.31-63.84,15.1-83.72,2.21-5.65,8.4-12.92,16.12-20.17,17.09-16.07,39.06-27.09,62.92-33.07,32.29-8.08,51.43-20.12,71.56-31.85l86.89,8.12-208.06,95.81c-6.77,41.25-39,100.59-75.81,156.77Z" fill="#191919" fill-rule="evenodd"/><path d="M1468.12,1071.08c-22.86,5.16-39.54,15.81-47.39,37.89-1.31,2.19-21.28,36.41-29.62,97.06a73,73,0,0,1-15.22,35.63l-.72.91-45.83,40.14,2.11,16.24,5.44,16.3c23.3-6.42,42.14-16.2,57.76-28.4-5.43,36.7-9.71,64.93-9.71,64.93.82,4.37-46,7.25-95,53-6,5.56,58.45,4.44,104.29-17.33a74.77,74.77,0,0,0,41.65-54.19q.08-.37.12-.69c5.1-30.39,9.88-78.28,4.51-120.36C1430.39,1133.14,1468.12,1071.08,1468.12,1071.08Z" fill="#f8f9fa" fill-rule="evenodd"/><path d="M1316.64,1675.67h0a6.14,6.14,0,0,1-3.4-8l111.58-276.25a6.15,6.15,0,0,1,8-3.4h0a6.15,6.15,0,0,1,3.4,8l-111.58,276.25A6.14,6.14,0,0,1,1316.64,1675.67Z" fill="#20212e" fill-rule="evenodd"/><path d="M1559.91,1408.58l3.37-33.53-90.46-7.32L1406,1395.39c-20.14,8.34-32.9,26.58-32.72,46.76l.45,50.55.13-.07,10.35,128.47,39.91-1.89c18.75-67,33-104,21.74-161Z" fill="#03050f" fill-rule="evenodd"/><rect x="1334.15" y="1330.45" width="16.8" height="341.25" rx="6.94" fill="#20212e"/><path d="M1424.12,1619.21s41.59-113.24,21.74-161l117.42-50.27s44.55-13.24,44.55-51.94l-53,18.4s-53.69,49.81-97.25,59-20.06,28.09-24.65,48.73S1408.1,1620,1408.1,1620Z" fill="#191919" fill-rule="evenodd"/><path d="M1416.07,1294.25s-15.79-10.81-25.88-5.56c-4.81,2.5-12.8,2.63-20,6.62-7.89,4.38-16.41,16.45-16.41,16.45s0,11.18,9.92,13.12c3.55.7,14.2-8.8,14.2-8.8,9.61,3.44,21.09,3.37,34.11.42Z" fill="#84462a" fill-rule="evenodd"/><path d="M1342.55,1293.35s-15-11.94-25.4-7.45c-5,2.14-13,1.69-20.42,5.14-8.19,3.79-17.57,15.21-17.57,15.21s-.86,11.14,8.93,13.81c3.49,1,14.8-7.73,14.8-7.73,9.34,4.13,20.8,4.9,34,2.92Z" fill="#84462a" fill-rule="evenodd"/><polygon points="1416.07 1294.25 1466.16 1290.56 1468.12 1317.27 1405.41 1313.81 1416.07 1294.25" fill="#84462a" fill-rule="evenodd"/><path d="M1430.39,1319.67H1283.87v-11.09H1419.3a11.1,11.1,0,0,1,11.09,11.09Z" fill="#0b1547" fill-rule="evenodd"/><path d="M1638.37,1253.23a643.93,643.93,0,0,0-7.11-82.93c-5.43-34.78-12.45-60.87-24.65-75.28-7.45-8.78-14.64-12.39-22.92-16a134.39,134.39,0,0,0-25.42-8.28l-10.76-2.36c-22.66,67.85-40.91,112.08-34.19,200.84l-63.08,12.51.17,38h123l24.52-8,23.31-13A64.63,64.63,0,0,0,1638.37,1253.23Z" fill="#f8f9fa" fill-rule="evenodd"/><path d="M1321.18,1319.67H1153L1102.3,1206.6h164.29a6,6,0,0,1,5.43,3.52Z" fill="#0b1547" fill-rule="evenodd"/><path d="M1529,1308.58s-1.5-3.64-17,27.3c-6.86,13.67-99.31,63.91-99.31,63.91s46.65,18.66,51.32,51.12c2.52,17.55,116.5-45.78,129.06-53,11.17-6.42,17.15-41.45,18.12-53.79,4.58-57.93,2.13-48.83,2.13-48.83Z" fill="#f8f9fa" fill-rule="evenodd"/><path d="M1222.4,1266.06c2,7.06-3.46,12.77-12.19,12.77s-17.43-5.71-19.43-12.77,3.45-12.76,12.18-12.76S1220.4,1259,1222.4,1266.06Z" fill="#424660" fill-rule="evenodd"/><rect x="1102.3" y="1319.67" width="452.53" height="19.66" rx="9.21" fill="#20212e"/><path d="M1518,1268.33l64.7-14.71s-.28-49.93-6.9-83.28" fill="none" stroke="#ddd" stroke-linecap="round" stroke-linejoin="round" stroke-width="2.06" fill-rule="evenodd"/><polyline points="1385.33 1282.54 1405.41 1255.95 1411.52 1185.05" fill="none" stroke="#ddd" stroke-linecap="round" stroke-linejoin="round" stroke-width="2.06" fill-rule="evenodd"/><path d="M1144.93,979.6h0a11.46,11.46,0,0,1-3.71,15.77l-18.66,11.54a11.54,11.54,0,0,1-15.8-3.71h0a11.47,11.47,0,0,1,3.71-15.77l18.67-11.53A11.51,11.51,0,0,1,1144.93,979.6Z" fill="#af6a39"/><g clip-path="url(#a)"><path d="M871.59,869.82a14.37,14.37,0,0,0-7.37,2.59,4.44,4.44,0,0,1-2.08.51c-1,.07-2.23.06-3.66.07s-3,0-4.75.17A26.48,26.48,0,0,0,830.29,888c-10.16,19.75-19.46,36.29-21.37,43.74-7.55,29.41-1.64,43.56-3.92,51.32-11.53,39.51-9,69.71-7.39,76.93,2.88,13.26-9.11,24.26-14.12,41s-17.22,43.74-13.27,59.12S783.83,1180,783.83,1180s.44-16.9,11.42-26.81a16,16,0,0,1,10-5l1.15,0c.35,0,.77,0,1.15,0,2.11-.15,3.93-.84,6.53-5.18,6-10.09,14.89-44.33,17.27-64.11a329.88,329.88,0,0,1,10-48.71c1.85-5.32,16.75-19.48,13.81-43.4-2.24-18.16,19.54-28.72,30.08-29.48,3.32-.25,5.52.48,5.49,2.25-.1,7.39-4.52,47.68,3.43,53.12s24.68,5.22,34.37,12.7,37.88,6.46,37.88,6.46-26.27-20.38-32.61-30.93-19.08-12.11-17.94-34.88-10.77-60.5-13.59-67-8.81-20-13.4-23.32a28.65,28.65,0,0,0-17.27-5.72" fill="#2c2d30"/></g><path d="M931.93,997.77s67.75,64.66,88.59,47.91,83.65-63.18,83.65-63.18l26.88,27.3s-92.23,107.28-122.52,105.33-103-48.51-103-48.51Z" fill="#f8f9fa"/><path d="M1127.27,1005.86l3.78,3.92s-92.24,107.28-122.53,105.33c-20.49-1.32-60.39-23-84.07-37l12.43-20.46s49.67,35.06,71.3,38C1027.17,1098.32,1036,1094.65,1127.27,1005.86Z" fill="#ddd"/><path d="M750.46,1651.6c27.58-14.86,73.73-16,104.71-2.79,2.79-6.32,8.83-12.35,18.23-17.41,28.4-15.3,76.5-16,107.44-1.58s33,38.54,4.58,53.85c-27.58,14.86-73.73,15.95-104.7,2.79-2.79,6.31-8.83,12.34-18.23,17.4-28.4,15.31-76.51,16-107.45,1.58S722.06,1666.9,750.46,1651.6Z" fill="#e6ecf5" opacity="0.25"/><path d="M965,1633.85l-42-28.72a37.78,37.78,0,0,0-22.5.08c-3.88,1.14-4.6-1.76-4.27,1.87l-3.63,15.41c-3.54,10.32,4.65,16.52,16.46,20.08L949.2,1654c8.32,2.69,20,1.18,26-3.36l1.7-1.28C983,1644.85,973.89,1638.65,965,1633.85Z" fill="#0b1547"/><path d="M896.45,1609.9c.68,11.94,29.82,10.29,29.13-1.65l-2.21-38.83-29.13,1.65Z" fill="#af6a39"/><path d="M891.75,1595.12c12.25,9.09,24.44,8.71,36.58-1,0,0,20.47-240.13,13.66-363.46l-91.81-28.6c11.52,75.62,36.52,199.79,36.52,199.79C860.07,1464.13,884.07,1541.16,891.75,1595.12Z" fill="#03050f"/><path d="M850.18,1202.1l25.75,8c7.05,44.8,18,103.37,25.86,143.94a220.46,220.46,0,0,1,0,80c-9.67,55.1,8.06,116.08,14.47,161a38.53,38.53,0,0,0,5.43,3.39c-9.94,5.14-19.92,4-29.94-3.39-6.83-48-26.55-114.15-12.15-172a121.59,121.59,0,0,0,.87-52.68C872.3,1328.63,858.07,1254,850.18,1202.1Z" fill="#191919"/><path d="M792.74,1639.82c-1.24,11.91,27.78,14.9,29,3l4-38.69-29-3Z" fill="#af6a39"/><path d="M790.55,1625.3c12.49,10.17,24.63,11.94,36.36,4.14,0,0,10.41-79.75,26.78-164.69,12.66-65.75,31.43-131.79,35.75-184.12l-85.3-49.6c.75,46.52-2.72,148.9-4.33,192.82a73.48,73.48,0,0,1-7.46,29.51C772.75,1493.59,790.55,1625.3,790.55,1625.3Z" fill="#03050f"/><path d="M821.89,1641.18l-2.06,24.61a146.84,146.84,0,0,1-4.33,20.88,17.8,17.8,0,0,1-15.19,11.1c-7.55.52-22.74-12.82-17.32-29.36,4.72-14.43,9.83-29.62,9.83-29.62C803.47,1643.68,813.39,1645.37,821.89,1641.18Z" fill="#0b1547"/><path d="M901.38,1187.73s6.8,39.87-8.51,39-15.3-45.81-15.3-45.81Z" fill="#ffd2b3"/><path d="M870.76,1187.73c-.85,7.64,4,31.92,6.8,39,.44,1.11,24.66,5.94,23.81,14.42s-37.41-5.94-45.91-14.42S839.3,1181,839.3,1181Z" fill="#ffd2b3"/><path d="M807.54,1009.74s37.19-33.33,77-28.59,3.57,65.85,3.57,65.85Z" fill="#c7cced"/><path d="M944.37,1222.24a1446.12,1446.12,0,0,1-.76-156.78c-5.05-73-34.58-98.16-79.54-78.19l-18.7,6.36c-53.6,33.75-82,34.2-68,92.28l13.2,139.29C795.2,1291.52,953.3,1300,944.37,1222.24Z" fill="#263ec5"/><path d="M777.42,1085.91l13.2,139.29c2.67,38.67,57.55,57.67,101.06,51.37C840.17,1250.81,804.62,1180.14,777.42,1085.91Z" fill="#102ca0"/><path d="M807.54,1009.75s29.09-3.18,40.07,102.07c4.38,42-10.1,212.45-17.24,291.25a59.73,59.73,0,0,1-42.5,51.83l-24.59,7.31,11.14-254.46-.56-155.09C776.78,1034.57,790.74,1016.54,807.54,1009.75Z" fill="#f8f9fa"/><path d="M886.39,990.86s42.91,54.5,42.91,134.06c0,54.7-3.26,151.36-5.4,221.93a132.78,132.78,0,0,0,34.59,93.46h0V1144.93s5.36-147.19-46.34-162.63C845.8,962.49,886.39,990.86,886.39,990.86Z" fill="#f8f9fa"/><path d="M840.63,998c-6.56,4.17-11.27,8.81-10.87,17.23.31,6.49,3,12.48,3,19.1,0,13-5.26,25.15-7.45,37.79a3,3,0,0,1-5.83-.91c2.91-16.76,9.63-31.52,5.68-48.77-3.07-13.39,1.76-22.69,13.2-30,3.19-2,3.9-.7,3.72-.26Z" fill="#262f69"/><rect x="818.68" y="1067.99" width="9.48" height="7.93" rx="3.05" transform="translate(-137.8 121.61) rotate(-7.8)" fill="#262f69"/><path d="M831.55,1021.49c5.55,15.53,23,27,19.35,45.63-.73,3.7-6.57,2.81-5.83-.92,3.32-16.81-13.92-28.35-19-42.52-1.27-3.57,4.2-5.76,5.48-2.19Z" fill="#d6d6d6"/><path d="M828.72,1078.94l13.09,43.52c3.16,9.31,5.68,14.41,17.47,11.14.37,1.66.72,3.32,1,5l-1.82.55a16.28,16.28,0,0,1-20.28-10.79l-15.69-52.16C819.9,1067.61,826.19,1070.53,828.72,1078.94Z"/><path d="M858.48,1133.1l6.39-1.16a3.24,3.24,0,0,1,3.77,2.6l.18,1a3.23,3.23,0,0,1-2.61,3.76l-6.39,1.16a3.24,3.24,0,0,1-3.77-2.6l-.18-1A3.23,3.23,0,0,1,858.48,1133.1Z" fill="#939393"/><path d="M843.75,1075.29l-6.55,45c-1.78,9.68-3.51,15.08-15.66,13.58-.12,1.69-.22,3.38-.24,5.08l1.88.26a16.27,16.27,0,0,0,18.47-13.65l7.85-53.88C850.8,1062.8,845,1066.61,843.75,1075.29Z"/><rect x="815.16" y="1130.36" width="7.48" height="12.98" rx="3.23" transform="translate(-344.11 1918.16) rotate(-88.13)" fill="#939393"/><path d="M845.55,1064.67l3.37.22a3.06,3.06,0,0,1,2.84,3.25l-.13,1.83a3,3,0,0,1-3.25,2.83l-3.36-.22a3,3,0,0,1-2.84-3.25l.12-1.83A3,3,0,0,1,845.55,1064.67Z" fill="#939393"/><path d="M923.41,1081.67C916,1060.21,910.2,1038,901.46,1017c-5.74-13.77-14-29.87-31.22-29.22-3.43.13-4.27-5.19-.79-5.33,15.87-.61,25.7,9.61,32.6,22.89,12,23.1,17.87,49.6,26.3,74.1,1.12,3.26-3.81,5.46-4.94,2.18Z" fill="#d6d6d6"/><path d="M936.56,1081.67a14.44,14.44,0,1,1-20.1-3.65h0A14.46,14.46,0,0,1,936.56,1081.67Z" fill="#d6d6d6"/><path d="M935.17,1080.7a11.12,11.12,0,1,1-15.48-2.81A11.09,11.09,0,0,1,935.17,1080.7Z"/><path d="M937.15,1075.52a11.12,11.12,0,1,1-15.49-2.81,11.09,11.09,0,0,1,15.49,2.81Z" fill="#d6d6d6"/><path d="M943.35,1240.58l-66.89,14.33c-13.08,2.8-20.35-4.1-16.16-15.33L898.18,1138c4.19-11.23,18.31-22.71,31.4-25.52l66.89-14.32c13.07-2.8,20.34,4.09,16.16,15.33l-37.88,101.57C970.55,1226.29,956.42,1237.78,943.35,1240.58Z" fill="#0b1547"/><path d="M805.85,1100.78l-20.46,72h46" fill="none" stroke="#ddd" stroke-linecap="round" stroke-linejoin="round" stroke-width="2.06"/><path d="M899.36,1194.13h0a12.25,12.25,0,0,1-12.16,11.19l-21.31-.52a10.56,10.56,0,0,1-10.19-10.89c0-.29,0-.58.07-.86h0a12.29,12.29,0,0,1,12.16-11.21l21.32.55a10.54,10.54,0,0,1,10.18,10.88A8.31,8.31,0,0,1,899.36,1194.13Z" fill="#af6a39"/><path d="M781.22,1033.17s-67,141.9-47.72,183.65,132.24-6.4,132.24-6.4v-33.88H786l16-101.75Z" fill="#f8f9fa"/><path d="M857.72,1006.89l2.24.16a13.85,13.85,0,0,0,14.78-12.75l3.11-42.65a13.84,13.84,0,0,0-12.78-14.74l-2.24-.16a13.85,13.85,0,0,0-14.78,12.75L839,990C838.47,997.59,850.14,1006.34,857.72,1006.89Z" fill="#af6a39"/><g clip-path="url(#b)"><path d="M847.94,876.36a25.81,25.81,0,0,0-11.69,11.85C826.08,908,816.78,924.52,814.88,932c-7.55,29.41-1.65,43.56-3.92,51.32-11.53,39.51-9,69.71-7.39,76.93,2.88,13.26-9.13,24.26-14.12,41s-17.24,43.75-13.28,59.12,13.62,19.88,13.62,19.88.42-16.9,11.4-26.81a16,16,0,0,1,10-5l1.15,0c.36,0,.77,0,1.14,0,2.11-.16,3.93-.84,6.52-5.18,6-10.09,14.92-44.34,17.29-64.12a327.48,327.48,0,0,1,10-48.7c1.85-5.32,16.74-19.48,13.8-43.38-1.82-14.7,12.09-24.43,23.06-28a104.27,104.27,0,0,0-5.79-13.8c-4.85-9.63-10.14-18.89-14.85-28.64a118.12,118.12,0,0,0-7.76-16,9.5,9.5,0,0,1-6.46-6.13c-4.86-4.46-4.47-12.11-1.38-18" fill="#2c2d30"/></g><path d="M863.53,960.56c10.42,16.88,25.53,18.23,33.78,3s6.47-41.22-3.95-58.09-25.52-18.23-33.76-3S853.12,943.68,863.53,960.56Z" fill="#af6a39"/><path d="M842.52,960.14c10.42,16.87,44.14,22.37,52.38,7.16s-5.69-45.56-16.1-62.43-25.52-18.23-33.76-3S832.11,943.26,842.52,960.14Z" fill="#af6a39"/><path d="M835.73,960.06a8.74,8.74,0,1,0,2.86-12h0A8.71,8.71,0,0,0,835.73,960.06Z" fill="#af6a39"/><path d="M885.36,966.31h0c3.81-1.49,6.91-7.59,6.91-13.64l-13.83,5.4C878.44,964.11,881.54,967.8,885.36,966.31Z" fill="#fff"/><g clip-path="url(#c)"><path d="M841.36,889.85l-12.27,68.82s15-24.17,24.8-38.66,36.26-33.28,36.26-33.28l-48.79,3.12" fill="#2c2d30"/></g><g clip-path="url(#d)"><path d="M867.43,883.52l-5,9.83s29.26,29.85,41.34,30a4.87,4.87,0,0,0,.55,0c11-.8-5.63-29.64-5.63-29.64l-31.24-10.15" fill="#2c2d30"/></g><rect x="466.97" y="1165.82" width="150.11" height="247.76" fill="#ddd"/><path d="M476.82,975.66S516.52,940,559,945.08s3.81,70.44,3.81,70.44Z" fill="#f8f9fa"/><path d="M670.46,1102.29c-4.34-37.37-58.55-136-58.55-136l-64.5,11.05s62.66,147.94,46.73,169.81" fill="#f8f9fa"/><path d="M410.65,1647.11c29.44-15.9,78.7-17.07,111.76-3,3-6.76,9.42-13.21,19.45-18.63,30.32-16.37,81.66-17.12,114.68-1.68s35.2,41.23,4.89,57.6c-29.44,15.9-78.7,17.07-111.76,3-3,6.76-9.42,13.21-19.45,18.62-30.32,16.37-81.66,17.13-114.68,1.68S380.34,1663.48,410.65,1647.11Z" fill="#e6ecf5" opacity="0.25"/><path d="M639.63,1628.12l-44.8-30.72c-6.73-2.18-14.79-2.61-24,.09-4.14,1.22-4.91-1.89-4.56,2L562.38,1616c-3.77,11,5,17.68,17.57,21.49l42.83,12.25c8.87,2.87,21.38,1.25,27.79-3.6l1.82-1.37C658.8,1639.89,649.12,1633.26,639.63,1628.12Z" fill="#0b1547"/><path d="M566.47,1602.5c.73,12.78,31.81,11,31.09-1.77l-2.37-41.54L564.11,1561Z" fill="#6d4f3b"/><path d="M561.45,1586.7c13.07,9.72,26.09,9.31,39-1,0,0,21.84-256.88,14.57-388.82l-98-30.59c12.29,80.9,39,213.73,39,213.73C527.63,1446.57,553.25,1529,561.45,1586.7Z" fill="#03050f"/><path d="M517.08,1166.25l27.48,8.58c7.53,47.93,19.25,110.58,27.61,154,5.45,28.28,5,57.23,0,85.59-10.32,58.95,8.61,124.19,15.44,172.3a41.43,41.43,0,0,0,5.8,3.62c-10.61,5.49-21.26,4.33-31.95-3.62-7.29-51.32-28.34-122.13-13-184a130.35,130.35,0,0,0,.93-56.36C540.7,1301.61,525.51,1221.72,517.08,1166.25Z" fill="#191919"/><path d="M455.77,1634.51c-1.31,12.74,29.66,15.94,31,3.21l4.28-41.39-31-3.2Z" fill="#6d4f3b"/><path d="M453.44,1619c13.33,10.88,26.28,12.78,38.8,4.43,0,0,11.12-85.32,28.59-176.19,13.52-70.33,33.55-141,38.15-197l-91-53.06c.8,49.75-2.9,159.28-4.62,206.27a78.8,78.8,0,0,1-8,31.57C434.44,1478.08,453.44,1619,453.44,1619Z" fill="#03050f"/><path d="M622.85,1203c-3.12-45.29-3.65-110.83-.8-167.72-5.4-78.13-36.91-105-84.89-83.65l-20,6.81c-57.2,36.1-87.48,36.58-72.51,98.72l14.08,149C463.66,1277.1,632.39,1286.14,622.85,1203Z" fill="#263ec5"/><path d="M444.68,1057.15l14.08,149c2.85,41.38,61.43,61.7,107.87,55C511.65,1233.56,473.7,1158,444.68,1057.15Z" fill="#152f9e"/><path d="M549.73,956.55a40.39,40.39,0,0,1-33.58-15s14.83,27,32.65,27.75Z" fill="#ba4141"/><path d="M486.89,1636l-2.21,26.34c-.26,3.11-3.29,19.51-4.61,22.33-3.83,8.17-10.13,11.46-16.21,11.87-8.07.55-24.28-13.71-18.5-31.41,5-15.42,10.5-31.68,10.5-31.68C467.23,1638.63,477.8,1640.44,486.89,1636Z" fill="#0b1547"/><path d="M476.82,975.66s31.05-3.4,42.76,109.2c4.68,45-10.77,227.28-18.39,311.57a63.86,63.86,0,0,1-45.36,55.44l-26.25,7.82,11.89-272.21-.59-165.92C444,1002.23,458.89,982.94,476.82,975.66Z" fill="#f8f9fa"/><path d="M561,955.46s45.81,58.31,45.81,143.42c0,58.51-3.49,161.92-5.77,237.41a142.19,142.19,0,0,0,36.92,100h0v-316s5.72-157.46-49.46-174C517.66,925.12,561,955.46,561,955.46Z" fill="#f8f9fa"/><path d="M547.23,953.15s-4.71,9.07-8,11.1-52.85-15.13-51.51-54.9c.85-25.19,48.67-23,48.67-23Z" fill="#2c2d30"/><path d="M530,991l2.39.17a14.78,14.78,0,0,0,15.78-13.63l3.32-45.62a14.79,14.79,0,0,0-13.64-15.78l-2.39-.17a14.79,14.79,0,0,0-15.78,13.64L510.08,973C509.49,981.06,521.94,990.41,530,991Z" fill="#6d4f3b"/><polygon points="612.66 1007.42 641.49 1117.87 630.88 1122 612.66 1007.42" fill="#ddd"/><path d="M512.14,963.11c-7,4.46-12,9.43-11.61,18.43.34,7,3.18,13.37,3.16,20.44,0,13.89-5.61,26.91-7.95,40.43-.68,4-6.91,3-6.22-1,3.11-17.93,10.28-33.72,6.06-52.17-3.27-14.32,1.88-24.27,14.09-32,3.4-2.17,4.16-.75,4-.29Z" fill="#d6d6d6"/><path d="M502.44,988.24c5.93,16.6,24.58,28.91,20.66,48.81-.78,4-7,3-6.22-1,3.54-18-14.87-30.33-20.28-45.49-1.36-3.81,4.48-6.16,5.84-2.34Z" fill="#d6d6d6"/><path d="M499.42,1049.69l14,46.56c3.39,10,6.07,15.41,18.65,11.92.4,1.77.77,3.54,1.06,5.33l-1.94.58a17.38,17.38,0,0,1-21.66-11.55l-16.74-55.79C490,1037.58,496.72,1040.7,499.42,1049.69Z"/><path d="M531.89,1106.94h6.85a3.51,3.51,0,0,1,3.51,3.51v1a3.5,3.5,0,0,1-3.5,3.5h-6.85a3.5,3.5,0,0,1-3.5-3.5v-1a3.5,3.5,0,0,1,3.5-3.5Z" transform="translate(-190.19 113.75) rotate(-10.31)" fill="#939393"/><path d="M515.46,1045.79l-7,48.11c-1.89,10.35-3.74,16.13-16.7,14.53-.13,1.8-.24,3.61-.26,5.42l2,.29a17.37,17.37,0,0,0,19.73-14.59l8.37-57.65C523,1032.43,516.81,1036.5,515.46,1045.79Z"/><path d="M485.52,1107.65h6.85a3.5,3.5,0,0,1,3.5,3.5v1a3.5,3.5,0,0,1-3.5,3.5h-6.85a3.51,3.51,0,0,1-3.51-3.51v-1A3.51,3.51,0,0,1,485.52,1107.65Z" transform="translate(941.2 2238.72) rotate(-178.12)" fill="#939393"/><rect x="488.71" y="1037.99" width="10.12" height="8.48" rx="3.3" transform="translate(-137.18 76.86) rotate(-7.82)" fill="#939393"/><rect x="513.84" y="1034.53" width="10.12" height="8.48" rx="3.3" transform="translate(71.2 -32.61) rotate(3.86)" fill="#939393"/><path d="M591.63,1041.42c-7.88-23-14.1-46.7-23.42-69.14-6.12-14.73-15-32-33.32-31.25-3.67.14-4.56-5.55-.85-5.7,16.93-.65,27.42,10.29,34.79,24.49,12.82,24.71,19.07,53.06,28.07,79.27,1.19,3.49-4.07,5.84-5.27,2.33Z" fill="#d6d6d6"/><path d="M605.67,1041.42a15.42,15.42,0,1,1-21.46-3.91A15.43,15.43,0,0,1,605.67,1041.42Z" fill="#d6d6d6"/><path d="M604.19,1040.38a11.88,11.88,0,1,1-16.53-3A11.88,11.88,0,0,1,604.19,1040.38Z"/><path d="M606.3,1034.84a11.88,11.88,0,1,1-16.53-3A11.88,11.88,0,0,1,606.3,1034.84Z" fill="#d6d6d6"/><path d="M621.77,1222.61l-71.39,15.33c-14,3-21.72-4.38-17.25-16.4l40.43-108.66c4.47-12,19.55-24.3,33.5-27.3l71.39-15.33c14-3,21.72,4.39,17.25,16.4l-40.43,108.66C650.8,1207.33,635.72,1219.61,621.77,1222.61Z" fill="#0b1547"/><path d="M578.51,1172.91h0c-.6,6.76-6.44,12.15-13,12l-22.74-.57a11.26,11.26,0,0,1-10.8-12.57h0c.59-6.76,6.43-12.15,13-12l22.74.57A11.27,11.27,0,0,1,578.51,1172.91Z" fill="#6d4f3b"/><path d="M536.23,941.44c11.12,18,27.25,19.5,36,3.23s6.9-44.08-4.21-62.13-27.25-19.5-36-3.23S525.12,923.39,536.23,941.44Z" fill="#6d4f3b"/><path d="M513.81,941c11.12,18,47.11,23.93,55.9,7.66s-6.07-48.74-17.19-66.79-27.24-19.5-36-3.23S502.7,922.94,513.81,941Z" fill="#6d4f3b"/><path d="M527.75,889.71s11.33,37.64-17.57,51.77c0,0-37.94-13.63-19.41-55.19C507.11,849.65,547.23,868,547.23,868Z" fill="#2c2d30"/><path d="M576.83,907.59s-7.05-15.74-28.35-19.08l14.1-12.3S579.4,877,576.83,907.59Z" fill="#2c2d30"/><path d="M515.9,915.17c5.06-10.2,19.35-12.68,41-9a18.12,18.12,0,0,0,9.82-.77c14.53-5.84,13.43-25,13.43-25,1-13.11-8.32-17.27-21.42-18.26l-34.14-2.6c-19.33-1.57-34.46,16.82-35.46,29.92l-.48,2.22C487.63,904.78,502.79,914.17,515.9,915.17Z" fill="#2c2d30"/><path d="M506.55,940.91a9.33,9.33,0,1,0,3.06-12.84A9.32,9.32,0,0,0,506.55,940.91Z" fill="#6d4f3b"/><path d="M559.52,947.6h0c4.08-1.6,7.38-8.13,7.38-14.6l-14.75,5.78C552.15,945.24,555.45,949.19,559.52,947.6Z" fill="#fff"/><path d="M448.73,1000.73s-71.53,151.8-50.93,196.47,141.14-6.86,141.14-6.86V1154.1h-85.1L471,1045.26Z" fill="#f8f9fa"/><polyline points="475.02 1073.06 453.18 1150.12 502.26 1150.12" fill="none" stroke="#ddd" stroke-linecap="round" stroke-linejoin="round" stroke-width="2.06"/><g clip-path="url(#e)"><path d="M704.72,1127.68h0a12.29,12.29,0,0,1-4,16.87l-19.92,12.34a12.28,12.28,0,0,1-16.86-4h0a12.28,12.28,0,0,1,4-16.87l19.92-12.34A12.29,12.29,0,0,1,704.72,1127.68Z" fill="#6d4f3b"/></g><path d="M1526.72,1065.21c7,4.46,12,9.42,11.61,18.43-.34,6.95-3.18,13.36-3.16,20.44,0,13.89,5.6,26.9,7.94,40.43.69,4,6.92,3,6.22-1-3.1-17.93-10.27-33.72-6-52.18,3.27-14.32-1.88-24.27-14.09-32-3.4-2.17-4.16-.75-4-.29Z" fill="#d6d6d6"/><path d="M1536.42,1090.33c-5.93,16.6-24.58,28.91-20.66,48.81.78,4,7,3,6.22-1-3.54-18,14.87-30.32,20.28-45.49,1.36-3.81-4.48-6.16-5.84-2.34Z" fill="#d6d6d6"/><path d="M1539.44,1151.78l-14,46.56c-3.39,10-6.07,15.41-18.65,11.92-.4,1.77-.77,3.54-1.06,5.33l1.94.58a17.37,17.37,0,0,0,21.65-11.54l16.75-55.79C1548.85,1139.67,1542.14,1142.79,1539.44,1151.78Z"/><path d="M1500.12,1209H1507a3.51,3.51,0,0,1,3.51,3.51v1a3.5,3.5,0,0,1-3.5,3.5h-6.85a3.5,3.5,0,0,1-3.5-3.5v-1a3.5,3.5,0,0,1,3.5-3.5Z" transform="translate(2765.7 2675.59) rotate(-169.69)" fill="#939393"/><path d="M1523.4,1147.89l7,48.1c1.89,10.35,3.74,16.14,16.7,14.53.13,1.81.24,3.61.26,5.42l-2,.3a17.38,17.38,0,0,1-19.73-14.6l-8.38-57.64C1515.87,1134.52,1522.05,1138.6,1523.4,1147.89Z"/><path d="M1546.5,1209.74h6.85a3.5,3.5,0,0,1,3.5,3.5v1a3.5,3.5,0,0,1-3.5,3.5h-6.85a3.51,3.51,0,0,1-3.51-3.51v-1a3.51,3.51,0,0,1,3.51-3.51Z" transform="translate(-38.93 51.43) rotate(-1.88)" fill="#939393"/><rect x="1540.03" y="1140.08" width="10.12" height="8.48" rx="3.3" transform="translate(2920.16 2488.18) rotate(-172.18)" fill="#939393"/><rect x="1514.9" y="1136.63" width="10.12" height="8.48" rx="3.3" transform="translate(3113.36 2176.69) rotate(176.14)" fill="#939393"/><path d="M1428.4,1170.62c7.88-23,14.1-46.7,23.42-69.14,6.12-14.73,15-32,33.32-31.25,3.67.14,4.56-5.56.85-5.7-16.94-.65-27.43,10.28-34.79,24.49-12.82,24.71-19.08,53-28.07,79.27-1.2,3.48,4.07,5.84,5.27,2.33Z" fill="#d6d6d6"/><path d="M1414.36,1170.61a15.42,15.42,0,1,0,21.46-3.9A15.42,15.42,0,0,0,1414.36,1170.61Z" fill="#d6d6d6"/><path d="M1415.84,1169.57a11.88,11.88,0,1,0,16.53-3A11.88,11.88,0,0,0,1415.84,1169.57Z"/><path d="M1413.73,1164a11.88,11.88,0,1,0,16.53-3A11.88,11.88,0,0,0,1413.73,1164Z" fill="#d6d6d6"/><path d="M1470.23,1019.59s6,34.33,11.07,62.77a21.29,21.29,0,0,0,35,12.32l5.49-4.81a27.25,27.25,0,0,0,8.24-28c-7.44-26-21-73.34-21-73.34l-38.83,31.05Z" fill="#84462a" fill-rule="evenodd"/><path d="M1469.11,961.66s-28.7,8.32-11.18,36.46,11.18-36.46,11.18-36.46Z" fill="#3d2213" fill-rule="evenodd"/><path d="M1461.05,982.44a33,33,0,0,1,40.36-26.09h0a33.2,33.2,0,0,1,24.75,38.29c-1.83,10-3.85,20.86-5.59,30.3a23.6,23.6,0,0,1-28.83,18.63c-5.84-1.43-9.93,8.82-15.82,8.28-23.66-2.15-22.51-28-20.16-40.76l5.29-28.65Z" fill="#84462a" fill-rule="evenodd"/><path d="M1508.25,985.24s-8.46,29.3,14.9,33.34c0,0,15.79-25.24,19.14-38.87,6.22-25.35-44.53-37.83-67-29.87s-12.45,29.54,32.91,35.4Z" fill="#3d2213" fill-rule="evenodd"/><path d="M1524.43,1006c-4.1-1.7-9.19,1.18-11.35,6.42s-.59,10.86,3.52,12.56,9.19-1.19,11.35-6.42.59-10.87-3.52-12.56Z" fill="#84462a" fill-rule="evenodd"/><path d="M1462.54,1021.41l15.66,4.23s-3.19,10.62-10.49,7.69S1462.54,1021.41,1462.54,1021.41Z" fill="#fff" fill-rule="evenodd"/><path d="M1475.92,1051.85l3.7,21s17.82-19.72,20.38-25.28C1500,1047.59,1484.44,1056.34,1475.92,1051.85Z" fill="#3d2213" fill-rule="evenodd"/></svg>