<?xml version="1.0" encoding="UTF-8"?><svg xmlns="http://www.w3.org/2000/svg" width="2000" height="2000" viewBox="0 0 2000 2000"><g id="a"/><g id="b"/><g id="c"><g><path id="d" d="M139.78,1238.05c30.22-88.08,39.69-178.71,22.24-266.55-37.6-189.29,69.8-393.28,298.39-518.96,255.49-140.47,584.49-140.31,815.15-16.59,105.27,56.47,99.62,82.78,228.1,103.89,101.33,16.65,273.4,96.69,349.88,199.27,142.5,191.12,109.64,423.82-139.45,560.78-175.71,96.61-332.47,94.42-505.93,30.36-14.98,117.87-97.69,233.08-239.02,310.2-248.25,135.46-586.75,101.31-753.86-76.02-90.96-96.53-113.47-215.67-75.49-326.38Z" fill="#e6ecf5" opacity=".25"/><path id="e" d="M80.36,1293.92c30.99-88.13,40.8-178.78,23.08-266.61-38.16-189.25,71.85-393.41,305.58-519.41,261.23-140.83,597.39-141.12,832.89-17.7,107.48,56.33,101.67,82.65,232.92,103.59,103.51,16.51,279.21,96.33,357.21,198.82,145.33,190.95,111.45,423.71-143.24,561.02-179.67,96.86-339.82,94.88-516.96,31.05-15.47,117.9-100.13,233.23-244.64,310.56-253.83,135.81-599.64,102.11-770.14-75-92.81-96.42-115.64-215.54-76.69-326.3Z" fill="none" opacity=".5" stroke="#e6ecf5" stroke-miterlimit="10" stroke-width="9"/><circle id="f" cx="431.69" cy="478.92" r="82.07" fill="none" stroke="#fff" stroke-miterlimit="10" stroke-width="6"/><ellipse id="g" cx="643.65" cy="280.36" rx="59.31" ry="58.71" transform="translate(-32.09 470.78) rotate(-39.27)" fill="none" stroke="#fff" stroke-miterlimit="10" stroke-width="6"/><ellipse id="h" cx="678.26" cy="472.57" rx="37.66" ry="37.57" transform="translate(-145.95 536.1) rotate(-39.27)" fill="none" stroke="#fff" stroke-miterlimit="10" stroke-width="6"/><ellipse id="i" cx="1566.61" cy="615.27" rx="37.57" ry="37.66" transform="translate(49.38 1343.85) rotate(-47.09)" fill="none" stroke="#fff" stroke-miterlimit="10" stroke-width="6"/><ellipse id="j" cx="1464.11" cy="495.37" rx="57.48" ry="57.61" transform="translate(-53.78 203.77) rotate(-7.82)" fill="none" stroke="#fff" stroke-miterlimit="10" stroke-width="6"/><path d="M606.58,1477.31c0,9.16,91.83,16.59,205.12,16.59,113.28,0,205.12-7.43,205.12-16.59s-91.83-16.59-205.12-16.59c-113.28,0-205.12,7.43-205.12,16.59Z" fill="#e6ecf5" opacity=".25"/><g><path d="M978.89,1473.67h0c2.76-1.08,4.1-4.14,2.98-6.82l-97.97-235.46c-1.12-2.68-4.26-3.98-7.03-2.9h0c-2.76,1.08-4.1,4.14-2.98,6.82l97.98,235.46c1.12,2.68,4.26,3.98,7.03,2.9Z" fill="#11121c" fill-rule="evenodd"/><path d="M772.99,1473.67h0c-2.76-1.08-4.1-4.14-2.98-6.82l97.97-235.46c1.12-2.68,4.26-3.98,7.03-2.9h0c2.76,1.08,4.1,4.14,2.98,6.82l-97.97,235.46c-1.12,2.68-4.26,3.98-7.03,2.9Z" fill="#11121c" fill-rule="evenodd"/><path d="M647.03,1473.66h0c-2.76-1.12-4.1-4.26-2.98-7.03l97.97-242.57c1.12-2.76,4.26-4.1,7.03-2.98h0c2.76,1.12,4.1,4.26,2.98,7.03l-97.97,242.56c-1.12,2.76-4.26,4.1-7.03,2.98Z" fill="#11121c" fill-rule="evenodd"/><path d="M848.59,1473.66h0c2.76-1.12,4.1-4.26,2.98-7.03l-97.98-242.57c-1.12-2.76-4.26-4.1-7.03-2.98h0c-2.76,1.12-4.1,4.26-2.98,7.03l97.97,242.57c1.12,2.76,4.26,4.1,7.03,2.98Z" fill="#11121c" fill-rule="evenodd"/></g><rect x="660.51" y="1226.14" width="250.93" height="47.81" rx="23.26" ry="23.26" fill="#20212e"/><path d="M335.17,1524.83c0,14.58,91.83,26.39,205.12,26.39,113.28,0,205.12-11.82,205.12-26.39s-91.83-26.39-205.12-26.39c-113.28,0-205.12,11.82-205.12,26.39Z" fill="#e6ecf5" opacity=".25"/><g><path d="M707.48,1517.31h0c2.76-1.13,4.1-4.3,2.98-7.1l-97.97-244.96c-1.12-2.79-4.26-4.14-7.03-3.01h0c-2.76,1.13-4.1,4.3-2.98,7.1l97.98,244.96c1.12,2.79,4.26,4.14,7.03,3.01Z" fill="#11121c" fill-rule="evenodd"/><path d="M501.59,1517.31h0c-2.76-1.13-4.1-4.3-2.98-7.1l97.97-244.96c1.12-2.79,4.26-4.14,7.03-3.01h0c2.76,1.13,4.1,4.3,2.98,7.1l-97.97,244.96c-1.12,2.79-4.26,4.14-7.03,3.01Z" fill="#11121c" fill-rule="evenodd"/><path d="M375.62,1517.3h0c-2.76-1.16-4.1-4.43-2.98-7.31l97.97-252.35c1.12-2.88,4.26-4.26,7.03-3.1h0c2.76,1.16,4.1,4.43,2.98,7.31l-97.97,252.35c-1.12,2.88-4.26,4.26-7.03,3.1Z" fill="#11121c" fill-rule="evenodd"/><path d="M577.18,1517.3h0c2.76-1.16,4.1-4.43,2.98-7.31l-97.98-252.35c-1.12-2.88-4.26-4.26-7.03-3.1h0c-2.76,1.16-4.1,4.43-2.98,7.31l97.97,252.35c1.12,2.88,4.26,4.26,7.03,3.1Z" fill="#11121c" fill-rule="evenodd"/></g><rect x="389.1" y="1259.58" width="250.93" height="47.81" rx="23.26" ry="23.26" fill="#20212e"/><path d="M864.09,1001.88l35.54,63.68,34.65-12.44,19.25,18.66-59.86,33.38c-8.86,1.32-17.7-2.52-22.78-9.9l-41.46-60.21,36.13-18.36-1.48-14.81Z" fill="#442518" fill-rule="evenodd"/><path d="M891.54,1452.97c1.33-6.26,38.75-182.99,38.76-197.26,0-16.12-32.83-44.13-44.77-50.83l-44.98-20.84-89.09,31.78,120.44,55.66c-21.26,47.24,5.61,118.12-1.61,181.69l21.24-.21Z" fill="#442518" fill-rule="evenodd"/><path d="M831.35,1445.37c2.09-5.16,30.03-134.43,28.99-185.27-.29-14.05-7.48-26.89-20.05-35.79l-100.24-71.01-18.39,72.51,86.56,52.56c-14.23,47.38-4.83,107.82,3.76,169.94l19.37-2.94Z" fill="#442518" fill-rule="evenodd"/><path d="M890.4,1451.1l18.63,13.42c3.62,3.17,8,5.06,12.47,5.39l4.55,.34c2.03,.15,3.86,1.69,4.53,3.82h0c.93,2.92-.62,5.85-3.33,6.3l-50.11-2.15s-11.97-2.85-5.83-26.94l19.09-.16Z" fill="#160a04" fill-rule="evenodd"/><path d="M829.11,1444.9s5.06,16.46,5.72,26.85c.11,1.77-.67,3.73-2.1,5.26-1.43,1.52-3.34,2.43-5.11,2.42-3.81,0-8.17-.02-10.86-.03-1.68,0-3.16-.59-4.21-1.67-.63-.65-1.39-1.43-2.19-2.25-3.65-3.76-2.49-8.15-1-14.33,1.53-6.38,2.39-13.61,2.39-13.61,8.92-7.72,17.37-2.64,17.37-2.64Z" fill="#160a04" fill-rule="evenodd"/><path d="M821.45,1148.45s85.42,43.89,97.4,60.21c24.97,34.03,13.01,100.88,16.11,104.86,0,0-24.56,24.46-67,19.96-63.09-6.69-88.35,.55-88.35,.55,0,0-8.12-50.6-28.89-63.42-20.77-12.83-56.64-28.97-55.07-60.25,1.56-31.28,7.21-61.9,7.21-61.9h118.6Z" fill="#ccc" fill-rule="evenodd"/><path d="M813.95,856.58s38.68,23.59,16.86,66.03c-21.82,42.45-29.37,9.69-29.37,9.69,0,0-10.06-60.2,12.5-75.73Z" fill="#7f533d" fill-rule="evenodd"/><path d="M753.44,862.82s-71.43,89.32-20.72,174.14c41.32,69.11,117.92-44.57,116.19-63.5-1.73-18.93,19.41-29.32-9-62.39-28.41-33.07-86.48-48.26-86.48-48.26Z" fill="#7f533d" fill-rule="evenodd"/><path d="M702.9,1039.16c3.6-35.08-3.71-58.81,17.71-76.08,15.4-6.5,52.35-15.05,52.35-15.05l10.63-.85s1.58-.27,3.99-.68c12.82-2.18,29.17,2.89,47.49,16,26.18,16.21,1.09,22.87,18.21,57.22,14.46,29.01-11.4,56.04-11.4,56.04l11.1,10.96c7.21,7.12,12.65,15.87,15.51,25.59,.05,.16,.1,.33,.14,.49,3.86,13.46,2.66,27.87-2.95,40.71l-7.51,17.19s-165.77,24.53-155.27-24.84v-106.7Z" fill="#ccc" fill-rule="evenodd"/><path d="M810.75,906.82s-4.81,27.38-8.79,50.07c-1.06,6.04-5.3,11.04-11.08,13.08-5.79,2.04-12.22,.8-16.84-3.24-1.51-1.32-2.98-2.61-4.38-3.83-6.33-5.54-8.9-14.23-6.59-22.32,5.92-20.73,16.69-58.5,16.69-58.5l30.99,24.74h0Z" fill="#442518" fill-rule="evenodd"/><path d="M763.14,882.3c-1.32-8.04,4.12-15.63,12.16-16.95,8.58-1.41,19.4-3.2,27.98-4.61,8.04-1.32,14.4,4.42,16.95,12.16,3.01,9.13,4.77,28.82,4.3,43.26-.26,8.14-5.3,16.44-13.34,17.76-8.58,1.41-35.64-2.52-40.65-17.46-3.81-11.37-5.45-22.33-7.4-34.16h0Z" fill="#442518" fill-rule="evenodd"/><path d="M745.74,905.77s-4.49-31.15,7.7-42.94c16.39-15.84,38.5-24.58,62.76-4.51,0,0,4,48.26-70.46,47.45h0Z" fill="#7f533d" fill-rule="evenodd"/><path d="M759.47,915.71c3.28,5.84,9.85,8.37,14.68,5.65,4.83-2.71,6.09-9.64,2.81-15.48-3.28-5.84-9.85-8.37-14.68-5.65-4.83,2.71-6.09,9.64-2.81,15.48Z" fill="#442518" fill-rule="evenodd"/><polygon points="805.87 933.81 803.57 946.93 788.89 928.91 805.87 933.81" fill="#2b160b" fill-rule="evenodd"/><path d="M702.9,1039.16l11.53,69.06c5.04,19.29,4.01,22.37,22.25,36.5l58.22,36.84,10.65-15.33-51.32-54.96-16.72-79.16s-15.49,12.74-34.6,7.06Z" fill="#442518" fill-rule="evenodd"/><path d="M720.61,963.08s-32.51,20.65-21.87,101.58c0,0,60.97-12.47,62.33-12.46,1.36,0-5.25-72.42-5.25-72.42l-35.2-16.7Z" fill="#ccc" fill-rule="evenodd"/><path d="M844.2,969.84l30.73,47.4c4.5,6.94,.8,16.25-7.23,18.21l-28.34,6.92,4.84-72.53Z" fill="#ccc" fill-rule="evenodd"/><polyline points="742.78 1043.35 740.97 1004.34 738.54 1000.17" fill="none" fill-rule="evenodd" stroke="#e2e2e2" stroke-miterlimit="10" stroke-width="3"/><line x1="855.5" y1="1025.05" x2="833.37" y2="987.86" fill="none" stroke="#e2e2e2" stroke-miterlimit="10" stroke-width="3"/><path d="M823.41,1228.71l69.73-10.73c7.58-1.17,9.33-6.56,3.88-11.99l-18.03-17.97c-5.45-5.43-16.1-8.91-23.69-7.75l-69.73,10.73c-7.58,1.17-9.33,6.56-3.88,11.99l18.03,17.97c5.45,5.43,16.1,8.92,23.69,7.75Z" fill-rule="evenodd"/><path d="M964.61,1067.06s6.06-1.48,10.72-11.74c6.05-13.34,7.11-10.91-2.62-18.97-2.73-2.26-12.85-1.23-12.85-1.23l-16.14,12.26s-23.07,7.75-14.78,21.18c5.85,9.47,35.66-1.5,35.66-1.5Z" fill="#442518" fill-rule="evenodd"/><path d="M858.45,1168.79s-14.07,11.44-27.95,4.99" fill="none" fill-rule="evenodd" stroke="#e2e2e2" stroke-miterlimit="10" stroke-width="3"/><path d="M777.42,1098.72s22.96-49.38,63.59-23.25" fill="none" fill-rule="evenodd" stroke="#e2e2e2" stroke-miterlimit="10" stroke-width="3"/><path d="M823.25,1166.81s6.19,.81,11.93,10.51c7.47,12.61,8.26,10.07-.54,19.14-2.46,2.54-12.64,2.62-12.64,2.62l-17.37-10.43s-23.77-5.2-17-19.44c4.78-10.05,35.62-2.39,35.62-2.39Z" fill="#442518" fill-rule="evenodd"/><polygon points="582.8 1065.77 611.56 1188.2 580.65 1169.84 567.47 1189.94 565.37 1151.62 552.84 1078.06 582.8 1065.77" fill="#3a241b" fill-rule="evenodd"/><path d="M544.82,996.52s22.61,19.68,39.14,67.76l-33.07,50.59-6.07-118.35Z" fill="#e2e2e2" fill-rule="evenodd"/><polygon points="655.38 1507.09 676.82 1502.64 678.26 1469.58 653.7 1474.11 655.38 1507.09" fill="#3a241b" fill-rule="evenodd"/><path d="M566.69,1156.81s21.56,61.95,20.07,74.03c-2.79,22.62-15.14,38.66-15.14,38.66l-105.81-.83c-30.21-.24-53-27.52-47.88-57.29,.03-.15,.05-.29,.07-.43,.49-2.84,.93-5.69,1.31-8.55,1.81-13.4,7.25-53.59,7.25-53.59,32.87,21.31,92.43,30.08,144.62,16l-4.5-7.99Z" fill="#0b1547" fill-rule="evenodd"/><path d="M514.62,981.27c-13.16,19.85-28.59,5.24-33.73-1.78-.81-1.11-22.58,7.11-24.37,8.35-27.68,19.09-31.28,101.06-36.22,130.6-2.3,13.74-15.19,59.96-8.32,71.95,2.28,3.97,23.88,.93,28.13,1.69,18.04,3.21,98.93,9.49,110.03-2.9,11.03-12.3,2.76-35.21,4.89-49.77,11.2-76.51-10.22-142.88-10.22-142.88l-30.2-15.26Z" fill="#e2e2e2" fill-rule="evenodd"/><path d="M676.82,1502.64l20.47,13.77c3.94,3.27,8.84,5.17,13.95,5.41l5.21,.24c2.32,.11,4.32,1.7,4.94,3.94h0c.86,3.08-1.13,6.22-4.27,6.77l-57.47-1.05s-13.56-2.73-4.8-28.44l21.96-.64Z" fill-rule="evenodd"/><polygon points="590.83 1507.09 612.27 1502.64 613.71 1469.58 589.15 1474.11 590.83 1507.09" fill="#3a241b" fill-rule="evenodd"/><path d="M612.27,1502.64l20.47,13.77c3.94,3.27,8.84,5.17,13.95,5.41l5.21,.24c2.32,.11,4.32,1.7,4.94,3.94h0c.86,3.08-1.13,6.22-4.27,6.77l-57.47-1.05s-13.56-2.73-4.8-28.44l21.96-.64Z" fill-rule="evenodd"/><path d="M522.44,944.18s-5.94,33.7-10.86,61.62c-1.31,7.44-6.53,13.59-13.65,16.09-7.12,2.51-15.04,.98-20.72-4-1.86-1.63-3.67-3.22-5.38-4.72-7.79-6.82-10.94-17.53-8.09-27.48,7.3-25.51,20.6-71.99,20.6-71.99l38.11,30.48h0Z" fill="#3a241b" fill-rule="evenodd"/><path d="M531.45,907.72c-1.62-8.78-6.79-16.5-14.29-21.35-7.5-4.85-16.66-6.39-25.33-4.26h0c-16.78,4.11-27.43,20.6-24.29,37.59,1.81,9.77,3.78,20.47,5.49,29.74,1.16,6.27,4.85,11.78,10.2,15.24,5.36,3.46,11.9,4.56,18.09,3.04,5.74-1.41,11.84-2.9,17.49-4.29,12.32-3.02,20.14-15.12,17.84-27.59-1.59-8.61-3.45-18.66-5.2-28.13h0Z" fill="#3a241b" fill-rule="evenodd"/><path d="M485.13,910.47s8.3,28.75-14.63,32.72c0,0-15.5-24.77-18.78-38.15-6.11-24.88,43.71-37.14,65.71-29.32,22,7.81,12.23,29-32.3,34.76h0Z" fill-rule="evenodd"/><path d="M469.23,930.86c4.03-1.66,9.02,1.16,11.14,6.3,2.12,5.14,.58,10.67-3.45,12.33-4.03,1.66-9.02-1.16-11.14-6.31-2.12-5.14-.58-10.67,3.45-12.33h0Z" fill="#3a241b" fill-rule="evenodd"/><path d="M536.7,935.78c1.21-2.72,13.66,38.74-12.69,42.68-26.35,3.94-38.98-5.57-47.5-53.58,0,0,14.77,28.52,30.4,27.9,32.66-1.28,28.35-13.73,29.8-17h0Z" fill-rule="evenodd"/><path d="M490.18,907.19s55.51-12.43,38.91-35.46c-15.36-21.3-47.72,32.81-57.25,25.14l18.33,10.31Z" fill-rule="evenodd"/><path d="M529.99,945.97l-15.38,4.16s3.14,10.42,10.3,7.54c7.16-2.88,5.08-11.7,5.08-11.7Z" fill="#fcf0db" fill-rule="evenodd"/><path d="M682.74,1481.55c-1.48-15.24,21.27-129.96,20.55-181.9-.2-14.36-6.81-26.17-18.42-32.96l-100.9-57.55-85.42,63.71,139.69,59.35c-7.66,39.21-1.77,98.07,11.9,151.91l32.61-2.57Z" fill="#0b1547" fill-rule="evenodd"/><path d="M450.06,1265.94l5.63-23.31,81.14-5.47,59.94,26.77c18.06,8.07,29.51,25.26,29.35,44.06l-.4,47.1-.12-.06-5.27,129.08h-37.35c-16.81-62.74-30.82-116.09-25.57-164.71l-107.36-53.46Z" fill="#0b1547" fill-rule="evenodd"/><path d="M552.71,1092.71c-15.69,41.85-132.61-3.07-119.32-23.17,18.55-28.04-8.14,19.35-13.09,48.9-2.3,13.74-15.19,59.96-8.32,71.95,2.28,3.97,11.5,36.06,15.82,36.22,57.23,2.07,152.2-1.3,156.16-17.46,5.58-22.77-22.81-79.67-24.69-94.27-4.87-37.85-6.57-22.17-6.57-22.17Z" fill="#e2e2e2" fill-rule="evenodd"/><path d="M510.88,1212.6l35.47,18.86s23.29,23.28,7.35,32.01c-15.95,8.73-20.64-4.02-23.48-7.66-2.85-3.64-16.47-2.86-29.68-27.91l10.35-15.31Z" fill="#3a241b" fill-rule="evenodd"/><path d="M375.83,1101.65v69.22c0,16.9,8.81,32.63,23.34,41.25,26.89,15.95,72.68,37.04,113.93,26.64l3.15-23.66-92.59-44.86,1.51-90.21-49.35,21.63Z" fill="#3a241b" fill-rule="evenodd"/><path d="M456.52,987.84s-28.04,4.37-52.29,30.44c-18.13,19.5-33.99,52.78-35.22,96.6,0,20.11,74.63,20.11,74.63,0l12.88-127.04Z" fill="#e2e2e2" fill-rule="evenodd"/><path d="M622.82,1312.15s4.87-38.15-16-49.74c-20.87-11.59-51.84-27.4-51.84-27.4" fill="none" fill-rule="evenodd" stroke="#11121c" stroke-miterlimit="10" stroke-width="3"/><path d="M556.18,1104.48s-5.28-19.37-7.67-40.9" fill="none" fill-rule="evenodd" stroke="#ccc" stroke-miterlimit="10" stroke-width="3"/><polyline points="425.1 1126.29 428.16 1071.24 425.1 1067.09" fill="none" fill-rule="evenodd" stroke="#ccc" stroke-miterlimit="10" stroke-width="3"/><path d="M633.9,1216.77s5.47,3.25,6.25,15.93c1.01,16.49,2.98,14.05-9.72,20.49-3.56,1.8-13.23-2.01-13.23-2.01l-11.44-17.94s-20.02-14.73-6.75-27.54c9.36-9.04,34.89,11.07,34.89,11.07Z" fill="#3a241b" fill-rule="evenodd"/><path d="M586.79,1127.34s31.09,24.24,34.77,91.15l-26.34-1.58-17.39-48.47,8.96-41.1Z" fill="#3a241b" fill-rule="evenodd"/><path d="M1614.84,1494.07c0,15.13-128.01,27.4-285.93,27.4-157.91,0-285.92-12.27-285.92-27.4s128.01-27.4,285.92-27.4c157.91,0,285.93,12.27,285.93,27.4Z" fill="#e6ecf5" opacity=".25"/><path d="M1563.18,1496.7h0c2.84-1.15,4.22-4.38,3.07-7.23l-100.79-249.53c-1.15-2.84-4.38-4.22-7.23-3.07h0c-2.84,1.15-4.22,4.38-3.07,7.23l100.79,249.53c1.15,2.84,4.38,4.22,7.23,3.07Z" fill="#20212e" fill-rule="evenodd"/><path d="M1351.37,1496.7h0c-2.84-1.15-4.22-4.38-3.07-7.23l100.79-249.53c1.15-2.84,4.38-4.22,7.23-3.07h0c2.84,1.15,4.22,4.38,3.07,7.23l-100.79,249.53c-1.15,2.84-4.38,4.22-7.23,3.07Z" fill="#20212e" fill-rule="evenodd"/><path d="M1429.13,1496.7h0c2.84-1.15,4.22-4.38,3.07-7.23l-100.79-249.53c-1.15-2.84-4.38-4.22-7.23-3.07h0c-2.84,1.15-4.22,4.38-3.07,7.23l100.79,249.53c1.15,2.84,4.38,4.22,7.23,3.07Z" fill="#20212e" fill-rule="evenodd"/><rect x="1235.66" y="1242.08" width="258.14" height="49.19" rx="23.93" ry="23.93" fill="#0b1547"/><path d="M1444.56,955.99c30.8,18.17,31.7,110.78,36.95,142.2,2.44,14.61,10.6,63.79,3.29,76.54-2.42,4.22-19.84,.97-24.37,1.77-19.19,3.42-105.21,10.1-117.03-3.08-11.73-13.09-16.62-45.98-18.88-61.46-11.91-81.37,34.08-159.61,34.08-159.61,0,0,52.59-16.05,85.95,3.63Z" fill="#263ec5" fill-rule="evenodd"/><path d="M1330.8,1068.5c19.59,45.19,141.92-3.06,126.34-24.77-21.74-30.3,10.01,20.9,17.27,52.79,3.37,14.83,20.26,64.73,13.68,77.66-2.18,4.28-9.94,38.89-14.56,39.05-61.2,2.12-155.33,5.45-160.64-11.99-7.49-24.58,17.45-66.6,18.5-82.34,2.71-40.83-.59-50.39-.59-50.39Z" fill="#263ec5" fill-rule="evenodd"/><path d="M1142.19,1445.69s25-123.38,44.27-172.54c5.33-13.59,16.33-24.66,30.68-30.88l114.43-49.61,74.77,58.69-157.36,56.27c-6.12,37.26-35.24,90.86-68.48,141.61l-38.3-3.53Z" fill="#03050f" fill-rule="evenodd"/><path d="M1161.32,1447.45c4.58-34.21,34.1-64.39,47.42-81.23,16.93-21.41,6.6-57.67,13.64-75.63,2-5.1,7.59-11.67,14.55-18.21,15.45-14.52,35.29-24.48,56.84-29.87,29.17-7.3,46.45-18.17,64.64-28.77l78.48,7.34-187.93,86.54c-6.12,37.26-35.24,90.86-68.48,141.61l-19.16-1.76Z" fill="#191919" fill-rule="evenodd"/><path d="M1358.61,952.35c-20.65,4.66-35.71,14.28-42.81,34.23-1.18,1.97-19.22,32.89-26.75,87.67-1.62,11.77-6.34,22.9-13.75,32.18l-.66,.82-41.39,36.26,1.9,14.66,4.91,14.73c21.05-5.8,38.07-14.63,52.18-25.65-4.9,33.15-8.78,58.65-8.78,58.65,.74,3.94-41.53,6.55-85.84,47.9-5.38,5.02,52.8,4,94.2-15.66,19.67-9.34,33.76-27.51,37.62-48.95,.04-.23,.08-.44,.11-.63,4.61-27.45,8.92-70.7,4.07-108.71-9.12-71.45,24.97-127.51,24.97-127.51Z" fill="#f8f9fa" fill-rule="evenodd"/><polygon points="1292.25 1468.11 1292.31 1438.65 1318.22 1440.95 1314.31 1470.18 1292.25 1468.11" fill="#84462a" fill-rule="evenodd"/><path d="M1261.87,1491.12c-.06,.86,.23,1.68,.83,2.27,.6,.58,7.5,1.53,8.4,1.49,8.53-.44,24.87-2.23,36.17-2.81,1.76-.09,3.48-.87,4.76-2.15,1.29-1.28,2.03-2.96,2.05-4.65,.1-6.34,1.08-17.18,1.08-17.18h-22.33s-17.65,11.8-26.54,15.95c-3.72,1.74-4.14,3.24-4.42,7.09h0Z" fill="#0b1547" fill-rule="evenodd"/><polygon points="1139.91 1468.43 1149.65 1439.04 1174.78 1442.67 1161.26 1471.63 1139.91 1468.43" fill="#84462a" fill-rule="evenodd"/><path d="M1221.79,1498.46h0c-2.84-1.15-4.22-4.38-3.07-7.23l100.79-249.53c1.15-2.84,4.38-4.22,7.23-3.07h0c2.84,1.15,4.22,4.38,3.07,7.23l-100.79,249.53c-1.15,2.84-4.38,4.22-7.23,3.07Z" fill="#20212e" fill-rule="evenodd"/><path d="M1441.52,1257.2l3.04-30.28-81.7-6.61-60.36,24.98c-18.19,7.53-29.72,24-29.56,42.23l.41,45.66,.12-.06,9.35,116.04,36.05-1.71c16.93-60.54,29.82-93.92,19.63-145.46l103.02-44.8Z" fill="#03050f" fill-rule="evenodd"/><path d="M1107.81,1489.85c-.11,.86,.15,1.69,.71,2.3,.56,.61,7.41,1.92,8.31,1.92,8.54,0,24.95-.95,36.26-.95,1.76,0,3.52-.69,4.87-1.9,1.35-1.21,2.18-2.85,2.29-4.54,.42-6.33,1.96-17.1,1.96-17.1l-22.3-1.15s-18.24,10.87-27.32,14.57c-3.81,1.55-4.3,3.03-4.78,6.85h0Z" fill="#0b1547" fill-rule="evenodd"/><rect x="1237.6" y="1186.64" width="15.18" height="308.24" rx="6.27" ry="6.27" fill="#20212e"/><path d="M1318.87,1447.46s37.56-102.29,19.63-145.46l106.06-45.41s40.24-11.96,40.24-46.91l-47.87,16.62s-48.49,45-87.84,53.28c-39.35,8.28-18.12,25.37-22.26,44.01-4.14,18.64-22.43,124.55-22.43,124.55l14.47-.69Z" fill="#191919" fill-rule="evenodd"/><path d="M1311.6,1153.93s-14.27-9.76-23.38-5.02c-4.34,2.26-11.56,2.38-18.05,5.98-7.13,3.96-14.82,14.86-14.82,14.86,0,0-.03,10.1,8.96,11.85,3.21,.63,12.83-7.95,12.83-7.95,8.68,3.1,19.06,3.04,30.82,.38l3.65-20.1Z" fill="#84462a" fill-rule="evenodd"/><path d="M1245.19,1153.12s-13.51-10.78-22.95-6.72c-4.5,1.93-11.71,1.52-18.44,4.64-7.4,3.43-15.87,13.73-15.87,13.73,0,0-.77,10.07,8.06,12.48,3.16,.86,13.38-6.99,13.38-6.99,8.43,3.73,18.78,4.43,30.71,2.64l5.11-19.78Z" fill="#84462a" fill-rule="evenodd"/><polygon points="1311.6 1153.93 1356.84 1150.6 1358.61 1174.73 1301.97 1171.6 1311.6 1153.93" fill="#84462a" fill-rule="evenodd"/><path d="M1324.53,1176.9h-132.35v-10.01h122.33c5.53,0,10.01,4.48,10.01,10.01h0Z" fill="#0b1547" fill-rule="evenodd"/><path d="M1512.39,1116.88c-.52-22-2.24-48.11-6.42-74.9-4.91-31.41-11.24-54.98-22.27-68-6.72-7.94-13.22-11.2-20.7-14.49-7.38-3.25-15.08-5.75-22.96-7.47l-9.73-2.13c-20.46,61.29-36.95,101.24-30.88,181.42l-56.97,11.3,.16,34.29h111.1l22.15-7.2,21.05-11.77c9.91-10.77,15.85-25.23,15.47-41.04Z" fill="#f8f9fa" fill-rule="evenodd"/><path d="M1225.88,1176.9h-151.88l-45.83-102.13h148.4c2.12,0,4.04,1.24,4.9,3.17l44.4,98.96Z" fill="#0b1547" fill-rule="evenodd"/><path d="M1413.57,1166.88s-1.35-3.29-15.38,24.65c-6.2,12.35-89.71,57.73-89.71,57.73,0,0,42.14,16.86,46.35,46.17,2.28,15.85,105.24-41.35,116.58-47.86,10.09-5.79,15.49-37.44,16.37-48.58,4.13-52.33,1.92-44.11,1.92-44.11l-76.14,11.99Z" fill="#f8f9fa" fill-rule="evenodd"/><path d="M1136.66,1128.48c1.81,6.37-3.12,11.53-11.01,11.53s-15.74-5.16-17.55-11.53c-1.81-6.37,3.12-11.53,11.01-11.53s15.74,5.16,17.55,11.53Z" fill="#424660" fill-rule="evenodd"/><rect x="1028.18" y="1176.9" width="408.76" height="17.76" rx="8.32" ry="8.32" fill="#20212e"/><path d="M1403.7,1130.52l58.44-13.28s-.25-45.1-6.24-75.22" fill="none" fill-rule="evenodd" stroke="#ddd" stroke-linecap="round" stroke-linejoin="round" stroke-width="2.06"/><polyline points="1283.83 1143.36 1301.97 1119.34 1307.49 1055.3" fill="none" fill-rule="evenodd" stroke="#ddd" stroke-linecap="round" stroke-linejoin="round" stroke-width="2.06"/><g><path d="M1409.94,947.45c7,4.46,12.03,9.42,11.6,18.43-.33,6.95-3.18,13.36-3.16,20.44,.03,13.89,5.61,26.91,7.95,40.43,.69,3.98,6.91,3.03,6.22-.98-3.1-17.93-10.28-33.72-6.06-52.17,3.28-14.33-1.88-24.27-14.09-32.04-3.4-2.17-4.16-.75-3.97-.29l1.5,6.18Z" fill="#d6d6d6"/><path d="M1419.64,972.57c-5.93,16.6-24.57,28.91-20.66,48.81,.78,3.96,7.01,3.01,6.22-.98-3.54-17.98,14.86-30.32,20.28-45.49,1.36-3.81-4.48-6.16-5.84-2.34h0Z" fill="#d6d6d6"/><path d="M1422.66,1034.02l-13.97,46.56c-3.39,9.96-6.07,15.41-18.65,11.92-.39,1.77-.76,3.54-1.06,5.33l1.94,.58c9.17,2.75,18.9-2.38,21.65-11.55l16.74-55.79c2.75-9.17-3.96-6.05-6.66,2.95Z"/><path d="M1383.34,1091.27h6.85c1.93,0,3.51,1.57,3.51,3.51v.99c0,1.93-1.57,3.5-3.5,3.5h-6.85c-1.93,0-3.5-1.57-3.5-3.5v-.99c0-1.93,1.57-3.5,3.5-3.5Z" transform="translate(2555.1 2421.07) rotate(-169.69)" fill="#939393"/><path d="M1406.62,1030.12l6.99,48.1c1.89,10.35,3.74,16.14,16.7,14.53,.13,1.81,.24,3.62,.26,5.43l-2,.29c-9.47,1.38-18.35-5.13-19.73-14.6l-8.38-57.64c-1.38-9.47,4.8-5.4,6.15,3.89Z"/><rect x="1426.21" y="1091.98" width="13.86" height="8" rx="3.51" ry="3.51" transform="translate(-35.14 47.54) rotate(-1.88)" fill="#939393"/><path d="M1426.55,1022.32h3.51c1.82,0,3.3,1.48,3.3,3.3v1.88c0,1.82-1.48,3.3-3.3,3.3h-3.51c-1.82,0-3.3-1.48-3.3-3.3v-1.88c0-1.82,1.48-3.3,3.3-3.3Z" transform="translate(2703.7 2237.87) rotate(-172.18)" fill="#939393"/><rect x="1398.12" y="1018.87" width="10.12" height="8.48" rx="3.3" ry="3.3" transform="translate(2872.12 1949.31) rotate(176.14)" fill="#939393"/></g><g><path d="M1322.28,1048.18c7.88-22.97,14.1-46.7,23.42-69.14,6.12-14.73,14.95-31.96,33.32-31.25,3.67,.14,4.56-5.56,.85-5.7-16.94-.65-27.43,10.28-34.79,24.49-12.82,24.71-19.07,53.06-28.07,79.27-1.2,3.49,4.07,5.84,5.27,2.33h0Z" fill="#d6d6d6"/><path d="M1308.24,1048.17c-4.85,7-3.1,16.61,3.9,21.46,7,4.85,16.61,3.1,21.46-3.9,4.85-7,3.1-16.61-3.9-21.46-7-4.85-16.61-3.1-21.46,3.9Z" fill="#d6d6d6"/><path d="M1309.72,1047.13c-3.73,5.39-2.39,12.8,3.01,16.53,5.39,3.73,12.79,2.39,16.53-3.01,3.73-5.39,2.39-12.8-3.01-16.53-5.39-3.73-12.79-2.39-16.53,3.01Z"/><path d="M1307.61,1041.59c-3.73,5.39-2.39,12.8,3.01,16.53,5.39,3.73,12.79,2.39,16.53-3.01,3.73-5.39,2.39-12.8-3.01-16.53-5.39-3.73-12.79-2.39-16.53,3.01Z" fill="#d6d6d6"/></g><path d="M1360.52,905.84s5.47,31.01,10,56.7c1.21,6.84,6.01,12.5,12.56,14.81,6.56,2.31,13.84,.9,19.07-3.68,1.71-1.5,3.38-2.96,4.95-4.34,7.16-6.28,10.06-16.13,7.44-25.29-6.72-23.48-18.95-66.24-18.95-66.24l-35.07,28.05h0Z" fill="#84462a" fill-rule="evenodd"/><path d="M1359.51,853.51s-25.93,7.52-10.1,32.94c15.83,25.41,10.1-32.94,10.1-32.94h0Z" fill="#3d2213" fill-rule="evenodd"/><path d="M1352.23,872.29c1.49-8.08,6.25-15.18,13.15-19.64,6.9-4.46,15.33-5.88,23.31-3.92h0c15.44,3.79,25.24,18.96,22.36,34.59-1.66,8.99-3.48,18.84-5.06,27.37-1.07,5.77-4.46,10.84-9.39,14.03-4.93,3.18-10.95,4.2-16.65,2.8-5.28-1.29-8.97,7.96-14.3,7.48-21.37-1.94-20.33-25.34-18.21-36.82,1.46-7.92,3.17-17.17,4.78-25.88h0Z" fill="#84462a" fill-rule="evenodd"/><path d="M1394.86,874.82s-7.64,26.46,13.46,30.11c0,0,14.26-22.8,17.28-35.11,5.62-22.9-40.22-34.17-60.47-26.98-20.25,7.19-11.25,26.68,29.72,31.98h0Z" fill="#3d2213" fill-rule="evenodd"/><path d="M1409.48,893.58c-3.71-1.53-8.3,1.07-10.25,5.8-1.95,4.73-.53,9.82,3.17,11.35,3.71,1.53,8.3-1.07,10.25-5.8,1.95-4.73,.53-9.81-3.17-11.34h0Z" fill="#84462a" fill-rule="evenodd"/><path d="M1353.57,907.49l14.15,3.83s-2.89,9.59-9.48,6.94-4.67-10.77-4.67-10.77Z" fill="#fff" fill-rule="evenodd"/><path d="M1365.65,934.98l3.35,18.99s16.1-17.82,18.41-22.84c0,0-14.06,7.9-21.76,3.85Z" fill="#3d2213" fill-rule="evenodd"/></g></g></svg>