<?xml version="1.0" encoding="UTF-8"?><svg xmlns="http://www.w3.org/2000/svg" width="2000" height="2000" viewBox="0 0 2000 2000"><g id="a"/><g id="b"/><g id="c"><g><path id="d" d="M1710.09,1035.22c-43.2-70.93-70.12-148.34-74.62-228.82-8.01-143.3-92.79-251.52-241.62-320.48-54.3-25.16-112.76-40.87-172.75-47.1-169.17-17.59-291.75-.36-430.62,79.05-29.98,17.15-58.25,37.06-84.23,59.58-63.12,54.73-119.88,78.38-208.59,118.22-78.63,35.32-209.44,106.05-249.67,211.51-74.97,196.49,42.87,504.32,273.93,573.24,63.15,18.84,109.54,14.94,150.07-2.24,114.05-48.33,241.05-58.3,360.22-26.43,11.14,2.98,23.09,6.29,35.96,10.08,230.06,67.79,552.13,64.03,649.99-125.42,53.27-103.13,46.23-212.05-8.07-301.2Z" fill="#e6ecf5" opacity=".25"/><path id="e" d="M1729.93,988.75c-43.2-70.93-70.12-148.34-74.62-228.82-8.01-143.3-92.79-251.52-241.62-320.48-54.3-25.16-112.76-40.87-172.75-47.1-169.17-17.59-291.75-.36-430.62,79.05-29.98,17.15-58.25,37.06-84.23,59.58-63.12,54.73-119.88,78.38-208.59,118.22-78.63,35.32-209.44,106.05-249.67,211.51-74.97,196.49,42.87,504.32,273.93,573.24,63.15,18.84,109.54,14.94,150.07-2.24,114.05-48.33,241.05-58.3,360.22-26.43,11.14,2.98,23.09,6.29,35.96,10.08,230.06,67.79,552.13,64.03,649.99-125.42,53.27-103.13,46.23-212.05-8.07-301.2Z" fill="none" opacity=".5" stroke="#e6ecf5" stroke-miterlimit="10" stroke-width="9"/><circle id="f" cx="1568.18" cy="596.18" r="82.07" fill="none" stroke="#fff" stroke-miterlimit="10" stroke-width="6"/><ellipse id="g" cx="1488.1" cy="417.52" rx="58.71" ry="59.31" transform="translate(222.87 1305.2) rotate(-50.73)" fill="none" stroke="#fff" stroke-miterlimit="10" stroke-width="6"/><ellipse id="h" cx="1394.66" cy="562.23" rx="37.57" ry="37.66" transform="translate(76.56 1285.96) rotate(-50.73)" fill="none" stroke="#fff" stroke-miterlimit="10" stroke-width="6"/><ellipse id="i" cx="545.03" cy="711.01" rx="37.66" ry="37.57" transform="translate(-350.78 721.88) rotate(-53.22)" fill="none" stroke="#fff" stroke-miterlimit="10" stroke-width="6"/><ellipse id="j" cx="634.41" cy="584.69" rx="57.48" ry="57.61" transform="translate(-24.87 28.19) rotate(-2.5)" fill="none" stroke="#fff" stroke-miterlimit="10" stroke-width="6"/><path d="M1649.07,1611.85c0,15.23-128.83,27.58-287.74,27.58-158.92,0-287.74-12.35-287.74-27.58s128.83-27.58,287.74-27.58c158.92,0,287.74,12.35,287.74,27.58Z" fill="#e6ecf5" opacity=".25"/><path d="M1597.08,1614.5h0c2.86-1.16,4.24-4.41,3.09-7.27l-101.43-251.12c-1.16-2.86-4.41-4.24-7.27-3.09h0c-2.86,1.16-4.24,4.41-3.09,7.27l101.43,251.12c1.16,2.86,4.41,4.24,7.27,3.09Z" fill="#11121c" fill-rule="evenodd"/><path d="M1383.92,1614.5h0c-2.86-1.16-4.24-4.41-3.09-7.27l101.43-251.12c1.16-2.86,4.41-4.24,7.27-3.09h0c2.86,1.16,4.24,4.41,3.09,7.27l-101.43,251.12c-1.16,2.86-4.41,4.24-7.27,3.09Z" fill="#11121c" fill-rule="evenodd"/><path d="M1462.18,1614.5h0c2.86-1.16,4.24-4.41,3.09-7.27l-101.43-251.12c-1.16-2.86-4.41-4.24-7.27-3.09h0c-2.86,1.16-4.24,4.41-3.09,7.27l101.43,251.12c1.16,2.86,4.41,4.24,7.27,3.09Z" fill="#11121c" fill-rule="evenodd"/><rect x="1267.47" y="1358.26" width="259.78" height="49.5" rx="24.08" ry="24.08" fill="#20212e"/><path d="M1253.51,1616.27h0c-2.86-1.16-4.24-4.41-3.09-7.27l101.43-251.12c1.16-2.86,4.41-4.24,7.27-3.09h0c2.86,1.16,4.24,4.41,3.09,7.27l-101.43,251.12c-1.16,2.86-4.41,4.24-7.27,3.09Z" fill="#11121c" fill-rule="evenodd"/><path d="M366.83,1613.85c0,15.23,128.83,27.58,287.74,27.58,158.92,0,287.74-12.35,287.74-27.58,0-15.23-128.83-27.58-287.74-27.58-158.92,0-287.74,12.35-287.74,27.58Z" fill="#e6ecf5" opacity=".25"/><path d="M418.83,1616.5h0c-2.86-1.16-4.24-4.41-3.09-7.27l101.43-251.12c1.16-2.86,4.41-4.24,7.27-3.09h0c2.86,1.16,4.24,4.41,3.09,7.27l-101.43,251.12c-1.16,2.86-4.41,4.24-7.27,3.09Z" fill="#11121c" fill-rule="evenodd"/><path d="M631.98,1616.5h0c2.86-1.16,4.24-4.41,3.09-7.27l-101.43-251.12c-1.16-2.86-4.41-4.24-7.27-3.09h0c-2.86,1.16-4.24,4.41-3.09,7.27l101.43,251.12c1.16,2.86,4.41,4.24,7.27,3.09Z" fill="#11121c" fill-rule="evenodd"/><path d="M553.72,1616.5h0c-2.86-1.16-4.24-4.41-3.09-7.27l101.43-251.12c1.16-2.86,4.41-4.24,7.27-3.09h0c2.86,1.16,4.24,4.41,3.09,7.27l-101.43,251.12c-1.16,2.86-4.41,4.24-7.27,3.09Z" fill="#11121c" fill-rule="evenodd"/><rect x="488.65" y="1360.26" width="259.78" height="49.5" rx="24.08" ry="24.08" transform="translate(1237.09 2770.02) rotate(-180)" fill="#20212e"/><path d="M762.39,1618.27h0c2.86-1.16,4.24-4.41,3.09-7.27l-101.43-251.12c-1.16-2.86-4.41-4.24-7.27-3.09h0c-2.86,1.16-4.24,4.41-3.09,7.27l101.43,251.12c1.16,2.86,4.41,4.24,7.27,3.09Z" fill="#11121c" fill-rule="evenodd"/><path d="M1477.71,1070.35c30.99,18.29,31.9,111.48,37.19,143.1,2.46,14.7,10.67,64.2,3.31,77.03-2.44,4.25-19.96,.97-24.52,1.78-19.31,3.44-105.88,10.16-117.77-3.1-11.81-13.17-16.72-46.27-19.01-61.85-11.99-81.88,34.3-160.63,34.3-160.63,0,0,52.92-16.15,86.5,3.66Z" fill="#263ec5" fill-rule="evenodd"/><path d="M1363.22,1183.58c19.71,45.48,142.82-3.08,127.14-24.93-21.88-30.49,10.08,21.03,17.38,53.12,3.39,14.92,20.38,65.14,13.77,78.15-2.19,4.3-10,39.14-14.65,39.3-61.59,2.13-156.32,5.49-161.66-12.07-7.54-24.74,17.56-67.02,18.62-82.87,2.73-41.09-.59-50.71-.59-50.71Z" fill="#263ec5" fill-rule="evenodd"/><path d="M1173.41,1563.16s25.16-124.16,44.55-173.64c5.36-13.68,16.43-24.82,30.87-31.08l115.16-49.92,75.24,59.06-158.37,56.63c-6.16,37.5-35.46,91.44-68.92,142.51l-38.55-3.55Z" fill="#03050f" fill-rule="evenodd"/><path d="M1192.67,1564.94c4.61-34.43,34.32-64.8,47.72-81.75,17.04-21.54,6.64-58.03,13.73-76.11,2.01-5.13,7.64-11.74,14.65-18.33,15.54-14.61,35.51-24.63,57.2-30.06,29.35-7.35,46.75-18.29,65.05-28.96l78.98,7.38-189.12,87.09c-6.16,37.5-35.46,91.44-68.92,142.51l-19.28-1.78Z" fill="#191919" fill-rule="evenodd"/><path d="M1391.21,1066.69c-20.79,4.69-35.94,14.37-43.08,34.45-1.19,1.99-19.34,33.1-26.92,88.22-1.63,11.84-6.38,23.05-13.84,32.39l-.66,.83-41.66,36.49,1.92,14.75,4.95,14.82c21.18-5.84,38.31-14.73,52.51-25.81-4.93,33.36-8.83,59.02-8.83,59.02,.75,3.97-41.79,6.59-86.38,48.21-5.42,5.06,53.13,4.03,94.8-15.75,19.8-9.4,33.98-27.69,37.86-49.26,.04-.23,.08-.44,.11-.63,4.64-27.62,8.98-71.15,4.1-109.4-9.18-71.91,25.13-128.32,25.13-128.32Z" fill="#f8f9fa" fill-rule="evenodd"/><polygon points="1324.43 1585.73 1324.49 1556.08 1350.57 1558.39 1346.63 1587.81 1324.43 1585.73" fill="#84462a" fill-rule="evenodd"/><path d="M1293.85,1608.89c-.06,.87,.24,1.69,.83,2.28,.6,.59,7.55,1.54,8.45,1.49,8.58-.44,25.03-2.25,36.4-2.83,1.77-.09,3.5-.87,4.79-2.16,1.29-1.29,2.04-2.98,2.07-4.68,.1-6.38,1.09-17.29,1.09-17.29h-22.48s-17.77,11.87-26.71,16.05c-3.75,1.75-4.16,3.27-4.45,7.13h0Z" fill="#0b1547" fill-rule="evenodd"/><polygon points="1171.12 1586.05 1180.92 1556.48 1206.21 1560.13 1192.6 1589.27 1171.12 1586.05" fill="#84462a" fill-rule="evenodd"/><path d="M1474.65,1373.48l3.06-30.48-82.22-6.65-60.74,25.14c-18.3,7.58-29.91,24.16-29.74,42.5l.41,45.95,.12-.06,9.41,116.78,36.28-1.72c17.04-60.93,30.01-94.52,19.76-146.38l103.67-45.09Z" fill="#03050f" fill-rule="evenodd"/><path d="M1138.81,1607.61c-.11,.87,.15,1.7,.72,2.32,.57,.62,7.46,1.93,8.37,1.93,8.59,0,25.11-.96,36.49-.96,1.77,0,3.54-.69,4.9-1.91,1.36-1.22,2.19-2.87,2.3-4.57,.42-6.37,1.97-17.21,1.97-17.21l-22.45-1.16s-18.35,10.94-27.5,14.66c-3.83,1.56-4.33,3.05-4.81,6.89h0Z" fill="#0b1547" fill-rule="evenodd"/><rect x="1269.43" y="1302.46" width="15.27" height="310.2" rx="6.31" ry="6.31" fill="#20212e"/><path d="M1351.22,1564.95s37.8-102.94,19.76-146.38l106.73-45.69s40.5-12.04,40.5-47.21l-48.17,16.72s-48.8,45.28-88.4,53.62c-39.6,8.34-18.24,25.53-22.41,44.29-4.17,18.76-22.57,125.35-22.57,125.35l14.57-.69Z" fill="#191919" fill-rule="evenodd"/><path d="M1343.9,1269.55s-14.36-9.82-23.53-5.05c-4.37,2.27-11.64,2.39-18.16,6.02-7.17,3.98-14.91,14.96-14.91,14.96,0,0-.03,10.16,9.01,11.93,3.23,.63,12.91-8,12.91-8,8.74,3.12,19.18,3.06,31.01,.38l3.67-20.23Z" fill="#84462a" fill-rule="evenodd"/><path d="M1277.07,1268.74s-13.6-10.85-23.09-6.77c-4.52,1.95-11.78,1.53-18.56,4.67-7.44,3.45-15.97,13.82-15.97,13.82,0,0-.78,10.13,8.11,12.56,3.18,.87,13.46-7.03,13.46-7.03,8.49,3.76,18.9,4.46,30.9,2.66l5.14-19.91Z" fill="#84462a" fill-rule="evenodd"/><polygon points="1343.9 1269.55 1389.43 1266.2 1391.21 1290.48 1334.2 1287.34 1343.9 1269.55" fill="#84462a" fill-rule="evenodd"/><path d="M1356.91,1292.66h-133.19v-10.08h123.11c5.57,0,10.08,4.51,10.08,10.08h0Z" fill="#0b1547" fill-rule="evenodd"/><path d="M1545.97,1232.27c-.53-22.14-2.25-48.41-6.46-75.38-4.94-31.61-11.31-55.33-22.41-68.43-6.76-7.99-13.31-11.27-20.83-14.58-7.43-3.27-15.18-5.78-23.1-7.52l-9.79-2.15c-20.59,61.68-37.18,101.89-31.08,182.57l-57.34,11.37,.16,34.51h111.8l22.29-7.25,21.19-11.85c9.97-10.84,15.95-25.39,15.57-41.3Z" fill="#f8f9fa" fill-rule="evenodd"/><path d="M1257.64,1292.66h-152.85l-46.12-102.78h149.35c2.13,0,4.06,1.25,4.93,3.19l44.68,99.59Z" fill="#0b1547" fill-rule="evenodd"/><path d="M1446.52,1282.58s-1.36-3.31-15.47,24.81c-6.24,12.43-90.28,58.1-90.28,58.1,0,0,42.41,16.96,46.65,46.47,2.29,15.95,105.9-41.61,117.32-48.16,10.15-5.83,15.59-37.67,16.48-48.89,4.16-52.66,1.94-44.39,1.94-44.39l-76.63,12.07Z" fill="#f8f9fa" fill-rule="evenodd"/><path d="M1167.85,1243.93c1.82,6.41-3.14,11.61-11.08,11.61s-15.84-5.2-17.66-11.61c-1.82-6.41,3.14-11.61,11.08-11.61s15.84,5.2,17.66,11.61Z" fill="#424660" fill-rule="evenodd"/><rect x="1058.67" y="1292.66" width="411.36" height="17.87" rx="8.37" ry="8.37" fill="#20212e"/><path d="M1436.58,1245.99l58.81-13.37s-.25-45.39-6.27-75.7" fill="none" fill-rule="evenodd" stroke="#ddd" stroke-linecap="round" stroke-linejoin="round" stroke-width="2.06"/><polyline points="1315.95 1258.91 1334.2 1234.74 1339.76 1170.29" fill="none" fill-rule="evenodd" stroke="#ddd" stroke-linecap="round" stroke-linejoin="round" stroke-width="2.06"/><polygon points="695.19 1593.59 695.13 1557.8 663.65 1560.59 668.4 1596.11 695.19 1593.59" fill="#84462a" fill-rule="evenodd"/><path d="M732.11,1621.55c.08,1.05-.28,2.04-1.01,2.75-.72,.71-9.12,1.86-10.2,1.8-10.36-.53-30.21-2.71-43.94-3.42-2.14-.11-4.23-1.05-5.79-2.61-1.56-1.56-2.46-3.6-2.49-5.65-.12-7.71-1.31-20.87-1.31-20.87h27.13s21.45,14.33,32.24,19.38c4.52,2.12,5.03,3.94,5.37,8.61h0Z" fill="#0b1547" fill-rule="evenodd"/><polygon points="845.25 1593.98 833.42 1558.28 802.9 1562.68 819.32 1597.87 845.25 1593.98" fill="#84462a" fill-rule="evenodd"/><path d="M884.25,1620c.13,1.04-.18,2.05-.86,2.8-.69,.75-9.01,2.33-10.1,2.33-10.38,0-30.31-1.16-44.06-1.15-2.14,0-4.28-.83-5.91-2.31-1.64-1.48-2.64-3.46-2.78-5.51-.51-7.69-2.38-20.78-2.38-20.78l27.1-1.39s22.15,13.21,33.19,17.7c4.63,1.88,5.22,3.68,5.81,8.32h0Z" fill="#0b1547" fill-rule="evenodd"/><path d="M839.67,1564.84s-25-123.37-44.27-172.53c-5.33-13.59-16.33-24.66-30.67-30.88l-114.43-49.6-74.76,58.68,157.35,56.26c6.12,37.26,35.24,90.86,68.48,141.6l38.3-3.53Z" fill="#0b1547" fill-rule="evenodd"/><path d="M820.53,1566.6c-4.58-34.21-34.1-64.39-47.41-81.23-16.93-21.4-6.6-57.66-13.64-75.62-2-5.1-7.59-11.66-14.55-18.21-15.44-14.52-35.29-24.47-56.83-29.87-29.17-7.3-46.45-18.17-64.63-28.77l-78.48,7.34,187.91,86.54c6.12,37.26,35.24,90.86,68.48,141.6l19.16-1.76Z" fill="#152044" fill-rule="evenodd"/><path d="M540.35,1376.36l-3.04-30.28,81.7-6.61,60.35,24.98c18.19,7.53,29.72,24,29.55,42.23l-.41,45.66-.12-.06-9.35,116.03-36.05-1.71c-16.93-60.54-29.82-93.92-19.63-145.45l-103.01-44.8Z" fill="#0b1547" fill-rule="evenodd"/><path d="M643.49,1260.05s21.33,61.28,19.86,73.23c-2.76,22.38-14.98,38.24-14.98,38.24l-104.67-.82c-29.88-.23-52.43-27.22-47.37-56.67,.02-.14,.05-.28,.07-.42,.48-2.81,.92-5.63,1.3-8.46,1.79-13.25,7.17-53.01,7.17-53.01,32.52,21.08,91.43,29.76,143.06,15.83l-4.45-7.91Z" fill="#0b1547" fill-rule="evenodd"/><path d="M651.07,1187.68c-19.59,45.19-141.91-3.06-126.33-24.77,21.74-30.3-10.01,20.9-17.26,52.78-3.37,14.83-20.25,64.73-13.68,77.65,2.18,4.28-1.34,32.99,3.28,33.15,61.2,2.12,166.59,11.35,171.9-6.09,7.49-24.58-17.45-66.6-18.5-82.34-2.71-40.83,.59-50.38,.59-50.38Z" fill="#ccc" fill-rule="evenodd"/><path d="M647.8,1081.28s23.19,19.47,40.14,67.03l-33.91,50.05-6.23-117.08Z" fill="#ccc" fill-rule="evenodd"/><path d="M616.82,1066.19c-13.5,19.64-29.33,5.18-34.59-1.76-.83-1.1-23.16,7.04-25,8.26-28.39,18.89-32.08,99.97-37.15,129.19-2.36,13.59-15.58,59.31-8.53,71.18,2.33,3.92,24.49,.92,28.85,1.67,18.5,3.18,101.46,9.39,112.86-2.86,11.31-12.17,2.83-34.83,5.02-49.24,11.49-75.68-10.48-141.34-10.48-141.34l-30.98-15.09Z" fill="#ccc" fill-rule="evenodd"/><path d="M655.88,1176.43c-16.09,41.4-136.01-3.04-122.38-22.92,19.02-27.74-8.35,19.14-13.42,48.37-2.36,13.59-15.58,59.31-8.53,71.18,2.33,3.92,11.8,35.67,16.23,35.83,58.7,2.04,139.94-6.85,144-22.83,5.72-22.53-7.23-73.25-9.16-87.69-5-37.44-6.74-21.93-6.74-21.93Z" fill="#ccc" fill-rule="evenodd"/><path d="M659.44,1188.07s-5.41-19.17-7.87-40.46" fill="none" fill-rule="evenodd" stroke="#a5a5a5" stroke-miterlimit="10" stroke-width="3"/><rect x="729.09" y="1305.8" width="15.18" height="308.22" rx="6.27" ry="6.27" transform="translate(1473.35 2919.82) rotate(-180)" fill="#20212e"/><path d="M750.58,1269.71s13.51-10.78,22.94-6.72c4.5,1.93,11.71,1.52,18.44,4.64,7.4,3.42,15.87,13.73,15.87,13.73,0,0,.77,10.06-8.06,12.48-3.16,.86-13.37-6.99-13.37-6.99-8.43,3.73-18.78,4.43-30.71,2.64l-5.11-19.78Z" fill="#3a241b" fill-rule="evenodd"/><path d="M624.07,1024.72s-5.7,30.45-10.42,55.68c-1.26,6.72-6.39,12.26-13.42,14.49-7.03,2.23-14.87,.81-20.51-3.73-1.85-1.48-3.64-2.93-5.35-4.3-7.74-6.21-10.91-15.91-8.14-24.9,7.09-23.04,19.99-65.01,19.99-65.01l37.85,27.77h0Z" fill="#3a241b" fill-rule="evenodd"/><path d="M632.84,991.02c-1.6-8.68-6.72-16.32-14.13-21.12-7.42-4.79-16.48-6.32-25.06-4.21h0c-16.6,4.07-27.14,20.38-24.03,37.18,1.79,9.67,3.74,20.25,5.44,29.42,1.15,6.2,4.8,11.66,10.09,15.08,5.3,3.42,11.77,4.51,17.89,3.01,5.68-1.39,11.71-2.87,17.3-4.24,12.19-2.99,19.92-14.96,17.64-27.3-1.57-8.52-3.41-18.46-5.14-27.82h0Z" fill="#3a241b" fill-rule="evenodd"/><path d="M587.01,993.75s8.21,28.44-14.47,32.37c0,0-15.33-24.51-18.58-37.74-6.04-24.61,43.24-36.74,65-29.01,21.76,7.73,12.1,28.69-31.95,34.38h0Z" fill-rule="evenodd"/><path d="M571.29,1013.92c3.98-1.65,8.92,1.15,11.02,6.24,2.1,5.09,.57,10.55-3.41,12.2-3.98,1.65-8.92-1.15-11.02-6.24-2.1-5.08-.57-10.55,3.41-12.2h0Z" fill="#3a241b" fill-rule="evenodd"/><path d="M638.03,1018.79c1.19-2.69,13.52,38.32-12.56,42.22-26.07,3.9-38.56-5.51-46.99-53.01,0,0,14.61,28.21,30.07,27.6,32.3-1.27,28.04-13.59,29.48-16.81h0Z" fill-rule="evenodd"/><path d="M593.23,991.58s54.91-12.3,38.49-35.07c-15.19-21.07-47.21,32.46-56.63,24.87l18.14,10.2Z" fill-rule="evenodd"/><path d="M631.39,1028.86l-15.22,4.12s3.11,10.3,10.19,7.46c7.08-2.84,5.02-11.58,5.02-11.58Z" fill="#fcf0db" fill-rule="evenodd"/><path d="M474.46,1185.28v68.48c0,16.72,9.04,32.28,23.94,40.81,27.58,15.78,112.48,5.75,154.79-4.54v-15.68l-129.66-21.23,1.55-89.24-50.62,21.39Z" fill="#3a241b" fill-rule="evenodd"/><path d="M557.23,1072.69s-28.76,4.32-53.63,30.12c-18.6,19.29-34.86,52.21-36.12,95.56,0,19.89,76.54,19.89,76.54,0l13.21-125.67Z" fill="#ccc" fill-rule="evenodd"/><polyline points="531.76 1209.65 534.9 1155.2 531.76 1151.09" fill="none" fill-rule="evenodd" stroke="#a5a5a5" stroke-miterlimit="10" stroke-width="3"/><path d="M637.36,1273.1s14.26-9.76,23.38-5.02c4.34,2.26,11.56,2.38,18.05,5.98,7.13,3.96,14.82,14.86,14.82,14.86,0,0,.03,10.09-8.95,11.85-3.21,.63-12.83-7.95-12.83-7.95-8.68,3.1-19.06,3.04-30.82,.38l-3.65-20.1Z" fill="#3a241b" fill-rule="evenodd"/><polygon points="637.36 1273.1 592.12 1269.77 590.35 1293.9 646.99 1290.77 637.36 1273.1" fill="#3a241b" fill-rule="evenodd"/><rect x="544.94" y="1296.06" width="408.73" height="17.76" rx="8.32" ry="8.32" transform="translate(1498.61 2609.89) rotate(-180)" fill="#20212e"/><path d="M687.51,1146.91l13.89,54.39s2.98,19.32,15.04,30.97c12.06,11.65,35.87,37.49,35.87,37.49l-15.97,13.47c-5.51,4.55-4.71,9.08-10.25,4.58l-28.48-14.08-20.14-18.6-7.09-29.35-11.59-40.17,28.73-38.71Z" fill="#3a241b" fill-rule="evenodd"/><polygon points="740.81 1269.09 767.74 1269.88 758.11 1289.21 733.42 1288.39 740.81 1269.09" fill="#3a241b" fill-rule="evenodd"/><path d="M657.34,1296.06h132.34v-10.01h-122.32c-5.53,0-10.01,4.48-10.01,10.01h0Z" fill="#0b1547" fill-rule="evenodd"/><path d="M755.98,1296.06h151.87l45.82-102.12h-148.39c-2.12,0-4.04,1.24-4.9,3.17l-44.4,98.95Z" fill="#0b1547" fill-rule="evenodd"/><path d="M839.55,1249.33c-1.81,6.37,3.12,11.53,11.01,11.53,7.89,0,15.74-5.16,17.55-11.53,1.81-6.37-3.12-11.53-11.01-11.53-7.89,0-15.74,5.16-17.55,11.53Z" fill="#424660" fill-rule="evenodd"/><g><path d="M1442.87,1062.21c7,4.46,12.03,9.42,11.6,18.43-.33,6.95-3.18,13.36-3.16,20.44,.03,13.89,5.61,26.91,7.95,40.43,.69,3.98,6.91,3.03,6.22-.98-3.1-17.93-10.28-33.72-6.06-52.17,3.28-14.33-1.88-24.27-14.09-32.04-3.4-2.17-4.16-.75-3.97-.29l1.5,6.18Z" fill="#d6d6d6"/><path d="M1452.56,1087.33c-5.93,16.6-24.57,28.91-20.66,48.81,.78,3.96,7.01,3.01,6.22-.98-3.54-17.98,14.86-30.32,20.28-45.49,1.36-3.81-4.48-6.16-5.84-2.34h0Z" fill="#d6d6d6"/><path d="M1455.58,1148.79l-13.97,46.56c-3.39,9.96-6.07,15.41-18.65,11.92-.39,1.77-.76,3.54-1.06,5.33l1.94,.58c9.17,2.75,18.9-2.38,21.65-11.55l16.74-55.79c2.75-9.17-3.96-6.05-6.66,2.95Z"/><path d="M1416.26,1206.04h6.85c1.93,0,3.51,1.57,3.51,3.51v.99c0,1.93-1.57,3.5-3.5,3.5h-6.85c-1.93,0-3.5-1.57-3.5-3.5v-.99c0-1.93,1.57-3.5,3.5-3.5Z" transform="translate(2599.88 2654.64) rotate(-169.69)" fill="#939393"/><path d="M1439.54,1144.89l6.99,48.1c1.89,10.35,3.74,16.14,16.7,14.53,.13,1.81,.24,3.62,.26,5.43l-2,.29c-9.47,1.38-18.35-5.13-19.73-14.6l-8.38-57.64c-1.38-9.47,4.8-5.4,6.15,3.89Z"/><rect x="1459.13" y="1206.75" width="13.86" height="8" rx="3.51" ry="3.51" transform="translate(-38.88 48.68) rotate(-1.88)" fill="#939393"/><path d="M1459.48,1137.08h3.51c1.82,0,3.3,1.48,3.3,3.3v1.88c0,1.82-1.48,3.3-3.3,3.3h-3.51c-1.82,0-3.3-1.48-3.3-3.3v-1.88c0-1.82,1.48-3.3,3.3-3.3Z" transform="translate(2753.63 2470.81) rotate(-172.18)" fill="#939393"/><rect x="1431.04" y="1133.63" width="10.12" height="8.48" rx="3.3" ry="3.3" transform="translate(2945.63 2176.36) rotate(176.14)" fill="#939393"/></g><g><path d="M1355.21,1162.94c7.88-22.97,14.1-46.7,23.42-69.14,6.12-14.73,14.95-31.96,33.32-31.25,3.67,.14,4.56-5.56,.85-5.7-16.94-.65-27.43,10.28-34.79,24.49-12.82,24.71-19.07,53.06-28.07,79.27-1.2,3.49,4.07,5.84,5.27,2.33h0Z" fill="#d6d6d6"/><path d="M1341.16,1162.94c-4.85,7-3.1,16.61,3.9,21.46,7,4.85,16.61,3.1,21.46-3.9,4.85-7,3.1-16.61-3.9-21.46-7-4.85-16.61-3.1-21.46,3.9Z" fill="#d6d6d6"/><path d="M1342.64,1161.9c-3.73,5.39-2.39,12.8,3.01,16.53,5.39,3.73,12.79,2.39,16.53-3.01,3.73-5.39,2.39-12.8-3.01-16.53-5.39-3.73-12.79-2.39-16.53,3.01Z"/><path d="M1340.53,1156.36c-3.73,5.39-2.39,12.8,3.01,16.53,5.39,3.73,12.79,2.39,16.53-3.01,3.73-5.39,2.39-12.8-3.01-16.53-5.39-3.73-12.79-2.39-16.53,3.01Z" fill="#d6d6d6"/></g><path d="M1393.13,1019.88s5.5,31.21,10.06,57.06c1.21,6.89,6.05,12.58,12.64,14.9,6.6,2.32,13.93,.9,19.19-3.7,1.72-1.51,3.4-2.98,4.99-4.37,7.21-6.32,10.13-16.23,7.49-25.45-6.76-23.63-19.07-66.66-19.07-66.66l-35.3,28.22h0Z" fill="#84462a" fill-rule="evenodd"/><path d="M1392.11,967.22s-26.09,7.57-10.16,33.15c15.93,25.58,10.16-33.15,10.16-33.15h0Z" fill="#3d2213" fill-rule="evenodd"/><path d="M1384.79,986.11c1.5-8.13,6.29-15.28,13.23-19.77,6.94-4.49,15.43-5.91,23.46-3.95h0c15.54,3.81,25.4,19.08,22.5,34.81-1.67,9.05-3.5,18.96-5.09,27.54-1.07,5.81-4.49,10.91-9.45,14.12-4.96,3.2-11.02,4.22-16.75,2.82-5.31-1.3-9.03,8.01-14.39,7.52-21.5-1.95-20.46-25.5-18.32-37.05,1.47-7.97,3.19-17.28,4.81-26.05h0Z" fill="#84462a" fill-rule="evenodd"/><path d="M1427.69,988.66s-7.69,26.63,13.55,30.3c0,0,14.35-22.94,17.39-35.33,5.66-23.04-40.48-34.39-60.85-27.15-20.37,7.24-11.32,26.85,29.91,32.19h0Z" fill="#3d2213" fill-rule="evenodd"/><path d="M1442.4,1007.55c-3.73-1.54-8.35,1.08-10.32,5.84-1.97,4.76-.54,9.88,3.19,11.42,3.73,1.54,8.35-1.08,10.32-5.84,1.97-4.76,.54-9.88-3.19-11.42h0Z" fill="#84462a" fill-rule="evenodd"/><path d="M1386.14,1021.54l14.24,3.85s-2.91,9.65-9.54,6.98c-6.63-2.66-4.7-10.84-4.7-10.84Z" fill="#fff" fill-rule="evenodd"/><path d="M1398.3,1049.21l3.37,19.11s16.2-17.93,18.53-22.99c0,0-14.15,7.95-21.9,3.88Z" fill="#3d2213" fill-rule="evenodd"/></g></g></svg>