<svg xmlns="http://www.w3.org/2000/svg" width="2000" height="2000" viewBox="0 0 2000 2000"><path d="M140,1340.18c30.22-88.08,39.69-178.7,22.24-266.55-37.6-189.29,69.8-393.29,298.39-519,255.49-140.47,584.49-140.32,815.14-16.6,105.27,56.47,99.62,82.79,228.11,103.9,101.33,16.65,273.39,96.69,349.87,199.27,142.5,191.13,109.64,423.82-139.45,560.78-175.71,96.61-332.46,94.42-505.92,30.36-15,117.87-97.69,233.07-239,310.2-248.25,135.46-586.75,101.31-753.87-76C124.57,1570,102.06,1450.89,140,1340.18Z" fill="#e6ecf5" opacity="0.25"/><path d="M80.62,1396.05c31-88.13,40.8-178.78,23.09-266.61C65.55,940.19,175.56,736,409.28,610c261.24-140.83,597.39-141.12,832.89-17.7,107.48,56.33,101.68,82.65,232.92,103.59,103.51,16.51,279.21,96.33,357.21,198.82,145.33,190.94,111.45,423.71-143.24,561-179.66,96.86-339.82,94.88-517,31C1156.63,1604.7,1072,1720,927.46,1797.36c-253.83,135.8-599.64,102.11-770.15-75C64.51,1625.93,41.67,1506.82,80.62,1396.05Z" fill="none" stroke="#b1770c" stroke-miterlimit="10" stroke-width="9" opacity="0.5"/><circle cx="431.96" cy="581.05" r="82.07" fill="none" stroke="#b1770c" stroke-miterlimit="10" stroke-width="6"/><ellipse cx="643.92" cy="382.49" rx="59.31" ry="58.71" transform="translate(-96.69 494.01) rotate(-39.27)" fill="none" stroke="#b1770c" stroke-miterlimit="10" stroke-width="6"/><ellipse cx="678.52" cy="574.7" rx="37.66" ry="37.57" transform="translate(-210.54 559.34) rotate(-39.27)" fill="none" stroke="#b1770c" stroke-miterlimit="10" stroke-width="6"/><ellipse cx="1566.88" cy="717.4" rx="37.57" ry="37.66" transform="translate(-25.34 1376.64) rotate(-47.09)" fill="none" stroke="#b1770c" stroke-miterlimit="10" stroke-width="6"/><ellipse cx="1464.38" cy="597.5" rx="57.48" ry="57.61" transform="translate(-67.67 204.75) rotate(-7.82)" fill="none" stroke="#b1770c" stroke-miterlimit="10" stroke-width="6"/><path d="M1563.4,1598.78h0a5.55,5.55,0,0,0,3.07-7.23L1465.69,1342a5.56,5.56,0,0,0-7.22-3.07h0a5.55,5.55,0,0,0-3.07,7.23l100.78,249.51A5.54,5.54,0,0,0,1563.4,1598.78Z" fill="#d3d7f4" fill-rule="evenodd"/><path d="M1587.56,1595.86c0,7.65-121.85,13.85-272.15,13.85s-272.15-6.2-272.15-13.85S1165.1,1582,1315.41,1582,1587.56,1588.21,1587.56,1595.86Z" fill="#d3d7f4" opacity="0.4"/><path d="M1351.61,1598.78h0a5.56,5.56,0,0,1-3.07-7.23L1449.32,1342a5.57,5.57,0,0,1,7.23-3.07h0a5.56,5.56,0,0,1,3.07,7.23l-100.78,249.51A5.55,5.55,0,0,1,1351.61,1598.78Z" fill="#d3d7f4" fill-rule="evenodd"/><path d="M1429.37,1598.78h0a5.56,5.56,0,0,0,3.07-7.23L1331.66,1342a5.57,5.57,0,0,0-7.23-3.07h0a5.56,5.56,0,0,0-3.07,7.23l100.78,249.51A5.55,5.55,0,0,0,1429.37,1598.78Z" fill="#d3d7f4" fill-rule="evenodd"/><rect x="1235.91" y="1344.18" width="258.12" height="49.18" rx="23.93" fill="#bdc4e5"/><path d="M735.36,1375.18H681.89c-19.38,0-39.29-16.91-44.24-37.57L596,1163.8c-4.95-20.66,6.86-37.57,26.24-37.57h53.47c19.38,0,39.29,16.91,44.23,37.57l41.62,173.81C766.55,1358.27,754.74,1375.18,735.36,1375.18Z" fill="#d3d7f4" fill-rule="evenodd"/><path d="M606.84,1579.44c0,9.16,91.84,16.59,205.12,16.59s205.12-7.43,205.12-16.59-91.84-16.59-205.12-16.59S606.84,1570.28,606.84,1579.44Z" fill="#d3d7f4" opacity="0.4"/><path d="M979.16,1575.8h0a5.19,5.19,0,0,0,3-6.82l-98-235.46a5.46,5.46,0,0,0-7-2.9h0a5.19,5.19,0,0,0-3,6.82l98,235.46A5.47,5.47,0,0,0,979.16,1575.8Z" fill="#d3d7f4" fill-rule="evenodd"/><path d="M773.26,1575.8h0a5.2,5.2,0,0,1-3-6.82l98-235.46a5.46,5.46,0,0,1,7-2.9h0a5.19,5.19,0,0,1,3,6.82l-98,235.46A5.45,5.45,0,0,1,773.26,1575.8Z" fill="#d3d7f4" fill-rule="evenodd"/><path d="M647.29,1575.79h0a5.4,5.4,0,0,1-3-7l98-242.57a5.4,5.4,0,0,1,7-3h0a5.4,5.4,0,0,1,3,7l-98,242.56A5.4,5.4,0,0,1,647.29,1575.79Z" fill="#d3d7f4" fill-rule="evenodd"/><path d="M848.85,1575.79h0a5.41,5.41,0,0,0,3-7l-98-242.57a5.39,5.39,0,0,0-7-3h0a5.4,5.4,0,0,0-3,7l98,242.56A5.39,5.39,0,0,0,848.85,1575.79Z" fill="#d3d7f4" fill-rule="evenodd"/><rect x="660.78" y="1328.27" width="250.93" height="47.81" rx="23.26" fill="#bdc4e5"/><path d="M464,1408.62H410.48c-19.38,0-39.29-16.91-44.23-37.57l-41.62-173.81c-4.95-20.66,6.86-37.57,26.24-37.57h53.47c19.38,0,39.29,16.91,44.24,37.57l41.61,173.81C495.14,1391.71,483.33,1408.62,464,1408.62Z" fill="#d3d7f4" fill-rule="evenodd"/><path d="M335.43,1612.88c0,9.16,91.84,16.59,205.12,16.59s205.12-7.43,205.12-16.59-91.84-16.6-205.12-16.6S335.43,1603.71,335.43,1612.88Z" fill="#d3d7f4" opacity="0.4"/><path d="M707.75,1609.23h0a5.18,5.18,0,0,0,3-6.82l-98-235.46a5.45,5.45,0,0,0-7-2.89h0a5.18,5.18,0,0,0-3,6.82l98,235.46A5.45,5.45,0,0,0,707.75,1609.23Z" fill="#d3d7f4" fill-rule="evenodd"/><path d="M501.85,1609.23h0a5.18,5.18,0,0,1-3-6.82l98-235.46a5.45,5.45,0,0,1,7-2.89h0a5.18,5.18,0,0,1,3,6.82l-98,235.46A5.46,5.46,0,0,1,501.85,1609.23Z" fill="#d3d7f4" fill-rule="evenodd"/><path d="M375.88,1609.22h0a5.4,5.4,0,0,1-3-7l98-242.57a5.39,5.39,0,0,1,7-3h0a5.4,5.4,0,0,1,3,7l-98,242.57A5.4,5.4,0,0,1,375.88,1609.22Z" fill="#d3d7f4" fill-rule="evenodd"/><path d="M577.45,1609.22h0a5.39,5.39,0,0,0,3-7l-98-242.57a5.39,5.39,0,0,0-7-3h0a5.38,5.38,0,0,0-3,7l98,242.57A5.4,5.4,0,0,0,577.45,1609.22Z" fill="#d3d7f4" fill-rule="evenodd"/><rect x="389.37" y="1361.71" width="250.93" height="47.81" rx="23.26" fill="#bdc4e5"/><path d="M1444.8,1058.11c30.8,18.17,31.69,110.77,37,142.19,2.44,14.61,10.6,63.79,3.29,76.54-2.42,4.22-19.84,1-24.37,1.77-19.18,3.42-105.2,10.1-117-3.08s-16.62-46-18.89-61.45c-11.91-81.37,34.09-159.6,34.09-159.6S1411.44,1038.43,1444.8,1058.11Z" fill="#263ec5" fill-rule="evenodd"/><path d="M1331,1170.62c19.59,45.18,141.91-3.06,126.34-24.77-21.74-30.3,10,20.9,17.26,52.78,3.37,14.83,20.25,64.73,13.68,77.65-2.17,4.28-9.93,38.89-14.55,39-61.2,2.12-155.32,5.46-160.63-12-7.49-24.58,17.45-66.6,18.49-82.34C1334.34,1180.17,1331,1170.62,1331,1170.62Z" fill="#263ec5" fill-rule="evenodd"/><path d="M1142.44,1547.77s25-123.36,44.27-172.53c5.32-13.59,16.33-24.66,30.67-30.88l114.43-49.6,74.76,58.68-157.35,56.27c-6.12,37.26-35.24,90.85-68.48,141.59Z" fill="#03050f" fill-rule="evenodd"/><path d="M1161.58,1549.54c4.58-34.21,34.1-64.39,47.42-81.23,16.93-21.4,6.6-57.66,13.64-75.62,2-5.1,7.58-11.67,14.55-18.21,15.44-14.52,35.28-24.48,56.83-29.87,29.17-7.31,46.45-18.18,64.64-28.78l78.47,7.34-187.91,86.54c-6.12,37.26-35.24,90.85-68.48,141.59Z" fill="#191919" fill-rule="evenodd"/><path d="M1358.86,1054.48c-20.66,4.66-35.71,14.28-42.81,34.22-1.18,2-19.22,32.89-26.75,87.66a65.76,65.76,0,0,1-13.75,32.18l-.65.82-41.39,36.27,1.9,14.66,4.92,14.72c21-5.8,38.06-14.63,52.17-25.65-4.9,33.15-8.78,58.65-8.78,58.65.74,3.94-41.52,6.55-85.83,47.9-5.38,5,52.79,4,94.2-15.66a67.55,67.55,0,0,0,37.62-48.94c0-.23.08-.44.11-.63,4.6-27.45,8.92-70.7,4.07-108.7C1324.77,1110.53,1358.86,1054.48,1358.86,1054.48Z" fill="#f8f9fa" fill-rule="evenodd"/><polygon points="1292.5 1570.2 1292.56 1540.74 1318.47 1543.04 1314.56 1572.27 1292.5 1570.2" fill="#84462a" fill-rule="evenodd"/><path d="M1262.12,1593.21a2.8,2.8,0,0,0,.83,2.26c.59.59,7.5,1.54,8.4,1.49,8.53-.44,24.86-2.23,36.16-2.81a7.38,7.38,0,0,0,4.77-2.15,6.82,6.82,0,0,0,2-4.65c.09-6.35,1.08-17.18,1.08-17.18h-22.33s-17.66,11.8-26.54,15.95c-3.72,1.74-4.14,3.25-4.42,7.09Z" fill="#20212e" fill-rule="evenodd"/><polygon points="1140.17 1570.52 1149.91 1541.13 1175.03 1544.76 1161.51 1573.72 1140.17 1570.52" fill="#84462a" fill-rule="evenodd"/><path d="M1222,1600.55h0a5.55,5.55,0,0,1-3.07-7.23l100.78-249.51a5.55,5.55,0,0,1,7.23-3.07h0A5.55,5.55,0,0,1,1330,1348l-100.78,249.51A5.55,5.55,0,0,1,1222,1600.55Z" fill="#f2f3fc" fill-rule="evenodd"/><path d="M1441.76,1359.3l3-30.28-81.7-6.61-60.35,25c-18.19,7.53-29.72,24-29.56,42.23l.41,45.65.12,0,9.35,116,36-1.71c16.93-60.54,29.82-93.92,19.63-145.45Z" fill="#03050f" fill-rule="evenodd"/><path d="M1108.07,1591.93a2.87,2.87,0,0,0,.71,2.31c.57.61,7.42,1.92,8.31,1.91,8.54,0,25-1,36.26-1a7.31,7.31,0,0,0,4.87-1.9,6.76,6.76,0,0,0,2.29-4.53c.42-6.33,2-17.1,2-17.1l-22.3-1.15s-18.23,10.87-27.32,14.56c-3.81,1.55-4.3,3-4.78,6.85Z" fill="#20212e" fill-rule="evenodd"/><rect x="1237.85" y="1288.74" width="15.18" height="308.22" rx="6.27" fill="#20212e"/><path d="M1319.12,1549.55s37.56-102.28,19.63-145.45l106-45.4s40.24-12,40.24-46.91l-47.87,16.61s-48.49,45-87.83,53.28-18.13,25.37-22.27,44-22.42,124.55-22.42,124.55Z" fill="#191919" fill-rule="evenodd"/><path d="M1311.84,1256s-14.26-9.76-23.37-5c-4.34,2.26-11.56,2.38-18,6-7.13,4-14.82,14.86-14.82,14.86s0,10.1,9,11.85c3.21.63,12.82-8,12.82-8,8.68,3.11,19.06,3,30.82.38Z" fill="#84462a" fill-rule="evenodd"/><path d="M1245.44,1255.23s-13.51-10.78-23-6.72c-4.49,1.93-11.7,1.52-18.43,4.64-7.4,3.42-15.87,13.73-15.87,13.73s-.78,10.07,8.06,12.48c3.15.86,13.37-7,13.37-7,8.43,3.73,18.78,4.43,30.71,2.64Z" fill="#84462a" fill-rule="evenodd"/><polygon points="1311.84 1256.04 1357.08 1252.71 1358.86 1276.84 1302.21 1273.71 1311.84 1256.04" fill="#84462a" fill-rule="evenodd"/><path d="M1324.77,1279H1192.44v-10h122.32a10,10,0,0,1,10,10Z" fill="#d0d1e8" fill-rule="evenodd"/><path d="M1512.62,1219a579.47,579.47,0,0,0-6.42-74.9c-4.9-31.41-11.24-55-22.26-68-6.72-7.93-13.23-11.2-20.7-14.48a121.77,121.77,0,0,0-23-7.48l-9.72-2.13c-20.46,61.29-37,101.23-30.88,181.4l-57,11.3.15,34.29H1454l22.15-7.19,21.05-11.78A58.3,58.3,0,0,0,1512.62,1219Z" fill="#f8f9fa" fill-rule="evenodd"/><path d="M1226.13,1279H1074.26l-45.82-102.12h148.39a5.38,5.38,0,0,1,4.91,3.18Z" fill="#20212e" fill-rule="evenodd"/><path d="M1413.81,1269s-1.35-3.29-15.37,24.65c-6.2,12.36-89.7,57.73-89.7,57.73s42.13,16.85,46.35,46.17c2.28,15.85,105.23-41.34,116.57-47.86,10.09-5.79,15.49-37.43,16.37-48.57,4.13-52.33,1.92-44.11,1.92-44.11Z" fill="#f8f9fa" fill-rule="evenodd"/><ellipse cx="1112.64" cy="1228.59" rx="10.87" ry="15.14" transform="translate(-436.99 1816.85) rotate(-68.62)" fill="#dedeff"/><rect x="1028.44" y="1279" width="408.73" height="17.76" rx="8.32" fill="#20212e"/><path d="M1373,1048.31a31,31,0,0,0-20.55,24.79c-3.34,20-3.68,51.63-3.68,51.63" fill="none" stroke="#20212e" stroke-linecap="round" stroke-linejoin="round" stroke-width="2.06"/><path d="M1336.82,1136.7a12,12,0,1,0,12-12A12,12,0,0,0,1336.82,1136.7Z" fill="none" stroke="#20212e" stroke-linecap="round" stroke-linejoin="round" stroke-width="2.06"/><path d="M1343.29,1136.51a5.52,5.52,0,1,0,5.51-5.51A5.52,5.52,0,0,0,1343.29,1136.51Z" fill="#cc93cc"/><path d="M1432.21,1091.37s8.55-36.37-19.29-44.42" fill="none" stroke="#20212e" stroke-linecap="round" stroke-linejoin="round" stroke-width="2.06"/><path d="M1416.16,1112.09c4.51-9.63,9.75-16.87,16-20.72,0,0,5.5,17.79,3.83,24.77" fill="none" stroke="#20212e" stroke-linecap="round" stroke-linejoin="round" stroke-width="2.06"/><path d="M1434.38,1122.61h0a4.17,4.17,0,0,0,5.15-2.83h0a4.17,4.17,0,0,0-2.83-5.14h0a4.17,4.17,0,0,0-5.15,2.83h0A4.17,4.17,0,0,0,1434.38,1122.61Z" fill="#20212e"/><path d="M1414.13,1115.24h0a4.17,4.17,0,0,0,5.14-2.83h0a4.15,4.15,0,0,0-2.82-5.14h0a4.17,4.17,0,0,0-5.15,2.83h0A4.17,4.17,0,0,0,1414.13,1115.24Z" fill="#20212e"/><path d="M1434.9,1120.12s-18.1,41.3-26.62,41.13-13-1.74-13-1.74" fill="none" stroke="#20212e" stroke-linecap="round" stroke-linejoin="round" stroke-width="2.06"/><path d="M1392.7,1162.64l2.45.36a4,4,0,0,0,4.55-3.38h0a4,4,0,0,0-3.38-4.55l-2.45-.36a4,4,0,0,0-4.55,3.38h0A4,4,0,0,0,1392.7,1162.64Z" fill="#20212e"/><path d="M1413.92,1113.24s-13.73,43-7.23,48.46,7.61,5.53,7.61,5.53" fill="none" stroke="#20212e" stroke-linecap="round" stroke-linejoin="round" stroke-width="2.06"/><path d="M1414.53,1172.46l-2.08-1.33a4,4,0,0,1-1.22-5.54h0a4,4,0,0,1,5.54-1.21l2.09,1.33a4,4,0,0,1,1.21,5.54h0A4,4,0,0,1,1414.53,1172.46Z" fill="#20212e"/><path d="M1403.94,1232.63l58.43-13.28s-.25-45.1-6.23-75.22" fill="none" stroke="#ddd" stroke-linecap="round" stroke-linejoin="round" stroke-width="2.06" fill-rule="evenodd"/><polyline points="1284.08 1245.47 1302.21 1221.45 1307.74 1157.41" fill="none" stroke="#ddd" stroke-linecap="round" stroke-linejoin="round" stroke-width="2.06" fill-rule="evenodd"/><path d="M1360.76,1008l10,56.69a19.23,19.23,0,0,0,31.62,11.13l5-4.34a24.63,24.63,0,0,0,7.44-25.29c-6.72-23.47-19-66.23-19-66.23l-35.07,28Z" fill="#84462a" fill-rule="evenodd"/><path d="M1359.75,955.64s-25.93,7.53-10.1,32.94,10.1-32.94,10.1-32.94Z" fill="#3d2213" fill-rule="evenodd"/><path d="M1352.47,974.41a29.85,29.85,0,0,1,36.46-23.56h0a30,30,0,0,1,22.35,34.59c-1.66,9-3.48,18.83-5,27.36a21.32,21.32,0,0,1-26,16.83c-5.28-1.29-9,8-14.29,7.48-21.37-1.94-20.33-25.34-18.21-36.82,1.46-7.92,3.17-17.17,4.78-25.88Z" fill="#84462a" fill-rule="evenodd"/><path d="M1395.1,977s-7.64,26.46,13.46,30.11c0,0,14.26-22.8,17.28-35.11,5.62-22.9-40.21-34.17-60.46-27s-11.25,26.68,29.72,32Z" fill="#3d2213" fill-rule="evenodd"/><path d="M1409.72,995.71c-3.71-1.53-8.3,1.07-10.25,5.8s-.54,9.81,3.17,11.34,8.3-1.07,10.25-5.8.53-9.81-3.17-11.34Z" fill="#84462a" fill-rule="evenodd"/><path d="M1353.81,1009.61l14.15,3.83s-2.89,9.58-9.48,6.94S1353.81,1009.61,1353.81,1009.61Z" fill="#fff" fill-rule="evenodd"/><path d="M1365.9,1037.11l3.34,19s16.1-17.82,18.41-22.84C1387.65,1033.26,1373.6,1041.16,1365.9,1037.11Z" fill="#3d2213" fill-rule="evenodd"/><path d="M864.36,1104l35.54,63.67,34.65-12.44,19.25,18.66-59.86,33.39a23.46,23.46,0,0,1-22.78-9.9l-41.46-60.21,36.14-18.37Z" fill="#442518" fill-rule="evenodd"/><path d="M891.8,1555.1c1.33-6.27,38.75-183,38.76-197.26,0-16.12-32.83-44.13-44.77-50.83l-45-20.84L751.73,1318l120.44,55.67c-21.26,47.23,5.61,118.12-1.61,181.69Z" fill="#442518" fill-rule="evenodd"/><path d="M831.62,1547.5c2.08-5.17,30-134.43,29-185.27-.29-14-7.48-26.88-20.05-35.79l-100.24-71-18.39,72.51,86.56,52.56c-14.23,47.38-4.83,107.82,3.76,169.94Z" fill="#442518" fill-rule="evenodd"/><path d="M890.66,1553.23l18.63,13.42a21.44,21.44,0,0,0,12.47,5.39l4.55.33a5.34,5.34,0,0,1,4.53,3.82h0c.93,2.92-.62,5.85-3.33,6.3l-50.1-2.15s-12-2.85-5.83-26.94Z" fill="#160a04" fill-rule="evenodd"/><path d="M829.38,1547s5,16.46,5.72,26.85a7.32,7.32,0,0,1-2.11,5.26,7.25,7.25,0,0,1-5.11,2.42l-10.86,0a5.76,5.76,0,0,1-4.21-1.67l-2.19-2.26c-3.66-3.75-2.49-8.15-1-14.32a137.92,137.92,0,0,0,2.39-13.61C820.93,1542,829.38,1547,829.38,1547Z" fill="#160a04" fill-rule="evenodd"/><path d="M821.72,1250.58s85.42,43.89,97.39,60.21c25,34,13,100.88,16.11,104.86,0,0-24.56,24.46-67,19.95-63.09-6.69-88.35.56-88.35.56s-8.12-50.6-28.89-63.43-56.64-29-55.07-60.25a538.85,538.85,0,0,1,7.2-61.9Z" fill="#1e2e7c" fill-rule="evenodd"/><path d="M814.22,958.71s38.68,23.58,16.86,66-29.37,9.7-29.37,9.7S791.65,974.24,814.22,958.71Z" fill="#7f533d" fill-rule="evenodd"/><path d="M753.7,965S682.27,1054.28,733,1139.1c41.33,69.11,117.93-44.57,116.2-63.5s19.41-29.32-9-62.39S753.7,965,753.7,965Z" fill="#7f533d" fill-rule="evenodd"/><path d="M703.16,1141.29c3.6-35.08-3.71-58.82,17.71-76.08,15.4-6.5,52.35-15.06,52.35-15.06l10.62-.84,4-.68c12.82-2.18,29.17,2.89,47.49,16,26.19,16.21,1.09,22.87,18.21,57.22,14.46,29-11.4,56-11.4,56l11.1,11a59.91,59.91,0,0,1,15.51,25.59l.15.49a60.29,60.29,0,0,1-2.95,40.71l-7.51,17.2S692.66,1297.35,703.16,1248Z" fill="#1e2e7c" fill-rule="evenodd"/><path d="M811,1008.94s-4.8,27.39-8.78,50.07a17,17,0,0,1-27.92,9.85l-4.38-3.83a21.73,21.73,0,0,1-6.59-22.32L780,984.21l31,24.73Z" fill="#442518" fill-rule="evenodd"/><path d="M763.41,984.43a14.74,14.74,0,0,1,12.15-16.95l28-4.61c8-1.32,14.4,4.42,17,12.16,3,9.13,4.76,28.82,4.3,43.26-.26,8.14-5.3,16.44-13.34,17.76-8.58,1.42-35.64-2.52-40.65-17.45-3.81-11.37-5.45-22.34-7.4-34.17Z" fill="#442518" fill-rule="evenodd"/><path d="M746,1007.9s-4.49-31.16,7.7-42.95c16.39-15.84,38.5-24.58,62.76-4.51,0,0,4,48.26-70.46,47.46Z" fill="#7f533d" fill-rule="evenodd"/><path d="M759.73,1017.83c3.28,5.84,9.86,8.37,14.69,5.66s6.08-9.65,2.81-15.48-9.86-8.37-14.69-5.66S756.45,1012,759.73,1017.83Z" fill="#442518" fill-rule="evenodd"/><polygon points="806.13 1035.94 803.83 1049.06 789.15 1031.04 806.13 1035.94" fill="#2b160b" fill-rule="evenodd"/><path d="M703.16,1141.29l11.53,69c5,19.29,4,22.38,22.24,36.5l58.22,36.84,10.65-15.33-51.32-55-16.71-79.16S722.28,1147,703.16,1141.29Z" fill="#442518" fill-rule="evenodd"/><path d="M720.87,1065.21s-32.51,20.65-21.87,101.58c0,0,61-12.47,62.33-12.46s-5.26-72.42-5.26-72.42Z" fill="#1e2e7c" fill-rule="evenodd"/><path d="M844.46,1072l30.73,47.4a12,12,0,0,1-7.23,18.21l-28.34,6.92Z" fill="#1e2e7c" fill-rule="evenodd"/><polyline points="743.05 1145.48 741.23 1106.47 738.8 1102.3" fill="none" stroke="#3d55aa" stroke-miterlimit="10" stroke-width="2" fill-rule="evenodd"/><line x1="855.76" y1="1127.18" x2="833.64" y2="1089.99" fill="none" stroke="#3d55aa" stroke-miterlimit="10" stroke-width="2"/><path d="M823.68,1330.84l69.73-10.73c7.58-1.16,9.32-6.56,3.88-12l-18-18c-5.45-5.43-16.11-8.91-23.69-7.75l-69.73,10.73c-7.58,1.17-9.33,6.56-3.88,12l18,18C805.44,1328.52,816.1,1332,823.68,1330.84Z" fill-rule="evenodd"/><path d="M964.88,1169.19s6.06-1.48,10.72-11.75c6-13.34,7.11-10.91-2.62-19-2.73-2.25-12.85-1.22-12.85-1.22L944,1149.5s-23.06,7.75-14.78,21.18C935.06,1180.15,964.88,1169.19,964.88,1169.19Z" fill="#442518" fill-rule="evenodd"/><path d="M858.72,1270.92s-14.07,11.44-28,5" fill="none" stroke="#3d55aa" stroke-miterlimit="10" stroke-width="2" fill-rule="evenodd"/><path d="M777.69,1200.85s23-49.38,63.58-23.25" fill="none" stroke="#3d55aa" stroke-miterlimit="10" stroke-width="2" fill-rule="evenodd"/><path d="M823.51,1268.94s6.19.81,11.93,10.51c7.47,12.61,8.26,10.07-.54,19.14-2.46,2.54-12.63,2.62-12.63,2.62l-17.38-10.43s-23.77-5.2-17-19.45C792.68,1261.28,823.51,1268.94,823.51,1268.94Z" fill="#442518" fill-rule="evenodd"/><polygon points="583.07 1153.9 611.82 1276.32 580.91 1257.97 567.73 1278.07 565.63 1239.75 553.1 1166.19 583.07 1153.9" fill="#3a241b" fill-rule="evenodd"/><path d="M545.09,1084.65s22.6,19.68,39.14,67.76L551.16,1203Z" fill="#152063" fill-rule="evenodd"/><polygon points="655.65 1595.22 677.09 1590.77 678.52 1557.71 653.96 1562.24 655.65 1595.22" fill="#3a241b" fill-rule="evenodd"/><path d="M567,1244.94s21.57,62,20.08,74a87,87,0,0,1-15.14,38.66l-105.81-.83a49,49,0,0,1-47.88-57.29c0-.15,0-.29.07-.43q.74-4.26,1.31-8.55c1.82-13.4,7.25-53.59,7.25-53.59,32.87,21.31,92.43,30.08,144.62,16Z" fill="#03050f" fill-rule="evenodd"/><path d="M514.89,1069.4c-13.16,19.85-28.6,5.24-33.73-1.79-.81-1.11-22.58,7.12-24.37,8.36-27.68,19.09-31.28,101-36.22,130.6-2.3,13.74-15.19,60-8.32,72,2.28,4,23.88.93,28.13,1.69,18.05,3.21,98.93,9.49,110-2.9s2.76-35.21,4.89-49.77c11.2-76.51-10.22-142.89-10.22-142.89Z" fill="#152063" fill-rule="evenodd"/><path d="M677.09,1590.77l20.47,13.77a23.52,23.52,0,0,0,14,5.41l5.22.25a5.39,5.39,0,0,1,4.94,3.93h0a5.39,5.39,0,0,1-4.28,6.77l-57.46-1.05s-13.56-2.73-4.8-28.44Z" fill-rule="evenodd"/><polygon points="591.1 1595.22 612.53 1590.77 613.97 1557.71 589.41 1562.24 591.1 1595.22" fill="#3a241b" fill-rule="evenodd"/><path d="M612.53,1590.77,633,1604.54a23.52,23.52,0,0,0,14,5.41l5.21.25a5.4,5.4,0,0,1,5,3.93h0a5.39,5.39,0,0,1-4.28,6.77l-57.46-1.05s-13.56-2.73-4.8-28.44Z" fill-rule="evenodd"/><path d="M522.71,1032.31s-5.94,33.7-10.87,61.62A20.91,20.91,0,0,1,477.47,1106l-5.38-4.72a26.74,26.74,0,0,1-8.09-27.48l20.59-72,38.12,30.47Z" fill="#3a241b" fill-rule="evenodd"/><path d="M523.81,975.45s28.17,8.17,11,35.79-11-35.79-11-35.79Z" fill="#3d2213" fill-rule="evenodd"/><path d="M531.72,995.85a32.43,32.43,0,0,0-39.62-25.61h0a32.6,32.6,0,0,0-24.3,37.58c1.81,9.78,3.78,20.48,5.49,29.75a23.18,23.18,0,0,0,28.3,18.29l17.49-4.29a23.93,23.93,0,0,0,17.83-27.6c-1.59-8.61-3.44-18.66-5.19-28.12Z" fill="#3a241b" fill-rule="evenodd"/><path d="M485.39,998.6s8.3,28.75-14.63,32.72c0,0-15.5-24.77-18.78-38.15-6.11-24.88,43.7-37.14,65.71-29.32s12.22,29-32.3,34.75Z" fill-rule="evenodd"/><path d="M469.5,1019c4-1.66,9,1.16,11.14,6.3s.58,10.67-3.45,12.33-9-1.16-11.14-6.3-.58-10.67,3.45-12.33Z" fill="#3a241b" fill-rule="evenodd"/><path d="M537,1023.91c1.2-2.72,13.66,38.74-12.7,42.68s-39-5.57-47.5-53.58c0,0,14.77,28.52,30.4,27.9,32.65-1.28,28.35-13.73,29.8-17Z" fill-rule="evenodd"/><path d="M501.74,995.32s55.51-12.43,38.91-35.46c-15.36-21.29-47.72,32.82-57.25,25.15Z" fill-rule="evenodd"/><path d="M530.26,1034.1l-15.38,4.16s3.14,10.41,10.3,7.54S530.26,1034.1,530.26,1034.1Z" fill="#fcf0db" fill-rule="evenodd"/><path d="M683,1569.68c-1.48-15.24,21.28-130,20.55-181.9-.2-14.36-6.81-26.18-18.42-33l-100.9-57.55L498.81,1361l139.68,59.35c-7.65,39.21-1.76,98.07,11.91,151.91Z" fill="#03050f" fill-rule="evenodd"/><path d="M450.32,1354.07l5.63-23.31,81.14-5.47L597,1352.06c18.06,8.07,29.51,25.26,29.35,44.07l-.4,47.1-.12-.07-5.27,129.09H583.25c-16.82-62.74-30.83-116.09-25.57-164.71Z" fill="#03050f" fill-rule="evenodd"/><path d="M553,1180.84c-15.69,41.85-132.61-3.07-119.32-23.17,18.55-28-8.14,19.35-13.08,48.9-2.3,13.74-15.19,60-8.32,72,2.28,4,11.5,36.06,15.82,36.22,57.24,2.06,152.2-1.3,156.16-17.47,5.58-22.77-22.81-79.67-24.69-94.26C554.67,1165.16,553,1180.84,553,1180.84Z" fill="#152063" fill-rule="evenodd"/><path d="M511.15,1300.73l35.46,18.86s23.3,23.28,7.35,32-20.64-4-23.48-7.66S514,1341.08,500.8,1316Z" fill="#3a241b" fill-rule="evenodd"/><path d="M376.09,1189.78V1259a47.93,47.93,0,0,0,23.34,41.26c26.9,16,72.69,37,113.93,26.63l3.16-23.66-92.59-44.86,1.51-90.21Z" fill="#3a241b" fill-rule="evenodd"/><path d="M456.79,1076s-28.05,4.37-52.29,30.44c-18.14,19.5-34,52.78-35.22,96.6,0,20.11,74.63,20.11,74.63,0Z" fill="#152063" fill-rule="evenodd"/><path d="M626.39,1396.13s4.87-38.16-16-49.74S558.55,1319,558.55,1319" fill="none" stroke="#2b2b2b" stroke-linecap="round" stroke-linejoin="round" stroke-width="1.38" fill-rule="evenodd"/><path d="M556.44,1192.61a303.18,303.18,0,0,1-7.67-40.91" fill="none" stroke="#3d55aa" stroke-miterlimit="10" stroke-width="2" fill-rule="evenodd"/><polyline points="431.95 1214.42 435.02 1159.37 431.95 1155.22" fill="none" stroke="#3d55aa" stroke-miterlimit="10" stroke-width="2" fill-rule="evenodd"/><path d="M634.17,1304.9s5.47,3.25,6.25,15.93c1,16.5,3,14.06-9.72,20.49-3.56,1.8-13.23-2-13.23-2L606,1321.37s-20-14.73-6.75-27.53C608.64,1284.8,634.17,1304.9,634.17,1304.9Z" fill="#3a241b" fill-rule="evenodd"/><path d="M587.06,1215.47s31.09,24.24,34.77,91.15L595.49,1305l-17.39-48.47Z" fill="#3a241b" fill-rule="evenodd"/></svg>