<svg xmlns="http://www.w3.org/2000/svg" xmlns:xlink="http://www.w3.org/1999/xlink" viewBox="0 0 322.94 322.94"><defs><style>.cls-1{fill:none;}.cls-2{fill:#bcbcbc;}.cls-3{clip-path:url(#clip-path);}.cls-4{fill:#3c3f44;}.cls-5{fill:#191a1e;}.cls-6{fill:#2b1506;}.cls-7{fill:#b8bec1;}.cls-8{fill:#e4ad81;}.cls-9{fill:#d79561;}.cls-10{fill:#152063;}.cls-11{fill:#0b1547;}.cls-12{fill:#dfe9f4;}.cls-13{fill:#b6c5d3;}.cls-14{fill:#fff;}.cls-15{fill:#c6d4e0;}.cls-16{fill:#9fafbc;}.cls-17{fill:#a3a39d;}.cls-18{fill:#ebb486;}.cls-19{fill:#e88282;}.cls-20{fill:#a33;}.cls-21{fill:#f2b1b1;}.cls-22{fill:#af734a;}.cls-23{fill:#ce956b;}.cls-24{opacity:0.45;}.cls-25{fill:#ebb386;}.cls-26{fill:#ebb286;}.cls-27{fill:#ebb186;}.cls-28{fill:#ebb086;}.cls-29{fill:#ebaf85;}.cls-30{fill:#eaae85;}.cls-31{fill:#eaad85;}.cls-32{fill:#eaac85;}.cls-33{fill:#eaab85;}.cls-34{fill:#eaaa85;}.cls-35{fill:#eaa985;}.cls-36{fill:#eaa885;}.cls-37{fill:#eaa784;}.cls-38{fill:#eaa684;}.cls-39{fill:#eaa584;}.cls-40{fill:#eaa484;}.cls-41{fill:#eaa384;}.cls-42{fill:#e9a384;}.cls-43{fill:#e9a284;}.cls-44{fill:#e9a184;}.cls-45{fill:#e9a084;}.cls-46{fill:#e99f84;}.cls-47{fill:#e99e83;}.cls-48{fill:#e99d83;}.cls-49{fill:#e99c83;}.cls-50{fill:#e99b83;}.cls-51{fill:#e99a83;}.cls-52{fill:#e99983;}.cls-53{fill:#e99883;}.cls-54{fill:#e89783;}.cls-55{fill:#e89682;}.cls-56{fill:#e89582;}.cls-57{fill:#e89482;}.cls-58{fill:#e89382;}.cls-59{fill:#e89282;}.cls-60{fill:#f7d6bf;}.cls-61{fill:#656868;}</style><clipPath id="clip-path"><rect class="cls-1" width="322.94" height="322.94" rx="64.41"/></clipPath></defs><g id="background"><rect class="cls-2" width="322.94" height="322.94" rx="64.41"/></g><g id="image"><g class="cls-3"><path class="cls-4" d="M117.76,394.63s2.35,52.49,1.57,61.12-.79,17.26-.79,17.26,12.49,0,22.64,4.31,49.92,3.69,60.85.81,16-5.75,16-5.75,2-24.54,3.53-38.92c2.7-24.84,6.81-55.79,6.14-76.64-.78-24.45-2.23-49.91-2.23-49.91l-7.81-15.82-85.84-10s-16,38.83-14.49,56.09S117.76,381,117.76,394.63Z"/><path class="cls-5" d="M225.49,306.91l-7.81-15.82L130.54,286s-14.75,34-13.19,51.22.41,43.77.41,57.43c0,0,2.35,52.49,1.57,61.12s-.79,17.26-.79,17.26a70.92,70.92,0,0,1,18.84,2.92c1.29-23.43,3.71-64.83,5.36-77,2.34-17.26,24.2-30.92,49.18-38.83,13.58-4.3,26.23-10.39,35.8-17.68C226.52,324.26,225.49,306.91,225.49,306.91Z"/><path class="cls-6" d="M133.18,96.54c0,5.56-2.78,17.79-8.89,23.91s-13.9,18.9-7.78,33.91,23.34,41.14,23.34,41.14-1.11,5.56,11.68-21.13,13.9-18.34,11.67-35S133.18,96.54,133.18,96.54Z"/><path class="cls-7" d="M138.19,134.6a61.26,61.26,0,0,0,7.73.47s27.46,1.72,29.28,5c3.83,7-23.83,16.76-30.64,13.44s-8.07-11.73-9.1-14.69S135.46,134.13,138.19,134.6Z"/><path class="cls-8" d="M138.67,133.47c1-8.17-.68-19.19-.68-19.19s13,7.48,19.43,8.17a31.6,31.6,0,0,0,16.7-2.48s-2.38,16.7,1.71,21.67,7.5,8.89,7.5,8.89,5.79,32.34,5.45,43S182.65,207,173.1,201s-38.52-37.67-42.27-43.36A28.44,28.44,0,0,1,126.4,147S137.65,141.64,138.67,133.47Z"/><path class="cls-9" d="M138.81,124.37c-.3-3.85-.82-10.09-.82-10.09s13,7.48,19.43,8.17a31.6,31.6,0,0,0,16.7-2.48s-.49,10.41-.67,12.33c-3.48,5.22-10.66,14.14-22.15,7.11C146.19,136.29,141.65,130.61,138.81,124.37Z"/><path class="cls-9" d="M174.81,139.51c0,2.84.34,9.24,1.7,13.5s2.39,6.76,3.75,11.38,1,10,.68,15.28c0,0,2.39-2.13,3.41-9.6a31.15,31.15,0,0,0-2-17.41C180.26,147.68,174.81,139.51,174.81,139.51Z"/><path class="cls-10" d="M174.81,139.51s4.77,14.57,5.79,18.48,1,12.08.68,15.28-1.36,9.95-.68,11.73c0,0-6.82-8.89-10.23-12.08s-16.36-9.24-19.43-12.44-14.65-13.86-14-21-3.41,2.13-3.41,2.13L126.4,147A119.94,119.94,0,0,0,138,173.63c10.23,17.41,39.2,50.46,50.45,56.5s13-6,12.27-21.32-9.2-37.32-12.61-47.27-7.16-13.86-8.52-16.34A30.49,30.49,0,0,0,174.81,139.51Z"/><path class="cls-11" d="M147.19,159.77c3.75.71,14.66,5.68,19.1,8.88s12.61,14.93,12.61,14.93-9.92-9.05-16-11.73c-6.48-2.84-8-2.3-9.21.35a44.54,44.54,0,0,0-3.41,11.38A75,75,0,0,1,145.83,169C144.13,160.48,143.45,159.06,147.19,159.77Z"/><path class="cls-11" d="M191.85,172.2s-4.77-5.68-6.48-3.55a48.9,48.9,0,0,0-4.09,7.46s0-7.81,1.71-12.08S188.78,167.58,191.85,172.2Z"/><path class="cls-10" d="M180.6,185s-8.18-11.73-11.59-14.57-12.61-6.75-16-9.6-12.27-10.66-14-15.28a24.43,24.43,0,0,1-.93-10.2s-2.82,1.67-3.5,3.09-3.07,5.69-3.07,5.69,8.87,18.84,9.89,22,8.18,15.28,8.18,15.28,1.71-14.21,6.14-13.86,7.66,2.06,11.25,4.27C174.47,176.47,180.6,185,180.6,185Z"/><path class="cls-10" d="M174.81,139.51s6.47,7.46,8.52,11,8.52,21.67,8.52,21.67-2.73-5-4.77-6.39-3.07-.36-4.09,2.49a72.84,72.84,0,0,0-1.71,7.81s1.37-12.79,0-16.7S174.81,139.51,174.81,139.51Z"/><path class="cls-11" d="M187.6,167.76a177,177,0,0,1,3.1,19.58c.17,3.59,1.72,17.77,2.41,24.78s2.76,19.57,2.76,19.57a47.9,47.9,0,0,0,2.58-21.37,146.27,146.27,0,0,0-5.51-29.09C190.35,172.25,187.6,167.76,187.6,167.76Z"/><path class="cls-12" d="M210.94,161.19c.7-2,7.5,2.84,9.89,6.39s7.84,13.15,9.54,16,4.43,3.91,4.43,6.75,1.71,6.75,3.41,7.46,2,0,4.09,4.27,3.41,8.88,4.09,10.3,5.8,16.7,8.18,19.19,7.84,12.08,8.53,16.35,5.11,22-1,26.65-27.95,4.27-37.49-13.5c0,0-1.37-14.57-4.44-21s-3.4-28.07-6.81-37.67S206.51,174,210.94,161.19Z"/><path class="cls-13" d="M214,165.81s3.41,6.39,3.07,12.44-.68,13.15,1.36,15.28,2.39-5.69,4.77-7.82-.68,3.2-1,9.24-.68,13.5,1.36,8.53,7.84-15.28,9.55-14.22,0,2.14-1.71,5.33A54.93,54.93,0,0,0,226.62,206c-1.7,5.69-1.36,8.89,0,7.82s4.09,0,3.75,4.62,6.82,0,10.91,1.42,4.09,2.14,2.39,5.69,5.79,4.62,6.81,8.17-.68,3.2-3.75,3.91,6.48,4.62,7.5,8.18-20.11,1.42-27.61,3.19c-1.38.33-2.6.61-3.69.76a42.86,42.86,0,0,0-2.79-9.64c-3.06-6.4-3.4-28.07-6.81-37.67-.6-1.69-1.2-3.68-1.76-5.86l.05-.18C209.12,186.06,214,165.81,214,165.81Z"/><path class="cls-12" d="M108,451.51c.94-6.78,2.17-67.42,5-115.39,1.07-18.46,5-29.23,8.2-42s10-49.28,3.64-66.81-9.09-40.75-15.91-47.39S98,169,98,169s3.24-4.62,7.73-6.64C116.15,157.69,122,151,126.4,147a110.34,110.34,0,0,0,8.18-8.53S135,150.67,147,163.09c4.38,4.55,19.09,22.46,26,32a339.59,339.59,0,0,1,22.27,34.11s.91-6.63-1.36-28.9-6.37-31.27-9.09-41.22-3.19-12.32-3.19-12.32,4.55,4.26,8.64,5.68,10,4.27,12.27,4.74,6.59,1.54,9.43,3.67c3.8,2.85,2.39,21,3.3,26.66s8.18,28.43,9.54,37.43,0,13.74.91,34.11S231,299.45,231,314.8c0,12.16,4,32.52,5.38,53.55.72,10.95,6.32,60.48,8.1,72.16,0,0-.15,7.89-15.48,9s-21.52,1.23-31.8,2.84-15.32,5.11-43.71,6.24S108,451.51,108,451.51Z"/><path class="cls-14" d="M212.31,193.48s8.71,20.44,9.47,26.5-.76,21.19-5.3,15.89-6.44-.75-11.36-.37S204,226.79,204,214.3,205.88,185.53,212.31,193.48Z"/><path class="cls-14" d="M155.16,200.67s23.43,16,26.87,23.47c4.17,9.08,3.07,16.05-5.29,12.49-17.79-7.57-19.31,2.27-23.47-2.27s-11-26.12-12.87-32.17S146.83,195.75,155.16,200.67Z"/><path class="cls-15" d="M190.71,155.5l15.23,15.17a47.2,47.2,0,0,0-6.59-2.37c-2.27-.48-.91,1.89-.91,1.89l10.68,15.87a47.19,47.19,0,0,0-5,5.93c-3.18,4.73-8.63,30.08-8.41,33.88,0,0,1.14-19.67-.45-33.17S188,160,186.85,156.21,190.71,155.5,190.71,155.5Z"/><path class="cls-15" d="M194.35,227.76s-12.5-22-19.32-30.09-23.86-30.32-28.18-36-11.36-18.48-11.59-20.37-9.09,3.55-9.09,3.55l5.23,38.38,14.32-8.29L144.13,191s5.68,1.9,11.59,4c10.41,3.75,26.36,20.14,30,24.16S194.35,227.76,194.35,227.76Z"/><path class="cls-12" d="M174.35,138.85s5.91,4.1,12.73,9.78,18.63,19.9,18.63,19.9-9.09-2.84-11.36-2.84c0,0,2.63,4.42,4.55,7.11,5.22,7.34,8.18,11.84,8.18,11.84s-3.18,1.9-6.82,10.9c-1.58,3.91-2.27,8.53-3.18,16.11s-1.82,17.53-1.82,17.53-1.25-32.57-4.54-49.75S174.35,138.85,174.35,138.85Z"/><path class="cls-12" d="M195.26,229.18A207.23,207.23,0,0,0,178.9,201.7c-12.28-17.53-16.39-21.83-23-30.33-8.48-11-15.19-18.51-17.72-23.69S135,138,136.4,134.89a64.9,64.9,0,0,0-5.23,4.74l-5,5.21,6.37,36,15.91-10.42s-3.19,14.45-3.19,18.71c0,0,10.46,2.61,18.41,7.58C186,210.7,195.26,229.18,195.26,229.18Z"/><path class="cls-13" d="M204,451.24l-4,1.14c2.18-16-6.42-159.21-6.45-160-.42-4.11.14-14.44.69-24.43.34-6.38.67-12.41.67-15.8,0-8.42-.34-22.81-.34-23l1.36,0c0,.14.34,14.55.34,23,0,3.43-.32,9.48-.67,15.88-.52,9.47-1.1,20.2-.69,24.25C195.07,295.61,202.85,433.07,204,451.24Z"/><path class="cls-15" d="M123,183.93c5.46,5.69,10.23,27.72,13,31.27s-.69-7.81-2-14.21-4.77-17.06,1.36-5,10.23,30.57,13,39.09,6.13,12.8,8.86,7.82,9.54-.71,18.41,4.27,20.11,5,25.22.71,4.78-6.4,10.23-10.66-.68,6.39,2.05,9.95,7.81-7.84,9.82-13.14c2.57-6.82,2-6.47.82-14.85.53,2.21.94,4.17,1.17,5.72,1.37,9,0,13.74.91,34.11s3,21.6,3.86,32.64c.24,3.22,3,36.09,3.23,42-4.84-12.12-9.91-16.46-42.23-2.73-13.82,5.88-50.34-10.14-62.81-4.17A67.63,67.63,0,0,0,113,336.12c0-.27,0-.54,0-.8.46-18.48,5-28.43,8.18-41.22s10-49.28,3.64-66.81-9.09-40.75-15.91-47.39l-1.35-1.31C111.37,174.1,119,179.77,123,183.93Z"/><path class="cls-16" d="M229.84,296.52c-3.41,0-13.1,3.26-14.47,4.33s-2.38,11.73-5.79,15.63-19.77-3-34.43-2.48c-19.7.65-48.26-2.29-57.07-8.81,1-3.65,2.13-7.24,3.09-11.09,2.34-9.4,6.63-31.55,6.23-49.61,5.37-6.79,10.93-12.58,10.93-12.58a82.9,82.9,0,0,1,8.86,11.37c4.1,6.4,7.16,8.53,11.59,7.82s19.78.35,30,3.2c7.46,2.07,25.05.18,36.81,1.75a25.25,25.25,0,0,0,.12,3C228,273.35,229,286.28,229.84,296.52Z"/><path class="cls-8" d="M197.65,277.39s8.18-4.26,10.22-6.75,8.18-16.34,10.91-24.16c1.69-4.84,6.31-14,9-17.77a29.07,29.07,0,0,1,4.27-5c2.72-2.48,5.45-4.62,6.13-2.48s-1.7,5.68-2.73,7.1-3.4,4.62-3.75,6a40.56,40.56,0,0,1-2.38,5.34s4.94-6.58,7-9.42,6.3-9.78,8.35-8.35.34,4.62-1.37,7.81-4.09,7.47-5.11,8.89-3.75,8.17-3.75,8.17,4.09-6.75,7.5-11.9c2.52-3.82,5.12-6.93,6.82-4.8.79,1-.68,5.69-2.05,7.46a45.81,45.81,0,0,0-3.41,6.4s2.73-4.62,4.78-4.62,1.7,2.49,0,5c-1.33,1.94-3.75,5.69-3.75,5.69s-4.43,8.17-7.16,14.93a54.87,54.87,0,0,1-10.57,16.7c-3.75,3.91-11.25,8.53-14.32,11s-14.31,6-14.31,6,2.72-8.89,1.7-13.86A46.33,46.33,0,0,0,197.65,277.39Z"/><path class="cls-9" d="M199.69,284.86a46.33,46.33,0,0,0-2-7.47s8.18-4.26,10.22-6.75a52.3,52.3,0,0,0,4.32-8.15c3.86,2.34,9.38,4.92,13.75,3.89,7.5-1.78,12.95-12.8,17.73-18.48a21.9,21.9,0,0,1,5-4.55,8.71,8.71,0,0,1-.6,1c-1.33,1.94-3.75,5.69-3.75,5.69s-4.43,8.17-7.16,14.93a54.87,54.87,0,0,1-10.57,16.7c-3.75,3.91-11.25,8.53-14.32,11s-14.31,6-14.31,6S200.71,289.83,199.69,284.86Z"/><path class="cls-8" d="M205.49,254.65s-16-.35-20.8-1.07-11.25-2.13-17-.71a165.44,165.44,0,0,0-19.43,6c-4.09,1.78-10.91,8.53-13.3,9.95s-5.45,6.05-6.47,8.89-.69,8.17,6.47,8.88,23.18-3.91,28.64-6.75,10.56-8.88,16-8.53,17.72,5.33,23.18,7.11a126.54,126.54,0,0,0,13,3.2s3.41-6,1-14.57S205.49,254.65,205.49,254.65Z"/><path class="cls-9" d="M179.58,271.35c-5.46-.35-10.57,5.69-16,8.53s-21.48,7.46-28.64,6.75-7.5-6-6.47-8.88,4.09-7.46,6.47-8.89c2.19-1.3,8.09-7.06,12.21-9.39,4.16,6,14.82,7.09,20.52,6.2,6.82-1.07,10.22-.71,14.66.35s9.54,2.84,9.54,2.84,2.73.36,3.41-4.62c.42-3.08-.73-7.27-1.67-10,5.8.27,11.9.41,11.9.41s8.86,3.91,11.25,12.44a22.8,22.8,0,0,1,.83,5.58c-.06,1.31-.16,2.68-.29,4.06a16.71,16.71,0,0,1-1.57,4.93,126.54,126.54,0,0,1-13-3.2C197.3,276.68,185,271.71,179.58,271.35Z"/><path class="cls-12" d="M206.17,313.29c1.36-2.85,3.07-7.47,3.41-15.29s-1-20.25-1-20.25-8.86-2.49-13.29-3.55-15-2.85-18.75-4.27-14.32-5-17.73-3.91,1.37-3.55-.34-5.33-6.13-2.84-8.52-5.33-3.75-7.46-6.13-13.86-9.6-23.77-13-30.92c-4.42-9.42-13.63-32.69-19.43-38.73S102,166.52,98,169s-6,9.59-8.06,22.39S91.63,222,94.7,233s8.86,27.72,13.29,35.89,8.18,20.26,9.89,24.17,1,4.26,7.84,6.4,17,3.91,24.2,5.33,28.64,3.55,39.2,5.33C196.06,311.25,206.17,313.29,206.17,313.29Z"/><path class="cls-15" d="M98,169q.3-.19.6-.36c-9,20-.84,50,1.22,59.7,2.73,12.8,5.46,19.55,10.57,32.7s11.93,9.24,15.68,7.1,7.16-2.84,3.75,4.27,0,5.33,6.82,1.06,11.25-3.9,16.36-2.13-18.75,12.44-23.18,17.06,6.48,9.95,14.32,9.95,31.36-3.2,39.54-6c6.07-2.11,17.77-1.09,25.91,0,.06,2,.07,3.94,0,5.66-.34,7.82-2.05,12.44-3.41,15.29,0,0-10.11-2-17-3.2-10.56-1.78-32-3.91-39.2-5.33s-17.38-3.2-24.2-5.33-6.14-2.49-7.84-6.4-5.46-16-9.89-24.17S97.77,244,94.7,233s-6.82-28.78-4.77-41.57S94,171.49,98,169Z"/><path class="cls-14" d="M154,264.26s4.54-2.27,1.13-4.16-9.08-7.57-11.35-15.14S130.94,211.65,124.88,198s-9.46-20.06-13.62-23.85-4.25,1.18-2.36,5.72,6.93,18.49,12.2,35.92c4.92,16.27.38,25,3.78,31.79s5.3,3.78,11.36,3.41,7.37,5.61,3,11.73-2.65,7.95,2.64,4.92S152.13,266.53,154,264.26Z"/><path class="cls-14" d="M195.28,276s-17.79-3.41-21.19-5.3-9.09-4.17-12.87-3a11,11,0,0,0-5.3,3s1.89,1.51-1.89,4.92,2.65,3,8.7,1.51,13.63-.75,19.3.76S197.18,279.78,195.28,276Z"/><path class="cls-16" d="M206.41,276.58c4.31.81,4,.78,6.46,1.35-.94,5.46-4.72,11.9-6.87,11.9-2.52,0-5.08-7.58-5.79-14.59C201,275.52,205.76,276.46,206.41,276.58Z"/><path class="cls-12" d="M202.08,253.94a18,18,0,0,1,5.11,8.88c1.36,5.69.34,14.57-.34,17.42s-1.36,9.59-1.36,9.59,8.52-2.84,14.31-3.2c6.89-.42,25.74-1.14,32.73-3.91,9.88-3.9,15-11,14.32-17.76s-2.05-16.35-8.87-19.9-6.81-1.07-9.88-.72-9.89.72-13.64,2.49S210.26,255.72,202.08,253.94Z"/><path class="cls-13" d="M264.46,268.15a7.17,7.17,0,0,1,2.41-1.39c-.31,6.19-5.33,12.4-14.34,16-7,2.77-25.84,3.49-32.73,3.91-5.79.36-14.31,3.2-14.31,3.2s.19-1.86.46-4a12.85,12.85,0,0,1,2.6-1.64c6.82-3.2,24.89-2.14,35.12-3.91S260.37,271.71,264.46,268.15Z"/><path class="cls-14" d="M254.08,247a2.46,2.46,0,0,0-.68-.36l-.74-.25c-.49-.14-1-.25-1.49-.34-1-.19-2-.32-3-.41a41.51,41.51,0,0,0-6.11-.07,25.36,25.36,0,0,0-3.1.35,21.93,21.93,0,0,0-3.1.76c-1,.31-1.93.66-2.88,1l-2.8,1.1-2.76,1.14-2.72,1.18c-1.81.8-3.61,1.6-5.39,2.34a26.4,26.4,0,0,1-2.63,1l-2.87.8c-1.92.55-3.84,1.1-5.76,1.76a53.15,53.15,0,0,0,6,.07c1,0,2-.1,3-.19a13.55,13.55,0,0,0,1.61-.24c.51-.1,1-.21,1.52-.34,1-.26,2-.55,2.93-.86s1.91-.64,2.86-1,1.87-.71,2.8-1.06l2.77-1.1,2.74-1.12c.9-.39,1.81-.74,2.7-1.1a27.24,27.24,0,0,1,2.63-.9c.9-.24,1.83-.46,2.77-.66,1.9-.39,3.83-.71,5.78-1,1-.14,1.95-.28,2.93-.39.5-.05,1-.1,1.48-.13A5.64,5.64,0,0,1,254.08,247Z"/><path class="cls-14" d="M182.7,210.05c-3.55-6.23-7.41-12.28-11.43-18.22-2-3-4.09-5.89-6.26-8.77-1.08-1.44-2.2-2.85-3.37-4.25l-3.51-4.07c-4.68-5.41-9.36-10.79-14-16.22a53.94,53.94,0,0,1-6.22-8.53,28.76,28.76,0,0,1-2.23-4.77,17.14,17.14,0,0,1-.69-2.55,12.27,12.27,0,0,1-.23-2.65,11.58,11.58,0,0,0-.18,2.7,17.55,17.55,0,0,0,.38,2.7,27.07,27.07,0,0,0,1.77,5.18,47.38,47.38,0,0,0,5.75,9.25c4.35,5.7,8.92,11.24,13.61,16.65l3.53,4c1.15,1.32,2.27,2.7,3.38,4.08,2.21,2.78,4.38,5.62,6.56,8.45C173.91,198.74,178.22,204.45,182.7,210.05Z"/><path class="cls-14" d="M183,146.21c1.33,1.84,2.77,3.55,4.24,5.22s3,3.29,4.56,4.88,3.15,3.13,4.75,4.66l1.21,1.13,1.21,1.13,1.21,1.12c.4.37.81.75,1.14,1.11l1-1.67c-.72-.09-1.43-.17-2.14-.22s-1.43-.09-2.15-.11-1.43,0-2.16.07c-.36,0-.72.08-1.07.14a4.49,4.49,0,0,0-1,.32,5.15,5.15,0,0,1,1,.07l1,.19,2,.48,2,.53c.67.19,1.35.36,2,.56l2.86.83-1.85-2.51c-.37-.5-.73-.93-1.09-1.36l-1.12-1.27-1.15-1.23-1.16-1.2q-2.35-2.39-4.84-4.62c-1.65-1.49-3.35-2.94-5.1-4.32A65.39,65.39,0,0,0,183,146.21Z"/><path class="cls-14" d="M194.82,169.38c.34.69.69,1.37,1.05,2.05s.71,1.35,1.08,2c.74,1.34,1.49,2.66,2.26,4s1.56,2.61,2.36,3.9,1.61,2.58,2.44,3.86l.12-1.59c-.48.49-.9,1-1.34,1.47s-.84,1-1.24,1.53a31.08,31.08,0,0,0-2.24,3.28,19.09,19.09,0,0,0-.95,1.79l-.21.47-.11.24-.09.23c-.13.32-.25.63-.36.94a37.67,37.67,0,0,0-1.1,3.78,48,48,0,0,0-1.18,7.69,33.37,33.37,0,0,0,.32,7.74,73.68,73.68,0,0,1,1.23-7.52c.54-2.46,1.18-4.89,1.92-7.27.39-1.19.78-2.37,1.24-3.51.11-.28.22-.56.34-.84l.19-.39.19-.4c.27-.53.55-1.06.87-1.58.63-1,1.32-2.05,2.06-3q.56-.75,1.14-1.47c.38-.48.79-1,1.17-1.4l.7-.8-.57-.79c-.88-1.24-1.78-2.47-2.68-3.69s-1.83-2.43-2.76-3.63-1.89-2.39-2.86-3.57c-.48-.59-1-1.18-1.47-1.76S195.34,170,194.82,169.38Z"/><path class="cls-14" d="M249.23,224.6a12.74,12.74,0,0,0-.34-1.74c-.13-.57-.29-1.14-.46-1.7-.32-1.11-.69-2.21-1.05-3.29-.74-2.18-1.53-4.31-2.21-6.42-.36-1-.6-2.06-.89-3.21s-.62-2.25-1-3.37a11.67,11.67,0,0,0-1.75-3.25,4.55,4.55,0,0,0-1.48-1.24,2.87,2.87,0,0,0-1.82-.29,3.18,3.18,0,0,1,1.38.89,4.38,4.38,0,0,1,.79,1.33,16.65,16.65,0,0,1,.84,3.14l.58,3.34c.05.29.11.57.16.85l.08.43.1.45c.14.6.3,1.18.48,1.75a37.71,37.71,0,0,0,2.85,6.45c.56,1,1.15,2,1.79,3S248.54,223.64,249.23,224.6Z"/><path class="cls-14" d="M229.84,186.89a5.14,5.14,0,0,0,0-2.14,10.53,10.53,0,0,0-.66-2.06,19.09,19.09,0,0,0-1-1.91c-.36-.61-.77-1.2-1.14-1.76a72.55,72.55,0,0,1-3.95-7l-.92-1.8-.95-1.83c-.17-.3-.34-.63-.56-1a11.06,11.06,0,0,0-.67-.93,13.67,13.67,0,0,0-1.53-1.6,18.38,18.38,0,0,0-3.5-2.48,15.45,15.45,0,0,0-1.95-.87,6.25,6.25,0,0,0-2.09-.4,8.48,8.48,0,0,1,1.73,1.07c.54.41,1.05.84,1.55,1.29a28.39,28.39,0,0,1,2.74,2.86,17.7,17.7,0,0,1,1.13,1.53c.17.26.32.52.46.78s.25.54.39.85l.86,1.87c.3.62.6,1.24.92,1.86a33.55,33.55,0,0,0,4.68,7l.35.39.35.37.67.74c.44.5.87,1,1.27,1.53A8.75,8.75,0,0,1,229.84,186.89Z"/><path class="cls-17" d="M148.07,223.27a12.43,12.43,0,0,0,5.42-1.25c4.13-2,6.1-7.6,5.55-15.84-.47-7-3.95-24.32-4.1-25.05l-2.37.47c0,.18,3.59,17.91,4.05,24.74.47,7.08-1.05,12-4.18,13.5-7.21,3.46-14.53-3-16.6-5.11l-1.71,1.71C136,218.3,141.56,223.27,148.07,223.27Z"/><path class="cls-17" d="M151.9,222.6h.43c3.2-.12,7.95-1.69,12.41-8.43l-2-1.33c-3.09,4.65-6.71,7.19-10.48,7.34-3.11.11-6.08-1.45-8.37-4.39-6.32-8.13-13.89-32.47-14-32.72l-2.32.72c.32,1,7.77,25,14.36,33.49C144.64,220.72,148.15,222.6,151.9,222.6Z"/><path class="cls-11" d="M128.91,186.1a1.77,1.77,0,0,0,.5-.07,1.89,1.89,0,0,0,1.32-2.32c-2.5-9-2.76-14.92.79-17.29,3.84-2.56,9.94-1.74,14,1.88,3.4,3,5.61,10.9,6.42,13.6a1.88,1.88,0,0,0,3.61-1.07c-.13-.44-3.25-10.79-8.13-15.14-5.35-4.76-12-5.54-17.22-2-5.08,3.39-6.1,10.27-3.12,21.05A1.89,1.89,0,0,0,128.91,186.1Z"/><path class="cls-11" d="M135.83,164s-.46,1.17-.43,1.17a1.88,1.88,0,0,0,1.79-2,84.19,84.19,0,0,0-3-13.47c-4.09-13.29-.24-13.68,4.37-15.3.3-2.12.48-2.57.21-3.83-2.7.63-7.83,3-9,7.49-.84,3.34-.26,7.82,1.91,14.53a96.31,96.31,0,0,1,2.49,10.84C134.27,164.46,134.83,164,135.83,164Z"/><path class="cls-17" d="M154.77,178.47a2.6,2.6,0,0,1-1.62.88,8.59,8.59,0,0,1-2,.13l1.08,3.7s.4,1.22,1.41,1.15a2.68,2.68,0,0,0,1.62-.41c.67-.4.81-1.21.47-2.69A20.64,20.64,0,0,0,154.77,178.47Z"/><path class="cls-17" d="M130.19,181.5s1,3.37,1,3.64a1.7,1.7,0,0,1-.34,1.68,5.83,5.83,0,0,1-2,.81A3.41,3.41,0,0,1,127.5,186c-.34-1-1-3.57-1-3.57a2.38,2.38,0,0,0,1.34.07A5.47,5.47,0,0,0,130.19,181.5Z"/><path class="cls-11" d="M137.55,219.35a2.2,2.2,0,0,0,.86-.72,2.36,2.36,0,0,0,.58-1.17,1.36,1.36,0,0,0-.63-1.21,5.26,5.26,0,0,1-1.7-2.29c-.54-1.08-2.47-2.51-4-1.3s-1.79,2.33-.89,3.59,2.24,1,3.32,1.88c.53.44,1.07.7,1.46,1A1,1,0,0,0,137.55,219.35Z"/><path class="cls-11" d="M163.44,215.83a2.29,2.29,0,0,1-1-.57,2.26,2.26,0,0,1-.76-1.06,1.37,1.37,0,0,1,.42-1.3,5.3,5.3,0,0,0,1.31-2.53c.35-1.15,2-2.89,3.68-1.93s2.16,2,1.47,3.39-2,1.34-3,2.41c-.45.52-.95.86-1.28,1.2A1,1,0,0,1,163.44,215.83Z"/><path class="cls-11" d="M216.43,229.33c-.28,5.73-4.8,10.25-10.12,10.09s-9.39-4.92-9.12-10.65,4.8-10.24,10.11-10.09S216.7,223.61,216.43,229.33Z"/><path class="cls-17" d="M216.51,229.13c-.21,5.44-4.28,9.7-9.09,9.52s-8.54-4.74-8.33-10.18,4.27-9.7,9.08-9.52S216.72,223.7,216.51,229.13Z"/><path class="cls-11" d="M215.78,228.38c-.13,3.49-2.74,6.22-5.83,6.1s-5.47-3-5.34-6.53,2.74-6.21,5.83-6.1S215.91,224.89,215.78,228.38Z"/><path class="cls-17" d="M214.52,228.33a4.36,4.36,0,1,1-4.14-5.05A4.64,4.64,0,0,1,214.52,228.33Z"/><path class="cls-17" d="M206,219.88l-.57-7.4s2.87-1.95,3.58-.66.55,8,.55,8S208.47,221.24,206,219.88Z"/><path class="cls-11" d="M207.45,216.54h.14a1.89,1.89,0,0,0,1.75-2,143.18,143.18,0,0,0-8.2-39.33c-11.8-30.92-26.85-40.19-27.42-40.57a21.67,21.67,0,0,0,.63,4.22c.89.74,12.94,8.45,24.25,38.07,1.52,4,6.18,17,7.54,36.63C206.21,214.55,206.47,216.54,207.45,216.54Z"/><path class="cls-18" d="M171.08,50.45c5,1.39,14.77,12.54,16,19.81s-.1,17.68-.59,21.33-3.51,19.54-6,25.24A32.85,32.85,0,0,1,170.52,130c-2.73,2.18-7,6.14-14.12,5.87-4.28-.16-9.74-3.71-13.09-7.22a51.38,51.38,0,0,1-6.75-8.94c-2.43-4.15-5.22-20.33-5.13-26.53s.21-23.33,1.76-29S144.73,43.18,171.08,50.45Z"/><path class="cls-19" d="M170.35,117.74s-2.31,1.82-2.91,2.43-2.67,4.13-9,4.26-8.13-2.56-8.74-3.41a34.26,34.26,0,0,0-2.43-2.67s-1.51-1.86.12-.85c2.55,1.58,8.87,2.43,10.33,2.31s5-.85,6.68-.85C167.07,119,170.35,117.38,170.35,117.74Z"/><path class="cls-20" d="M147.39,117.5c2.55,1.58,8.87,2.43,10.33,2.31s5-.85,6.68-.85c2.67,0,5.95-1.58,5.95-1.22a11.91,11.91,0,0,0-1.7,1.22,7.12,7.12,0,0,0-1.7.85,18.39,18.39,0,0,1-3.89.85c-1.21.24-3.64.85-5.1.61s-4.87-.72-5.59-.85A20,20,0,0,1,148.6,119a1.11,1.11,0,0,0-.76,0l-.57-.58S145.76,116.49,147.39,117.5Z"/><path class="cls-19" d="M170.35,117.74s-3.52.25-4.62.25c-1.82,0-3.52-.49-4.61-.49s-2.43.49-2.8.36a14.12,14.12,0,0,0-3.64-.36,25.25,25.25,0,0,1-4.25.24c-1.09-.12-3.53-.6-3.53-.6a31.24,31.24,0,0,0,4.26,2.18,54.77,54.77,0,0,0,7.28,1.1,20.81,20.81,0,0,0,3.41-.49c.48-.12,3.76-.61,4.86-.85A12.54,12.54,0,0,0,170.35,117.74Z"/><path class="cls-21" d="M164.28,122.24c.38-.39,1.58-1.22.61-1.22s-3.16.85-4.74,1.1-2.19.12-2.07,1,1,.61,2.55.36A8.45,8.45,0,0,0,164.28,122.24Z"/><path class="cls-21" d="M156.87,123.33c.59-.16,0-1.33-.73-1.46a24.72,24.72,0,0,1-3.28-.36c-.49-.24-1.34-.24-.85.48A4.92,4.92,0,0,0,156.87,123.33Z"/><path class="cls-22" d="M165.13,109.72a1.23,1.23,0,0,1-.85,1.63,7.77,7.77,0,0,1-2.09.43c-.36,0-.73,0-1.11.1a3.5,3.5,0,0,0-.59.13,3.24,3.24,0,0,0-.56.27,3.14,3.14,0,0,1-1.79.74,2.15,2.15,0,0,1-.88-.35,9.82,9.82,0,0,0-1-.46,10,10,0,0,0-2.21-.51l-.57,0c-.19,0-.4,0-.54,0a1.9,1.9,0,0,1-.93-.3,1.19,1.19,0,0,1-.52-.81,2.62,2.62,0,0,1,.08-1.07,2.38,2.38,0,0,0-.28,1.09,1.5,1.5,0,0,0,.5,1.07,2.25,2.25,0,0,0,1.09.49c.23,0,.39,0,.57.06a5.06,5.06,0,0,1,.52.08,10.16,10.16,0,0,1,2,.59,8.33,8.33,0,0,1,1,.44,2.85,2.85,0,0,0,1.15.44,2.39,2.39,0,0,0,1.26-.28,9.37,9.37,0,0,0,1-.59,4.65,4.65,0,0,1,2-.53,7.12,7.12,0,0,0,2.16-.66,1.7,1.7,0,0,0,.82-.85A1.34,1.34,0,0,0,165.13,109.72Z"/><path class="cls-14" d="M165.86,95.51c-.49-.12-.32-.57.24-1.33,1-1.34,3.52-3.41,4.74-3.65,2.88-.58,4.13,0,6.19,1.22a9.05,9.05,0,0,1,2.19,1.94s-2.31.61-2.8.85-3.15,1.46-4.85,1.34-3.65-.61-4-.61S165.86,95.51,165.86,95.51Z"/><path d="M173.91,90.4a3.35,3.35,0,0,1,0,5.1,7,7,0,0,1-2.34.38c-.66,0-1.35-.15-2-.25A3.37,3.37,0,0,1,168.29,93a3.14,3.14,0,0,1,.19-1.1,7.11,7.11,0,0,1,2.35-1.34A8.07,8.07,0,0,1,173.91,90.4Z"/><path class="cls-14" d="M173.63,95s1.22-1.58.85-2.31-.73-.37-.73.24S173,95.51,173.63,95Z"/><path class="cls-14" d="M170.11,94.78a3.35,3.35,0,0,1-.61-1.45c0-.61-.61-1.34-.73-.49S169.5,94.9,170.11,94.78Z"/><path class="cls-6" d="M165.87,95.46c-.39-.1-.16-.49,0-.76a5.7,5.7,0,0,1,.66-.81,13.85,13.85,0,0,1,1.6-1.36,16,16,0,0,1,1.76-1.14,5.21,5.21,0,0,1,.91-.41,4.32,4.32,0,0,1,.48-.11l.49-.08a6.72,6.72,0,0,1,3.79.81c.31.13.62.29.94.45a8.59,8.59,0,0,1,.91.47,17,17,0,0,1,1.73,1.21l.09-.08a6.34,6.34,0,0,0-1.32-1.78,10.65,10.65,0,0,0-1.81-1.31,6,6,0,0,0-2.17-.78,6.62,6.62,0,0,0-2.31.09l-.56.13c-.19.06-.34.1-.55.18a5.73,5.73,0,0,0-1,.56,14.24,14.24,0,0,0-1.73,1.34,13.17,13.17,0,0,0-1.51,1.57,7.71,7.71,0,0,0-.61.92,1.65,1.65,0,0,0-.19.54.42.42,0,0,0,.08.32.54.54,0,0,0,.27.14Z"/><path class="cls-6" d="M182.62,86.28c-1.46-.49-4.09-1.66-5.71-1.58-2.55.12-11.18,2.92-12.51,2.31s.12-1.82,2.06-2.92S174,82.63,176.55,83,182.62,86.28,182.62,86.28Z"/><path class="cls-18" d="M179.63,93.75s-1.31.18-2.26.36a21.46,21.46,0,0,1-7.56,1.31c-2.26,0-3.85-.21-4.35.24s1.85,1.54,2.21,1.6,4.86.27,5.41.18A10.5,10.5,0,0,0,179.63,93.75Z"/><path class="cls-14" d="M151.4,95.27c.49-.12.32-.57-.24-1.34-1-1.33-3.53-3.4-4.74-3.64-2.88-.58-4.13,0-6.2,1.21a9.06,9.06,0,0,0-2.18,2,28.05,28.05,0,0,1,2.79.85c.49.24,3.16,1.45,4.86,1.33s3.65-.6,4-.6S151.4,95.27,151.4,95.27Z"/><path d="M143.35,90.16a3.36,3.36,0,0,0,0,5.1,7,7,0,0,0,2.35.37c.66,0,1.35-.14,2-.24A3.35,3.35,0,0,0,149,92.73a3.68,3.68,0,0,0-.19-1.1,7.13,7.13,0,0,0-2.35-1.34A8.07,8.07,0,0,0,143.35,90.16Z"/><path class="cls-14" d="M143.63,94.78s-1.22-1.58-.86-2.3.73-.37.73.24S144.23,95.27,143.63,94.78Z"/><path class="cls-14" d="M147.15,94.54a3.37,3.37,0,0,0,.6-1.46c0-.6.61-1.33.73-.48S147.75,94.66,147.15,94.54Z"/><path class="cls-6" d="M151.38,95.21c.39-.09.16-.49,0-.75a5.82,5.82,0,0,0-.66-.81,12.32,12.32,0,0,0-1.61-1.36,15.64,15.64,0,0,0-1.76-1.15,5.4,5.4,0,0,0-.9-.4l-.48-.12-.49-.07a6.78,6.78,0,0,0-3.79.8c-.32.14-.63.3-.95.46s-.6.29-.9.46a19.43,19.43,0,0,0-1.74,1.21l-.09-.07a7,7,0,0,1,1.32-1.79,12.1,12.1,0,0,1,1.81-1.3,6,6,0,0,1,2.17-.78,6.93,6.93,0,0,1,2.32.08l.56.14c.18.06.34.1.55.18a7.48,7.48,0,0,1,1,.55,17.35,17.35,0,0,1,1.73,1.34A14.1,14.1,0,0,1,151,93.41a5.59,5.59,0,0,1,.6.92,1.83,1.83,0,0,1,.2.54.4.4,0,0,1-.08.31.44.44,0,0,1-.27.14Z"/><path class="cls-6" d="M134.63,86c1.46-.49,4.1-1.66,5.71-1.58,2.56.12,11.18,2.91,12.52,2.3s-.12-1.82-2.07-2.91-7.53-1.46-10.08-1.09S134.63,86,134.63,86Z"/><path class="cls-18" d="M137.62,93.46s1.31.17,2.26.35a21.34,21.34,0,0,0,7.56,1.31c2.25,0,3.85-.21,4.34.24s-1.84,1.55-2.2,1.6-4.86.27-5.42.18A10.47,10.47,0,0,1,137.62,93.46Z"/><path class="cls-18" d="M133,89.1s-.78-3.88-2.59-3-.9,5-.75,7.3.78,3.51,1.43,5.93a30.79,30.79,0,0,1,.81,5.58c0,1.82,1.23,1.44,1.23,1.44s-.43-4.73-.47-7.4S133,89.1,133,89.1Z"/><path class="cls-18" d="M186.21,89.69s1.27-3.74,2.95-2.64.26,5.07-.19,7.33-1.22,3.39-2.16,5.71a29.93,29.93,0,0,0-1.51,5.43c-.26,1.8-2.4,2-2.4,2s1-4.73,1.43-7.38S186.21,89.69,186.21,89.69Z"/><path class="cls-23" d="M172,61.55a22.09,22.09,0,0,1-9.58,9.13c-6.52,3-23,6.9-27.95,16.45,0,0-1.78-5.32,1-13.38S156,47.21,172,61.55Z"/><g class="cls-24"><path class="cls-18" d="M180.88,112.26a10.6,10.6,0,0,0,.43-6.59,14.12,14.12,0,0,0-2.48-5.21c-2-2.62-7.11-3.4-10.25-2-4,1.74-7.32,5.26-4.48,8.72s6.49,6.37,9.63,7.37S179.19,116.35,180.88,112.26Z"/><path class="cls-25" d="M168.63,98.47c-3.09,1.34-5.77,3.76-5.44,6.38a4.29,4.29,0,0,0,1,2.19q.66.81,1.38,1.56c2.55,2.66,5.51,4.81,8.12,5.63,3.09,1,5.37,1.79,7.05-2.2a10.25,10.25,0,0,0,.45-6.47,13.63,13.63,0,0,0-2.48-5.11C176.7,97.89,171.72,97.12,168.63,98.47Z"/><path class="cls-26" d="M168.67,98.51c-3,1.33-5.65,3.71-5.35,6.28a4.19,4.19,0,0,0,1,2.15c.43.53.89,1,1.37,1.53,2.5,2.58,5.42,4.69,8,5.48,3.05,1,5.29,1.74,7-2.15a10,10,0,0,0,.47-6.35,13.24,13.24,0,0,0-2.49-5C176.61,97.94,171.71,97.18,168.67,98.51Z"/><path class="cls-26" d="M168.72,98.55c-3,1.32-5.56,3.66-5.27,6.18a4,4,0,0,0,1,2.11c.42.52.88,1,1.35,1.49a20.66,20.66,0,0,0,7.88,5.35c3,.92,5.2,1.68,6.88-2.11a9.69,9.69,0,0,0,.49-6.23,12.65,12.65,0,0,0-2.5-4.91C176.51,98,171.71,97.24,168.72,98.55Z"/><path class="cls-27" d="M168.77,98.6c-2.94,1.29-5.46,3.59-5.19,6.06a3.88,3.88,0,0,0,.92,2.08c.42.51.87,1,1.34,1.46a20.53,20.53,0,0,0,7.76,5.2c3,.9,5.12,1.63,6.78-2.06a9.33,9.33,0,0,0,.51-6.1,12.38,12.38,0,0,0-2.49-4.82C176.41,98,171.7,97.31,168.77,98.6Z"/><path class="cls-28" d="M168.81,98.64c-2.89,1.28-5.35,3.54-5.1,6a3.72,3.72,0,0,0,.89,2,17.74,17.74,0,0,0,1.32,1.42,20.16,20.16,0,0,0,7.64,5.06c2.92.88,5,1.58,6.7-2a9,9,0,0,0,.53-6,11.84,11.84,0,0,0-2.5-4.72C176.32,98.09,171.7,97.37,168.81,98.64Z"/><path class="cls-29" d="M168.86,98.69c-2.84,1.26-5.25,3.48-5,5.85a3.68,3.68,0,0,0,.87,2,17.1,17.1,0,0,0,1.3,1.39,20,20,0,0,0,7.53,4.91c2.87.85,4.95,1.53,6.6-2a8.71,8.71,0,0,0,.55-5.85,11.38,11.38,0,0,0-2.5-4.62C176.22,98.14,171.7,97.43,168.86,98.69Z"/><path class="cls-30" d="M168.9,98.73c-2.78,1.24-5.15,3.42-4.94,5.74a3.59,3.59,0,0,0,.85,2,14.7,14.7,0,0,0,1.28,1.34,19.81,19.81,0,0,0,7.41,4.78c2.83.82,4.87,1.47,6.51-1.93a8.39,8.39,0,0,0,.57-5.73,11,11,0,0,0-2.5-4.52C176.13,98.19,171.69,97.49,168.9,98.73Z"/><path class="cls-31" d="M169,98.77c-2.74,1.23-5,3.37-4.86,5.64a3.43,3.43,0,0,0,.82,1.94,14.1,14.1,0,0,0,1.26,1.31,19.76,19.76,0,0,0,7.29,4.63c2.79.8,4.8,1.42,6.42-1.88a8.06,8.06,0,0,0,.59-5.6,10.66,10.66,0,0,0-2.5-4.43C176,98.24,171.69,97.55,169,98.77Z"/><path class="cls-31" d="M169,98.82c-2.69,1.21-4.95,3.31-4.78,5.53a3.33,3.33,0,0,0,.79,1.9,11.43,11.43,0,0,0,1.24,1.27,19.5,19.5,0,0,0,7.18,4.49c2.74.77,4.71,1.37,6.33-1.83a7.82,7.82,0,0,0,.61-5.48,10.28,10.28,0,0,0-2.51-4.33C175.94,98.29,171.69,97.61,169,98.82Z"/><path class="cls-32" d="M169,98.86c-2.64,1.2-4.84,3.25-4.69,5.42a3.22,3.22,0,0,0,.76,1.87,11.08,11.08,0,0,0,1.23,1.24,19.45,19.45,0,0,0,7,4.35c2.71.74,4.64,1.31,6.25-1.79a7.62,7.62,0,0,0,.63-5.36,10,10,0,0,0-2.52-4.23C175.84,98.34,171.68,97.67,169,98.86Z"/><path class="cls-33" d="M169.09,98.91c-2.59,1.17-4.75,3.19-4.62,5.31a3.17,3.17,0,0,0,.74,1.83,10.64,10.64,0,0,0,1.21,1.21,19.32,19.32,0,0,0,6.94,4.2c2.66.72,4.56,1.26,6.15-1.75a7.2,7.2,0,0,0,.65-5.23,9.66,9.66,0,0,0-2.51-4.13C175.75,98.39,171.68,97.73,169.09,98.91Z"/><path class="cls-34" d="M169.14,99c-2.55,1.16-4.65,3.14-4.54,5.21a3,3,0,0,0,.71,1.79,8.86,8.86,0,0,0,1.2,1.17,19.06,19.06,0,0,0,6.82,4.06c2.61.7,4.48,1.21,6.06-1.7a7,7,0,0,0,.67-5.1,9.34,9.34,0,0,0-2.52-4A8.31,8.31,0,0,0,169.14,99Z"/><path class="cls-35" d="M169.18,99c-2.49,1.15-4.54,3.09-4.45,5.1a2.94,2.94,0,0,0,.68,1.76,9.11,9.11,0,0,0,1.18,1.14,19,19,0,0,0,6.7,3.91c2.57.67,4.41,1.16,6-1.65a6.67,6.67,0,0,0,.69-5,9,9,0,0,0-2.52-3.94A8.23,8.23,0,0,0,169.18,99Z"/><path class="cls-36" d="M169.23,99c-2.44,1.12-4.45,3-4.37,5a2.8,2.8,0,0,0,.66,1.73,8,8,0,0,0,1.15,1.09,18.86,18.86,0,0,0,6.59,3.78c2.53.64,4.33,1.1,5.88-1.61a6.45,6.45,0,0,0,.71-4.86,8.72,8.72,0,0,0-2.52-3.84A8.12,8.12,0,0,0,169.23,99Z"/><path class="cls-36" d="M169.27,99.08c-2.39,1.11-4.34,3-4.29,4.89a2.72,2.72,0,0,0,.64,1.69,7.23,7.23,0,0,0,1.14,1.06,18.78,18.78,0,0,0,6.47,3.63c2.48.62,4.25,1.05,5.79-1.56a6.23,6.23,0,0,0,.73-4.74,8.52,8.52,0,0,0-2.53-3.74A8,8,0,0,0,169.27,99.08Z"/><path class="cls-37" d="M169.32,99.13c-2.34,1.09-4.24,2.91-4.21,4.77a2.64,2.64,0,0,0,.61,1.66,6.83,6.83,0,0,0,1.12,1,18.68,18.68,0,0,0,6.35,3.49c2.44.6,4.18,1,5.7-1.52a5.93,5.93,0,0,0,.75-4.6,8.12,8.12,0,0,0-2.53-3.65A7.92,7.92,0,0,0,169.32,99.13Z"/><path class="cls-38" d="M169.37,99.17c-2.3,1.08-4.15,2.85-4.13,4.67a2.54,2.54,0,0,0,.58,1.62,6.52,6.52,0,0,0,1.1,1,18.64,18.64,0,0,0,6.24,3.35c2.4.57,4.11.94,5.61-1.48a5.68,5.68,0,0,0,.77-4.48,7.77,7.77,0,0,0-10.17-4.67Z"/><path class="cls-39" d="M169.41,99.21c-2.24,1.06-4,2.8-4,4.57a2.4,2.4,0,0,0,.55,1.58,5.28,5.28,0,0,0,1.09,1,18.4,18.4,0,0,0,6.12,3.21c2.35.54,4,.89,5.51-1.43a5.44,5.44,0,0,0,.79-4.36,7.57,7.57,0,0,0-2.53-3.45A7.73,7.73,0,0,0,169.41,99.21Z"/><path class="cls-40" d="M169.46,99.26c-2.19,1-4,2.74-4,4.46a2.27,2.27,0,0,0,.52,1.54,5.3,5.3,0,0,0,1.07.92,18.56,18.56,0,0,0,6,3.06c2.31.52,4,.85,5.43-1.38a5.19,5.19,0,0,0,.81-4.23,7.42,7.42,0,0,0-2.54-3.37A7.62,7.62,0,0,0,169.46,99.26Z"/><path class="cls-41" d="M169.51,99.3c-2.15,1-3.85,2.69-3.89,4.35a2.22,2.22,0,0,0,.51,1.51,4.58,4.58,0,0,0,1.05.89,18.57,18.57,0,0,0,5.88,2.91c2.26.5,3.89.8,5.33-1.33a4.92,4.92,0,0,0,.83-4.11,7.19,7.19,0,0,0-2.54-3.27A7.5,7.5,0,0,0,169.51,99.3Z"/><path class="cls-42" d="M169.55,99.35c-2.09,1-3.75,2.62-3.8,4.24a2.12,2.12,0,0,0,.48,1.47,4.1,4.1,0,0,0,1,.85,18.63,18.63,0,0,0,5.77,2.78c2.22.47,3.82.74,5.24-1.3a4.71,4.71,0,0,0,.85-4,7,7,0,0,0-2.54-3.17A7.41,7.41,0,0,0,169.55,99.35Z"/><path class="cls-43" d="M169.6,99.39c-2,1-3.65,2.57-3.72,4.14a2,2,0,0,0,.45,1.44,4.33,4.33,0,0,0,1,.81,19,19,0,0,0,5.65,2.63c2.18.45,3.76.69,5.16-1.25a4.53,4.53,0,0,0,.87-3.86,6.89,6.89,0,0,0-2.55-3.07A7.31,7.31,0,0,0,169.6,99.39Z"/><path class="cls-44" d="M169.64,99.43c-2,1-3.55,2.52-3.63,4a2,2,0,0,0,.42,1.41,3.74,3.74,0,0,0,1,.77,18.87,18.87,0,0,0,5.53,2.49c2.13.43,3.69.65,5.06-1.2a4.25,4.25,0,0,0,.89-3.73,6.61,6.61,0,0,0-2.55-3A7.2,7.2,0,0,0,169.64,99.43Z"/><path class="cls-45" d="M169.69,99.48c-1.95,1-3.46,2.46-3.55,3.92a1.84,1.84,0,0,0,.39,1.37,3.56,3.56,0,0,0,1,.74,19,19,0,0,0,5.42,2.35c2.08.39,3.62.59,5-1.16a4.08,4.08,0,0,0,.91-3.61,6.43,6.43,0,0,0-2.56-2.88A7.08,7.08,0,0,0,169.69,99.48Z"/><path class="cls-46" d="M169.74,99.52c-1.9.94-3.36,2.4-3.48,3.82a1.77,1.77,0,0,0,.37,1.33,3,3,0,0,0,1,.7,19.41,19.41,0,0,0,5.3,2.21c2.05.37,3.56.55,4.88-1.11a3.86,3.86,0,0,0,.93-3.49,6.25,6.25,0,0,0-2.55-2.78A7,7,0,0,0,169.74,99.52Z"/><path class="cls-47" d="M169.78,99.57c-1.84.92-3.26,2.34-3.39,3.7a1.75,1.75,0,0,0,.34,1.3,2.8,2.8,0,0,0,1,.67,19.68,19.68,0,0,0,5.18,2.06c2,.35,3.5.5,4.79-1.07a3.68,3.68,0,0,0,.95-3.36,6.15,6.15,0,0,0-2.56-2.68A6.88,6.88,0,0,0,169.78,99.57Z"/><path class="cls-47" d="M169.83,99.61c-1.8.91-3.17,2.29-3.31,3.6a1.61,1.61,0,0,0,.32,1.26,2.39,2.39,0,0,0,.92.63,19.81,19.81,0,0,0,5.07,1.92c1.95.33,3.43.46,4.69-1a3.41,3.41,0,0,0,1-3.23c-.25-.9-1.39-1.84-2.56-2.59A6.76,6.76,0,0,0,169.83,99.61Z"/><path class="cls-48" d="M169.88,99.65c-1.75.9-3.07,2.24-3.23,3.5a1.49,1.49,0,0,0,.29,1.22,2.33,2.33,0,0,0,.91.6,20.9,20.9,0,0,0,4.94,1.78c1.91.3,3.38.41,4.61-1a3.27,3.27,0,0,0,1-3.11c-.25-.86-1.39-1.76-2.56-2.49A6.69,6.69,0,0,0,169.88,99.65Z"/><path class="cls-49" d="M169.92,99.7c-1.7.87-3,2.18-3.14,3.38a1.46,1.46,0,0,0,.26,1.2,2.31,2.31,0,0,0,.89.56,21.74,21.74,0,0,0,4.83,1.63c1.86.28,3.32.36,4.52-.93a3.13,3.13,0,0,0,1-3,5.74,5.74,0,0,0-2.57-2.39A6.59,6.59,0,0,0,169.92,99.7Z"/><path class="cls-50" d="M170,99.74c-1.65.86-2.88,2.12-3.07,3.28a1.41,1.41,0,0,0,.24,1.16,2,2,0,0,0,.87.52,22.56,22.56,0,0,0,4.72,1.49c1.82.26,3.26.32,4.42-.88a2.92,2.92,0,0,0,1-2.87c-.23-.77-1.37-1.61-2.57-2.29A6.48,6.48,0,0,0,170,99.74Z"/><path class="cls-51" d="M170,99.79c-1.6.84-2.78,2.06-3,3.17a1.31,1.31,0,0,0,.21,1.12,1.93,1.93,0,0,0,.86.49,24.27,24.27,0,0,0,4.59,1.35c1.78.23,3.21.27,4.34-.84s1.2-2.25,1.05-2.74c-.23-.73-1.37-1.55-2.58-2.2A6.35,6.35,0,0,0,170,99.79Z"/><path class="cls-52" d="M170.06,99.83a5.36,5.36,0,0,0-2.9,3.06,1.26,1.26,0,0,0,.18,1.09,1.65,1.65,0,0,0,.84.45,26.2,26.2,0,0,0,4.48,1.21c1.73.2,3.15.23,4.24-.8,1.26-1.17,1.21-2.17,1.07-2.61-.21-.69-1.36-1.47-2.57-2.1A6.26,6.26,0,0,0,170.06,99.83Z"/><path class="cls-52" d="M170.11,99.87a5.37,5.37,0,0,0-2.82,3,1.2,1.2,0,0,0,.15,1,1.52,1.52,0,0,0,.82.42,29.52,29.52,0,0,0,4.37,1.06c1.68.18,3.09.2,4.15-.75,1.27-1.14,1.22-2.09,1.09-2.49-.21-.64-1.35-1.4-2.58-2A6.15,6.15,0,0,0,170.11,99.87Z"/><path class="cls-53" d="M170.15,99.92a5.3,5.3,0,0,0-2.73,2.85,1.09,1.09,0,0,0,.13,1,1.34,1.34,0,0,0,.8.38,32,32,0,0,0,4.24.92c1.65.16,3,.16,4.07-.7,1.29-1.09,1.22-2,1.11-2.37-.2-.6-1.35-1.33-2.59-1.9A6,6,0,0,0,170.15,99.92Z"/><path class="cls-54" d="M170.2,100a5.42,5.42,0,0,0-2.66,2.74,1,1,0,0,0,.11,1,1.19,1.19,0,0,0,.78.35c1,.18,2.6.65,4.13.78s3,.12,4-.66c1.32-1.05,1.23-2,1.13-2.24-.19-.56-1.34-1.27-2.58-1.81A5.91,5.91,0,0,0,170.2,100Z"/><path class="cls-55" d="M170.25,100a5.35,5.35,0,0,0-2.58,2.63,1,1,0,0,0,.08,1,1.12,1.12,0,0,0,.76.3c1,.13,2.52.53,4,.64s2.93.09,3.88-.61c1.35-1,1.23-1.88,1.15-2.12-.19-.52-1.33-1.19-2.59-1.71A5.76,5.76,0,0,0,170.25,100Z"/><path class="cls-56" d="M170.29,100.05a5.36,5.36,0,0,0-2.49,2.53,1,1,0,0,0,0,.91c.14.17.4.18.75.27a23.35,23.35,0,0,0,3.89.49,6.2,6.2,0,0,0,3.79-.57c1.38-.94,1.24-1.79,1.17-2-.17-.47-1.32-1.12-2.59-1.61A5.68,5.68,0,0,0,170.29,100.05Z"/><path class="cls-57" d="M170.34,100.09a5.51,5.51,0,0,0-2.41,2.42.87.87,0,0,0,0,.88c.14.16.38.18.73.24.88.14,2.35.28,3.78.35a6.82,6.82,0,0,0,3.7-.53c1.41-.89,1.24-1.72,1.19-1.86-.17-.44-1.31-1.07-2.6-1.52A5.54,5.54,0,0,0,170.34,100.09Z"/><path class="cls-57" d="M170.38,100.14a5.45,5.45,0,0,0-2.32,2.31.83.83,0,0,0,0,.84c.13.15.36.18.72.2.84.05,2.26.16,3.65.21a7.56,7.56,0,0,0,3.61-.48c1.45-.82,1.25-1.65,1.21-1.74a5.32,5.32,0,0,0-2.59-1.42A5.44,5.44,0,0,0,170.38,100.14Z"/><path class="cls-58" d="M170.43,100.18a5.69,5.69,0,0,0-2.25,2.21c-.15.34-.17.63,0,.8s.34.2.69.17c.8-.08,2.17,0,3.54.06a8.57,8.57,0,0,0,3.52-.43c1.48-.75,1.25-1.57,1.23-1.62a5.53,5.53,0,0,0-2.6-1.32A5.35,5.35,0,0,0,170.43,100.18Z"/><path class="cls-59" d="M177,101.26a6.65,6.65,0,0,0-2.61-1.23,5.25,5.25,0,0,0-4,.2,5.79,5.79,0,0,0-2.17,2.09c-.3.62-.13,1,.62.9a26.94,26.94,0,0,1,3.43-.08,10.1,10.1,0,0,0,3.43-.38C177.3,102.09,177,101.26,177,101.26Z"/></g><g class="cls-24"><path class="cls-18" d="M136,112.91a10.66,10.66,0,0,1-1.6-6.42,14.14,14.14,0,0,1,1.52-5.56c1.52-3,6.39-4.62,9.72-3.83,4.24,1,8.14,3.87,6,7.77s-5.26,7.44-8.17,9S138.43,116.63,136,112.91Z"/><path class="cls-25" d="M136.06,100.9c1.53-2.88,6.3-4.53,9.58-3.75,4.16,1,8,3.79,5.88,7.63a26,26,0,0,1-2,3.13,19.52,19.52,0,0,1-6.07,5.65c-2.87,1.51-5,2.72-7.33-.9a10.3,10.3,0,0,1-1.59-6.3A13.46,13.46,0,0,1,136.06,100.9Z"/><path class="cls-26" d="M136.17,100.87c1.52-2.82,6.21-4.44,9.43-3.67,4.09,1,7.82,3.72,5.8,7.48a23,23,0,0,1-2,3.08,19.25,19.25,0,0,1-6,5.52c-2.83,1.48-4.9,2.66-7.24-.87a10,10,0,0,1-1.59-6.17A13.13,13.13,0,0,1,136.17,100.87Z"/><path class="cls-26" d="M136.27,100.84c1.53-2.76,6.12-4.35,9.3-3.59,4,1,7.64,3.65,5.71,7.33a20.74,20.74,0,0,1-1.93,3,19.45,19.45,0,0,1-5.93,5.4c-2.8,1.43-4.82,2.58-7.14-.85a9.68,9.68,0,0,1-1.59-6A12.8,12.8,0,0,1,136.27,100.84Z"/><path class="cls-27" d="M136.37,100.81c1.53-2.7,6-4.26,9.16-3.51,3.94,1,7.48,3.57,5.63,7.18a18.77,18.77,0,0,1-1.89,3,19.59,19.59,0,0,1-5.86,5.27c-2.76,1.4-4.75,2.51-7-.82a9.3,9.3,0,0,1-1.58-5.92A12.19,12.19,0,0,1,136.37,100.81Z"/><path class="cls-28" d="M136.48,100.78c1.52-2.63,5.94-4.17,9-3.42,3.87.93,7.32,3.49,5.54,7a16,16,0,0,1-1.85,2.92,19.14,19.14,0,0,1-5.79,5.14c-2.72,1.37-4.68,2.45-6.95-.8a9.05,9.05,0,0,1-1.58-5.78A11.8,11.8,0,0,1,136.48,100.78Z"/><path class="cls-29" d="M136.58,100.75c1.53-2.57,5.85-4.08,8.87-3.34,3.8.92,7.16,3.42,5.46,6.88a14.59,14.59,0,0,1-1.81,2.87,19.09,19.09,0,0,1-5.73,5c-2.68,1.34-4.6,2.38-6.85-.77a8.74,8.74,0,0,1-1.58-5.66A11.51,11.51,0,0,1,136.58,100.75Z"/><path class="cls-30" d="M136.68,100.72c1.53-2.51,5.77-4,8.74-3.26,3.71.9,7,3.34,5.37,6.73A13.36,13.36,0,0,1,149,107a19.16,19.16,0,0,1-5.66,4.88c-2.65,1.31-4.54,2.32-6.75-.74a8.39,8.39,0,0,1-1.58-5.53A11.1,11.1,0,0,1,136.68,100.72Z"/><path class="cls-31" d="M136.79,100.69c1.52-2.45,5.67-3.9,8.59-3.18,3.64.89,6.83,3.27,5.29,6.59a12.1,12.1,0,0,1-1.74,2.76,19,19,0,0,1-5.59,4.75c-2.61,1.27-4.47,2.25-6.65-.71a8.06,8.06,0,0,1-1.58-5.4A10.71,10.71,0,0,1,136.79,100.69Z"/><path class="cls-31" d="M136.89,100.66c1.52-2.38,5.58-3.81,8.45-3.1,3.57.88,6.67,3.2,5.2,6.44a10.68,10.68,0,0,1-1.69,2.71,18.89,18.89,0,0,1-5.53,4.62c-2.56,1.24-4.39,2.19-6.55-.68a7.84,7.84,0,0,1-1.58-5.28A10.34,10.34,0,0,1,136.89,100.66Z"/><path class="cls-32" d="M137,100.63c1.53-2.32,5.5-3.72,8.31-3,3.5.87,6.51,3.13,5.12,6.29a9.84,9.84,0,0,1-1.65,2.66,19.16,19.16,0,0,1-5.46,4.49c-2.53,1.21-4.33,2.12-6.46-.65a7.48,7.48,0,0,1-1.57-5.15A10.13,10.13,0,0,1,137,100.63Z"/><path class="cls-33" d="M137.1,100.6c1.52-2.26,5.4-3.63,8.16-2.94,3.43.86,6.35,3.06,5,6.14a8.9,8.9,0,0,1-1.62,2.61,19.28,19.28,0,0,1-5.39,4.37c-2.49,1.17-4.26,2-6.36-.63a7.26,7.26,0,0,1-1.57-5A9.69,9.69,0,0,1,137.1,100.6Z"/><path class="cls-34" d="M137.2,100.58a8.32,8.32,0,0,1,8-2.86c3.35.84,6.18,3,5,6a8.29,8.29,0,0,1-1.58,2.55,19.07,19.07,0,0,1-5.33,4.24c-2.45,1.14-4.19,2-6.26-.6a7,7,0,0,1-1.57-4.9A9.39,9.39,0,0,1,137.2,100.58Z"/><path class="cls-35" d="M137.31,100.55a8.2,8.2,0,0,1,7.88-2.78c3.28.83,6,2.91,4.87,5.84a7.36,7.36,0,0,1-1.54,2.49,19,19,0,0,1-5.26,4.12c-2.42,1.1-4.13,1.92-6.17-.57a6.71,6.71,0,0,1-1.56-4.78A8.88,8.88,0,0,1,137.31,100.55Z"/><path class="cls-36" d="M137.41,100.52a8.13,8.13,0,0,1,7.74-2.7c3.2.81,5.86,2.84,4.78,5.69a6.54,6.54,0,0,1-1.5,2.44,18.81,18.81,0,0,1-5.19,4c-2.37,1.07-4.06,1.85-6.07-.54a6.44,6.44,0,0,1-1.56-4.65A8.68,8.68,0,0,1,137.41,100.52Z"/><path class="cls-36" d="M137.51,100.49a8,8,0,0,1,7.6-2.62c3.13.8,5.71,2.77,4.7,5.55a6.17,6.17,0,0,1-1.46,2.38,19.12,19.12,0,0,1-5.12,3.86c-2.34,1-4,1.79-6-.51a6.22,6.22,0,0,1-1.56-4.52A8.49,8.49,0,0,1,137.51,100.49Z"/><path class="cls-37" d="M137.62,100.46a7.92,7.92,0,0,1,7.46-2.54c3,.8,5.54,2.71,4.61,5.4a5.72,5.72,0,0,1-1.42,2.33,19.21,19.21,0,0,1-5.06,3.73c-2.3,1-3.93,1.73-5.88-.48a5.89,5.89,0,0,1-1.55-4.4A8.09,8.09,0,0,1,137.62,100.46Z"/><path class="cls-38" d="M137.72,100.43A7.83,7.83,0,0,1,145,98c3,.79,5.38,2.64,4.53,5.25a5.13,5.13,0,0,1-1.39,2.28,19.32,19.32,0,0,1-5,3.6c-2.26,1-3.87,1.67-5.78-.45a5.7,5.7,0,0,1-1.55-4.27A7.92,7.92,0,0,1,137.72,100.43Z"/><path class="cls-39" d="M137.82,100.4A7.74,7.74,0,0,1,145,98c2.91.78,5.23,2.58,4.45,5.1a4.76,4.76,0,0,1-1.35,2.23,19.41,19.41,0,0,1-4.92,3.47c-2.22,1-3.81,1.6-5.68-.42a5.42,5.42,0,0,1-1.56-4.15A7.77,7.77,0,0,1,137.82,100.4Z"/><path class="cls-40" d="M137.93,100.37a7.6,7.6,0,0,1,7-2.29c2.83.75,5.07,2.5,4.36,5a4.3,4.3,0,0,1-1.3,2.17,19.91,19.91,0,0,1-4.86,3.35c-2.18.91-3.75,1.53-5.58-.4a5.19,5.19,0,0,1-1.55-4A7.38,7.38,0,0,1,137.93,100.37Z"/><path class="cls-41" d="M138,100.34a7.52,7.52,0,0,1,6.9-2.21c2.75.74,4.91,2.44,4.27,4.8a3.88,3.88,0,0,1-1.27,2.12,19.83,19.83,0,0,1-4.79,3.22c-2.14.88-3.68,1.47-5.48-.37a4.93,4.93,0,0,1-1.55-3.9A7.25,7.25,0,0,1,138,100.34Z"/><path class="cls-42" d="M138.13,100.31a7.43,7.43,0,0,1,6.76-2.13c2.68.73,4.76,2.37,4.19,4.65a3.6,3.6,0,0,1-1.23,2.07,20.33,20.33,0,0,1-4.72,3.09c-2.11.85-3.63,1.41-5.39-.34a4.75,4.75,0,0,1-1.55-3.77A7,7,0,0,1,138.13,100.31Z"/><path class="cls-43" d="M138.24,100.28a7.31,7.31,0,0,1,6.61-2c2.61.72,4.6,2.31,4.11,4.51a3.27,3.27,0,0,1-1.19,2,20.69,20.69,0,0,1-4.66,3c-2.06.81-3.57,1.35-5.29-.31a4.46,4.46,0,0,1-1.54-3.64A6.78,6.78,0,0,1,138.24,100.28Z"/><path class="cls-44" d="M138.34,100.25a7.23,7.23,0,0,1,6.47-2c2.54.71,4.45,2.25,4,4.36a3,3,0,0,1-1.16,2,21.37,21.37,0,0,1-4.59,2.83c-2,.78-3.51,1.29-5.19-.28a4.3,4.3,0,0,1-1.54-3.52A6.62,6.62,0,0,1,138.34,100.25Z"/><path class="cls-45" d="M138.45,100.22a7.1,7.1,0,0,1,6.33-1.89c2.46.7,4.3,2.19,3.93,4.21a2.67,2.67,0,0,1-1.11,1.91,21.38,21.38,0,0,1-4.52,2.7c-2,.75-3.46,1.23-5.1-.25a4.07,4.07,0,0,1-1.54-3.39A6.48,6.48,0,0,1,138.45,100.22Z"/><path class="cls-46" d="M138.55,100.19a7,7,0,0,1,6.19-1.8c2.38.68,4.15,2.12,3.85,4a2.48,2.48,0,0,1-1.07,1.86,22.29,22.29,0,0,1-4.46,2.57c-1.94.72-3.4,1.18-5-.22a3.87,3.87,0,0,1-1.53-3.27A6.26,6.26,0,0,1,138.55,100.19Z"/><path class="cls-47" d="M138.65,100.17a6.88,6.88,0,0,1,6-1.73c2.31.66,4,2.06,3.77,3.91a2.25,2.25,0,0,1-1,1.79,22.71,22.71,0,0,1-4.38,2.45c-1.91.69-3.36,1.12-4.91-.19a3.7,3.7,0,0,1-1.53-3.14A6.13,6.13,0,0,1,138.65,100.17Z"/><path class="cls-47" d="M138.76,100.14a6.74,6.74,0,0,1,5.9-1.65c2.24.65,3.86,2,3.69,3.76a2,2,0,0,1-1,1.74,24.47,24.47,0,0,1-4.32,2.33c-1.87.65-3.3,1.05-4.81-.17a3.49,3.49,0,0,1-1.53-3A6,6,0,0,1,138.76,100.14Z"/><path class="cls-48" d="M138.86,100.11a6.67,6.67,0,0,1,5.76-1.57c2.17.64,4,2,3.6,3.61a1.64,1.64,0,0,1-.95,1.69A25,25,0,0,1,143,106c-1.83.62-3.25,1-4.7-.14a3.27,3.27,0,0,1-1.53-2.89C136.87,102.12,137.83,101,138.86,100.11Z"/><path class="cls-49" d="M139,100.08a6.6,6.6,0,0,1,5.63-1.49c2.09.63,3.86,1.93,3.51,3.47a1.48,1.48,0,0,1-.92,1.63,26.69,26.69,0,0,1-4.18,2.07c-1.79.59-3.2.95-4.61-.11a3.1,3.1,0,0,1-1.53-2.76C137,102,137.92,101,139,100.08Z"/><path class="cls-50" d="M139.07,100.05a6.46,6.46,0,0,1,5.48-1.41c2,.62,3.72,1.87,3.43,3.32a1.37,1.37,0,0,1-.88,1.58,29,29,0,0,1-4.12,1.94c-1.75.56-3.15.89-4.51-.08a2.94,2.94,0,0,1-1.53-2.64C137,102,138,100.93,139.07,100.05Z"/><path class="cls-51" d="M139.17,100a6.4,6.4,0,0,1,5.34-1.33c1.94.61,3.57,1.8,3.35,3.17a1.26,1.26,0,0,1-.84,1.53A31.52,31.52,0,0,1,143,105.2c-1.71.53-3.1.84-4.41,0s-1.58-2-1.52-2.51C137.12,101.88,138.1,100.88,139.17,100Z"/><path class="cls-52" d="M139.27,100a6.25,6.25,0,0,1,5.2-1.24c1.87.58,3.43,1.73,3.27,3a1.15,1.15,0,0,1-.81,1.48,35.93,35.93,0,0,1-4,1.68c-1.67.5-3.06.79-4.32,0-1.44-.94-1.58-1.92-1.52-2.39C137.2,101.8,138.19,100.83,139.27,100Z"/><path class="cls-52" d="M139.38,100a6.16,6.16,0,0,1,5.06-1.16c1.79.57,3.27,1.66,3.17,2.87a1,1,0,0,1-.76,1.42c-1,.4-2.46,1.13-3.92,1.55-1.63.48-3,.75-4.22,0-1.45-.89-1.57-1.84-1.51-2.25C137.29,101.72,138.28,100.77,139.38,100Z"/><path class="cls-53" d="M139.48,99.93a6.07,6.07,0,0,1,4.92-1.08c1.72.56,3.13,1.6,3.09,2.72.23.64,0,1.11-.72,1.37-1,.34-2.41,1-3.86,1.43s-3,.69-4.12,0c-1.47-.84-1.56-1.77-1.51-2.12C137.37,101.64,138.37,100.72,139.48,99.93Z"/><path class="cls-54" d="M139.58,99.9a6,6,0,0,1,4.78-1c1.65.55,3,1.53,3,2.57.25.63.06,1.09-.69,1.32-1,.29-2.36.92-3.78,1.3s-2.92.65-4,0c-1.49-.79-1.55-1.69-1.51-2C137.45,101.56,138.45,100.66,139.58,99.9Z"/><path class="cls-55" d="M139.69,99.87a5.8,5.8,0,0,1,4.63-.92,4.32,4.32,0,0,1,2.93,2.42c.17.66.1,1.07-.65,1.27-.92.24-2.31.81-3.72,1.17s-2.87.61-3.93.08c-1.5-.74-1.55-1.62-1.5-1.87C137.53,101.48,138.54,100.61,139.69,99.87Z"/><path class="cls-56" d="M139.79,99.84a5.72,5.72,0,0,1,4.5-.84,4.43,4.43,0,0,1,2.84,2.28c.21.64.14,1-.61,1.21s-2.27.71-3.65,1a6.35,6.35,0,0,1-3.84.11c-1.52-.68-1.54-1.54-1.5-1.75C137.62,101.4,138.63,100.55,139.79,99.84Z"/><path class="cls-57" d="M139.9,99.81a5.6,5.6,0,0,1,4.35-.76,4.66,4.66,0,0,1,2.75,2.13c.26.63.19,1-.57,1.16s-2.21.6-3.58.91a6.81,6.81,0,0,1-3.74.14c-1.54-.62-1.53-1.47-1.5-1.62C137.7,101.31,138.72,100.49,139.9,99.81Z"/><path class="cls-57" d="M140,99.78a5.46,5.46,0,0,1,4.21-.67,4.9,4.9,0,0,1,2.67,2c.3.61.23,1-.53,1.1s-2.17.51-3.52.79a7.41,7.41,0,0,1-3.63.17c-1.57-.55-1.53-1.39-1.5-1.49C137.78,101.23,138.8,100.43,140,99.78Z"/><path class="cls-58" d="M140.1,99.76a5.33,5.33,0,0,1,4.07-.6,5.24,5.24,0,0,1,2.59,1.83c.35.58.27,1-.49,1s-2.12.4-3.45.66a8.36,8.36,0,0,1-3.54.2c-1.59-.47-1.51-1.32-1.5-1.37A5.51,5.51,0,0,1,140.1,99.76Z"/><path class="cls-59" d="M137.86,101.4a6.42,6.42,0,0,1,2.35-1.67,5.22,5.22,0,0,1,3.92-.52,5.82,5.82,0,0,1,2.51,1.68c.4.55.31,1-.46,1a29.08,29.08,0,0,0-3.38.53,9.73,9.73,0,0,1-3.44.23C137.75,102.25,137.86,101.4,137.86,101.4Z"/></g><path class="cls-60" d="M182.5,106.36c-.57,1.49-1.11,3-1.65,4.44s-1.09,3-1.67,4.4-1.18,2.9-1.85,4.3a23.2,23.2,0,0,1-2.39,4,10.39,10.39,0,0,0,1.67-1.71,19.32,19.32,0,0,0,1.35-2,30.34,30.34,0,0,0,2.07-4.3,42.72,42.72,0,0,0,1.5-4.52A33.52,33.52,0,0,0,182.5,106.36Z"/><path class="cls-60" d="M134.75,107.74a27.29,27.29,0,0,0,.44,4,31.69,31.69,0,0,0,1,4,26.08,26.08,0,0,0,1.57,3.79,19.77,19.77,0,0,0,1,1.79c.37.57.77,1.13,1.17,1.67.82,1.09,1.69,2.14,2.61,3.14s1.86,2,2.86,2.9,2,1.8,3.1,2.63a24.44,24.44,0,0,0,3.4,2.21,35,35,0,0,1-3.11-2.56c-1-.9-2-1.84-2.89-2.8s-1.85-1.94-2.72-3-1.72-2-2.51-3.11c-.41-.54-.79-1.07-1.16-1.63s-.7-1.11-1-1.69a29.54,29.54,0,0,1-1.65-3.62c-.47-1.25-.88-2.52-1.23-3.82S135,109.07,134.75,107.74Z"/><path class="cls-6" d="M187.25,88.3s.33-10.21,1-13.14-.17-14.15-3-19.79c-3.81-7.61-10.36-12.08-13-12.77a118.13,118.13,0,0,0-12.91-2c-1.21,0-12.13,1.39-14.77,3.62s-8.39,7.41-9.1,9.12a110.83,110.83,0,0,0-4.18,12.94A83.18,83.18,0,0,0,130,76.75a89.48,89.48,0,0,0,.39,9.35l1.22.59s1.35-7.31,3-11c2.65-5.92,7.34-11.44,13.22-14.29,7.16-3.46,12.85-3.55,19.85-.53,3.37,1.45,5.79,3.79,8.6,6.19a21.57,21.57,0,0,1,5.95,8.42,70.66,70.66,0,0,1,3.55,10.15c.35,1.44.7,5.94.7,5.94Z"/><path class="cls-61" d="M187.14,80.53c0-1.26,0-2.52,0-3.78a23.93,23.93,0,0,0-.53-3.77,24.24,24.24,0,0,0-2.85-7.07,19.62,19.62,0,0,0-5.28-5.5,25.22,25.22,0,0,0-6.72-3.47A29.31,29.31,0,0,1,175,58.73a28.13,28.13,0,0,1,3.08,2.13,21.64,21.64,0,0,1,5,5.43A27.66,27.66,0,0,1,186,73.11a22.66,22.66,0,0,1,.71,3.67C186.93,78,186.93,79.28,187.14,80.53Z"/><path class="cls-61" d="M187.26,72.75a22.41,22.41,0,0,0-1.65-6.42,23.79,23.79,0,0,0-3.41-5.74A23.16,23.16,0,0,0,177.35,56a19.6,19.6,0,0,0-5.93-2.95,20.28,20.28,0,0,1,2.93,1.51A27.39,27.39,0,0,1,177,56.43a29.35,29.35,0,0,1,9.27,13.17A26,26,0,0,1,187.26,72.75Z"/><path class="cls-61" d="M186.69,66.93a25.89,25.89,0,0,0-2.12-6.15,20.22,20.22,0,0,0-3.69-5.4,15.4,15.4,0,0,0-2.53-2.11,28.54,28.54,0,0,0-2.77-1.74,17.2,17.2,0,0,0-6.15-2.09,16.8,16.8,0,0,1,3,1.11,24,24,0,0,1,2.82,1.52c.92.54,1.8,1.15,2.67,1.77a17.73,17.73,0,0,1,2.43,2A24.18,24.18,0,0,1,184.11,61,37.49,37.49,0,0,1,186.69,66.93Z"/><path class="cls-6" d="M168.1,41.93c1.47.71,3.3,9.43,1.43,14.56S160.78,69.13,149.86,74C134.17,81.06,130,97.67,130,97.67c-2.75-4.12-4.33-8.65-5-16-1.43-14.76,2.49-24.61,7-31.5C138.15,40.62,152.65,34.49,168.1,41.93Z"/><path class="cls-61" d="M167.52,52.14a44.38,44.38,0,0,1-2.41,5.3A34.44,34.44,0,0,1,162,62.33a21.59,21.59,0,0,1-4,4.11,49.12,49.12,0,0,1-4.94,3c-1.7.93-3.43,1.8-5.19,2.63s-3.53,1.61-5.25,2.56a14,14,0,0,0-2.46,1.66,17.11,17.11,0,0,0-2,2.22,34.76,34.76,0,0,0-3,5,38.63,38.63,0,0,1,3.33-4.76,17.08,17.08,0,0,1,2-2.09,13.3,13.3,0,0,1,2.42-1.51c3.46-1.71,7.09-3.18,10.52-5.05a47.24,47.24,0,0,0,5-3.11,20,20,0,0,0,4-4.29A36,36,0,0,0,167.52,52.14Z"/><path class="cls-61" d="M164.86,52.91a43.29,43.29,0,0,1-2.07,4.35,33.14,33.14,0,0,1-2.52,4.06,21.72,21.72,0,0,1-3.16,3.53,16.74,16.74,0,0,1-1.91,1.4c-.66.43-1.34.84-2,1.22a42.63,42.63,0,0,1-4.3,2.09c-1.47.63-3,1.16-4.46,1.82A16.84,16.84,0,0,0,138,76.81c3.47-5,10.55-6,15.52-8.71a24.82,24.82,0,0,0,4-2.75,19.28,19.28,0,0,0,3.17-3.71A34.09,34.09,0,0,0,164.86,52.91Z"/><path class="cls-61" d="M161,54.67a17.2,17.2,0,0,1-1.66,3.22,14.12,14.12,0,0,1-2.29,2.75,11.1,11.1,0,0,1-2.94,2c-.52.25-1.09.42-1.67.64s-1.15.45-1.71.71a35.87,35.87,0,0,0-6.36,3.67,19.09,19.09,0,0,0-5.22,5.11,14.48,14.48,0,0,1,2.59-2.54,34.26,34.26,0,0,1,2.94-2.12A48.06,48.06,0,0,1,151,64.61c.55-.25,1.11-.49,1.67-.7s1.14-.4,1.72-.68a10.79,10.79,0,0,0,3-2.18A14.16,14.16,0,0,0,161,54.67Z"/></g></g></svg>