<svg xmlns="http://www.w3.org/2000/svg" xmlns:xlink="http://www.w3.org/1999/xlink" viewBox="0 0 322.94 322.94"><defs><style>.cls-1{fill:none;}.cls-2{fill:#bcbcbc;}.cls-3{clip-path:url(#clip-path);}.cls-4{fill:#3c3f44;}.cls-5{fill:#35180c;}.cls-6{fill:#b8bec1;}.cls-7{fill:#a06338;}.cls-8{fill:#935931;}.cls-9{fill:#152063;}.cls-10{fill:#0b1547;}.cls-11{fill:#dfe9f4;}.cls-12{fill:#b6c5d3;}.cls-13{fill:#fff;}.cls-14{fill:#c6d4e0;}.cls-15{fill:#9fafbc;}.cls-16{fill:#a3a39d;}.cls-17{fill:#af7146;}.cls-18{opacity:0.45;}.cls-19{fill:#af6a39;}.cls-20{fill:#b06939;}.cls-21{fill:#b06839;}.cls-22{fill:#b16739;}.cls-23{fill:#b16639;}.cls-24{fill:#b26539;}.cls-25{fill:#b26439;}.cls-26{fill:#b36338;}.cls-27{fill:#b36238;}.cls-28{fill:#b46138;}.cls-29{fill:#b46038;}.cls-30{fill:#b56038;}.cls-31{fill:#b55f38;}.cls-32{fill:#b65e38;}.cls-33{fill:#b65d38;}.cls-34{fill:#b75c38;}.cls-35{fill:#b75b38;}.cls-36{fill:#b85a38;}.cls-37{fill:#b85938;}.cls-38{fill:#b95838;}.cls-39{fill:#b95738;}.cls-40{fill:#ba5637;}.cls-41{fill:#ba5537;}.cls-42{fill:#bb5437;}.cls-43{fill:#bb5337;}.cls-44{fill:#bc5237;}.cls-45{fill:#bc5137;}.cls-46{fill:#bd5037;}.cls-47{fill:#bd4f37;}.cls-48{fill:#be4e37;}.cls-49{fill:#be4d37;}.cls-50{fill:#bf4d37;}.cls-51{fill:#bf4c37;}.cls-52{fill:#c04b37;}.cls-53{fill:#c04a37;}.cls-54{fill:#c14936;}.cls-55{fill:#c14836;}.cls-56{fill:#c24736;}.cls-57{fill:#c24636;}.cls-58{fill:#c34536;}.cls-59{fill:#c34436;}.cls-60{fill:#c44336;}.cls-61{fill:#99503c;}.cls-62{fill:#bfbcba;}.cls-63{fill:#5e251d;}.cls-64{fill:#c14d4d;}.cls-65{fill:#a53d3d;}.cls-66{fill:#cc6a6a;}.cls-67{fill:#7c4035;}.cls-68{fill:#9b5b2f;}.cls-69{fill:#2b1408;}.cls-70{fill:#d18f62;}</style><clipPath id="clip-path"><rect class="cls-1" width="322.94" height="322.94" rx="64.41"/></clipPath></defs><g id="background"><rect class="cls-2" width="322.94" height="322.94" rx="64.41"/></g><g id="image"><g class="cls-3"><path class="cls-4" d="M196.89,293.71s9.4,23.8,10.13,43.4,1.72,67,1.5,80c-.4,24.13-1.39,45.27-1.39,45.27S195.49,473.52,173.34,473c-13.53-.35-41.91-5.18-57.59-6.11-26.81-1.59-37-9.14-37-9.14s2.58-45.65,6.06-69.7c3.32-23,13.84-86.63,13.84-86.63s23.4-3.43,42.82-5.38S185.7,283.9,185.7,283.9Z"/><path class="cls-5" d="M181.92,142.72c1.91-1.11,1.19-.2,2.76-3.55s2-2.37,4.74-4.54,1.38-4.14,2.56-8.28,6.51-11,6.71-14.6,1.18-5.92,2.37-11.64,2.95-14.39.19-20.51-9.27-13-12.62-16.37-3.95-6.11-10.65-8.68-10.85-1.38-18.34-1.38-12.82-.39-18.15,2.37-5.92,8.28-9.86,16-4.14,14.21-4.54,21.9a31,31,0,0,0,2.57,15.19c1.57,4.14,3.94,8.08,6.9,12.82s4.93,5.72,5.72,8.28,4.73,5.13,4.73,6.51,3.75,5.13,6.91,6.7S177.19,145.48,181.92,142.72Z"/><path class="cls-6" d="M184.07,138.71a61.26,61.26,0,0,1-7.73.47s-27.46,1.72-29.28,5c-3.83,7,23.83,16.76,30.64,13.44s8.07-11.73,9.1-14.69S186.8,138.23,184.07,138.71Z"/><path class="cls-7" d="M183.59,137.58c-1-8.17.68-19.19.68-19.19s-13,7.48-19.43,8.17a31.6,31.6,0,0,1-16.7-2.48s2.38,16.7-1.71,21.67-7.5,8.89-7.5,8.89-5.79,32.34-5.45,43,6.13,13.5,15.68,7.46,38.52-37.67,42.27-43.36a28.44,28.44,0,0,0,4.43-10.66S184.61,145.75,183.59,137.58Z"/><path class="cls-8" d="M183.28,131.38c.3-3.85,1-13,1-13s-13,7.48-19.43,8.17a31.6,31.6,0,0,1-16.7-2.48s.49,10.41.67,12.33c3.48,5.22,9.24,12.84,22.17,9.07C178.37,143.32,181.67,138.83,183.28,131.38Z"/><path class="cls-8" d="M147.45,143.62c0,2.84-.34,9.24-1.7,13.5s-2.39,6.76-3.75,11.38-1,9.95-.68,15.28c0,0-2.39-2.14-3.41-9.6a31.15,31.15,0,0,1,2-17.41C142,151.79,147.45,143.62,147.45,143.62Z"/><path class="cls-9" d="M147.45,143.62s-4.77,14.57-5.79,18.48-1,12.08-.68,15.28,1.36,10,.68,11.73c0,0,6.82-8.89,10.22-12.08s16.37-9.24,19.44-12.44,14.65-13.86,14-21,3.41,2.13,3.41,2.13l7.16,5.33a119.94,119.94,0,0,1-11.59,26.66c-10.23,17.41-39.2,50.46-50.45,56.5s-13-6-12.27-21.32,9.2-37.32,12.61-47.27,7.16-13.86,8.52-16.34A30.49,30.49,0,0,1,147.45,143.62Z"/><path class="cls-10" d="M175.07,163.88c-3.75.71-14.66,5.68-19.09,8.88s-12.62,14.93-12.62,14.93,9.92-9.05,16-11.73c6.48-2.84,8-2.3,9.21.36A44.42,44.42,0,0,1,172,187.69a75.34,75.34,0,0,0,4.43-14.57C178.13,164.59,178.82,163.17,175.07,163.88Z"/><path class="cls-10" d="M130.41,176.32s4.77-5.69,6.48-3.56a48.9,48.9,0,0,1,4.09,7.46s0-7.81-1.71-12.08S133.48,171.69,130.41,176.32Z"/><path class="cls-9" d="M141.66,189.11s8.18-11.73,11.59-14.57,12.61-6.75,16-9.6,12.27-10.66,14-15.28a24.43,24.43,0,0,0,.93-10.2s2.82,1.67,3.5,3.1,3.07,5.68,3.07,5.68-8.87,18.83-9.89,22-8.18,15.28-8.18,15.28-1.71-14.21-6.14-13.86-7.66,2.06-11.25,4.27C147.79,180.58,141.66,189.11,141.66,189.11Z"/><path class="cls-9" d="M147.45,143.62s-6.47,7.46-8.52,11-8.52,21.68-8.52,21.68,2.73-5,4.77-6.4,3.07-.36,4.09,2.49a72.84,72.84,0,0,1,1.71,7.81s-1.37-12.79,0-16.7S147.45,143.62,147.45,143.62Z"/><path class="cls-10" d="M134.66,171.87a177.38,177.38,0,0,0-3.1,19.58c-.17,3.59-1.72,17.77-2.41,24.78s-2.76,19.57-2.76,19.57a47.9,47.9,0,0,1-2.58-21.37,146.27,146.27,0,0,1,5.51-29.09C131.9,176.36,134.66,171.87,134.66,171.87Z"/><path class="cls-11" d="M111.32,165.3c-.7-2-7.5,2.84-9.89,6.39s-7.84,13.15-9.54,16-4.43,3.91-4.43,6.75-1.71,6.75-3.41,7.46-2,0-4.09,4.27-3.41,8.88-4.09,10.3-5.8,16.7-8.18,19.19S59.84,247.74,59.16,252s-5.11,22,1,26.65,28,4.26,37.49-13.5c0,0,1.37-14.57,4.44-21s3.4-28.07,6.81-37.67S115.75,178.09,111.32,165.3Z"/><path class="cls-12" d="M108.25,169.92s-3.41,6.4-3.07,12.44.69,13.15-1.36,15.28-2.39-5.69-4.77-7.82.68,3.2,1,9.24.68,13.5-1.36,8.53-7.84-15.28-9.55-14.22,0,2.14,1.71,5.33a54.82,54.82,0,0,1,4.77,11.38c1.7,5.68,1.36,8.88,0,7.81s-4.09,0-3.75,4.62-6.82,0-10.91,1.42-4.09,2.14-2.39,5.69-5.79,4.62-6.81,8.17.68,3.2,3.75,3.91-6.48,4.62-7.5,8.18,20.11,1.42,27.61,3.19c1.38.33,2.6.61,3.69.76a42.86,42.86,0,0,1,2.79-9.64c3.06-6.4,3.4-28.07,6.81-37.67.6-1.69,1.2-3.68,1.76-5.86l0-.18C113.14,190.17,108.25,169.92,108.25,169.92Z"/><path class="cls-11" d="M214.25,455.62c-.94-6.78-2.17-67.42-5-115.39-1.07-18.46-5-29.23-8.2-42s-10-49.27-3.64-66.8,9.09-40.75,15.91-47.39,10.91-10.89,10.91-10.89-3.24-4.62-7.73-6.64c-10.43-4.68-16.24-11.36-20.68-15.4a111.12,111.12,0,0,1-8.18-8.52s-.38,12.22-12.37,24.64c-4.38,4.55-19.09,22.46-26,32A339.59,339.59,0,0,0,127,233.29s-.91-6.63,1.36-28.9,6.37-31.27,9.09-41.22,3.19-12.32,3.19-12.32-4.55,4.26-8.64,5.68-10,4.27-12.27,4.74-6.59,1.54-9.43,3.67c-3.8,2.85-2.39,21-3.3,26.66S98.82,220,97.46,229s0,13.74-.91,34.11-5.26,40.42-5.26,55.77c0,12.16-4,32.52-5.38,53.55-.72,11-6.32,60.48-8.1,72.16,0,0,.15,7.89,15.48,9s21.52,1.23,31.8,2.84,15.32,5.1,43.71,6.24S214.25,455.62,214.25,455.62Z"/><path class="cls-13" d="M110,197.59s-8.71,20.44-9.47,26.5.76,21.19,5.3,15.89,6.44-.75,11.36-.37,1.13-8.71,1.13-21.2S116.38,189.64,110,197.59Z"/><path class="cls-13" d="M167.1,204.78s-23.43,16-26.87,23.47c-4.17,9.08-3.07,16.05,5.29,12.49,17.79-7.57,19.31,2.27,23.47-2.27s11-26.12,12.87-32.17S175.43,199.86,167.1,204.78Z"/><path class="cls-14" d="M131.55,159.61l-15.23,15.16a47.6,47.6,0,0,1,6.59-2.36c2.27-.48.91,1.89.91,1.89l-10.68,15.87a47.19,47.19,0,0,1,5,5.93c3.18,4.73,8.63,30.08,8.41,33.87,0,0-1.14-19.66.45-33.16s7.27-32.7,8.41-36.49S131.55,159.61,131.55,159.61Z"/><path class="cls-14" d="M127.91,231.87s12.5-22,19.32-30.09,23.86-30.32,28.18-36S186.77,147.29,187,145.4s9.09,3.55,9.09,3.55l-5.23,38.38L176.54,179l1.59,16.11s-5.68,1.9-11.59,4c-10.41,3.75-26.36,20.13-30,24.16S127.91,231.87,127.91,231.87Z"/><path class="cls-11" d="M147.91,143s-5.91,4.1-12.73,9.78-18.63,19.9-18.63,19.9,9.09-2.84,11.36-2.84c0,0-2.63,4.42-4.55,7.11-5.22,7.34-8.18,11.84-8.18,11.84s3.18,1.9,6.82,10.9c1.58,3.91,2.27,8.53,3.18,16.11S127,233.29,127,233.29s1.25-32.57,4.54-49.75S147.91,143,147.91,143Z"/><path class="cls-11" d="M127,233.29a207.23,207.23,0,0,1,16.36-27.48c12.27-17.53,16.39-21.83,23-30.33,8.48-11,15.19-18.51,17.72-23.69s3.18-9.71,1.82-12.79a64.9,64.9,0,0,1,5.23,4.74l5,5.21-6.37,36-15.91-10.42S177,189,177,193.25c0,0-10.46,2.61-18.41,7.58C136.25,214.81,127,233.29,127,233.29Z"/><path class="cls-12" d="M118.27,455.35l4,1.14c-2.18-16,6.42-159.21,6.45-160,.42-4.11-.14-14.44-.69-24.43-.34-6.38-.67-12.41-.67-15.8,0-8.42.34-22.81.34-23l-1.36,0c0,.14-.34,14.55-.34,23,0,3.43.33,9.47.67,15.88.52,9.47,1.1,20.2.69,24.25C127.19,299.72,119.41,437.18,118.27,455.35Z"/><path class="cls-14" d="M199.27,188c-5.46,5.69-10.23,27.72-13,31.27s.69-7.81,2.05-14.21,4.77-17.06-1.36-5-10.23,30.57-13,39.09-6.13,12.8-8.86,7.82-9.55-.71-18.41,4.27-20.11,5-25.22.71-4.78-6.4-10.23-10.66.68,6.39-2,10-7.81-7.84-9.82-13.14c-2.57-6.82-2-6.47-.82-14.85-.53,2.21-.94,4.17-1.17,5.72-1.37,9,0,13.74-.91,34.11s-3,21.6-3.86,32.64c-.24,3.22-3,36.09-3.23,42,4.85-12.12,9.91-16.46,42.23-2.73C145.51,341,182,324.93,194.5,330.9a67.38,67.38,0,0,1,14.79,9.33c0-.27,0-.54,0-.8-.46-18.48-5-28.43-8.18-41.23s-10-49.27-3.64-66.8,9.09-40.75,15.91-47.39l1.35-1.31C210.89,178.21,203.26,183.88,199.27,188Z"/><path class="cls-15" d="M92.42,300.63c3.41,0,13.1,3.26,14.47,4.33s2.38,11.72,5.79,15.63,19.77-3,34.43-2.48c19.69.65,48.26-2.29,57.07-8.81-1.05-3.64-2.13-7.24-3.09-11.1-2.34-9.39-6.63-31.54-6.23-49.6-5.37-6.79-10.93-12.58-10.93-12.58a82.9,82.9,0,0,0-8.86,11.37c-4.1,6.4-7.16,8.53-11.59,7.82s-19.78.35-30,3.2c-7.46,2.07-25,.18-36.81,1.75a25.25,25.25,0,0,1-.12,3C94.3,277.46,93.23,290.39,92.42,300.63Z"/><path class="cls-7" d="M124.61,281.5s-8.18-4.26-10.22-6.75-8.18-16.34-10.91-24.16c-1.69-4.84-6.31-14-9-17.77a28.72,28.72,0,0,0-4.26-5c-2.72-2.48-5.45-4.62-6.13-2.48s1.7,5.68,2.73,7.1,3.4,4.62,3.75,6a40.56,40.56,0,0,0,2.38,5.34s-4.94-6.58-7-9.42-6.3-9.78-8.35-8.35-.34,4.62,1.37,7.81,4.09,7.47,5.11,8.89,3.75,8.17,3.75,8.17-4.09-6.75-7.5-11.9c-2.52-3.82-5.12-6.93-6.82-4.8-.79,1,.68,5.69,2,7.46a45.81,45.81,0,0,1,3.41,6.4s-2.73-4.62-4.78-4.62-1.7,2.49,0,5c1.33,1.94,3.75,5.69,3.75,5.69s4.43,8.17,7.16,14.93a54.87,54.87,0,0,0,10.57,16.7c3.75,3.91,11.25,8.53,14.32,11s14.31,6.05,14.31,6.05-2.72-8.89-1.7-13.86A46.33,46.33,0,0,1,124.61,281.5Z"/><path class="cls-8" d="M122.57,289a46.33,46.33,0,0,1,2-7.47s-8.18-4.26-10.22-6.75a52.3,52.3,0,0,1-4.32-8.15c-3.86,2.34-9.38,4.92-13.75,3.89-7.5-1.78-12.95-12.8-17.73-18.48a21.9,21.9,0,0,0-5-4.55,10.45,10.45,0,0,0,.6,1c1.33,1.94,3.75,5.69,3.75,5.69s4.43,8.17,7.16,14.93a54.87,54.87,0,0,0,10.57,16.7c3.75,3.91,11.25,8.53,14.32,11s14.31,6.05,14.31,6.05S121.55,293.94,122.57,289Z"/><path class="cls-7" d="M116.77,258.76s16-.35,20.8-1.07,11.25-2.13,17-.71A165.44,165.44,0,0,1,174,263c4.09,1.78,10.91,8.53,13.3,10s5.45,6,6.47,8.89.69,8.17-6.47,8.88-23.18-3.91-28.64-6.75-10.56-8.88-16-8.53-17.73,5.33-23.18,7.11a126.54,126.54,0,0,1-13,3.2s-3.41-6-1-14.57S116.77,258.76,116.77,258.76Z"/><path class="cls-8" d="M142.68,275.46c5.46-.35,10.57,5.69,16,8.53s21.48,7.46,28.64,6.75,7.5-6,6.47-8.88-4.09-7.46-6.47-8.89c-2.19-1.3-8.09-7.06-12.21-9.39-4.16,6-14.82,7.09-20.52,6.2-6.82-1.07-10.22-.71-14.66.35s-9.54,2.84-9.54,2.84-2.73.36-3.41-4.62c-.42-3.08.73-7.27,1.67-10-5.8.27-11.9.41-11.9.41s-8.86,3.91-11.25,12.44a22.8,22.8,0,0,0-.83,5.58c.06,1.31.16,2.68.29,4.06a16.71,16.71,0,0,0,1.57,4.93,126.54,126.54,0,0,0,13-3.2C125,280.79,137.23,275.82,142.68,275.46Z"/><path class="cls-11" d="M116.09,317.39c-1.36-2.84-3.07-7.46-3.41-15.28s1-20.25,1-20.25,8.86-2.49,13.29-3.55,15-2.85,18.75-4.27,14.32-5,17.73-3.91-1.37-3.55.34-5.33,6.13-2.84,8.52-5.33,3.75-7.46,6.13-13.86,9.6-23.77,13-30.92c4.42-9.42,13.63-32.69,19.43-38.73s9.43-5.33,13.41-2.84,6,9.59,8.06,22.39-1.7,30.56-4.77,41.57S218.7,264.8,214.27,273s-8.18,20.26-9.89,24.17-1,4.26-7.84,6.4-17,3.91-24.2,5.33-28.64,3.55-39.2,5.33C126.2,315.36,116.09,317.39,116.09,317.39Z"/><path class="cls-14" d="M224.27,173.12l-.6-.36c9,20,.84,50-1.22,59.7-2.73,12.8-5.46,19.55-10.57,32.7s-11.93,9.24-15.68,7.1-7.16-2.84-3.75,4.27,0,5.33-6.82,1.06-11.25-3.9-16.36-2.13S188,287.9,192.45,292.52s-6.48,10-14.32,10-31.36-3.2-39.54-6c-6.07-2.11-17.77-1.09-25.91,0-.06,2-.07,3.94,0,5.66.34,7.82,2,12.44,3.41,15.28,0,0,10.11-2,17-3.19,10.56-1.78,32-3.91,39.2-5.33s17.38-3.2,24.2-5.33,6.14-2.49,7.84-6.4,5.46-16,9.89-24.17,10.22-24.87,13.29-35.89,6.82-28.78,4.77-41.57S228.24,175.6,224.27,173.12Z"/><path class="cls-13" d="M168.23,268.37s-4.54-2.27-1.13-4.16,9.08-7.57,11.35-15.14,12.87-33.31,18.93-46.93,9.46-20.06,13.62-23.85,4.25,1.18,2.36,5.72-6.93,18.49-12.2,35.91c-4.92,16.28-.38,25-3.78,31.8s-5.3,3.78-11.36,3.41-7.37,5.61-3,11.73,2.65,7.95-2.64,4.92S170.13,270.64,168.23,268.37Z"/><path class="cls-13" d="M127,280.11s17.79-3.41,21.19-5.3,9.09-4.17,12.87-3a11.07,11.07,0,0,1,5.3,3s-1.89,1.51,1.89,4.92-2.65,3-8.7,1.51-13.63-.75-19.31.76S125.08,283.89,127,280.11Z"/><path class="cls-15" d="M115.85,280.69c-4.31.81-4,.78-6.46,1.35.94,5.46,4.72,11.9,6.87,11.9,2.53,0,5.08-7.58,5.79-14.59C121.26,279.63,116.5,280.57,115.85,280.69Z"/><path class="cls-11" d="M120.18,258.05a18,18,0,0,0-5.11,8.88c-1.36,5.69-.34,14.57.34,17.42s1.36,9.59,1.36,9.59-8.52-2.84-14.31-3.2c-6.89-.42-25.74-1.14-32.73-3.91-9.89-3.91-15-11-14.32-17.76s2.05-16.35,8.87-19.9,6.81-1.07,9.88-.72,9.89.72,13.64,2.49S112,259.83,120.18,258.05Z"/><path class="cls-12" d="M57.8,272.26a7.17,7.17,0,0,0-2.41-1.39c.31,6.19,5.33,12.4,14.34,16,7,2.77,25.84,3.49,32.73,3.91,5.79.36,14.31,3.2,14.31,3.2s-.19-1.86-.46-4a12.85,12.85,0,0,0-2.6-1.64c-6.82-3.2-24.89-2.14-35.12-3.91S61.89,275.82,57.8,272.26Z"/><path class="cls-13" d="M68.18,251.07a2.46,2.46,0,0,1,.68-.36l.74-.25c.49-.14,1-.25,1.49-.34,1-.19,2-.32,3-.41a41.51,41.51,0,0,1,6.11-.07,25.36,25.36,0,0,1,3.1.35,20.66,20.66,0,0,1,3.1.77c1,.3,1.93.65,2.88,1l2.8,1.1L94.86,254l2.73,1.18c1.81.8,3.61,1.6,5.39,2.34a26.4,26.4,0,0,0,2.63,1l2.87.8c1.92.55,3.84,1.1,5.76,1.76a53.15,53.15,0,0,1-6,.07c-1,0-2-.1-3-.19a13.55,13.55,0,0,1-1.61-.24c-.51-.1-1-.21-1.52-.34-1-.26-2-.55-2.93-.86s-1.91-.64-2.86-1-1.87-.71-2.8-1.06l-2.77-1.1L88,255.22c-.9-.39-1.81-.74-2.7-1.1a27.24,27.24,0,0,0-2.63-.9c-.9-.24-1.83-.46-2.78-.66-1.89-.39-3.82-.71-5.77-1-1-.14-1.95-.27-2.93-.39-.5,0-1-.1-1.48-.13A5.64,5.64,0,0,0,68.18,251.07Z"/><path class="cls-13" d="M139.56,214.16c3.55-6.23,7.41-12.28,11.43-18.22,2-3,4.09-5.89,6.26-8.77,1.08-1.44,2.2-2.85,3.37-4.25l3.51-4.07q7-8.1,14-16.22a53.94,53.94,0,0,0,6.22-8.53,28.76,28.76,0,0,0,2.23-4.77,17.14,17.14,0,0,0,.69-2.55,12.27,12.27,0,0,0,.23-2.65,11.06,11.06,0,0,1,.17,2.7,16.39,16.39,0,0,1-.37,2.7,26.74,26.74,0,0,1-1.77,5.17,47.16,47.16,0,0,1-5.75,9.26c-4.35,5.7-8.92,11.24-13.61,16.65l-3.53,4c-1.15,1.32-2.27,2.7-3.38,4.08-2.21,2.78-4.38,5.62-6.56,8.45C148.35,202.85,144,208.56,139.56,214.16Z"/><path class="cls-13" d="M139.29,150.32c-1.33,1.84-2.77,3.55-4.25,5.22s-3,3.29-4.55,4.88-3.15,3.13-4.75,4.66l-1.21,1.13-1.21,1.13-1.21,1.12c-.4.37-.81.75-1.14,1.11l-1-1.67c.72-.09,1.43-.17,2.14-.22s1.43-.09,2.15-.11,1.43,0,2.16.07c.36,0,.72.08,1.07.14a4.49,4.49,0,0,1,1,.32,5.15,5.15,0,0,0-1,.07l-1,.19q-1,.22-2,.48l-2,.53c-.67.19-1.35.36-2,.56l-2.86.83,1.85-2.51c.37-.5.73-.93,1.1-1.36s.74-.86,1.11-1.27l1.15-1.23,1.16-1.2q2.36-2.38,4.84-4.62c1.65-1.49,3.35-2.94,5.1-4.32A65.39,65.39,0,0,1,139.29,150.32Z"/><path class="cls-13" d="M127.44,173.49c-.34.69-.69,1.37-1,2s-.71,1.35-1.08,2q-1.11,2-2.26,4t-2.36,3.9c-.8,1.3-1.61,2.58-2.44,3.86l-.12-1.59c.48.49.9,1,1.34,1.47s.84,1,1.24,1.53A30.08,30.08,0,0,1,123,194a19.09,19.09,0,0,1,1,1.79l.21.47.11.24.09.23c.13.32.25.63.36.94a37.67,37.67,0,0,1,1.1,3.78,48,48,0,0,1,1.18,7.69,33.37,33.37,0,0,1-.32,7.74,74.13,74.13,0,0,0-1.23-7.52c-.54-2.46-1.18-4.89-1.92-7.27-.39-1.19-.78-2.37-1.24-3.51-.11-.28-.22-.56-.34-.84l-.19-.39-.19-.4c-.27-.53-.56-1.06-.87-1.58-.63-1-1.32-2-2.06-3-.37-.49-.75-1-1.14-1.46s-.79-1-1.17-1.4l-.7-.8.57-.79c.88-1.24,1.78-2.47,2.68-3.69s1.83-2.43,2.76-3.63,1.89-2.39,2.86-3.57c.48-.59,1-1.18,1.47-1.76S126.92,174.06,127.44,173.49Z"/><path class="cls-13" d="M73,228.71a12.74,12.74,0,0,1,.34-1.74c.13-.57.29-1.14.46-1.7.32-1.11.68-2.21,1-3.3.74-2.17,1.53-4.3,2.21-6.41.36-1.05.6-2.06.89-3.21s.62-2.25,1-3.37a11.67,11.67,0,0,1,1.75-3.25,4.44,4.44,0,0,1,1.48-1.24,2.87,2.87,0,0,1,1.82-.29,3.27,3.27,0,0,0-1.38.89,4.62,4.62,0,0,0-.8,1.33,17.43,17.43,0,0,0-.83,3.14l-.58,3.34c0,.29-.11.57-.16.85l-.08.43-.1.45c-.14.6-.3,1.18-.48,1.75a37.71,37.71,0,0,1-2.85,6.45c-.56,1-1.15,2-1.79,3S73.72,227.75,73,228.71Z"/><path class="cls-13" d="M92.42,191a5.14,5.14,0,0,1,0-2.14,10.53,10.53,0,0,1,.66-2.06,17.91,17.91,0,0,1,1-1.9c.36-.62.77-1.21,1.14-1.77a72.55,72.55,0,0,0,4-6.95l.92-1.8c.32-.61.62-1.22,1-1.83.17-.3.34-.63.56-1a11.06,11.06,0,0,1,.67-.93,13.67,13.67,0,0,1,1.53-1.6,18.38,18.38,0,0,1,3.5-2.48,15.45,15.45,0,0,1,2-.87,6.25,6.25,0,0,1,2.09-.4,8.84,8.84,0,0,0-1.74,1.07c-.53.41-1,.84-1.54,1.29a28.39,28.39,0,0,0-2.74,2.86,17.7,17.7,0,0,0-1.13,1.53c-.17.26-.32.52-.46.78s-.25.54-.39.85l-.86,1.87c-.3.62-.6,1.24-.92,1.86a33.55,33.55,0,0,1-4.68,7l-.35.39-.35.37-.67.74c-.44.5-.87,1-1.27,1.53A8.75,8.75,0,0,0,92.42,191Z"/><path class="cls-16" d="M174.19,227.38a12.43,12.43,0,0,1-5.42-1.25c-4.13-2-6.1-7.6-5.55-15.84.47-7,3.95-24.32,4.1-25l2.37.47c0,.18-3.59,17.91-4.05,24.74-.47,7.08,1.05,12,4.18,13.5,7.21,3.46,14.53-3,16.6-5.11l1.71,1.71C186.28,222.41,180.7,227.38,174.19,227.38Z"/><path class="cls-16" d="M170.36,226.71h-.43c-3.2-.12-8-1.69-12.41-8.43l2-1.34c3.09,4.66,6.71,7.2,10.48,7.35,3.11.11,6.08-1.44,8.37-4.39,6.32-8.13,13.89-32.47,14-32.72l2.32.72c-.32,1-7.77,25-14.36,33.49C177.62,224.83,174.11,226.71,170.36,226.71Z"/><path class="cls-10" d="M193.35,190.21a1.77,1.77,0,0,1-.5-.07,1.89,1.89,0,0,1-1.32-2.32c2.5-9,2.76-14.92-.79-17.29-3.84-2.56-9.94-1.74-14,1.88-3.4,3-5.61,10.9-6.42,13.6a1.88,1.88,0,1,1-3.61-1.07c.13-.44,3.25-10.79,8.13-15.14,5.35-4.76,11.95-5.54,17.22-2,5.08,3.39,6.1,10.27,3.12,21.05A1.89,1.89,0,0,1,193.35,190.21Z"/><path class="cls-16" d="M167.49,182.58a2.6,2.6,0,0,0,1.62.88,8.59,8.59,0,0,0,1.95.13l-1.08,3.7s-.4,1.22-1.41,1.15A2.68,2.68,0,0,1,167,188c-.67-.4-.81-1.21-.47-2.69A20.64,20.64,0,0,1,167.49,182.58Z"/><path class="cls-16" d="M192.07,185.61s-1,3.37-1,3.64a1.7,1.7,0,0,0,.34,1.68,5.83,5.83,0,0,0,2,.81,3.41,3.41,0,0,0,1.34-1.62c.34-1,1-3.57,1-3.57a2.38,2.38,0,0,1-1.34.07A5.47,5.47,0,0,1,192.07,185.61Z"/><path class="cls-10" d="M184.71,223.46a2.2,2.2,0,0,1-.86-.72,2.25,2.25,0,0,1-.58-1.17,1.36,1.36,0,0,1,.63-1.21,5.26,5.26,0,0,0,1.7-2.29c.54-1.08,2.47-2.51,4-1.3s1.79,2.33.89,3.59-2.24,1-3.32,1.88c-.53.44-1.07.7-1.46,1A1,1,0,0,1,184.71,223.46Z"/><path class="cls-10" d="M158.82,219.94a2.29,2.29,0,0,0,1-.57,2.26,2.26,0,0,0,.76-1.06,1.37,1.37,0,0,0-.42-1.3,5.3,5.3,0,0,1-1.31-2.53c-.35-1.16-2-2.89-3.68-1.93s-2.16,2-1.47,3.39,2.05,1.34,3,2.41c.45.52.95.86,1.28,1.2A1,1,0,0,0,158.82,219.94Z"/><path class="cls-10" d="M105.83,233.44c.27,5.73,4.8,10.25,10.12,10.09s9.39-4.92,9.12-10.65-4.8-10.25-10.11-10.09S105.56,227.72,105.83,233.44Z"/><path class="cls-16" d="M105.75,233.25c.21,5.43,4.28,9.69,9.09,9.51s8.54-4.74,8.33-10.18-4.27-9.7-9.08-9.52S105.54,227.81,105.75,233.25Z"/><path class="cls-10" d="M106.48,232.49c.13,3.49,2.74,6.22,5.83,6.1s5.47-3,5.34-6.53-2.74-6.21-5.83-6.1S106.35,229,106.48,232.49Z"/><path class="cls-16" d="M107.74,232.44a4.36,4.36,0,1,0,4.14-5.05A4.64,4.64,0,0,0,107.74,232.44Z"/><path class="cls-16" d="M116.27,224l.57-7.4s-2.87-2-3.58-.66-.55,8-.55,8S113.79,225.35,116.27,224Z"/><path class="cls-17" d="M181.79,69.32c2.33,2.29,7.72,12,8.13,15.66s-.71,11.44-1.12,14.57-1,10.27-1.32,13.55-.7,8.86-3,13c-1.16,2.08-8.49,8.33-10.83,10.43S167,142,161.73,141.36s-11.32-7.17-13-8.9-6.84-5.63-8.35-14.82-1.43-18.25-1.55-21.85A107.59,107.59,0,0,1,139.28,83c.45-5.12,1.13-10,5.2-13.64s10-5.38,15.21-5.53C168.48,63.56,178.74,66.32,181.79,69.32Z"/><g class="cls-18"><path class="cls-19" d="M141.13,116a8.31,8.31,0,0,1-.18-4.82,10.82,10.82,0,0,1,1.79-3.75c1.43-1.87,4.93-2.35,7.06-1.3,2.7,1.34,4.93,4,2.92,6.43s-4.56,4.53-6.72,5.2S142.23,119,141.13,116Z"/><path class="cls-20" d="M142.81,107.46c1.43-1.84,4.86-2.3,7-1.27s3.9,2.87,3.61,4.78a3.34,3.34,0,0,1-.72,1.55c-.32.38-.65.76-1,1.12a14.5,14.5,0,0,1-5.65,4c-2.13.65-3.71,1.21-4.8-1.73a7.93,7.93,0,0,1-.19-4.73A10.14,10.14,0,0,1,142.81,107.46Z"/><path class="cls-21" d="M142.89,107.45c1.41-1.79,4.78-2.25,6.84-1.23s3.83,2.82,3.56,4.7a3.12,3.12,0,0,1-.7,1.52c-.31.38-.64.75-1,1.1a14.36,14.36,0,0,1-5.57,3.85c-2.11.63-3.65,1.17-4.74-1.7a7.78,7.78,0,0,1-.21-4.63A9.85,9.85,0,0,1,142.89,107.45Z"/><path class="cls-22" d="M143,107.45c1.41-1.75,4.71-2.21,6.74-1.19s3.76,2.77,3.5,4.61a3,3,0,0,1-.68,1.5c-.3.37-.62.72-1,1.07a14.17,14.17,0,0,1-5.48,3.74c-2.08.62-3.6,1.14-4.68-1.65a7.46,7.46,0,0,1-.23-4.55A9.39,9.39,0,0,1,143,107.45Z"/><path class="cls-23" d="M143,107.44c1.4-1.7,4.63-2.15,6.63-1.15s3.69,2.73,3.45,4.53a3,3,0,0,1-.67,1.47,13.3,13.3,0,0,1-.94,1,13.93,13.93,0,0,1-5.4,3.64c-2.05.61-3.54,1.1-4.62-1.62a7.25,7.25,0,0,1-.24-4.46A9,9,0,0,1,143,107.44Z"/><path class="cls-24" d="M143.11,107.43c1.39-1.65,4.57-2.1,6.53-1.11s3.62,2.69,3.39,4.45a2.77,2.77,0,0,1-.65,1.45,11.12,11.12,0,0,1-.93,1,13.78,13.78,0,0,1-5.32,3.54c-2,.59-3.47,1.06-4.55-1.59a7,7,0,0,1-.26-4.36A8.81,8.81,0,0,1,143.11,107.43Z"/><path class="cls-25" d="M143.18,107.43a5.86,5.86,0,0,1,6.42-1.08c1.93,1,3.56,2.64,3.34,4.37a2.85,2.85,0,0,1-.62,1.43c-.29.35-.6.67-.92,1a13.67,13.67,0,0,1-5.24,3.44c-2,.56-3.42,1-4.49-1.55a6.8,6.8,0,0,1-.28-4.28A8.48,8.48,0,0,1,143.18,107.43Z"/><path class="cls-26" d="M143.26,107.42a5.77,5.77,0,0,1,6.31-1c1.9,1,3.48,2.6,3.29,4.29a2.67,2.67,0,0,1-.61,1.4,10.44,10.44,0,0,1-.91,1,13.57,13.57,0,0,1-5.15,3.34c-2,.55-3.36,1-4.43-1.52a6.47,6.47,0,0,1-.29-4.19A8.2,8.2,0,0,1,143.26,107.42Z"/><path class="cls-27" d="M143.33,107.42a5.71,5.71,0,0,1,6.21-1c1.86,1,3.41,2.56,3.23,4.22a2.58,2.58,0,0,1-.59,1.37,9.89,9.89,0,0,1-.89.94,13.55,13.55,0,0,1-5.07,3.24c-1.93.53-3.31.95-4.37-1.49a6.2,6.2,0,0,1-.31-4.09A8,8,0,0,1,143.33,107.42Z"/><path class="cls-28" d="M143.4,107.41a5.66,5.66,0,0,1,6.11-1c1.83.94,3.34,2.51,3.17,4.14a2.49,2.49,0,0,1-.57,1.35,8.36,8.36,0,0,1-.88.91,13.31,13.31,0,0,1-5,3.14c-1.89.51-3.25.91-4.3-1.46a6,6,0,0,1-.33-4A7.72,7.72,0,0,1,143.4,107.41Z"/><path class="cls-29" d="M143.48,107.41a5.57,5.57,0,0,1,6-.94c1.8.92,3.28,2.47,3.13,4.06a2.49,2.49,0,0,1-.55,1.32,8.12,8.12,0,0,1-.87.89,13.14,13.14,0,0,1-4.91,3c-1.86.5-3.19.88-4.24-1.41a5.72,5.72,0,0,1-.34-3.91A7.23,7.23,0,0,1,143.48,107.41Z"/><path class="cls-30" d="M143.55,107.4a5.5,5.5,0,0,1,5.89-.89c1.76.9,3.21,2.42,3.07,4a2.4,2.4,0,0,1-.53,1.3,7.76,7.76,0,0,1-.86.86,12.88,12.88,0,0,1-4.82,2.93c-1.83.48-3.14.84-4.19-1.38a5.65,5.65,0,0,1-.35-3.82A7.1,7.1,0,0,1,143.55,107.4Z"/><path class="cls-31" d="M143.62,107.39a5.43,5.43,0,0,1,5.79-.85c1.73.89,3.14,2.38,3,3.89a2.18,2.18,0,0,1-.51,1.27,6.67,6.67,0,0,1-.84.84,13,13,0,0,1-4.74,2.83c-1.81.46-3.09.81-4.13-1.35a5.42,5.42,0,0,1-.37-3.73A6.94,6.94,0,0,1,143.62,107.39Z"/><path class="cls-32" d="M143.7,107.39a5.36,5.36,0,0,1,5.68-.82c1.69.88,3.07,2.33,3,3.81a2.18,2.18,0,0,1-.5,1.25,5.79,5.79,0,0,1-.83.81,12.68,12.68,0,0,1-4.66,2.73c-1.77.44-3,.77-4.06-1.31a5.2,5.2,0,0,1-.39-3.64A6.62,6.62,0,0,1,143.7,107.39Z"/><path class="cls-33" d="M143.77,107.38a5.29,5.29,0,0,1,5.57-.78c1.66.87,3,2.29,2.91,3.73a2.16,2.16,0,0,1-.48,1.23,5.44,5.44,0,0,1-.81.78,12.78,12.78,0,0,1-4.58,2.63c-1.74.42-3,.73-4-1.28a5,5,0,0,1-.4-3.55A6.45,6.45,0,0,1,143.77,107.38Z"/><path class="cls-34" d="M143.85,107.38a5.2,5.2,0,0,1,5.46-.75c1.63.85,2.94,2.25,2.85,3.65a2,2,0,0,1-.45,1.2,4.5,4.5,0,0,1-.81.76,12.65,12.65,0,0,1-4.49,2.53c-1.71.41-2.93.69-3.94-1.25a4.76,4.76,0,0,1-.42-3.46A6.1,6.1,0,0,1,143.85,107.38Z"/><path class="cls-35" d="M143.92,107.37a5.15,5.15,0,0,1,5.36-.71c1.59.84,2.87,2.21,2.8,3.57a2,2,0,0,1-.44,1.18,4.56,4.56,0,0,1-.79.73,12.64,12.64,0,0,1-4.41,2.43c-1.68.39-2.88.65-3.88-1.21a4.56,4.56,0,0,1-.44-3.37A6,6,0,0,1,143.92,107.37Z"/><path class="cls-36" d="M144,107.37a5.1,5.1,0,0,1,5.26-.68c1.55.83,2.8,2.16,2.74,3.49a1.87,1.87,0,0,1-.42,1.15,3.77,3.77,0,0,1-.78.71,12.34,12.34,0,0,1-4.32,2.32c-1.65.38-2.83.63-3.82-1.17a4.36,4.36,0,0,1-.45-3.28A5.75,5.75,0,0,1,144,107.37Z"/><path class="cls-37" d="M144.07,107.36a5,5,0,0,1,5.14-.64c1.53.82,2.74,2.12,2.7,3.42a1.86,1.86,0,0,1-.41,1.12,3.53,3.53,0,0,1-.76.68,12.24,12.24,0,0,1-4.25,2.22c-1.62.36-2.77.59-3.75-1.14a4.2,4.2,0,0,1-.47-3.19A5.53,5.53,0,0,1,144.07,107.36Z"/><path class="cls-38" d="M144.14,107.35a5,5,0,0,1,5-.6c1.49.81,2.67,2.08,2.64,3.34a1.83,1.83,0,0,1-.38,1.1,3.68,3.68,0,0,1-.76.65,12.44,12.44,0,0,1-4.16,2.12c-1.59.34-2.72.55-3.69-1.1a4,4,0,0,1-.49-3.1A5.48,5.48,0,0,1,144.14,107.35Z"/><path class="cls-39" d="M144.21,107.35a4.88,4.88,0,0,1,4.94-.56c1.46.78,2.6,2,2.58,3.25a1.65,1.65,0,0,1-.36,1.07,3,3,0,0,1-.74.63,12.25,12.25,0,0,1-4.08,2c-1.56.32-2.68.51-3.63-1.07a3.79,3.79,0,0,1-.5-3A5.23,5.23,0,0,1,144.21,107.35Z"/><path class="cls-40" d="M144.29,107.34a4.79,4.79,0,0,1,4.83-.52c1.42.77,2.53,2,2.53,3.17a1.68,1.68,0,0,1-.35,1.05,3.08,3.08,0,0,1-.73.6,12.34,12.34,0,0,1-4,1.92c-1.53.3-2.63.48-3.57-1a3.59,3.59,0,0,1-.52-2.91A5.08,5.08,0,0,1,144.29,107.34Z"/><path class="cls-41" d="M144.36,107.34a4.74,4.74,0,0,1,4.72-.49c1.39.76,2.47,1.94,2.48,3.09a1.57,1.57,0,0,1-.33,1,2.87,2.87,0,0,1-.71.57,12.58,12.58,0,0,1-3.92,1.82c-1.49.29-2.57.44-3.51-1a3.47,3.47,0,0,1-.53-2.83A4.89,4.89,0,0,1,144.36,107.34Z"/><path class="cls-42" d="M144.43,107.33a4.67,4.67,0,0,1,4.62-.45c1.36.75,2.4,1.9,2.42,3a1.44,1.44,0,0,1-.31,1,2.41,2.41,0,0,1-.7.55,12.67,12.67,0,0,1-3.83,1.72c-1.47.27-2.53.41-3.45-1a3.26,3.26,0,0,1-.54-2.74A4.74,4.74,0,0,1,144.43,107.33Z"/><path class="cls-43" d="M144.51,107.33a4.61,4.61,0,0,1,4.51-.42c1.32.73,2.33,1.86,2.37,2.93a1.49,1.49,0,0,1-.29,1,2.28,2.28,0,0,1-.69.52,12.62,12.62,0,0,1-3.75,1.62c-1.44.25-2.49.37-3.39-.94a3.08,3.08,0,0,1-.56-2.64A4.5,4.5,0,0,1,144.51,107.33Z"/><path class="cls-44" d="M144.58,107.32a4.54,4.54,0,0,1,4.41-.38,4.07,4.07,0,0,1,2.31,2.85,1.33,1.33,0,0,1-.27.95,2.1,2.1,0,0,1-.68.51,12.78,12.78,0,0,1-3.66,1.5c-1.41.24-2.44.34-3.33-.89a3,3,0,0,1-.58-2.56A4.51,4.51,0,0,1,144.58,107.32Z"/><path class="cls-45" d="M144.66,107.31A4.46,4.46,0,0,1,149,107a4,4,0,0,1,2.26,2.77,1.3,1.3,0,0,1-.25.93,1.94,1.94,0,0,1-.66.48,13.09,13.09,0,0,1-3.59,1.4c-1.37.22-2.39.31-3.26-.86a2.79,2.79,0,0,1-.59-2.47A4.37,4.37,0,0,1,144.66,107.31Z"/><path class="cls-46" d="M144.73,107.31a4.4,4.4,0,0,1,4.19-.31,4,4,0,0,1,2.21,2.69,1.26,1.26,0,0,1-.24.91,1.75,1.75,0,0,1-.65.45,13,13,0,0,1-3.5,1.3c-1.34.2-2.35.28-3.2-.83a2.64,2.64,0,0,1-.61-2.37A4.2,4.2,0,0,1,144.73,107.31Z"/><path class="cls-47" d="M144.8,107.3a4.31,4.31,0,0,1,4.09-.26,3.93,3.93,0,0,1,2.15,2.6,1.19,1.19,0,0,1-.21.88,1.64,1.64,0,0,1-.64.43,13.81,13.81,0,0,1-3.42,1.2c-1.31.19-2.31.24-3.14-.79a2.52,2.52,0,0,1-.63-2.29A4.13,4.13,0,0,1,144.8,107.3Z"/><path class="cls-48" d="M144.88,107.3a4.23,4.23,0,0,1,4-.23A3.86,3.86,0,0,1,151,109.6a1.12,1.12,0,0,1-.19.85,1.59,1.59,0,0,1-.63.4,14.46,14.46,0,0,1-3.33,1.1c-1.29.17-2.27.21-3.08-.76a2.35,2.35,0,0,1-.64-2.2A4,4,0,0,1,144.88,107.3Z"/><path class="cls-49" d="M145,107.29a4.15,4.15,0,0,1,3.87-.19,3.89,3.89,0,0,1,2.05,2.45,1.07,1.07,0,0,1-.18.83,1.41,1.41,0,0,1-.61.37,15.23,15.23,0,0,1-3.26,1c-1.25.15-2.23.18-3-.73a2.22,2.22,0,0,1-.66-2.1C143.32,108.36,144.12,107.76,145,107.29Z"/><path class="cls-50" d="M145,107.29a4.12,4.12,0,0,1,3.77-.16,3.82,3.82,0,0,1,2,2.37,1,1,0,0,1-.16.8,1.21,1.21,0,0,1-.6.35,15.9,15.9,0,0,1-3.17.9c-1.22.13-2.19.14-2.95-.7a2.1,2.1,0,0,1-.68-2A3.9,3.9,0,0,1,145,107.29Z"/><path class="cls-51" d="M145.1,107.28a4,4,0,0,1,3.66-.12,3.8,3.8,0,0,1,1.93,2.29.94.94,0,0,1-.14.78,1.16,1.16,0,0,1-.58.32,17.57,17.57,0,0,1-3.09.79c-1.19.12-2.15.12-2.9-.65a1.94,1.94,0,0,1-.68-1.92C143.46,108.27,144.25,107.72,145.1,107.28Z"/><path class="cls-52" d="M145.17,107.27a4,4,0,0,1,3.56-.08,3.84,3.84,0,0,1,1.88,2.21.93.93,0,0,1-.12.75,1,1,0,0,1-.58.3,18.06,18.06,0,0,1-3,.69,3.3,3.3,0,0,1-2.84-.62,1.86,1.86,0,0,1-.7-1.83C143.52,108.23,144.32,107.69,145.17,107.27Z"/><path class="cls-53" d="M145.24,107.27a3.91,3.91,0,0,1,3.45,0,3.78,3.78,0,0,1,1.83,2.13.85.85,0,0,1-.1.73.9.9,0,0,1-.56.27,23,23,0,0,1-2.92.59,3.45,3.45,0,0,1-2.78-.59c-.86-.81-.8-1.49-.72-1.74C143.59,108.18,144.39,107.67,145.24,107.27Z"/><path class="cls-54" d="M145.32,107.26a3.87,3.87,0,0,1,3.34,0,3.82,3.82,0,0,1,1.77,2,.66.66,0,0,1-.63,1,28.8,28.8,0,0,1-2.84.49,3.6,3.6,0,0,1-2.71-.55c-.88-.78-.81-1.44-.73-1.65C143.66,108.13,144.45,107.64,145.32,107.26Z"/><path class="cls-55" d="M145.39,107.26a3.75,3.75,0,0,1,3.24,0,3.81,3.81,0,0,1,1.72,2,.77.77,0,0,1-.07.68.71.71,0,0,1-.53.22c-.69.07-1.73.34-2.76.39a3.83,3.83,0,0,1-2.65-.52c-.9-.75-.81-1.38-.75-1.56C143.72,108.09,144.52,107.61,145.39,107.26Z"/><path class="cls-56" d="M145.46,107.25a3.67,3.67,0,0,1,3.14.07,3.79,3.79,0,0,1,1.66,1.88.73.73,0,0,1,0,.66.68.68,0,0,1-.53.19c-.64,0-1.67.25-2.67.29a4,4,0,0,1-2.59-.49c-.93-.71-.82-1.33-.77-1.47A3.65,3.65,0,0,1,145.46,107.25Z"/><path class="cls-57" d="M145.54,107.25a3.57,3.57,0,0,1,3,.1,4,4,0,0,1,1.62,1.8.73.73,0,0,1,0,.64.62.62,0,0,1-.51.16c-.61,0-1.61.16-2.59.19a4.48,4.48,0,0,1-2.53-.45c-1-.67-.83-1.28-.78-1.38A3.59,3.59,0,0,1,145.54,107.25Z"/><path class="cls-58" d="M145.61,107.24a3.53,3.53,0,0,1,2.92.14,3.89,3.89,0,0,1,1.56,1.73.62.62,0,0,1,0,.6c-.09.12-.25.16-.5.14-.57,0-1.55.08-2.51.08a4.83,4.83,0,0,1-2.46-.41c-1-.62-.83-1.22-.8-1.29A3.67,3.67,0,0,1,145.61,107.24Z"/><path class="cls-59" d="M145.69,107.23a3.5,3.5,0,0,1,2.81.18,4,4,0,0,1,1.5,1.65.59.59,0,0,1,0,.58c-.08.1-.24.14-.48.11-.55-.07-1.49,0-2.43,0a5.46,5.46,0,0,1-2.4-.38c-1-.57-.83-1.16-.82-1.2A3.83,3.83,0,0,1,145.69,107.23Z"/><path class="cls-60" d="M144,108.08a4.25,4.25,0,0,1,1.8-.85,3.38,3.38,0,0,1,2.71.21,4.26,4.26,0,0,1,1.45,1.57c.19.45.07.75-.45.64a18,18,0,0,0-2.34-.12,6.47,6.47,0,0,1-2.34-.34C143.76,108.67,144,108.08,144,108.08Z"/></g><g class="cls-18"><path class="cls-19" d="M183.91,116.05a8.15,8.15,0,0,0,.3-4.81,10.52,10.52,0,0,0-1.69-3.79c-1.39-1.92-4.87-2.49-7-1.5-2.73,1.27-5,3.83-3.08,6.35s4.45,4.65,6.6,5.38S182.75,119,183.91,116.05Z"/><path class="cls-20" d="M175.52,106c-2.12,1-4,2.76-3.72,4.68a3.18,3.18,0,0,0,.68,1.56c.3.39.63.78,1,1.15a14.55,14.55,0,0,0,5.55,4.1c2.12.71,3.68,1.31,4.84-1.6a8,8,0,0,0,.31-4.72,10.08,10.08,0,0,0-1.7-3.72C181.06,105.57,177.64,105,175.52,106Z"/><path class="cls-21" d="M175.56,106c-2.1,1-3.9,2.72-3.67,4.6a3.13,3.13,0,0,0,.66,1.54c.3.39.62.76.94,1.12a14.33,14.33,0,0,0,5.48,4c2.09.69,3.62,1.27,4.77-1.57a7.64,7.64,0,0,0,.33-4.62,9.93,9.93,0,0,0-1.7-3.66C181,105.61,177.64,105.05,175.56,106Z"/><path class="cls-22" d="M175.59,106.05c-2.06,1-3.83,2.68-3.62,4.52a3,3,0,0,0,.65,1.52c.29.38.61.74.93,1.09a14.27,14.27,0,0,0,5.39,3.9c2.06.67,3.57,1.23,4.72-1.53A7.48,7.48,0,0,0,184,111a9.62,9.62,0,0,0-1.7-3.58C180.93,105.64,177.64,105.1,175.59,106.05Z"/><path class="cls-23" d="M175.62,106.08c-2,1-3.76,2.64-3.56,4.45a3,3,0,0,0,.63,1.48,13.6,13.6,0,0,0,.92,1.07,13.92,13.92,0,0,0,5.31,3.79c2,.66,3.51,1.2,4.65-1.49a7.22,7.22,0,0,0,.36-4.45,9.29,9.29,0,0,0-1.71-3.51C180.86,105.68,177.64,105.14,175.62,106.08Z"/><path class="cls-24" d="M175.65,106.11c-2,.94-3.69,2.6-3.5,4.37a2.84,2.84,0,0,0,.61,1.46,11.29,11.29,0,0,0,.91,1,13.79,13.79,0,0,0,5.23,3.69c2,.64,3.45,1.16,4.59-1.46a7,7,0,0,0,.37-4.36,9,9,0,0,0-1.71-3.44C180.8,105.72,177.64,105.19,175.65,106.11Z"/><path class="cls-25" d="M175.68,106.15c-2,.92-3.61,2.55-3.44,4.28a2.82,2.82,0,0,0,.59,1.44,10.71,10.71,0,0,0,.89,1,13.69,13.69,0,0,0,5.16,3.59c2,.62,3.39,1.12,4.52-1.43a6.69,6.69,0,0,0,.38-4.27,8.52,8.52,0,0,0-1.71-3.37A5.85,5.85,0,0,0,175.68,106.15Z"/><path class="cls-26" d="M175.71,106.18c-1.92.91-3.54,2.51-3.38,4.21a2.62,2.62,0,0,0,.57,1.41,11.75,11.75,0,0,0,.88,1,13.63,13.63,0,0,0,5.07,3.48c1.94.6,3.34,1.08,4.47-1.4a6.5,6.5,0,0,0,.39-4.18A8.12,8.12,0,0,0,182,107.4,5.78,5.78,0,0,0,175.71,106.18Z"/><path class="cls-27" d="M175.75,106.21c-1.89.9-3.48,2.47-3.34,4.13a2.59,2.59,0,0,0,.56,1.39,9.79,9.79,0,0,0,.87,1,13.56,13.56,0,0,0,5,3.38c1.91.58,3.28,1,4.4-1.37a6.23,6.23,0,0,0,.41-4.08,7.94,7.94,0,0,0-1.71-3.23A5.71,5.71,0,0,0,175.75,106.21Z"/><path class="cls-28" d="M175.78,106.24c-1.85.89-3.41,2.43-3.28,4.05a2.54,2.54,0,0,0,.54,1.36,8.48,8.48,0,0,0,.85.94,13.33,13.33,0,0,0,4.92,3.27c1.88.57,3.23,1,4.34-1.33a6,6,0,0,0,.42-4,7.57,7.57,0,0,0-1.72-3.16A5.64,5.64,0,0,0,175.78,106.24Z"/><path class="cls-29" d="M175.81,106.28c-1.82.87-3.34,2.38-3.22,4a2.42,2.42,0,0,0,.52,1.33,7.25,7.25,0,0,0,.84.91,13.21,13.21,0,0,0,4.83,3.17c1.86.55,3.18,1,4.28-1.3a5.81,5.81,0,0,0,.44-3.9,7.43,7.43,0,0,0-1.72-3.09A5.58,5.58,0,0,0,175.81,106.28Z"/><path class="cls-30" d="M175.84,106.31c-1.78.86-3.27,2.34-3.16,3.89a2.3,2.3,0,0,0,.5,1.31,6.27,6.27,0,0,0,.83.88,13,13,0,0,0,4.75,3.07c1.82.53,3.12.93,4.22-1.27a5.58,5.58,0,0,0,.45-3.81,7.18,7.18,0,0,0-1.72-3A5.51,5.51,0,0,0,175.84,106.31Z"/><path class="cls-31" d="M175.87,106.34c-1.75.85-3.2,2.3-3.11,3.81a2.3,2.3,0,0,0,.49,1.29,6.64,6.64,0,0,0,.82.86,13,13,0,0,0,4.67,3c1.79.51,3.07.89,4.15-1.24a5.35,5.35,0,0,0,.47-3.72,6.92,6.92,0,0,0-1.73-2.94A5.44,5.44,0,0,0,175.87,106.34Z"/><path class="cls-32" d="M175.9,106.37c-1.71.84-3.12,2.26-3.05,3.74a2.19,2.19,0,0,0,.47,1.26,6.26,6.26,0,0,0,.8.83,13.11,13.11,0,0,0,4.6,2.86c1.76.49,3,.85,4.09-1.21a5.18,5.18,0,0,0,.48-3.63,6.64,6.64,0,0,0-1.73-2.87A5.36,5.36,0,0,0,175.9,106.37Z"/><path class="cls-33" d="M175.94,106.4c-1.68.83-3.06,2.22-3,3.66a2.12,2.12,0,0,0,.45,1.23,5,5,0,0,0,.79.81,12.85,12.85,0,0,0,4.51,2.75c1.73.48,3,.82,4-1.17a4.89,4.89,0,0,0,.49-3.53,6.38,6.38,0,0,0-1.72-2.81A5.33,5.33,0,0,0,175.94,106.4Z"/><path class="cls-34" d="M176,106.44c-1.65.81-3,2.17-2.94,3.57a2,2,0,0,0,.43,1.21,4.8,4.8,0,0,0,.78.78,12.58,12.58,0,0,0,4.43,2.65c1.7.46,2.91.78,4-1.13a4.76,4.76,0,0,0,.5-3.45,6.17,6.17,0,0,0-1.73-2.74A5.21,5.21,0,0,0,176,106.44Z"/><path class="cls-35" d="M176,106.47c-1.61.8-2.92,2.13-2.89,3.5a2.06,2.06,0,0,0,.41,1.18,4.27,4.27,0,0,0,.78.75,12.54,12.54,0,0,0,4.35,2.55c1.67.44,2.86.74,3.9-1.1a4.56,4.56,0,0,0,.52-3.36,6,6,0,0,0-1.73-2.66A5.14,5.14,0,0,0,176,106.47Z"/><path class="cls-36" d="M176,106.5c-1.58.79-2.85,2.09-2.83,3.42a2,2,0,0,0,.39,1.16,4.78,4.78,0,0,0,.76.73,12.72,12.72,0,0,0,4.28,2.44c1.64.42,2.8.7,3.84-1.07a4.4,4.4,0,0,0,.53-3.27,5.82,5.82,0,0,0-1.73-2.59A5.09,5.09,0,0,0,176,106.5Z"/><path class="cls-37" d="M176.06,106.53c-1.54.78-2.78,2-2.77,3.34a1.87,1.87,0,0,0,.37,1.14,4.18,4.18,0,0,0,.75.7,12.72,12.72,0,0,0,4.19,2.34c1.61.4,2.76.66,3.78-1a4.17,4.17,0,0,0,.55-3.18,5.64,5.64,0,0,0-1.74-2.52A5,5,0,0,0,176.06,106.53Z"/><path class="cls-38" d="M176.09,106.56c-1.51.77-2.71,2-2.71,3.27a1.77,1.77,0,0,0,.35,1.11,3.4,3.4,0,0,0,.74.67,12.47,12.47,0,0,0,4.11,2.23c1.58.39,2.71.63,3.72-1a4,4,0,0,0,.56-3.09,5.56,5.56,0,0,0-1.74-2.45A5,5,0,0,0,176.09,106.56Z"/><path class="cls-39" d="M176.13,106.6c-1.48.74-2.65,2-2.66,3.18a1.66,1.66,0,0,0,.33,1.08,3,3,0,0,0,.73.65,12.46,12.46,0,0,0,4,2.13c1.55.37,2.66.59,3.65-1a3.78,3.78,0,0,0,.58-3,5.17,5.17,0,0,0-1.74-2.38A4.87,4.87,0,0,0,176.13,106.6Z"/><path class="cls-40" d="M176.16,106.63c-1.44.73-2.58,1.92-2.61,3.1a1.64,1.64,0,0,0,.32,1.06,2.83,2.83,0,0,0,.71.62,12.58,12.58,0,0,0,3.95,2c1.52.35,2.62.55,3.6-.94a3.63,3.63,0,0,0,.59-2.9,5.05,5.05,0,0,0-1.75-2.31A4.8,4.8,0,0,0,176.16,106.63Z"/><path class="cls-41" d="M176.19,106.66c-1.41.72-2.51,1.88-2.55,3a1.6,1.6,0,0,0,.3,1,2.92,2.92,0,0,0,.7.6,12.73,12.73,0,0,0,3.87,1.92c1.49.33,2.57.51,3.53-.91a3.42,3.42,0,0,0,.6-2.81,4.88,4.88,0,0,0-1.74-2.24A4.76,4.76,0,0,0,176.19,106.66Z"/><path class="cls-42" d="M176.22,106.69c-1.37.71-2.44,1.84-2.49,3a1.47,1.47,0,0,0,.28,1,2.6,2.6,0,0,0,.69.57,12.62,12.62,0,0,0,3.79,1.82c1.46.31,2.52.47,3.47-.88a3.28,3.28,0,0,0,.61-2.72,4.77,4.77,0,0,0-1.74-2.17A4.69,4.69,0,0,0,176.22,106.69Z"/><path class="cls-43" d="M176.25,106.72c-1.34.7-2.37,1.8-2.43,2.87a1.44,1.44,0,0,0,.26,1,2.32,2.32,0,0,0,.68.54,12.65,12.65,0,0,0,3.71,1.71c1.43.3,2.47.45,3.4-.84a3.1,3.1,0,0,0,.63-2.63,4.94,4.94,0,0,0-6.25-2.64Z"/><path class="cls-44" d="M176.28,106.76a4,4,0,0,0-2.38,2.79,1.38,1.38,0,0,0,.25,1,2.15,2.15,0,0,0,.66.52,13.15,13.15,0,0,0,3.63,1.61c1.4.28,2.44.41,3.35-.81a3,3,0,0,0,.64-2.54,4.91,4.91,0,0,0-6.15-2.52Z"/><path class="cls-45" d="M176.32,106.79A4,4,0,0,0,174,109.5a1.32,1.32,0,0,0,.23.93,1.92,1.92,0,0,0,.65.49,13.06,13.06,0,0,0,3.55,1.51c1.37.26,2.39.37,3.28-.78a2.78,2.78,0,0,0,.66-2.44,4.32,4.32,0,0,0-1.75-2A4.48,4.48,0,0,0,176.32,106.79Z"/><path class="cls-46" d="M176.35,106.82a3.93,3.93,0,0,0-2.27,2.63,1.25,1.25,0,0,0,.21.91,1.87,1.87,0,0,0,.64.47,13.86,13.86,0,0,0,3.47,1.4c1.34.24,2.35.34,3.22-.74a2.66,2.66,0,0,0,.67-2.36,4.26,4.26,0,0,0-1.76-1.89A4.4,4.4,0,0,0,176.35,106.82Z"/><path class="cls-47" d="M176.38,106.85a3.9,3.9,0,0,0-2.21,2.56,1.16,1.16,0,0,0,.19.88,1.65,1.65,0,0,0,.63.44,13.55,13.55,0,0,0,3.39,1.29c1.3.23,2.3.31,3.16-.7a2.52,2.52,0,0,0,.68-2.27,4.25,4.25,0,0,0-1.76-1.82A4.36,4.36,0,0,0,176.38,106.85Z"/><path class="cls-48" d="M176.41,106.89a3.87,3.87,0,0,0-2.16,2.47,1.15,1.15,0,0,0,.18.86,1.43,1.43,0,0,0,.61.41,14.52,14.52,0,0,0,3.31,1.19c1.28.21,2.27.28,3.1-.67a2.35,2.35,0,0,0,.69-2.18c-.16-.59-.94-1.23-1.75-1.74A4.24,4.24,0,0,0,176.41,106.89Z"/><path class="cls-49" d="M176.44,106.92a3.89,3.89,0,0,0-2.1,2.39,1.1,1.1,0,0,0,.16.83,1.28,1.28,0,0,0,.6.39,14.93,14.93,0,0,0,3.23,1.09c1.25.19,2.23.24,3-.64a2.22,2.22,0,0,0,.7-2.09c-.16-.56-.94-1.18-1.76-1.67A4.16,4.16,0,0,0,176.44,106.92Z"/><path class="cls-50" d="M176.47,107a3.84,3.84,0,0,0-2,2.32,1,1,0,0,0,.14.8,1.12,1.12,0,0,0,.59.36,15.57,15.57,0,0,0,3.15,1c1.22.17,2.19.21,3-.61a2.08,2.08,0,0,0,.72-2c-.15-.53-.94-1.12-1.76-1.6A4.13,4.13,0,0,0,176.47,107Z"/><path class="cls-51" d="M176.51,107a3.8,3.8,0,0,0-2,2.24.94.94,0,0,0,.12.78,1.1,1.1,0,0,0,.58.34,18.43,18.43,0,0,0,3.06.88c1.19.15,2.16.18,2.92-.58a2,2,0,0,0,.73-1.9c-.15-.5-.93-1.08-1.77-1.54A4,4,0,0,0,176.51,107Z"/><path class="cls-52" d="M176.54,107a3.88,3.88,0,0,0-1.94,2.16.92.92,0,0,0,.11.76,1,1,0,0,0,.56.31,18.74,18.74,0,0,0,3,.77,3.29,3.29,0,0,0,2.85-.54c.87-.82.84-1.53.75-1.81-.14-.47-.93-1-1.77-1.46A4,4,0,0,0,176.54,107Z"/><path class="cls-53" d="M176.57,107.05a3.77,3.77,0,0,0-1.88,2.08.89.89,0,0,0,.09.73.9.9,0,0,0,.55.28,21.49,21.49,0,0,0,2.91.67,3.43,3.43,0,0,0,2.79-.51c.88-.79.84-1.47.76-1.72-.14-.44-.93-1-1.77-1.39A3.89,3.89,0,0,0,176.57,107.05Z"/><path class="cls-54" d="M176.6,107.08a3.81,3.81,0,0,0-1.82,2,.79.79,0,0,0,.07.7.81.81,0,0,0,.54.26c.72.13,1.78.47,2.83.57a3.6,3.6,0,0,0,2.72-.48c.9-.76.85-1.42.78-1.63-.13-.41-.92-.92-1.78-1.32A3.84,3.84,0,0,0,176.6,107.08Z"/><path class="cls-55" d="M176.63,107.11a3.82,3.82,0,0,0-1.76,1.92.75.75,0,0,0,0,.68.71.71,0,0,0,.52.23c.69.1,1.73.39,2.75.47a3.8,3.8,0,0,0,2.67-.45c.92-.72.85-1.36.79-1.54a4.64,4.64,0,0,0-5-1.31Z"/><path class="cls-56" d="M176.66,107.14A3.85,3.85,0,0,0,175,109a.71.71,0,0,0,0,.66c.09.13.27.14.51.2a16,16,0,0,0,2.67.37,4.06,4.06,0,0,0,2.6-.42c.94-.68.85-1.3.8-1.45a3.67,3.67,0,0,0-1.77-1.18A3.75,3.75,0,0,0,176.66,107.14Z"/><path class="cls-57" d="M176.7,107.17a3.93,3.93,0,0,0-1.66,1.77.68.68,0,0,0,0,.63c.09.12.26.13.5.18a23.2,23.2,0,0,0,2.59.25,4.42,4.42,0,0,0,2.54-.38c1-.64.85-1.25.81-1.35-.11-.32-.9-.78-1.78-1.11A3.62,3.62,0,0,0,176.7,107.17Z"/><path class="cls-58" d="M176.73,107.21a3.88,3.88,0,0,0-1.6,1.68.65.65,0,0,0,0,.61c.08.11.24.13.49.15.57,0,1.55.12,2.51.15a5,5,0,0,0,2.47-.34c1-.6.86-1.2.83-1.27a3.61,3.61,0,0,0-1.78-1A3.49,3.49,0,0,0,176.73,107.21Z"/><path class="cls-59" d="M176.76,107.24a4,4,0,0,0-1.54,1.6.63.63,0,0,0,0,.58.49.49,0,0,0,.48.13c.55-.06,1.5,0,2.43,0a5.54,5.54,0,0,0,2.42-.31c1-.55.85-1.15.84-1.18a3.7,3.7,0,0,0-1.78-1A3.49,3.49,0,0,0,176.76,107.24Z"/><path class="cls-60" d="M181.29,108a4.52,4.52,0,0,0-1.79-.9,3.39,3.39,0,0,0-2.71.14,4,4,0,0,0-1.48,1.53c-.21.44-.1.75.42.65a18.42,18.42,0,0,1,2.35,0,6.5,6.5,0,0,0,2.35-.28C181.47,108.63,181.29,108,181.29,108Z"/></g><path class="cls-61" d="M176,116.28c.6,1,1.26,2.06,1.84,3.09a3.38,3.38,0,0,1,.33,1.55,2.08,2.08,0,0,1-.53,1.49l0,.06a1.71,1.71,0,0,0,1.18-1.51,2.7,2.7,0,0,0-.54-1.88c-.71-1-1.49-1.9-2.25-2.84Z"/><path class="cls-61" d="M148.57,116.59c-.31.47-.62.94-.95,1.39s-.66.85-1,1.43a2.11,2.11,0,0,0,0,1.88,3.3,3.3,0,0,0,1.2,1.31l0,0c-.21-.56-.48-1-.62-1.53a2.34,2.34,0,0,1-.12-1.4c.17-.45.53-1,.76-1.47s.5-1,.72-1.54Z"/><path class="cls-13" d="M176.59,120.3s-6.37-1.2-8.44-1-6,1.1-7.81.51a20.54,20.54,0,0,0-6.72-.8c-2.07.15-4.56.22-4.5.76a17.18,17.18,0,0,0,5.37,6.55c2.86,1.86,10.54,2.85,14,1.64a16.22,16.22,0,0,0,6.69-5A10.14,10.14,0,0,0,176.59,120.3Z"/><path class="cls-62" d="M153.62,119.06a20.54,20.54,0,0,1,6.72.8c1.78.59,5.74-.25,7.81-.51,1.76-.21,6.6.62,8,.87a34.46,34.46,0,0,1-4.62.94c-1.53.19-6.88.91-8.5,1s-5.55-.7-7.37-.86a49.78,49.78,0,0,1-7-1.47C148.63,119.28,151.55,119.21,153.62,119.06Z"/><path class="cls-62" d="M149.12,119.82s-.39-.09-.34-.13a24,24,0,0,0,9.32,4.83c4.76,1.17,10.25,0,12-.47a49.65,49.65,0,0,0,6.11-2.85,8.2,8.2,0,0,1-1.06,1.78,16.22,16.22,0,0,1-6.69,5c-3.45,1.21-11.13.22-14-1.64A17.18,17.18,0,0,1,149.12,119.82Z"/><path class="cls-63" d="M172.36,124.36a15.15,15.15,0,0,0,1.61-4.5c1.47.23,2.62.44,2.62.44a10.14,10.14,0,0,1-1.42,2.68,18.81,18.81,0,0,1-4,3.67Z"/><path class="cls-63" d="M153.31,125.47a18.84,18.84,0,0,1-4.53-5.78c-.05-.42,1.57-.42,3.3-.53A9,9,0,0,0,153.31,125.47Z"/><path class="cls-64" d="M176.59,120.3a63.48,63.48,0,0,0-7.38-1.93,12.12,12.12,0,0,0-5.32.4,11.73,11.73,0,0,1-4.4-.28,15.45,15.45,0,0,0-4.94-.32,38.93,38.93,0,0,0-4.48.69c-1.1.23-1.9.81-1.38,1a46,46,0,0,0,7.62.56c1-.24,3.48.84,6.39.87a31.63,31.63,0,0,0,6.74-.6,17.79,17.79,0,0,1,5.29-.08A2.9,2.9,0,0,0,176.59,120.3Z"/><path class="cls-65" d="M148.69,119.82c-.27-.08.12.2.43,0a9.48,9.48,0,0,0,2.47-.24,32.59,32.59,0,0,1,9.19.21c3.18.6,5.25-.28,7.63-.4,1,0,3.14.32,4.85.49a11.89,11.89,0,0,0,3.33.42s-.44.39-1.86.27a22.44,22.44,0,0,0-5.29.08,31.63,31.63,0,0,1-6.74.6c-2.91,0-5.7-.87-6.72-.81A49.93,49.93,0,0,1,148.69,119.82Z"/><path class="cls-64" d="M176.59,120.3s-2.74,3-3.79,3.88a12.24,12.24,0,0,1-6.16,2.7c-2.61.21-8.3-.07-9.85-.86a20.76,20.76,0,0,1-4.7-3.1c-.68-.81-3.4-3.1-3.4-3.1s3,4.47,3.52,5.48,3.34,4.27,5.71,5,8.37,1.36,10.78.07a18.61,18.61,0,0,0,5.67-5.65A14.82,14.82,0,0,0,176.59,120.3Z"/><path class="cls-66" d="M172.84,125.05c.06.38-.31,1-1.35,1.82a11.66,11.66,0,0,1-4.08,2.24c-1.31.21-4.7.77-4.39-.39s1.26-.75,2.57-1,3.26-.26,4.29-1S172.77,124.61,172.84,125.05Z"/><path class="cls-66" d="M160.52,128.94c.62-.3.3-1-1.17-1.4s-2.75-.56-3.88-1.31-2.34-2-2.25-1.38a7.35,7.35,0,0,0,2.85,3.27C157.4,128.88,159.4,129.49,160.52,128.94Z"/><path class="cls-63" d="M150.73,121a22.85,22.85,0,0,0,5.69,2.41,24.57,24.57,0,0,0,6,.83c1,0,2.06,0,3.08,0a28.48,28.48,0,0,0,3.06-.26,19.21,19.21,0,0,0,3-.65,8.37,8.37,0,0,0,2.76-1.36,6.93,6.93,0,0,1-2.51,2,14.46,14.46,0,0,1-3,1.07,21.67,21.67,0,0,1-3.18.5,31.13,31.13,0,0,1-3.2.07,23.25,23.25,0,0,1-3.21-.31,18.38,18.38,0,0,1-3.11-.87A14.38,14.38,0,0,1,150.73,121Z"/><path class="cls-67" d="M170.14,112.2c-.32,1.21-.75,2.26-2.15,2.19-1.18-.06-1.85-.49-2.91-.07a14,14,0,0,0-2.37,1.66,3.18,3.18,0,0,1-2.9-.3,1.64,1.64,0,0,1-.29-.3c-.67-.92-1.66-2-2.52-2s-2.08.47-2.4.33.48.69,1.27.33a1.63,1.63,0,0,1,1.81.26c.61.38,1,.8,1.52,1.16.86.61,2.32,1.77,4.37.54s2.05-1.14,2.92-1.15a4.75,4.75,0,0,0,2.63-.53A2.9,2.9,0,0,0,170.14,112.2Z"/><path class="cls-67" d="M169.9,113.22c.17-.67.72-.88.43-1.72a3,3,0,0,0-1.52-1.46,2.33,2.33,0,0,1-.8-.57l0,0a2.28,2.28,0,0,0,.72.73,9.33,9.33,0,0,1,.77.64A2.36,2.36,0,0,1,169.9,113.22Z"/><path class="cls-67" d="M154.09,112.37a4.89,4.89,0,0,1,.14-.67,1.6,1.6,0,0,1,.22-.57c.27-.4.52-.81.77-1.23l0,0-1,1a1.24,1.24,0,0,0-.38.72,1,1,0,0,0,.25.75Z"/><path class="cls-68" d="M167.09,100.07a9.14,9.14,0,0,1,4.75-3.79,6.58,6.58,0,0,1,5.64.32,13.8,13.8,0,0,1,2.32,1.82c1.15,1,2.41,2,2.41,2a13.18,13.18,0,0,1-4.1,0c-1.86-.38-5-1.84-6.82-1a25.07,25.07,0,0,1-3.75,1.67C167.05,101.14,166.64,100.84,167.09,100.07Z"/><path class="cls-13" d="M167.55,100.92c.24-.25,1.41-1.33,2-1.87a7.49,7.49,0,0,1,6.07-1.52c3.24.55,3.59,1.52,4.05,1.8.61.38,1.89,1.25,1.89,1.25a12.77,12.77,0,0,1-2.51,1,23.13,23.13,0,0,1-8.1.1c-1.44-.21-2.11-.62-2.66-.5S167.32,101.17,167.55,100.92Z"/><path d="M175.67,97.53a12.82,12.82,0,0,1,1.41.31,3.13,3.13,0,0,1,.54,2,3.1,3.1,0,0,1-1,2,23.23,23.23,0,0,1-4.4-.08,3.09,3.09,0,0,1-.31-4A7.65,7.65,0,0,1,175.67,97.53Z"/><path class="cls-13" d="M176.34,101s.81-1.22.38-1.85-.6-.54-.8-.18.33.62.23,1.1S176,101.38,176.34,101Z"/><path class="cls-13" d="M173.19,101.25c.13-.15-.11-.55-.35-1s0-1.08-.24-.89a1.08,1.08,0,0,0-.38,1.21C172.39,101.12,172.83,101.65,173.19,101.25Z"/><path class="cls-69" d="M167.57,101.1c-.11-.09.12-.21.22-.32l.38-.33.78-.65a7.43,7.43,0,0,1,1.62-1.14,8.06,8.06,0,0,1,3.78-.87,10,10,0,0,1,3.72.87,14.09,14.09,0,0,1,1.65,1,7.33,7.33,0,0,0,1.87.9l0-.07c-.54-.42-1.06-.85-1.54-1.3a10.9,10.9,0,0,0-1.61-1.34,8,8,0,0,0-4.14-.8,8.67,8.67,0,0,0-4,1.19,8.1,8.1,0,0,0-1.59,1.31l-.72.72-.35.37-.18.18c-.07,0-.11.25,0,.28Z"/><path class="cls-69" d="M181.6,100.55a11.93,11.93,0,0,1-3.42.94,26.13,26.13,0,0,1-3.54.29,28.25,28.25,0,0,1-3.56-.23,11.88,11.88,0,0,1-1.76-.34,2.48,2.48,0,0,0-.9-.11,1.61,1.61,0,0,1-.87,0l0,0a1.46,1.46,0,0,0,.9,0,2.55,2.55,0,0,1,.86.15,12.94,12.94,0,0,0,1.76.44,30.51,30.51,0,0,0,3.59.35,18.23,18.23,0,0,0,3.61-.2,8.62,8.62,0,0,0,3.36-1.33Z"/><path class="cls-68" d="M157.33,100.26a9.11,9.11,0,0,0-4.42-4.05,6.07,6.07,0,0,0-5.46.06A12,12,0,0,0,145.12,98c-1.16,1-2.42,1.93-2.42,1.93a12.2,12.2,0,0,0,4,.23c1.81-.29,4.93-1.6,6.63-.69a25.8,25.8,0,0,0,3.56,1.86C157.32,101.35,157.73,101.06,157.33,100.26Z"/><path class="cls-13" d="M156.84,101.09c-.21-.26-1.3-1.41-1.89-2a7.16,7.16,0,0,0-5.8-1.83c-3.15.4-3.54,1.36-4,1.62-.61.35-1.88,1.15-1.88,1.15a10.9,10.9,0,0,0,2.38,1.1,21.41,21.41,0,0,0,7.83.51c1.39-.14,2-.52,2.58-.38S157.06,101.36,156.84,101.09Z"/><path d="M149.15,97.28a13.8,13.8,0,0,0-1.37.25,3.19,3.19,0,0,0-.62,2,3.28,3.28,0,0,0,.85,2.06,22.27,22.27,0,0,0,4.26.12,3.21,3.21,0,0,0,1-2.42,3.3,3.3,0,0,0-.49-1.58A7.28,7.28,0,0,0,149.15,97.28Z"/><path class="cls-13" d="M148.35,100.72s-.72-1.27-.28-1.88.6-.51.77-.14-.33.61-.26,1.09S148.68,101.14,148.35,100.72Z"/><path class="cls-13" d="M151.38,101.14c-.11-.15.14-.54.38-1s0-1.09.28-.88a1.1,1.1,0,0,1,.31,1.23C152.16,101.06,151.71,101.56,151.38,101.14Z"/><path class="cls-69" d="M156.81,101.27c.12-.08-.09-.21-.19-.33l-.35-.35-.72-.7A7.22,7.22,0,0,0,154,98.68a7.59,7.59,0,0,0-3.62-1.06,9.24,9.24,0,0,0-3.63.69,12.08,12.08,0,0,0-1.64,1,7.17,7.17,0,0,1-1.84.81l0-.08c.54-.39,1.06-.8,1.54-1.22a9.59,9.59,0,0,1,1.62-1.27,7.37,7.37,0,0,1,4-.59,7.43,7.43,0,0,1,5.26,2.78l.67.76.33.38.16.2c.07,0,.09.25,0,.28Z"/><path class="cls-69" d="M143.29,100a11.84,11.84,0,0,0,3.26,1.1,24.32,24.32,0,0,0,3.41.47,26.49,26.49,0,0,0,3.45-.06,11,11,0,0,0,1.71-.25,2.17,2.17,0,0,1,.88-.07,1.35,1.35,0,0,0,.84,0l0,0a1.43,1.43,0,0,1-.87,0,2.43,2.43,0,0,0-.84.11,11.16,11.16,0,0,1-1.72.35A26.86,26.86,0,0,1,150,102a17.11,17.11,0,0,1-3.49-.38,8.14,8.14,0,0,1-3.19-1.5Z"/><path class="cls-68" d="M169.65,103.1a13.41,13.41,0,0,0,5.57,1.44,16.35,16.35,0,0,0,2.89-.26,7.45,7.45,0,0,0,2.73-.9,10,10,0,0,1-2.77.57,19.34,19.34,0,0,1-2.83.16,16.67,16.67,0,0,1-2.82-.31A22.46,22.46,0,0,1,169.65,103.1Z"/><path class="cls-68" d="M154.85,103.38c-.89.2-1.79.35-2.69.47a17.31,17.31,0,0,1-2.69.2,17.49,17.49,0,0,1-2.69-.2,12.81,12.81,0,0,1-2.66-.54,8.82,8.82,0,0,0,2.61.87,14.73,14.73,0,0,0,2.74.3A15,15,0,0,0,154.85,103.38Z"/><path class="cls-69" d="M168,95.36c1.3-.1,3-1.18,4.69-1.91a8.49,8.49,0,0,1,6.56-.4,30,30,0,0,1,4.67,3.37s-1.51-1.85-2.45-2.85-3.72-3.13-6.35-2.66c-2.22.4-6.87,1.82-7.61,2.58S167.05,95.44,168,95.36Z"/><path class="cls-69" d="M156.34,95.07c-1.23-.16-2.78-1.33-4.35-2.14a7.58,7.58,0,0,0-6.16-.73,28.49,28.49,0,0,0-4.54,3.13s1.5-1.77,2.43-2.72,3.63-2.94,6.09-2.34c2.09.51,6.4,2.16,7.06,3S157.21,95.2,156.34,95.07Z"/><path class="cls-17" d="M188.84,97.4s2.47-3.53,3.94-2.25.91,4.39.28,6.64a53.31,53.31,0,0,0-1.8,7.47c-.17,2,0,3.88-1.5,4s-3-1.7-3-1.7a23.88,23.88,0,0,0,.75-7C187.17,101.71,188.84,97.4,188.84,97.4Z"/><path class="cls-67" d="M188.86,100.56s1.24-2.76,2.24-2.68,1.18,1.4.78,2.66-.26-.31-1.18.33a2.51,2.51,0,0,0-1.09,2.63c.19,1,1.15,0,1.17,1.4a6.37,6.37,0,0,1-1.13,3.07s.65-2.53-.09-2.31S187.77,104.78,188.86,100.56Z"/><path class="cls-17" d="M138.79,95.79s-1.71-1.88-2.4-.5.22,4,.59,6.38a32.21,32.21,0,0,1,.62,6.1c0,2.15,1,4.83,1.76,4.61s.8-.94.56-3.12a101.74,101.74,0,0,1-.54-10.4A5.93,5.93,0,0,0,138.79,95.79Z"/><path class="cls-61" d="M161,132.29c-.75,0-3.13.65-2.52,1.23s2.38-.33,3.44.25,2.84.41,2.39-.19S163.41,132.25,161,132.29Z"/><path class="cls-69" d="M194.07,87.62a2.53,2.53,0,0,1,0-.67c0-.35.27-.45.28-.78a6.24,6.24,0,0,0-.24-.68c-.12-.36,0-.59-.29-.84a2.64,2.64,0,0,1,.12-.4c.58-.8,1.41-2.12.4-2.82.37-.25.4-.57-.07-.75.43-.29.3-.68-.12-.91.27.14-.19-2-.21-2.11a9.35,9.35,0,0,0-.11-1c.37-.45.79-.88.82-1.23.07-.71-.73-1.5-.82-2.09,0-.2-.26-.42-.54-.65a1.43,1.43,0,0,0,.39-.56c.05-.52-.19-.26-.33-.59s-.32-1.08-.89-1c.33-.85.39-2.93-1-2.72.53-.91-1-1.27-1.65-1.39.44-.73-.73-.59-1-.86s-.49-1-.73-1.29-.51-.39-.68-.69-.11-.6-.28-.9c-.3-.51-.91-1.06-1.25-.29a9.83,9.83,0,0,1-1.17-1,2.56,2.56,0,0,0-1-.87c-.2-.11-.1-.42-.4-.5s-.47.06-.65,0-.16.22-.5,0a3.44,3.44,0,0,1-.4-.37c.25-.48-.28-1.15-.56-1.55-.55-.76-.68-.71-1.51-.4A2.09,2.09,0,0,0,177,56.3a2.09,2.09,0,0,1,0,.21c-.74-.07-.64-.64-1.16-.91-.25-.13-.52.09-.79,0s-.56-.3-.78-.31c-.59,0-.82.38-1.44.26s-.86-.76-1.34-.91c-.75-.22-1,.4-1.7.28-.42-.07-.64-.63-1-.76-.72-.29-1,.14-1.58.19s-.77-.35-1.2.15a.84.84,0,0,0-1.15-.35c-.52.23-.2.58-.46.78-.59.44-1.24-.5-1.69.05-.86-.29-.71-.38-1.59-.16a1.77,1.77,0,0,1-1.87-.47c-.37-.29-.15-.51-.77-.58a1.67,1.67,0,0,0-1,.34c-.48.41-.36,1.1-1.21,1,0,0,.06,0,.06-.09a1.28,1.28,0,0,0-1.79.26c-.22.23.1.46-.35.68-.18.09-.45-.1-.58-.11-.47,0-.86-.22-1.3-.26.06.07.13.23.19.3-.42-.25-.74,0-1.11.11-.65.2-.39.15-.77.51-.06.06.21.35-.15.48s-.33-.22-.47-.22c-.39,0-.73-.37-.9.28a1.92,1.92,0,0,0-1.54-.25c-.24.06-.46.33-.68.44s-.48-.07-.78.2c.7,1.37-1.5.28-1.63,1.06-.63-.1-.44.47-.68.57a2.28,2.28,0,0,1-1,.1c0,.1,0,.2,0,.3-.71-.15-.8.45-.47.91-.39.17-.94-.08-1.25.27s-.13.92-.24,1.24c-.51-.13-.87.11-.8.65-.11,0-.2,0-.31,0,0,.13,0,.4.07.53-.15,0-.38,0-.53,0-.07.54-.69.39-.5,1a.62.62,0,0,0-.48.89c-.4,0-.86,1.16-.82,1.54-.43,0-.54.3-.34.67-.49,0-.54.4-.36.78-.2,0-.36.13-.54.14.09.5.48.89.62,1.31a1.68,1.68,0,0,0-1.44,1c-.29.76.41,1.11.27,1.8-.24,1.17-1.63,1.79-1.41,3.07.45.47-.19.66-.35,1.06-.24.61,0,.64.15,1.21a4.59,4.59,0,0,1-.27,2.46,8.81,8.81,0,0,1-.28,1.43c-.21.45-.7.43-.48,1,.09.24.46.15.56.34s.05.39.12.54c.22.43.11.84.74,1,0,.34,0,1.24.3,1.52a15.2,15.2,0,0,1,.31,3,2.79,2.79,0,0,0,.4,2.05A3.47,3.47,0,0,1,136,93a10.41,10.41,0,0,0,.38,2.33c.1.44,1.15,0,1.15,0l1.32,1.41.29-1.71s0-1.15,0-1.58a5.34,5.34,0,0,0-.17-1.31,2.83,2.83,0,0,1,.3-1.84c.36-.83,0-1.44-.1-2.17a14.66,14.66,0,0,1,.23-2.56,16.6,16.6,0,0,1,.35-2.42c.18-.42.57-1.67.57-1.67s.25-1.13.3-1.71a4.22,4.22,0,0,1,.87-1.79,3.41,3.41,0,0,0,.58-1.68,4.6,4.6,0,0,1,.7-1.52s1-1.49,1.57-1.44,1.5-.73,2-1.27,3.85-1.25,4.3-1.5a5.5,5.5,0,0,1,1.61-.29c.58-.09,2.73,0,2.73,0a12.93,12.93,0,0,1,2.37-.8,3.54,3.54,0,0,1,1.72.15c.56.19,4.13.5,4.65,1.12s1.35-.74,1.35-.74a3.32,3.32,0,0,1,1.56.28c.41.32,1.44,0,2.34-.38a11.64,11.64,0,0,1,4.2-.35c.56.19.67.49.92.94s4.09.93,4.65,1.13.58-.1,1.26.39a21.21,21.21,0,0,1,3.58,3.48c.24.59.8.79,1.05,1.24s.67.49,1.34,1.12,1.62,4.46,1.59,4.89a13,13,0,0,0,.28,1.75,14.27,14.27,0,0,1-.23,4.29c-.36.83.18,1.17.54,2.06a8.67,8.67,0,0,1,.08,4,22.21,22.21,0,0,0,0,4.46,19.14,19.14,0,0,0,1.24-2.63c.19-.56,2.56-1.36,2.56-1.36l.66-1-.2-1a5.33,5.33,0,0,1,.7-2.56c.47-.6.25-.32.08-.65a1.77,1.77,0,0,1,.22-.85c.28-.44,1.08-.62,1.1-1.12C194.62,87.85,194.13,87.83,194.07,87.62Z"/><path class="cls-69" d="M139.05,90.61c.24-.52,1.06-.66,1.21-1a4.84,4.84,0,0,0,0-2.27c1.5-.84,1.15-1.56,1.37-2.92A3.25,3.25,0,0,1,143.29,82c2-2-.07-1.88.58-3.8.54-1.61,3.85,0,2.69-2.31,1.88.59,1.76-.86,2.24-1.55.59-.84.79-.26,1.81-1,.7-.48-.11-1.29-.1-1.46.77-.36,1.36.59,2.18,0s1.54-1.72,2.41-.86c.61,0,1.47-.46,1.37-1.14,1,0,.31-.48,2.12.16a5.76,5.76,0,0,0,3.31.32c.37,1.77,3.11,1.18,3.84.25-.11-.07-.38-.32-.56-.43.68.07,1.31-.23,1.94-.17s1.16,1.08,1.6,1.11c1,.08,1.61-.33,2.4.28s1.93.39,2.9.41c.78,0,2.82-.72,2.18.5-.34.64.65.73,1.42,1.32s.58,1.48,1.5,2,2,.49,2.69,1.39c.28.37-.76.82.33,1.41a6.07,6.07,0,0,1,1.36.91c.38,1.33-.76,1.22.15,2.49.56.79,1.7.66,1.15,2.28-.64-.25.08,2.57.78,2.66,2.59-.2.57,2.88.8,4.06,1.7.09,1,1.85,1.05,2.93l.37.09a3.39,3.39,0,0,0,.61,2.65c.86-6.94,2.35-15.72-1.67-22-2.08-3.23-6.07-5.27-9.53-6.89a36.26,36.26,0,0,0-16.45-3.82,29.32,29.32,0,0,0-12.23,2.85c-3,1.42-5,4.13-7.21,6.61-3.16,3.56-2.86,6.6-3,11-.13,3.75-.58,6.85.42,10.63C139.23,93.52,138.43,92,139.05,90.61Z"/><path class="cls-70" d="M142,114a35.56,35.56,0,0,0,1.66,8.56,15.76,15.76,0,0,0,1.87,3.82,10.77,10.77,0,0,0,1.35,1.61l1.53,1.59c2,2.13,4,4.23,6.22,6.15a28.25,28.25,0,0,0,3.46,2.61,8.64,8.64,0,0,0,4,1.44,7.84,7.84,0,0,1-4.32-1,22,22,0,0,1-3.75-2.41,61.93,61.93,0,0,1-6.48-6l-1.51-1.6a11,11,0,0,1-1.44-1.79,15,15,0,0,1-1.82-4.15A25.56,25.56,0,0,1,142,114Z"/><path class="cls-70" d="M186.18,112.8a15.2,15.2,0,0,1,.13,3.37,18.93,18.93,0,0,1-.49,3.35,16.7,16.7,0,0,1-1.11,3.21,10.87,10.87,0,0,1-1.86,2.82,31.47,31.47,0,0,0,2.15-6.23c.26-1.06.46-2.14.66-3.22S186,113.91,186.18,112.8Z"/><path class="cls-5" d="M183.82,137.48c0,.94,1.22,1.27.72,2.26a1.64,1.64,0,0,0,.89-1.61c2.29-.14-1.57,3.91,1.28,3.55-.84,1.31-.51,3.9,1.56,4.1,0-1-.73-1.79-.15-2.85.84.1,1.76,0,1.95-.83-.09-.1-.25-.15-.34-.26a15,15,0,0,0,1.9,0c1.06-1.6-1.79-2-1.15-3.15.23-.42,4.68-1,1.66-2.28.85-.38.81-1.2,1.31-1.85,1.18,1.27.8,1.79,3.14,1.07,1-.3,1.62.06,1.74-1.25a1.52,1.52,0,0,0-1.49-1.71,2.14,2.14,0,0,0-.23-1.37c1.13.13,2.45-.31,2.08-1.51,2.19-.1.25-2.17-.5-2.65.64-.51.41-1.2-.18-1.73a4.86,4.86,0,0,1,.79-.23,2.53,2.53,0,0,0-1-1.8,2.25,2.25,0,0,1,.43-.86A5.16,5.16,0,0,0,200,123a1.07,1.07,0,0,0-.37-1.59c1.52.21,2.84-.63,1.28-1.83,2.41,1,5.23-1.22,2.24-2.49,2.61.08,1.47-.75,1.75-2.13-.37-.11-.58-.39-1-.42.93-.14,2.76,0,3.52-.19,1.13-.33,1.77-2.15.07-2.09,1.94-.19.89-2-.71-1.91-.08-.77,3.46-2.52,0-2.94a1.25,1.25,0,0,0-.23-2c1.16-.14,3.27,1.52,3.37-.84,1.1-.38,2.75-.28,2.53-1.71.84-.39,1.36-1.13.55-1.67.46-.08,1.78-.55,1.23-1.63,1.72.24,2.27-1.59.67-2.32.13.14.11-.4.11-.37a2.9,2.9,0,0,1-.57-.25c1.25-.78,4-1.7,2.7-3.39,1.17-.64,1.07-2.17-.51-2.06,1.61-3-1.68-1.19-1.83-3.09-.07-.83,1.3-.85,1.36-1.67s-.95-1.06-1.77-1.3c.54-1,2.21-.49,2.61-1.67.5-1.44-1.18-1.39-1.93-2,.09-.13.23-.3.33-.43-.07-.21-.29-.61-.39-.84-.26,0-.58-.08-.83-.07.16-1.83-1.38-.58.19-2.51.82-1,1.75-2.31-.65-2.29.43-.61,2.66-2.62.23-2.49.1-.2.06-.78.16-1-5-.12.76-2.8-.45-5.62-2.07-.42-3.23,1.89-4.72-.4-.89-1.37-.12-.82.28-1.77.31-.74,1-1.83-.86-1.44.13-1.55-1.32-1-1.42.2-3.2.4,2-4.64-1.67-4.16.63-.93.42-2.45.56-3.48-.46,0-1.07-.15-1.51-.07,1.35-1.58-.47-2.47-2-2.49.19-.3.06-.72.16-1a1.34,1.34,0,0,0-2,1,.91.91,0,0,1-.83-.22c.43-.91.28-2-.94-2.06-1.44-.08-1.78,1.94-3.56.43l.24-.33c-.52.39-.8.19-1.34.3.12-1.08-.79-2.26-1.79-1.77,1.56-1.58-1.65-1.78-2.69-.76,0-.81,2.06-2.79-.22-2.67-.14-.87-.9-1.89-1.79-1.08a4.63,4.63,0,0,1-.07-.74,3.14,3.14,0,0,1-.82,0,.37.37,0,0,0,.21-.28c-.74-.77-2.09-.36-2.9,0,.55-1.19-.31-2.32-1.83-1.86s-.9,2-2.24.22c-.45-.58,0-.77-.66-1.3-.48-.37-1.36-.29-1.63-.42-1-.47-1.87-1.42-3.26-1.8-.67.61-3.81,3.14-3.44.84a3.11,3.11,0,0,0-3.38.77c-.81-.83-.47-2.09-2.18-2-1.13,0-2,1-2.85,1.63-.68-.83-1.73-.43-2.52-.44-1,0-2.23-.62-2.46.5.15-1.32-2-1.52-3-1.13s-1.28,1.49-1.78,2.32c-1.66.7-3.24-1.1-3.57,1.67-.69,0-.66-.73-1.08-.78a9.69,9.69,0,0,0-1.4.25c-.92,0-2.51-.37-2.18,1.33-.29-2.69-4.35,0-3.61,1.27-1.2,0-1.77.79-2.67,1.09a11.23,11.23,0,0,0-2.51.78c-1.8,1-1.17,2.34-3.49,3,0-2.45-3.94-.49-3,1-1.06.41-2.59,1.45-1.18,2.35-1.64-.14-2.9,1.9-1.12,2.71-1.13.1-4.1,1-2.41,2.44-.79.61-2,1.28-1.35,2.29-.69.37-1,1-.67,1.67-1,.53-2.19,1.85-.49,2.5-1.19.94-2.09-1.33-3.29.88-.41.77.1,1.53,0,1.93s-.65.7-1.14,1.15c-.83.76-2.71,1.62-2.41,3,.5,2.33,2.33.43,3.55.45.34,3.42-1.41,1-3.15,2-1.46.89-1.24,3.64.7,3.79-.56,1.06.68,1.12,1.58,1-1,.52-2,1.58-.45,2.21-1.55.06-1.89,2.29,0,2.12a1.77,1.77,0,0,0-1.51,1.88c.21,1,1.72.84,1.81,1.66s-1.51,1.23-1.64,2.09.65,1.08,1.37,1.61c-.93,1-2.14,1.15-2.25,2.72s.94,1.32,1.53,2.56c-1.88-.1-3.49.72-2.55,2.7.67,1.4,2.6,1.85,2,3.66.41-.15,1.54-.65,1.56-1.16,0-.91-1.4-.64-1.59-1.08-.51-1.16,1.26-2,2.44-1.81.72,1.41-.76,2.92,1.3,3.52-2.19.17-2.16,2.81.28,1.94-.55,1.06-1.05,2.6.9,2.46-.79.67-1.07,2.15.39,2.25-1.31.61-1.08,2-1,3.1,1,.2,2.66-.79,3.06.41l-.39.41c.65.07,1.33,0,2,.08a2.69,2.69,0,0,1-.29.81c-1.88-.26-.83,1.84.25,2.24-.87.13-1.38.9-.84,1.56.78,1,1.94,0,2.63-.12,1.94-.41,3.39.48,1,1.48a7.79,7.79,0,0,1,1.07.07c-.2,1.39.56,2,2,2,0-.12,0-.23.07-.35a10.3,10.3,0,0,1,2.34.59c-2,.64-1.85,4.81.92,3.59-.22,0-.58,0-.8,0,.09.63.75.86,1.5.84-.12,1.11.65,1.63,1.19,2.43.89.14,1.73.28,2.62.5-.29,1.14-2.69,1.25-2.67,2.46s2.73,1.52,3.52.81c-3,.74-3.05,4.38,0,2.47.91-.56,1.27-1.72,2.68-.94,1.24.68,1,1.9-.09,2.49a6.46,6.46,0,0,0,.63,1c.75-.07,3.31-.16,1.83,1.29,1.08-.11,1.07.48,1.27,1.25.07.24-.68.52-.64.66.25.73.71.41,1,.83.82,1.07.74.33.44,1.57,0,.16-.56,2.73.69,1.81,1-.74,1-2.63,1.28-3.64.5-1.84-.49-5.57-1.88-7.2-3.76-4.42-4.37-7.92-7.14-12.95-3.6-6.53-1.88-5.2-4.85-12.05-1.76-4-4.94-12.82-.89-14.78s4.84-5.61,5.74-10.15c.72-3.66-.27-11.77,11.05-16,1.75-.64,5.39-3.93,7.28-3.92,4.59,0,9,1.12,13.48,2A31.07,31.07,0,0,1,182.16,69c3.38,2.17,3,7.24,5.66,10.09,5.42,5.74,6.06,4.06,7.87,11.56.94,3.92,1.7,10.8.93,14.61-.83,4.17-3.42,7.78-4.76,11.93-1.8,5.58-1.26.21-3.5,5.6-.9,2.17-3.8,3.55-3.89,5.88-.1,3,2.28,1.47,1.66,3.23-.36,1,.08,2.12-.48,3.15S183.82,136.39,183.82,137.48Z"/><path class="cls-10" d="M186.43,168.1s.46,1.17.43,1.17a1.88,1.88,0,0,1-1.79-2,84.19,84.19,0,0,1,3-13.47c4.09-13.29.24-13.68-4.37-15.3-.3-2.12-.48-2.57-.21-3.83,2.7.63,7.83,3,9,7.49.84,3.34.26,7.82-1.91,14.53A96.31,96.31,0,0,0,188,167.56C188,168.57,187.43,168.1,186.43,168.1Z"/><path class="cls-10" d="M114.81,220.65h-.14a1.9,1.9,0,0,1-1.75-2,143.18,143.18,0,0,1,8.2-39.33c11.8-30.92,26.85-40.19,27.42-40.57a21.67,21.67,0,0,1-.63,4.22c-.89.74-12.94,8.45-24.24,38.07-1.53,4-6.19,16.94-7.55,36.63C116.05,218.66,115.79,220.65,114.81,220.65Z"/></g></g></svg>