<svg xmlns="http://www.w3.org/2000/svg" xmlns:xlink="http://www.w3.org/1999/xlink" viewBox="0 0 322.94 322.94"><defs><style>.cls-1{fill:none;}.cls-2{fill:#bcbcbc;}.cls-3{clip-path:url(#clip-path);}.cls-4{fill:#9fafbc;}.cls-5{fill:#e4ad81;}.cls-6{fill:#d79561;}.cls-7{fill:#152063;}.cls-8{fill:#0b1547;}.cls-9{fill:#b1770c;}.cls-10{fill:#915d0a;}.cls-11{fill:#223077;}.cls-12{fill:#dfe9f4;}.cls-13{fill:#c6d4e0;}.cls-14{fill:#fff;}.cls-15{fill:#b6c5d3;}.cls-16{fill:#6d8c99;}.cls-17{fill:#ebb486;}.cls-18{opacity:0.5;}.cls-19{opacity:0.45;}.cls-20{fill:#ebb386;}.cls-21{fill:#ebb286;}.cls-22{fill:#ebb186;}.cls-23{fill:#ebb086;}.cls-24{fill:#ebaf85;}.cls-25{fill:#eaae85;}.cls-26{fill:#eaad85;}.cls-27{fill:#eaac85;}.cls-28{fill:#eaab85;}.cls-29{fill:#eaaa85;}.cls-30{fill:#eaa985;}.cls-31{fill:#eaa885;}.cls-32{fill:#eaa784;}.cls-33{fill:#eaa684;}.cls-34{fill:#eaa584;}.cls-35{fill:#eaa484;}.cls-36{fill:#eaa384;}.cls-37{fill:#e9a384;}.cls-38{fill:#e9a284;}.cls-39{fill:#e9a184;}.cls-40{fill:#e9a084;}.cls-41{fill:#e99f84;}.cls-42{fill:#e99e83;}.cls-43{fill:#e99d83;}.cls-44{fill:#e99c83;}.cls-45{fill:#e99b83;}.cls-46{fill:#e99a83;}.cls-47{fill:#e99983;}.cls-48{fill:#e99883;}.cls-49{fill:#e89783;}.cls-50{fill:#e89682;}.cls-51{fill:#e89582;}.cls-52{fill:#e89482;}.cls-53{fill:#e89382;}.cls-54{fill:#e89282;}.cls-55{fill:#ce956b;}.cls-56{fill:#af734a;}.cls-57{fill:#895633;}.cls-58{fill:#efc9af;}.cls-59{fill:#2b1506;}.cls-60{fill:#723f1d;}.cls-61{fill:#d1886b;}.cls-62{fill:#d89882;}</style><clipPath id="clip-path"><rect class="cls-1" width="322.94" height="322.94" rx="64.41"/></clipPath></defs><g id="background"><rect class="cls-2" width="322.94" height="322.94" rx="64.41"/></g><g id="image"><g class="cls-3"><path class="cls-4" d="M132.53,147.23s-5-16.85,5.51-27.69,40.07-8.19,45-1,5.06,20.6,3.4,27.82-13.18,20.71-23.1,21.91S138.59,164.69,132.53,147.23Z"/><path class="cls-5" d="M135.87,107.66s3.3,12.64,1.65,21.07-1.65,9-5.51,11.44-14.32,6-14.32,6,12.67,37.32,28.64,42.13,26.44,1.81,38.56-9S202,146.19,202,146.19s-18.18-7.23-19.28-17.46a179.5,179.5,0,0,1-.55-22.88s-4.41,10.24-15.43,12S135.87,107.66,135.87,107.66Z"/><path class="cls-6" d="M182,115c0-5.21.14-9.1.14-9.1s-4.41,10.24-15.43,12-30.84-10.23-30.84-10.23a74.36,74.36,0,0,1,2.1,14.56c3,5.68,7.4,11,13.87,12.53C165.91,138,175.93,129.68,182,115Z"/><path class="cls-6" d="M138.07,136.85s4.68,8.43,8,10.24a63.27,63.27,0,0,1,11,8.43,53.3,53.3,0,0,1,4.13,5.71,24.59,24.59,0,0,1,5-7.82c3.31-3.31,7.16-5.12,9.09-7.83S182.14,132,182.14,132s.82,11.74.82,15.35-7.16,16-10.74,20.77-10.46,11.13-18.73,5.11-16.52-20.16-16.8-25.58A36.41,36.41,0,0,1,138.07,136.85Z"/><path class="cls-7" d="M137,132.34s2.75,12.64,8.81,16.86,16.53,15,16.53,15,6.06-7.22,9.91-12,6.61-8.42,8.26-13.24a52.43,52.43,0,0,0,2.21-10.23s2.2,6,5.5,8.43,8.82,6.62,8.82,6.62-2.36,16.77-4.41,26.48c-3.3,15.65-13.22,48.76-29.19,50s-33.6-41.53-36.91-56c-2.63-11.5-3.85-19.26-3.85-19.26s6.06-1.8,9.36-4.81A21.5,21.5,0,0,0,137,132.34Z"/><path class="cls-8" d="M133.66,148s9.64,28,10.74,30.7c0,0,3-4.51,5.24-7.82,3.91-5.89,9.09-7.83,12.39-7.53s5.23-1.5,8.54,2.11,8.81,11.43,8.81,11.43a116,116,0,0,0,5.51-21.66c1.38-10.54-1.1-11.74-1.1-11.74s-6,9.57-10.93,12.54c-10.36,6.27-10.1,7.12-20.56,2.91A80.13,80.13,0,0,1,133.66,148Z"/><path class="cls-9" d="M154.59,217.22l1.66-50.57s5.51,4.82,8.26,2.41l2.75-2.41,6.61,47.56s-7.6,6.87-10.46,6A86.81,86.81,0,0,1,154.59,217.22Z"/><path class="cls-10" d="M164.78,172.67c.51-3,1.25-.76,2.85-3.37l-.37-2.65-2.75,2.41c-2.75,2.41-8.26-2.41-8.26-2.41l-.09,2.62,2.29,1.6s.28,10.83.55,12.34,1.14.9,1.38-3.32a47.85,47.85,0,0,1,1.1-8.12s1.65,3.91,2.48,6.32S164.23,176,164.78,172.67Z"/><path class="cls-9" d="M153.77,157.62s.82,3.92,1.1,5.72a25.33,25.33,0,0,0,1.38,4.52s3.12,2.68,5.92,2.4a12.73,12.73,0,0,0,5.64-2.1l1.11-6,.27-5.12a14.85,14.85,0,0,1-7.43,4.52C157.35,162.44,153.77,157.62,153.77,157.62Z"/><path class="cls-10" d="M155.42,165.45a4.21,4.21,0,0,1,1.93-2.41c1.38-.6,3.68-1.41,3.68-1.41s-6.44-2.8-7.26-4Z"/><path class="cls-10" d="M163.68,161.54s2.21.3,3,1.2a8.59,8.59,0,0,1,1.38,2.71,26.76,26.76,0,0,0,1.1-5.42v-3S165.06,161.23,163.68,161.54Z"/><path class="cls-7" d="M161.49,161.72s-6.07-2.89-7.72-.49-9.09,14.15-9.09,14.15-5-9.93-8-17.46-4.95-16.55-4.68-17.75,1.38-1.51,2.48-3.62.83-4.21,1.93-6l1.1-1.8a18.07,18.07,0,0,0,.83,6.62c1.1,3,3.3,10.84,7.43,13.85C151.43,153.31,150.75,151.85,161.49,161.72Z"/><path class="cls-7" d="M161.49,161.72s5.5-2.89,7.7-1.69,10.47,12.64,10.47,12.64a170.18,170.18,0,0,0,5.23-17.45c1.93-8.43,2.48-20.17,2.48-20.17a12,12,0,0,1-2.76-4.82c-1.1-3.31-2.47-6.92-2.47-6.92s0,8.13-.83,10.84S177.73,145,174.7,148,162.87,159.61,161.49,161.72Z"/><path class="cls-11" d="M137,129.63s.55,13.55,3.85,17.16,7.71,6.32,9.64,8.12a27,27,0,0,0,3.31,2.71,93.87,93.87,0,0,0-6.89-7.22,25.6,25.6,0,0,1-7.16-9.33C138.07,137.16,137,129.63,137,129.63Z"/><path class="cls-11" d="M164.42,159.43s5.14-5,7.62-7.73,5.41-4.91,6.79-8.22a59.48,59.48,0,0,0,2.48-9.33s-.28,6.92-2.2,11.13a21.35,21.35,0,0,1-6.34,8.43C170,155.82,164.42,159.43,164.42,159.43Z"/><path class="cls-12" d="M232.81,160s-4-4-6.24-4.81-7-4-11-4.82-10.65-5.22-15.79-7.22-13.22-12.45-13.22-12.45.19,1.41.74,5c.48,3.17-5.15,18.26-7.35,22.67s-9.18,22.88-11.75,29.7c-2.06,5.48-6.42,26.09-6.42,26.09s-3.13-18.87-6.06-24.49S143.94,162.84,141,158.83s-8.45-26.49-8.45-26.49-3.67,6-5.87,7.63-7,5.21-9,6.22-5.69,3.41-9,5S98.41,156,94.37,157.62A31,31,0,0,0,86.29,163s8.81,18.06,12.12,34.31c1.85,9.12,4.41,40.33,5,50S100.06,284,99,293.66s-5,44.55-5.51,59-5,78.86-5.51,98.72-1.1,43.34-1.1,43.34,15.43,1.21,20.93,4.22,50.68,11.43,64.45,9,24.24-6.63,30.3-7.23,27-5.42,27-5.42,2.2-53,1.65-72.83-4-74.55-5-86.68c-1.1-14.45-8.26-56.58-10.46-69.83s-3.18-22.79-2.76-30.09c.55-9.64,1.1-18.06,1.66-22.28s4.4-16.85,7.71-24.07S231.71,165.45,232.81,160Z"/><path class="cls-13" d="M225.1,166.05c-2.75-1.81-7.16,10.83-10.46,25.88-3,13.47-4.41,13.85-4.41,13.85a38,38,0,0,1-2.76-15.65c.55-10.84-1.1-15.65-1.1-15.65s-5,10.23-4.4,16.25,3.3,12,3.3,21.67,0,9.63-1.65,6S200.31,213,199.21,207s-.55-11.43-2.2-9-.55,13.85.55,22.88,4.41,8.42,4.41,15.65-3.86,9-3.86,9a58.81,58.81,0,0,1-13.77,8.42c-8.26,3.62-18.18,4.82-24.24,3.62s-18.73-2.41-24.78-5.42-13.22-5.42-16-7.22-1.65-11.44,1.1-23.48-1.65-19.26-3.3-9.63-5,7.82-5,.6-3.3-25.88-5-33.11-3.3-1.2-1.65,7.83-1.1,7.82-2.75,3.61c-3.26-8.3-7.16-13.85-9.92-16.85-1.4-1.54-2.13-3.25-3.56-4.07,2.87,6.73,7,17.48,9.07,27.54,1.85,9.12,4.41,40.33,5,50S100.06,284,99,293.66s-5,44.55-5.51,59c0,.18,0,.37,0,.56,9.44-1.27,25.19-12.94,34.17-16.21,9.92-3.61,34.16,4.82,39.66,4.22,3.12-.34-2-10.49,1.84-13.65,3-2.42,14.47-.67,21.48.2,9.56,1.19,22.4,5.62,30.67,12.84,2.38,2.09,4.22,3.68,5.63,4.92-.28-4.25-.52-7.63-.68-9.73-1.1-14.45-8.26-56.58-10.46-69.83s-3.18-22.79-2.76-30.09c.55-9.64,1.1-18.06,1.66-22.28s4.4-16.85,7.71-24.07c1.5-3.29,3.57-8.56,5.48-13.84C227.86,170.32,227,167.31,225.1,166.05Z"/><path class="cls-4" d="M224.67,322.52c-2.54-18.63-7.23-46.28-8.93-56.55-2.21-13.24-3.18-22.79-2.76-30.09.55-9.64,1.1-18.06,1.66-22.28.43-3.35,3-12,5.64-19.06-.26-1.07-.49-1.57-.69-1.4-5,4.21-6.19,9.48-8.26,22.27-.48,3-4.13-11.76-1.65,12.64.28,2.8-5.8-5.1-5.51-2.41,2.2,20.47-4.12,24.29-5,25.89-2.2,4.21-5.51,4.21-12.67,6.62s-24.23,1.2-32.5,0-25.33-.6-30.29-.6-6.06-3-8.26-7.23-1.11-19.86-2.76-16.85-1.65-12.64-1.65-18.06-3.31-21.67-3.86-18.66.55,12,.55,12a86.14,86.14,0,0,1-5.5-12c-1.7-4.33-5.44-10.88-8.82-16.48a125.65,125.65,0,0,1,5,17.08c1.85,9.12,4.41,40.33,5,50S100.06,284,99,293.66c-.73,6.38-2.1,17-3.49,32.31,2.55-.49,7.36,1.43,10.47,1.8,9.26,1.13,18.36,2.61,28.27,3.82,4.49.54,19.28,1.6,28.65,1.6,1.65-4,.36-9.83,1.83-10.63,6.25-3.42,13.2-3.77,15.24-4.22,5.51-1.2,14.88-2.08,18.18-1.8,7.16.6,10.47,1.8,19.83,4.81A18,18,0,0,0,224.67,322.52Z"/><path class="cls-14" d="M89.05,161.84a104.39,104.39,0,0,1,11.56-5.42c5-1.81,10.47-3,12.67-5.42s5-3,5.51,0,4.41,20.47,1.1,21.07-4.4-13.85-7.16-10.23,3.4,12.42-1.1,10.23c-5-2.41-6.61-7.83-8.26-6-4,4.34,1.65,14.45-2.76,9.63S89.05,161.84,89.05,161.84Z"/><path class="cls-14" d="M204.17,149.2s3.85-.61,6.61,1.2a19.47,19.47,0,0,0,8.26,3c1.65,0,9.37,6,9.37,6s-2.21-.6-6.06,1.8-6.06,19.87-9.37,14.45,2.76-13.24-2.75-16.25A11.07,11.07,0,0,1,204.17,149.2Z"/><path class="cls-15" d="M126.69,140l-9.55,35.71a44.3,44.3,0,0,1,10.46-3c5-.6,6.06-2.41,6.61,1.81s-2.75,19.26-2.75,19.26,6.61-1.81,12.12,2.41,18.73,21.67,18.73,21.67l-8.82-28.9c-3.3-10.83-14.32-25.28-17.07-33.1s-6.06-19.27-6.06-19.27Z"/><path class="cls-15" d="M188.19,137.16s1.11,9.63-3.3,18.06-14.32,23.47-15.42,29.49-7.16,33.11-7.16,33.11a129.52,129.52,0,0,0,11-12.64c7.16-9,19.83-22.58,19.83-22.58l-9.91-8.72s9.36,0,12.12,1.8a59.69,59.69,0,0,1,5.5,4.21s-1.1-12-1.65-21.06a110.5,110.5,0,0,0-2.75-17.76Z"/><path class="cls-12" d="M138,122.22s-4.86,2.29-5.41,10.12,13.22,36.72,17.08,42.74a95.85,95.85,0,0,1,8.81,18.66c1.65,4.81,3.86,24.08,3.86,24.08s-7.94-13.65-11-18.06c-7.16-10.23-17.08-9-17.08-9l4.41-19.26s-2.2-6-8.26-4.22a41.73,41.73,0,0,0-10.47,4.82s2.21-11.44,3.86-18.06a156.87,156.87,0,0,0,2.75-16.25s2.21-1.81,3.31-6.62a19.28,19.28,0,0,1,4.05-8l3.79-3.6Z"/><path class="cls-12" d="M162.31,217.82a181.63,181.63,0,0,1,3.85-29.5c3.31-14.44,10.1-22.67,13.5-30.2,3.3-7.32,6.88-17.32,6.88-21.87,0-5.52.17-11.06-1.77-13.7a23,23,0,0,0-2.84-3l-.19-1.89a31,31,0,0,1,5.9,5.68c2.21,3,3.86,10.24,5,12.64a21.88,21.88,0,0,0,3.86,5.12s1.1,16.55,1.65,22,1.1,9,1.1,9-1.65,0-6.61-1.81-12.94,2.41-12.94,2.41l11.29,9s-5,2.41-12.12,10.84C172.16,200.39,162.31,217.82,162.31,217.82Z"/><path class="cls-15" d="M161.47,508c0-1.31-.83-132-.83-148.07,0-6.68.42-18.12.85-30.24.64-17.49,1.29-35.58.81-41.92-.34-4.46-.41-11.3-.47-18.54-.1-10.59.07-21.36-.9-29.85-.75-6.54.51-22,.55-22.73l.83.76c0,.17-1,14.85-.28,21.21,1,8.6,1.35,19.95,1.45,30.59.07,7.21.13,14,.46,18.41.5,6.45-.16,24.6-.79,42.15-.44,12.09-.86,23.51-.86,30.16,0,16.06.82,146.74.83,148.06Z"/><path class="cls-12" d="M209.68,261.16s4.4-15.65,3.3-25.28-.55-24.68,1.66-32.51,8.81-18.66,11-25.28S232.81,160,232.81,160a25.3,25.3,0,0,1,6.06,7.22c2.2,4.22,5,14.45,6.61,17.46s2.76,10.23,3.31,13.24.55,9.63,2.2,15.05,2.2,7.22,2.75,16.25-.55,30.1-.55,34.92a64.1,64.1,0,0,1-2.2,16.25c-1.65,6.62-7.53,23.07-11.94,20.06s-3.48-18.86-7.34-22.47-11.57-10.83-16-12A9.7,9.7,0,0,1,209.68,261.16Z"/><path class="cls-15" d="M227.85,259.75c2.76,1.21,5,9.43,9.37,19.06s3.85,4.42,3.12-1.8C238.08,257.84,229,255.14,229,255.14a41.88,41.88,0,0,1,9.36,7.22c3.86,4.21,4.41,12.64,6.61,17.46s3.31-1.21,2.2-6.62c-.72-3.58-2.2-10.24-4.4-13.85-3.58-5.86-12.12-9-12.12-9a24.6,24.6,0,0,1,8.81,3c3.86,2.41,5.51,6.62,5.51,4.82s-2.2-6.62-5.51-10.24-4.4-4.81-2.75-5.41,0-5.42-2.21-7.83-2.75-3-2.75-4.81-1.1-4.82-3.86-2.41-6.6-.6-6.6-.6,6.6-4.82,9.91-7.83-1.65-5.42-5-3-8.26,8.43-8.26,8.43,2.75-6,3.86-9,6-9,10.46-13.85,3.31-6.62,3.31-6.62-5.51,4.22-11,7.83-8.81,18.66-9.91,16.25,7.16-23.47,10.46-30.1c0,0,6.06-21.06,6.61-24.68.1-.67-.26-.38-.91.55-1.63,3.92-3.86,9.43-5.15,13.3-2.2,6.62-8.81,17.46-11,25.28s-2.76,22.87-1.66,32.51-3.3,25.28-3.3,25.28S225.1,258.55,227.85,259.75Z"/><path class="cls-14" d="M235.57,165.45c-1.25,3.4-.55,8.43-2.76,10.83s-8.26,16.26-5,13.85,7.17-9.63,8.82-12,2.75,1.2,3.85,3.61,2.21,6.62,1.66,9-6.06,9-8.27,15.05,2.76,0,6.06-3,4.41-1.81,4.41,1.2-1.1,8.43,0,10.24,3.86,7.82,3.86,12.64-3.86,7.22-3.86,10.83,2.75,4.82,4.41,10.23,1.1,14.45,1.1,14.45v10.23s5-24.68,3.85-39.12-1.65-18.06-3.85-24.08-1.65-13.84-2.2-17.46-6.06-13.24-7.17-17.45S236.67,162.44,235.57,165.45Z"/><path class="cls-5" d="M97.31,314.13S94.55,298.48,99,288.85a77.8,77.8,0,0,1,9.37-15.65s25.15,5.21,32.86,4.61,38.37,3.61,46.09,0,12.48-19.66,14.69-25.08,3.85-10.83,6.61-13.24,4.4-6,6.61-7.83a8.6,8.6,0,0,1,2.57-2.41,2.68,2.68,0,0,1,2.75.61c.74.6.92,3.21.92,3.21s1.28-1,3.3-2.41,3.68-1.41,4.59-1a2.94,2.94,0,0,1,1.66,2.8,17,17,0,0,1-.92,4s2-1.21,3.12.2,1.47,3.21.92,4.21a35.15,35.15,0,0,1-3.67,4,3.92,3.92,0,0,1,.55,3.21c-.37,2.2-1.47,2.81-2.21,3.61s-3.67,4.72-4,5.21c-2.38,3.22-5.69,11.84-7.89,16.86-1.78,4-3.39,10.48-5.14,14.85-1.43,3.54-9.18,12-11,13.24,0,0-3.12,5.42-13.59,8.23-3.11.83-39.47,7.42-46.45,7.62S101.16,316.74,97.31,314.13Z"/><path class="cls-6" d="M204.35,258s3.12-8.23,4-10.24,1.47-3.81,2.94-5.41,5.14-4.22,6.24-5.42,3.86-3.81,3.86-3.81l-.92-3.21a14,14,0,0,1-1.84,3.81,52.47,52.47,0,0,1-5.69,5.42,19.14,19.14,0,0,0-4.59,6C207.11,247.71,204.35,258,204.35,258Z"/><path class="cls-6" d="M209.49,258.35s2.94-7.83,4.41-9.83,4.59-3.61,6.61-5.42a50.57,50.57,0,0,1,6.43-4.82c1.65-1,3.12-1.8,3.12-1.8a20.09,20.09,0,0,0,.92-4,7.07,7.07,0,0,0-.37-2.2,8,8,0,0,1-2.57,5.82c-.89.84-5.51,3.21-7.9,4.81-1.91,1.29-5.14,3.21-7.16,6C211.85,248.49,209.49,258.35,209.49,258.35Z"/><path class="cls-6" d="M214.64,259s1.65-5,2.38-6.42,2.62-2.8,4.23-4c2.38-1.81,4.5-3.14,5.5-3.82,2.39-1.6,4.23-2.2,5.88-4.21,1.23-1.49.55-3.81.55-3.81s1.65,1.6,1.47,3.21-.92,1.81-1.47,2.61a18,18,0,0,1-2.75,2.41,10.57,10.57,0,0,0-2.39.8c-2,.8-4.59,3.21-6.06,4.61a14.87,14.87,0,0,0-3.67,4.82c-.74,1.8-3.49,7-3.49,7Z"/><path class="cls-6" d="M228.77,251.73c.74-.8,1.84-1.41,2.21-3.61a3.92,3.92,0,0,0-.55-3.21s0,2.6-.74,3.61a33.89,33.89,0,0,1-4.77,4.41c-.92.6-4.78,4.42-5.33,6s-5.14,13.44-6.24,16.85a96.27,96.27,0,0,1-4.41,11.64c-1.28,2.41-5.69,6.82-6.61,8.43s-5.14,7.82-7,8.83-7.35,5-7.35,5l.21.08c9.56-2.88,12.92-5,12.92-5,1.84-1.21,9.13-12.61,10.56-16.15,1.75-4.37,3.36-10.81,5.14-14.85,2.2-5,5.51-13.64,7.89-16.86C225.1,256.45,228,252.53,228.77,251.73Z"/><path class="cls-7" d="M184.89,278.41c-.55,2-.18,9.23,4.59,18.66a90.22,90.22,0,0,0,5,8.43l2,2.21s-7.16,3.21-9.18,3.81-6.61,1.81-6.61,1.81-4.23,3-7.35,3.81c-2,.51-15.79,1.81-15.79,1.81a71.81,71.81,0,0,1-2.75-16.06c-.55-9.23,1.28-24.68,1.28-24.68s8.45.4,11.39.81S184.89,278.41,184.89,278.41Z"/><path class="cls-8" d="M173.32,317.14c3.12-.8,7.35-3.81,7.35-3.81s4.59-1.21,6.61-1.81,9.18-3.81,9.18-3.81l-2-2.21s-.78-1.16-1.84-2.89A14.5,14.5,0,0,1,188,304.7c-2.75.6-7.89,1.4-8.81,2.61s-6.43,3.61-8.08,3.61-10.47-5-12.85-12.44c-2-6.11-1.94-16.68-1.87-20.25l-.34,0s-3.67,3.61-1.28,24.68a71.35,71.35,0,0,0,3.49,15.65S171.32,317.65,173.32,317.14Z"/><path class="cls-8" d="M156.61,298.28s9.92,1.8,14.14,3.21,21.85,5.42,23.87,5c0,0-6.61-11.43-8.08-15.65a48,48,0,0,1-2-8.82s-13.77,1.6-16.52,1.2-12.67.4-12.67.4Z"/><path class="cls-12" d="M156.06,278.21s-1.1,4.82.74,25.89c.2,2.29,1.28,8.22,4.22,25.28,0,0-9.91,0-14.32-.8s-21.12-2.41-25-3.21c-6.51-1.36-32.32-5-36.36-8.23-1.53-1.22-4.77-5-2.57-15.85s5.33-18.66,10.65-24.08,13.22-6.82,15.61-6.82,12.67,2.61,14.87,3.41,8.26,2.61,11.75,2.81S156.06,278.21,156.06,278.21Z"/><path class="cls-15" d="M156.06,278.21s-16.89-1.4-20.38-1.6-9.55-2-11.75-2.81-12.48-3.41-14.87-3.41a9.82,9.82,0,0,0-1.2.08c6.39,2.1,16.11,5.35,18.64,6.54,3.86,1.8,11.2,8.83,14.32,9.83,1.26.41,2.94,1,4.88,1.58a35.88,35.88,0,0,0,.26,8.05c2.76.8,8.27,2.56,10,2.61C155.59,290.51,156.06,278.21,156.06,278.21Z"/><path class="cls-5" d="M109.06,270.39s6.24,1.2,8.08,1.6,8.63,2.41,10.1,3a25.07,25.07,0,0,0,6.24,1.41c1.28,0,2.75-2.61,2.75-2.61s-2.2-4-1.83-7.22.73-5.62.73-5.62a6.75,6.75,0,0,1-4.77,1c-2.39-.6-10.84-3.21-12.86-2.81s-8.07,3.81-8.07,3.81Z"/><path class="cls-6" d="M127.24,275a25.07,25.07,0,0,0,6.24,1.41c1.28,0,2.75-2.61,2.75-2.61s-2.2-4-1.83-7.22.73-5.62.73-5.62a6.75,6.75,0,0,1-4.77,1l-.43-.11c-1.87,4.56-2.5,6.2-6.73,6.73-4.78.6-7.35-2.41-6.61-5a10.48,10.48,0,0,0,0-4.13,71.3,71.3,0,0,0-7.11,3.52l-.37,7.43s6.24,1.2,8.08,1.6S125.77,274.4,127.24,275Z"/><path class="cls-7" d="M131.64,273.6s0-2.81.37-6.82a20.17,20.17,0,0,1,1.29-6,6.38,6.38,0,0,0,2.57-.2,27,27,0,0,1,8.26-.2,64.46,64.46,0,0,0,6.61.6s-1.47,7.42-1.84,11.23-.55,13.65-.55,13.65a10.11,10.11,0,0,1-5.69-1.21,17,17,0,0,1-5.51-4.21,45.32,45.32,0,0,0-5.51-4.21Z"/><path class="cls-8" d="M148.35,285.84s.18-9.83.55-13.65S150.74,261,150.74,261l-1-.06a28.61,28.61,0,0,0-3,9.09c-.55,3.61-1.71,3.34-3.49,2.81-2-.61-5.14-3-6.79-3.42a29.12,29.12,0,0,0-4.59-.38c-.19,2.79-.19,4.6-.19,4.6v2.61a45.32,45.32,0,0,1,5.51,4.21,17,17,0,0,0,5.51,4.21A10.11,10.11,0,0,0,148.35,285.84Z"/><path class="cls-12" d="M150.74,261s-1.84,3-2.94,10.23a108.19,108.19,0,0,0-.73,11.44c.18,3.61.36,10.63.36,10.63a64.42,64.42,0,0,1,11,1.81c6.79,1.8,10.1,3.41,15.24,4.61,3.14.74,20.2,6.42,28.28,7.83s19.27,2.21,23.5.4,13-3,16-7.22-4.22-28.3-7.71-35.12-6.43-10.43-7.53-11c-2.16-1.18-11.93.2-16.16,1.4s-13.22,3.41-15.42,3.81-13,2.21-15.42,2.21S153.49,260.36,150.74,261Z"/><path class="cls-14" d="M151.47,261.76a28.63,28.63,0,0,0-2.57,10.43c-.06,2,.74.81,3.67-2.4s11.39-1.21,16.16.2,16.34,1.6,22.77,0,12.61-6.06,21.85-7.43c5.42-.8,18.31,11.29,18.64,9.13.82-5.42-6.16-12.54-6.16-12.54s-1.1-3.81-9.36-3S194.62,261,191.68,262s-18.54.6-21.48.4S152.76,261,151.47,261.76Z"/><path class="cls-12" d="M86.29,163s-5.14,3-6.61,7.42-7,16.46-7.71,24.89.73,16.85-.37,22.87A220,220,0,0,0,69,247.11c0,8,.37,26.09,2.21,33.31s8.81,22.47,9.54,25.68,2.57,9.63,7.35,11.24,10.65-2.81,11.38-16.45,1.1-22.48,4-25.29,5.51-5.21,5.51-5.21,3.67,4.35,3.67.4c0-5.62-.37-12-2.2-15.65s.73-8,.73-12.44-2.57-20.07-5.14-28.49-8.63-24.66-10.65-29.3S88.13,162.84,86.29,163Z"/><path class="cls-15" d="M109.87,271.24c.95-.55,1.91-1.07,2.86-1.56,0-5.33-.49-11.16-2.2-14.54-1.84-3.61.73-8,.73-12.44s-2.57-20.07-5.14-28.49c-.68-2.23-1.6-5-2.63-8a1.87,1.87,0,0,0,.06.73c1.1,5.22,3.31,14.85,4,21.67s1.1,9.23-.37,6.42-8.81-6.42-14-8-5.14,0-5.14,0,12.12,6,15.42,10a16.5,16.5,0,0,1,3.31,12c-.37,2.81-.37,4.41,1.83,8s.74,5.82.74,5.82a26.94,26.94,0,0,1-7.35-1.4c-2.94-1.2-6.61.4-11,4s1.46,3.61,5.87,1.61,10.28,1.2,10.28,1.2-3.67,1.21-8.44,5.62-5.88,6.42-5.51,10.43,3.3-2.81,10.28-8.83c2.94-2.8,5.51-5.21,5.51-5.21S109.4,270.79,109.87,271.24Z"/><path class="cls-14" d="M84.09,167.66c-2,2.21-3.31,2.4-4.41,6.42s-4.41,12-5.51,15.25-.36,6.82,0,10.83,6.25,10.43,11.39,12.44-.74-2-4-7.22-4.41-8.83-2.94-11.64,3.3-2.41,6.24-2.41-2.93-3.21-1.47-10,4-9.23,4-9.23S86.29,165.25,84.09,167.66Z"/><path class="cls-14" d="M73.44,207.38c0,4.44.37,10.84-.37,13.25s-1.47,10-1.83,13.64.73,12,.73,16.45.37,12,.73,16.86,2.94,5.22,7,0a20.83,20.83,0,0,1,8.81-6.82s7.72-2,7-3.21-4.77-3.61-10.28-.81-8.45,1.21-8.81-.4.36-8.43,3.3-10,3.31-1.2,0-6.42-5.14-9.63-3.67-14.45,6.24-4.41,10.65-5.21-1.47-2-5.14-5.22S73.44,203,73.44,207.38Z"/><path class="cls-14" d="M74.54,280s-.37,4,1.47,6.82,4.41,10.43,5.14,13.24,2.94,10.84,4.77,12.44,4.41-2,4.41-2-1.47,0-4.41-6.42-2.57-14.85-3.67-18.46-.37-10-.73-11.64S75.27,275.6,74.54,280Z"/><path class="cls-16" d="M133,239.54c1.82-.41,3.65-.94,5.25-1.41l2.07-.59a52.2,52.2,0,0,0,6.62-2.26l-.79-2.05a49.66,49.66,0,0,1-6.34,2.16c-.6.16-1.32.38-2.11.61-3.4,1-9.09,2.65-11.3,1.67-2.59-1.16-4.83-10.79-6.3-17.16-1.67-7.21-4-21.92-4-22.07l-2.06.37c0,.15,2.36,14.94,4,22.23,2.25,9.68,4.22,17.2,7.52,18.67C127.31,240.49,130.11,240.17,133,239.54Z"/><path class="cls-16" d="M125.47,244.26s2.73-1.79,7.51-4.44c1-.57,1.94-1,2.8-1.51,3.37-1.76,5.8-3,8-6,1.25-1.69,1.77-6.16,1.62-9.51-.16-3.67-.75-7.8-1.23-11.11-.2-1.44-.39-2.69-.49-3.65-.58-5.17-4.52-19.66-4.68-20.27l-2,.61c0,.15,4.06,14.93,4.62,19.91.1,1,.29,2.27.5,3.73.47,3.27,1.06,7.33,1.21,10.88s-.5,7.12-1.18,8.05c-1.9,2.57-4,3.69-7.28,5.39-.87.46-1.81,1-2.84,1.53-4.85,2.7-7.52,4.44-7.64,4.52Z"/><path class="cls-8" d="M151.52,236c1.72-.64,1.95-1.6,2.35-2.92s-1.46-3.56-3.11-3.53-2.62,1.26-3.85,1.72-1.53,2-1.26,3.7a3.29,3.29,0,0,0,1.6,2.33Z"/><path class="cls-8" d="M122.65,247.44c-1.53,1.06-2.4.67-3.62.2s-1.79-3.39-.76-4.76,2.54-1.44,3.63-2.2,2.46-.05,3.53,1.18a3.51,3.51,0,0,1,.78,2.77Z"/><path class="cls-16" d="M138.74,185.65s2.82,8,2.73,9.27a1.87,1.87,0,0,1-3.33.85c-1.18-1.59-2.3-8.87-2.3-8.87S137.58,185.55,138.74,185.65Z"/><path class="cls-16" d="M116.29,195.38a31.15,31.15,0,0,1,1,8.52c-.52.82-3,1.61-3.39,0-1.15-5.17-.39-7.59-.39-7.59S114.93,194.78,116.29,195.38Z"/><path class="cls-8" d="M115.23,198.5a1.63,1.63,0,0,0,1.23-1.69c0-.12-.45-11.59,1.74-17.12a10.27,10.27,0,0,1,6.09-5.67,5.57,5.57,0,0,1,5.25,1c5.1,4,7.14,14.64,7.16,14.74a1.57,1.57,0,0,0,1.84,1.31h0a1.66,1.66,0,0,0,1.21-2c-.09-.49-2.3-12-8.37-16.76a8.55,8.55,0,0,0-7.94-1.55,13.34,13.34,0,0,0-8.15,7.59c-2.46,6.22-2,18-2,18.54a1.61,1.61,0,0,0,1.63,1.59Z"/><path class="cls-8" d="M125.36,173.51l-.49-1.57c0-.11-.83-3.08-1-12.06-.19-10.34,2.73-18.34,3.45-22.35.62-3.47-2.17.6-2.72,1.48-1.88,3-4.12,7.21-3.85,20.94.18,9.65,1.06,12.71,1.16,13l.5,1.57Z"/><path class="cls-8" d="M202.5,240.24c-1.1,5.84-5.94,9.73-10.82,8.7s-7.93-6.61-6.82-12.45,5.94-9.73,10.81-8.7S203.6,234.4,202.5,240.24Z"/><path class="cls-16" d="M203.93,239.69c-1.1,5.84-5.94,9.74-10.81,8.71s-7.93-6.61-6.83-12.45,5.94-9.73,10.81-8.7S205,233.85,203.93,239.69Z"/><path class="cls-8" d="M203.31,238.75c-.7,3.75-3.81,6.24-6.93,5.58s-5.08-4.23-4.38-8,3.81-6.24,6.94-5.57S204,235,203.31,238.75Z"/><path class="cls-16" d="M202,238.48c-.54,2.9-2.95,4.83-5.36,4.32s-3.94-3.28-3.39-6.18,2.95-4.82,5.37-4.31S202.58,235.59,202,238.48Z"/><path class="cls-16" d="M194.73,227.87l1.87-9.29s2-.41,2.51,1.11-1.48,7.86-1.48,7.86S197,229.77,194.73,227.87Z"/><path class="cls-8" d="M197.5,222.26a1.52,1.52,0,0,1-.51-.09,1.78,1.78,0,0,1-1.07-2.22c.06-.21,4.84-16.35,4.71-40.12-.19-34.49-6.21-40.25-9.43-47.91a54.87,54.87,0,0,0-2.46-7.1l1.9,1.51c4.52,6.39,13.13,17.82,13.33,53.48.13,24.41-4.67,40.54-4.88,41.22A1.68,1.68,0,0,1,197.5,222.26Z"/><path class="cls-17" d="M175.89,49.3c3,1.57,7.82,12.07,8.63,18.71s1,17.62,1,20.81.82,20.29-3,26a81.09,81.09,0,0,1-10.65,12.65c-5.28,5-15.26,6.08-21,1.88s-11.92-8.83-15-13.38-3.78-17.36-4.44-24.19-1.92-26.9,3.71-34.41S160,40.82,175.89,49.3Z"/><g class="cls-18"><g class="cls-19"><path class="cls-17" d="M135.12,105.12a11.36,11.36,0,0,1-.41-6.69,14.58,14.58,0,0,1,2.37-5.27c1.93-2.67,6.8-3.45,9.8-2.07,3.82,1.76,7,5.33,4.29,8.83S145,106.39,142,107.4,136.74,109.27,135.12,105.12Z"/><path class="cls-20" d="M137.18,93.15c1.93-2.6,6.7-3.38,9.66-2S152.37,95,152,97.65a4.43,4.43,0,0,1-1,2.17c-.42.55-.87,1.08-1.33,1.6-2.43,2.69-5.26,4.87-7.75,5.7-3,1-5.14,1.82-6.75-2.23a11,11,0,0,1-.43-6.57A14.14,14.14,0,0,1,137.18,93.15Z"/><path class="cls-21" d="M137.29,93.14c1.91-2.54,6.59-3.31,9.5-2s5.43,3.78,5.11,6.4a4.26,4.26,0,0,1-.92,2.14q-.63.81-1.32,1.56c-2.4,2.61-5.18,4.75-7.64,5.56-2.92,1-5.06,1.76-6.66-2.19a10.64,10.64,0,0,1-.45-6.43A13.46,13.46,0,0,1,137.29,93.14Z"/><path class="cls-21" d="M137.39,93.13c1.91-2.48,6.5-3.24,9.36-1.91s5.33,3.73,5,6.3a4.14,4.14,0,0,1-.9,2.1c-.41.53-.85,1-1.3,1.52-2.36,2.54-5.1,4.63-7.53,5.42-2.88.93-5,1.71-6.58-2.14a10.27,10.27,0,0,1-.46-6.31A13.05,13.05,0,0,1,137.39,93.13Z"/><path class="cls-22" d="M137.49,93.12c1.9-2.42,6.4-3.16,9.21-1.85s5.24,3.67,5,6.18a4.1,4.1,0,0,1-.88,2.07c-.4.52-.83,1-1.28,1.49-2.33,2.46-5,4.5-7.42,5.27-2.83.91-4.89,1.65-6.49-2.1a10,10,0,0,1-.48-6.18A12.52,12.52,0,0,1,137.49,93.12Z"/><path class="cls-23" d="M137.59,93.1c1.89-2.35,6.3-3.08,9.07-1.79s5.14,3.61,4.88,6.08a4,4,0,0,1-.85,2c-.4.51-.83,1-1.27,1.45-2.29,2.38-4.93,4.38-7.31,5.12-2.79.89-4.81,1.61-6.4-2a9.61,9.61,0,0,1-.5-6.06A12.25,12.25,0,0,1,137.59,93.1Z"/><path class="cls-24" d="M137.7,93.09c1.87-2.29,6.2-3,8.92-1.73s5,3.55,4.8,6a3.93,3.93,0,0,1-.83,2,15.34,15.34,0,0,1-1.25,1.41c-2.25,2.31-4.85,4.26-7.19,5-2.75.86-4.74,1.55-6.32-2a9.31,9.31,0,0,1-.53-5.93A12,12,0,0,1,137.7,93.09Z"/><path class="cls-25" d="M137.8,93.08c1.86-2.23,6.1-2.94,8.77-1.68s4.94,3.49,4.72,5.86a3.67,3.67,0,0,1-.8,2,14.61,14.61,0,0,1-1.23,1.38c-2.22,2.22-4.77,4.13-7.08,4.83-2.71.84-4.66,1.5-6.23-2a9,9,0,0,1-.55-5.81A11.62,11.62,0,0,1,137.8,93.08Z"/><path class="cls-26" d="M137.9,93.07c1.85-2.17,6-2.87,8.63-1.62s4.84,3.43,4.64,5.74a3.59,3.59,0,0,1-.78,1.93,11.81,11.81,0,0,1-1.21,1.34,18.73,18.73,0,0,1-7,4.69c-2.67.81-4.58,1.45-6.14-1.91a8.68,8.68,0,0,1-.57-5.68A11.09,11.09,0,0,1,137.9,93.07Z"/><path class="cls-26" d="M138,93.06c1.85-2.11,5.91-2.8,8.48-1.57s4.75,3.38,4.57,5.64A3.5,3.5,0,0,1,150.3,99a11.34,11.34,0,0,1-1.2,1.3,18.64,18.64,0,0,1-6.86,4.55c-2.62.78-4.5,1.39-6.05-1.86a8.36,8.36,0,0,1-.59-5.56A10.76,10.76,0,0,1,138,93.06Z"/><path class="cls-27" d="M138.11,93.05c1.83-2,5.8-2.72,8.33-1.51s4.65,3.31,4.49,5.52a3.46,3.46,0,0,1-.73,1.86,10.89,10.89,0,0,1-1.18,1.27,18.46,18.46,0,0,1-6.75,4.4c-2.58.75-4.43,1.34-6-1.82a8,8,0,0,1-.61-5.43A10.29,10.29,0,0,1,138.11,93.05Z"/><path class="cls-28" d="M138.21,93a7.7,7.7,0,0,1,8.18-1.46c2.49,1.2,4.56,3.26,4.41,5.42a3.26,3.26,0,0,1-.7,1.82,9,9,0,0,1-1.16,1.23,18.37,18.37,0,0,1-6.63,4.26c-2.55.73-4.36,1.28-5.89-1.77a7.81,7.81,0,0,1-.62-5.3A10,10,0,0,1,138.21,93Z"/><path class="cls-29" d="M138.31,93a7.62,7.62,0,0,1,8-1.41c2.44,1.19,4.46,3.2,4.33,5.31a3.13,3.13,0,0,1-.67,1.79,9.24,9.24,0,0,1-1.15,1.19,18,18,0,0,1-6.52,4.12c-2.5.7-4.28,1.23-5.8-1.73a7.47,7.47,0,0,1-.64-5.17A9.57,9.57,0,0,1,138.31,93Z"/><path class="cls-30" d="M138.41,93a7.51,7.51,0,0,1,7.9-1.35c2.39,1.16,4.36,3.14,4.25,5.2a3,3,0,0,1-.65,1.75,8.26,8.26,0,0,1-1.13,1.16,18,18,0,0,1-6.41,4c-2.46.67-4.21,1.17-5.71-1.68a7.18,7.18,0,0,1-.66-5A9.3,9.3,0,0,1,138.41,93Z"/><path class="cls-31" d="M138.52,93a7.4,7.4,0,0,1,7.74-1.3c2.34,1.15,4.27,3.09,4.18,5.09a3,3,0,0,1-.63,1.72,7.35,7.35,0,0,1-1.11,1.12,17.72,17.72,0,0,1-6.3,3.82c-2.41.66-4.13,1.13-5.62-1.63a6.86,6.86,0,0,1-.68-4.92A8.91,8.91,0,0,1,138.52,93Z"/><path class="cls-31" d="M138.62,93a7.3,7.3,0,0,1,7.6-1.24c2.29,1.13,4.17,3,4.1,5a3,3,0,0,1-.6,1.68,7.56,7.56,0,0,1-1.1,1.09,17.62,17.62,0,0,1-6.19,3.67c-2.37.63-4.06,1.08-5.53-1.58a6.59,6.59,0,0,1-.7-4.8A8.67,8.67,0,0,1,138.62,93Z"/><path class="cls-32" d="M138.72,93a7.23,7.23,0,0,1,7.45-1.19c2.25,1.12,4.08,3,4,4.87a2.67,2.67,0,0,1-.57,1.65,6.32,6.32,0,0,1-1.08,1.05,17.48,17.48,0,0,1-6.07,3.53c-2.34.61-4,1-5.45-1.54a6.29,6.29,0,0,1-.72-4.67A8.3,8.3,0,0,1,138.72,93Z"/><path class="cls-33" d="M138.82,93a7.13,7.13,0,0,1,7.31-1.13c2.2,1.09,4,2.91,3.94,4.76a2.61,2.61,0,0,1-.55,1.61,5.65,5.65,0,0,1-1.06,1,17.47,17.47,0,0,1-6,3.39c-2.29.58-3.92,1-5.36-1.49a6,6,0,0,1-.74-4.55A8.08,8.08,0,0,1,138.82,93Z"/><path class="cls-34" d="M138.93,93a7,7,0,0,1,7.15-1.08C148.24,93,150,94.74,150,96.54a2.53,2.53,0,0,1-.53,1.58,5.12,5.12,0,0,1-1,1,17.64,17.64,0,0,1-5.85,3.24c-2.25.55-3.85.92-5.27-1.45a5.75,5.75,0,0,1-.76-4.42A7.77,7.77,0,0,1,138.93,93Z"/><path class="cls-35" d="M139,93a6.92,6.92,0,0,1,7-1c2.1,1.06,3.79,2.79,3.79,4.54a2.47,2.47,0,0,1-.5,1.54,4.63,4.63,0,0,1-1,.94,17.43,17.43,0,0,1-5.74,3.1c-2.2.53-3.78.87-5.19-1.4a5.52,5.52,0,0,1-.77-4.29A7.43,7.43,0,0,1,139,93Z"/><path class="cls-36" d="M139.13,93A6.82,6.82,0,0,1,146,92c2.05,1,3.69,2.74,3.7,4.43a2.34,2.34,0,0,1-.47,1.51,4.37,4.37,0,0,1-1,.9,17.55,17.55,0,0,1-5.63,3c-2.16.5-3.71.81-5.1-1.36a5.25,5.25,0,0,1-.79-4.16A7.27,7.27,0,0,1,139.13,93Z"/><path class="cls-37" d="M139.23,92.94A6.71,6.71,0,0,1,146,92c2,1,3.6,2.67,3.63,4.32a2.21,2.21,0,0,1-.45,1.47,4,4,0,0,1-1,.87,17.65,17.65,0,0,1-5.51,2.81c-2.13.48-3.65.76-5-1.31a5,5,0,0,1-.81-4A7,7,0,0,1,139.23,92.94Z"/><path class="cls-38" d="M139.34,92.92a6.66,6.66,0,0,1,6.57-.85c2,1,3.5,2.62,3.55,4.21a2.14,2.14,0,0,1-.42,1.44,3.79,3.79,0,0,1-1,.83,17.68,17.68,0,0,1-5.4,2.67c-2.08.45-3.59.71-4.93-1.27A4.77,4.77,0,0,1,136.9,96,6.86,6.86,0,0,1,139.34,92.92Z"/><path class="cls-39" d="M139.44,92.91a6.53,6.53,0,0,1,6.42-.79c1.92,1,3.41,2.56,3.48,4.1a2.08,2.08,0,0,1-.4,1.4,3.39,3.39,0,0,1-1,.79,17.77,17.77,0,0,1-5.29,2.53c-2,.42-3.52.66-4.84-1.22a4.55,4.55,0,0,1-.85-3.79A6.66,6.66,0,0,1,139.44,92.91Z"/><path class="cls-40" d="M139.54,92.9a6.46,6.46,0,0,1,6.28-.74c1.86,1,3.31,2.5,3.4,4a2,2,0,0,1-.38,1.37,3.24,3.24,0,0,1-.94.76,17.75,17.75,0,0,1-5.18,2.37c-2,.41-3.46.62-4.75-1.17a4.32,4.32,0,0,1-.87-3.66A6.43,6.43,0,0,1,139.54,92.9Z"/><path class="cls-41" d="M139.64,92.89a6.35,6.35,0,0,1,6.13-.69c1.82,1,3.22,2.45,3.32,3.89a1.89,1.89,0,0,1-.34,1.33,3.08,3.08,0,0,1-.93.72,17.87,17.87,0,0,1-5.07,2.23c-1.95.38-3.39.57-4.66-1.12a4.08,4.08,0,0,1-.89-3.54A6.21,6.21,0,0,1,139.64,92.89Z"/><path class="cls-42" d="M139.75,92.88a6.24,6.24,0,0,1,6-.63c1.77.94,3.13,2.39,3.24,3.77a1.79,1.79,0,0,1-.32,1.3,2.75,2.75,0,0,1-.91.68,18.16,18.16,0,0,1-5,2.09c-1.91.36-3.34.52-4.58-1.08a3.87,3.87,0,0,1-.91-3.41A6.08,6.08,0,0,1,139.75,92.88Z"/><path class="cls-42" d="M139.85,92.87a6.15,6.15,0,0,1,5.84-.58c1.72.93,3,2.33,3.16,3.67a1.72,1.72,0,0,1-.3,1.26,2.42,2.42,0,0,1-.89.65,18.85,18.85,0,0,1-4.84,1.94c-1.87.33-3.28.47-4.5-1a3.7,3.7,0,0,1-.92-3.29A5.89,5.89,0,0,1,139.85,92.87Z"/><path class="cls-43" d="M140,92.86a6.07,6.07,0,0,1,5.69-.52c1.68.9,2.94,2.27,3.09,3.55a1.64,1.64,0,0,1-.28,1.23,2.19,2.19,0,0,1-.87.61,19.18,19.18,0,0,1-4.73,1.8c-1.83.31-3.22.42-4.41-1a3.49,3.49,0,0,1-.94-3.15A5.79,5.79,0,0,1,140,92.86Z"/><path class="cls-44" d="M140.05,92.85a6,6,0,0,1,5.55-.47c1.63.89,2.85,2.22,3,3.45a1.56,1.56,0,0,1-.24,1.19,2,2,0,0,1-.86.57,20,20,0,0,1-4.62,1.66c-1.78.28-3.16.38-4.32-1a3.27,3.27,0,0,1-1-3A5.58,5.58,0,0,1,140.05,92.85Z"/><path class="cls-45" d="M140.16,92.84a5.83,5.83,0,0,1,5.39-.41c1.58.87,2.76,2.15,2.93,3.33a1.48,1.48,0,0,1-.22,1.16,1.83,1.83,0,0,1-.84.54A21.12,21.12,0,0,1,142.91,99c-1.74.26-3.1.33-4.23-.9a3.08,3.08,0,0,1-1-2.9C137.92,94.39,139,93.53,140.16,92.84Z"/><path class="cls-46" d="M140.26,92.83a5.75,5.75,0,0,1,5.25-.36,5.35,5.35,0,0,1,2.85,3.23,1.37,1.37,0,0,1-.2,1.12,1.66,1.66,0,0,1-.82.5A22.7,22.7,0,0,1,143,98.69c-1.7.23-3.06.29-4.15-.86a2.88,2.88,0,0,1-1-2.77C138,94.32,139.11,93.49,140.26,92.83Z"/><path class="cls-47" d="M140.36,92.82a5.67,5.67,0,0,1,5.11-.3,5.32,5.32,0,0,1,2.77,3.11,1.37,1.37,0,0,1-.17,1.09,1.65,1.65,0,0,1-.81.47A25.29,25.29,0,0,1,143,98.41c-1.66.2-3,.24-4.06-.81a2.71,2.71,0,0,1-1-2.65C138.1,94.26,139.2,93.46,140.36,92.82Z"/><path class="cls-47" d="M140.46,92.81a5.57,5.57,0,0,1,5-.25,5.23,5.23,0,0,1,2.69,3,1.24,1.24,0,0,1-.14,1.05,1.43,1.43,0,0,1-.79.43A26.75,26.75,0,0,1,143,98.12c-1.61.19-2.95.21-4-.76-1.21-1.14-1.17-2.12-1-2.52C138.19,94.19,139.29,93.42,140.46,92.81Z"/><path class="cls-48" d="M140.57,92.8a5.47,5.47,0,0,1,4.81-.19A5.25,5.25,0,0,1,148,95.5a1.2,1.2,0,0,1-.12,1,1.26,1.26,0,0,1-.77.39,29.43,29.43,0,0,1-4.06.93c-1.57.17-2.9.17-3.88-.71-1.24-1.1-1.17-2-1.07-2.4C138.29,94.12,139.38,93.38,140.57,92.8Z"/><path class="cls-49" d="M140.67,92.79a5.05,5.05,0,0,1,7.2,2.65,1.15,1.15,0,0,1-.09,1,1.21,1.21,0,0,1-.76.36,38.87,38.87,0,0,1-4,.78c-1.53.14-2.85.13-3.8-.67-1.25-1-1.17-2-1.08-2.27C138.38,94.06,139.48,93.34,140.67,92.79Z"/><path class="cls-50" d="M140.77,92.78a5,5,0,0,1,7,2.59,1.05,1.05,0,0,1-.07.95,1.07,1.07,0,0,1-.74.32c-.95.13-2.4.53-3.83.64s-2.81.09-3.72-.62c-1.28-1-1.18-1.9-1.1-2.15C138.47,94,139.57,93.3,140.77,92.78Z"/><path class="cls-51" d="M140.87,92.77a5.14,5.14,0,0,1,4.37,0,5.37,5.37,0,0,1,2.39,2.57,1,1,0,0,1,0,.91.93.93,0,0,1-.72.28c-.9.08-2.32.41-3.72.5a5.65,5.65,0,0,1-3.63-.58c-1.31-1-1.18-1.82-1.12-2A5.08,5.08,0,0,1,140.87,92.77Z"/><path class="cls-52" d="M141,92.76a5.05,5.05,0,0,1,4.22,0,5.38,5.38,0,0,1,2.3,2.46,1,1,0,0,1,0,.88.87.87,0,0,1-.71.25c-.85,0-2.24.28-3.61.35a6.2,6.2,0,0,1-3.54-.53c-1.34-.9-1.19-1.75-1.14-1.89A5.06,5.06,0,0,1,141,92.76Z"/><path class="cls-52" d="M141.08,92.75a4.91,4.91,0,0,1,4.08.08,5.46,5.46,0,0,1,2.22,2.35.91.91,0,0,1,0,.84.79.79,0,0,1-.69.21c-.8,0-2.16.16-3.5.21a6.86,6.86,0,0,1-3.45-.49c-1.38-.83-1.19-1.66-1.16-1.76A5.09,5.09,0,0,1,141.08,92.75Z"/><path class="cls-53" d="M141.18,92.73a4.91,4.91,0,0,1,3.93.14,5.63,5.63,0,0,1,2.15,2.24.86.86,0,0,1,0,.81c-.11.15-.33.21-.67.17-.76-.08-2.08,0-3.39.07a7.69,7.69,0,0,1-3.36-.44c-1.41-.76-1.2-1.59-1.18-1.64A5.29,5.29,0,0,1,141.18,92.73Z"/><path class="cls-54" d="M138.79,94a6.25,6.25,0,0,1,2.49-1.25,4.77,4.77,0,0,1,3.79.2,5.75,5.75,0,0,1,2.07,2.13c.28.62.12,1-.6.91a24.51,24.51,0,0,0-3.27-.08,9.16,9.16,0,0,1-3.28-.4C138.54,94.81,138.79,94,138.79,94Z"/></g><g class="cls-19"><path class="cls-17" d="M182.86,106.26a11.26,11.26,0,0,0,1.52-6.51,14.87,14.87,0,0,0-1.45-5.64c-1.45-3-6.11-4.68-9.29-3.88-4,1-7.79,3.92-5.71,7.88s5,7.54,7.82,9.1S180.57,110,182.86,106.26Z"/><path class="cls-20" d="M182.83,94.08c-1.45-2.92-6-4.59-9.16-3.8-4,1-7.62,3.85-5.62,7.73a28.05,28.05,0,0,0,1.94,3.22,19.11,19.11,0,0,0,5.77,5.69c2.75,1.53,4.76,2.76,7-.92a11,11,0,0,0,1.52-6.38A14.31,14.31,0,0,0,182.83,94.08Z"/><path class="cls-21" d="M182.73,94.05c-1.46-2.86-5.93-4.49-9-3.72-3.91,1-7.47,3.78-5.54,7.59a23.42,23.42,0,0,0,1.9,3.16,19.11,19.11,0,0,0,5.71,5.56c2.71,1.5,4.68,2.69,6.92-.89a10.6,10.6,0,0,0,1.52-6.25A13.78,13.78,0,0,0,182.73,94.05Z"/><path class="cls-21" d="M182.64,94c-1.47-2.79-5.86-4.4-8.89-3.63-3.84,1-7.32,3.69-5.47,7.43a21.73,21.73,0,0,0,1.87,3.11,19,19,0,0,0,5.65,5.43c2.67,1.46,4.61,2.62,6.83-.86a10.26,10.26,0,0,0,1.51-6.13A13.64,13.64,0,0,0,182.64,94Z"/><path class="cls-22" d="M182.54,94c-1.47-2.73-5.77-4.31-8.76-3.55-3.77,1-7.16,3.62-5.38,7.28a21,21,0,0,0,7.41,8.36c2.64,1.42,4.54,2.55,6.74-.84a9.88,9.88,0,0,0,1.51-6A13.13,13.13,0,0,0,182.54,94Z"/><path class="cls-23" d="M182.44,94c-1.46-2.67-5.68-4.22-8.62-3.47-3.7.94-7,3.55-5.3,7.13a17.11,17.11,0,0,0,1.79,3,18.55,18.55,0,0,0,5.52,5.17c2.6,1.39,4.47,2.49,6.64-.8A9.54,9.54,0,0,0,184,99.12,12.5,12.5,0,0,0,182.44,94Z"/><path class="cls-24" d="M182.34,93.93c-1.46-2.61-5.6-4.13-8.49-3.39-3.62.93-6.84,3.47-5.22,7a15.06,15.06,0,0,0,1.76,2.94,18.62,18.62,0,0,0,5.45,5.05c2.57,1.36,4.41,2.42,6.55-.77A9.22,9.22,0,0,0,183.9,99,12,12,0,0,0,182.34,93.93Z"/><path class="cls-25" d="M182.24,93.9c-1.46-2.54-5.51-4-8.35-3.3-3.56.91-6.69,3.39-5.14,6.82a13.38,13.38,0,0,0,1.72,2.89,18.44,18.44,0,0,0,5.39,4.92c2.53,1.32,4.33,2.35,6.46-.75a8.91,8.91,0,0,0,1.5-5.61A11.6,11.6,0,0,0,182.24,93.9Z"/><path class="cls-26" d="M182.14,93.87c-1.46-2.48-5.43-4-8.21-3.22-3.49.9-6.54,3.32-5.06,6.67a12.15,12.15,0,0,0,1.68,2.84,18.65,18.65,0,0,0,5.32,4.79c2.5,1.29,4.27,2.28,6.37-.72a8.62,8.62,0,0,0,1.51-5.49A11.28,11.28,0,0,0,182.14,93.87Z"/><path class="cls-26" d="M182,93.84C180.58,91.42,176.7,90,174,90.7c-3.41.89-6.38,3.25-5,6.53a11.37,11.37,0,0,0,1.64,2.77,18.36,18.36,0,0,0,5.27,4.66c2.46,1.26,4.2,2.22,6.27-.69a8.28,8.28,0,0,0,1.51-5.35A11,11,0,0,0,182,93.84Z"/><path class="cls-27" d="M181.94,93.81A7.91,7.91,0,0,0,174,90.75c-3.35.88-6.23,3.18-4.9,6.38a10.64,10.64,0,0,0,1.6,2.72,18.38,18.38,0,0,0,5.21,4.53c2.41,1.22,4.13,2.15,6.17-.66a8,8,0,0,0,1.51-5.23A10.62,10.62,0,0,0,181.94,93.81Z"/><path class="cls-28" d="M181.84,93.78a7.84,7.84,0,0,0-7.81-3c-3.27.87-6.06,3.11-4.81,6.23a9.13,9.13,0,0,0,1.56,2.66,18.4,18.4,0,0,0,5.14,4.41c2.38,1.19,4.07,2.08,6.09-.63a7.74,7.74,0,0,0,1.5-5.1A10.24,10.24,0,0,0,181.84,93.78Z"/><path class="cls-29" d="M181.74,93.75a7.71,7.71,0,0,0-7.67-2.89c-3.2.85-5.91,3-4.74,6.07a8.58,8.58,0,0,0,1.53,2.61,18.31,18.31,0,0,0,5.08,4.28c2.34,1.15,4,2,6-.61a7.41,7.41,0,0,0,1.5-5A9.89,9.89,0,0,0,181.74,93.75Z"/><path class="cls-30" d="M181.65,93.72a7.63,7.63,0,0,0-7.54-2.81c-3.14.84-5.76,3-4.66,5.92a7.85,7.85,0,0,0,1.49,2.56,18.31,18.31,0,0,0,5,4.14c2.31,1.13,3.94,2,5.9-.57a7.14,7.14,0,0,0,1.5-4.85A9.65,9.65,0,0,0,181.65,93.72Z"/><path class="cls-31" d="M181.55,93.7A7.53,7.53,0,0,0,174.14,91c-3.06.83-5.6,2.89-4.57,5.77a7,7,0,0,0,1.45,2.5,18.29,18.29,0,0,0,4.95,4c2.27,1.09,3.88,1.89,5.8-.55a6.78,6.78,0,0,0,1.5-4.71A9.13,9.13,0,0,0,181.55,93.7Z"/><path class="cls-31" d="M181.45,93.67A7.42,7.42,0,0,0,174.18,91c-3,.82-5.46,2.83-4.5,5.62a6.36,6.36,0,0,0,1.42,2.45A18.45,18.45,0,0,0,176,103c2.24,1,3.82,1.82,5.72-.52a6.56,6.56,0,0,0,1.49-4.59A8.82,8.82,0,0,0,181.45,93.67Z"/><path class="cls-32" d="M181.35,93.64a7.34,7.34,0,0,0-7.14-2.58c-2.91.81-5.3,2.76-4.41,5.48a5.88,5.88,0,0,0,1.38,2.39,18.4,18.4,0,0,0,4.82,3.75c2.2,1,3.75,1.76,5.62-.48a6.26,6.26,0,0,0,1.49-4.46A8.53,8.53,0,0,0,181.35,93.64Z"/><path class="cls-33" d="M181.25,93.61a7.22,7.22,0,0,0-7-2.49c-2.85.79-5.15,2.68-4.33,5.32a5.32,5.32,0,0,0,1.34,2.33A18.66,18.66,0,0,0,176,102.4c2.17,1,3.7,1.7,5.53-.46A6,6,0,0,0,183,97.61,8.26,8.26,0,0,0,181.25,93.61Z"/><path class="cls-34" d="M181.15,93.58a7.12,7.12,0,0,0-6.86-2.41c-2.78.78-5,2.62-4.26,5.17a5,5,0,0,0,1.31,2.28,18.63,18.63,0,0,0,4.69,3.5c2.12,1,3.63,1.63,5.43-.43A5.69,5.69,0,0,0,183,97.48,8,8,0,0,0,181.15,93.58Z"/><path class="cls-35" d="M181.05,93.55a7,7,0,0,0-6.73-2.33c-2.7.77-4.85,2.55-4.17,5a4.43,4.43,0,0,0,1.26,2.22,19,19,0,0,0,4.64,3.38c2.08.92,3.57,1.56,5.34-.4a5.52,5.52,0,0,0,1.48-4.08A7.74,7.74,0,0,0,181.05,93.55Z"/><path class="cls-36" d="M181,93.52a6.92,6.92,0,0,0-6.59-2.25c-2.64.76-4.7,2.49-4.09,4.87a4,4,0,0,0,1.22,2.17,19,19,0,0,0,4.57,3.24c2.05.9,3.52,1.51,5.25-.37a5.23,5.23,0,0,0,1.48-4A7.52,7.52,0,0,0,181,93.52Z"/><path class="cls-37" d="M180.85,93.49a6.8,6.8,0,0,0-6.46-2.16c-2.56.74-4.55,2.41-4,4.71a3.77,3.77,0,0,0,1.19,2.12,19.11,19.11,0,0,0,4.51,3.11c2,.86,3.46,1.44,5.15-.34a5,5,0,0,0,1.48-3.82A7.29,7.29,0,0,0,180.85,93.49Z"/><path class="cls-38" d="M180.75,93.46a6.7,6.7,0,0,0-6.32-2.08c-2.49.73-4.41,2.35-3.93,4.56A3.45,3.45,0,0,0,171.65,98a19.66,19.66,0,0,0,4.44,3c2,.83,3.41,1.38,5.06-.32A4.72,4.72,0,0,0,182.63,97,7.09,7.09,0,0,0,180.75,93.46Z"/><path class="cls-39" d="M180.65,93.43a6.6,6.6,0,0,0-6.18-2c-2.43.72-4.27,2.29-3.85,4.42a3.07,3.07,0,0,0,1.11,2,20.4,20.4,0,0,0,4.38,2.86c1.94.79,3.35,1.31,5-.29a4.5,4.5,0,0,0,1.47-3.57A6.79,6.79,0,0,0,180.65,93.43Z"/><path class="cls-40" d="M180.56,93.4a6.57,6.57,0,0,0-6.06-1.92c-2.35.71-4.12,2.23-3.76,4.27a2.81,2.81,0,0,0,1.07,2,20.69,20.69,0,0,0,4.31,2.72c1.9.77,3.3,1.26,4.88-.25a4.26,4.26,0,0,0,1.47-3.44A6.59,6.59,0,0,0,180.56,93.4Z"/><path class="cls-41" d="M180.46,93.37a6.47,6.47,0,0,0-5.92-1.84c-2.28.69-4,2.17-3.69,4.12a2.58,2.58,0,0,0,1,1.89,21.27,21.27,0,0,0,4.25,2.6c1.86.73,3.25,1.2,4.78-.23a4,4,0,0,0,1.47-3.31A6.43,6.43,0,0,0,180.46,93.37Z"/><path class="cls-42" d="M180.36,93.34a6.36,6.36,0,0,0-5.79-1.75c-2.21.67-3.83,2.1-3.6,4a2.33,2.33,0,0,0,1,1.84,21.71,21.71,0,0,0,4.19,2.47c1.82.7,3.19,1.14,4.68-.2a3.83,3.83,0,0,0,1.47-3.18A6.28,6.28,0,0,0,180.36,93.34Z"/><path class="cls-42" d="M180.26,93.31a6.23,6.23,0,0,0-5.65-1.67c-2.14.66-3.7,2-3.52,3.81a2.07,2.07,0,0,0,1,1.78,22.61,22.61,0,0,0,4.12,2.35c1.79.66,3.15,1.08,4.6-.17a3.64,3.64,0,0,0,1.46-3.06A6.09,6.09,0,0,0,180.26,93.31Z"/><path class="cls-43" d="M180.16,93.28a6.14,6.14,0,0,0-5.51-1.59c-2.07.65-3.56,2-3.45,3.66a1.91,1.91,0,0,0,.93,1.73,23.23,23.23,0,0,0,4.06,2.21c1.75.64,3.09,1,4.5-.14a3.42,3.42,0,0,0,1.46-2.93A6,6,0,0,0,180.16,93.28Z"/><path class="cls-44" d="M180.06,93.25a6.07,6.07,0,0,0-5.38-1.51c-2,.64-3.42,1.93-3.36,3.52a1.75,1.75,0,0,0,.89,1.67,25.17,25.17,0,0,0,4,2.08c1.71.6,3.05,1,4.41-.11a3.23,3.23,0,0,0,1.46-2.8A5.79,5.79,0,0,0,180.06,93.25Z"/><path class="cls-45" d="M180,93.22a5.91,5.91,0,0,0-5.24-1.42c-1.93.62-3.56,1.89-3.28,3.36a1.4,1.4,0,0,0,.84,1.61,26.78,26.78,0,0,0,3.94,2c1.67.57,3,.91,4.31-.09A3,3,0,0,0,182,96,5.66,5.66,0,0,0,180,93.22Z"/><path class="cls-46" d="M179.86,93.19a5.84,5.84,0,0,0-5.11-1.34c-1.85.61-3.41,1.82-3.2,3.21a1.31,1.31,0,0,0,.81,1.56,32.08,32.08,0,0,0,3.87,1.83c1.64.54,3,.86,4.23-.06a2.85,2.85,0,0,0,1.45-2.54C181.82,95.08,180.88,94.06,179.86,93.19Z"/><path class="cls-47" d="M179.76,93.16a5.75,5.75,0,0,0-5-1.26c-1.79.6-3.28,1.76-3.12,3.06a1.2,1.2,0,0,0,.77,1.51,36.5,36.5,0,0,0,3.81,1.69c1.6.51,2.91.81,4.13,0a2.67,2.67,0,0,0,1.45-2.42C181.74,95,180.8,94,179.76,93.16Z"/><path class="cls-47" d="M179.66,93.13A5.6,5.6,0,0,0,174.83,92c-1.72.59-3.14,1.69-3,2.91a1.08,1.08,0,0,0,.73,1.45c1,.4,2.35,1.14,3.75,1.57,1.56.48,2.87.76,4,0,1.39-.89,1.5-1.87,1.45-2.28C181.66,94.92,180.71,94,179.66,93.13Z"/><path class="cls-48" d="M179.56,93.1a5.5,5.5,0,0,0-4.7-1.1c-1.64.57-3,1.62-3,2.76a1,1,0,0,0,.7,1.4c1,.35,2.3,1,3.68,1.44s2.83.71,3.95,0c1.39-.85,1.49-1.8,1.44-2.16C181.59,94.83,180.63,93.9,179.56,93.1Z"/><path class="cls-49" d="M179.47,93.07a5.41,5.41,0,0,0-4.57-1,4.09,4.09,0,0,0-2.88,2.6c-.13.68-.05,1.11.66,1.34.92.3,2.26.93,3.62,1.32s2.78.66,3.85.05c1.41-.8,1.49-1.72,1.44-2C181.51,94.75,180.55,93.84,179.47,93.07Z"/><path class="cls-50" d="M179.37,93a5.31,5.31,0,0,0-4.44-.93,4.17,4.17,0,0,0-2.79,2.46c-.17.66-.1,1.08.62,1.28.88.24,2.21.82,3.55,1.18s2.75.62,3.76.09c1.43-.75,1.48-1.64,1.44-1.9C181.43,94.67,180.46,93.78,179.37,93Z"/><path class="cls-51" d="M179.27,93a5.21,5.21,0,0,0-4.3-.85,4.35,4.35,0,0,0-2.72,2.31c-.2.65-.13,1.06.59,1.23s2.16.71,3.49,1a5.65,5.65,0,0,0,3.66.12c1.46-.7,1.48-1.57,1.44-1.78C181.35,94.59,180.38,93.73,179.27,93Z"/><path class="cls-52" d="M179.17,93a5.1,5.1,0,0,0-4.16-.77,4.49,4.49,0,0,0-2.64,2.16c-.24.63-.18,1,.55,1.17s2.12.62,3.42.93a6.25,6.25,0,0,0,3.58.14c1.47-.63,1.46-1.49,1.43-1.64C181.27,94.51,180.29,93.67,179.17,93Z"/><path class="cls-52" d="M179.07,93a5,5,0,0,0-4-.68,4.63,4.63,0,0,0-2.55,2c-.29.61-.22,1,.51,1.12s2.07.51,3.36.79a6.84,6.84,0,0,0,3.48.18c1.49-.56,1.45-1.42,1.43-1.52C181.19,94.42,180.21,93.61,179.07,93Z"/><path class="cls-53" d="M179,92.92a4.86,4.86,0,0,0-3.89-.6,5.06,5.06,0,0,0-2.48,1.85c-.33.59-.26,1,.47,1.06s2,.41,3.3.67a7.86,7.86,0,0,0,3.39.21c1.52-.49,1.44-1.34,1.43-1.4A5.41,5.41,0,0,0,179,92.92Z"/><path class="cls-54" d="M181.11,94.59a6.24,6.24,0,0,0-2.24-1.7,4.78,4.78,0,0,0-3.76-.52,5.65,5.65,0,0,0-2.39,1.7c-.38.56-.3,1,.43,1a25.06,25.06,0,0,1,3.24.54,8.91,8.91,0,0,0,3.29.23C181.22,95.46,181.11,94.59,181.11,94.59Z"/></g></g><path class="cls-55" d="M157.14,122.41c-.44-.27-2.88-2.21-1.28-2.21s6.56.51,8,.51,1.28.51,0,1.36S158.74,123.43,157.14,122.41Z"/><path class="cls-55" d="M144.08,53.37s5,3.73,9.29,4.41,14.41,3.23,15,4.58-2.08-3.73-3.68-5.26a9.48,9.48,0,0,1-2.24-3.73s7.68,1.69,9.6,3.9,5.13,7,6.73,8.83-1-4.08-.32-5.26,2.56,2.2,3.68,4.58,1,6.62,1.6,8.49,1.93,4.58,1.93,4.58,1.12-13.24-1.6-20.71-8.65-17-20.18-16.13S143.92,47.42,144.08,53.37Z"/><path class="cls-56" d="M175.37,103a3.67,3.67,0,0,0,.88,1.76c.38.53.8,1,1.11,1.52a2.9,2.9,0,0,1,.44,1.68,4.74,4.74,0,0,1-.48,1.83,3.19,3.19,0,0,0,.94-2.84,3.1,3.1,0,0,0-.4-1,7.53,7.53,0,0,0-1.27-1.51c-.23-.22-.46-.44-.66-.67A2.5,2.5,0,0,1,175.37,103Z"/><path class="cls-56" d="M143.67,104.68c-.36.41-.75.75-1.13,1.13a5.83,5.83,0,0,0-1,1.3,3.09,3.09,0,0,0-.43,1.72,2.66,2.66,0,0,0,.66,1.57,4.35,4.35,0,0,1-.2-1.57,3.49,3.49,0,0,1,.48-1.39c.24-.45.57-.86.87-1.31A4.74,4.74,0,0,0,143.67,104.68Z"/><path class="cls-57" d="M167.38,102.38s-1.39-.07-2.77,0-2.57,1.55-3.81,1.72a6.15,6.15,0,0,1-3.69-.43,5.45,5.45,0,0,0-3.63-1c-1.1.28-1.66.89-.25,1.1s1.62-.09,2.52,0,3.63,1,4.73.69a16.29,16.29,0,0,1,3.53-.88C165.26,103.6,168.21,103.07,167.38,102.38Z"/><path class="cls-56" d="M169.13,101.35a2.3,2.3,0,0,0,.65-1.17,1.85,1.85,0,0,0-.27-1.42,4.57,4.57,0,0,0-2-1.59,15.31,15.31,0,0,1,1.66,1.88,1.56,1.56,0,0,1,.28,1.07A3.77,3.77,0,0,1,169.13,101.35Z"/><path class="cls-56" d="M150.31,102.44a3.21,3.21,0,0,1-.35-1.22,3.44,3.44,0,0,1,.1-1.24,2.44,2.44,0,0,1,.6-1c.28-.33.58-.63.87-1a4.52,4.52,0,0,0-1.1.69,2.4,2.4,0,0,0-.8,1.16,3.2,3.2,0,0,0,0,1.41A2.11,2.11,0,0,0,150.31,102.44Z"/><path class="cls-58" d="M161.31,95.89a18,18,0,0,1,1.05,2.46,4.77,4.77,0,0,1,.07,2.58,2.31,2.31,0,0,0,.72-1.28,3.21,3.21,0,0,0-.08-1.54A3.76,3.76,0,0,0,161.31,95.89Z"/><path class="cls-56" d="M137.17,87.5a11.37,11.37,0,0,1-2.3-1.42,2,2,0,0,0,.91,1.15A2,2,0,0,0,137.17,87.5Z"/><path class="cls-59" d="M152.66,80.42c.55-.56-1.12-3-3.56-3.51s-8.41-1-10.06-.09a19.32,19.32,0,0,0-4.93,3.86c-.52.87-.15,1.89.79,1.36s3.67-2.89,7.86-2.53C146.68,79.85,152.22,80.88,152.66,80.42Z"/><path class="cls-56" d="M180.73,85.84a11,11,0,0,0,1.18-.66,12.24,12.24,0,0,0,1.09-.81,2.13,2.13,0,0,1-.89,1.17A1.94,1.94,0,0,1,180.73,85.84Z"/><path class="cls-59" d="M164.86,79.58c-.55-.54,1.07-3.06,3.5-3.58s8.38-1.17,10-.31,4.47,2.9,5,3.76.19,1.88-.76,1.37-3.72-2.81-7.9-2.36C170.83,78.88,165.32,80,164.86,79.58Z"/><path class="cls-17" d="M132.68,86.47s-3.69-7.62-6-5.17-.31,9.9.46,12,2.25,4.09,2.55,5.51,0,2.13.9,3.34,3.19.37,3.19.37a35,35,0,0,1-.88-7.2C132.66,90.47,132.68,86.47,132.68,86.47Z"/><path class="cls-56" d="M131.19,86.67s-1.5-3.12-3-2.92-1.63,1-1.49,2.2.66,3.37.66,3.37.07-2.53,1.29-1.77a3.89,3.89,0,0,1,1.54,2.32s-1.35-.75-1.53.88a3.88,3.88,0,0,0,.51,3.12,23.21,23.21,0,0,1,1.16,2.37s-1.36-3-.38-3.14a2.34,2.34,0,0,1,1.69.43S131.83,87.78,131.19,86.67Z"/><path class="cls-17" d="M185,84s3.28-7.82,5.75-5.52.83,9.86.18,12.06-2,4.22-2.26,5.66.11,2.12-.73,3.38-3.16.55-3.16.55a34.47,34.47,0,0,0,.49-7.24C185.27,88,185,84,185,84Z"/><path class="cls-56" d="M186.53,84.09s1.35-3.2,2.84-3.09,1.68.92,1.6,2.11-.48,3.41-.48,3.41-.2-2.54-1.38-1.7a4,4,0,0,0-1.42,2.41,1,1,0,0,1,1.57.78,3.88,3.88,0,0,1-.34,3.15,26.09,26.09,0,0,0-1,2.44s1.2-3.09.21-3.16a2.36,2.36,0,0,0-1.66.53S186,85.24,186.53,84.09Z"/><path class="cls-59" d="M185.4,86.35s-.77-9.12-1.12-14.76-1.55-10.08-3-11.3-2.05,2.41-1.18,4.07-1.12-.91-3.32-5.23-7.5-4-8.91-4.47,2.42,3.23,2.67,5.33c-2.5-2.53-3.72-1.67-6.56-3.06s-11.53-1-14.09-2.54c-2.73-1.7-4.55-.57-6.73.8s-3.4,5.07-5.74,7.88-5.09,7.79-5.65,11.42A40.37,40.37,0,0,0,132,85.1c.34,2.79.86,10.27.86,10.27S131,85,129.58,84.36s-1.86,2.3-2.39-.38-.67-16.59-.32-22,2-16.95,6.28-20,9.87-7.8,12-9.34,14.75-4.1,15.7-4.58,6.35-.31,6.35-.31a5.68,5.68,0,0,0-3.45,1.89c-1.15,1.58.91,2,1.9,1.87s7.85-.06,7.85-.06a25.59,25.59,0,0,0-2.89,1.7c-1.23.88-.83,2.06.16,1.92s6.84,1.2,6.84,1.2c4.21,2.15,6.53,6.93,6.53,6.93S182,41.38,181,41.86s.62,2.4,1.82,4a73.81,73.81,0,0,1,5.81,12,18.48,18.48,0,0,1,.23,10.27,13,13,0,0,0-.19,3.93s1,2.35.47,3.84a16,16,0,0,0-.57,3.63Z"/><path class="cls-14" d="M151.46,87.44a8.28,8.28,0,0,0-2.08-2.76,6.22,6.22,0,0,0-4.64-.85,7.14,7.14,0,0,0-3.54,1.37,10.41,10.41,0,0,1-3.78,2.47s2.36-.26,3.05-.31a27.28,27.28,0,0,1,3.74,0c1.73,0,3.18-.06,4.77-.08a4,4,0,0,1,1.79.24C151.05,87.68,151.8,88,151.46,87.44Z"/><path d="M148.32,87.29a3.67,3.67,0,0,0,.36-2.35,3.42,3.42,0,0,0-.22-.79,7.25,7.25,0,0,0-3.72-.32,8.52,8.52,0,0,0-2.58.75,3.82,3.82,0,0,0-.08,1.62,3.58,3.58,0,0,0,.38,1.1l1.75.06C145.7,87.4,147,87.33,148.32,87.29Z"/><path class="cls-14" d="M143.11,86.37a1.81,1.81,0,0,1-.06-1.26c.27-.47,1-.66.94-.34s-.62.44-.44.94S143.65,86.91,143.11,86.37Z"/><path class="cls-14" d="M147.62,85.14a2,2,0,0,1-.12,1.41c-.21.52.49.49.53-.16A2.2,2.2,0,0,0,147.62,85.14Z"/><path class="cls-59" d="M137,87.81a23.85,23.85,0,0,0,2.82-1.39c1.22-.82,2-1.75,3.24-2.21s4-.85,5.41-.06a7.83,7.83,0,0,1,3,3.29s-1.77-4-5.2-4.06a8.14,8.14,0,0,0-5.81,1.8C139.52,85.89,137.4,87.57,137,87.81Z"/><path class="cls-56" d="M136.45,87s1.7-1,2.32-1.45a10.6,10.6,0,0,1,3.35-1.81c1-.2,4.67-1.11,7,.74a6.53,6.53,0,0,0-4.75-1.7c-3,.31-4.17,1.11-5.1,1.87Z"/><path class="cls-56" d="M150.13,88.44a9.28,9.28,0,0,1-5.86,1.82,18.35,18.35,0,0,1-3.06-.44l-1.5-.33a4.83,4.83,0,0,0-1.51-.16,4.2,4.2,0,0,1,1.54-.07l1.52.2c1,.14,2,.29,3,.33a10.37,10.37,0,0,0,3-.29A12.2,12.2,0,0,0,150.13,88.44Z"/><path class="cls-14" d="M165.33,86.08a8.26,8.26,0,0,1,2-2.81,6.15,6.15,0,0,1,4.62-1,7,7,0,0,1,3.57,1.27,10.56,10.56,0,0,0,3.84,2.36s-2.36-.19-3.06-.23a29.34,29.34,0,0,0-3.74.11c-1.72.1-3.18,0-4.77,0a4.07,4.07,0,0,0-1.79.29C165.74,86.31,165,86.61,165.33,86.08Z"/><path d="M168.47,85.85a3.72,3.72,0,0,1-.43-2.34,3.4,3.4,0,0,1,.21-.79,7.24,7.24,0,0,1,3.71-.43,8.5,8.5,0,0,1,2.59.68,3.76,3.76,0,0,1,.12,1.61,4.06,4.06,0,0,1-.34,1.12l-1.76.1C171.09,85.89,169.8,85.85,168.47,85.85Z"/><path class="cls-14" d="M173.65,84.79a1.85,1.85,0,0,0,0-1.27c-.28-.47-1-.64-1-.31s.64.42.47.92S173.12,85.33,173.65,84.79Z"/><path class="cls-14" d="M169.11,83.68a2,2,0,0,0,.15,1.4c.23.51-.47.51-.53-.14A2.25,2.25,0,0,1,169.11,83.68Z"/><path class="cls-59" d="M179.8,86.05A23,23,0,0,1,177,84.74c-1.24-.78-2-1.7-3.29-2.12s-4-.74-5.41.1a7.75,7.75,0,0,0-2.92,3.36s1.67-4,5.09-4.2a8.12,8.12,0,0,1,5.85,1.64C177.22,84.2,179.38,85.82,179.8,86.05Z"/><path class="cls-56" d="M180.32,85.23s-1.72-.91-2.35-1.38a10.7,10.7,0,0,0-3.39-1.72c-1-.16-4.7-1-7,.94a6.54,6.54,0,0,1,4.7-1.83c3,.22,4.2,1,5.14,1.73Z"/><path class="cls-56" d="M166.68,87a8.77,8.77,0,0,0,2.81,1.34,8.54,8.54,0,0,0,3.1.32,18.54,18.54,0,0,0,3-.53l1.49-.36a4.49,4.49,0,0,1,1.5-.2,4,4,0,0,0-1.54,0c-.51.07-1,.16-1.52.24-1,.16-2,.35-3,.42a10.75,10.75,0,0,1-3-.21A12.2,12.2,0,0,1,166.68,87Z"/><path class="cls-14" d="M145.16,110s8.45-.27,10.77-.11a62.52,62.52,0,0,0,8.66-.09c2.29-.24,10.16-.45,10.16-.45s-7.38,7.45-12.74,7.86c-7.26.56-11.91-1.81-14-3.83A15.33,15.33,0,0,1,145.16,110Z"/><path class="cls-60" d="M174.75,109.32s-2,.05-4.31.13c-.56,2.16-1,3.61-5.07,4.52s-12.81,0-14.15-1a6.31,6.31,0,0,1-2.24-3.14l-3.82.1a15.33,15.33,0,0,0,2.82,3.38c2.12,2,6.77,4.39,14,3.83C167.37,116.77,174.75,109.32,174.75,109.32Z"/><path class="cls-61" d="M145.16,110s6.07-1,8.7-1.73c2-.53,5.26,1,5.87,1,2.13.18,3.32-1.58,5.43-1.59s5.47.85,6.63.93a15.07,15.07,0,0,1,3,.72s-9.91,1-11.61,1.42a41.81,41.81,0,0,1-9.84-.19A79.64,79.64,0,0,0,145.16,110Z"/><path class="cls-61" d="M145.16,110a20.57,20.57,0,0,0,12.64,5.41c7.74.41,10.41-1.91,12.6-3.16a45.39,45.39,0,0,0,4.35-2.9s-4.58,6.6-8.63,8.65-9.19,2.82-13.89-.37C148.32,115,145.16,110,145.16,110Z"/><path class="cls-62" d="M150.88,115.49c.87,1.14,4.32,2.5,9.11,2.72a13.15,13.15,0,0,0,9.11-3.41s-4.9,1.13-8.14,1.47S152.44,115.74,150.88,115.49Z"/><path class="cls-58" d="M133.85,96.46c.37,3.58.75,7.16,1.36,10.66.16.87.34,1.74.55,2.58a13.37,13.37,0,0,0,.81,2.41,4.11,4.11,0,0,0,.27.51l.17.27.18.26c.24.35.49.69.75,1,.53.67,1.08,1.34,1.65,2,1.14,1.3,2.34,2.56,3.56,3.8s2.46,2.45,3.73,3.58l.48.4.51.42,1,.82c.67.56,1.33,1.11,2,1.65s1.35,1.07,2.05,1.58c.35.25.7.49,1.07.71a4.17,4.17,0,0,0,1.15.54,3.88,3.88,0,0,1-1.24-.34c-.4-.16-.79-.36-1.18-.56-.76-.41-1.5-.87-2.23-1.33s-1.45-1-2.16-1.46l-1.06-.75-.53-.37c-.18-.13-.37-.26-.54-.4-.71-.54-1.37-1.1-2-1.69s-1.3-1.17-1.94-1.78c-1.27-1.22-2.5-2.48-3.67-3.81-.59-.67-1.16-1.36-1.7-2.08-.27-.36-.54-.73-.79-1.12l-.19-.29-.18-.3a5.89,5.89,0,0,1-.34-.66,14.45,14.45,0,0,1-.81-2.71c-.19-.9-.32-1.8-.43-2.71-.22-1.81-.32-3.62-.38-5.42S133.73,98.26,133.85,96.46Z"/><path class="cls-58" d="M184.63,94.88c.09,1.94.07,3.87,0,5.8s-.23,3.86-.46,5.79c-.14,1-.28,1.92-.49,2.88-.11.47-.23,1-.39,1.43a10.89,10.89,0,0,1-.58,1.36,12.77,12.77,0,0,1-1.6,2.41,11.74,11.74,0,0,1-2,2,17.14,17.14,0,0,0,3.06-4.67c.18-.43.33-.86.47-1.3s.22-.9.31-1.36c.18-.93.31-1.87.43-2.82s.23-1.9.33-2.86l.31-2.86C184.18,98.72,184.38,96.8,184.63,94.88Z"/></g></g></svg>