<svg xmlns="http://www.w3.org/2000/svg" xmlns:xlink="http://www.w3.org/1999/xlink" viewBox="0 0 322.94 322.94"><defs><style>.cls-1{fill:none;}.cls-2{fill:#bcbcbc;}.cls-3{clip-path:url(#clip-path);}.cls-4{fill:#b8bec1;}.cls-5{fill:#e4ad81;}.cls-6{fill:#d79561;}.cls-7{fill:#152063;}.cls-8{fill:#0b1547;}.cls-9{fill:#96cded;}.cls-10{fill:#e2cf91;}.cls-11{fill:#d8ba68;}.cls-12{fill:#bc953f;}.cls-13{fill:#efdba5;}.cls-14{fill:#f9e6b9;}.cls-15{fill:#dfe9f4;}.cls-16{fill:#b6c5d3;}.cls-17{fill:#c6d4e0;}.cls-18{fill:#9fafbc;}.cls-19{fill:#fff;}.cls-20{fill:#ebb486;}.cls-21{fill:#e2ab81;}.cls-22{fill:#c98a60;}.cls-23{fill:#000102;}.cls-24{fill:#0a0f1e;}.cls-25{opacity:0.6;}.cls-26{fill:#ebb386;}.cls-27{fill:#ecb286;}.cls-28{fill:#ecb185;}.cls-29{fill:#ecb085;}.cls-30{fill:#edaf85;}.cls-31{fill:#edae85;}.cls-32{fill:#edad85;}.cls-33{fill:#edad84;}.cls-34{fill:#edac84;}.cls-35{fill:#eeac84;}.cls-36{fill:#eeab84;}.cls-37{fill:#eeaa84;}.cls-38{fill:#eea984;}.cls-39{fill:#efa883;}.cls-40{fill:#efa783;}.cls-41{fill:#efa683;}.cls-42{fill:#efa583;}.cls-43{fill:#f0a583;}.cls-44{fill:#f0a483;}.cls-45{fill:#f0a482;}.cls-46{fill:#f0a382;}.cls-47{fill:#f0a282;}.cls-48{fill:#f1a182;}.cls-49{fill:#f1a082;}.cls-50{fill:#f19f81;}.cls-51{fill:#f29e81;}.cls-52{fill:#f29d81;}.cls-53{fill:#e88282;}.cls-54{fill:#a33;}.cls-55{fill:#f2b1b1;}.cls-56{fill:#f9d3b7;}.cls-57{fill:#8c9296;}</style><clipPath id="clip-path"><rect class="cls-1" width="322.94" height="322.94" rx="64.41"/></clipPath></defs><g id="background"><rect class="cls-2" width="322.94" height="322.94" rx="64.41"/></g><g id="image"><g class="cls-3"><path class="cls-4" d="M182,116.11a62.43,62.43,0,0,1-8,.49s-28.34,1.77-30.22,5.19c-3.95,7.22,24.59,17.3,31.62,13.88s8.33-12.11,9.39-15.16S184.8,115.62,182,116.11Z"/><path class="cls-5" d="M181.49,114.94c-1.06-8.43.7-19.8.7-19.8s-13.4,7.72-20.05,8.43A32.59,32.59,0,0,1,144.9,101s2.46,17.23-1.76,22.37-7.74,9.17-7.74,9.17-6,33.37-5.63,44.37,6.33,13.94,16.18,7.7,39.76-38.87,43.63-44.74a29.38,29.38,0,0,0,4.57-11S182.54,123.38,181.49,114.94Z"/><path class="cls-6" d="M181.17,108.54c.31-4,1-13.4,1-13.4s-13.4,7.72-20.05,8.43A32.59,32.59,0,0,1,144.9,101s.51,10.74.69,12.72c3.59,5.39,9.54,13.25,22.89,9.36C176.1,120.87,179.5,116.24,181.17,108.54Z"/><path class="cls-6" d="M144.2,121.18c0,2.93-.36,9.53-1.76,13.93s-2.47,7-3.87,11.74-1.06,10.27-.71,15.77c0,0-2.46-2.2-3.51-9.9s0-12.84,2.11-18S144.2,121.18,144.2,121.18Z"/><path class="cls-7" d="M144.2,121.18s-4.93,15-6,19.07-1.06,12.47-.71,15.77,1.41,10.27.71,12.1c0,0,7-9.17,10.55-12.47s16.88-9.53,20-12.84,15.13-14.3,14.42-21.63,3.52,2.2,3.52,2.2l7.39,5.5a123.8,123.8,0,0,1-12,27.5c-10.55,18-40.46,52.08-52.07,58.31s-13.36-6.23-12.66-22,9.5-38.51,13-48.78,7.38-14.3,8.79-16.86A31.6,31.6,0,0,1,144.2,121.18Z"/><path class="cls-8" d="M172.69,142.08c-3.87.73-15.13,5.87-19.7,9.17s-13,15.4-13,15.4,10.24-9.34,16.54-12.1c6.68-2.93,8.26-2.37,9.5.37a45.89,45.89,0,0,1,3.51,11.73,76.62,76.62,0,0,0,4.58-15C175.86,142.81,176.56,141.35,172.69,142.08Z"/><path class="cls-8" d="M126.61,154.92s4.92-5.87,6.68-3.67,4.22,7.7,4.22,7.7,0-8.07-1.76-12.47S129.77,150.15,126.61,154.92Z"/><path class="cls-9" d="M138.22,168.12s8.44-12.1,12-15,13-7,16.53-9.9,12.66-11,14.42-15.77,1-10.53,1-10.53,2.9,1.73,3.61,3.2,3.16,5.87,3.16,5.87-9.14,19.43-10.2,22.73-8.44,15.77-8.44,15.77-1.76-14.67-6.33-14.3-7.92,2.12-11.61,4.4C144.55,159.32,138.22,168.12,138.22,168.12Z"/><path class="cls-9" d="M144.2,121.18s-6.69,7.7-8.8,11.37-8.79,22.37-8.79,22.37,2.68-5.89,4.79-7.35,3.3.38,4.35,3.31a76,76,0,0,1,1.76,8.07s-1.41-13.2,0-17.24S144.2,121.18,144.2,121.18Z"/><path class="cls-8" d="M130.78,149.74c-.71,2.23-2.81,17.09-3,20.79s-1.78,18.35-2.49,25.58-2.85,20.2-2.85,20.2a49.54,49.54,0,0,1-2.67-22.06,152.07,152.07,0,0,1,5.69-30A92.3,92.3,0,0,1,130.78,149.74Z"/><path class="cls-8" d="M133.67,181.87s6-2.84,8-3.41a35.33,35.33,0,0,0,4.82-2l-4,5.39S136.51,180.17,133.67,181.87Z"/><path class="cls-8" d="M128,164s1.7,5.39,2.55,9.65a72.94,72.94,0,0,1,1.14,8l-3.88-11.06Z"/><path class="cls-10" d="M182.08,114.22c-3.21-.09-14.88,5.14-18.27,6.22s-10.83,2.35-17.33.14-9-3.21-11.51-6.22-5.37-6.58-5.37-6.58.52,2.81,1,6.31,1.66,4.88.31,7.09a9.94,9.94,0,0,0-1.48,5.6,113.36,113.36,0,0,0,.94,13.64c.3,2.4.92,4.31,1.13,6.82a58.46,58.46,0,0,1-.19,9.18c-.75,8.7,1.64,16.32,1.89,21.19s3.57-1.52,6.82-3S162,158,166.25,154s6.33-7.07,7.65-11.69,6.34-8.47,10.26-11.69a22.93,22.93,0,0,0,5.89-8.14s-.73-.52-2.2-4a17.07,17.07,0,0,1-1.45-6.26Z"/><path class="cls-11" d="M135,114.36c2.55,3,5,4,11.51,6.22s13.94,1,17.33-.14,15.06-6.31,18.27-6.22l4.32-1.94a17.07,17.07,0,0,0,1.45,6.26c1.47,3.44,2.2,4,2.2,4a22.93,22.93,0,0,1-5.89,8.14c-3.92,3.22-8.94,7.07-10.26,11.69s-3.41,7.72-7.65,11.69c-3.51,3.29-25.92,21.46-32.87,25.86.3-.53-2.57-28.69-1.84-32.41,1,14.79,3,29.15,3.55,28.72C150.7,164.55,149.56,160,149.56,160c1.42-4-1.51-5.39-5.86-8.48s2.42-5.26,6.28-5.46,7-1.33,9.33-4.39-6.12-.52-13.57-3.31c-9.13-3.43-10.59-8.28-10.47-9.07.38-2.43,5.13,2,10.2,3a10.65,10.65,0,0,0,8.58-2.09s-9.44-1.46-16-6.91c-5.53-4.57-7.87-12.83-8.5-16.07C130.21,108,132.8,111.81,135,114.36Z"/><path class="cls-10" d="M177.3,128.17c-3.79-.19-8.12,1.76-13,3.42s-9.9,2.89-13.27,2.57-8.48-1.12-7-.28,10.5,3.64,14.39,3.23,8.53-3.1,11.9-5.4A33.57,33.57,0,0,1,177.3,128.17Z"/><path class="cls-10" d="M179.72,125.53c.52.29-6.24,0-9.44,1.15s-8.52,3.1-12.88,2.63a23.17,23.17,0,0,1-7.87-2.43,15.72,15.72,0,0,0,7.62.18C161.91,126.18,176.76,123.86,179.72,125.53Z"/><path class="cls-12" d="M170.61,120.45s-5.25,2-11.19,4.9c-2.63,1.3-9.89,3.91-14.71,2.56s-6.54-2.53-8.63-5.88-6.56-14.81-6.56-14.81,5.41,8.51,8.47,10.79,12.24,6.73,17.42,5.72S170.61,120.45,170.61,120.45Z"/><path class="cls-13" d="M146.88,144c-3.57-.36-8.56,3.3-11.29,1.47s-1.05-6.2-2.73-9.68-2.44-5-1.7-8.51a17.66,17.66,0,0,0,.46-5.57s.64,1.11,3.37,2.94a40.56,40.56,0,0,0,5.56,3.07,42.48,42.48,0,0,1-5.64-1.27c-2.1-.73-2.39-.17-2.3,1.85s-.09.59,1.19,4,2.47,6.82,4.07,6.87,7.38-.26,9.36,1.25-3.16-1.7-4.93.64S146.88,144,146.88,144Z"/><path class="cls-14" d="M153,143.78c-2.89.08-7.68,1.35-9.6,2.8s-3.35,3.18-5.64,2.25-2.49-2-3.11-4.64-1.66-7.93-1.66-7.93a23,23,0,0,0,2.58,5.89c1.44,1.93,1.31,4,3.69,3.64S152,142.67,153,143.78Z"/><path class="cls-14" d="M146.16,140.47s-3-2.55-5.37-1.91-4,1.05-5.12-1.9-2.27-5.38-2.27-5.38a20.5,20.5,0,0,0,2.82,9.08c2.09,3.27,5.8-.68,5.8-.68Z"/><path class="cls-10" d="M146.44,149.79c.29-2.55,7.38-1.42,10.51-3.4s10.21-7.95,10.21-7.95-6.12,14-10.5,15S146.16,152.35,146.44,149.79Z"/><path class="cls-15" d="M106.91,143.55c-.72-2.07-7.74,2.93-10.2,6.6s-8.1,13.57-9.86,16.5-4.57,4-4.57,7-1.76,7-3.52,7.7-2.11,0-4.22,4.4-3.52,9.17-4.22,10.64-6,17.23-8.44,19.8-8.09,12.47-8.8,16.87-5.27,22.74,1.06,27.51,28.85,4.4,38.7-13.94c0,0,1.4-15,4.57-21.64s3.52-29,7-38.87S111.48,156.75,106.91,143.55Z"/><path class="cls-16" d="M103.74,148.32s-3.52,6.6-3.17,12.83.71,13.57-1.4,15.77-2.46-5.87-4.93-8.07.71,3.3,1.06,9.54.7,13.93-1.41,8.8S85.8,171.42,84,172.52s0,2.2,1.76,5.5a55.65,55.65,0,0,1,4.92,11.74c1.76,5.86,1.41,9.16,0,8.06s-4.22,0-3.87,4.77-7,0-11.25,1.47-4.22,2.2-2.46,5.87-6,4.76-7,8.43.7,3.3,3.87,4-6.69,4.76-7.74,8.43,20.76,1.47,28.49,3.3c1.43.34,2.69.63,3.81.78A45.18,45.18,0,0,1,97.41,225c3.16-6.6,3.52-29,7-38.87.62-1.75,1.24-3.8,1.82-6.05,0-.11-.06-.19-.06-.19C108.78,169.22,103.74,148.32,103.74,148.32Z"/><path class="cls-15" d="M213.52,454.4C212,456.37,208.4,340,208,323.25c-.47-19.07-5.16-29.34-8.45-42.55s-10.32-50.85-3.75-68.94,9.38-42,16.42-48.9,11.26-11.24,11.26-11.24-3.35-4.77-8-6.85c-10.76-4.84-16.75-11.72-21.34-15.89a116.45,116.45,0,0,1-8.44-8.8s-.39,12.62-12.76,25.43c-4.53,4.69-19.7,23.18-26.88,33a348.89,348.89,0,0,0-23,35.21s-.94-6.85,1.41-29.83,4.18-27,7-37.32c-.11-1.77-1-4-1.13-6.15-.22-3.31-.3-6.68-.76-8.18-4.16,2.55-11.67,6.66-14,7.15s-6.8,1.59-9.73,3.79c-3.92,2.94-2.46,21.64-3.4,27.51S94,200,92.6,209.32s0,14.18-.94,35.2-5.43,41.71-5.43,57.55c0,12.55-3.57,25.84-5,47.54-1.41,21.33-4.82,81.79-5.67,98.82,0,0,13.31.22,23.69,3.09s12.93,8,23.15,11.39,35.32,1.61,57.26-.9S213.52,454.4,213.52,454.4Z"/><path class="cls-16" d="M127.78,137.68l-15.71,15.65a48.81,48.81,0,0,1,6.8-2.45c2.34-.49.94,2,.94,2l-11,16.38a47.36,47.36,0,0,1,5.16,6.11c3.29,4.89,8.92,31,8.68,35,0,0-1.17-20.29.47-34.22a286.37,286.37,0,0,1,6.51-34.7C130.77,137.46,127.78,137.68,127.78,137.68Z"/><path class="cls-16" d="M124,212.25s12.9-22.74,19.93-31.05S168.59,149.91,173,144s11.73-19.07,12-21,9.38,3.67,9.38,3.67L189,166.29l-14.77-8.56,1.64,16.62s-5.87,2-12,4.16c-10.75,3.88-27.21,20.78-31,24.94S124,212.25,124,212.25Z"/><path class="cls-15" d="M130.36,141.47a74.21,74.21,0,0,0-.76-9.23c-7.14,6.51-17.3,18.89-17.3,18.89s9.38-2.94,11.73-2.94c0,0-2.72,4.56-4.69,7.34-5.4,7.58-8.45,12.22-8.45,12.22s3.29,2,7,11.25c1.63,4,2.35,8.8,3.28,16.62s1.88,18.1,1.88,18.1,1.29-33.62,4.69-51.34c1-5.19,1.67-9.62,3.81-15.14C131.49,144.87,130.43,142.93,130.36,141.47Z"/><path class="cls-15" d="M123.09,213.72A214.34,214.34,0,0,1,140,185.36c12.67-18.1,16.92-22.53,23.69-31.3,8.75-11.33,15.69-19.11,18.3-24.45s3.28-10,1.87-13.2a64.1,64.1,0,0,1,5.39,4.89l5.16,5.38-6.56,37.16L171.4,153.08s3.28,14.92,3.28,19.32c0,0-10.78,2.69-19,7.82C132.64,194.64,123.09,213.72,123.09,213.72Z"/><path class="cls-16" d="M114.08,459.21l3.69,2c-2.25-16.49,7-181.45,7.07-182.25.43-4.25-.15-14.91-.71-25.22-.35-6.58-.69-12.81-.69-16.3,0-8.69.35-23.55.35-23.69l-1.4,0c0,.15-.36,15-.36,23.73,0,3.54.34,9.78.7,16.38.53,9.78,1.13,20.86.71,25C123.29,282.27,111.78,442.74,114.08,459.21Z"/><path class="cls-17" d="M197.67,167c-5.63,5.87-10.56,28.6-13.37,32.27s.7-8.07,2.11-14.67,4.93-17.6-1.41-5.13S174.45,211,171.64,219.83s-6.34,13.2-9.15,8.07-9.85-.74-19,4.4-20.75,5.13-26,.73-4.92-6.6-10.55-11,.7,6.6-2.11,10.27-8.07-8.09-10.14-13.56c-2.66-7-2.08-6.67-.85-15.32-.54,2.27-1,4.3-1.21,5.9-1.41,9.29,0,14.18-.94,35.2s-3.15,22.28-4,33.68c-.24,3.32-3.06,37.25-3.34,43.36,5-12.5,10.23-17,43.59-2.81,14.26,6.06,51.95-10.47,64.81-4.31A70,70,0,0,1,208,324.07c0-.27,0-.55,0-.82-.47-19.07-5.16-29.34-8.45-42.55s-10.32-50.85-3.75-68.94,9.38-42,16.42-48.9l1.39-1.35C209.66,156.88,201.79,162.73,197.67,167Z"/><path class="cls-18" d="M87.4,283.2c3.52,0,13.53,3.37,14.93,4.47s2.47,12.11,6,16.14,20.4-3.07,35.53-2.57c20.33.68,49.8-2.36,58.9-9.08-1.09-3.77-2.21-7.48-3.2-11.46-2.41-9.69-6.83-32.55-6.42-51.18-5.55-7-11.28-13-11.28-13a85.39,85.39,0,0,0-9.15,11.73c-4.22,6.6-7.39,8.8-12,8.07s-20.4.37-31,3.3c-7.69,2.14-25.84.19-38,1.81a24.89,24.89,0,0,1-.13,3.08C89.35,259.3,88.24,272.64,87.4,283.2Z"/><path class="cls-19" d="M103.58,178.46c-.57,1.14-5.4,17-7.1,23.56s-1.14,17.32,2,21.29-.29-13.62,4-13.34,4.45,9.34,7.1,6.53-.57-9.65-.57-21.57-1.13-23.28-3.12-22.14S103.58,178.46,103.58,178.46Z"/><path class="cls-19" d="M144.45,203.16c-5.21,7.3-10.59,13.91-10.21,19.87.28,4.54,5.39,1.42,10.5-.28s5.68,5.67,11.35-2.27,6.53-24.13,4.26-27.82S147.29,199.19,144.45,203.16Z"/><path class="cls-19" d="M80.67,443.32s5.11-86.86,7.67-102.19S94.3,313.88,102,319s6.82,134.55,6.82,134.55-12-8-19.68-7.1S79.73,445.87,80.67,443.32Z"/><path class="cls-5" d="M120.63,263.47s-8.45-4.4-10.56-7-8.44-16.87-11.25-24.94c-1.75-5-6.51-14.48-9.33-18.33a30.11,30.11,0,0,0-4.39-5.14c-2.82-2.56-5.63-4.76-6.34-2.56s1.76,5.86,2.82,7.33,3.52,4.77,3.87,6.23a42,42,0,0,0,2.46,5.51s-5.1-6.79-7.21-9.72-6.51-10.09-8.62-8.62-.35,4.77,1.41,8.07,4.22,7.7,5.27,9.17,3.87,8.43,3.87,8.43-4.22-7-7.74-12.29c-2.6-3.93-5.27-7.15-7-4.95-.81,1,.7,5.87,2.11,7.71a46.24,46.24,0,0,1,3.52,6.6s-2.82-4.77-4.93-4.77-1.76,2.57,0,5.13c1.37,2,3.87,5.87,3.87,5.87s4.57,8.44,7.39,15.4a56.4,56.4,0,0,0,10.9,17.24c3.87,4,11.61,8.8,14.78,11.37s14.77,6.23,14.77,6.23-2.81-9.17-1.75-14.3A47.11,47.11,0,0,1,120.63,263.47Z"/><path class="cls-6" d="M118.52,271.17a47.11,47.11,0,0,1,2.11-7.7s-8.45-4.4-10.56-7a54,54,0,0,1-4.46-8.41c-4,2.41-9.67,5.08-14.18,4-7.74-1.83-13.37-13.2-18.29-19.07a22.76,22.76,0,0,0-5.2-4.69,11.12,11.12,0,0,0,.62,1c1.37,2,3.87,5.87,3.87,5.87s4.57,8.44,7.39,15.4a56.4,56.4,0,0,0,10.9,17.24c3.87,4,11.61,8.8,14.78,11.37s14.77,6.23,14.77,6.23S117.46,276.3,118.52,271.17Z"/><path class="cls-8" d="M109.12,282.38s-9.73-6.4-12.23-8.9c0,0,5.56-2,8.34-5a13.61,13.61,0,0,0,3.33-5.84l12.79,2.5s.28,2.23-2.78,9.18A13.81,13.81,0,0,1,109.12,282.38Z"/><path class="cls-5" d="M112.18,240.68s16.89-1.05,21.81-1.78,11.61-2.2,17.59-.73,15.83,4.39,20.06,6.23,11.25,8.8,13.72,10.27,5.62,6.23,6.68,9.17.7,8.43-6.68,9.16-23.93-4-29.56-7-10.9-9.17-16.53-8.8-18.29,5.5-23.92,7.33a132.66,132.66,0,0,1-13.37,3.3s-3.52-6.23-1-15S112.18,240.68,112.18,240.68Z"/><path class="cls-6" d="M139.27,257.24c5.63-.37,10.91,5.86,16.53,8.8s22.17,7.7,29.56,7,7.74-6.23,6.68-9.16-4.22-7.71-6.68-9.17c-2.26-1.35-8.35-7.3-12.6-9.7-4.3,6.17-15.3,7.32-21.18,6.4-7-1.1-10.42.19-15.12.36-1.77.07-3.16-1-3.44-4.93a17.53,17.53,0,0,1,1-7.9c-6,.28-21.45,1.1-21.45,1.1s-9.15,4-11.61,12.83a23,23,0,0,0-.87,5.77c.07,1.35.17,2.76.3,4.18a17.37,17.37,0,0,0,1.62,5.09,132.66,132.66,0,0,0,13.37-3.3C121,262.74,133.64,257.6,139.27,257.24Z"/><path class="cls-15" d="M111.83,300.51c-1.41-2.94-3.17-7.7-3.52-15.77s1.06-20.9,1.06-20.9,9.15-2.57,13.72-3.67,15.48-2.93,19.35-4.4,14.77-5.14,18.29-4-1.41-3.66.35-5.5,6.33-2.93,8.8-5.5,3.87-7.7,6.33-14.3,9.9-24.53,13.37-31.91c4.56-9.72,14.07-33.74,20-40s9.73-5.5,13.84-2.93,6.21,9.9,8.32,23.1-1.76,31.54-4.92,42.91-9.15,28.6-13.72,37-8.45,20.9-10.21,24.94-1.05,4.4-8.09,6.6-17.59,4-25,5.5-29.55,3.67-40.46,5.5C122.26,298.41,111.83,300.51,111.83,300.51Z"/><path class="cls-17" d="M223.47,151.62l-.62-.37c9.26,20.63.87,51.63-1.26,61.61-2.82,13.2-5.63,20.17-10.91,33.74s-12.31,9.53-16.18,7.33-7.39-2.93-3.87,4.4,0,5.51-7,1.1-11.61-4-16.89-2.19,19.35,12.83,23.92,17.6-6.68,10.27-14.77,10.27-32.37-3.3-40.81-6.24c-6.27-2.17-18.34-1.12-26.74,0-.06,2.05-.07,4.07,0,5.85.35,8.07,2.11,12.83,3.52,15.77,0,0,10.43-2.1,17.59-3.3,10.91-1.83,33.07-4,40.46-5.5s17.94-3.3,25-5.5,6.34-2.57,8.09-6.6,5.63-16.51,10.21-24.94,10.55-25.67,13.72-37,7-29.71,4.92-42.91S227.57,154.18,223.47,151.62Z"/><path class="cls-19" d="M119.76,264.19s13.06-4.26,17.6-6,18.17-6.81,21.29-5.11,4.82,5.39,7.38,8.23,4,5.4-2.27,4-7.67-4.26-14.76-2.56S119.19,268.17,119.76,264.19Z"/><path class="cls-19" d="M177.67,254c-4.83-.56-12.87-.63-13.55-2.18s-4.53-4.56.77-6.62,6.53.57,9.37,2.84A10.47,10.47,0,0,1,177.67,254Z"/><path class="cls-19" d="M164.42,246.94a18.14,18.14,0,0,0,6.75-4.21c2.81-2.95,5.08-10.61,7.07-15.72s6-15,8.8-20.16,6-13.63,11.63-16.46,13.06-3.41,13.06,2.55-8.51,14.48-12.77,23-3.41,17-5.11,23.28-.57,9.09-8.23,5.68S165.36,250.14,164.42,246.94Z"/><path class="cls-18" d="M111.59,262.63c-4.45.84-4.09.81-6.67,1.39,1,5.64,4.86,12.28,7.09,12.28,2.6,0,5.23-7.82,6-15.06C117.17,261.53,112.25,262.51,111.59,262.63Z"/><path class="cls-7" d="M113.84,239.85,134,238.9s-2.08,1.78-2.08,7.06,2,12.51,2,12.51-7,2.22-10.56,3.34c-3.12.95-13.07,2.78-13.07,2.78A19.59,19.59,0,0,1,108,252.91a25.88,25.88,0,0,1,4.44-11.4Z"/><path class="cls-8" d="M116.05,239.26s-3,7-2.48,12.26c.44,4.18,3.05,11.12,3.05,11.12l-6.39,1.95s-2.78-1.67-2.5-10,3.89-11.68,4.72-13.07S116.05,239.26,116.05,239.26Z"/><path class="cls-15" d="M116.05,239.26a18.57,18.57,0,0,0-5.27,9.17c-1.41,5.87-.36,15,.35,18s1.41,9.9,1.41,9.9-8.8-2.93-14.78-3.3c-7.1-.43-26.56-1.18-33.77-4-10.2-4-15.48-11.37-14.78-18.34s2.11-16.87,9.15-20.53,7-1.1,10.2-.74,10.2.74,14.07,2.57S107.61,241.1,116.05,239.26Z"/><path class="cls-17" d="M51.68,253.93a7.49,7.49,0,0,0-2.5-1.43C49.5,258.88,54.69,265.3,64,269c7.21,2.85,26.67,3.6,33.77,4,6,.37,14.78,3.3,14.78,3.3s-.2-1.92-.48-4.16a13.47,13.47,0,0,0-2.69-1.7c-7-3.3-25.68-2.2-36.23-4S55.9,257.6,51.68,253.93Z"/><path class="cls-19" d="M58.44,235.52a15.87,15.87,0,0,1,11.92-5.11c4.83.19,12.78,2.27,16.47,4.26s10.22,4.54,15.33,5.11,9.08,1.42,9.08,1.42a15.47,15.47,0,0,0-2.84,6.53c-.3,2-2.56,1.5-9.65-.85s-36.62-1.14-38.89-3.69S55.32,240.06,58.44,235.52Z"/><path class="cls-20" d="M148.4,37.64c-2.51-.07-11.88,5-16.58,11.34s-5.87,20.51-7,24.79-1,12.74-.48,19.38c.7,8.68,6.66,15.9,9.26,20.8,1.52,2.88,3.26,8.66,8.28,10.36s11.34.55,14.89-1.15,13.37-5.55,17.31-8.88,7.12-11.47,7.87-21.08c.74-9.35-.93-23.37.32-27s-2.06-18.88-11.79-23.75S148.4,37.64,148.4,37.64Z"/><path class="cls-21" d="M142.86,85s1.63-1.49,1.25-5.52-2.25-6.12-4.27-6.77-4.72-.72-4.44.34,4.92,4.41,6.3,6S142.93,84.4,142.86,85Z"/><path class="cls-22" d="M153,94.37a8.06,8.06,0,0,1,1,3,2.45,2.45,0,0,1-.08.84,2.5,2.5,0,0,1-.17.39c-.08.12-.17.24-.25.34a2.09,2.09,0,0,1-1.44.75V99.6a3.32,3.32,0,0,0,1-1,2,2,0,0,0,.49-1.26,8.85,8.85,0,0,0-.65-3Z"/><path class="cls-22" d="M156,82.34a5.58,5.58,0,0,1,3.08-4c2.74-1.31,5.9-.64,8.23.28S172,82.88,172,82.88s-5.94-3-8.95-2.21S156,82.34,156,82.34Z"/><path class="cls-19" d="M156.37,81.82A11.1,11.1,0,0,1,161,79.19a9.83,9.83,0,0,1,6.66,1.24c2,1.19,3.57,2.26,3.57,2.26s-2.86,1.54-4.41,2.34a7,7,0,0,1-4.85.48c-1.74-.36-3.71-2.09-4.67-2.2S155.62,82.7,156.37,81.82Z"/><path class="cls-23" d="M167.6,81.31a3.69,3.69,0,0,0,0-.94A9.8,9.8,0,0,0,161,79.19a6.92,6.92,0,0,0-1.43.45,3.7,3.7,0,0,0-.16.75,4.1,4.1,0,1,0,8.15.92Z"/><path class="cls-19" d="M160.77,80.14a1.74,1.74,0,0,0,.53,2.48c1.25.81-.14-.41.29-1.1C162.18,80.56,161.54,79.52,160.77,80.14Z"/><path class="cls-19" d="M165.19,81.12a2.26,2.26,0,0,1-.24,1.7c-.07.15-.95.7-.51,1.13s1.39.16,1.53-1.12A1.6,1.6,0,0,0,165.19,81.12Z"/><path class="cls-24" d="M156,82.34a8.18,8.18,0,0,1,7.37-3.64A10.07,10.07,0,0,1,168,79.86c1.23.78,3.53,1.91,4.26,3.16a2.14,2.14,0,0,1-1.66-.12c-.78-.45-2.27-1.61-3.47-2.23a11.46,11.46,0,0,0-3.81-1.2,7.69,7.69,0,0,0-4,.52A9.51,9.51,0,0,0,156,82.51Z"/><path class="cls-22" d="M130.28,76.41a7.35,7.35,0,0,1,2.37-2.32,7.05,7.05,0,0,1,6.17-.2,6.53,6.53,0,0,1,3.77,3.91,12.31,12.31,0,0,1,.68,2.59s-2.58-4.34-6.61-4.55A19,19,0,0,0,130.28,76.41Z"/><path class="cls-19" d="M143.19,79.71a15.72,15.72,0,0,0-2.26-2.91,9.76,9.76,0,0,0-6.22-2.32,31.21,31.21,0,0,0-5.29.94s1.21,2.17,1.48,2.68A7,7,0,0,0,133.81,81a8.62,8.62,0,0,0,5.95.35,11.68,11.68,0,0,1,3-.67C143.93,80.75,143.19,79.71,143.19,79.71Z"/><path class="cls-23" d="M140.93,76.8a9.76,9.76,0,0,0-6.22-2.32,4.55,4.55,0,0,0-.63.09,4,4,0,0,0-.82,2,4.1,4.1,0,1,0,8.15.91.86.86,0,0,0,0-.16A6.17,6.17,0,0,0,140.93,76.8Z"/><path class="cls-24" d="M143.24,80.6c.21-.18.1-.49,0-.71h0a10.19,10.19,0,0,0-2.22-3,8.78,8.78,0,0,0-3.32-1.65,12.73,12.73,0,0,0-4.56-.26,15.84,15.84,0,0,0-4,.65,8.34,8.34,0,0,1,8.41-1.35,11.7,11.7,0,0,1,3.8,2.21,10.19,10.19,0,0,1,2,3.37v0a1.21,1.21,0,0,1,.12.45.5.5,0,0,1-.18.42Z"/><path class="cls-19" d="M134.88,75.85a1.75,1.75,0,0,0,.53,2.49c1.24.81-.14-.42.28-1.1C136.29,76.28,135.65,75.24,134.88,75.85Z"/><path class="cls-19" d="M139.3,76.84a2.29,2.29,0,0,1-.24,1.69c-.08.16-.95.71-.51,1.13s1.39.16,1.53-1.12A1.58,1.58,0,0,0,139.3,76.84Z"/><g class="cls-25"><path class="cls-20" d="M136.39,82.5c-3.4-1.29-3.75-2.48-8.64,1-2.51,1.81-4.11,9.52-.62,14.86,3.12,4.76,3.18,2.72,5.57-.71s4.91-4.37,6.86-8.2S138.19,83.17,136.39,82.5Z"/><path class="cls-26" d="M136.34,82.55c-3.33-1.25-3.69-2.43-8.5,1-2.46,1.76-4,9.32-.62,14.55,3.05,4.67,3.12,2.68,5.46-.68s4.84-4.27,6.76-8S138.1,83.22,136.34,82.55Z"/><path class="cls-26" d="M136.29,82.61c-3.26-1.23-3.64-2.4-8.35,1-2.42,1.72-4,9.13-.64,14.25,3,4.57,3.07,2.62,5.37-.66s4.75-4.16,6.64-7.84S138,83.26,136.29,82.61Z"/><path class="cls-27" d="M136.24,82.66c-3.19-1.2-3.59-2.35-8.2.94-2.38,1.68-3.94,8.93-.66,13.94,2.94,4.48,3,2.57,5.28-.64s4.67-4.05,6.53-7.64S137.93,83.3,136.24,82.66Z"/><path class="cls-27" d="M136.18,82.72c-3.1-1.18-3.52-2.31-8.05.89-2.32,1.65-3.88,8.74-.67,13.64,2.88,4.39,3,2.53,5.18-.61s4.6-4,6.42-7.46S137.84,83.34,136.18,82.72Z"/><path class="cls-28" d="M136.13,82.77c-3-1.14-3.47-2.27-7.9.86-2.28,1.61-3.83,8.54-.68,13.34,2.81,4.3,2.9,2.47,5.08-.6s4.51-3.84,6.31-7.27S137.76,83.38,136.13,82.77Z"/><path class="cls-28" d="M136.08,82.83c-3-1.12-3.41-2.23-7.76.82-2.23,1.57-3.76,8.34-.69,13,2.75,4.21,2.85,2.42,5-.57s4.43-3.73,6.19-7.09S137.67,83.42,136.08,82.83Z"/><path class="cls-29" d="M136,82.88c-2.89-1.09-3.36-2.18-7.61.79-2.19,1.53-3.71,8.14-.71,12.73,2.69,4.11,2.8,2.37,4.89-.56s4.36-3.62,6.08-6.9S137.59,83.47,136,82.88Z"/><path class="cls-29" d="M136,82.94c-2.82-1.07-3.3-2.14-7.47.75-2.13,1.48-3.65,7.94-.72,12.42,2.63,4,2.75,2.32,4.8-.53s4.27-3.52,6-6.72S137.5,83.51,136,82.94Z"/><path class="cls-30" d="M135.93,83c-2.74-1-3.25-2.1-7.32.72-2.09,1.44-3.6,7.74-.74,12.11,2.57,3.93,2.7,2.27,4.71-.51s4.19-3.4,5.85-6.52S137.41,83.55,135.93,83Z"/><path class="cls-31" d="M135.88,83.05c-2.67-1-3.19-2.06-7.18.68-2,1.4-3.53,7.54-.74,11.81,2.5,3.83,2.63,2.22,4.61-.49s4.11-3.3,5.74-6.34S137.33,83.59,135.88,83.05Z"/><path class="cls-31" d="M135.83,83.1c-2.6-1-3.14-2-7,.65-2,1.36-3.48,7.34-.76,11.5,2.44,3.74,2.58,2.17,4.51-.47s4-3.19,5.63-6.15S137.24,83.63,135.83,83.1Z"/><path class="cls-32" d="M135.78,83.16c-2.53-1-3.08-2-6.88.6-2,1.33-3.43,7.15-.78,11.21,2.38,3.65,2.53,2.11,4.42-.45s4-3.09,5.52-6S137.16,83.68,135.78,83.16Z"/><path class="cls-33" d="M135.73,83.21c-2.46-.92-3-1.93-6.74.57-1.9,1.29-3.36,7-.79,10.9,2.32,3.56,2.48,2.07,4.33-.43s3.86-3,5.4-5.78S137.07,83.72,135.73,83.21Z"/><path class="cls-34" d="M135.68,83.27c-2.38-.9-3-1.89-6.59.53-1.86,1.25-3.31,6.75-.8,10.59,2.25,3.47,2.42,2,4.22-.4s3.79-2.87,5.29-5.59S137,83.76,135.68,83.27Z"/><path class="cls-35" d="M135.62,83.32c-2.3-.87-2.91-1.85-6.44.5-1.81,1.21-3.25,6.55-.81,10.29,2.19,3.37,2.37,2,4.13-.39s3.71-2.76,5.18-5.4S136.9,83.8,135.62,83.32Z"/><path class="cls-36" d="M135.57,83.38c-2.23-.84-2.85-1.81-6.29.46-1.77,1.16-3.19,6.35-.83,10,2.13,3.28,2.31,1.92,4-.36s3.62-2.66,5.06-5.22S136.81,83.84,135.57,83.38Z"/><path class="cls-37" d="M135.52,83.43c-2.16-.81-2.8-1.76-6.15.43-1.71,1.12-3.13,6.15-.84,9.68,2.07,3.18,2.26,1.86,3.94-.35s3.55-2.54,5-5S136.73,83.88,135.52,83.43Z"/><path class="cls-37" d="M135.47,83.49c-2.08-.79-2.75-1.73-6,.39-1.67,1.08-3.08,6-.86,9.37,2,3.09,2.21,1.81,3.85-.32s3.47-2.44,4.84-4.85S136.64,83.93,135.47,83.49Z"/><path class="cls-38" d="M135.42,83.54c-2-.76-2.69-1.68-5.86.36-1.62,1-3,5.75-.86,9.06,2,3,2.15,1.77,3.75-.29s3.38-2.34,4.73-4.67S136.55,84,135.42,83.54Z"/><path class="cls-38" d="M135.37,83.6c-1.94-.73-2.64-1.64-5.71.31-1.58,1-3,5.56-.88,8.77,1.89,2.91,2.1,1.71,3.65-.28s3.31-2.23,4.62-4.47A3,3,0,0,0,135.37,83.6Z"/><path class="cls-39" d="M135.32,83.65c-1.87-.7-2.58-1.6-5.56.28-1.53,1-2.91,5.36-.9,8.46,1.83,2.82,2,1.66,3.56-.25s3.23-2.12,4.51-4.29A2.9,2.9,0,0,0,135.32,83.65Z"/><path class="cls-39" d="M135.27,83.71c-1.8-.68-2.53-1.56-5.42.24-1.48.93-2.85,5.16-.91,8.16,1.77,2.72,2,1.61,3.47-.24s3.14-2,4.39-4.1A2.78,2.78,0,0,0,135.27,83.71Z"/><path class="cls-40" d="M135.22,83.76c-1.72-.65-2.47-1.51-5.27.21-1.44.89-2.79,5-.93,7.85,1.71,2.63,1.94,1.56,3.37-.21s3.07-1.91,4.28-3.92A2.69,2.69,0,0,0,135.22,83.76Z"/><path class="cls-40" d="M135.17,83.82c-1.65-.62-2.42-1.48-5.13.17-1.39.84-2.73,4.76-.93,7.54,1.64,2.54,1.88,1.51,3.27-.19s3-1.8,4.17-3.73A2.59,2.59,0,0,0,135.17,83.82Z"/><path class="cls-41" d="M135.12,83.87c-1.58-.59-2.36-1.43-5,.14-1.35.8-2.68,4.56-.95,7.24,1.58,2.44,1.83,1.46,3.18-.17s2.9-1.69,4-3.55A2.49,2.49,0,0,0,135.12,83.87Z"/><path class="cls-42" d="M135.06,83.93c-1.5-.57-2.3-1.39-4.83.1-1.29.76-2.62,4.36-1,6.93,1.52,2.36,1.78,1.41,3.08-.15s2.83-1.58,4-3.35A2.39,2.39,0,0,0,135.06,83.93Z"/><path class="cls-43" d="M135,84c-1.43-.54-2.24-1.35-4.68.07-1.25.72-2.56,4.16-1,6.62,1.46,2.27,1.72,1.36,3-.12s2.75-1.48,3.83-3.17A2.29,2.29,0,0,0,135,84Z"/><path class="cls-44" d="M135,84c-1.35-.51-2.19-1.31-4.54,0-1.2.69-2.5,4-1,6.33,1.39,2.17,1.66,1.31,2.89-.11s2.66-1.37,3.72-3A2.19,2.19,0,0,0,135,84Z"/><path class="cls-45" d="M134.91,84.09c-1.28-.48-2.13-1.26-4.39,0-1.16.65-2.45,3.77-1,6,1.33,2.08,1.61,1.26,2.79-.08s2.59-1.26,3.61-2.8A2.1,2.1,0,0,0,134.91,84.09Z"/><path class="cls-46" d="M134.86,84.15c-1.21-.46-2.08-1.23-4.25-.05a4.61,4.61,0,0,0-1,5.72c1.27,2,1.56,1.2,2.7-.07s2.51-1.15,3.49-2.61A2,2,0,0,0,134.86,84.15Z"/><path class="cls-46" d="M134.81,84.2c-1.14-.43-2-1.18-4.1-.08a4.33,4.33,0,0,0-1,5.41c1.21,1.89,1.51,1.16,2.61,0s2.42-1,3.38-2.42A1.9,1.9,0,0,0,134.81,84.2Z"/><path class="cls-47" d="M134.76,84.26c-1.07-.4-2-1.14-3.95-.12a4.05,4.05,0,0,0-1.05,5.1c1.15,1.81,1.45,1.11,2.51,0s2.35-.93,3.27-2.23A1.79,1.79,0,0,0,134.76,84.26Z"/><path class="cls-48" d="M134.71,84.31c-1-.37-1.92-1.1-3.81-.15a3.8,3.8,0,0,0-1.05,4.8c1.08,1.71,1.39,1.05,2.41,0s2.27-.83,3.16-2A1.7,1.7,0,0,0,134.71,84.31Z"/><path class="cls-48" d="M134.66,84.37c-.92-.35-1.86-1.06-3.66-.19a3.54,3.54,0,0,0-1.07,4.49c1,1.62,1.34,1,2.32,0s2.18-.72,3-1.86A1.6,1.6,0,0,0,134.66,84.37Z"/><path class="cls-49" d="M134.61,84.42a3.72,3.72,0,0,0-3.52-.23,3.31,3.31,0,0,0-1.08,4.2c1,1.52,1.29,1,2.22,0s2.11-.62,2.94-1.68A1.51,1.51,0,0,0,134.61,84.42Z"/><path class="cls-49" d="M134.56,84.48a3.69,3.69,0,0,0-3.37-.27c-.83.37-2.05,2.39-1.1,3.89s1.24.9,2.13.07,2-.51,2.82-1.5A1.41,1.41,0,0,0,134.56,84.48Z"/><path class="cls-50" d="M134.5,84.53a3.7,3.7,0,0,0-3.22-.3c-.78.33-2,2.19-1.1,3.58s1.18.86,2,.09,1.94-.4,2.71-1.3A1.32,1.32,0,0,0,134.5,84.53Z"/><path class="cls-50" d="M134.45,84.59a3.69,3.69,0,0,0-3.07-.34c-.74.29-1.93,2-1.12,3.28s1.12.8,1.93.11,1.87-.3,2.6-1.12A1.22,1.22,0,0,0,134.45,84.59Z"/><path class="cls-51" d="M134.4,84.64a3.74,3.74,0,0,0-2.93-.37c-.68.24-1.87,1.79-1.13,3s1.07.75,1.84.13,1.79-.19,2.48-.93A1.13,1.13,0,0,0,134.4,84.64Z"/><path class="cls-51" d="M134.35,84.7a3.84,3.84,0,0,0-2.78-.41c-.64.2-1.81,1.59-1.15,2.67s1,.7,1.75.15,1.7-.08,2.37-.75A1,1,0,0,0,134.35,84.7Z"/><path class="cls-52" d="M134.3,84.75a4,4,0,0,0-2.63-.44c-.6.16-1.76,1.39-1.17,2.36s1,.65,1.65.17,1.63,0,2.26-.56A.94.94,0,0,0,134.3,84.75Z"/></g><g class="cls-25"><path class="cls-20" d="M160.57,86.57c2.94-1,7.52-.49,11.88,3.67,2.24,2.13,4.65,11.29-.26,14.16s-5.79.61-7.68-3.12-7.25-3.72-8.66-7.78S158.75,87.19,160.57,86.57Z"/><path class="cls-26" d="M160.6,86.63c2.87-1,7.37-.49,11.65,3.57,2.2,2.09,4.58,11.06-.23,13.88s-5.67.61-7.54-3-7.1-3.64-8.49-7.61S158.81,87.23,160.6,86.63Z"/><path class="cls-26" d="M160.62,86.69c2.82-.94,7.23-.5,11.43,3.48,2.16,2,4.5,10.81-.21,13.59s-5.55.6-7.38-3-7-3.54-8.34-7.44S158.87,87.27,160.62,86.69Z"/><path class="cls-27" d="M160.65,86.74c2.75-.92,7.08-.49,11.2,3.39,2.12,2,4.43,10.58-.18,13.31s-5.44.6-7.24-2.89-6.83-3.46-8.18-7.28S158.93,87.32,160.65,86.74Z"/><path class="cls-27" d="M160.68,86.8c2.69-.9,6.93-.5,11,3.29,2.07,2,4.35,10.35-.16,13s-5.32.6-7.09-2.82-6.7-3.37-8-7.1S159,87.36,160.68,86.8Z"/><path class="cls-28" d="M160.7,86.85c2.63-.87,6.79-.5,10.76,3.21,2,1.9,4.27,10.11-.13,12.74s-5.21.6-7-2.74-6.55-3.29-7.86-6.94S159.06,87.4,160.7,86.85Z"/><path class="cls-28" d="M160.73,86.91c2.57-.85,6.64-.5,10.53,3.11,2,1.86,4.2,9.88-.1,12.46s-5.09.59-6.8-2.67-6.42-3.2-7.71-6.77S159.12,87.44,160.73,86.91Z"/><path class="cls-29" d="M160.75,87c2.51-.84,6.5-.51,10.31,3,2,1.81,4.12,9.64-.07,12.17s-5,.59-6.66-2.59-6.28-3.12-7.54-6.6S159.18,87.49,160.75,87Z"/><path class="cls-29" d="M160.78,87c2.45-.81,6.35-.5,10.08,2.93,1.92,1.77,4,9.41-.05,11.89s-4.86.59-6.5-2.52-6.15-3-7.39-6.43S159.24,87.53,160.78,87Z"/><path class="cls-30" d="M160.81,87.08c2.38-.79,6.21-.51,9.85,2.84,1.88,1.71,4,9.16,0,11.6s-4.74.59-6.36-2.44-6-3-7.22-6.27S159.3,87.57,160.81,87.08Z"/><path class="cls-31" d="M160.83,87.13c2.33-.76,6.07-.51,9.64,2.75,1.83,1.67,3.89,8.93,0,11.32s-4.63.58-6.21-2.37-5.87-2.86-7.07-6.09S159.36,87.62,160.83,87.13Z"/><path class="cls-31" d="M160.86,87.19c2.26-.75,5.92-.51,9.41,2.66,1.79,1.62,3.82,8.69,0,11s-4.51.58-6.07-2.3-5.73-2.77-6.91-5.92S159.43,87.66,160.86,87.19Z"/><path class="cls-32" d="M160.89,87.24c2.2-.72,5.77-.51,9.18,2.57,1.75,1.58,3.74,8.46.06,10.75s-4.4.58-5.92-2.22-5.6-2.69-6.75-5.76S159.49,87.7,160.89,87.24Z"/><path class="cls-33" d="M160.91,87.3c2.14-.7,5.63-.51,9,2.47,1.71,1.54,3.67,8.23.08,10.47s-4.28.58-5.77-2.15-5.45-2.6-6.59-5.58S159.55,87.74,160.91,87.3Z"/><path class="cls-34" d="M160.94,87.36c2.08-.68,5.48-.52,8.73,2.38,1.67,1.49,3.6,8,.11,10.18s-4.16.57-5.62-2.07-5.32-2.52-6.44-5.42S159.61,87.79,160.94,87.36Z"/><path class="cls-35" d="M161,87.41c2-.66,5.34-.51,8.51,2.29,1.63,1.44,3.52,7.76.14,9.9s-4.05.57-5.48-2-5.18-2.43-6.27-5.25S159.67,87.83,161,87.41Z"/><path class="cls-36" d="M161,87.47c2-.64,5.19-.52,8.29,2.2,1.58,1.39,3.44,7.51.16,9.61s-3.94.57-5.33-1.92S159.06,95,158,92.28,159.73,87.87,161,87.47Z"/><path class="cls-37" d="M161,87.52c1.89-.61,5-.52,8.06,2.11,1.54,1.35,3.36,7.28.19,9.33s-3.82.57-5.19-1.85-4.9-2.26-6-4.91S159.79,87.92,161,87.52Z"/><path class="cls-37" d="M161,87.58a8.21,8.21,0,0,1,7.84,2c1.51,1.3,3.29,7,.22,9s-3.71.56-5-1.77-4.77-2.18-5.8-4.75S159.86,88,161,87.58Z"/><path class="cls-38" d="M161.07,87.63a8,8,0,0,1,7.61,1.93c1.47,1.26,3.22,6.81.24,8.76s-3.58.56-4.89-1.7-4.63-2.08-5.64-4.57S159.92,88,161.07,87.63Z"/><path class="cls-38" d="M161.1,87.69a7.8,7.8,0,0,1,7.38,1.84c1.43,1.21,3.14,6.57.27,8.47s-3.47.56-4.74-1.62-4.5-2-5.49-4.41S160,88,161.1,87.69Z"/><path class="cls-39" d="M161.12,87.75a7.59,7.59,0,0,1,7.16,1.74c1.39,1.17,3.07,6.34.3,8.19s-3.36.56-4.6-1.55-4.36-1.91-5.32-4.24S160,88.09,161.12,87.75Z"/><path class="cls-39" d="M161.15,87.8a7.4,7.4,0,0,1,6.94,1.66c1.34,1.11,3,6.1.32,7.9s-3.24.56-4.45-1.47-4.22-1.83-5.17-4.07S160.1,88.13,161.15,87.8Z"/><path class="cls-40" d="M161.17,87.86a7.19,7.19,0,0,1,6.72,1.56c1.3,1.07,2.91,5.86.35,7.62s-3.13.55-4.31-1.4-4.08-1.74-5-3.9S160.16,88.18,161.17,87.86Z"/><path class="cls-40" d="M161.2,87.91a7,7,0,0,1,6.49,1.47c1.26,1,2.84,5.63.38,7.34s-3,.55-4.16-1.33-3.95-1.65-4.85-3.73S160.23,88.22,161.2,87.91Z"/><path class="cls-41" d="M161.23,88a6.79,6.79,0,0,1,6.26,1.38c1.22,1,2.76,5.39.4,7.05s-2.89.55-4-1.25-3.81-1.57-4.69-3.56S160.29,88.26,161.23,88Z"/><path class="cls-42" d="M161.25,88a6.62,6.62,0,0,1,6,1.29c1.18.94,2.69,5.16.43,6.77s-2.78.55-3.86-1.18-3.67-1.48-4.54-3.39S160.35,88.3,161.25,88Z"/><path class="cls-43" d="M161.28,88.08a6.38,6.38,0,0,1,5.81,1.2c1.14.89,2.61,4.92.46,6.48s-2.66.54-3.72-1.1-3.53-1.4-4.37-3.23S160.41,88.35,161.28,88.08Z"/><path class="cls-44" d="M161.31,88.14a6.16,6.16,0,0,1,5.58,1.1c1.1.84,2.54,4.69.49,6.2s-2.55.54-3.57-1-3.4-1.31-4.22-3S160.47,88.39,161.31,88.14Z"/><path class="cls-45" d="M161.33,88.19a6,6,0,0,1,5.37,1c1.05.79,2.46,4.45.51,5.91s-2.43.54-3.42-1-3.27-1.23-4.07-2.89S160.53,88.43,161.33,88.19Z"/><path class="cls-46" d="M161.36,88.25a5.81,5.81,0,0,1,5.14.92c1,.75,2.38,4.21.53,5.63s-2.31.54-3.27-.88-3.12-1.14-3.9-2.71S160.6,88.48,161.36,88.25Z"/><path class="cls-46" d="M161.38,88.3a5.6,5.6,0,0,1,4.92.84c1,.7,2.31,4,.56,5.34s-2.2.53-3.12-.8-3-1.06-3.75-2.55S160.66,88.52,161.38,88.3Z"/><path class="cls-47" d="M161.41,88.36a5.42,5.42,0,0,1,4.69.74c.94.66,2.23,3.74.59,5.06s-2.08.53-3-.73-2.85-1-3.59-2.38A2,2,0,0,1,161.41,88.36Z"/><path class="cls-48" d="M161.44,88.41a5.26,5.26,0,0,1,4.46.65c.9.62,2.16,3.51.62,4.78s-2,.53-2.83-.65S161,92.3,160.26,91A1.85,1.85,0,0,1,161.44,88.41Z"/><path class="cls-48" d="M161.46,88.47a5,5,0,0,1,4.24.56c.86.57,2.09,3.27.65,4.49s-1.86.53-2.69-.58-2.57-.8-3.27-2A1.73,1.73,0,0,1,161.46,88.47Z"/><path class="cls-49" d="M161.49,88.53a4.87,4.87,0,0,1,4,.46c.81.52,2,3,.67,4.21s-1.74.52-2.54-.5-2.44-.72-3.12-1.88A1.61,1.61,0,0,1,161.49,88.53Z"/><path class="cls-49" d="M161.52,88.58a4.69,4.69,0,0,1,3.79.38c.77.47,1.93,2.8.69,3.92s-1.62.52-2.39-.43-2.3-.62-3-1.7A1.5,1.5,0,0,1,161.52,88.58Z"/><path class="cls-50" d="M161.54,88.64a4.56,4.56,0,0,1,3.57.28c.73.43,1.85,2.56.72,3.64s-1.5.52-2.24-.35-2.17-.54-2.8-1.54A1.38,1.38,0,0,1,161.54,88.64Z"/><path class="cls-50" d="M161.57,88.69a4.35,4.35,0,0,1,3.34.2c.69.38,1.78,2.32.75,3.35s-1.39.52-2.1-.28-2-.45-2.64-1.37A1.28,1.28,0,0,1,161.57,88.69Z"/><path class="cls-51" d="M161.59,88.75a4.21,4.21,0,0,1,3.12.1c.65.34,1.71,2.09.78,3.07s-1.28.52-2-.21-1.89-.36-2.48-1.19A1.16,1.16,0,0,1,161.59,88.75Z"/><path class="cls-51" d="M161.62,88.81a4.06,4.06,0,0,1,2.89,0c.61.29,1.63,1.85.81,2.78s-1.16.51-1.81-.13-1.75-.28-2.32-1A1,1,0,0,1,161.62,88.81Z"/><path class="cls-52" d="M161.65,88.86a3.94,3.94,0,0,1,2.67-.08c.56.24,1.55,1.62.83,2.5s-1.05.51-1.66-.06-1.62-.19-2.16-.86A.94.94,0,0,1,161.65,88.86Z"/></g><path class="cls-20" d="M180.45,84.43s5.1-3.85,7.6-1.42c2.88,2.8-.16,7.45-1.91,10A21.86,21.86,0,0,0,183,99.86c-.39,1.63-2.15,3.69-4.24,1.78a4.76,4.76,0,0,1-1.15-4.75,41.28,41.28,0,0,0,1.76-6.3Z"/><path class="cls-24" d="M155.17,71.68c.35-.71,2.56-1.21,8.38-1.2,8.68,0,11.9,8.59,11.9,8.59s-3.89-4.42-8-4.88-8.07,1.15-10.33,1.22S154.82,72.4,155.17,71.68Z"/><path class="cls-24" d="M145.39,68.71a47,47,0,0,0-7-2.58c-9.14-2.92-10.63,3.5-10.63,3.5a8.67,8.67,0,0,1,6.75-1.28c4.07.84,6.46,3.55,8.58,4.31S145.39,68.71,145.39,68.71Z"/><path class="cls-53" d="M133.79,101.54s1.88,2.62,2.28,3.38c1.64,3.14,4.3,5.93,8,6.73a11.43,11.43,0,0,0,9.72-2.12,35.07,35.07,0,0,1,3.69-2.25s2.13-1.55.1-.92c-3.74,1.16-9,.84-12.65-.16-1.58-.42-4.69-1.7-6.16-2C136.47,103.81,133.84,101.14,133.79,101.54Z"/><path class="cls-54" d="M157.57,106.36c-3.74,1.16-9,.84-12.65-.16-1.58-.42-4.69-1.7-6.16-2-2.29-.42-4.92-3.09-5-2.69,0,0,.66.78,1.36,1.82.36.13,1.06,1,1.36,1.28a12.63,12.63,0,0,0,3.14,1.64,13.7,13.7,0,0,0,4.72,1.58c1.66,0,5.66.31,6.53.35a28.07,28.07,0,0,0,4.86-.62,1.53,1.53,0,0,1,.89.16c.49-.27.82-.47.82-.47S159.6,105.73,157.57,106.36Z"/><path class="cls-53" d="M133.79,101.54s3,1.28,4,1.49a41.21,41.21,0,0,0,4.31.25c1.06.15,2.27.79,2.71.78a22.18,22.18,0,0,1,4.29.6,38,38,0,0,0,4.94,1.25c1.32.14,4.16.18,4.16.18a36.11,36.11,0,0,1-5.52,1.24,42.68,42.68,0,0,1-8.7-.61,16.74,16.74,0,0,1-3.16-1.07c-.41-.21-3.13-1.24-4-1.71A10.76,10.76,0,0,1,133.79,101.54Z"/><path class="cls-55" d="M138.54,107.84c-.31-.51-1.24-1.67-.44-1.48s2.54,1.56,4,2.13,2.16.57,2.11,1.6-1,.57-2.49,0A7.61,7.61,0,0,1,138.54,107.84Z"/><path class="cls-55" d="M145.5,110.64c-.64-.31,0-1.64.83-1.63a26.87,26.87,0,0,0,3.72.31c.6-.16,1.55,0,.83.75A4.87,4.87,0,0,1,145.5,110.64Z"/><path class="cls-22" d="M141,91.66a16.28,16.28,0,0,0-.91,1.88,8.1,8.1,0,0,0-.34,1,4.37,4.37,0,0,0-.12.49,2.22,2.22,0,0,0-.07.48,1.64,1.64,0,0,0,.3,1.1,3.12,3.12,0,0,0,.73.6c.16.06.59.43.76.51a2.71,2.71,0,0,1,.49.31c.29.23.55.46.81.68a4.36,4.36,0,0,0,3.51,1.35c.7-.1,1.33-.92,2-.9a11.52,11.52,0,0,1,2.11.21v.07c-1.4.08-2.69,1-4,1.28-.16,0-.37.07-.56.09a3.88,3.88,0,0,1-.59,0,3.54,3.54,0,0,1-1.11-.32,7.23,7.23,0,0,1-1.77-1.3c-.26-.23-.51-.48-.76-.7a2.4,2.4,0,0,0-.38-.27l-.46-.23a5.43,5.43,0,0,1-1-.78,3.21,3.21,0,0,1-.48-.8,3.72,3.72,0,0,1,0-.89,3.09,3.09,0,0,1,.11-.56,5.08,5.08,0,0,1,.17-.51,8.35,8.35,0,0,1,.42-1,15,15,0,0,1,1.08-1.82Z"/><path class="cls-56" d="M124.68,88a46.92,46.92,0,0,0,.23,4.75,23.88,23.88,0,0,0,.85,4.64,10.07,10.07,0,0,0,.39,1.09,7.7,7.7,0,0,0,.54,1c.4.7.79,1.39,1.17,2.09.77,1.4,1.51,2.81,2.29,4.19s1.62,2.71,2.48,4c.11.16.22.32.33.5l.32.52c.21.34.41.69.61,1,.4.69.78,1.39,1.16,2.08.78,1.39,1.54,2.77,2.35,4.13.4.68.81,1.36,1.25,2a9.4,9.4,0,0,0,1.49,1.82l-.06.1a5.12,5.12,0,0,1-1-.75,11.64,11.64,0,0,1-.84-.88c-.53-.6-1-1.24-1.49-1.89-.95-1.29-1.82-2.63-2.66-4s-1.64-2.74-2.5-4-1.6-2.8-2.33-4.22-1.41-2.87-2.11-4.29c-.35-.71-.7-1.42-1.07-2.12a10.3,10.3,0,0,1-.53-1.11,10.54,10.54,0,0,1-.37-1.17,24.34,24.34,0,0,1-.66-4.77,45,45,0,0,1,0-4.79Z"/><path class="cls-15" d="M185.2,67.89s-2.13-14.82-8.5-23S157.12,30.94,149,31.69,133.21,38.5,131.15,44s-1.44,17.08-1.44,17.08,4.32-8.39,16.82-7.25c10.75,1,20.93,9.08,27.84,16.38,4.25,4.5,9.15,13.7,9.24,13.11S185.2,67.89,185.2,67.89Z"/><path class="cls-16" d="M149,31.69c8.16-.75,21.37,4.92,27.74,13.15s8.5,23,8.5,23-1.5,14.86-1.59,15.45-5-8.61-9.24-13.11c-1.53-1.61-3.22-3.27-5-4.88-4.6-4.78-11-13.74-22.81-17.11a15,15,0,0,0-16.82,5.63C129.93,42.32,136.68,32.81,149,31.69Z"/><path class="cls-10" d="M175.23,111.41s6.27-6.67,5.7-13.4-7.14-27.46-13.59-35.63A52.78,52.78,0,0,0,145.83,46.7c-4.4-1.49-10.74,1.75-12.86,5s-4.18,11.42-4.46,13.19-1.7,5.77-1.91,7.15a17.87,17.87,0,0,1-1.09,4.45,53.07,53.07,0,0,0-1.67,5.58s.51-7.16,1.25-13.29,1.59-10.21,2.07-13.36a54.14,54.14,0,0,1,3.92-12.27c1.82-3.94,7.41-8.91,12-12.42S170,19.26,181.94,25.33s19.18,22.89,20.62,25.33S205,61.09,204.35,65s-.18,3.8.92,5.78,1.92,1.9,1.33,4.43-1.39,10.25-.82,14.36,2.24,10.21.57,13.17S195.21,113,191.67,115.08c0,0,4.29,3.2,7.05,4.83s6.66,2.6,5.75,5.88-.55,1.74.39,3.49,1,6.81,1,6.81-3.72-3.41-6.79-5.69-6.14-2.78-7.51-4.44c-4.42-5.33-9.48-6.65-12.22-5.86s-9.66,1.31-12.53,1.67S158,123,158,123,168.45,118.81,175.23,111.41Z"/><path class="cls-11" d="M175.23,111.41s6.27-6.67,5.7-13.4a26.16,26.16,0,0,0-.6-3.47c1.21-1.5,2.95-1.47,3.17-.15.32,1.86,1.44-.18,2.4-2.45s3.07-5.56,2.54-3.43-1.5,5.8-.94,6.09,5.43-10.42,6.28-13.31,4.49-13.39,4.49-13.39-.44,6.77-.51,9.78a26,26,0,0,1-1.65,9.4c-1.46,4.2-3.22,10.37-3.22,10.37s3.09-4.35,3.91-7,2.58-8.86,3.68-12.1a9.62,9.62,0,0,1,3.35-4.72s-1.23,6.65-2.28,12.12-6.36,12.5-6.36,12.5a53.44,53.44,0,0,0,5.55-6c2.51-3.23,3.58-10.11,3.92-14.89a30.58,30.58,0,0,1,1.08-5.78c.84,1.25,1.36,1.52.86,3.67-.6,2.52-1.39,10.25-.82,14.36s2.24,10.21.57,13.17S194.82,112.88,191.28,115c0,0,5.85,2.54,8.62,4.18s6,2.6,5.09,5.88-1.07,2.52-.13,4.27c1.31,2.46.58,6.39,1.66,10.33,0,0-1-.68-2.77-2s-4.3-4-5.93-5.26c-3.06-2.28-6.18-4.31-7.76-5.76-.74-.67-3-4.38-5-5.83-2.28-1.68-4.31-1.07-5.78-.64-2.74.78-9.66,1.31-12.53,1.67S158,123,158,123,168.45,118.81,175.23,111.41Z"/><path class="cls-13" d="M192.29,53.29c-.3-3.26.22-6.6-3.55-13.42S177.87,26.91,176,26s-3.88-2.21-6.62-1.43-6.75.76-9,1a45.18,45.18,0,0,0-8.18,2.15,44,44,0,0,0-9,4.84c-2.07,1.7-4,3.61-4,3.61a35.4,35.4,0,0,1,12.05-1.15c5.73.69,12.59,2.32,16.68,6.61,5.2,5.43,8.91,15.26,8.91,15.26s.44-5.43-1.19-9.23a31.25,31.25,0,0,0-8.57-12.2A26.06,26.06,0,0,0,163,32.05a11,11,0,0,0,3-1.14c.91-.67,5.42,2.82,8.91,7.41a41.35,41.35,0,0,1,6.59,13.3A22,22,0,0,0,179.2,40.4a48,48,0,0,0-6.88-10.12c-1-1.36-.8-4,1.46-3s12.53,9.84,14.82,14.77C192.22,49.86,192.29,53.29,192.29,53.29Z"/><path class="cls-14" d="M181.18,99.9s-.12-7.91-1.69-13.38-6.87-20.66-10.76-25.36c-3.07-3.7-11.34-12.47-18.56-15.2s-12.5-1.13-15.42.83a13.46,13.46,0,0,0-5.41,7.61c-.85,2.89-3.17,11.38-3.17,11.38a13.32,13.32,0,0,0,2-5.12,23.39,23.39,0,0,1,4.14-9.82c3-4,9.77-6,14.17-4.45C175.54,56.89,181.18,99.9,181.18,99.9Z"/><path class="cls-14" d="M162.2,48.83s5.26,7,6.74,9.7C173.12,66.15,176,71.78,177,75.3c1.7,6.12,4.19,24.6,4.19,24.6s-.56-13.58-1.46-18.15-3.11-13-4.95-16.69-2.7-6.38-5.42-9.61A53,53,0,0,0,162.2,48.83Z"/><path class="cls-11" d="M182.26,57c0,2.62-.93,12.53-.62,17s.65,8.75,1,14.24.28,9.9-.68,12.17-2.65,5.42-2.65,5.42,5.72-8.37,6.23-15.53,1.9-8.36.81-18.19S182.26,57,182.26,57Z"/><path class="cls-14" d="M182.26,57s2.73,9.68,3.13,13.56,1,10.22,0,15.5-1.71,11-2.63,13.07-1.54,3.39-1.54,3.39a74.88,74.88,0,0,0,5.65-20.86c1.09-10.9-.21-12.91-1.24-16.69A41.14,41.14,0,0,0,182.26,57Z"/><path class="cls-11" d="M197.74,46.69a44.07,44.07,0,0,1,.85,11.4c-.25,4.19-5.37,16.47-8,22.91s-6.67,17.08-7.91,19.9a47.87,47.87,0,0,1-5.39,8.82c-1.49,1.78-12.6,10.59-12.6,10.59s10.88-8.64,13.13-12.72a208.5,208.5,0,0,0,10-24c2-6.33,4.73-15,7.14-21.43S197.74,46.69,197.74,46.69Z"/><path class="cls-14" d="M164.71,120.31s10.57-4.62,15.32-11.93,7.21-16,8.06-18.92,5.2-14.08,6.48-17.1,3.62-9.1,4-14.27a43.28,43.28,0,0,0-.34-9.51l-.15-4.24s.89,6,1.4,7.86,0,7.65-2.43,15.72-6.68,17.07-7.24,19.4-2,6.33-2.33,7.28,1.62-1.36,2.42-2.64,5-7.28,5.65-11.8,1.87-10.78,2.7-12.26-.27,1.77-.44,4.16-1.52,9.82-2.08,12.15-3.81,7.66-5.29,9.44-4.41,6.36-5.66,8-3.67,7.52-4.76,9.36S166.92,119.05,164.71,120.31Z"/><path class="cls-12" d="M170.55,116.92a46,46,0,0,0,8.83-8.89c3.83-5.24,5.46-8,7.34-9.73s3.95-3.41,3.95-3.41a7.23,7.23,0,0,1-1.7,3.16c-1.48,1.78-3.22,3.93-4.51,5.74S181.8,108,181.8,108a11.65,11.65,0,0,0,3.66-2.85c2.16-2.28,5.1-5.65,5.1-5.65a42.4,42.4,0,0,1-4,6.42c-1.71,2-5.88,4.12-8.43,6.34s-8.18,5.92-10.41,7.44c-4.1,2.81-10.52,3.54-10.52,3.54S167.41,119.05,170.55,116.92Z"/><path class="cls-12" d="M159.61,123.21s14.57-6.33,18.31-8.36,6.73-3.18,10-6.1a97.22,97.22,0,0,0,7.72-8.26s-2.34,4.67-4.24,6.59a55.82,55.82,0,0,1-8.52,6.93c-2.66,1.6-9.37,3.84-11.25,5.09C168.93,120.9,159.61,123.21,159.61,123.21Z"/><path class="cls-13" d="M184.1,80.19s-.22,4-.22,6.61-.38,7.67-.6,10.37a12.47,12.47,0,0,1-2,5.32s1.54-8.62,1.33-12.47S184.1,80.19,184.1,80.19Z"/><path class="cls-12" d="M170.17,120.69s4.2-1.64,8.31-3.36a65.94,65.94,0,0,0,7.44-3.46c2.46-1.63,6.27,2,9.27,2.65a43.72,43.72,0,0,1,8.49,3.91,4.78,4.78,0,0,1,1.57,3.27,3.59,3.59,0,0,0-2.74-2.61c-2.49-.79-5.62-2.44-8.62-3.66-4.83-2-5.61-3.19-7.34-2.45s-2,1.92.29,1.67,3.26.65,6.13,1.56c1.63.52,3.4,1.31,3.4,1.31a26.9,26.9,0,0,1-4.83-.65c-2.53-.59-4.83-.87-6.79-1.18s-3.54-.72-4.81-.32-4.13,2-5.37,2.19S170.17,120.69,170.17,120.69Z"/><path class="cls-12" d="M173.12,121.14s6.37-3.43,10.27-2.63,6.48,1,7.45,2.56,2,2.73,2.82,3.86A30.44,30.44,0,0,0,196.6,128s-1.81-1.29-5.69-3.5-4.2-3.9-7.12-4.55a12.55,12.55,0,0,0-6.3.25C176.64,120.48,173.12,121.14,173.12,121.14Z"/><path class="cls-13" d="M203.74,71.57s-.6,1.31-2.38,6.27-3.77,10.08-4.56,12.57-4,7.83-4,7.83,4.3-4.37,5.89-8.15,1.38-5,2.64-9.24S203.74,71.57,203.74,71.57Z"/><path class="cls-13" d="M202.56,50.66a100.1,100.1,0,0,1-.61,13,84.5,84.5,0,0,1-2.28,12.12c-1.12,4.66-5,15.52-5,15.52s4.38-8.77,5.82-14.19,2.81-9,3.05-13.2S202.56,50.66,202.56,50.66Z"/><path class="cls-10" d="M196.56,110.09c1.79-1.13,4-3.61,6.09-5.5s3.46-2.88,3.43-5.3-.91-3.16-1-5.38.47-4.35-.3-3.26a40,40,0,0,0-3.49,6.9,42.12,42.12,0,0,1-3.51,6.69c-1.52,2.59-5.92,5.72-6.92,6.4-5.31,3.59-1.48,2.63-.27,2.61S196.56,110.09,196.56,110.09Z"/><path class="cls-10" d="M197.54,120.57c2.31.65,7.13.49,7.45,2.35s-.14,1.72-.52,2.87-.18,3.06-1.18,1.7a40.7,40.7,0,0,0-2.4-3.34c-1.53-1.84-4.74-2.82-6.74-2.93a8.4,8.4,0,0,1-4-1.75A39.31,39.31,0,0,1,197.54,120.57Z"/><path class="cls-10" d="M194.81,123.93a8.36,8.36,0,0,1,3.36,2.94c1.74,2.37,2.28,1.43,3.53,2.39s1.74.79,2.74,2.77,1.24,6.12,1.24,6.12c-1.14-1.51,1-1.63-3.69-4.16-1.66-.9-2.85-1-3.6-3.22A53.87,53.87,0,0,0,194.81,123.93Z"/><path class="cls-13" d="M199.92,97.43c-1.47,2.52-2.81,7.15-4.49,8.87s-3.81,2.38-6,4.07a42.52,42.52,0,0,1-6.54,3.64s4.18-1.47,8.52-6.93A123.32,123.32,0,0,1,199.92,97.43Z"/><path class="cls-13" d="M191.9,100.06a46,46,0,0,1-3.52,6.06c-1.13,1.23-2.48,1.93-4.94,3.61s-8.46,5.48-8.46,5.48,8.21-5.76,10.71-8A62.06,62.06,0,0,0,191.9,100.06Z"/><path class="cls-19" d="M164.12,251.79a12.7,12.7,0,0,1-.67-1.55,3,3,0,0,1-.09-1.78,3.15,3.15,0,0,1,1.06-1.52A7.11,7.11,0,0,1,166,246a12.4,12.4,0,0,1,1.63-.62l.4-.12.33-.13a5,5,0,0,0,.65-.34,8.66,8.66,0,0,0,2.21-2.07,19.23,19.23,0,0,0,1.74-2.65c.51-.94,1-1.9,1.43-2.9.88-2,1.65-4,2.36-6.1s1.36-4.18,2-6.3l.93-3.19c.33-1.1.68-2.18,1-3.25.72-2.14,1.51-4.24,2.31-6.34s1.64-4.17,2.48-6.24,1.74-4.13,2.63-6.18,1.81-4.09,2.75-6.12,1.9-4.05,2.9-6.06,2-4,3.11-6c.27-.49.54-1,.83-1.48l.85-1.45,1.68-2.88c1.12-1.92,2.23-3.85,3.41-5.77a49.1,49.1,0,0,1,3.89-5.56,20.4,20.4,0,0,1,2.38-2.45,10.45,10.45,0,0,1,2.88-1.77,10.78,10.78,0,0,0-2.47,2.19,20.88,20.88,0,0,0-1.92,2.66,63.75,63.75,0,0,0-3.08,5.85c-1,2-1.87,4-2.83,6-.47,1-1,2-1.46,3l-.73,1.49-.71,1.49c-1.85,4-3.62,8.07-5.36,12.15-.87,2-1.74,4.09-2.59,6.14s-1.72,4.09-2.56,6.14-1.69,4.11-2.51,6.16-1.64,4.12-2.41,6.17c-.39,1-.76,2.06-1.1,3.08s-.72,2.12-1.09,3.18c-.74,2.13-1.53,4.24-2.4,6.33-.43,1.05-.89,2.08-1.38,3.11s-1,2-1.55,3a26.69,26.69,0,0,1-4,5.68,10.16,10.16,0,0,1-2.93,2.14,6.63,6.63,0,0,1-.88.33l-.48.11-.41.07c-.53.1-1,.21-1.56.36a5.8,5.8,0,0,0-1.42.61,2.44,2.44,0,0,0-1,1,2.58,2.58,0,0,0-.17,1.52C163.82,250.71,164,251.25,164.12,251.79Z"/><path class="cls-19" d="M136.05,194c3.67-6.44,7.64-12.68,11.8-18.81,2.08-3.06,4.22-6.08,6.46-9,1.11-1.48,2.27-3,3.48-4.39l3.62-4.2c4.83-5.57,9.66-11.13,14.45-16.74a55.51,55.51,0,0,0,6.41-8.79,29.07,29.07,0,0,0,2.3-4.93,18.26,18.26,0,0,0,.72-2.63,13.12,13.12,0,0,0,.24-2.74,11.8,11.8,0,0,1,.17,2.79,17.51,17.51,0,0,1-.39,2.79,28,28,0,0,1-1.82,5.34,49.16,49.16,0,0,1-5.93,9.55c-4.49,5.88-9.21,11.6-14.05,17.18l-3.64,4.17c-1.19,1.36-2.34,2.78-3.49,4.21-2.28,2.87-4.52,5.8-6.77,8.72C145.13,182.3,140.67,188.19,136.05,194Z"/><path class="cls-19" d="M120.54,144.49l1.25-1.17c1.65-1.58,3.29-3.17,4.9-4.81,1.22-1.24,2.21-1.81,3.38-3.1-.13-.81-.15-1.77-.47-3.17-1.74,1.38-3.09,2.88-4.74,4.36s-3.37,3.13-5,4.77l-1.2,1.24-1.18,1.27c-.39.43-.77.86-1.16,1.31s-.74.89-1.12,1.41l-1.92,2.59,3-.87,2.07-.57,2.09-.54c.7-.18,1.39-.35,2.1-.5.35-.07.7-.14,1.06-.19a4.87,4.87,0,0,1,1.08-.08,4.42,4.42,0,0,0-1.07-.33,10.4,10.4,0,0,0-1.12-.15c-.74-.06-1.48-.07-2.22-.06-.42,0-.84,0-1.26,0l.31-.28Z"/><path class="cls-19" d="M123.54,152c-.35.71-.7,1.42-1.08,2.11s-.73,1.4-1.12,2.09c-.76,1.37-1.53,2.74-2.33,4.09s-1.61,2.7-2.43,4-1.67,2.66-2.52,4l-.13-1.63c.5.5.94,1,1.38,1.52s.88,1,1.29,1.57a31.61,31.61,0,0,1,2.31,3.39,20.2,20.2,0,0,1,1,1.84l.22.48.11.25.1.25c.13.32.25.64.36,1a39.34,39.34,0,0,1,1.14,3.9,48.56,48.56,0,0,1,1.21,7.93,33.37,33.37,0,0,1-.33,8,72.56,72.56,0,0,0-1.26-7.76c-.56-2.54-1.22-5.05-2-7.51-.39-1.23-.8-2.44-1.27-3.61q-.17-.45-.36-.87l-.19-.41-.2-.41c-.27-.55-.57-1.09-.89-1.63-.65-1.06-1.37-2.11-2.13-3.13-.39-.51-.77-1-1.17-1.51s-.82-1-1.22-1.45l-.71-.82.58-.82c.91-1.28,1.83-2.54,2.77-3.8s1.88-2.51,2.85-3.75,1.94-2.47,2.94-3.69c.5-.61,1-1.21,1.52-1.81S123,152.59,123.54,152Z"/><path class="cls-19" d="M67.39,209a13.8,13.8,0,0,1,.35-1.79c.14-.59.31-1.17.47-1.75.34-1.15.71-2.28,1.09-3.4.77-2.24,1.58-4.45,2.29-6.62.36-1.09.61-2.13.91-3.31a35.67,35.67,0,0,1,1.08-3.48,12,12,0,0,1,1.8-3.36A4.74,4.74,0,0,1,76.91,184a3,3,0,0,1,1.87-.3,3.39,3.39,0,0,0-1.42.93,5,5,0,0,0-.82,1.37,17.4,17.4,0,0,0-.86,3.23l-.6,3.45c0,.3-.11.59-.16.88l-.09.44-.1.47c-.14.62-.31,1.22-.5,1.81a38.88,38.88,0,0,1-2.93,6.65C70.72,204,70.1,205,69.45,206S68.1,208,67.39,209Z"/><path class="cls-19" d="M87.4,170.07a5.15,5.15,0,0,1,0-2.21,10.51,10.51,0,0,1,.69-2.12,15.9,15.9,0,0,1,1-2c.37-.63.79-1.24,1.17-1.82a76,76,0,0,0,4.08-7.17l1-1.87c.33-.62.64-1.25,1-1.88.17-.31.35-.65.58-1a9.77,9.77,0,0,1,.69-1,14.51,14.51,0,0,1,1.57-1.65,19.16,19.16,0,0,1,3.62-2.56,15,15,0,0,1,2-.89,6.47,6.47,0,0,1,2.16-.42,8.51,8.51,0,0,0-1.79,1.1c-.56.42-1.09.87-1.6,1.33a30.08,30.08,0,0,0-2.82,3,18.35,18.35,0,0,0-1.17,1.58c-.17.27-.33.55-.47.81s-.27.55-.41.88l-.89,1.92c-.3.65-.62,1.29-.94,1.93A34.36,34.36,0,0,1,92,163.29l-.36.4-.37.38-.69.77c-.45.51-.9,1-1.31,1.58A9,9,0,0,0,87.4,170.07Z"/><path class="cls-57" d="M168.8,220.63a12.57,12.57,0,0,1-5.18-2.34c-3.74-2.83-4.6-8.92-2.41-17.14,1.85-7,8.77-23.84,9.07-24.55l2.28,1c-.07.17-7.15,17.41-9,24.23-1.88,7.07-1.33,12.36,1.51,14.5,6.53,4.94,15.15-.16,17.64-1.85l1.38,2.08C181.9,218,175.32,221.94,168.8,220.63Z"/><path class="cls-57" d="M165.1,219.19l-.43-.09c-3.18-.77-7.62-3.3-10.76-11l2.3-1c2.16,5.33,5.29,8.63,9,9.53,3.08.74,6.37-.24,9.25-2.77,7.94-6.95,20.35-30.08,20.47-30.32l2.18,1.19c-.51,1-12.75,23.77-21,31C172.75,218.74,168.85,219.94,165.1,219.19Z"/><path class="cls-8" d="M195.37,186.85a2.38,2.38,0,0,1-.49-.17,2,2,0,0,1-.85-2.62c4.28-8.61,5.72-14.55,2.63-17.66-3.34-3.36-9.62-3.75-14.41-.9-4,2.38-7.79,9.91-9.13,12.49a1.91,1.91,0,0,1-2.6.81,2,2,0,0,1-.8-2.63c.21-.42,5.39-10.27,11.15-13.69,6.3-3.75,13.07-3.22,17.65,1.4,4.42,4.44,4.07,11.62-1.05,21.93A1.94,1.94,0,0,1,195.37,186.85Z"/><path class="cls-8" d="M192.82,163.08s-1.46-.05-1.2-1.09c.07-.28,2.45-6.2,5.65-13,3.82-8.17,2.75-11.65,1.62-14.35-1.21-3-4.15-4.36-5.64-5.5,4-.92,7.13,2.24,8,3.59,1.19,1.57,1.7,3.48,1.92,6.24.27,3.55-.46,7.09-4,13.45a96.35,96.35,0,0,0-4.64,10.48C194.3,163.87,193.82,163.28,192.82,163.08Z"/><path class="cls-57" d="M171,173.94a2.64,2.64,0,0,0,1.44,1.21,8.23,8.23,0,0,0,1.93.53l-1.81,3.53s-.65,1.15-1.65.88a2.79,2.79,0,0,1-1.53-.73c-.6-.55-.57-1.39.06-2.82A20.24,20.24,0,0,1,171,173.94Z"/><path class="cls-57" d="M195,181.93s-1.68,3.21-1.73,3.48a1.77,1.77,0,0,0,0,1.77,5.82,5.82,0,0,0,1.86,1.23A3.52,3.52,0,0,0,196.8,187c.54-1,1.72-3.41,1.72-3.41a2.44,2.44,0,0,1-1.36-.2A5.65,5.65,0,0,1,195,181.93Z"/><path class="cls-8" d="M180.12,218.77a2.19,2.19,0,0,1-.71-.9,2.35,2.35,0,0,1-.36-1.29,1.43,1.43,0,0,1,.87-1.11,5.47,5.47,0,0,0,2.17-2c.75-1,3-2.05,4.21-.53s1.34,2.72.19,3.82-2.44.55-3.7,1.24c-.62.34-1.21.49-1.65.7A1,1,0,0,1,180.12,218.77Z"/><path class="cls-8" d="M154.88,210a2.22,2.22,0,0,0,1.08-.39,2.3,2.3,0,0,0,1-.91,1.42,1.42,0,0,0-.16-1.4,5.6,5.6,0,0,1-.81-2.83c-.13-1.24-1.46-3.33-3.31-2.69s-2.55,1.6-2.15,3.14,1.79,1.77,2.5,3c.35.62.77,1.06,1,1.47C154.43,210.06,154.88,210,154.88,210Z"/><path class="cls-8" d="M110.65,200.74a119,119,0,0,1,1.27-33.89c4.73-23.62,17.19-37.28,17.49-37.59a32.65,32.65,0,0,0,.38,3.69,120.52,120.52,0,0,0-6.72,10.36c-2.52,4.84-5.58,12.72-7.88,24.19-3.24,16.2-1.25,32.66-1.23,32.82Z"/><path class="cls-8" d="M103.28,214.24c.28,5.91,5,10.58,10.44,10.42s9.7-5.09,9.42-11-5-10.57-10.44-10.41S103,208.33,103.28,214.24Z"/><path class="cls-57" d="M103.2,214c.21,5.61,4.41,10,9.38,9.82s8.81-4.9,8.6-10.51-4.42-10-9.38-9.82S103,208.43,103.2,214Z"/><path class="cls-8" d="M104,213.26c.14,3.6,2.83,6.41,6,6.29s5.66-3.13,5.52-6.73-2.83-6.42-6-6.29S103.81,209.66,104,213.26Z"/><path class="cls-57" d="M105.26,213.21a4.78,4.78,0,0,0,4.65,4.87c2.46-.09,4.37-2.43,4.26-5.21s-2.19-5-4.65-4.87S105.15,210.43,105.26,213.21Z"/><path class="cls-57" d="M114.05,204.49l-.43-8s-2.59-.47-3.33.18c-.73,1.34.09,7.79.09,7.79S111.5,205.89,114.05,204.49Z"/></g></g></svg>