<svg xmlns="http://www.w3.org/2000/svg" xmlns:xlink="http://www.w3.org/1999/xlink" viewBox="0 0 322.94 322.94"><defs><style>.cls-1{fill:none;}.cls-2{fill:#bcbcbc;}.cls-3{clip-path:url(#clip-path);}.cls-4{fill:#e5a785;}.cls-5{fill:#c98a60;}.cls-6{fill:#0b1547;}.cls-7{fill:#b1770c;}.cls-8{fill:#915d0a;}.cls-9{fill:#152063;}.cls-10{fill:#223077;}.cls-11{fill:#dfe9f4;}.cls-12{fill:#b6c5d3;}.cls-13{fill:#c6d4e0;}.cls-14{fill:#9fafbc;}.cls-15{fill:#fabf9a;}.cls-16{fill:#fcfcfc;}.cls-17{fill:#fff;}.cls-18{fill:#9ea9af;}.cls-19{opacity:0.6;}.cls-20{fill:#fabe99;}.cls-21{fill:#f9be99;}.cls-22{fill:#f9bd98;}.cls-23{fill:#f9bc98;}.cls-24{fill:#f9bc97;}.cls-25{fill:#f8bb97;}.cls-26{fill:#f8ba96;}.cls-27{fill:#f8b995;}.cls-28{fill:#f7b895;}.cls-29{fill:#f7b794;}.cls-30{fill:#f7b693;}.cls-31{fill:#f6b592;}.cls-32{fill:#f6b491;}.cls-33{fill:#f5b391;}.cls-34{fill:#f5b390;}.cls-35{fill:#f5b290;}.cls-36{fill:#f5b18f;}.cls-37{fill:#f4b18f;}.cls-38{fill:#f4b08e;}.cls-39{fill:#f4af8e;}.cls-40{fill:#f4af8d;}.cls-41{fill:#f3ae8d;}.cls-42{fill:#f3ad8c;}.cls-43{fill:#f2ac8b;}.cls-44{fill:#f2ab8a;}.cls-45{fill:#f2aa89;}.cls-46{fill:#f1a989;}.cls-47{fill:#f1a888;}.cls-48{fill:#f1a787;}.cls-49{fill:#f0a687;}.cls-50{fill:#f0a686;}.cls-51{fill:#f0a586;}.cls-52{fill:#f0a485;}.cls-53{fill:#efa485;}.cls-54{fill:#efa384;}.cls-55{fill:#f29d81;}.cls-56{fill:#ad6453;}.cls-57{fill:#602503;}.cls-58{fill:#bcc6cc;}.cls-59{fill:#a3adb2;}.cls-60{fill:#b7bfc4;}.cls-61{fill:#f9c9af;}</style><clipPath id="clip-path"><rect class="cls-1" width="322.94" height="322.94" rx="64.41"/></clipPath></defs><g id="background"><rect class="cls-2" width="322.94" height="322.94" rx="64.41"/></g><g id="image"><g class="cls-3"><path class="cls-4" d="M185.07,104.41s-.48,17,1.33,23-6.93,18.41-17.54,20c-24.79,3.62-29-9.07-29-9.07s1.21-23,0-29a25,25,0,0,0,18.14,6C169.47,114.75,185.07,104.41,185.07,104.41Z"/><path class="cls-5" d="M157,119c11.49-.61,28-14.14,28-14.14s.42,1.11-1.95,7.92c-3.36,7.27-10.8,22-24.12,21.34-10.91-.56-16.84-10.84-19.81-18.74a20.07,20.07,0,0,0-.3-2.43A24.94,24.94,0,0,0,157,119Z"/><path class="cls-6" d="M139.54,127.75s5.89,12.85,10,16.33,8.47,2.27,13.61-1.06,22.37-19.35,22.37-19.35l8.77,8.17s-8.77,31.74-13,40.21S164.48,206.82,161.61,210s-9.38,11.49-18.44,3.18-18.9-22.68-9.68-72.42C134.21,136.85,139.54,127.75,139.54,127.75Z"/><path class="cls-7" d="M159,200.77s-.15-19.2-.76-26.45a148.55,148.55,0,0,1,.15-18s-3-3.63-5.89-3.33a6.45,6.45,0,0,0-4.08,1.66s-6.07,17.54-7.41,24.49c-1.67,8.62-3.33,25.25-3.33,25.25l10.58,10.88S157.37,206.06,159,200.77Z"/><path class="cls-8" d="M155,154.51c1.35,1.44.69,5.76.45,7.56-.3,2.27-1.06,4.38-1.66,3.17s-.76-10.12-.76-10.12a36.87,36.87,0,0,1-2,5.59c-.52.94-3.18,1.36-1.82-1.81S152.54,151.94,155,154.51Z"/><path class="cls-8" d="M148.46,154.66a6.45,6.45,0,0,1,4.08-1.66c2.87-.3,5.89,3.33,5.89,3.33s-.11,2.44-.15,3.17c-.55-.22-1.6-.91-2.87-1.36-2.57-.91-6.16-.15-7.71-1.21C148,156,148.46,154.66,148.46,154.66Z"/><path class="cls-7" d="M164,150.28c-.76.91-2.27,2.87-3.18,4.08s-2.49,3.13-2.49,3.13a32.35,32.35,0,0,0-4.31-1.32c-2.57-.6-5.65.28-6.1,0s-3.42-6-3.12-7.53,6-2.72,7.1-2.72,6.09,0,7.56.9A26.85,26.85,0,0,1,164,150.28Z"/><path class="cls-8" d="M165.54,148.92c-.63.75-1.53,1.39-2.42,2.57-1-1.68-1.82-3.56-4.08-4.23a36.06,36.06,0,0,1-3.88-1.27c1.69.1,4.44-1,5.24-.55C163.12,147.1,165.54,148.92,165.54,148.92Z"/><path class="cls-8" d="M151.93,145.9h.74a38,38,0,0,0-5,3c-.87.78-1.12,1.91-2.19,2.53a6.67,6.67,0,0,1-.68-2.83C145.13,147.1,150.87,145.9,151.93,145.9Z"/><path class="cls-9" d="M153.9,145.59s-6.56-4.74-10.13-10.43c-4.08-6.5-3.63-9.67-3.63-9.67a1.49,1.49,0,0,0-.91.9c-.3.76-1.36,3-1.36,3-.45,19.45-.48,19.47-1.05,22.07a31.92,31.92,0,0,1-1.67,5.14,21.57,21.57,0,0,0,5.6-2.72c4.38-3.33,4.83-5.9,7.25-6.5S153.9,145.59,153.9,145.59Z"/><path class="cls-9" d="M152.67,145.9c.61-1.06,3.8-2,6.37-3.18a105.71,105.71,0,0,0,15.57-10.58c4.84-4.08,8.62-8.62,10.43-14.36a16.94,16.94,0,0,1,1.81,4.38,35.38,35.38,0,0,0,1.67,5s.15,10.13-1.82,14.21-4.38,9.37-4.53,11.49-.76,6.8-.76,6.8-6.5-1.81-9.22-3.93-6.48-6.29-9.36-7.81S152.67,145.9,152.67,145.9Z"/><path class="cls-10" d="M156.72,144.86c1.48-.66,2.89-1.42,4.28-2.21s2.73-1.64,4.05-2.51c2.65-1.76,5.19-3.65,7.65-5.65.62-.49,1.23-1,1.84-1.51s1.21-1,1.81-1.55,1.21-1.06,1.78-1.58,1.11-1.07,1.64-1.64a36.73,36.73,0,0,0,3-3.68,39.81,39.81,0,0,0,2.54-4.07,16.09,16.09,0,0,1-.66,2.35,23.76,23.76,0,0,1-.94,2.28,25.75,25.75,0,0,1-2.56,4.23,22.72,22.72,0,0,1-1.61,1.92c-.29.32-.57.6-.86.89l-.88.85c-.58.57-1.19,1.12-1.8,1.66s-1.23,1.06-1.87,1.58a50,50,0,0,1-8.16,5.42,40.77,40.77,0,0,1-4.48,2c-.77.27-1.55.53-2.34.74A16.44,16.44,0,0,1,156.72,144.86Z"/><path class="cls-10" d="M139.54,127.75a27.7,27.7,0,0,0,1.86,4.79c.37.75.77,1.48,1.2,2.18.21.36.44.71.66,1.05s.47.7.7,1c1,1.27,2.13,2.5,3.27,3.78a52.23,52.23,0,0,1,3.37,4,15.32,15.32,0,0,1-2.4-1.19A23.11,23.11,0,0,1,146,141.9a22.21,22.21,0,0,1-2-1.75,12.61,12.61,0,0,1-.94-1,13.3,13.3,0,0,1-.86-1.09,12.73,12.73,0,0,1-.74-1.18c-.23-.39-.43-.8-.63-1.21a16.7,16.7,0,0,1-.94-2.56,13.59,13.59,0,0,1-.47-2.67A8.72,8.72,0,0,1,139.54,127.75Z"/><path class="cls-11" d="M97.81,148.31c-3.63,1.82-8.61,5.9-10.88,9.53s-6.62,9.69-10,27.57c-2.21,11.6-6,20.44-8,28.67-1.67,6.93-6.06,18.59-6.51,21.76s1.86,22.48,3.68,27.92,2.21,5.64,12.65,2.47,18.59-8.17,22.67-16.33,4.08-20,5-26.3-1.36-21.32-4.53-30.84-5.45-22.22-5.45-30.39A69.13,69.13,0,0,1,97.81,148.31Z"/><path class="cls-12" d="M82.44,221c8.16-5,11.29-6.06,7.21-11.5S76.5,200,80.13,198.2s17.68,8.62,13.6,1.81-12.7-6.8-9.07-9.07,10.43,6.35,11.34,5.45-3.18-10.89-2.27-19a118,118,0,0,1,2.72-14.92c0,8.16,2.28,20.83,5.45,30.34s5.44,24.49,4.53,30.84-.91,18.14-5,26.3c-2.83,5.65-7.61,9.78-13.75,12.84-5.38-6.07,7.12-26.15,3.77-31-4.08-5.9-12.24-1.81-17.23.91S74.28,226,82.44,221Z"/><path class="cls-11" d="M137.87,129.42s-14.66,8.92-18.74,9.82-18.6,7.71-21.32,9.07-2.72,8.17-3.17,16.78,2.27,20.41,4.08,30.84,5.9,23.13,5.9,29.93c0,0-5.45,30.84-6.35,38.1s-1.62,34-3.7,47.5c-6.81,44.29-4.26,149-4.26,149s10.81,5.11,17.68,5.11c7.09,0,23.2.85,30.86.85s27.26,5.11,53.65,5.11a227.44,227.44,0,0,0,47.69-5.11s-6-106.45-10.13-141.22c-1.47-12.24-5.72-40.86-7.08-49.93s-8.16-49-7.25-59.87.45-32.65,3.63-38.54,18.14-19.51,18.14-19.51-7.71-8.61-12.25-11.33-15.42-7.71-19.5-10-13.6-8.16-13.6-8.16-11.34,21.31-15,25.39S162.26,170.57,156.32,181c-7.26,12.7-9.07,21.77-9.07,21.77a148.1,148.1,0,0,0-3.18-28.58c-3.17-14.06-5.89-30.38-5.89-30.38Z"/><path class="cls-13" d="M95.92,299.53c.85-14.19.4-28.72,1.31-36s7.39-37.69,7.39-37.69c0-4-1.43-10.1-3-16.56,1.1-2.61,1-8.56.7-14.73-.45-9.07-.45-26.3,1.81-31.74s.46,15.87,2.27,26.3,5,8.62,7.26,5.44,9.52,10.89,10.43,16.78,4.53,14.06,7.25,14.51,6.35,1.37,10.43,2.27,12.7,0,19-2.72S171.28,210,174,205s11.34-16.32,10.44-8.16,3.17,5,5.44,0,7.73-22,12.24-29c9.07-14.06,13.15-14.06,13.15-14.06a162,162,0,0,0-10,15.87c-5,9.07-7.26,23.13-7.26,23.13s5-15.42,9.52-20.86a16.15,16.15,0,0,1,5.45-4.54c-8.62,10-11,30.28-7.71,38.55,1.23,3.07,6.21-6.35,11.55-14.3-.53,8.22-.61,17.73-1.12,23.82-.91,10.89,5.89,50.8,7.25,59.87s4.94,37.79,7.08,49.93c3.89,22.09,10.13,141.22,10.13,141.22s-2.55-23-8.51-57.05c-10-57.2-10.22-91.12-28.11-92.83-19.58,0-55.39-1.71-79.19-8.51C118.42,306.35,111.25,298.68,95.92,299.53Z"/><path class="cls-12" d="M147.7,309.16c.3-9.07.91-40.51.6-49.89s-1.51-38.7-1.51-38.7-3.63-16-6.65-22.37-11.51-22.08-14.51-27.81a23.9,23.9,0,0,0-9.37-9.38l4.23-6.35h-8.77a106.3,106.3,0,0,1,16.33-19.35,47.26,47.26,0,0,0,9.82-5.89l.31,14.36s2.72,16.32,5.89,30.38a148.1,148.1,0,0,1,3.18,28.58s.82-6.27,8.08-19c5.94-10.39,17.77-24.83,21.4-28.91s15.42-27,15.42-27,2.63,1.63,5.72,3.5l7.88,20.53s-4.54-1.21-6.65-.91a49.74,49.74,0,0,0-7.26,2.42l3.93,9.07s-10.58,9.38-13.6,12.7-17.54,22.38-20,25.1-10.58,17.53-11.49,20a31.48,31.48,0,0,0-1.81,15.42c.91,7.86.91,57.14.91,62.59,0,5.1,2,165.1,1.74,169.59l-2.41-.15C149.34,464.09,147.42,317.57,147.7,309.16Z"/><path class="cls-11" d="M188.21,122.61a29.85,29.85,0,0,1,4.54,2.73,43.32,43.32,0,0,1,5.12,6.07l6.07,15.39s-10.59,1.51-12.1,2.72l.91,10s-10,10-16.33,15.42-13,14.21-17.23,20.86S146.8,221.3,146.8,221.3s-.91-15.24,1.2-25.22,26-37.49,31.14-46.56,6.35-10.28,7.26-16.63a48.08,48.08,0,0,0,.45-10.73Z"/><path class="cls-11" d="M146.79,220.57s1.82-26.9,0-37.79-6-28.12-7.25-32.95-2.12-19.35-1.67-20.41,2.27-3.93,2.27-3.93-3.93,2.26-6,3.78-17.84,20.25-19.66,23c0,0,8.17-.6,9.38,0s-5.15,7.26-5.15,7.26,4.84,1.21,8.77,7.56,10.89,21.16,13.31,27.51S146.79,220.57,146.79,220.57Z"/><path class="cls-14" d="M96.21,286.19c4.44.92,10.2.66,14.67,1.16a140.27,140.27,0,0,0,17.51.41,44.51,44.51,0,0,0,.18,5.53c1,1.35,5.38,1.71,9.08,2.55,9.17,2.08,60,12.77,70.38,10.68,5.26-1,12-5.72,17.68-11.26-1.13-8.38-2.13-16-2.73-20-.89-6-4.15-25.33-6-41-15.72.13-36.51.75-44.38,3-13.34,3.76-50.87,12.09-65,9.17-2.26-.46-4.37-.84-6.3-1.15-1.31,7.68-2.58,15.44-3,18.63A199.72,199.72,0,0,0,96.21,286.19Z"/><path class="cls-11" d="M185.34,239.47c2.72.91,14.12,7.2,16.78,10.43,6.35,7.71,15,10.89,18.6,20s5.44,11.79,2.26,15.42-30.38,9.07-54,3.62c-12.58-2.9-36.74-5.44-36.74-5.44s-4.08-7.25-3.17-18.59,7.25-25.4,7.25-25.4,15.42-.91,22.68-.45S185.34,239.47,185.34,239.47Z"/><path class="cls-14" d="M136.36,239.47s15.42-.91,22.68-.45,26.3.45,26.3.45c-8.16,7.43-18,14.52-24.84,14.52-1.75,0-5.32,2.69-9,3.82-3.8,1.17-4.71,3.89-8.71,5.55-6.67,2.79-12.56,2.29-15.38.93C129.48,254.67,136.36,239.47,136.36,239.47Z"/><path class="cls-15" d="M125.89,231.64s-5.82-11.33-10.26-17.66-5.14-7-9.59-10.33-10.6-7.66-11.63-6,2,5.33,2,5.33,6.85,5,8.22,7.33a40.26,40.26,0,0,1,2.39,5,84.68,84.68,0,0,0-6.16-7.32c-2.39-2.34-4.45-3-6.5-4.34s-6.7-3.81-7.53-2.33c-1.18,2.12,1.45,4.05,3.51,5.38s6.76,5,8.13,7l3.42,5s-5.48-5.67-7.53-7.33a28.49,28.49,0,0,0-4.73-3.06c-.43-.25-2.72-1.55-3.41-1.84-2-.86-3.36.89-2.41,2.55,2.41,4.26,5.42,5,7.47,6.68s5.82,5.66,5.82,5.66-3.42-1-4.79-2.33-5.82-5-5.82-3a8.11,8.11,0,0,0,2.74,5.66c1.71,1.67,6.16,5.67,6.16,5.67S120.42,227.64,125.89,231.64Z"/><path class="cls-4" d="M125.89,231.64l-.81-1.55c-4-1.47-11.86-3.7-14.51-4.62A46.34,46.34,0,0,0,99.32,223c-4.3-.41-7.51-1.39-8.76-2.37a28,28,0,0,1-4-4.8.9.9,0,0,0,0,.18,8.11,8.11,0,0,0,2.74,5.66c1.71,1.67,6.16,5.67,6.16,5.67S120.42,227.64,125.89,231.64Z"/><path class="cls-14" d="M140.9,232.67c5,7.71,3.63,27.21-1.36,38.09-3,6.52-4.18,7-5.8,5.21-4.26-4.82-7.6-12.42-4.63-28.34C131.13,236.78,138.23,228.55,140.9,232.67Z"/><path class="cls-15" d="M140,234.33s14.43-3.59,21-5.62,16.29-9.29,24.28-8.34,24.09,8,24.09,8l-9.08,15.57s-10.16-6.17-14.93-4.44-20.71,10-24.73,10.69-12.14,4.36-12.14,4.36S138.51,239.19,140,234.33Z"/><path class="cls-4" d="M144.89,248.51a9.09,9.09,0,0,1,1.84-1.52c9.16-5.69,17.08-6,22.22-8.27s10.63-8.72,11.67-10.19c5.38-5.75,8-6.18,9.81-6,8,.94,17.48,10.83,17.48,10.83l-12.83,8.65s-5.75-5.74-17.24.93c-4.38,2.55-13.21,6.5-17.23,7.18s-12.14,4.36-12.14,4.36S146.78,251.91,144.89,248.51Z"/><path class="cls-9" d="M155.63,228.92s-2.37,5,.12,17c.65,3.14,1.29,7.6,1.29,7.6a31.43,31.43,0,0,1-4.94,2.53c-1.46.4-5,1.45-5,1.45s-3.34,4.71-5.5,5.53-15.72,5-15.72,5-11.4-23.83-10.44-29.05,13.4-7.79,13.4-7.79,9.54-.7,11.48-.11S155.63,228.92,155.63,228.92Z"/><path class="cls-6" d="M138,230.93l-.25-.11c-3.5,0-8.88.34-8.88.34s-12.44,2.57-13.4,7.79S125.91,268,125.91,268s6.15-1.88,10.83-3.36a35.49,35.49,0,0,1-2.09-9.4C132.56,238.15,138,230.93,138,230.93Z"/><path class="cls-11" d="M137.75,230.82s-6.83,0-12.73-.42-17.68-4.08-20.4-4.54S90.79,225,83,228c-18.17,7-17.75,14.37-18.17,19.73-.47,5.88-.25,15.45,1.56,18.17s9.19,8.5,13.73,8.95,30.56,1.87,35.63,1.87c9.82,0,19.83.18,19.83.18s-3.15-2-4.08-16.31C130.9,251.07,133.67,231.27,137.75,230.82Z"/><path class="cls-11" d="M237.5,157.38a38.37,38.37,0,0,0-16.78,8.17c-8.17,6.8-17.24,20.86-20.41,26.75a159.5,159.5,0,0,0-8.62,19c-1.36,4.08-1.81,9.53-2.27,14.51s-1,8.22-2.72,11.34c-2,3.74-5.24,7.17,2.27,7.26,3.9,0,5.44,11.79,6.8,16.78s11.79,23.58,16.33,24.94,5.9,3.63,10.88-.9,12.7-24,18.14-43.09,6.35-40.36,5-54.87S243.85,161.92,237.5,157.38Z"/><path class="cls-13" d="M208,237.66c3.63-4.08,14.06,16.78,14.51,8.16s-8.62-13.15-8.16-19,14.06,2.27,19,5,7.71-27.66,8.62-39.46c.76-9.84-2-25.7-2.09-32.51,4.17,5.41,5,15.14,6.17,27.53,1.36,14.51.46,35.82-5,54.87S227.3,280.1,223,285.28c-2.26,2.72-6.11,4.2-10.78,5-2.72.45-13.58,2.23-15.07.46,10.89-2.72,19.12-7.67,19.5-15C217.09,267.13,204.39,241.74,208,237.66Z"/><path class="cls-16" d="M147.54,209.9a22.81,22.81,0,0,1,.07-6.12,44.53,44.53,0,0,1,1.21-6c.54-2,1.19-3.94,1.92-5.86q.56-1.44,1.17-2.85c.41-.94.85-1.89,1.31-2.81a72.3,72.3,0,0,1,6.56-10.49c1.22-1.65,2.5-3.25,3.8-4.83s2.65-3.11,4-4.63,2.68-3,3.9-4.55c.31-.38.6-.76.88-1.14s.5-.72.82-1.2c.59-.88,1.19-1.71,1.82-2.53q1.86-2.44,3.77-4.8c1.26-1.58,2.53-3.15,3.78-4.73s2.46-3.17,3.6-4.8c.57-.81,1.12-1.64,1.61-2.47.25-.42.49-.84.7-1.27.1-.21.19-.42.28-.64l.29-.7c.77-1.88,1.56-3.73,2.16-5.63a12.49,12.49,0,0,0,.6-2.89,7.35,7.35,0,0,0-.31-3,7.4,7.4,0,0,1,.82,3,13.49,13.49,0,0,1-.21,3.11,55.7,55.7,0,0,1-1.51,5.95l-.22.73c-.08.25-.17.52-.26.77q-.29.77-.63,1.47c-.45,1-.95,1.86-1.47,2.76-1,1.78-2.18,3.48-3.34,5.16-2.32,3.36-4.79,6.59-7.11,9.85-.57.82-1.15,1.63-1.67,2.44l-.41.64c-.15.23-.3.46-.46.68-.31.45-.63.87-1,1.29-1.3,1.64-2.64,3.17-4,4.7s-2.67,3-4,4.55-2.58,3.07-3.82,4.63a86.28,86.28,0,0,0-6.76,9.81c-.49.86-1,1.72-1.43,2.61s-.9,1.78-1.34,2.68c-.86,1.8-1.66,3.63-2.38,5.49a56.78,56.78,0,0,0-1.86,5.71c-.25,1-.47,2-.64,2.94A19,19,0,0,0,147.54,209.9Z"/><path class="cls-17" d="M90.31,460.49s2.56,3.41,13.63,5.11a112.53,112.53,0,0,0,24.77,1c5-.23,10.14-.14,12.92-.28-2-4.26-8.76-55.37-11.29-70.54-3.89-23.35-6.15-51.76-6.15-51.76S105,325.54,100.53,320c-2.19-2.74-6.51,28.93-6,54.5C95.08,398,90.11,453.84,90.31,460.49Z"/><path class="cls-16" d="M185.21,242.14c4.82-6.82,5.11-18.17,6.53-25.84s6.53-18.73,10.22-26.11a93.62,93.62,0,0,1,15.33-22.14c6.24-6.53,13.05-9.37,13.34-7.67s-5.68,4.54-11.93,14.76-14.19,24.7-9.65,24.42,15,12.49,14.76,18.16-2.83.29-11.63,2-3.13,3.41-.86,7.38,4.26,10.22-1.42,6.53-11.07-9.08-12.77-4.83-.85,10.22.85,15.9-13.06,6-19.87,5.68C173.85,250.19,185.21,242.14,185.21,242.14Z"/><path class="cls-16" d="M148,281.59c.85-.28,16.47,3.13,22.71,4.83s36.05,5.39,39.46-6-4.54.57-13.91,1.42S148,281.59,148,281.59Z"/><path class="cls-16" d="M62.57,237.45s-.14-3.69,2.42-9.93c2.21-5.4,5.68-15.9,6.1-19.16s3-9.94,3.83-13.63,3.84-16.89,5-20.86,5-12.5,6.81-14.34A12.92,12.92,0,0,1,90.11,157s-2.55,3.83-2.84,6.52,2.27,15.05,3.55,19.17,4.54,8.94,0,7-8.66-4.68-9.51-2.84-1.7,4.4.57,6.1,8,4.4,4.54,4.26-7.1-3.83-8.52-1.27-2.69,6.38.29,8.09,4.54,1.13,3.69,4.11,2,1.28.42,4.4-7.66,3.83-10.64,8.09S63.43,234.19,62.57,237.45Z"/><path class="cls-16" d="M70,237.31s12.06-7.66,16.89-9.08,12.91-1.71,15.89-1.14,11.64,3,15.05,3.55,12.91,1.42,12.91,1.42l4.83-.57s-3.41,5.39-3.83,7.95-.29,4.83-2.56,3-14.25-5.75-18.88-6.39c-8.23-1.13-15.32,5.26-19.3,6.53s-.14-6.1-4.54-5.39S61.3,247.53,70,237.31Z"/><path class="cls-6" d="M166.83,210.66c0,4.88,3.5,8.84,7.82,8.84s7.83-4,7.83-8.84-3.51-8.85-7.83-8.85S166.83,205.77,166.83,210.66Z"/><path class="cls-18" d="M165.7,210c0,4.89,3.5,8.85,7.82,8.85s7.82-4,7.82-8.85-3.5-8.84-7.82-8.84S165.7,205.09,165.7,210Z"/><path class="cls-6" d="M166.38,209.32c0,3.14,2.24,5.67,5,5.67s5-2.53,5-5.67-2.25-5.67-5-5.67S166.38,206.19,166.38,209.32Z"/><path class="cls-18" d="M167.51,209.32a3.91,3.91,0,1,0,3.88-4.38A4.16,4.16,0,0,0,167.51,209.32Z"/><path class="cls-18" d="M175.45,202l-.11-7.8s-1.64-.67-2.32.47,0,6.58,0,6.58S173.18,203.17,175.45,202Z"/><path class="cls-6" d="M174.09,196.82a1.35,1.35,0,0,0,1.36-1.29c0-.15.46-14.89,1.57-22.72,1-6.78,4.58-21.74,7.61-28.52.42-.93.85-1.83,1.27-2.72,2.92-6.1,5.67-11.87,1.94-22-.26-.69-1.79-3.3-2.49-3s.3,3.34.55,4c3.36,9.12.32,14.08-2.46,19.91-.44.91-.88,1.84-1.3,2.79-3.23,7.22-6.84,22.37-7.81,29.21-1.13,8-1.58,22.4-1.6,23a1.34,1.34,0,0,0,1.32,1.37Z"/><path class="cls-18" d="M110.49,205c1.57.35,3.21.62,4.64.84.68.11,1.31.21,1.83.31a49.26,49.26,0,0,0,6,.7L123,205a45.57,45.57,0,0,1-5.75-.67l-1.88-.31c-3-.48-8.09-1.29-9.51-2.82-1.66-1.8-.15-9.79.84-15.08,1.13-6,4.29-17.8,4.32-17.92l-1.75-.47c0,.12-3.21,12-4.35,18-1.51,8-2.5,14.37-.39,16.65C105.7,203.69,108,204.46,110.49,205Z"/><path class="cls-18" d="M103,205.83s2.77-.34,7.45-.6c1-.06,1.89-.09,2.73-.12,3.26-.1,5.62-.18,8.36-1.61,1.57-.81,3.5-4,4.52-6.51a91.59,91.59,0,0,0,2.8-8.74c.33-1.14.61-2.15.85-2.9,1.3-4.06,3.11-16.3,3.18-16.82l-1.79-.26c0,.12-1.86,12.61-3.12,16.52-.24.77-.53,1.8-.86,3-.74,2.6-1.66,5.85-2.74,8.55s-2.82,5.14-3.67,5.58c-2.38,1.24-4.45,1.31-7.59,1.41-.85,0-1.77.06-2.77.12-4.76.26-7.47.6-7.58.62Z"/><path class="cls-6" d="M126.38,209.07a2.89,2.89,0,0,0,2.85-1.34c.75-.85.05-3.18-1.26-3.76s-2.51,0-3.64-.09-1.9,1-2.25,2.3a2.75,2.75,0,0,0,.48,2.32Z"/><path class="cls-6" d="M99.64,207.19A2.89,2.89,0,0,1,96.71,206c-.81-.79-.26-3.17,1-3.83s2.5-.16,3.63-.33,2,.84,2.39,2.15a2.77,2.77,0,0,1-.32,2.35Z"/><path class="cls-18" d="M133.38,166.87s-.51,7-1,7.9a1.66,1.66,0,0,1-2.93-.57c-.39-1.6,1.2-7.44,1.2-7.44A5.2,5.2,0,0,1,133.38,166.87Z"/><path class="cls-18" d="M112.3,166.05a24.35,24.35,0,0,1-2.07,6.72c-.7.43-3,.12-2.68-1.24.85-4.27,2.27-5.81,2.27-5.81S111.43,165.1,112.3,166.05Z"/><path class="cls-6" d="M110.4,168a1.35,1.35,0,0,0,1.55-.82c0-.09,3.58-8.81,7.19-12.15a8.76,8.76,0,0,1,6.75-2,5.1,5.1,0,0,1,3.81,2.65c2.68,4.82.68,13.5.66,13.58a1.37,1.37,0,0,0,1,1.64h0a1.37,1.37,0,0,0,1.62-1c.09-.4,2.26-9.8-.93-15.53a7.78,7.78,0,0,0-5.76-4,11.34,11.34,0,0,0-9,2.72c-4.06,3.76-7.71,12.75-7.86,13.14a1.37,1.37,0,0,0,.75,1.77A.79.79,0,0,0,110.4,168Z"/><path class="cls-6" d="M126.91,153l.15-1.34c0-.1.38-2.6,3.3-9.36a67.4,67.4,0,0,1,8.71-14.66c1.66-2.36,1.55-4,.87-3.47-2.33,1.79-7.62,6.7-12.08,17-3.14,7.26-3.48,9.87-3.51,10.14l-.14,1.36Z"/><path class="cls-4" d="M130.88,83.11s-1.68-4.06-3.59-3.42-2.05,4.8-1.47,7.88,1.73,4.91,2.43,7.81a40.41,40.41,0,0,0,1.51,5.62c.62,1.52,2.77.52,2.77.52a28,28,0,0,0-.21-5.52c-.4-4.48-.39-10.71-.39-10.71Z"/><path class="cls-5" d="M130.17,86.44s-1.48-3-2.37-2.63-1,3-.65,4.2.07-.87.71-1.09,1.53,1.64,1.53,1.64-1.57-.25-1.32,1.81a4.68,4.68,0,0,0,1.23,3c.57.83,0-.17.3-1.4a.9.9,0,0,1,1.4-.61S131.19,88.11,130.17,86.44Z"/><path class="cls-15" d="M146.94,41.75c-2.71,1-11.66,4.92-15,13s-3.37,24.61-2.07,29.53,0,15.29,4.4,26.43c2.14,5.42,8.91,10.33,11.66,14,3.89,5.18,16.58,4.93,22.28,2.85s8.56-8.29,10.89-11.14,7-10.62,7.25-16.84,0-20.73.26-25.39.78-22-8.81-29S150.31,40.46,146.94,41.75Z"/><g class="cls-19"><path class="cls-15" d="M133.47,100.58a9.79,9.79,0,0,1-.22-6.15,13,13,0,0,1,2.48-4.77c2-2.39,6.77-3,9.69-1.61,3.7,1.72,6.73,5.1,4,8.23s-5.88,5.75-8.86,6.59S135,104.44,133.47,100.58Z"/><path class="cls-20" d="M135.83,89.65c2-2.33,6.67-2.9,9.54-1.56s5.24,3.59,4.95,6a3.83,3.83,0,0,1-1,2.12c-.4.45-.81.9-1.23,1.32-2.4,2.45-5,4.4-7.51,5.1-2.93.82-5.49,1.52-7-2.24a9.54,9.54,0,0,1-.25-6A12.62,12.62,0,0,1,135.83,89.65Z"/><path class="cls-21" d="M135.93,89.64c1.95-2.27,6.58-2.84,9.4-1.51s5.14,3.54,4.87,5.88a3.77,3.77,0,0,1-1,2.08c-.4.45-.81.88-1.22,1.3-2.36,2.37-4.93,4.29-7.4,5-2.89.8-5.4,1.48-6.87-2.19a9.28,9.28,0,0,1-.27-5.93A12.43,12.43,0,0,1,135.93,89.64Z"/><path class="cls-22" d="M136,89.63c1.94-2.21,6.48-2.77,9.25-1.46s5.05,3.48,4.8,5.78a3.59,3.59,0,0,1-1,2c-.38.44-.79.86-1.2,1.26-2.33,2.3-4.85,4.18-7.29,4.83-2.85.78-5.31,1.43-6.78-2.14a8.94,8.94,0,0,1-.29-5.81A11.87,11.87,0,0,1,136,89.63Z"/><path class="cls-23" d="M136.13,89.63c1.93-2.16,6.38-2.71,9.11-1.42s5,3.43,4.72,5.68a3.59,3.59,0,0,1-.94,2c-.38.43-.78.83-1.19,1.23-2.29,2.23-4.77,4.06-7.18,4.7-2.81.75-5.22,1.38-6.68-2.11a8.6,8.6,0,0,1-.32-5.69A11.45,11.45,0,0,1,136.13,89.63Z"/><path class="cls-24" d="M136.23,89.62c1.92-2.1,6.28-2.65,9-1.37s4.87,3.37,4.65,5.58a3.4,3.4,0,0,1-.91,2c-.38.42-.77.82-1.18,1.2-2.25,2.16-4.69,3.95-7.07,4.57-2.77.73-5.13,1.33-6.59-2.06a8.29,8.29,0,0,1-.33-5.58A11,11,0,0,1,136.23,89.62Z"/><path class="cls-25" d="M136.33,89.61c1.91-2,6.18-2.58,8.82-1.32s4.77,3.32,4.57,5.48a3.35,3.35,0,0,1-.89,2c-.36.41-.76.79-1.15,1.17-2.22,2.08-4.62,3.83-7,4.43-2.73.71-5.05,1.29-6.5-2a8,8,0,0,1-.35-5.46A10.71,10.71,0,0,1,136.33,89.61Z"/><path class="cls-26" d="M136.43,89.61c1.9-2,6.08-2.52,8.67-1.28s4.69,3.26,4.51,5.38a3.25,3.25,0,0,1-.87,1.91,15.33,15.33,0,0,1-1.14,1.14c-2.19,2-4.55,3.72-6.86,4.31-2.69.68-5,1.23-6.4-2a7.74,7.74,0,0,1-.38-5.35A10.27,10.27,0,0,1,136.43,89.61Z"/><path class="cls-26" d="M136.54,89.6c1.88-1.93,6-2.46,8.52-1.24s4.59,3.22,4.43,5.29a3.18,3.18,0,0,1-.84,1.88c-.36.39-.74.76-1.13,1.11-2.15,1.94-4.47,3.6-6.75,4.17-2.65.66-4.87,1.19-6.31-1.93a7.48,7.48,0,0,1-.4-5.23A9.82,9.82,0,0,1,136.54,89.6Z"/><path class="cls-27" d="M136.64,89.59c1.86-1.87,5.88-2.39,8.38-1.19s4.49,3.16,4.35,5.19a3.08,3.08,0,0,1-.82,1.85,12.49,12.49,0,0,1-1.11,1.07,17,17,0,0,1-6.64,4c-2.6.64-4.79,1.15-6.22-1.88a7.2,7.2,0,0,1-.42-5.12A9.69,9.69,0,0,1,136.64,89.59Z"/><path class="cls-28" d="M136.74,89.59c1.85-1.83,5.78-2.33,8.23-1.15s4.41,3.11,4.28,5.09a3,3,0,0,1-.79,1.81,12,12,0,0,1-1.09,1,17.08,17.08,0,0,1-6.54,3.91c-2.56.61-4.7,1.09-6.13-1.84a7,7,0,0,1-.44-5A9.27,9.27,0,0,1,136.74,89.59Z"/><path class="cls-29" d="M136.84,89.58c1.84-1.77,5.68-2.27,8.09-1.1s4.31,3.06,4.2,5a2.87,2.87,0,0,1-.76,1.78,11.43,11.43,0,0,1-1.08,1,16.7,16.7,0,0,1-6.44,3.78c-2.51.59-4.61,1-6-1.79a6.75,6.75,0,0,1-.47-4.89A9,9,0,0,1,136.84,89.58Z"/><path class="cls-29" d="M136.94,89.57a7.9,7.9,0,0,1,7.94-1c2.32,1.14,4.23,3,4.13,4.89a2.72,2.72,0,0,1-.74,1.74,9.94,9.94,0,0,1-1.06,1,16.68,16.68,0,0,1-6.33,3.64c-2.47.58-4.52,1-5.93-1.75a6.46,6.46,0,0,1-.49-4.77A8.75,8.75,0,0,1,136.94,89.57Z"/><path class="cls-30" d="M137,89.57a7.81,7.81,0,0,1,7.8-1c2.27,1.12,4.13,3,4,4.79a2.61,2.61,0,0,1-.71,1.71,9.48,9.48,0,0,1-1.05,1,16.66,16.66,0,0,1-6.22,3.52c-2.43.55-4.44,1-5.84-1.71a6.23,6.23,0,0,1-.51-4.65A8.43,8.43,0,0,1,137,89.57Z"/><path class="cls-31" d="M137.14,89.56a7.7,7.7,0,0,1,7.65-1c2.23,1.1,4.05,2.89,4,4.69a2.6,2.6,0,0,1-.68,1.68,8.34,8.34,0,0,1-1,.92,16.46,16.46,0,0,1-6.11,3.38c-2.39.53-4.36.91-5.74-1.66a5.94,5.94,0,0,1-.54-4.54A8.11,8.11,0,0,1,137.14,89.56Z"/><path class="cls-31" d="M137.24,89.55a7.64,7.64,0,0,1,7.51-.91c2.18,1.09,3.95,2.84,3.9,4.59a2.41,2.41,0,0,1-.66,1.64,7.84,7.84,0,0,1-1,.89A16.43,16.43,0,0,1,141,99c-2.35.51-4.28.86-5.65-1.61a5.78,5.78,0,0,1-.56-4.43A7.94,7.94,0,0,1,137.24,89.55Z"/><path class="cls-32" d="M137.34,89.55a7.5,7.5,0,0,1,7.36-.87c2.14,1.07,3.87,2.78,3.84,4.5a2.45,2.45,0,0,1-.64,1.6,7,7,0,0,1-1,.86,16.12,16.12,0,0,1-5.9,3.11c-2.31.49-4.2.82-5.56-1.57a5.45,5.45,0,0,1-.57-4.3A7.64,7.64,0,0,1,137.34,89.55Z"/><path class="cls-33" d="M137.45,89.54a7.39,7.39,0,0,1,7.21-.82c2.1,1,3.77,2.73,3.76,4.4a2.3,2.3,0,0,1-.61,1.56,6.13,6.13,0,0,1-1,.83,16.19,16.19,0,0,1-5.79,3c-2.26.46-4.12.77-5.46-1.53a5.18,5.18,0,0,1-.6-4.19A7.3,7.3,0,0,1,137.45,89.54Z"/><path class="cls-34" d="M137.55,89.53a7.31,7.31,0,0,1,7.06-.77c2.06,1,3.69,2.68,3.69,4.3a2.21,2.21,0,0,1-.59,1.53,5.32,5.32,0,0,1-1,.79,16.11,16.11,0,0,1-5.68,2.86c-2.22.44-4,.72-5.37-1.48a5,5,0,0,1-.62-4.08A7.17,7.17,0,0,1,137.55,89.53Z"/><path class="cls-35" d="M137.65,89.53a7.19,7.19,0,0,1,6.92-.73c2,1,3.59,2.62,3.61,4.2a2.13,2.13,0,0,1-.56,1.5,5.46,5.46,0,0,1-1,.76A16.16,16.16,0,0,1,141.09,98c-2.18.42-4,.68-5.28-1.43a4.82,4.82,0,0,1-.64-4A6.89,6.89,0,0,1,137.65,89.53Z"/><path class="cls-36" d="M137.75,89.52a7.09,7.09,0,0,1,6.77-.68c2,1,3.51,2.57,3.54,4.1a2,2,0,0,1-.53,1.46,4.83,4.83,0,0,1-.94.73,16.27,16.27,0,0,1-5.47,2.6c-2.14.4-3.89.63-5.18-1.39a4.56,4.56,0,0,1-.67-3.85A6.69,6.69,0,0,1,137.75,89.52Z"/><path class="cls-37" d="M137.85,89.51a7,7,0,0,1,6.63-.63c1.92,1,3.42,2.51,3.46,4a1.91,1.91,0,0,1-.51,1.43,4.3,4.3,0,0,1-.92.7,16.28,16.28,0,0,1-5.36,2.46c-2.1.38-3.81.59-5.09-1.35a4.37,4.37,0,0,1-.69-3.73A6.52,6.52,0,0,1,137.85,89.51Z"/><path class="cls-38" d="M138,89.51a6.9,6.9,0,0,1,6.48-.59c1.88,1,3.33,2.46,3.39,3.9a1.86,1.86,0,0,1-.48,1.39,3.9,3.9,0,0,1-.91.67,16.15,16.15,0,0,1-5.25,2.33c-2.06.36-3.74.54-5-1.3a4.17,4.17,0,0,1-.71-3.62A6.42,6.42,0,0,1,138,89.51Z"/><path class="cls-39" d="M138.05,89.5a6.82,6.82,0,0,1,6.34-.54c1.83,1,3.24,2.41,3.31,3.8a1.77,1.77,0,0,1-.45,1.36,3.74,3.74,0,0,1-.9.64,16.75,16.75,0,0,1-5.14,2.2c-2,.33-3.67.49-4.9-1.26a4,4,0,0,1-.74-3.5A6.19,6.19,0,0,1,138.05,89.5Z"/><path class="cls-40" d="M138.15,89.49a6.72,6.72,0,0,1,6.19-.49c1.79.93,3.16,2.35,3.24,3.7a1.65,1.65,0,0,1-.43,1.33,3.27,3.27,0,0,1-.87.6,16.55,16.55,0,0,1-5,2.07c-2,.31-3.6.45-4.81-1.21a3.79,3.79,0,0,1-.76-3.39A6.06,6.06,0,0,1,138.15,89.49Z"/><path class="cls-41" d="M138.25,89.49A6.61,6.61,0,0,1,144.3,89c1.74.92,3.07,2.3,3.17,3.6a1.64,1.64,0,0,1-.41,1.29,3,3,0,0,1-.86.58,16.84,16.84,0,0,1-4.93,1.93c-1.93.29-3.52.41-4.72-1.17a3.59,3.59,0,0,1-.78-3.27A5.88,5.88,0,0,1,138.25,89.49Z"/><path class="cls-42" d="M138.35,89.48a6.53,6.53,0,0,1,5.91-.4c1.69.9,3,2.25,3.09,3.5a1.55,1.55,0,0,1-.38,1.26,3,3,0,0,1-.85.54,17.12,17.12,0,0,1-4.83,1.81c-1.88.27-3.45.36-4.61-1.13a3.39,3.39,0,0,1-.81-3.15A5.74,5.74,0,0,1,138.35,89.48Z"/><path class="cls-42" d="M138.46,89.47a6.41,6.41,0,0,1,5.75-.35c1.65.88,2.89,2.19,3,3.4a1.44,1.44,0,0,1-.36,1.22,2.45,2.45,0,0,1-.83.52,17.57,17.57,0,0,1-4.72,1.67c-1.84.25-3.38.33-4.52-1.08a3.19,3.19,0,0,1-.82-3A5.55,5.55,0,0,1,138.46,89.47Z"/><path class="cls-43" d="M138.56,89.47a6.3,6.3,0,0,1,5.61-.31c1.6.87,2.8,2.14,2.94,3.3a1.39,1.39,0,0,1-.33,1.19,2.2,2.2,0,0,1-.82.48,18,18,0,0,1-4.61,1.54c-1.8.23-3.31.29-4.43-1a3,3,0,0,1-.84-2.93A5.41,5.41,0,0,1,138.56,89.47Z"/><path class="cls-44" d="M138.66,89.46a6.21,6.21,0,0,1,5.46-.26c1.56.85,2.72,2.08,2.87,3.2a1.35,1.35,0,0,1-.3,1.16,2.46,2.46,0,0,1-.8.45,19.09,19.09,0,0,1-4.51,1.4c-1.76.21-3.24.25-4.34-1a2.85,2.85,0,0,1-.86-2.8A5.27,5.27,0,0,1,138.66,89.46Z"/><path class="cls-44" d="M138.76,89.45a6.13,6.13,0,0,1,5.32-.21c1.51.83,2.63,2,2.79,3.1a1.22,1.22,0,0,1-.28,1.12,1.88,1.88,0,0,1-.78.42,20.4,20.4,0,0,1-4.4,1.28c-1.72.18-3.18.2-4.24-1a2.69,2.69,0,0,1-.89-2.69A5.23,5.23,0,0,1,138.76,89.45Z"/><path class="cls-45" d="M138.86,89.45a6,6,0,0,1,5.17-.17,5.1,5.1,0,0,1,2.72,3,1.18,1.18,0,0,1-.25,1.09,1.8,1.8,0,0,1-.77.39,21,21,0,0,1-4.29,1.14c-1.67.17-3.12.17-4.15-.9s-1.07-2.12-.91-2.58C136.61,90.75,137.71,90,138.86,89.45Z"/><path class="cls-46" d="M139,89.44a5.91,5.91,0,0,1,5-.12,5.05,5.05,0,0,1,2.64,2.9,1.11,1.11,0,0,1-.22,1,1.59,1.59,0,0,1-.76.36,22.69,22.69,0,0,1-4.18,1c-1.63.15-3.05.14-4.06-.85s-1.07-2.06-.93-2.47C136.7,90.69,137.8,90,139,89.44Z"/><path class="cls-47" d="M139.06,89.43a5.86,5.86,0,0,1,4.88-.08,5.06,5.06,0,0,1,2.57,2.81,1,1,0,0,1-.2,1,1.55,1.55,0,0,1-.73.33,26.84,26.84,0,0,1-4.08.88c-1.59.12-3,.09-4-.82-1.17-1.09-1.09-2-1-2.34C136.8,90.63,137.89,90,139.06,89.43Z"/><path class="cls-47" d="M139.16,89.43a5.73,5.73,0,0,1,4.74,0,5.06,5.06,0,0,1,2.49,2.71,1,1,0,0,1-.17,1,1.4,1.4,0,0,1-.72.29,30.09,30.09,0,0,1-4,.75c-1.55.1-2.93.06-3.87-.77-1.19-1-1.09-1.91-1-2.23A5,5,0,0,1,139.16,89.43Z"/><path class="cls-48" d="M139.26,89.42a5.64,5.64,0,0,1,4.59,0A5.12,5.12,0,0,1,146.28,92a.93.93,0,0,1-.16.95,1.19,1.19,0,0,1-.7.27,38.58,38.58,0,0,1-3.86.61c-1.51.09-2.87,0-3.78-.72-1.21-1-1.1-1.85-1-2.12C137,90.52,138.08,89.9,139.26,89.42Z"/><path class="cls-49" d="M139.37,89.41a5.53,5.53,0,0,1,4.44.06A5.15,5.15,0,0,1,146.16,92a.88.88,0,0,1-.13.92,1.15,1.15,0,0,1-.69.23c-.93.09-2.34.43-3.75.49a5.69,5.69,0,0,1-3.68-.68c-1.24-1-1.11-1.78-1-2C137.07,90.46,138.17,89.86,139.37,89.41Z"/><path class="cls-50" d="M139.47,89.41a5.41,5.41,0,0,1,4.29.1A5.19,5.19,0,0,1,146,91.92a.82.82,0,0,1-.1.88,1,1,0,0,1-.68.2c-.88,0-2.26.32-3.64.36a6,6,0,0,1-3.59-.64c-1.27-.92-1.12-1.7-1-1.88C137.16,90.4,138.26,89.83,139.47,89.41Z"/><path class="cls-51" d="M139.57,89.4a5.32,5.32,0,0,1,4.15.15,5.21,5.21,0,0,1,2.2,2.31c.12.37.12.67-.08.85a.91.91,0,0,1-.65.17c-.84,0-2.19.2-3.54.22a6.63,6.63,0,0,1-3.5-.59c-1.3-.86-1.12-1.63-1.06-1.77A5,5,0,0,1,139.57,89.4Z"/><path class="cls-52" d="M139.67,89.39a4.81,4.81,0,0,1,6.13,2.41c.13.36.13.65-.05.82a.84.84,0,0,1-.64.13c-.79,0-2.12.09-3.43.1a7.25,7.25,0,0,1-3.4-.55c-1.34-.81-1.13-1.57-1.09-1.65A5,5,0,0,1,139.67,89.39Z"/><path class="cls-53" d="M139.77,89.39a5.07,5.07,0,0,1,3.86.24,5.34,5.34,0,0,1,2.05,2.11c.14.35.15.63,0,.78a.77.77,0,0,1-.63.11c-.75-.1-2,0-3.32,0a8.26,8.26,0,0,1-3.31-.5c-1.37-.74-1.13-1.5-1.11-1.54A5.21,5.21,0,0,1,139.77,89.39Z"/><path class="cls-54" d="M137.39,90.45a6.24,6.24,0,0,1,2.48-1.07,5,5,0,0,1,3.71.29,5.5,5.5,0,0,1,2,2c.27.58.1,1-.61.82a26.31,26.31,0,0,0-3.21-.17,9.64,9.64,0,0,1-3.22-.45C137.12,91.21,137.39,90.45,137.39,90.45Z"/></g><g class="cls-19"><path class="cls-15" d="M182.44,100.92a9.78,9.78,0,0,0,.44-6.14,13,13,0,0,0-2.3-4.86c-1.89-2.46-6.67-3.22-9.63-2-3.76,1.59-6.91,4.85-4.26,8.09s6.07,6,9,6.92S180.83,104.71,182.44,100.92Z"/><path class="cls-20" d="M171,88c-2.9,1.23-5.43,3.47-5.14,5.91a4,4,0,0,0,.93,2c.41.5.85,1,1.3,1.46a19.78,19.78,0,0,0,7.6,5.29c2.9.93,5,1.71,6.65-2a9.45,9.45,0,0,0,.45-6,12.71,12.71,0,0,0-2.3-4.77C178.6,87.5,173.91,86.76,171,88Z"/><path class="cls-21" d="M171,88c-2.86,1.21-5.34,3.41-5.07,5.8a3.92,3.92,0,0,0,.91,2,19.07,19.07,0,0,0,1.28,1.42,19.61,19.61,0,0,0,7.49,5.17c2.86.9,5,1.65,6.56-2a9.18,9.18,0,0,0,.48-5.91,12.37,12.37,0,0,0-2.31-4.68C178.5,87.55,173.9,86.82,171,88Z"/><path class="cls-22" d="M171.08,88.08c-2.81,1.2-5.24,3.36-5,5.7a3.75,3.75,0,0,0,.88,2c.4.49.83.95,1.27,1.4a19.42,19.42,0,0,0,7.38,5c2.82.88,4.88,1.6,6.48-1.92a9,9,0,0,0,.49-5.8,12,12,0,0,0-2.31-4.59C178.41,87.6,173.9,86.87,171.08,88.08Z"/><path class="cls-23" d="M171.12,88.12c-2.76,1.18-5.14,3.31-4.91,5.61a3.63,3.63,0,0,0,.86,1.94A18,18,0,0,0,168.32,97a19.31,19.31,0,0,0,7.27,4.89c2.78.85,4.81,1.55,6.39-1.88a8.6,8.6,0,0,0,.51-5.68,11.44,11.44,0,0,0-2.32-4.5C178.32,87.64,173.9,86.93,171.12,88.12Z"/><path class="cls-24" d="M171.17,88.16c-2.72,1.17-5,3.25-4.84,5.51a3.51,3.51,0,0,0,.84,1.91,14,14,0,0,0,1.23,1.33,19.06,19.06,0,0,0,7.16,4.76c2.74.83,4.73,1.5,6.3-1.84a8.34,8.34,0,0,0,.54-5.56,11.08,11.08,0,0,0-2.33-4.41C178.23,87.69,173.89,87,171.17,88.16Z"/><path class="cls-25" d="M171.21,88.2c-2.67,1.15-5,3.2-4.76,5.41a3.49,3.49,0,0,0,.81,1.88,16.61,16.61,0,0,0,1.22,1.3,18.85,18.85,0,0,0,7.05,4.62c2.7.81,4.65,1.45,6.22-1.79a8.11,8.11,0,0,0,.55-5.45A10.71,10.71,0,0,0,180,89.85C178.14,87.74,173.89,87,171.21,88.2Z"/><path class="cls-26" d="M171.25,88.24c-2.62,1.14-4.85,3.15-4.68,5.31a3.37,3.37,0,0,0,.79,1.85,12.86,12.86,0,0,0,1.19,1.26,18.71,18.71,0,0,0,6.95,4.49c2.66.78,4.58,1.4,6.13-1.75a7.73,7.73,0,0,0,.57-5.33,10.36,10.36,0,0,0-2.33-4.23C178.05,87.78,173.89,87.1,171.25,88.24Z"/><path class="cls-26" d="M171.3,88.28c-2.58,1.13-4.76,3.1-4.61,5.21a3.27,3.27,0,0,0,.76,1.82,13.71,13.71,0,0,0,1.18,1.23,18.82,18.82,0,0,0,6.84,4.36c2.62.75,4.5,1.34,6.05-1.72A7.48,7.48,0,0,0,182.1,94a9.92,9.92,0,0,0-2.33-4.14C178,87.83,173.88,87.16,171.3,88.28Z"/><path class="cls-27" d="M171.34,88.32c-2.53,1.11-4.67,3.05-4.52,5.12a3.11,3.11,0,0,0,.73,1.78,13,13,0,0,0,1.16,1.19,18.46,18.46,0,0,0,6.73,4.23c2.58.73,4.42,1.3,6-1.67a7.27,7.27,0,0,0,.61-5.1,9.62,9.62,0,0,0-2.34-4.05C177.87,87.87,173.88,87.21,171.34,88.32Z"/><path class="cls-28" d="M171.38,88.37c-2.48,1.09-4.57,3-4.44,5a2.93,2.93,0,0,0,.71,1.75,11.32,11.32,0,0,0,1.14,1.16,18.35,18.35,0,0,0,6.62,4.09c2.54.71,4.35,1.25,5.88-1.63a7,7,0,0,0,.62-5,9.31,9.31,0,0,0-2.34-4C177.78,87.92,173.87,87.27,171.38,88.37Z"/><path class="cls-29" d="M171.43,88.41c-2.44,1.07-4.48,2.94-4.37,4.91a2.88,2.88,0,0,0,.68,1.71,10,10,0,0,0,1.13,1.13,18.15,18.15,0,0,0,6.51,4c2.49.69,4.28,1.2,5.79-1.59a6.63,6.63,0,0,0,.64-4.86,8.92,8.92,0,0,0-2.34-3.87C177.7,88,173.87,87.33,171.43,88.41Z"/><path class="cls-29" d="M171.47,88.45c-2.39,1.06-4.38,2.89-4.29,4.81a2.73,2.73,0,0,0,.66,1.68A9.62,9.62,0,0,0,169,96a18,18,0,0,0,6.4,3.82c2.45.67,4.2,1.15,5.71-1.54a6.42,6.42,0,0,0,.65-4.75,8.64,8.64,0,0,0-2.34-3.78A7.88,7.88,0,0,0,171.47,88.45Z"/><path class="cls-30" d="M171.51,88.49c-2.34,1.05-4.28,2.83-4.21,4.71a2.66,2.66,0,0,0,.63,1.65,7.9,7.9,0,0,0,1.1,1.06,17.84,17.84,0,0,0,6.29,3.69c2.41.64,4.13,1.1,5.62-1.5a6.2,6.2,0,0,0,.68-4.63,8.45,8.45,0,0,0-2.35-3.69A7.82,7.82,0,0,0,171.51,88.49Z"/><path class="cls-31" d="M171.56,88.53c-2.3,1-4.2,2.78-4.14,4.62a2.61,2.61,0,0,0,.61,1.61,7.55,7.55,0,0,0,1.08,1,18,18,0,0,0,6.18,3.56c2.37.61,4.06,1.05,5.53-1.47a5.89,5.89,0,0,0,.7-4.51,8.19,8.19,0,0,0-2.35-3.6A7.71,7.71,0,0,0,171.56,88.53Z"/><path class="cls-31" d="M171.6,88.57c-2.25,1-4.1,2.73-4.06,4.52a2.49,2.49,0,0,0,.59,1.58,6.25,6.25,0,0,0,1.06,1,17.7,17.7,0,0,0,6.07,3.43c2.33.59,4,1,5.45-1.42a5.7,5.7,0,0,0,.71-4.4,7.86,7.86,0,0,0-2.35-3.51A7.61,7.61,0,0,0,171.6,88.57Z"/><path class="cls-32" d="M171.64,88.61c-2.2,1-4,2.68-4,4.42a2.49,2.49,0,0,0,.56,1.55,6.44,6.44,0,0,0,1.05,1,17.73,17.73,0,0,0,6,3.29c2.29.57,3.92,1,5.36-1.38a5.45,5.45,0,0,0,.73-4.28A7.63,7.63,0,0,0,179,89.75,7.53,7.53,0,0,0,171.64,88.61Z"/><path class="cls-33" d="M171.68,88.65c-2.15,1-3.9,2.63-3.9,4.32a2.31,2.31,0,0,0,.54,1.52,5.69,5.69,0,0,0,1,.92,17.46,17.46,0,0,0,5.85,3.16c2.25.55,3.85.9,5.28-1.34a5.26,5.26,0,0,0,.75-4.17,7.33,7.33,0,0,0-9.55-4.41Z"/><path class="cls-34" d="M171.73,88.69c-2.11,1-3.82,2.58-3.83,4.22a2.3,2.3,0,0,0,.51,1.49,5.48,5.48,0,0,0,1,.89,17.55,17.55,0,0,0,5.74,3c2.21.53,3.79.86,5.19-1.29a5,5,0,0,0,.77-4.06,7.14,7.14,0,0,0-2.37-3.23A7.3,7.3,0,0,0,171.73,88.69Z"/><path class="cls-35" d="M171.77,88.74c-2.06,1-3.72,2.52-3.75,4.12a2.18,2.18,0,0,0,.49,1.45,5,5,0,0,0,1,.86,17.5,17.5,0,0,0,5.63,2.88c2.16.5,3.72.81,5.11-1.25a4.8,4.8,0,0,0,.78-3.94,6.87,6.87,0,0,0-2.37-3.14A7.19,7.19,0,0,0,171.77,88.74Z"/><path class="cls-36" d="M171.81,88.78c-2,.94-3.63,2.47-3.67,4a2,2,0,0,0,.47,1.41,4.18,4.18,0,0,0,1,.83,17.76,17.76,0,0,0,5.52,2.76c2.12.47,3.66.76,5-1.22a4.54,4.54,0,0,0,.8-3.82,6.69,6.69,0,0,0-2.37-3.05A7.13,7.13,0,0,0,171.81,88.78Z"/><path class="cls-37" d="M171.86,88.82c-2,.92-3.54,2.42-3.6,3.92a2,2,0,0,0,.44,1.38,4,4,0,0,0,1,.8,17.81,17.81,0,0,0,5.41,2.62c2.08.45,3.59.71,4.94-1.17a4.42,4.42,0,0,0,.82-3.71,6.54,6.54,0,0,0-2.38-3A7,7,0,0,0,171.86,88.82Z"/><path class="cls-38" d="M171.9,88.86c-1.92.91-3.44,2.37-3.52,3.82A1.91,1.91,0,0,0,168.8,94a3.61,3.61,0,0,0,.95.76,17.71,17.71,0,0,0,5.3,2.49c2,.43,3.53.67,4.85-1.13a4.13,4.13,0,0,0,.84-3.59,6.32,6.32,0,0,0-2.38-2.87A6.91,6.91,0,0,0,171.9,88.86Z"/><path class="cls-39" d="M171.94,88.9c-1.87.89-3.35,2.32-3.43,3.73a1.8,1.8,0,0,0,.38,1.31,3.47,3.47,0,0,0,.94.73A17.76,17.76,0,0,0,175,97c2,.41,3.47.62,4.76-1.09a3.93,3.93,0,0,0,.86-3.47,6.17,6.17,0,0,0-2.38-2.78A6.83,6.83,0,0,0,171.94,88.9Z"/><path class="cls-40" d="M172,88.94c-1.83.88-3.26,2.27-3.36,3.63a1.71,1.71,0,0,0,.36,1.28,3.26,3.26,0,0,0,.92.69A17.75,17.75,0,0,0,175,96.76c2,.39,3.4.58,4.68-1a3.75,3.75,0,0,0,.87-3.36,6,6,0,0,0-2.38-2.69A6.7,6.7,0,0,0,172,88.94Z"/><path class="cls-41" d="M172,89c-1.78.87-3.17,2.22-3.28,3.53a1.66,1.66,0,0,0,.34,1.25,3,3,0,0,0,.9.66,18,18,0,0,0,5,2.08c1.92.37,3.35.53,4.59-1a3.57,3.57,0,0,0,.9-3.24,5.87,5.87,0,0,0-2.39-2.6A6.62,6.62,0,0,0,172,89Z"/><path class="cls-42" d="M172.07,89c-1.73.85-3.07,2.17-3.2,3.43a1.56,1.56,0,0,0,.31,1.22,2.71,2.71,0,0,0,.89.62,18.47,18.47,0,0,0,4.86,2c1.88.33,3.29.48,4.51-1a3.38,3.38,0,0,0,.91-3.12A5.72,5.72,0,0,0,178,89.64,6.57,6.57,0,0,0,172.07,89Z"/><path class="cls-42" d="M172.12,89.07c-1.69.83-3,2.11-3.13,3.32a1.52,1.52,0,0,0,.29,1.19,2.52,2.52,0,0,0,.86.59A19.2,19.2,0,0,0,174.9,96c1.83.31,3.23.44,4.42-.93a3.17,3.17,0,0,0,.93-3,5.62,5.62,0,0,0-2.39-2.43A6.41,6.41,0,0,0,172.12,89.07Z"/><path class="cls-43" d="M172.16,89.11c-1.64.81-2.9,2.06-3,3.23a1.42,1.42,0,0,0,.26,1.14,2.25,2.25,0,0,0,.85.56,19.68,19.68,0,0,0,4.65,1.69c1.79.29,3.17.4,4.34-.88a3.06,3.06,0,0,0,.95-2.89,5.57,5.57,0,0,0-2.4-2.34A6.33,6.33,0,0,0,172.16,89.11Z"/><path class="cls-44" d="M172.2,89.15c-1.59.8-2.8,2-3,3.13a1.38,1.38,0,0,0,.24,1.11,2.16,2.16,0,0,0,.83.53,20.69,20.69,0,0,0,4.54,1.55c1.75.27,3.12.36,4.25-.84a2.87,2.87,0,0,0,1-2.77,5.44,5.44,0,0,0-2.4-2.25A6.26,6.26,0,0,0,172.2,89.15Z"/><path class="cls-44" d="M172.25,89.19c-1.55.79-2.72,2-2.9,3a1.26,1.26,0,0,0,.22,1.08,1.85,1.85,0,0,0,.81.49,21.53,21.53,0,0,0,4.43,1.42c1.71.25,3.06.32,4.17-.8a2.7,2.7,0,0,0,1-2.65c-.22-.72-1.28-1.52-2.4-2.16A6.13,6.13,0,0,0,172.25,89.19Z"/><path class="cls-45" d="M172.29,89.23a5,5,0,0,0-2.82,2.93,1.22,1.22,0,0,0,.19,1,1.73,1.73,0,0,0,.8.46A22.79,22.79,0,0,0,174.78,95c1.67.23,3,.28,4.08-.75a2.53,2.53,0,0,0,1-2.54c-.2-.68-1.27-1.45-2.41-2.07A6,6,0,0,0,172.29,89.23Z"/><path class="cls-46" d="M172.33,89.27a5,5,0,0,0-2.74,2.83,1.18,1.18,0,0,0,.17,1,1.5,1.5,0,0,0,.78.42,24.62,24.62,0,0,0,4.21,1.16c1.63.2,3,.23,4-.72s1.15-2,1-2.42c-.2-.64-1.27-1.38-2.42-2A5.94,5.94,0,0,0,172.33,89.27Z"/><path class="cls-47" d="M172.38,89.31a5,5,0,0,0-2.67,2.74,1.1,1.1,0,0,0,.14,1,1.44,1.44,0,0,0,.77.39,27.54,27.54,0,0,0,4.1,1c1.59.18,2.91.2,3.91-.68,1.2-1.05,1.16-1.94,1-2.31-.19-.6-1.27-1.31-2.42-1.88A5.82,5.82,0,0,0,172.38,89.31Z"/><path class="cls-47" d="M172.42,89.35A5,5,0,0,0,169.83,92a1.06,1.06,0,0,0,.12,1,1.32,1.32,0,0,0,.75.36,32,32,0,0,0,4,.88c1.54.16,2.86.16,3.82-.63,1.23-1,1.17-1.88,1.06-2.2-.18-.56-1.26-1.24-2.42-1.79A5.75,5.75,0,0,0,172.42,89.35Z"/><path class="cls-48" d="M172.46,89.4A5,5,0,0,0,170,91.93a1,1,0,0,0,.1.92,1.16,1.16,0,0,0,.73.32,37.92,37.92,0,0,0,3.88.75c1.5.14,2.81.13,3.74-.59,1.25-1,1.17-1.8,1.07-2.08-.17-.52-1.25-1.18-2.42-1.7A5.58,5.58,0,0,0,172.46,89.4Z"/><path class="cls-49" d="M172.51,89.44a5,5,0,0,0-2.44,2.43.91.91,0,0,0,.07.88,1.07,1.07,0,0,0,.72.3c.93.12,2.36.5,3.77.61a5.48,5.48,0,0,0,3.65-.55c1.28-.92,1.18-1.73,1.1-2-.17-.48-1.25-1.12-2.43-1.61A5.5,5.5,0,0,0,172.51,89.44Z"/><path class="cls-50" d="M172.55,89.48a5.1,5.1,0,0,0-2.36,2.33.88.88,0,0,0,.05.85,1,1,0,0,0,.7.26c.89.08,2.28.39,3.66.48a5.93,5.93,0,0,0,3.57-.5c1.3-.88,1.17-1.67,1.11-1.85a5,5,0,0,0-2.43-1.52A5.41,5.41,0,0,0,172.55,89.48Z"/><path class="cls-51" d="M172.59,89.52a5,5,0,0,0-2.27,2.24.79.79,0,0,0,0,.81c.12.16.35.17.68.23a34.77,34.77,0,0,0,3.55.35,6.48,6.48,0,0,0,3.48-.47c1.33-.82,1.18-1.59,1.13-1.73a5,5,0,0,0-2.43-1.43A5.27,5.27,0,0,0,172.59,89.52Z"/><path class="cls-52" d="M172.64,89.56a5.12,5.12,0,0,0-2.2,2.14c-.14.33-.16.6,0,.78s.34.17.67.19c.79.06,2.12.17,3.44.22a7.08,7.08,0,0,0,3.4-.43c1.36-.75,1.18-1.52,1.14-1.61a5,5,0,0,0-2.43-1.34A5.16,5.16,0,0,0,172.64,89.56Z"/><path class="cls-53" d="M172.68,89.6a5.25,5.25,0,0,0-2.12,2c-.15.32-.17.59,0,.75a.73.73,0,0,0,.65.16c.75-.07,2,0,3.33.08a8,8,0,0,0,3.31-.38c1.4-.69,1.19-1.46,1.17-1.5a5.19,5.19,0,0,0-2.44-1.25A5.11,5.11,0,0,0,172.68,89.6Z"/><path class="cls-54" d="M178.89,90.65a6.11,6.11,0,0,0-2.44-1.16,5,5,0,0,0-3.73.15,5.38,5.38,0,0,0-2,1.94c-.29.57-.13,1,.58.84a26.48,26.48,0,0,1,3.22,0,9.36,9.36,0,0,0,3.23-.34C179.13,91.42,178.89,90.65,178.89,90.65Z"/></g><path class="cls-4" d="M135,97.49s1.72,7.06,1.72,9.56,1.67,8.48,3.76,11.82a8.34,8.34,0,0,0,3.75,3.47s-2.42-9.14-4.45-15.29A32.47,32.47,0,0,0,135,97.49Z"/><path class="cls-4" d="M181,95.75a51,51,0,0,0-3.17,9.36c-.66,3.78-1.11,7.78-2.22,9.45S171.73,126,171.73,126a27.77,27.77,0,0,0,8.06-13.06c.93-3.59.89-8.85,1.11-11.68A36.21,36.21,0,0,0,181,95.75Z"/><path class="cls-55" d="M145.42,106.49s5,4.49,6.15,5.06a15.54,15.54,0,0,0,10.38.66c4-1.1,4.3-3.16,5.61-4.31a15.09,15.09,0,0,0,2.21-2.43A26.86,26.86,0,0,1,160.5,109a19,19,0,0,1-8.34-.45C150.35,108,145.42,106.49,145.42,106.49Z"/><path class="cls-56" d="M152.16,108.56c-1.81-.59-6.74-2.07-6.74-2.07s2.09,1.93,3.88,3.38c0-.38.21-.69.85-.51a35.84,35.84,0,0,0,6.21,1.11,55.45,55.45,0,0,0,7.74-1s1.36-.29,1.79.41a25.7,25.7,0,0,1,1.67-2,15.09,15.09,0,0,0,2.21-2.43A26.86,26.86,0,0,1,160.5,109,19,19,0,0,1,152.16,108.56Z"/><path class="cls-55" d="M145.42,106.49a38.37,38.37,0,0,0,7,1.22c1.26.06,4.16.69,5.38.71s2.46-.6,4.12-.78,4.1-1.07,5.72-1.38a6.75,6.75,0,0,0,2.78-1.3s-4.7,3.3-6.68,3.88a25.75,25.75,0,0,1-8.68.82A22.25,22.25,0,0,1,145.42,106.49Z"/><path class="cls-5" d="M150.91,99.53a2.12,2.12,0,0,1,1.9-1.21c1.09-.12,1.73,2.07,3.63,2.25a4.71,4.71,0,0,0,4-1.56,1.9,1.9,0,0,1,2.42-.34c.69.34.52.69.52.69s.17.69-.87.52a4.29,4.29,0,0,0-2.93.51,6.21,6.21,0,0,1-4.32.18c-1-.52-1.55-.87-2.25-.52S150.22,100.91,150.91,99.53Z"/><path class="cls-5" d="M151,93.5c-.22.54-.45,1.08-.72,1.6a4.78,4.78,0,0,1-.49.78,1.87,1.87,0,0,0-.32.68,7.7,7.7,0,0,0-.17,1.57,2.86,2.86,0,0,0,.3,1.54l-.05.06a1.85,1.85,0,0,1-1-1.56,3.41,3.41,0,0,1,.36-1.83,2.41,2.41,0,0,1,.53-.81,4.11,4.11,0,0,0,.53-.63c.35-.46.67-.94,1-1.43Z"/><path class="cls-5" d="M163.21,93l1.17,1.5c.38.53.75,1,1.12,1.59a2.8,2.8,0,0,1,.28,2.06,2.64,2.64,0,0,1-.47,1,1.21,1.21,0,0,1-.92.52l0-.08A2.33,2.33,0,0,0,165,98a3.68,3.68,0,0,0-.08-1.65c-.24-.51-.59-1.1-.88-1.64L163.14,93Z"/><path class="cls-5" d="M181,95.75a47.11,47.11,0,0,0-2.36,7.18,27.38,27.38,0,0,0-.63,3.71,34.75,34.75,0,0,1-.66,3.78,24.93,24.93,0,0,1-2.75,7.19,21.27,21.27,0,0,1-5,5.79l-.07-.07a38.54,38.54,0,0,0,4.18-6.23,34.34,34.34,0,0,0,2.84-6.89,32.7,32.7,0,0,0,.8-3.66,30.11,30.11,0,0,1,.79-3.75,48.06,48.06,0,0,1,2.78-7.09Z"/><path class="cls-5" d="M135.06,97.42a32.91,32.91,0,0,1,2,3.24c.63,1.1,1.24,2.21,1.83,3.34a16.15,16.15,0,0,1,1.46,3.56c.33,1.22.69,2.43,1.09,3.62a29.26,29.26,0,0,0,3.16,6.71,38.26,38.26,0,0,0,4.95,5.61l-.06.08a21.27,21.27,0,0,1-5.74-5.1,22,22,0,0,1-3.11-7.06c-.35-1.22-.66-2.46-1-3.69a15.41,15.41,0,0,0-1.27-3.51c-.52-1.15-1.06-2.29-1.63-3.42A34.27,34.27,0,0,0,135,97.49Z"/><path class="cls-17" d="M151.34,83a10.41,10.41,0,0,0-3.88.78,7.61,7.61,0,0,1-4.8.13c-.94-.26-3.22-1.29-3.24-1.3-.4-.15,3.25-2.4,3.65-2.48a8.46,8.46,0,0,1,6.72.8C150.41,81.27,152.12,83,151.34,83Z"/><path d="M147.46,83.81a8.11,8.11,0,0,1,.78-.28,3.3,3.3,0,0,0,.38-1.53,3.38,3.38,0,0,0-.5-1.76,8.45,8.45,0,0,0-5.05-.08,5,5,0,0,0-.88.45,3.38,3.38,0,0,0,.27,3.27l.2.06A7.61,7.61,0,0,0,147.46,83.81Z"/><path class="cls-17" d="M143.18,83.29a2.38,2.38,0,0,1-.26-1.68c.26-.78.91-1.3,1-.78s-.52.91-.26,1.43S144.09,83.94,143.18,83.29Z"/><path class="cls-17" d="M147.07,83.29c-.13-.52.52-.9.52-2.07a1,1,0,0,1,.38,1.3C147.63,83.38,147.07,83.29,147.07,83.29Z"/><path class="cls-5" d="M150.4,84.8c-.88.28-1.76.55-2.62.87-.43.16-.85.32-1.26.51a8.38,8.38,0,0,1-1.33.53,7.4,7.4,0,0,1-2.84.31,5.6,5.6,0,0,1-2.68-.93l0-.07a14.61,14.61,0,0,0,2.7.22,13.82,13.82,0,0,0,2.65-.14,6.66,6.66,0,0,0,1.28-.39c.44-.16.89-.29,1.34-.41.9-.23,1.81-.39,2.71-.57Z"/><path class="cls-57" d="M151.34,83.06a8.94,8.94,0,0,0-3.23.68,8.3,8.3,0,0,1-1.59.59,6.56,6.56,0,0,1-1.71.15,9.86,9.86,0,0,1-3.27-.84L140,83l-.38-.17-.2-.08a.16.16,0,0,1-.12-.19.37.37,0,0,1,.07-.13,3.92,3.92,0,0,1,.65-.58A20.83,20.83,0,0,1,142.83,80a9.6,9.6,0,0,1,3.43-.42,7.71,7.71,0,0,1,3.23,1.06,4.21,4.21,0,0,1,1.32,1.08,6.65,6.65,0,0,1,.54.65,2.28,2.28,0,0,1,.2.38.3.3,0,0,1,0,.23A.22.22,0,0,1,151.34,83.06Zm0,0c.16,0,.21-.12.14-.25a1.73,1.73,0,0,0-.21-.34,4.05,4.05,0,0,0-.56-.61,3.72,3.72,0,0,0-1.36-.87,10.4,10.4,0,0,0-3.13-.84,12.05,12.05,0,0,0-3.19.33,28.5,28.5,0,0,0-2.86,1.65,3.91,3.91,0,0,0-.63.49l0,0c0-.08-.06-.06,0,0l.18.1.38.17c.51.23,1,.46,1.54.64a8.34,8.34,0,0,0,3.22.58,7.85,7.85,0,0,0,1.61-.16,15.35,15.35,0,0,0,1.58-.46A13,13,0,0,1,151.34,83Z"/><path class="cls-5" d="M151.5,80.91a15.17,15.17,0,0,0-4.23-1.32,7.45,7.45,0,0,0-2.16,0,8.89,8.89,0,0,0-2,.68,10.71,10.71,0,0,0-3.37,2.66,10.58,10.58,0,0,1-.83.8,5,5,0,0,1-1,.62,5.08,5.08,0,0,1-2.23.56v-.08a7,7,0,0,0,2-1,8.22,8.22,0,0,0,.83-.64c.25-.25.46-.53.71-.83A9.53,9.53,0,0,1,145,79.07a7.38,7.38,0,0,1,2.3.14,14.84,14.84,0,0,1,4.19,1.63Z"/><path class="cls-57" d="M135.11,80.27c1.12-.52,3.82-2.67,4.57-2.85,1.82-.43,7.86.61,10,.09s2.94-1.9,1.47-2.94-4.92-1.21-7.43-1-4,.44-5.44,1.73a28.36,28.36,0,0,0-4.06,4.32C134,80.19,134,80.79,135.11,80.27Z"/><path class="cls-17" d="M162.48,83a10.45,10.45,0,0,1,3.89.78,7.58,7.58,0,0,0,4.79.13,33,33,0,0,0,3.24-1.3c.4-.15-3.24-2.4-3.64-2.48A8.46,8.46,0,0,0,164,81C163.42,81.27,161.71,83,162.48,83Z"/><path d="M166.37,83.81a8.11,8.11,0,0,0-.78-.28A3.31,3.31,0,0,1,165.2,82a3.39,3.39,0,0,1,.51-1.76,8.45,8.45,0,0,1,5-.08,5.52,5.52,0,0,1,.87.45,3.22,3.22,0,0,1,.31,1.39,3.39,3.39,0,0,1-.57,1.88l-.21.06A7.58,7.58,0,0,1,166.37,83.81Z"/><path class="cls-17" d="M170.65,83.29a2.44,2.44,0,0,0,.26-1.68c-.26-.78-.91-1.3-1-.78s.52.91.26,1.43S169.74,83.94,170.65,83.29Z"/><path class="cls-17" d="M166.76,83.29c.13-.52-.52-.9-.52-2.07a1,1,0,0,0-.39,1.3C166.2,83.38,166.76,83.29,166.76,83.29Z"/><path class="cls-5" d="M163.42,84.8c.88.28,1.77.55,2.62.87.43.16.86.32,1.27.51a8.65,8.65,0,0,0,1.32.53,7.43,7.43,0,0,0,2.85.31,5.6,5.6,0,0,0,2.68-.93l0-.07a14.68,14.68,0,0,1-2.7.22,13.82,13.82,0,0,1-2.65-.14,6.45,6.45,0,0,1-1.28-.39c-.44-.16-.89-.29-1.34-.41-.9-.23-1.81-.39-2.72-.57Z"/><path class="cls-57" d="M162.27,83a.36.36,0,0,1,0-.23,1.72,1.72,0,0,1,.2-.38,8.34,8.34,0,0,1,.53-.65,4.32,4.32,0,0,1,1.32-1.08,7.8,7.8,0,0,1,3.24-1.06A9.6,9.6,0,0,1,171,80a20.83,20.83,0,0,1,2.82,1.86,4.3,4.3,0,0,1,.64.58.2.2,0,0,1,.07.13.15.15,0,0,1-.11.19l-.2.08-.38.17-1.55.64a9.86,9.86,0,0,1-3.27.84,6.64,6.64,0,0,1-1.72-.15,8.46,8.46,0,0,1-1.58-.59,8.94,8.94,0,0,0-3.24-.68A.23.23,0,0,1,162.27,83Zm3.55.46a15.35,15.35,0,0,0,1.58.46,7.85,7.85,0,0,0,1.61.16,8.34,8.34,0,0,0,3.22-.58c.52-.18,1-.41,1.53-.64l.38-.17.19-.1c.06,0,0,0,0,0l0,0a3.91,3.91,0,0,0-.63-.49,28.5,28.5,0,0,0-2.86-1.65,12.05,12.05,0,0,0-3.19-.33,10.4,10.4,0,0,0-3.13.84,3.72,3.72,0,0,0-1.36.87,3.59,3.59,0,0,0-.56.61,1.36,1.36,0,0,0-.21.34c-.07.13,0,.26.13.25A13.07,13.07,0,0,1,165.82,83.43Z"/><path class="cls-5" d="M162.33,80.91a15.07,15.07,0,0,1,4.23-1.32,7.45,7.45,0,0,1,2.16,0,8.89,8.89,0,0,1,2,.68,10.71,10.71,0,0,1,3.37,2.66,10.58,10.58,0,0,0,.83.8,5,5,0,0,0,1,.62,5.07,5.07,0,0,0,2.22.56v-.08a7.06,7.06,0,0,1-1.95-1,8.22,8.22,0,0,1-.83-.64,8.34,8.34,0,0,1-.71-.83,8.94,8.94,0,0,0-3.7-2.71,8.76,8.76,0,0,0-2.23-.61,7.3,7.3,0,0,0-2.29.14,14.9,14.9,0,0,0-4.2,1.63Z"/><path class="cls-57" d="M178.72,80.27c-1.12-.52-3.83-2.67-4.58-2.85-1.81-.43-7.86.61-10,.09s-2.93-1.9-1.46-2.94,4.92-1.21,7.42-1,4,.44,5.45,1.73a28.89,28.89,0,0,1,4.06,4.32C179.84,80.19,179.84,80.79,178.72,80.27Z"/><path class="cls-15" d="M186.32,81.39s1.9-4.14,4.49-3.62,3.11,4.66,2.59,7.77-1.9,5-2.59,7.94a31,31,0,0,1-1.55,5.7c-.69,1.56-3.63.7-3.63.7s-.34-1-.17-5.53-.35-10.71-.35-10.71Z"/><path class="cls-5" d="M187.53,84.68s1.73-3.11,2.94-2.77,1.55,2.94,1.21,4.15-.18-.87-1-1-1.9,1.73-1.9,1.73,2.07-.35,1.9,1.73a4.05,4.05,0,0,1-1.38,3.11c-.69.86,0-.18-.52-1.39s-1.9-.52-1.9-.52S186.32,86.4,187.53,84.68Z"/><path class="cls-58" d="M129.61,81.48c-1.3-3.56-2.22-4.12-2.91-7.23s-2.92-7.45-2.23-10.56.42-4.47,1.11-8.62,2.66-13.29,4.73-16.4,14.56-6.85,17.66-7.2,3.46-2.76,5.88-2.41,6.22,2.76,9.33,3.45,5.18,0,7.6.35,4.14,1.72,6.21,3.8,3.11,7.25,3.11,7.25,2.08-1.38,6.91.69,5.18,6.57,5.53,11.4-.69,8-.34,11.4,0,7.6-.7,9a5.37,5.37,0,0,1-2.76,2.08,4.77,4.77,0,0,0-2.42,2.93,21.21,21.21,0,0,1-1,3.63,47.91,47.91,0,0,1-.7-8.64c0-5.18-.69-9-1.72-11a24.79,24.79,0,0,1-2.77-7.6c-.34-2.76-5.52-7.6-7.94-9s-10,2.41-12.78,1.72-9-2.07-12.44-1S136.23,50.82,133.81,56s-4.14,10.37-3.8,12.78,1,6.57,1,8.3-.32,7.87-.32,7.87Z"/><path class="cls-59" d="M150.39,37.69l-8.63-1L149,39.07a12.16,12.16,0,0,1,5.18,3.8s-3-.34-7.25-1.12a49.25,49.25,0,0,1-12.18-3.64,33.37,33.37,0,0,0,6.65,4.07c2.77,1,6.91,2.08,8.64,2.77S154.54,47,154.54,47s-8.29.35-10.71-.35-7.26-1-9-.34a34.66,34.66,0,0,0-5.1,3.18,18.57,18.57,0,0,1,5.1-1.45,12,12,0,0,1,4.83.34l2.77,1s-6.57.69-8.29,2.07S130.36,54.28,130,56s-2.48,4.91-1.38,11.06c.43,2.4.34,3.45,1.38,5.87.32.75.64,1.67.93,2.57-.2-2-.66-4.87-.93-6.72-.34-2.41,1.38-7.6,3.8-12.78s9.67-5.53,13.13-6.56,9.67.34,12.44,1c2,.51,6.7-1.42,10-1.91C165.17,44.55,157.24,38.51,150.39,37.69Z"/><path class="cls-59" d="M148,33.2a27.89,27.89,0,0,0,3.27.34c1.1.09,2.2.18,3.31.37a15.57,15.57,0,0,1,6.46,2.4,26.09,26.09,0,0,1,4.77,4.8l2,2.55A13.4,13.4,0,0,0,170.08,46a8.55,8.55,0,0,1-3-1.59,33.12,33.12,0,0,1-2.52-2.18A49.7,49.7,0,0,0,159.81,38a8.5,8.5,0,0,0-1.25-.79c-.45-.24-.93-.44-1.4-.66-.95-.42-2-.73-3-1.07l-3.13-.95A12.32,12.32,0,0,1,148,33.2Z"/><path class="cls-59" d="M186.67,53.24c1.72.34,3.45,3.11,3.45,3.11s-2.07-6.91-6.56-8c-3.82-.88-5.89,1.72-8.76,2.32,2.4,2.07,5.06,5.06,5.3,7a24.79,24.79,0,0,0,2.77,7.6c1,2.07,1.72,5.87,1.72,11,0,2.19.13,4.07.27,5.51.29.76.25,3.68.49,4.31.22-.67.79-3.82,1-4.81a4,4,0,0,1,1.5-2.3,18,18,0,0,1,.23-2c.34-1.73,1.73-6.22,1.38-8.3S187.7,60.49,186,58.42,184.94,52.89,186.67,53.24Z"/><path class="cls-58" d="M175.4,118.87c.3-1.05-.13-4.83-.13-5.87s.69-4.14.34-5.87.11-5.22-2.31-5.22-7,.38-8.74,0-4.15-.35-5.18.34-1,1-2.42,1.39-3.8-1.39-3.8-1.39a15.26,15.26,0,0,1-5.53,1,54.59,54.59,0,0,0-6.72.3,6.42,6.42,0,0,0-.55,3.93c.36,2.33,1,4.06,1,5.79a21.16,21.16,0,0,0,.69,5.18c1.82,5.46,4.09,9.52,9.67,11,4.84,1.29,11.44,1.56,16.2-.57C170.82,127.69,173.68,124.78,175.4,118.87Zm-6-7.25c-.34,2.42-.38,5-1,5.88-1,1.38-4.15.69-6.57,0a25.31,25.31,0,0,0-7.6-.35c-1.72.35-6.23,1.15-6.23,1.15l-1.14-4.19a18.3,18.3,0,0,0-1.61-4.91,2.59,2.59,0,0,1,.35-3.11c4.13-.31,3.52-.53,6.22,0a6.25,6.25,0,0,0,4.49-.69,10.87,10.87,0,0,0,4.14.35c1.73-.35,6.22-.35,7.6-.69a5.57,5.57,0,0,1,2.43-.1S169.74,109.2,169.39,111.62Z"/><path class="cls-59" d="M175.4,118.87c.09-1.09-.13-4.83-.13-5.87s.69-4.14.34-5.87a14.86,14.86,0,0,0-.68-3.07,98.35,98.35,0,0,0-1.44,12.14c0,4.49-1.29,8.3-4.19,9.72s-3.71.56-6.12.21-7.92.24-11,.93-3.83-3-5.21-4.38a28.24,28.24,0,0,0-4.61-3.58c1.9,5.15,4.07,9,9.44,10.44,4.84,1.29,12.52,1.14,17.28-1A11.89,11.89,0,0,0,175.4,118.87Z"/><path class="cls-60" d="M161.79,117.5a25.31,25.31,0,0,0-7.6-.35c-1.72.35-4.83,1-4.83,1a3.62,3.62,0,0,0,2.76,1.72,22.87,22.87,0,0,1,6.56.35c3.11.69,9,.69,9.68-2.76C167.32,118.88,164.21,118.19,161.79,117.5Z"/><path class="cls-60" d="M140.91,103.63a6.42,6.42,0,0,0-.55,3.93c.3,2,.84,3.5,1,5-.16-3-1.33-5.6.89-7.19,1-.73,4.1-1.18,5.09-1.93A21,21,0,0,1,140.91,103.63Z"/><path class="cls-60" d="M173.49,104.2a45.94,45.94,0,0,0,2.19,4.83,7.71,7.71,0,0,0-.07-1.9c-.34-1.73.11-5.22-2.31-5.22-1.65,0-4.54.57-6.49.36a8,8,0,0,0,2.68,1C172.76,103.73,172.8,102.82,173.49,104.2Z"/><path class="cls-5" d="M162.06,114.49c.38.47-5.52.19-7.05.19s-2.09-.76-.19-1.14S160.54,112.58,162.06,114.49Z"/><path class="cls-61" d="M131.84,77.73a56.4,56.4,0,0,1,.6,7.79c0,1.3,0,2.6,0,3.89q0,1,0,1.92c0,.63.05,1.26.11,1.9.2,2.56.5,5.13.8,7.69.16,1.28.31,2.56.5,3.84s.39,2.55.7,3.82a20.82,20.82,0,0,1-1.36-3.68c-.36-1.26-.66-2.53-.91-3.81a63.17,63.17,0,0,1-1.12-7.75c0-.65-.09-1.32-.09-2s0-1.32,0-2c.05-1.31.12-2.6.2-3.9Z"/></g></g></svg>