<svg xmlns="http://www.w3.org/2000/svg" xmlns:xlink="http://www.w3.org/1999/xlink" viewBox="0 0 322.94 322.94"><defs><style>.cls-1{fill:none;}.cls-2{isolation:isolate;}.cls-3{fill:#bcbcbc;}.cls-4{clip-path:url(#clip-path);}.cls-5,.cls-8{fill:#ffd2b3;}.cls-6{fill:#c98a60;}.cls-7{fill:#2c2d30;}.cls-8{mix-blend-mode:multiply;}.cls-57,.cls-9{fill:#fff;}.cls-10{fill:#03050f;}.cls-11{fill:#848180;}.cls-12{fill:#fabf9a;}.cls-13{opacity:0.6;}.cls-14{fill:#fabe99;}.cls-15{fill:#f9be99;}.cls-16{fill:#f9bd98;}.cls-17{fill:#f9bc98;}.cls-18{fill:#f9bc97;}.cls-19{fill:#f8bb97;}.cls-20{fill:#f8ba96;}.cls-21{fill:#f8b995;}.cls-22{fill:#f7b895;}.cls-23{fill:#f7b794;}.cls-24{fill:#f7b693;}.cls-25{fill:#f6b592;}.cls-26{fill:#f6b491;}.cls-27{fill:#f5b391;}.cls-28{fill:#f5b390;}.cls-29{fill:#f5b290;}.cls-30{fill:#f5b18f;}.cls-31{fill:#f4b18f;}.cls-32{fill:#f4b08e;}.cls-33{fill:#f4af8e;}.cls-34{fill:#f4af8d;}.cls-35{fill:#f3ae8d;}.cls-36{fill:#f3ad8c;}.cls-37{fill:#f2ac8b;}.cls-38{fill:#f2ab8a;}.cls-39{fill:#f2aa89;}.cls-40{fill:#f1a989;}.cls-41{fill:#f1a888;}.cls-42{fill:#f1a787;}.cls-43{fill:#f0a687;}.cls-44{fill:#f0a686;}.cls-45{fill:#f0a586;}.cls-46{fill:#f0a485;}.cls-47{fill:#efa485;}.cls-48{fill:#efa384;}.cls-49{fill:#c4c4c9;}.cls-50{fill:#5e1106;}.cls-51{fill:#f29d81;}.cls-52{fill:#d1846e;}.cls-53{fill:#602503;}.cls-54{fill:#e8b28f;}.cls-55{fill:#ce7143;}.cls-56,.cls-59{fill:#998c8a;}.cls-57{opacity:0.56;}.cls-58{fill:#ebb486;}.cls-59{opacity:0.71;}.cls-60{fill:#e2cf91;}.cls-61{fill:#d8ba68;}.cls-62{fill:#bc953f;}.cls-63{fill:#efdba5;}.cls-64{fill:#f9e6b9;}.cls-65{fill:#e2ab81;}.cls-66{fill:#000102;}.cls-67{fill:#0a0f1e;}.cls-68{fill:#ebb386;}.cls-69{fill:#ecb286;}.cls-70{fill:#ecb185;}.cls-71{fill:#ecb085;}.cls-72{fill:#edaf85;}.cls-73{fill:#edae85;}.cls-74{fill:#edad85;}.cls-75{fill:#edad84;}.cls-76{fill:#edac84;}.cls-77{fill:#eeac84;}.cls-78{fill:#eeab84;}.cls-79{fill:#eeaa84;}.cls-80{fill:#eea984;}.cls-81{fill:#efa883;}.cls-82{fill:#efa783;}.cls-83{fill:#efa683;}.cls-84{fill:#efa583;}.cls-85{fill:#f0a583;}.cls-86{fill:#f0a483;}.cls-87{fill:#f0a482;}.cls-88{fill:#f0a382;}.cls-89{fill:#f0a282;}.cls-90{fill:#f1a182;}.cls-91{fill:#f1a082;}.cls-92{fill:#f19f81;}.cls-93{fill:#f29e81;}.cls-94{fill:#e88282;}.cls-95{fill:#a33;}.cls-96{fill:#f2b1b1;}.cls-97{fill:#f9d3b7;}.cls-98{fill:#dfe9f4;}.cls-99{fill:#b6c5d3;}.cls-100{fill:#152063;}</style><clipPath id="clip-path"><rect class="cls-1" width="322.94" height="322.94" rx="64.41"/></clipPath></defs><g class="cls-2"><g id="background"><rect class="cls-3" width="322.94" height="322.94" rx="64.41"/></g><g id="image"><g class="cls-4"><path class="cls-5" d="M247.43,117.64c-11.47,1.12-23.39-2.26-24.74-8.33s-1.58-7.65,1.35-9.45c1.91-1.17,2.18-7,1.9-12a47.61,47.61,0,0,0-.78-6.67c-.9-4.27,23.62-17.1,23.62-17.1A37.19,37.19,0,0,0,250,72.4c1.71,7.22,5.59,17.25,13.85,22.06C277.35,102.34,258.91,116.51,247.43,117.64Z"/><path class="cls-6" d="M243.22,87.39c-8.7-.46-21.22-10.7-21.22-10.7s-1.85,0-.06,5.2c2.55,5.5,9.67,14.35,19.76,14,8.87-.29,11.59-5.3,14.46-11.31.06-.73.68-1.32.78-1.8A18.91,18.91,0,0,1,243.22,87.39Z"/><path class="cls-7" d="M178,258.88s.9,45.89,0,54.89,8.55,189.87,8.55,189.87,41.39-1.58,48.14,2.47c0,0-4.05-173.22-4.5-177.27s7.42,174.57,7.42,174.57h44.77s8.32-208.76,4.5-225.86-98.53-18.67-103.71-18.67Z"/><path class="cls-8" d="M250,72.4c-4.69,6.61-19.75,14.43-23.87,15.41l-.2,0a47.61,47.61,0,0,0-.78-6.67c-.9-4.27,23.62-17.1,23.62-17.1A37.19,37.19,0,0,0,250,72.4Z"/><path class="cls-5" d="M271.61,270.12c-.67,1.8-7.42,11-7.42,19.13s-1.35,11.92,1.35,11.69,4.95-11.24,5.4-12.82,2.7,6.3,0,9.45-8.78,4.95-8.33,7.2,5.85,5.17,11.93,5,14.17-10.13,14.62-11.93,3.15-20,3.15-20Z"/><path class="cls-9" d="M224,100.85c.72.36,5.57,23.5,41.34-2.15l3.83-2,1.8,23.62-26.1,23.62L240.79,247.4,237,268.55H199.62l3.15-81.66,16-77.84S219,98.37,224,100.85Z"/><path class="cls-10" d="M265.13,96.2a400.11,400.11,0,0,1-34.89,57.94,5.08,5.08,0,0,0-1,2.81L225,271.7s23.85-6.75,31.28-3.15a53.57,53.57,0,0,0,12.37,4.5s5.36-1.54,13.8,3.63c8.71,5.34,10,8.74,10,8.74s7.2-16.65,9-25,1.8-14.17,4.28-27,3.15-56.69,2.47-72.66.68-40.27-14.62-50.39a206.89,206.89,0,0,0-26.54-14.92A1.52,1.52,0,0,0,265.13,96.2Z"/><path class="cls-10" d="M224.54,99.89a.77.77,0,0,0-1.1-.93c-7.88,4.44-33.73,19.19-35.07,22.43-1.57,3.82-1.35,9.67-3.37,20s-7.87,47.47-7.87,52.87.9,36.67,0,40-3.83,18-3.6,22.72-.23,9.23,4.05,9.45,23.17,2.93,23.17,2.93,11-64.57,13.05-70.64,12.37-43.87,11.92-48.15C225.3,146.67,220.42,111.16,224.54,99.89Z"/><path class="cls-11" d="M278.4,156.92s-1.9,68.31-4.35,74.58S277.59,161.27,278.4,156.92Z"/><path class="cls-12" d="M217.69,54.89c.42,2.54.83,10.88.87,13s-.31,7,1.25,10.3a26,26,0,0,0,7.74,10.4,20.12,20.12,0,0,0,12.89,5c6.12.11,9-2.19,11.24-4.2,4.4-4,5.71-6.05,7.38-9.76,2.74-6.08,1.78-11.33,1.84-14.23s.16-10.08.33-14-1.51-21.07-13.35-22.8-21.54-1.65-26.83,7.5C217.4,42.35,217.27,52.35,217.69,54.89Z"/><g class="cls-13"><path class="cls-12" d="M219.91,70.69a7.18,7.18,0,0,1-.17-4.52,9.89,9.89,0,0,1,1.82-3.5c1.45-1.75,5-2.18,7.11-1.18,2.72,1.27,5,3.74,2.92,6.05a15.9,15.9,0,0,1-6.8,4.83C222.61,73,221,73.52,219.91,70.69Z"/><path class="cls-14" d="M221.64,62.67c1.44-1.71,4.9-2.13,7-1.15s3.9,2.69,3.62,4.47a2.88,2.88,0,0,1-.74,1.48c-.31.35-.64.7-1,1a14.47,14.47,0,0,1-5.71,3.67c-2.15.6-3.74,1.12-4.82-1.64a7,7,0,0,1-.18-4.44A9.1,9.1,0,0,1,221.64,62.67Z"/><path class="cls-15" d="M221.71,62.66c1.43-1.67,4.83-2.08,6.9-1.11s3.82,2.65,3.56,4.39a2.8,2.8,0,0,1-.71,1.46c-.31.35-.64.69-1,1A14.54,14.54,0,0,1,224.85,72c-2.12.58-3.68,1.07-4.76-1.62a6.75,6.75,0,0,1-.2-4.35A9,9,0,0,1,221.71,62.66Z"/><path class="cls-16" d="M221.78,62.66c1.43-1.63,4.76-2,6.8-1.08s3.75,2.6,3.51,4.32a2.77,2.77,0,0,1-.7,1.43c-.31.34-.63.67-1,1a14.28,14.28,0,0,1-5.54,3.49c-2.09.56-3.62,1-4.7-1.59A6.49,6.49,0,0,1,220,66,8.59,8.59,0,0,1,221.78,62.66Z"/><path class="cls-17" d="M221.86,62.65c1.42-1.58,4.68-2,6.68-1s3.69,2.56,3.46,4.24a2.64,2.64,0,0,1-.68,1.41,12.3,12.3,0,0,1-.95,1,14.22,14.22,0,0,1-5.46,3.4c-2.06.55-3.57,1-4.64-1.55a6.33,6.33,0,0,1-.23-4.18A8.36,8.36,0,0,1,221.86,62.65Z"/><path class="cls-18" d="M221.93,62.65c1.41-1.55,4.61-1.95,6.58-1s3.62,2.52,3.4,4.17a2.56,2.56,0,0,1-.66,1.38,11.91,11.91,0,0,1-.94.94,13.9,13.9,0,0,1-5.37,3.3c-2,.54-3.51,1-4.58-1.52a6.08,6.08,0,0,1-.25-4.09A8.14,8.14,0,0,1,221.93,62.65Z"/><path class="cls-19" d="M222,62.64c1.4-1.5,4.53-1.9,6.47-1s3.55,2.48,3.35,4.09a2.52,2.52,0,0,1-.65,1.36,11.41,11.41,0,0,1-.92.92,13.93,13.93,0,0,1-5.29,3.2c-2,.52-3.45.94-4.52-1.48a5.93,5.93,0,0,1-.26-4A7.72,7.72,0,0,1,222,62.64Z"/><path class="cls-20" d="M222.08,62.64c1.39-1.46,4.46-1.85,6.37-1s3.48,2.45,3.29,4a2.38,2.38,0,0,1-.62,1.33,8.61,8.61,0,0,1-.92.89A13.61,13.61,0,0,1,225,71.05c-2,.5-3.39.91-4.45-1.45a5.69,5.69,0,0,1-.28-3.92A7.58,7.58,0,0,1,222.08,62.64Z"/><path class="cls-20" d="M222.16,62.63a6.08,6.08,0,0,1,6.25-.91c1.86.9,3.41,2.4,3.24,4a2.33,2.33,0,0,1-.6,1.31,9.24,9.24,0,0,1-.9.87,13.61,13.61,0,0,1-5.13,3c-1.94.49-3.33.87-4.39-1.42a5.47,5.47,0,0,1-.29-3.84A7.19,7.19,0,0,1,222.16,62.63Z"/><path class="cls-21" d="M222.23,62.63a6,6,0,0,1,6.15-.88c1.83.88,3.34,2.36,3.19,3.87a2.33,2.33,0,0,1-.59,1.29,9,9,0,0,1-.89.85,13.5,13.5,0,0,1-5,2.91c-1.91.47-3.28.84-4.33-1.38a5.28,5.28,0,0,1-.31-3.76A7,7,0,0,1,222.23,62.63Z"/><path class="cls-22" d="M222.3,62.62a6,6,0,0,1,6-.84c1.79.87,3.27,2.32,3.13,3.8a2.15,2.15,0,0,1-.57,1.26,7.53,7.53,0,0,1-.87.82,13.37,13.37,0,0,1-5,2.83c-1.88.45-3.22.8-4.27-1.36a5.1,5.1,0,0,1-.32-3.67A6.8,6.8,0,0,1,222.3,62.62Z"/><path class="cls-23" d="M222.38,62.62a5.85,5.85,0,0,1,5.93-.81c1.76.86,3.21,2.28,3.08,3.72a2.1,2.1,0,0,1-.55,1.24,6.57,6.57,0,0,1-.86.8,13.36,13.36,0,0,1-4.87,2.73c-1.85.43-3.17.76-4.21-1.32a4.91,4.91,0,0,1-.34-3.59A6.64,6.64,0,0,1,222.38,62.62Z"/><path class="cls-23" d="M222.45,62.61a5.8,5.8,0,0,1,5.83-.77c1.73.84,3.14,2.24,3,3.65a2,2,0,0,1-.52,1.21,7,7,0,0,1-.85.78,13.34,13.34,0,0,1-4.79,2.63c-1.82.42-3.12.73-4.15-1.29a4.75,4.75,0,0,1-.36-3.5A6.41,6.41,0,0,1,222.45,62.61Z"/><path class="cls-24" d="M222.53,62.61a5.72,5.72,0,0,1,5.72-.74c1.69.83,3.07,2.19,3,3.57a2,2,0,0,1-.51,1.19,6,6,0,0,1-.84.75,13.18,13.18,0,0,1-4.7,2.54c-1.79.4-3.06.7-4.09-1.25a4.51,4.51,0,0,1-.37-3.42A6.08,6.08,0,0,1,222.53,62.61Z"/><path class="cls-25" d="M222.6,62.6a5.68,5.68,0,0,1,5.62-.7c1.66.82,3,2.15,2.91,3.5a1.92,1.92,0,0,1-.49,1.16,5.77,5.77,0,0,1-.82.73,13.1,13.1,0,0,1-4.62,2.44c-1.76.39-3,.66-4-1.22a4.41,4.41,0,0,1-.39-3.33A6,6,0,0,1,222.6,62.6Z"/><path class="cls-25" d="M222.67,62.6a5.57,5.57,0,0,1,5.51-.67c1.63.8,2.94,2.11,2.86,3.42a1.82,1.82,0,0,1-.47,1.14,4.63,4.63,0,0,1-.81.71,13,13,0,0,1-4.54,2.34c-1.72.37-2.95.63-4-1.19a4.15,4.15,0,0,1-.4-3.24A5.73,5.73,0,0,1,222.67,62.6Z"/><path class="cls-26" d="M222.75,62.59a5.51,5.51,0,0,1,5.4-.63c1.59.79,2.87,2.07,2.81,3.34a1.73,1.73,0,0,1-.46,1.12,4.35,4.35,0,0,1-.79.68,12.86,12.86,0,0,1-4.46,2.25c-1.69.36-2.9.6-3.9-1.15a4.05,4.05,0,0,1-.42-3.17A5.65,5.65,0,0,1,222.75,62.59Z"/><path class="cls-27" d="M222.82,62.59a5.45,5.45,0,0,1,5.3-.61c1.56.79,2.8,2,2.75,3.28a1.73,1.73,0,0,1-.43,1.09,4.2,4.2,0,0,1-.79.66,12.8,12.8,0,0,1-4.37,2.15c-1.66.34-2.85.57-3.84-1.12A3.86,3.86,0,0,1,221,65,5.46,5.46,0,0,1,222.82,62.59Z"/><path class="cls-28" d="M222.9,62.58a5.35,5.35,0,0,1,5.18-.57c1.53.77,2.74,2,2.7,3.2a1.65,1.65,0,0,1-.41,1.07,3.92,3.92,0,0,1-.77.63A12.87,12.87,0,0,1,225.31,69c-1.63.32-2.8.52-3.78-1.09a3.7,3.7,0,0,1-.45-3A5.27,5.27,0,0,1,222.9,62.58Z"/><path class="cls-29" d="M223,62.58a5.31,5.31,0,0,1,5.08-.54c1.49.76,2.67,2,2.64,3.13a1.55,1.55,0,0,1-.39,1,3.53,3.53,0,0,1-.76.6,12.66,12.66,0,0,1-4.2,2c-1.6.31-2.75.49-3.71-1.06a3.53,3.53,0,0,1-.48-2.91A5.09,5.09,0,0,1,223,62.58Z"/><path class="cls-30" d="M223.05,62.57a5.23,5.23,0,0,1,5-.5c1.46.75,2.6,1.91,2.59,3.05a1.57,1.57,0,0,1-.38,1,3.34,3.34,0,0,1-.74.58,13,13,0,0,1-4.12,1.87c-1.57.29-2.7.46-3.65-1a3.31,3.31,0,0,1-.49-2.82A4.92,4.92,0,0,1,223.05,62.57Z"/><path class="cls-31" d="M223.12,62.57A5.17,5.17,0,0,1,228,62.1c1.42.73,2.53,1.87,2.53,3a1.42,1.42,0,0,1-.36,1,2.74,2.74,0,0,1-.73.55,12.91,12.91,0,0,1-4,1.78c-1.54.28-2.66.43-3.59-1a3.17,3.17,0,0,1-.51-2.74A4.82,4.82,0,0,1,223.12,62.57Z"/><path class="cls-32" d="M223.19,62.56a5.09,5.09,0,0,1,4.76-.43c1.39.72,2.47,1.83,2.48,2.9a1.38,1.38,0,0,1-.33,1,3.27,3.27,0,0,1-.72.53,12.83,12.83,0,0,1-3.95,1.68c-1.51.26-2.61.4-3.53-1a3.05,3.05,0,0,1-.53-2.65A4.75,4.75,0,0,1,223.19,62.56Z"/><path class="cls-33" d="M223.27,62.56a5,5,0,0,1,4.65-.4c1.36.71,2.4,1.79,2.43,2.82a1.36,1.36,0,0,1-.32,1,2.53,2.53,0,0,1-.71.51A13.1,13.1,0,0,1,225.45,68c-1.47.25-2.55.36-3.46-.92a2.88,2.88,0,0,1-.54-2.57A4.47,4.47,0,0,1,223.27,62.56Z"/><path class="cls-34" d="M223.34,62.55a5,5,0,0,1,4.55-.36c1.32.69,2.33,1.75,2.37,2.75a1.28,1.28,0,0,1-.3.93,2.36,2.36,0,0,1-.69.48,13.08,13.08,0,0,1-3.79,1.49c-1.44.23-2.51.33-3.4-.89a2.73,2.73,0,0,1-.56-2.48A4.47,4.47,0,0,1,223.34,62.55Z"/><path class="cls-35" d="M223.42,62.55a4.85,4.85,0,0,1,4.43-.33c1.29.68,2.27,1.71,2.32,2.67a1.2,1.2,0,0,1-.28.91,2,2,0,0,1-.68.46,13.61,13.61,0,0,1-3.7,1.4c-1.41.21-2.47.29-3.34-.87a2.62,2.62,0,0,1-.57-2.4A4.26,4.26,0,0,1,223.42,62.55Z"/><path class="cls-36" d="M223.49,62.54a4.79,4.79,0,0,1,4.33-.29,3.87,3.87,0,0,1,2.27,2.6,1.16,1.16,0,0,1-.27.88,2,2,0,0,1-.66.44,13.79,13.79,0,0,1-3.62,1.3c-1.38.19-2.42.26-3.28-.83a2.5,2.5,0,0,1-.59-2.32A4.21,4.21,0,0,1,223.49,62.54Z"/><path class="cls-36" d="M223.56,62.54a4.71,4.71,0,0,1,4.23-.26A3.78,3.78,0,0,1,230,64.8a1.09,1.09,0,0,1-.24.86,1.81,1.81,0,0,1-.66.41,14,14,0,0,1-3.53,1.21c-1.35.18-2.38.24-3.22-.8a2.35,2.35,0,0,1-.61-2.23A4.11,4.11,0,0,1,223.56,62.54Z"/><path class="cls-37" d="M223.64,62.53a4.67,4.67,0,0,1,4.12-.23,3.78,3.78,0,0,1,2.15,2.46,1.06,1.06,0,0,1-.22.83,1.69,1.69,0,0,1-.64.39,14.38,14.38,0,0,1-3.45,1.11c-1.33.17-2.34.21-3.16-.76a2.23,2.23,0,0,1-.62-2.15A4,4,0,0,1,223.64,62.53Z"/><path class="cls-38" d="M223.71,62.53a4.56,4.56,0,0,1,4-.2,3.73,3.73,0,0,1,2.1,2.38,1,1,0,0,1-.2.81,1.43,1.43,0,0,1-.63.36,14.7,14.7,0,0,1-3.36,1c-1.3.15-2.3.18-3.1-.73a2.11,2.11,0,0,1-.64-2.06A4,4,0,0,1,223.71,62.53Z"/><path class="cls-38" d="M223.79,62.52a4.49,4.49,0,0,1,3.9-.16,3.75,3.75,0,0,1,2.05,2.3.94.94,0,0,1-.19.79,1.37,1.37,0,0,1-.61.34,15.47,15.47,0,0,1-3.28.92c-1.27.14-2.26.15-3-.69a2,2,0,0,1-.65-2C222.14,63.52,223,63,223.79,62.52Z"/><path class="cls-39" d="M223.86,62.52a4.41,4.41,0,0,1,3.8-.13,3.71,3.71,0,0,1,2,2.23.87.87,0,0,1-.17.76,1.23,1.23,0,0,1-.6.32,16.93,16.93,0,0,1-3.2.82c-1.23.12-2.21.13-3-.66A1.87,1.87,0,0,1,222,64C222.21,63.47,223,62.94,223.86,62.52Z"/><path class="cls-40" d="M223.94,62.51a4.35,4.35,0,0,1,3.68-.09,3.67,3.67,0,0,1,1.94,2.15.81.81,0,0,1-.15.74,1.06,1.06,0,0,1-.58.29,16.89,16.89,0,0,1-3.12.73c-1.2.11-2.17.1-2.91-.63s-.79-1.5-.69-1.8C222.28,63.43,223.08,62.92,223.94,62.51Z"/><path class="cls-41" d="M224,62.51a4.27,4.27,0,0,1,3.58-.06,3.7,3.7,0,0,1,1.89,2.08.81.81,0,0,1-.13.71,1,1,0,0,1-.58.27,21.24,21.24,0,0,1-3,.64,3.51,3.51,0,0,1-2.85-.6c-.86-.81-.8-1.46-.7-1.73C222.35,63.39,223.15,62.9,224,62.51Z"/><path class="cls-41" d="M224.08,62.5a4.23,4.23,0,0,1,3.48,0,3.66,3.66,0,0,1,1.83,2,.76.76,0,0,1-.11.69.94.94,0,0,1-.56.25,23.59,23.59,0,0,1-2.95.54,3.69,3.69,0,0,1-2.79-.57c-.87-.77-.8-1.4-.72-1.64C222.41,63.35,223.22,62.87,224.08,62.5Z"/><path class="cls-42" d="M224.16,62.5a4.12,4.12,0,0,1,3.37,0,3.64,3.64,0,0,1,1.77,1.93.67.67,0,0,1-.09.66.82.82,0,0,1-.55.22,27.58,27.58,0,0,1-2.86.45,3.87,3.87,0,0,1-2.73-.53c-.89-.75-.81-1.36-.73-1.56C222.48,63.3,223.28,62.85,224.16,62.5Z"/><path class="cls-43" d="M224.23,62.49a4,4,0,0,1,3.26,0,3.67,3.67,0,0,1,1.73,1.85.66.66,0,0,1-.08.64.72.72,0,0,1-.53.2c-.69.07-1.75.31-2.78.35a4.1,4.1,0,0,1-2.67-.5c-.91-.71-.81-1.3-.75-1.47A3.67,3.67,0,0,1,224.23,62.49Z"/><path class="cls-44" d="M224.31,62.49a3.92,3.92,0,0,1,3.15.08,3.75,3.75,0,0,1,1.67,1.77.64.64,0,0,1-.06.63.76.76,0,0,1-.52.17c-.65,0-1.68.22-2.69.25a4.32,4.32,0,0,1-2.61-.47c-.93-.67-.82-1.25-.76-1.38A3.66,3.66,0,0,1,224.31,62.49Z"/><path class="cls-45" d="M224.38,62.48a3.92,3.92,0,0,1,3.05.12A3.67,3.67,0,0,1,229,64.3a.59.59,0,0,1,0,.6.71.71,0,0,1-.51.14c-.62,0-1.63.15-2.61.16a4.73,4.73,0,0,1-2.55-.43c-1-.64-.82-1.2-.78-1.3A3.73,3.73,0,0,1,224.38,62.48Z"/><path class="cls-46" d="M224.45,62.48a3.51,3.51,0,0,1,4.5,1.77.56.56,0,0,1,0,.58c-.09.1-.25.13-.5.12-.58,0-1.56.06-2.53.06a5.27,5.27,0,0,1-2.48-.4c-1-.59-.83-1.15-.8-1.21A3.67,3.67,0,0,1,224.45,62.48Z"/><path class="cls-47" d="M224.53,62.47a3.77,3.77,0,0,1,2.83.18,4,4,0,0,1,1.51,1.56.53.53,0,0,1,0,.55.52.52,0,0,1-.48.09c-.55-.07-1.5,0-2.45,0a5.91,5.91,0,0,1-2.42-.36c-1-.55-.83-1.1-.81-1.13A3.83,3.83,0,0,1,224.53,62.47Z"/><path class="cls-48" d="M222.78,63.26a4.49,4.49,0,0,1,1.82-.79,3.64,3.64,0,0,1,2.73.21,4,4,0,0,1,1.45,1.48c.19.43.07.7-.45.6a18.3,18.3,0,0,0-2.36-.12,7.11,7.11,0,0,1-2.36-.34C222.58,63.81,222.78,63.26,222.78,63.26Z"/></g><g class="cls-13"><path class="cls-12" d="M259.91,70a7.21,7.21,0,0,0,.32-4.51,9.71,9.71,0,0,0-1.69-3.57c-1.39-1.8-4.9-2.35-7.07-1.44-2.76,1.17-5.07,3.56-3.13,5.94A16,16,0,0,0,255,71.46C257.13,72.15,258.72,72.75,259.91,70Z"/><path class="cls-14" d="M251.5,60.47c-2.13.91-4,2.55-3.77,4.34a2.84,2.84,0,0,0,.68,1.5c.3.37.62.73,1,1.07a14.64,14.64,0,0,0,5.58,3.89c2.13.68,3.7,1.25,4.88-1.47a7,7,0,0,0,.34-4.42,9.23,9.23,0,0,0-1.7-3.5C257.08,60.11,253.64,59.57,251.5,60.47Z"/><path class="cls-15" d="M251.53,60.5c-2.09.9-3.91,2.51-3.71,4.26a2.79,2.79,0,0,0,.66,1.48c.3.37.62.72.94,1.05a14.44,14.44,0,0,0,5.5,3.79c2.1.66,3.64,1.21,4.82-1.44a6.85,6.85,0,0,0,.35-4.34,9,9,0,0,0-1.7-3.43C257,60.15,253.64,59.61,251.53,60.5Z"/><path class="cls-16" d="M251.57,60.53c-2.07.88-3.85,2.47-3.67,4.19a2.91,2.91,0,0,0,.65,1.46c.29.35.61.69.93,1a14.13,14.13,0,0,0,5.42,3.69c2.07.65,3.58,1.18,4.75-1.41a6.46,6.46,0,0,0,.36-4.25,8.62,8.62,0,0,0-1.69-3.37C257,60.18,253.64,59.65,251.57,60.53Z"/><path class="cls-17" d="M251.6,60.56c-2,.87-3.78,2.43-3.61,4.12a2.74,2.74,0,0,0,.63,1.43c.29.35.6.68.92,1a14.13,14.13,0,0,0,5.34,3.59c2,.63,3.52,1.14,4.69-1.38a6.3,6.3,0,0,0,.37-4.17,8.34,8.34,0,0,0-1.7-3.3C256.88,60.22,253.63,59.69,251.6,60.56Z"/><path class="cls-18" d="M251.63,60.59c-2,.86-3.7,2.39-3.55,4a2.62,2.62,0,0,0,.61,1.4,12,12,0,0,0,.91,1,13.88,13.88,0,0,0,5.25,3.49c2,.61,3.48,1.1,4.63-1.35a6.06,6.06,0,0,0,.39-4.08,8.1,8.1,0,0,0-1.7-3.23C256.82,60.25,253.63,59.73,251.63,60.59Z"/><path class="cls-19" d="M251.66,60.62c-2,.85-3.63,2.36-3.49,4a2.46,2.46,0,0,0,.59,1.38,11.62,11.62,0,0,0,.9,1,13.82,13.82,0,0,0,5.17,3.39c2,.6,3.42,1.07,4.57-1.32a5.89,5.89,0,0,0,.4-4,7.81,7.81,0,0,0-1.71-3.17C256.75,60.28,253.63,59.77,251.66,60.62Z"/><path class="cls-20" d="M251.69,60.65c-1.92.84-3.56,2.32-3.43,3.9a2.47,2.47,0,0,0,.57,1.36,11,11,0,0,0,.88.93,13.76,13.76,0,0,0,5.1,3.29c1.95.58,3.36,1,4.5-1.29a5.68,5.68,0,0,0,.42-3.91,7.61,7.61,0,0,0-1.71-3.1C256.68,60.32,253.63,59.82,251.69,60.65Z"/><path class="cls-20" d="M251.73,60.68c-1.9.83-3.5,2.28-3.38,3.83a2.28,2.28,0,0,0,.56,1.33,9.14,9.14,0,0,0,.86.9,13.58,13.58,0,0,0,5,3.2c1.92.56,3.3,1,4.44-1.25a5.54,5.54,0,0,0,.43-3.83,7.38,7.38,0,0,0-1.71-3A6.1,6.1,0,0,0,251.73,60.68Z"/><path class="cls-21" d="M251.76,60.71c-1.86.82-3.43,2.24-3.32,3.76a2.23,2.23,0,0,0,.54,1.3,7.84,7.84,0,0,0,.85.88,13.42,13.42,0,0,0,4.94,3.1c1.89.54,3.24,1,4.37-1.22a5.31,5.31,0,0,0,.45-3.74,7.07,7.07,0,0,0-1.72-3A6,6,0,0,0,251.76,60.71Z"/><path class="cls-22" d="M251.79,60.74c-1.83.81-3.36,2.2-3.26,3.68a2.17,2.17,0,0,0,.52,1.29,8.41,8.41,0,0,0,.84.85,13.32,13.32,0,0,0,4.85,3c1.87.52,3.2.92,4.32-1.19a5.05,5.05,0,0,0,.45-3.66,6.79,6.79,0,0,0-1.71-2.9A6,6,0,0,0,251.79,60.74Z"/><path class="cls-23" d="M251.82,60.77c-1.79.8-3.28,2.16-3.21,3.61a2.18,2.18,0,0,0,.51,1.26,6.51,6.51,0,0,0,.83.83,13.18,13.18,0,0,0,4.77,2.9c1.83.51,3.14.88,4.25-1.16a4.85,4.85,0,0,0,.47-3.57,6.46,6.46,0,0,0-1.72-2.84A5.86,5.86,0,0,0,251.82,60.77Z"/><path class="cls-23" d="M251.85,60.81c-1.75.78-3.21,2.12-3.15,3.53a2,2,0,0,0,.49,1.23,5.71,5.71,0,0,0,.82.81,13.2,13.2,0,0,0,4.69,2.8c1.8.49,3.09.85,4.19-1.13a4.7,4.7,0,0,0,.48-3.49,6.4,6.4,0,0,0-1.72-2.77A5.79,5.79,0,0,0,251.85,60.81Z"/><path class="cls-24" d="M251.88,60.84c-1.72.76-3.14,2.08-3.09,3.46a2,2,0,0,0,.47,1.21,6.58,6.58,0,0,0,.8.78,13.06,13.06,0,0,0,4.62,2.7c1.77.47,3,.81,4.12-1.1a4.51,4.51,0,0,0,.5-3.4,6.26,6.26,0,0,0-1.72-2.71A5.75,5.75,0,0,0,251.88,60.84Z"/><path class="cls-25" d="M251.92,60.87c-1.69.75-3.08,2-3,3.38a1.9,1.9,0,0,0,.45,1.19,5.11,5.11,0,0,0,.79.75,12.83,12.83,0,0,0,4.54,2.61c1.74.46,3,.78,4.06-1.07a4.35,4.35,0,0,0,.51-3.31,5.94,5.94,0,0,0-1.73-2.64A5.62,5.62,0,0,0,251.92,60.87Z"/><path class="cls-25" d="M252,60.9c-1.66.74-3,2-3,3.31a1.84,1.84,0,0,0,.43,1.16,4.17,4.17,0,0,0,.78.73,13,13,0,0,0,4.45,2.52c1.71.43,2.93.73,4-1.05a4.19,4.19,0,0,0,.53-3.23,5.79,5.79,0,0,0-1.73-2.57A5.56,5.56,0,0,0,252,60.9Z"/><path class="cls-26" d="M252,60.93c-1.62.73-2.94,2-2.92,3.24a1.78,1.78,0,0,0,.41,1.14,5.17,5.17,0,0,0,.77.7,12.92,12.92,0,0,0,4.37,2.42c1.68.41,2.88.7,3.94-1a4,4,0,0,0,.54-3.14,5.59,5.59,0,0,0-1.74-2.51A5.5,5.5,0,0,0,252,60.93Z"/><path class="cls-27" d="M252,61c-1.58.72-2.87,1.93-2.86,3.17a1.71,1.71,0,0,0,.39,1.11,4.14,4.14,0,0,0,.76.68,12.88,12.88,0,0,0,4.29,2.32c1.65.4,2.83.66,3.87-1a3.82,3.82,0,0,0,.55-3.06A5.35,5.35,0,0,0,252,61Z"/><path class="cls-28" d="M252,61c-1.55.71-2.8,1.89-2.81,3.09a1.62,1.62,0,0,0,.38,1.09,4,4,0,0,0,.75.66,12.86,12.86,0,0,0,4.21,2.22c1.62.38,2.78.63,3.81-1a3.64,3.64,0,0,0,.56-3,5.19,5.19,0,0,0-1.73-2.37A5.34,5.34,0,0,0,252,61Z"/><path class="cls-29" d="M252.07,61c-1.51.7-2.73,1.85-2.75,3a1.57,1.57,0,0,0,.36,1.06,3.77,3.77,0,0,0,.73.64,13,13,0,0,0,4.14,2.12c1.59.36,2.73.59,3.75-.92a3.53,3.53,0,0,0,.57-2.89,5.1,5.1,0,0,0-1.74-2.31A5.28,5.28,0,0,0,252.07,61Z"/><path class="cls-30" d="M252.11,61.05c-1.49.69-2.67,1.81-2.7,3a1.52,1.52,0,0,0,.34,1,3.57,3.57,0,0,0,.72.61,12.92,12.92,0,0,0,4.05,2c1.56.35,2.69.56,3.69-.89A3.35,3.35,0,0,0,258.8,64a5,5,0,0,0-1.74-2.24A5.24,5.24,0,0,0,252.11,61.05Z"/><path class="cls-31" d="M252.14,61.08c-1.45.68-2.6,1.77-2.64,2.88a1.47,1.47,0,0,0,.32,1,2.9,2.9,0,0,0,.71.58,13,13,0,0,0,4,1.93c1.53.33,2.64.52,3.63-.86a3.22,3.22,0,0,0,.6-2.72A4.83,4.83,0,0,0,257,61.72,5.15,5.15,0,0,0,252.14,61.08Z"/><path class="cls-32" d="M252.17,61.11c-1.41.67-2.53,1.74-2.58,2.8a1.38,1.38,0,0,0,.3,1,2.78,2.78,0,0,0,.7.56,12.94,12.94,0,0,0,3.89,1.83c1.5.31,2.59.49,3.56-.83a3.08,3.08,0,0,0,.62-2.64,4.64,4.64,0,0,0-1.75-2.1A5.06,5.06,0,0,0,252.17,61.11Z"/><path class="cls-33" d="M252.2,61.14c-1.38.65-2.46,1.7-2.52,2.73a1.33,1.33,0,0,0,.28,1,2.69,2.69,0,0,0,.69.53,13,13,0,0,0,3.81,1.73c1.47.3,2.54.45,3.5-.8a2.92,2.92,0,0,0,.63-2.55,4.55,4.55,0,0,0-1.75-2A5,5,0,0,0,252.2,61.14Z"/><path class="cls-34" d="M252.23,61.17c-1.34.64-2.39,1.66-2.46,2.66a1.28,1.28,0,0,0,.26.94,2.38,2.38,0,0,0,.68.51,13,13,0,0,0,3.73,1.63c1.43.28,2.5.42,3.43-.77a2.74,2.74,0,0,0,.64-2.46,4.37,4.37,0,0,0-1.75-2A4.92,4.92,0,0,0,252.23,61.17Z"/><path class="cls-35" d="M252.27,61.2c-1.32.63-2.33,1.62-2.42,2.59a1.19,1.19,0,0,0,.25.91,2.07,2.07,0,0,0,.66.49,13.43,13.43,0,0,0,3.65,1.53c1.41.26,2.46.39,3.38-.74a2.64,2.64,0,0,0,.65-2.38,4.28,4.28,0,0,0-1.75-1.91A4.85,4.85,0,0,0,252.27,61.2Z"/><path class="cls-36" d="M252.3,61.23a3.86,3.86,0,0,0-2.36,2.51,1.2,1.2,0,0,0,.23.9,2.16,2.16,0,0,0,.65.46,13.89,13.89,0,0,0,3.57,1.43c1.38.25,2.41.36,3.31-.71a2.48,2.48,0,0,0,.67-2.29,4.22,4.22,0,0,0-1.75-1.85A4.82,4.82,0,0,0,252.3,61.23Z"/><path class="cls-36" d="M252.33,61.26A3.83,3.83,0,0,0,250,63.7a1.11,1.11,0,0,0,.21.87,1.76,1.76,0,0,0,.64.43,13.75,13.75,0,0,0,3.49,1.34c1.35.23,2.37.32,3.25-.68a2.37,2.37,0,0,0,.68-2.2,4.08,4.08,0,0,0-1.76-1.78A4.72,4.72,0,0,0,252.33,61.26Z"/><path class="cls-37" d="M252.36,61.29a3.75,3.75,0,0,0-2.24,2.37,1.07,1.07,0,0,0,.19.84,1.6,1.6,0,0,0,.63.41,14.31,14.31,0,0,0,3.41,1.24c1.31.22,2.33.29,3.18-.65a2.22,2.22,0,0,0,.7-2.12,4,4,0,0,0-1.76-1.71A4.66,4.66,0,0,0,252.36,61.29Z"/><path class="cls-38" d="M252.39,61.32a3.73,3.73,0,0,0-2.18,2.3,1,1,0,0,0,.17.82,1.52,1.52,0,0,0,.62.38A14.63,14.63,0,0,0,254.33,66c1.28.2,2.28.26,3.12-.62a2.09,2.09,0,0,0,.71-2,4,4,0,0,0-1.77-1.65A4.58,4.58,0,0,0,252.39,61.32Z"/><path class="cls-38" d="M252.42,61.35a3.72,3.72,0,0,0-2.12,2.22,1,1,0,0,0,.16.8,1.3,1.3,0,0,0,.6.36,16,16,0,0,0,3.24,1c1.26.18,2.25.23,3.06-.58a2,2,0,0,0,.72-2c-.15-.52-.94-1.11-1.76-1.58A4.5,4.5,0,0,0,252.42,61.35Z"/><path class="cls-39" d="M252.46,61.38a3.7,3.7,0,0,0-2.07,2.15.86.86,0,0,0,.14.77,1.26,1.26,0,0,0,.58.34,16.52,16.52,0,0,0,3.17.94c1.23.17,2.21.2,3-.55s.84-1.53.73-1.87c-.15-.5-.93-1.06-1.76-1.51A4.4,4.4,0,0,0,252.46,61.38Z"/><path class="cls-40" d="M252.49,61.41a3.72,3.72,0,0,0-2,2.08.82.82,0,0,0,.13.74,1.09,1.09,0,0,0,.57.32,18.73,18.73,0,0,0,3.09.84c1.19.15,2.17.18,2.93-.52s.85-1.48.75-1.78c-.15-.47-.93-1-1.77-1.45A4.36,4.36,0,0,0,252.49,61.41Z"/><path class="cls-41" d="M252.52,61.44a3.65,3.65,0,0,0-2,2,.81.81,0,0,0,.11.72,1,1,0,0,0,.56.29,19.78,19.78,0,0,0,3,.74,3.54,3.54,0,0,0,2.87-.49c.88-.77.85-1.43.76-1.7-.14-.44-.93-1-1.77-1.38A4.28,4.28,0,0,0,252.52,61.44Z"/><path class="cls-41" d="M252.55,61.47a3.68,3.68,0,0,0-1.9,1.93.76.76,0,0,0,.09.7.89.89,0,0,0,.55.26,23.37,23.37,0,0,0,2.93.65,3.66,3.66,0,0,0,2.8-.46c.9-.74.86-1.38.78-1.61-.14-.41-.92-.92-1.78-1.32A4.21,4.21,0,0,0,252.55,61.47Z"/><path class="cls-42" d="M252.58,61.5a3.66,3.66,0,0,0-1.84,1.86.69.69,0,0,0,.07.67.8.8,0,0,0,.54.24,27.18,27.18,0,0,0,2.84.55,3.85,3.85,0,0,0,2.75-.43c.92-.71.86-1.32.79-1.53-.13-.38-.92-.86-1.78-1.24A4.13,4.13,0,0,0,252.58,61.5Z"/><path class="cls-43" d="M252.61,61.53a3.69,3.69,0,0,0-1.78,1.79.69.69,0,0,0,0,.65.79.79,0,0,0,.53.21c.68.09,1.73.37,2.76.45a4,4,0,0,0,2.68-.4c.94-.68.86-1.27.81-1.44a3.75,3.75,0,0,0-1.78-1.18A4.05,4.05,0,0,0,252.61,61.53Z"/><path class="cls-44" d="M252.65,61.56a3.68,3.68,0,0,0-1.73,1.72.63.63,0,0,0,0,.62c.1.12.27.13.51.19a16.57,16.57,0,0,0,2.69.35,4.37,4.37,0,0,0,2.62-.37c1-.64.86-1.22.81-1.35-.11-.33-.9-.78-1.78-1.12A4,4,0,0,0,252.65,61.56Z"/><path class="cls-45" d="M252.68,61.59A3.73,3.73,0,0,0,251,63.23c-.1.26-.11.46,0,.6s.26.13.5.17c.61.1,1.62.2,2.61.25a4.64,4.64,0,0,0,2.55-.34c1-.6.87-1.17.83-1.27a3.74,3.74,0,0,0-1.78-1A3.89,3.89,0,0,0,252.68,61.59Z"/><path class="cls-46" d="M252.71,61.62a3.87,3.87,0,0,0-1.62,1.57c-.1.25-.11.45,0,.58s.25.12.49.14c.58,0,1.56.12,2.53.15a5.16,5.16,0,0,0,2.49-.31c1-.55.87-1.12.84-1.18a3.71,3.71,0,0,0-1.79-1A3.79,3.79,0,0,0,252.71,61.62Z"/><path class="cls-47" d="M252.74,61.65a3.94,3.94,0,0,0-1.56,1.5c-.1.24-.12.43,0,.55s.24.14.48.11c.55-.05,1.5,0,2.44.06a5.77,5.77,0,0,0,2.43-.27c1-.51.87-1.07.86-1.1a3.68,3.68,0,0,0-1.79-.92A3.76,3.76,0,0,0,252.74,61.65Z"/><path class="cls-48" d="M257.3,62.42a4.52,4.52,0,0,0-1.79-.85,3.68,3.68,0,0,0-2.74.11,4.06,4.06,0,0,0-1.5,1.43c-.21.41-.09.7.43.61a21.08,21.08,0,0,1,2.36,0,7,7,0,0,0,2.37-.24C257.48,63,257.3,62.42,257.3,62.42Z"/></g><path class="cls-12" d="M260.66,59.24s1.79-3.63,3.89-4.37,3.54,2.83,3.09,5.5-2,5.72-2.09,7.46a5,5,0,0,1-2.16,4,11.85,11.85,0,0,1-3.21.87,44.72,44.72,0,0,0,.24-6.49A53.47,53.47,0,0,1,260.66,59.24Z"/><path class="cls-6" d="M261.56,61c1-.83,1.47-1.19,1.7-2.12A2.71,2.71,0,0,1,265,57a1.51,1.51,0,0,1,1.77,1.35,18.34,18.34,0,0,1-.3,3.49c.11-.63-.45-2.52-1.12-2.81-1.08-.48-1.89,1.48-2.88,2.08.27.92,1.74-.5,2.38.53a4,4,0,0,1-.06,3.36,9.66,9.66,0,0,1-1.33,2.11s.08-2.32-1.15-1.83a4.45,4.45,0,0,0-.81-3Z"/><path class="cls-12" d="M218.41,60.09s-1.94-3.55-4.06-4.2-3.42,3-2.87,5.62,2.22,5.63,2.38,7.37a5,5,0,0,0,2.31,3.89,11.81,11.81,0,0,0,3.25.75,44.64,44.64,0,0,1-.5-6.48A54,54,0,0,0,218.41,60.09Z"/><path class="cls-6" d="M217.58,61.85c-1-.79-1.52-1.13-1.79-2.05A2.71,2.71,0,0,0,214,58a1.51,1.51,0,0,0-1.71,1.43,16.86,16.86,0,0,0,.44,3.46c-.14-.62.35-2.53,1-2.85,1.06-.52,1.95,1.4,3,2-.23.93-1.75-.43-2.35.63a4,4,0,0,0,.19,3.36A9.46,9.46,0,0,0,216,68s-.17-2.31,1.08-1.87a4.44,4.44,0,0,1,.68-3Z"/><path class="cls-6" d="M227.54,69.3c-1.1.72-2.21,1.09-2.56,2.48s.66,2.19,1.15,1.83,0-2,.69-2.79A2.49,2.49,0,0,0,227.54,69.3Z"/><path class="cls-6" d="M251.28,69.4c1.26.55,2.65,1.68,2.68,3.07s-.7,2.68-1.08,2,.34-1.51,0-2.31S251.28,69.4,251.28,69.4Z"/><path class="cls-6" d="M242.22,82.79c-3.86-.5-6.19,1.29-5.34-.12s2-1.31,3.58-1.11S242.22,82.79,242.22,82.79Z"/><path class="cls-9" d="M227.11,72.78s4,3,5.68,4.18a11.25,11.25,0,0,0,7.74,1.7c3.47-.42,5.08-.8,6.91-2.23s4.66-3.69,4.66-3.69-6.83.49-8.95.3a55.77,55.77,0,0,0-8.08,0A48.23,48.23,0,0,1,227.11,72.78Z"/><path class="cls-49" d="M251.77,72.76c-1.37.1-6.78.44-8.62.28a55.77,55.77,0,0,0-8.08,0,48.23,48.23,0,0,1-8-.31l.29.22c1.6.87,5,2.15,11.19,2.1C247.09,75,248.36,74.73,251.77,72.76Z"/><path class="cls-50" d="M231.36,75.94a14.59,14.59,0,0,1-.62-2.85c-2-.11-3.63-.31-3.63-.31S229.51,74.59,231.36,75.94Z"/><path class="cls-50" d="M247.15,76.65a3.15,3.15,0,0,0,.29-.22c1.84-1.43,4.66-3.69,4.66-3.69s-2.1.15-4.32.25A30.64,30.64,0,0,1,247.15,76.65Z"/><path class="cls-51" d="M227.11,72.78A50.83,50.83,0,0,1,231,76.53c.81.86,2.18,3.66,6.66,3.46s6.71,0,8.17-1.21a45,45,0,0,0,3.42-3.55c1.17-1.14,2.81-2.49,2.81-2.49l-5,2.65A20.46,20.46,0,0,1,241,77.26c-1.74.15-4.84.33-6.85-.68S227.11,72.78,227.11,72.78Z"/><path class="cls-52" d="M244.26,78.58a29.19,29.19,0,0,1-8.58.29,10.46,10.46,0,0,1-4-1.54,6.62,6.62,0,0,0,6,2.66c4.47-.21,6.71,0,8.17-1.21a45,45,0,0,0,3.42-3.55C247.44,76.08,246,78.08,244.26,78.58Z"/><path class="cls-51" d="M227.11,72.78a26.06,26.06,0,0,0,5.09-.22,27.55,27.55,0,0,1,6-.23,22.69,22.69,0,0,0,4-.08,35.58,35.58,0,0,1,5,.25l5,.24s-2.72.75-4.58,1-6.21.48-7.82.51-5.23-.13-7-.33S227.11,72.78,227.11,72.78Z"/><path class="cls-52" d="M247.52,73.76c1.86-.27,4.58-1,4.58-1l-.73,0a21.86,21.86,0,0,1-7,.53c-1.49,0-3.72.43-5.09.34s-4.23-.15-7-.21a19.26,19.26,0,0,1-3.78-.55c-.85,0-1.45,0-1.45,0s3.87,1,5.62,1.16,5.35.36,7,.33S245.66,74,247.52,73.76Z"/><path class="cls-6" d="M240.32,68c.74-.37,1.22-1.19,1.71-1.43.91-.45,2-.27,2.12.31s.14.57-1,.71S240.32,68,240.32,68Z"/><path class="cls-6" d="M238.33,67.92c-.75-.22-1-1.14-1.89-1.24s-1.74.15-1.73.73.39.69,1.38.56A12.66,12.66,0,0,1,238.33,67.92Z"/><path class="cls-9" d="M234.92,56.87a19,19,0,0,0-2-1.37,5,5,0,0,0-3.74-1.07A16.48,16.48,0,0,0,223.92,57a9.31,9.31,0,0,0,2.16,1.09,13.91,13.91,0,0,0,5.5.06,11.92,11.92,0,0,1,2.79-.37C234.84,57.74,235.3,57.73,234.92,56.87Z"/><path d="M231.89,58.05a2.47,2.47,0,0,0,.37-3,4.22,4.22,0,0,0-3-.66,9.22,9.22,0,0,0-2.08.69,2.49,2.49,0,0,0-.32,1.24,2.59,2.59,0,0,0,1,2,14.6,14.6,0,0,0,3.81-.2Z"/><path class="cls-9" d="M228,57c-.52-.28-.95-1.47-.11-1.57s.19.44.29.7S228.5,57.29,228,57Z"/><path class="cls-9" d="M231,57.69c-.74.11-.29-.35,0-1s.35-1.14.64-.62S231.69,57.59,231,57.69Z"/><path class="cls-6" d="M223.92,57a7.5,7.5,0,0,1,2.49-3,6.17,6.17,0,0,1,5.41-.24,5.92,5.92,0,0,1,2.91,2.49c.19.43.38,1,.38,1S233,54.89,231,54.57a6,6,0,0,0-4.41.61A19.18,19.18,0,0,0,223.92,57Z"/><path class="cls-53" d="M234.94,57.61a.34.34,0,0,0,.07-.35,3.44,3.44,0,0,0-.14-.37l0,0a19.84,19.84,0,0,0-2.6-1.62,4.78,4.78,0,0,0-2.88-.64,10.76,10.76,0,0,0-2.93.73A7.81,7.81,0,0,0,224,57l0,0a5.47,5.47,0,0,1,2.35-2,7.64,7.64,0,0,1,3.13-.73,5.21,5.21,0,0,1,1.62.19,6.42,6.42,0,0,1,1.46.65,17.19,17.19,0,0,1,2.5,1.79h0a2.62,2.62,0,0,1,.11.4.74.74,0,0,1,0,.21.32.32,0,0,1-.1.19Z"/><path class="cls-53" d="M223.94,57a9.48,9.48,0,0,0,2.57,1,15.27,15.27,0,0,0,2.8.24,14.15,14.15,0,0,0,2.82-.3,13.44,13.44,0,0,1,1.42-.18,5.83,5.83,0,0,1,.72,0,1.26,1.26,0,0,0,.68-.1l0,0a1.15,1.15,0,0,1-.7.14c-.24,0-.48,0-.71.06-.47.06-.94.15-1.4.25a14.3,14.3,0,0,1-2.85.41,11.79,11.79,0,0,1-2.9-.17A6.63,6.63,0,0,1,223.91,57Z"/><path class="cls-9" d="M244.84,56.47a18.17,18.17,0,0,1,1.95-1.4,5,5,0,0,1,3.72-1.15,16.31,16.31,0,0,1,5.33,2.43,9.12,9.12,0,0,1-2.14,1.13,13.68,13.68,0,0,1-5.5.17,12.15,12.15,0,0,0-2.8-.31C244.94,57.34,244.47,57.34,244.84,56.47Z"/><path d="M247.89,57.59a2.54,2.54,0,0,1-.72-1.74,2.37,2.37,0,0,1,.31-1.21,4.21,4.21,0,0,1,3-.72,8.66,8.66,0,0,1,2.09.65,2.47,2.47,0,0,1,.34,1.23,2.57,2.57,0,0,1-.92,2,14.69,14.69,0,0,1-3.82-.13Z"/><path class="cls-9" d="M251.73,56.5c.52-.29.93-1.48.09-1.56s-.18.43-.27.7S251.27,56.77,251.73,56.5Z"/><path class="cls-9" d="M248.74,57.21c.74.1.28-.35,0-1s-.37-1.13-.65-.6S248.09,57.12,248.74,57.21Z"/><path class="cls-6" d="M255.84,56.35a7.4,7.4,0,0,0-2.54-3,6.16,6.16,0,0,0-5.4-.13A5.94,5.94,0,0,0,245,55.78c-.18.43-.37,1-.37,1s2-2.36,4.09-2.73a6,6,0,0,1,4.42.52A19.38,19.38,0,0,1,255.84,56.35Z"/><path class="cls-53" d="M244.83,57.22a.36.36,0,0,1-.07-.36,1.82,1.82,0,0,1,.13-.37v0a19.08,19.08,0,0,1,2.56-1.67,4.89,4.89,0,0,1,2.88-.7,10.75,10.75,0,0,1,2.94.67,7.69,7.69,0,0,1,2.55,1.56l.05,0a5.42,5.42,0,0,0-2.38-2,7.82,7.82,0,0,0-3.14-.66,5.24,5.24,0,0,0-1.62.22,6.35,6.35,0,0,0-1.44.68,18.74,18.74,0,0,0-2.48,1.84h0a1.4,1.4,0,0,0-.11.4.74.74,0,0,0,0,.21.29.29,0,0,0,.11.19Z"/><path class="cls-53" d="M255.83,56.34a10.19,10.19,0,0,1-2.56,1.08,16.21,16.21,0,0,1-2.8.29,13.39,13.39,0,0,1-2.82-.25,13.58,13.58,0,0,0-1.43-.15c-.24,0-.48,0-.72,0a1.28,1.28,0,0,1-.68-.08l0,0a1.2,1.2,0,0,0,.7.12l.71,0c.47.05.94.13,1.4.22a14.44,14.44,0,0,0,2.86.36,11.29,11.29,0,0,0,2.89-.23,6.69,6.69,0,0,0,2.49-1.39Z"/><path class="cls-54" d="M246.52,90.74c-2.31-.83-3.46-2.81-6.72-1.77-2.39.76-3.21,2.87-4.11,3.94a20.24,20.24,0,0,0,4.75.66,15.19,15.19,0,0,0,8.05-1.81A10.07,10.07,0,0,0,246.52,90.74Z"/><path class="cls-6" d="M245.58,58.26a3.62,3.62,0,0,0,2.07,1.14,10,10,0,0,0,2.43.22c.81-.07,1.58-.36,2.42-.49a5.32,5.32,0,0,1,2.51.15v0a7.89,7.89,0,0,0-2.43.16,16.11,16.11,0,0,1-2.47.43,10.39,10.39,0,0,1-2.5-.34,3.65,3.65,0,0,1-2-1.28Z"/><path class="cls-6" d="M233.38,58.7a2.79,2.79,0,0,1-1.64,1.21,8.46,8.46,0,0,1-2.12.19c-.7,0-1.4,0-2.09,0a6.69,6.69,0,0,0-2.05.09l0,0a4.23,4.23,0,0,1,2.07-.41c.71,0,1.4.06,2.1.09a7.84,7.84,0,0,0,2.06-.08,2.7,2.7,0,0,0,1.66-1.06Z"/><path class="cls-53" d="M221.13,53.88c.76-1,1.19-3.32,2.62-4.3a12.59,12.59,0,0,1,5.81-1.9c2.71-.26,5.51-.57,5.43.11a6.59,6.59,0,0,1-1.12,2.69c-.41.34-4.91.06-7,.71-3.49,1.11-3.59,2.1-4.54,2.64S221.13,53.88,221.13,53.88Z"/><path class="cls-53" d="M258.14,53.54c-.79-1-1.29-3.28-2.75-4.22a12.67,12.67,0,0,0-5.87-1.72c-2.71-.16-5.52-.38-5.42.29a6.83,6.83,0,0,0,1.2,2.66c.42.33,4.92-.1,7,.48,3.53,1,3.66,2,4.62,2.49S258.14,53.54,258.14,53.54Z"/><path class="cls-53" d="M216.63,56.33c.29.78.59,1.82,1,2.76s.64,3.82,1,4,.62-1.66.58-3.92-.38-5.21-.35-8.43.49-8.27,3.5-11.8A14.9,14.9,0,0,1,232,33.68c2.7-.23,6.83,1.25,10.09.92s7.62-1.11,10.82.22a13.71,13.71,0,0,1,6.94,7.33c.7,2.38.9,7.56,1.21,10.85a23.36,23.36,0,0,1-.4,5.64c-.06,1.56-.21,4.28-.21,4.28a34.53,34.53,0,0,1,1.39-5.24,4.76,4.76,0,0,1,2.28-2.57h0c.4-.12.64-6.19.7-7,.23-2.87-.9-8.07-2.08-11.26A19.83,19.83,0,0,0,254,26.71a28.69,28.69,0,0,0-8.85-2.55c-3.29-.51-7-1.06-10.37-.53-3.74.61-7.09,2.74-10,4.88-2.46,1.8-5.24,3.93-6.66,6.58-1.14,2.11-.73,3-1.21,5.27a24.37,24.37,0,0,0-.48,7C216.53,49.73,215.76,54,216.63,56.33Z"/><path class="cls-55" d="M232.78,60.75a.09.09,0,1,1-.09-.09A.09.09,0,0,1,232.78,60.75Z"/><path class="cls-55" d="M233.79,61.06a.09.09,0,0,1-.18,0,.09.09,0,1,1,.18,0Z"/><path class="cls-55" d="M234.06,60.44a.09.09,0,0,1-.09.09.1.1,0,0,1-.1-.09.11.11,0,0,1,.1-.1A.1.1,0,0,1,234.06,60.44Z"/><path class="cls-55" d="M234.84,60a.09.09,0,0,1-.18,0,.09.09,0,1,1,.18,0Z"/><path class="cls-55" d="M234.93,60.89a.09.09,0,1,1-.09-.09A.09.09,0,0,1,234.93,60.89Z"/><path class="cls-55" d="M230.2,61.6a.09.09,0,1,1-.18,0,.09.09,0,1,1,.18,0Z"/><path class="cls-55" d="M231.61,63.29a.1.1,0,0,1-.1.09.09.09,0,1,1,0-.18A.1.1,0,0,1,231.61,63.29Z"/><path class="cls-55" d="M229.93,64.36a.09.09,0,1,1-.09-.09A.09.09,0,0,1,229.93,64.36Z"/><path class="cls-55" d="M228.53,62.85a.09.09,0,1,1-.18,0,.09.09,0,1,1,.18,0Z"/><path class="cls-55" d="M226.78,61.33a.09.09,0,1,1-.18,0,.09.09,0,0,1,.18,0Z"/><path class="cls-55" d="M231.51,62a.09.09,0,0,1-.18,0,.09.09,0,1,1,.18,0Z"/><path class="cls-55" d="M232.3,62.05a.09.09,0,0,1-.18,0,.09.09,0,1,1,.18,0Z"/><path class="cls-55" d="M232.92,62.58a.1.1,0,0,1-.1.09.09.09,0,1,1,0-.18A.1.1,0,0,1,232.92,62.58Z"/><path class="cls-55" d="M233.35,61.87a.09.09,0,0,1-.18,0,.09.09,0,1,1,.18,0Z"/><path class="cls-55" d="M237,59.19a.09.09,0,0,1-.1.1.09.09,0,0,1-.09-.1.09.09,0,0,1,.09-.09A.09.09,0,0,1,237,59.19Z"/><path class="cls-55" d="M237.47,60.18a.09.09,0,0,1-.18,0,.09.09,0,1,1,.18,0Z"/><path class="cls-55" d="M238.26,59.19a.09.09,0,1,1-.18,0,.09.09,0,0,1,.18,0Z"/><path class="cls-55" d="M238.7,60.08a.09.09,0,1,1-.18,0,.09.09,0,1,1,.18,0Z"/><path class="cls-55" d="M239.58,61.51a.09.09,0,0,1-.09.09.09.09,0,1,1,0-.18A.09.09,0,0,1,239.58,61.51Z"/><path class="cls-55" d="M238.53,61.77a.09.09,0,0,1-.09.1.1.1,0,0,1-.1-.1.1.1,0,0,1,.1-.09A.09.09,0,0,1,238.53,61.77Z"/><path class="cls-55" d="M240.36,62.93a.09.09,0,1,1-.18,0,.09.09,0,0,1,.18,0Z"/><path class="cls-55" d="M239.05,58a.09.09,0,1,1-.18,0,.09.09,0,1,1,.18,0Z"/><path class="cls-55" d="M239.4,58.75a.09.09,0,0,1-.18,0,.09.09,0,1,1,.18,0Z"/><path class="cls-55" d="M240.71,59.81a.09.09,0,1,1-.09-.09A.09.09,0,0,1,240.71,59.81Z"/><path class="cls-55" d="M241.32,57.76a.09.09,0,1,1-.18,0,.09.09,0,0,1,.18,0Z"/><path class="cls-55" d="M242.91,59.55a.09.09,0,0,1-.18,0,.09.09,0,1,1,.18,0Z"/><path class="cls-55" d="M243.52,61.33a.09.09,0,1,1-.09-.09A.09.09,0,0,1,243.52,61.33Z"/><path class="cls-55" d="M244.22,60.35a.1.1,0,0,1-.1.09.09.09,0,0,1,0-.18A.1.1,0,0,1,244.22,60.35Z"/><path class="cls-55" d="M245.1,61.41a.1.1,0,0,1-.09.1.09.09,0,0,1-.1-.1.09.09,0,0,1,.1-.09A.1.1,0,0,1,245.1,61.41Z"/><path class="cls-55" d="M246.14,61.24a.09.09,0,1,1-.09-.09A.09.09,0,0,1,246.14,61.24Z"/><path class="cls-55" d="M246.32,62.75a.09.09,0,1,1-.18,0,.09.09,0,1,1,.18,0Z"/><path class="cls-55" d="M248.25,63.38a.09.09,0,0,1-.09.09.09.09,0,1,1,0-.18A.09.09,0,0,1,248.25,63.38Z"/><path class="cls-55" d="M250.09,63.74a.09.09,0,0,1-.09.09.09.09,0,0,1-.1-.09.09.09,0,0,1,.1-.1A.09.09,0,0,1,250.09,63.74Z"/><path class="cls-55" d="M249.92,65.08a.09.09,0,0,1-.1.09.09.09,0,0,1-.09-.09.1.1,0,0,1,.09-.1A.1.1,0,0,1,249.92,65.08Z"/><path class="cls-55" d="M252.63,63a.09.09,0,1,1-.18,0,.09.09,0,1,1,.18,0Z"/><path class="cls-55" d="M246.32,60.53a.09.09,0,1,1-.18,0,.09.09,0,0,1,.18,0Z"/><path class="cls-55" d="M247.63,61.06a.09.09,0,1,1-.18,0,.09.09,0,1,1,.18,0Z"/><path class="cls-55" d="M247.9,62.13a.09.09,0,1,1-.18,0,.09.09,0,0,1,.18,0Z"/><path class="cls-55" d="M249.48,62.14a.09.09,0,0,1-.09.09.1.1,0,0,1-.1-.09.1.1,0,0,1,.1-.1A.09.09,0,0,1,249.48,62.14Z"/><path class="cls-55" d="M245.09,60.62a.09.09,0,0,1-.18,0,.09.09,0,1,1,.18,0Z"/><path class="cls-55" d="M244.13,59.46a.09.09,0,1,1-.18,0,.09.09,0,1,1,.18,0Z"/><path class="cls-6" d="M245.5,65c.38.41.82.71.73,1.34s-.53,1-1,1a1.2,1.2,0,0,0,.65-.85,2.2,2.2,0,0,0-.38-1.43Z"/><path class="cls-6" d="M233.19,65a2,2,0,0,0-.29,1.88c.27.68.74.88,1.44,1.11a1.69,1.69,0,0,1-1.17-.08,1.52,1.52,0,0,1-.7-.81,2.06,2.06,0,0,1,0-1.05,4,4,0,0,1,.16-.49A1.58,1.58,0,0,1,233.19,65Z"/><path class="cls-56" d="M179.87,231.61c-35-2.15-65.69,32.71-68.47,77.87s23.38,83.52,58.42,85.67,65.69-32.71,68.47-77.87S214.91,233.77,179.87,231.61ZM222.05,316c-2.39,38.86-28.89,68.86-59.2,67s-52.93-34.89-50.54-73.75,28.89-68.87,59.2-67S224.44,277.08,222.05,316Z"/><ellipse class="cls-57" cx="167.18" cy="312.57" rx="70.51" ry="54.98" transform="translate(-155.06 460.25) rotate(-86.48)"/><ellipse class="cls-56" cx="162.97" cy="308.85" rx="5.47" ry="6.68"/><path class="cls-9" d="M87.94,124.87s9.94,7.83,22.64,6.65l1.6,20.25-26.31-9.9Z"/><path class="cls-58" d="M187.59,236.17s11.06,8.46,17.79,11.22,6,2.08,7.77,2.59.35,7.43,1,8,15-3.46,14.67-10.88S210.21,230.47,203,230.3,187.59,236.17,187.59,236.17Z"/><path class="cls-56" d="M111.56,322.12s88.15,5.49,92.6.87c6.08-6.32,1.54-40.92-59.61-39.79C85.46,284.3,112.15,315,111.56,322.12Z"/><path class="cls-56" d="M201.42,435.7h-.69a53.56,53.56,0,0,1-13.93-1.76c-4-1.17-6.61-2.77-7.65-4.77-.92-1.78-1.63-7-3.6-22.82-1.61-12.9-3.61-29-6.14-43.24-3.58-20.27-6.69-27.74-8.67-30.43-4.66-6.34-14.49-7.24-21.91-6.88a78.41,78.41,0,0,0-16,2.59l-1.64-5.56c1.33-.39,32.65-9.37,44.25,6.42,3.5,4.77,6.59,15.21,9.71,32.85,2.55,14.42,4.56,30.56,6.18,43.54,1.17,9.35,2.37,19,3,20.85.85,1,6.22,3.42,17.11,3.42h.15c8.79,0,23-1.67,40.9-9.43a45.05,45.05,0,0,0,8.32-4.37c-1.84-.47-5.87-1.05-14.5-.92-7.24.11-14,.68-14.08.68l-.49-5.77c.33,0,8.07-.68,16.11-.72a84.51,84.51,0,0,1,11.61.59c3.32.48,7.24,1.43,8,4.61.53,2.12-.56,4.2-3.25,6.19a50.26,50.26,0,0,1-9.45,5C226,433.94,211,435.7,201.42,435.7Zm-17.08-9.12Zm-.08-.14Z"/><path class="cls-9" d="M88.48,137.75S78,140.34,76.22,141.2,91,248,90.6,247.42c-3.41-4.5,43.6-.46,57.36-3.26,1.36-.27,3-24.74,3-24.74L127.8,159.21a26.25,26.25,0,0,0-17-15.76h0S102.81,147.07,88.48,137.75Z"/><path class="cls-7" d="M119.71,148.19c8.91,6.44,25.79,99.73,19.32,103.86-12.37,7.9,23.64,7.78,26.75,3.29s-24.81-95-27.57-98.77S119.71,148.19,119.71,148.19Z"/><path class="cls-7" d="M137.37,158.17c1.7-.06,27,41,29.16,45.54,1.63,3.52,5.52,10,10.19,13.47S208.25,226,208.25,226s-18.74,12.82-17,21.45-26.26-.42-32.3-7.33-18-40.23-18-40.23S122.35,158.69,137.37,158.17Z"/><path class="cls-59" d="M143.83,192.24s5,22.19,8.27,31.28,3.16,10.59,3.16,10.59S150.16,207.07,143.83,192.24Z"/><path class="cls-60" d="M88.77,132c2.17-.06,10.08,3.48,12.38,4.22a20.49,20.49,0,0,0,11.73.09c4.41-1.5,6.07-2.17,7.8-4.21s3.64-4.46,3.64-4.46-.35,1.91-.67,4.27-1.12,3.31-.21,4.81a6.64,6.64,0,0,1,1,3.8,75.39,75.39,0,0,1-.63,9.24c-.2,1.62-.63,2.91-.77,4.61a39.39,39.39,0,0,0,.13,6.22c.51,5.9-1.11,11.06-1.28,14.36s-2.42-1-4.62-2.05S102.36,161.65,99.49,159s-4.28-4.79-5.18-7.92-4.3-5.74-7-7.92a15.45,15.45,0,0,1-4-5.52s.49-.35,1.49-2.68a11.6,11.6,0,0,0,1-4.24Z"/><path class="cls-61" d="M120.68,132.09c-1.73,2-3.39,2.71-7.8,4.21a20.49,20.49,0,0,1-11.73-.09c-2.3-.74-10.21-4.28-12.38-4.22l-2.93-1.31a11.6,11.6,0,0,1-1,4.24c-1,2.33-1.49,2.68-1.49,2.68a15.45,15.45,0,0,0,4,5.52c2.65,2.18,6.06,4.79,7,7.92s2.31,5.23,5.18,7.92c2.38,2.23,17.56,14.53,22.27,17.52-.2-.36,1.75-19.44,1.25-22-.66,10-2,19.75-2.41,19.46-10.57-7.89-9.8-11-9.8-11-1-2.7,1-3.66,4-5.75s-1.64-3.56-4.25-3.7-4.78-.9-6.33-3,4.15-.35,9.2-2.25c6.18-2.32,7.17-5.61,7.09-6.14-.26-1.65-3.47,1.36-6.91,2a7.21,7.21,0,0,1-5.81-1.42s6.39-1,10.86-4.68c3.74-3.09,5.33-8.7,5.76-10.89C123.91,127.74,122.15,130.36,120.68,132.09Z"/><path class="cls-60" d="M92,141.44c2.57-.12,5.5,1.2,8.81,2.32s6.71,2,9,1.74,5.75-.75,4.74-.19-7.11,2.47-9.75,2.19-5.77-2.1-8.06-3.65A22.86,22.86,0,0,0,92,141.44Z"/><path class="cls-60" d="M90.37,139.65c-.36.2,4.22,0,6.39.79s5.78,2.1,8.72,1.78a15.75,15.75,0,0,0,5.34-1.65,10.65,10.65,0,0,1-5.16.12C102.43,140.1,92.37,138.52,90.37,139.65Z"/><path class="cls-62" d="M96.54,136.22s3.55,1.32,7.58,3.31c1.78.88,6.7,2.65,10,1.74s4.42-1.72,5.84-4,4.45-10,4.45-10-3.67,5.77-5.74,7.31-8.29,4.56-11.81,3.88S96.54,136.22,96.54,136.22Z"/><path class="cls-63" d="M112.61,152.15c2.42-.23,5.8,2.24,7.66,1s.71-4.2,1.84-6.56,1.66-3.39,1.15-5.76a12.22,12.22,0,0,1-.31-3.77,7.86,7.86,0,0,1-2.28,2,27.42,27.42,0,0,1-3.77,2.08,27.32,27.32,0,0,0,3.82-.87c1.43-.49,1.62-.11,1.56,1.26s.06.4-.81,2.72-1.67,4.62-2.75,4.65-5-.18-6.34.85,2.14-1.15,3.33.43S112.61,152.15,112.61,152.15Z"/><path class="cls-64" d="M108.46,152a14.52,14.52,0,0,1,6.5,1.89c1.3,1,2.27,2.16,3.82,1.53s1.69-1.34,2.11-3.14,1.12-5.37,1.12-5.37a15.67,15.67,0,0,1-1.74,4c-1,1.3-.89,2.71-2.51,2.46S109.12,151.27,108.46,152Z"/><path class="cls-64" d="M113.1,149.78s2-1.73,3.64-1.3,2.71.72,3.47-1.28,1.54-3.65,1.54-3.65a13.89,13.89,0,0,1-1.92,6.15c-1.41,2.22-3.92-.46-3.92-.46Z"/><path class="cls-60" d="M112.91,156.09c-.19-1.73-5-1-7.11-2.3s-6.93-5.39-6.93-5.39,4.15,9.47,7.12,10.19S113.1,157.82,112.91,156.09Z"/><path class="cls-58" d="M111.58,80.11c1.7,0,8,3.36,11.24,7.69s4,13.89,4.72,16.79.7,8.63.33,13.13c-.47,5.88-4.51,10.77-6.27,14.09-1,1.95-2.21,5.87-5.61,7a14.64,14.64,0,0,1-10.09-.78c-2.4-1.15-9.06-3.76-11.73-6s-4.82-7.77-5.33-14.28c-.5-6.33.63-15.83-.22-18.29s1.4-12.8,8-16.1S111.58,80.11,111.58,80.11Z"/><path class="cls-65" d="M115.34,112.21s-1.11-1-.85-3.74,1.52-4.15,2.89-4.58,3.2-.49,3,.23-3.33,3-4.26,4.09S115.29,111.79,115.34,112.21Z"/><path class="cls-6" d="M108.49,118.55a5.22,5.22,0,0,0-.68,2,1.4,1.4,0,0,0,0,.57,1.06,1.06,0,0,0,.12.26,1.46,1.46,0,0,0,.17.24,1.38,1.38,0,0,0,1,.5v0a2.31,2.31,0,0,1-.71-.68,1.41,1.41,0,0,1-.33-.86,5.9,5.9,0,0,1,.44-2Z"/><path class="cls-6" d="M106.41,110.4a3.79,3.79,0,0,0-2.09-2.75,7.1,7.1,0,0,0-5.57.19c-1.58.61-3.16,2.92-3.16,2.92s4-2,6.06-1.49S106.41,110.4,106.41,110.4Z"/><path class="cls-9" d="M106.19,110a7.59,7.59,0,0,0-3.17-1.78,6.62,6.62,0,0,0-4.51.84c-1.34.81-2.42,1.53-2.42,1.53s1.94,1.05,3,1.59a4.76,4.76,0,0,0,3.29.32c1.18-.24,2.51-1.41,3.16-1.49S106.7,110.64,106.19,110Z"/><path class="cls-66" d="M98.58,109.7a2.74,2.74,0,0,1,0-.64,6.64,6.64,0,0,1,4.44-.8,4.94,4.94,0,0,1,1,.31,2.78,2.78,0,1,1-5.41,1.13Z"/><path class="cls-9" d="M103.2,108.9a1.18,1.18,0,0,1-.36,1.69c-.84.54.1-.29-.19-.75C102.25,109.19,102.68,108.49,103.2,108.9Z"/><path class="cls-9" d="M100.21,109.57a1.57,1.57,0,0,0,.16,1.15c0,.1.64.48.35.77s-.94.1-1-.77A1.08,1.08,0,0,1,100.21,109.57Z"/><path class="cls-67" d="M106.41,110.4a5.63,5.63,0,0,0-2.12-1.89,5.7,5.7,0,0,0-2.87-.58,6.78,6.78,0,0,0-3.13.78c-.84.53-2.39,1.3-2.89,2.14a1.43,1.43,0,0,0,1.13-.08c.52-.3,1.53-1.09,2.35-1.5a7.66,7.66,0,0,1,2.57-.82,5.19,5.19,0,0,1,2.7.36,6.46,6.46,0,0,1,2.29,1.7Z"/><path class="cls-6" d="M123.86,106.38a5,5,0,0,0-1.6-1.57,4.77,4.77,0,0,0-4.19-.14,4.4,4.4,0,0,0-2.55,2.65,8,8,0,0,0-.46,1.75s1.75-2.94,4.48-3.08A12.89,12.89,0,0,1,123.86,106.38Z"/><path class="cls-9" d="M115.11,108.61a10.92,10.92,0,0,1,1.54-2,6.6,6.6,0,0,1,4.21-1.57,21,21,0,0,1,3.58.64s-.82,1.46-1,1.81a4.71,4.71,0,0,1-2,2,5.82,5.82,0,0,1-4,.24,7.67,7.67,0,0,0-2.06-.45C114.61,109.32,115.11,108.61,115.11,108.61Z"/><path class="cls-66" d="M116.65,106.64a6.6,6.6,0,0,1,4.21-1.57l.43.06a2.82,2.82,0,0,1,.55,1.37,2.78,2.78,0,0,1-5.52.62.48.48,0,0,1,0-.12Q116.47,106.82,116.65,106.64Z"/><path class="cls-67" d="M115.08,109.21c-.14-.12-.07-.33,0-.47h0a6.9,6.9,0,0,1,1.51-2.06,5.89,5.89,0,0,1,2.24-1.11,8.7,8.7,0,0,1,3.09-.18,10.73,10.73,0,0,1,2.7.44,5.66,5.66,0,0,0-5.7-.91,7.82,7.82,0,0,0-2.57,1.5,6.61,6.61,0,0,0-1.38,2.28h0a1,1,0,0,0-.08.3.31.31,0,0,0,.13.28Z"/><path class="cls-9" d="M120.75,106a1.18,1.18,0,0,1-.36,1.68c-.85.55.09-.28-.2-.74C119.79,106.29,120.22,105.58,120.75,106Z"/><path class="cls-9" d="M117.75,106.67a1.57,1.57,0,0,0,.16,1.15c0,.1.64.47.35.76s-.94.11-1-.76A1.08,1.08,0,0,1,117.75,106.67Z"/><g class="cls-13"><path class="cls-58" d="M119.72,110.5c2.31-.87,2.54-1.68,5.86.71,1.7,1.22,2.78,6.45.41,10.07-2.11,3.22-2.15,1.84-3.77-.48s-3.32-3-4.65-5.56S118.5,111,119.72,110.5Z"/><path class="cls-68" d="M119.76,110.54c2.25-.85,2.5-1.65,5.75.68,1.67,1.2,2.75,6.32.43,9.86-2.08,3.16-2.12,1.81-3.71-.46s-3.27-2.89-4.57-5.43S118.56,111,119.76,110.54Z"/><path class="cls-68" d="M119.79,110.58c2.21-.84,2.47-1.62,5.66.65,1.63,1.17,2.7,6.19.43,9.66-2,3.1-2.08,1.78-3.64-.45s-3.22-2.82-4.5-5.31S118.62,111,119.79,110.58Z"/><path class="cls-69" d="M119.83,110.61c2.15-.81,2.42-1.59,5.55.64,1.61,1.14,2.67,6,.44,9.44-2,3-2,1.75-3.57-.43s-3.16-2.74-4.42-5.18S118.68,111.05,119.83,110.61Z"/><path class="cls-69" d="M119.86,110.65c2.11-.79,2.39-1.56,5.46.61,1.57,1.11,2.63,5.91.45,9.24-2,3-2,1.71-3.51-.42s-3.11-2.67-4.35-5S118.74,111.07,119.86,110.65Z"/><path class="cls-70" d="M119.9,110.69c2-.78,2.35-1.54,5.35.58,1.54,1.09,2.59,5.78.46,9-1.9,2.91-2,1.67-3.44-.41s-3.06-2.6-4.27-4.93S118.79,111.1,119.9,110.69Z"/><path class="cls-70" d="M119.93,110.72c2-.75,2.31-1.5,5.26.56,1.51,1.06,2.55,5.65.47,8.83-1.87,2.85-1.94,1.64-3.38-.39s-3-2.52-4.2-4.8S118.85,111.13,119.93,110.72Z"/><path class="cls-71" d="M120,110.76c2-.74,2.28-1.48,5.16.54,1.48,1,2.52,5.51.48,8.62-1.82,2.78-1.89,1.6-3.31-.38s-3-2.45-4.12-4.67S118.91,111.16,120,110.76Z"/><path class="cls-71" d="M120,110.8c1.91-.72,2.24-1.45,5.06.51,1.45,1,2.47,5.38.49,8.41-1.78,2.73-1.86,1.58-3.26-.36s-2.89-2.38-4-4.54S119,111.19,120,110.8Z"/><path class="cls-72" d="M120,110.84c1.86-.7,2.2-1.43,5,.48,1.42,1,2.44,5.25.5,8.21-1.74,2.66-1.82,1.54-3.19-.35s-2.83-2.3-4-4.42S119,111.22,120,110.84Z"/><path class="cls-73" d="M120.07,110.87c1.81-.68,2.16-1.39,4.86.46,1.38,1,2.39,5.11.51,8-1.7,2.6-1.79,1.5-3.13-.34s-2.78-2.23-3.89-4.29S119.09,111.24,120.07,110.87Z"/><path class="cls-73" d="M120.1,110.91c1.76-.66,2.13-1.36,4.76.44,1.36.92,2.36,5,.52,7.79-1.66,2.54-1.75,1.47-3.06-.31s-2.73-2.17-3.81-4.17A2.63,2.63,0,0,1,120.1,110.91Z"/><path class="cls-74" d="M120.14,111c1.71-.65,2.08-1.34,4.66.41,1.32.9,2.32,4.84.52,7.59-1.61,2.47-1.71,1.43-3-.3s-2.68-2.09-3.74-4.05A2.56,2.56,0,0,1,120.14,111Z"/><path class="cls-75" d="M120.17,111c1.66-.63,2-1.31,4.56.38,1.29.87,2.28,4.71.54,7.39-1.57,2.41-1.68,1.4-2.93-.29s-2.62-2-3.66-3.92A2.49,2.49,0,0,1,120.17,111Z"/><path class="cls-76" d="M120.21,111c1.61-.6,2-1.28,4.46.37,1.26.84,2.24,4.57.54,7.17-1.53,2.35-1.64,1.37-2.86-.27s-2.57-2-3.59-3.79A2.44,2.44,0,0,1,120.21,111Z"/><path class="cls-77" d="M120.24,111.06c1.56-.59,2-1.25,4.37.34,1.22.81,2.2,4.44.55,7-1.49,2.28-1.61,1.33-2.8-.26s-2.52-1.87-3.51-3.67A2.36,2.36,0,0,1,120.24,111.06Z"/><path class="cls-78" d="M120.27,111.1c1.52-.57,1.94-1.23,4.27.31,1.19.79,2.16,4.3.56,6.76-1.44,2.23-1.57,1.3-2.73-.24s-2.46-1.8-3.44-3.54A2.3,2.3,0,0,1,120.27,111.1Z"/><path class="cls-79" d="M120.31,111.13c1.46-.55,1.9-1.19,4.17.29,1.16.77,2.12,4.17.57,6.56-1.41,2.16-1.54,1.26-2.67-.23S120,116,119,114.34A2.24,2.24,0,0,1,120.31,111.13Z"/><path class="cls-79" d="M120.34,111.17c1.42-.53,1.86-1.17,4.07.27,1.13.73,2.09,4,.58,6.35-1.36,2.09-1.49,1.23-2.61-.22s-2.35-1.65-3.28-3.28A2.17,2.17,0,0,1,120.34,111.17Z"/><path class="cls-80" d="M120.38,111.21c1.36-.51,1.82-1.14,4,.24,1.1.71,2,3.9.58,6.14-1.32,2-1.45,1.2-2.54-.2s-2.29-1.58-3.2-3.16A2.09,2.09,0,0,1,120.38,111.21Z"/><path class="cls-80" d="M120.41,111.25c1.32-.5,1.79-1.12,3.87.21,1.07.68,2,3.77.6,5.94-1.28,2-1.42,1.16-2.48-.19s-2.24-1.51-3.13-3A2,2,0,0,1,120.41,111.25Z"/><path class="cls-81" d="M120.45,111.28c1.26-.47,1.75-1.08,3.77.19,1,.66,2,3.64.6,5.73-1.23,1.91-1.38,1.13-2.41-.17s-2.19-1.43-3-2.9A2,2,0,0,1,120.45,111.28Z"/><path class="cls-81" d="M120.48,111.32c1.22-.46,1.71-1,3.67.17,1,.62,1.93,3.49.62,5.52-1.2,1.85-1.35,1.09-2.35-.16s-2.13-1.36-3-2.78A1.89,1.89,0,0,1,120.48,111.32Z"/><path class="cls-82" d="M120.52,111.36c1.16-.44,1.67-1,3.57.14,1,.6,1.89,3.36.62,5.32-1.15,1.78-1.31,1.06-2.28-.15s-2.08-1.29-2.9-2.65A1.82,1.82,0,0,1,120.52,111.36Z"/><path class="cls-82" d="M120.55,111.4c1.12-.43,1.64-1,3.47.11.94.57,1.85,3.23.64,5.11-1.12,1.72-1.28,1-2.22-.13s-2-1.21-2.83-2.52A1.75,1.75,0,0,1,120.55,111.4Z"/><path class="cls-83" d="M120.59,111.43c1.06-.4,1.59-1,3.37.1.91.54,1.81,3.09.64,4.9-1.07,1.66-1.24,1-2.15-.12s-2-1.14-2.75-2.4A1.68,1.68,0,0,1,120.59,111.43Z"/><path class="cls-84" d="M120.62,111.47c1-.38,1.56-.94,3.27.07a3.82,3.82,0,0,1,.65,4.7c-1,1.59-1.2,1-2.08-.1s-1.92-1.08-2.68-2.28A1.62,1.62,0,0,1,120.62,111.47Z"/><path class="cls-85" d="M120.65,111.51c1-.37,1.53-.92,3.18,0a3.66,3.66,0,0,1,.66,4.49c-1,1.54-1.17.92-2-.08s-1.87-1-2.6-2.15A1.56,1.56,0,0,1,120.65,111.51Z"/><path class="cls-86" d="M120.69,111.54c.92-.34,1.48-.88,3.07,0a3.46,3.46,0,0,1,.67,4.29c-.94,1.47-1.13.88-2-.07s-1.8-.93-2.52-2A1.5,1.5,0,0,1,120.69,111.54Z"/><path class="cls-87" d="M120.72,111.58c.87-.33,1.45-.86,3,0a3.28,3.28,0,0,1,.68,4.07c-.91,1.41-1.09.86-1.9-.05s-1.75-.86-2.44-1.9A1.42,1.42,0,0,1,120.72,111.58Z"/><path class="cls-88" d="M120.76,111.62a2.61,2.61,0,0,1,2.87,0,3.09,3.09,0,0,1,.69,3.87c-.86,1.35-1,.82-1.83,0s-1.7-.78-2.37-1.77A1.35,1.35,0,0,1,120.76,111.62Z"/><path class="cls-88" d="M120.79,111.66a2.61,2.61,0,0,1,2.78-.06,2.94,2.94,0,0,1,.7,3.67c-.82,1.28-1,.78-1.77,0s-1.64-.71-2.29-1.64A1.28,1.28,0,0,1,120.79,111.66Z"/><path class="cls-89" d="M120.83,111.69a2.56,2.56,0,0,1,2.67-.08,2.75,2.75,0,0,1,.71,3.46c-.78,1.22-1,.75-1.7,0s-1.59-.64-2.21-1.52A1.22,1.22,0,0,1,120.83,111.69Z"/><path class="cls-90" d="M120.86,111.73a2.31,2.31,0,0,1,3.29,3.15c-.73,1.16-.94.71-1.63,0s-1.54-.56-2.14-1.39A1.16,1.16,0,0,1,120.86,111.73Z"/><path class="cls-90" d="M120.9,111.77a2.49,2.49,0,0,1,2.48-.13,2.41,2.41,0,0,1,.72,3c-.7,1.09-.91.68-1.57,0s-1.48-.49-2.06-1.26A1.08,1.08,0,0,1,120.9,111.77Z"/><path class="cls-91" d="M120.93,111.81a2.49,2.49,0,0,1,2.38-.16,2.24,2.24,0,0,1,.73,2.84c-.65,1-.87.65-1.5,0s-1.43-.42-2-1.13A1,1,0,0,1,120.93,111.81Z"/><path class="cls-91" d="M121,111.84a2.54,2.54,0,0,1,2.29-.18,2.08,2.08,0,0,1,.74,2.64c-.61,1-.84.61-1.44,0s-1.38-.34-1.91-1A1,1,0,0,1,121,111.84Z"/><path class="cls-92" d="M121,111.88a2.48,2.48,0,0,1,2.18-.2,1.88,1.88,0,0,1,.75,2.42c-.57.91-.8.58-1.37.06s-1.32-.27-1.84-.88A.89.89,0,0,1,121,111.88Z"/><path class="cls-92" d="M121,111.92a2.51,2.51,0,0,1,2.09-.23,1.75,1.75,0,0,1,.76,2.22c-.53.84-.77.54-1.32.07s-1.26-.2-1.75-.75A.83.83,0,0,1,121,111.92Z"/><path class="cls-93" d="M121.07,112a2.56,2.56,0,0,1,2-.25c.47.17,1.27,1.21.77,2s-.73.51-1.25.08-1.21-.12-1.68-.63A.77.77,0,0,1,121.07,112Z"/><path class="cls-93" d="M121.1,112a2.6,2.6,0,0,1,1.89-.27c.43.13,1.23,1.07.77,1.8s-.68.48-1.18.1-1.15-.05-1.6-.5A.7.7,0,0,1,121.1,112Z"/><path class="cls-51" d="M121.14,112a2.68,2.68,0,0,1,1.78-.3c.4.11,1.19.94.79,1.6s-.65.44-1.12.12-1.1,0-1.53-.38A.64.64,0,0,1,121.14,112Z"/></g><g class="cls-13"><path class="cls-58" d="M103.34,113.26c-2-.66-5.09-.33-8,2.49-1.52,1.44-3.15,7.64.18,9.59s3.92.41,5.2-2.11,4.91-2.52,5.86-5.27S104.57,113.68,103.34,113.26Z"/><path class="cls-68" d="M103.32,113.3c-1.95-.65-5-.33-7.89,2.42-1.5,1.41-3.1,7.49.15,9.41s3.85.4,5.11-2.07,4.81-2.46,5.75-5.15S104.53,113.71,103.32,113.3Z"/><path class="cls-68" d="M103.3,113.34c-1.9-.64-4.89-.34-7.74,2.36-1.46,1.38-3,7.33.14,9.21s3.76.41,5-2,4.72-2.41,5.64-5.05S104.49,113.74,103.3,113.34Z"/><path class="cls-69" d="M103.29,113.38c-1.87-.62-4.8-.34-7.6,2.29-1.43,1.35-3,7.17.13,9s3.68.41,4.9-2,4.63-2.34,5.54-4.93S104.45,113.77,103.29,113.38Z"/><path class="cls-69" d="M103.27,113.42c-1.82-.61-4.7-.34-7.44,2.23-1.41,1.32-3,7,.1,8.83s3.61.4,4.81-1.92,4.53-2.28,5.43-4.81S104.41,113.8,103.27,113.42Z"/><path class="cls-70" d="M103.25,113.45c-1.78-.59-4.6-.34-7.29,2.17-1.38,1.29-2.89,6.85.09,8.64s3.53.4,4.71-1.86,4.44-2.23,5.32-4.7S104.37,113.82,103.25,113.45Z"/><path class="cls-70" d="M103.23,113.49c-1.74-.58-4.5-.34-7.13,2.11-1.36,1.26-2.85,6.69.07,8.44s3.45.4,4.6-1.81,4.35-2.17,5.22-4.58S104.32,113.85,103.23,113.49Z"/><path class="cls-71" d="M103.21,113.53c-1.69-.56-4.4-.34-7,2-1.32,1.22-2.79,6.53,0,8.24s3.37.4,4.51-1.75,4.26-2.12,5.11-4.48S104.28,113.88,103.21,113.53Z"/><path class="cls-71" d="M103.2,113.57c-1.66-.55-4.31-.35-6.83,2-1.3,1.2-2.75,6.37,0,8.06s3.29.4,4.41-1.71,4.16-2.05,5-4.36S104.24,113.91,103.2,113.57Z"/><path class="cls-72" d="M103.18,113.6c-1.62-.53-4.21-.34-6.68,1.93-1.27,1.16-2.69,6.21,0,7.86s3.21.4,4.3-1.66,4.07-2,4.9-4.24S104.2,113.94,103.18,113.6Z"/><path class="cls-73" d="M103.16,113.64c-1.57-.52-4.11-.34-6.52,1.86-1.25,1.14-2.64,6.06,0,7.67s3.14.4,4.21-1.6,4-1.94,4.79-4.13S104.16,114,103.16,113.64Z"/><path class="cls-73" d="M103.14,113.68a6.56,6.56,0,0,0-6.37,1.8c-1.21,1.1-2.59,5.89,0,7.48s3.06.39,4.11-1.56,3.88-1.88,4.68-4S104.12,114,103.14,113.68Z"/><path class="cls-74" d="M103.13,113.72a6.42,6.42,0,0,0-6.23,1.74c-1.18,1.07-2.53,5.73,0,7.28s3,.39,4-1.51,3.79-1.82,4.57-3.89S104.07,114,103.13,113.72Z"/><path class="cls-75" d="M103.11,113.76A6.27,6.27,0,0,0,97,115.43c-1.16,1-2.49,5.57-.06,7.09s2.9.39,3.91-1.45,3.7-1.76,4.47-3.79S104,114.06,103.11,113.76Z"/><path class="cls-76" d="M103.09,113.79a6.14,6.14,0,0,0-5.92,1.62c-1.13,1-2.43,5.41-.07,6.9s2.82.38,3.81-1.41,3.6-1.7,4.36-3.67S104,114.09,103.09,113.79Z"/><path class="cls-77" d="M103.07,113.83a6,6,0,0,0-5.76,1.55c-1.11,1-2.39,5.26-.1,6.71s2.75.39,3.72-1.35,3.51-1.65,4.25-3.56S104,114.11,103.07,113.83Z"/><path class="cls-78" d="M103.05,113.87a5.86,5.86,0,0,0-5.61,1.49c-1.07,1-2.33,5.09-.11,6.51s2.67.39,3.61-1.3,3.42-1.59,4.15-3.44S103.91,114.14,103.05,113.87Z"/><path class="cls-79" d="M103,113.91a5.68,5.68,0,0,0-5.46,1.43c-1,.91-2.28,4.93-.13,6.32S100,122,101,120.4s3.32-1.53,4-3.32S103.87,114.17,103,113.91Z"/><path class="cls-79" d="M103,113.94a5.58,5.58,0,0,0-5.31,1.37c-1,.88-2.23,4.77-.15,6.13s2.51.38,3.42-1.2,3.23-1.47,3.93-3.22S103.82,114.2,103,113.94Z"/><path class="cls-80" d="M103,114a5.44,5.44,0,0,0-5.16,1.31c-1,.85-2.17,4.61-.16,5.93s2.43.38,3.31-1.15,3.14-1.41,3.83-3.1S103.78,114.23,103,114Z"/><path class="cls-80" d="M103,114a5.28,5.28,0,0,0-5,1.24c-1,.82-2.13,4.46-.18,5.75s2.35.37,3.21-1.11,3-1.35,3.72-3S103.74,114.26,103,114Z"/><path class="cls-81" d="M103,114.06a5.15,5.15,0,0,0-4.86,1.18c-.93.79-2.07,4.29-.2,5.55s2.28.38,3.12-1.05,3-1.3,3.61-2.87S103.7,114.29,103,114.06Z"/><path class="cls-81" d="M103,114.1a5,5,0,0,0-4.7,1.12c-.91.75-2,4.13-.22,5.35s2.19.38,3-1,2.86-1.24,3.51-2.75S103.66,114.32,103,114.1Z"/><path class="cls-82" d="M102.93,114.13a4.89,4.89,0,0,0-4.55,1.06c-.88.73-2,4-.23,5.16s2.11.38,2.91-.94,2.77-1.18,3.4-2.65S103.61,114.35,102.93,114.13Z"/><path class="cls-82" d="M102.91,114.17a4.73,4.73,0,0,0-4.39,1c-.86.69-1.93,3.81-.26,5s2,.37,2.82-.9,2.67-1.12,3.28-2.53S103.57,114.38,102.91,114.17Z"/><path class="cls-83" d="M102.89,114.21a4.6,4.6,0,0,0-4.24.93c-.83.67-1.87,3.66-.27,4.78s2,.37,2.71-.85,2.59-1.06,3.18-2.41S103.53,114.41,102.89,114.21Z"/><path class="cls-84" d="M102.88,114.25a4.45,4.45,0,0,0-4.09.87c-.8.63-1.82,3.49-.3,4.58s1.89.37,2.62-.79,2.49-1,3.07-2.3S103.49,114.44,102.88,114.25Z"/><path class="cls-85" d="M102.86,114.28a4.35,4.35,0,0,0-3.94.82c-.77.6-1.77,3.33-.31,4.39s1.8.37,2.52-.75,2.39-.95,3-2.18S103.45,114.47,102.86,114.28Z"/><path class="cls-86" d="M102.84,114.32a4.22,4.22,0,0,0-3.79.75c-.74.57-1.71,3.18-.32,4.2s1.72.37,2.41-.7,2.31-.88,2.86-2.06S103.41,114.49,102.84,114.32Z"/><path class="cls-87" d="M102.82,114.36a4.06,4.06,0,0,0-3.63.69c-.72.54-1.67,3-.35,4s1.65.37,2.32-.64,2.21-.83,2.75-2S103.36,114.52,102.82,114.36Z"/><path class="cls-88" d="M102.81,114.4a3.93,3.93,0,0,0-3.49.62c-.69.51-1.61,2.86-.36,3.82s1.57.36,2.22-.6,2.11-.77,2.64-1.84A1.49,1.49,0,0,0,102.81,114.4Z"/><path class="cls-88" d="M102.79,114.44a3.8,3.8,0,0,0-3.33.56c-.66.48-1.57,2.69-.38,3.62s1.49.36,2.11-.54,2-.72,2.54-1.73A1.4,1.4,0,0,0,102.79,114.44Z"/><path class="cls-89" d="M102.77,114.47a3.73,3.73,0,0,0-3.18.5c-.63.45-1.51,2.54-.4,3.43s1.41.36,2-.49,1.93-.66,2.43-1.61A1.33,1.33,0,0,0,102.77,114.47Z"/><path class="cls-90" d="M102.75,114.51a3.53,3.53,0,0,0-3,.44c-.61.42-1.46,2.38-.42,3.24s1.33.36,1.92-.45,1.84-.59,2.32-1.49A1.25,1.25,0,0,0,102.75,114.51Z"/><path class="cls-90" d="M102.73,114.55a3.4,3.4,0,0,0-2.87.38c-.58.38-1.41,2.21-.43,3s1.25.36,1.82-.39,1.74-.54,2.21-1.39A1.16,1.16,0,0,0,102.73,114.55Z"/><path class="cls-91" d="M102.72,114.59a3.32,3.32,0,0,0-2.72.31c-.56.36-1.36,2.06-.46,2.85s1.18.36,1.72-.34,1.65-.48,2.11-1.27A1.09,1.09,0,0,0,102.72,114.59Z"/><path class="cls-91" d="M102.7,114.62a3.21,3.21,0,0,0-2.57.26c-.52.32-1.31,1.89-.47,2.65s1.1.36,1.62-.28,1.56-.43,2-1.16A1,1,0,0,0,102.7,114.62Z"/><path class="cls-92" d="M102.68,114.66a3.11,3.11,0,0,0-2.42.19c-.49.3-1.25,1.74-.49,2.47s1,.35,1.53-.24,1.46-.37,1.89-1A.94.94,0,0,0,102.68,114.66Z"/><path class="cls-92" d="M102.66,114.7a3,3,0,0,0-2.26.13c-.47.26-1.21,1.58-.51,2.27s.94.35,1.42-.19,1.38-.3,1.79-.92A.86.86,0,0,0,102.66,114.7Z"/><path class="cls-93" d="M102.65,114.74a2.83,2.83,0,0,0-2.12.07c-.44.22-1.15,1.41-.52,2.07s.86.35,1.32-.13,1.28-.25,1.68-.82A.78.78,0,0,0,102.65,114.74Z"/><path class="cls-93" d="M102.63,114.78a2.79,2.79,0,0,0-2,0c-.41.2-1.11,1.26-.55,1.89s.79.35,1.23-.09,1.18-.19,1.57-.7A.71.71,0,0,0,102.63,114.78Z"/><path class="cls-51" d="M102.61,114.81a2.77,2.77,0,0,0-1.81,0c-.38.16-1,1.1-.56,1.69s.71.35,1.12,0,1.1-.13,1.47-.58A.65.65,0,0,0,102.61,114.81Z"/></g><path class="cls-58" d="M89.87,111.81s-3.45-2.61-5.15-1c-2,1.9.11,5,1.3,6.76a14.93,14.93,0,0,1,2.15,4.65c.27,1.11,1.46,2.5,2.87,1.21a3.2,3.2,0,0,0,.78-3.21A28,28,0,0,1,90.63,116Z"/><path class="cls-67" d="M107,103.17c-.24-.48-1.73-.82-5.68-.81-5.88,0-8.06,5.82-8.06,5.82s2.64-3,5.43-3.31,5.47.79,7,.83S107.24,103.66,107,103.17Z"/><path class="cls-67" d="M113.63,101.16a32.09,32.09,0,0,1,4.72-1.75c6.19-2,7.2,2.38,7.2,2.38a5.84,5.84,0,0,0-4.58-.87c-2.75.57-4.37,2.4-5.81,2.92S113.63,101.16,113.63,101.16Z"/><path class="cls-94" d="M121.48,123.4s-1.27,1.78-1.54,2.3a8.31,8.31,0,0,1-5.42,4.55,7.72,7.72,0,0,1-6.58-1.44,24.77,24.77,0,0,0-2.5-1.52s-1.44-1.05-.07-.62a16.93,16.93,0,0,0,8.57-.11c1.07-.29,3.18-1.15,4.17-1.34C119.67,124.94,121.45,123.13,121.48,123.4Z"/><path class="cls-95" d="M105.37,126.67a16.93,16.93,0,0,0,8.57-.11c1.07-.29,3.18-1.15,4.17-1.34,1.56-.28,3.34-2.09,3.37-1.82,0,0-.44.53-.92,1.24-.24.09-.71.68-.92.87a9.33,9.33,0,0,1-2.13,1.11,9.12,9.12,0,0,1-3.2,1.06c-1.12,0-3.83.22-4.42.24a17.88,17.88,0,0,1-3.29-.42,1.06,1.06,0,0,0-.6.11c-.34-.18-.56-.32-.56-.32S104,126.24,105.37,126.67Z"/><path class="cls-94" d="M121.48,123.4s-2.06.87-2.7,1a25.86,25.86,0,0,1-2.92.17c-.72.11-1.54.54-1.84.53a14.81,14.81,0,0,0-2.91.41,23.65,23.65,0,0,1-3.34.84c-.89.1-2.82.12-2.82.12a24.28,24.28,0,0,0,3.74.84,28.94,28.94,0,0,0,5.9-.41,11.91,11.91,0,0,0,2.14-.72c.27-.14,2.12-.84,2.72-1.16A7.35,7.35,0,0,0,121.48,123.4Z"/><path class="cls-96" d="M118.27,127.67c.21-.35.83-1.13.29-1s-1.71,1.06-2.7,1.45-1.47.38-1.43,1.08.69.38,1.69,0A5.14,5.14,0,0,0,118.27,127.67Z"/><path class="cls-96" d="M113.55,129.57c.43-.21,0-1.11-.56-1.1a19.73,19.73,0,0,1-2.52.21c-.41-.12-1,0-.57.5A3.31,3.31,0,0,0,113.55,129.57Z"/><path class="cls-6" d="M116.61,116.71a9.3,9.3,0,0,1,.62,1.27,5.75,5.75,0,0,1,.23.66c0,.12.06.23.08.34a2,2,0,0,1,0,.33c0,.21,0,.61-.2.74a2,2,0,0,1-.5.4c-.11,0-.4.3-.51.35a2.08,2.08,0,0,0-.33.21c-.2.15-.38.31-.56.46a3,3,0,0,1-2.37.92c-.48-.07-.9-.62-1.38-.61a7.62,7.62,0,0,0-1.43.14v0a20.1,20.1,0,0,1,2.73.86,2.16,2.16,0,0,0,.38.06,1.79,1.79,0,0,0,.4,0,2.41,2.41,0,0,0,.75-.22,4.86,4.86,0,0,0,1.2-.87c.18-.17.34-.33.52-.48a1.2,1.2,0,0,1,.26-.18l.3-.16a3.08,3.08,0,0,0,.7-.53,1.93,1.93,0,0,0,.32-.54,2.61,2.61,0,0,0,0-.6,1.42,1.42,0,0,0-.08-.38c0-.12-.07-.23-.11-.35a6.31,6.31,0,0,0-.29-.66,8.47,8.47,0,0,0-.73-1.23Z"/><path class="cls-97" d="M127.66,114.24a31.56,31.56,0,0,1-.16,3.22,17.37,17.37,0,0,1-.57,3.14c-.08.25-.17.5-.27.74a5.8,5.8,0,0,1-.37.69c-.27.47-.53.94-.79,1.42-.52.94-1,1.9-1.55,2.83s-1.1,1.84-1.68,2.72c-.08.11-.15.22-.23.35l-.21.35c-.15.23-.28.47-.41.7-.27.47-.53.94-.79,1.41-.53.94-1,1.88-1.59,2.8-.28.46-.55.92-.85,1.36a6,6,0,0,1-1,1.23l0,.07a3.32,3.32,0,0,0,.66-.51,6.28,6.28,0,0,0,.56-.59,15.46,15.46,0,0,0,1-1.28c.64-.88,1.23-1.79,1.8-2.7s1.11-1.86,1.69-2.74a29.56,29.56,0,0,0,1.58-2.86c.49-1,1-1.94,1.43-2.9.24-.49.48-1,.73-1.44a5.73,5.73,0,0,0,.35-.75,6.07,6.07,0,0,0,.26-.79,17,17,0,0,0,.44-3.24,29.18,29.18,0,0,0,0-3.24Z"/><path class="cls-98" d="M86.65,100.6s1.45-10,5.76-15.61,13.27-9.42,18.8-8.91,10.66,4.62,12.06,8.35,1,11.57,1,11.57-2.93-5.68-11.4-4.91c-7.28.66-14.18,6.15-18.86,11.1-2.88,3-6.2,9.28-6.26,8.88S86.65,100.6,86.65,100.6Z"/><path class="cls-99" d="M111.21,76.08c-5.53-.51-14.48,3.33-18.8,8.91s-5.76,15.61-5.76,15.61,1,10.07,1.08,10.47,3.38-5.83,6.26-8.88c1-1.09,2.18-2.21,3.41-3.3,3.12-3.24,7.45-9.32,15.46-11.6a10.15,10.15,0,0,1,11.4,3.82C124.1,83.28,119.52,76.84,111.21,76.08Z"/><path class="cls-60" d="M93.41,130.09s-4.25-4.52-3.87-9.08,4.84-18.6,9.21-24.13a35.82,35.82,0,0,1,14.58-10.63c3-1,7.27,1.19,8.71,3.42s2.83,7.74,3,8.93,1.15,3.92,1.29,4.85a11.93,11.93,0,0,0,.75,3,36.37,36.37,0,0,1,1.13,3.78s-.35-4.86-.85-9-1.08-6.92-1.41-9a36.54,36.54,0,0,0-2.65-8.31c-1.23-2.67-5-6-8.12-8.42S97,67.66,88.86,71.77s-13,15.51-14,17.16S73.26,96,73.68,98.66s.12,2.57-.62,3.92-1.3,1.29-.9,3a37.18,37.18,0,0,1,.55,9.73c-.38,2.78-1.52,6.91-.39,8.92s7.55,7,10,8.35c0,0-2.9,2.16-4.78,3.27s-4.51,1.76-3.89,4,.37,1.18-.26,2.37-.67,4.61-.67,4.61,2.52-2.31,4.6-3.86,4.16-1.88,5.09-3c3-3.61,6.42-4.51,8.28-4a81.39,81.39,0,0,0,8.49,1.14c1.94.25,5.92.81,5.92.81S98,135.11,93.41,130.09Z"/><path class="cls-61" d="M93.41,130.09s-4.25-4.52-3.87-9.08a19.2,19.2,0,0,1,.41-2.35c-.82-1-2-1-2.15-.1-.21,1.26-1-.13-1.62-1.66s-2.08-3.77-1.72-2.32,1,3.93.64,4.12-3.69-7.06-4.26-9-3-9.07-3-9.07.31,4.59.35,6.63a17.68,17.68,0,0,0,1.12,6.37c1,2.85,2.18,7,2.18,7a23.23,23.23,0,0,1-2.64-4.77c-.56-1.82-1.75-6-2.5-8.2A6.47,6.47,0,0,0,74,104.47s.84,4.5,1.55,8.21,4.31,8.47,4.31,8.47a37.15,37.15,0,0,1-3.77-4.06c-1.7-2.19-2.42-6.84-2.65-10.08a21,21,0,0,0-.73-3.92,2.3,2.3,0,0,0-.58,2.49,37.18,37.18,0,0,1,.55,9.73c-.38,2.78-1.52,6.91-.39,8.92s7.82,6.86,10.22,8.26c0,0-4,1.72-5.84,2.83s-4.07,1.76-3.45,4,.72,1.71.09,2.9c-.89,1.67-.4,4.33-1.13,7,0,0,.7-.45,1.88-1.37s2.91-2.73,4-3.55c2.08-1.55,4.19-2.92,5.26-3.91.5-.45,2-3,3.36-4a4,4,0,0,1,3.92-.44,81.39,81.39,0,0,0,8.49,1.14c1.94.25,5.92.81,5.92.81S98,135.11,93.41,130.09Z"/><path class="cls-63" d="M81.85,90.72c.2-2.22-.15-4.48,2.41-9.1s7.36-8.78,8.63-9.38,2.63-1.5,4.48-1a39.28,39.28,0,0,0,6.11.69A30.59,30.59,0,0,1,109,73.42a29.51,29.51,0,0,1,6.1,3.28c1.4,1.14,2.7,2.44,2.7,2.44a24.05,24.05,0,0,0-8.17-.78c-3.88.47-8.52,1.58-11.3,4.48-3.52,3.68-6,10.34-6,10.34a15.76,15.76,0,0,1,.8-6.26,21.23,21.23,0,0,1,5.81-8.26,18,18,0,0,1,2.77-2.34,7.36,7.36,0,0,1-2-.77c-.61-.45-3.67,1.91-6,5a28,28,0,0,0-4.47,9A14.94,14.94,0,0,1,90.72,82a32.64,32.64,0,0,1,4.66-6.86c.68-.92.54-2.67-1-2s-8.49,6.67-10,10C81.9,88.39,81.85,90.72,81.85,90.72Z"/><path class="cls-64" d="M89.37,122.29a43,43,0,0,1,1.15-9.06c1.06-3.71,4.66-14,7.29-17.18,2.08-2.51,7.68-8.45,12.58-10.3s8.47-.77,10.44.56a9.15,9.15,0,0,1,3.67,5.16c.57,2,2.15,7.71,2.15,7.71a9,9,0,0,1-1.36-3.47,15.88,15.88,0,0,0-2.8-6.66c-2-2.69-6.62-4.08-9.6-3C93.2,93.15,89.37,122.29,89.37,122.29Z"/><path class="cls-64" d="M102.24,87.69s-3.57,4.74-4.57,6.57c-2.83,5.17-4.79,9-5.45,11.36-1.16,4.15-2.85,16.67-2.85,16.67s.38-9.2,1-12.29,2.1-8.8,3.35-11.31,1.83-4.32,3.67-6.51A35.88,35.88,0,0,1,102.24,87.69Z"/><path class="cls-61" d="M88.64,93.21c0,1.77.64,8.49.43,11.52s-.45,5.93-.69,9.65-.19,6.71.46,8.24,1.8,3.68,1.8,3.68-3.88-5.67-4.22-10.53-1.29-5.66-.55-12.32A29,29,0,0,1,88.64,93.21Z"/><path class="cls-64" d="M88.64,93.21a88.49,88.49,0,0,0-2.12,9.19c-.27,2.63-.7,6.92,0,10.49s1.16,7.46,1.79,8.86,1,2.29,1,2.29a50.43,50.43,0,0,1-3.82-14.12c-.74-7.39.14-8.75.84-11.31A28,28,0,0,1,88.64,93.21Z"/><path class="cls-61" d="M78.16,86.24A30,30,0,0,0,77.58,94c.17,2.83,3.64,11.16,5.41,15.52s4.52,11.57,5.36,13.48A32.64,32.64,0,0,0,92,129c1,1.2,8.54,7.17,8.54,7.17s-7.38-5.85-8.9-8.62a140.43,140.43,0,0,1-6.75-16.26c-1.34-4.29-3.2-10.14-4.84-14.52A41.11,41.11,0,0,1,78.16,86.24Z"/><path class="cls-64" d="M100.54,136.12S93.37,133,90.15,128a49.57,49.57,0,0,1-5.46-12.81c-.57-2-3.52-9.54-4.38-11.59A34.8,34.8,0,0,1,77.58,94a29.33,29.33,0,0,1,.23-6.44l.1-2.88s-.6,4-1,5.32,0,5.19,1.65,10.65,4.52,11.57,4.9,13.15,1.35,4.29,1.59,4.93-1.1-.92-1.64-1.79-3.36-4.93-3.83-8-1.27-7.3-1.84-8.31.19,1.2.31,2.82,1,6.66,1.41,8.23a24.68,24.68,0,0,0,3.58,6.4c1,1.21,3,4.31,3.84,5.4s2.48,5.1,3.22,6.35S99,135.26,100.54,136.12Z"/><path class="cls-62" d="M96.58,133.83a31.19,31.19,0,0,1-6-6c-2.6-3.55-3.71-5.42-5-6.59S83,118.9,83,118.9A4.89,4.89,0,0,0,84.1,121c1,1.21,2.18,2.66,3.05,3.89S89,127.78,89,127.78a7.64,7.64,0,0,1-2.48-1.93C85,124.3,83,122,83,122a29,29,0,0,0,2.72,4.35c1.16,1.32,4,2.79,5.71,4.3s5.54,4,7,5a18.6,18.6,0,0,0,7.13,2.39S98.71,135.27,96.58,133.83Z"/><path class="cls-62" d="M104,138.08s-9.87-4.28-12.4-5.66-4.56-2.16-6.78-4.13a68.06,68.06,0,0,1-5.23-5.6,22.77,22.77,0,0,0,2.88,4.47,37.6,37.6,0,0,0,5.77,4.69c1.8,1.08,6.34,2.6,7.62,3.45C97.67,136.52,104,138.08,104,138.08Z"/><path class="cls-63" d="M87.4,108.94s.15,2.7.15,4.48.26,5.19.41,7a8.32,8.32,0,0,0,1.37,3.6,54.82,54.82,0,0,1-.9-8.44A25.92,25.92,0,0,0,87.4,108.94Z"/><path class="cls-62" d="M96.83,136.38S94,135.27,91.2,134.1a45.3,45.3,0,0,1-5-2.34c-1.67-1.1-4.25,1.35-6.29,1.79a29.69,29.69,0,0,0-5.75,2.65,3.24,3.24,0,0,0-1.06,2.22,2.43,2.43,0,0,1,1.86-1.77c1.69-.54,3.8-1.66,5.84-2.48,3.27-1.33,3.8-2.16,5-1.66s1.33,1.3-.2,1.13-2.21.44-4.15,1.06a23.94,23.94,0,0,0-2.3.89,18.79,18.79,0,0,0,3.27-.45c1.71-.4,3.27-.59,4.6-.79a7.89,7.89,0,0,1,3.25-.22c.87.28,2.8,1.34,3.64,1.48S96.83,136.38,96.83,136.38Z"/><path class="cls-62" d="M94.84,136.69s-4.32-2.33-7-1.79-4.39.68-5,1.74-1.35,1.84-1.91,2.61a20.36,20.36,0,0,1-2,2.08s1.22-.87,3.85-2.37,2.85-2.64,4.83-3.08a8.65,8.65,0,0,1,4.27.17C92.45,136.24,94.84,136.69,94.84,136.69Z"/><path class="cls-63" d="M74.09,103.1s.41.89,1.61,4.25,2.56,6.82,3.1,8.51a37.31,37.31,0,0,0,2.73,5.3,22.49,22.49,0,0,1-4-5.51c-1.07-2.56-.93-3.4-1.78-6.27S74.09,103.1,74.09,103.1Z"/><path class="cls-63" d="M74.89,88.93a69.05,69.05,0,0,0,.41,8.8,58.28,58.28,0,0,0,1.55,8.21c.76,3.15,3.4,10.52,3.4,10.52a67.74,67.74,0,0,1-3.94-9.62c-1-3.66-1.91-6.11-2.07-9A68,68,0,0,1,74.89,88.93Z"/><path class="cls-60" d="M79,129.2a44.52,44.52,0,0,1-4.12-3.73c-1.42-1.27-2.34-2-2.33-3.59s.63-2.14.67-3.65-.32-2.94.2-2.21a28.11,28.11,0,0,1,2.36,4.68,29,29,0,0,0,2.38,4.53c1,1.76,4,3.88,4.69,4.34,3.59,2.43,1,1.78.18,1.77S79,129.2,79,129.2Z"/><path class="cls-60" d="M78.29,136.29c-1.56.45-4.83.34-5,1.6s.09,1.16.35,1.94.12,2.07.8,1.15A26.82,26.82,0,0,1,76,138.72a7.08,7.08,0,0,1,4.57-2,5.68,5.68,0,0,0,2.71-1.19A27.66,27.66,0,0,0,78.29,136.29Z"/><path class="cls-60" d="M80.14,138.58a5.5,5.5,0,0,0-2.27,2c-1.19,1.6-1.55,1-2.4,1.61s-1.17.54-1.85,1.88a14.08,14.08,0,0,0-.84,4.15c.77-1-.67-1.11,2.5-2.82,1.12-.61,1.93-.7,2.44-2.18A37.07,37.07,0,0,1,80.14,138.58Z"/><path class="cls-63" d="M76.68,120.62c1,1.71,1.9,4.84,3,6s2.59,1.61,4.08,2.75a28.49,28.49,0,0,0,4.43,2.47,14.42,14.42,0,0,1-5.77-4.69A83.57,83.57,0,0,0,76.68,120.62Z"/><path class="cls-63" d="M82.11,122.4a31.2,31.2,0,0,0,2.39,4.1A18.49,18.49,0,0,0,87.85,129c1.66,1.14,5.73,3.71,5.73,3.71s-5.57-3.9-7.26-5.39A41.55,41.55,0,0,1,82.11,122.4Z"/><path class="cls-100" d="M224.68,278.61c-7-4.08-37.6-24.13-59.13-23.26-11.84.47-19.2-6.45-25.28-15.47L99.55,245.1S75.36,235.65,72.94,250s1,37.77,11.16,41.23c5.94,2,0-1.65,16.26,1.44,8.89,1.69,23.69,13.1,36.27,18.28a17.84,17.84,0,0,1,10.59,20.3c-6.47,29.67-10.44,60.8-4.29,62.68,8.72,2.66,5.91-1.77,13.16,1.33s14.56,2.48,24.57-2.6a135.45,135.45,0,0,1,12.5-5.82l4.5-1.5A41,41,0,0,1,210.34,384c24.68.89,30.54-1.5,34.14-2.66l4.47-1.71a4.06,4.06,0,0,0,2.62-3.62C252.34,359.73,252.34,294.66,224.68,278.61Z"/><polygon class="cls-56" points="31.28 286.23 28.73 236.55 35.9 236.23 38.45 285.91 31.28 286.23"/><path class="cls-7" d="M79.54,140.57a1.23,1.23,0,0,0-1.29-.54c-4.27.87-25.35.38-39.41,14.12-15.37,15-17.9,74.65-17.8,83.31.15,14.17,36.07,25.15,44.19,28.61,6.82,2.9,21.34,1.47,26-1.15.84-.47-42.76-75.27-42.77-74.31,0,0-3.06,85.58-3,85.75,1.12,2.32,9.91-4.75,24-4.43,15.2.35,42.58,36.75,45.34,28.46s-10.53-83.87-24.43-108.85C79,171,82.15,144.56,79.54,140.57Z"/><path class="cls-59" d="M52.74,224.35s11.35,8.28,16.87,10.84,6,3.43,6,3.43S62.48,227.85,52.74,224.35Z"/><path class="cls-56" d="M69.6,271.91C32,269.59-.86,307-3.84,355.43S21.23,445,58.81,447.32s70.46-35.08,73.44-83.52S107.18,274.22,69.6,271.91Zm45.24,90.45c-2.56,41.69-31,73.87-63.5,71.87S-5.44,396.81-2.87,355.12s31-73.87,63.5-71.87S117.41,320.67,114.84,362.36Z"/><ellipse class="cls-57" cx="55.99" cy="358.74" rx="75.63" ry="58.97" transform="translate(-305.52 392.6) rotate(-86.48)"/></g></g></g></svg>