<svg xmlns="http://www.w3.org/2000/svg" viewBox="0 0 322.94 322.94"><defs><style>.cls-1{fill:#bcbcbc;}.cls-2{fill:#b6c5d3;}.cls-3{fill:#9fafbc;}.cls-4{fill:#dfe9f4;}.cls-5{fill:#fff;}.cls-10,.cls-6,.cls-9{fill:none;stroke:#0f2769;stroke-linecap:round;stroke-linejoin:round;}.cls-6{stroke-width:0.64px;}.cls-7{fill:#f2f3fc;}.cls-8{fill:#152063;}.cls-9{stroke-width:1.9px;}.cls-10{stroke-width:2.41px;}</style></defs><g id="background"><rect class="cls-1" width="322.94" height="322.94" rx="64.41"/></g><g id="image"><path class="cls-2" d="M52.45,119.42a4.32,4.32,0,0,0-3.32,4.08l5.77,78.65c.13,1.73,1.82,2.71,3.78,2.19L203,165.86a4.3,4.3,0,0,0,3.31-4.08l-5.76-78.64c-.13-1.74-1.82-2.72-3.77-2.2Z"/><path class="cls-3" d="M56.56,203.84l5,5.1,1.42-2.1,143.45-40.32c1.72-.48,5,.29,6.74,1.63l55.54,41.56.09-.82,8.51,5.62,1.31-.18-.57,3.56a1.5,1.5,0,0,1-1.2,1.17L127.52,261.21a8.43,8.43,0,0,1-6.39-1.46L58.67,212.84a3.92,3.92,0,0,1-1.6-2.68Z"/><path class="cls-2" d="M206.39,166.52c1.72-.48,5,.29,6.74,1.63l55.54,41.56.09-.82,8.51,5.62,1.31-.18-.57,3.56a1.5,1.5,0,0,1-1.2,1.17L127.52,261.21a6.35,6.35,0,0,1-2.56.07l4.8-36.27C128.79,224.27,206.39,166.52,206.39,166.52Z"/><path class="cls-4" d="M128.13,256.44l149.27-42c1.73-.48,1.68-2-.1-3.32l-63.9-48a8.44,8.44,0,0,0-6.38-1.55l-149.27,42c-1.73.48-1.68,2,.1,3.32l63.9,48A8.44,8.44,0,0,0,128.13,256.44Z"/><path class="cls-2" d="M196.13,176.67a1.3,1.3,0,0,0,1,.1l8.87-2.44c.32-.09.42-.28.21-.42l-5.62-4a1.31,1.31,0,0,0-.95-.1l-8.88,2.45c-.32.08-.41.27-.21.42Z"/><path class="cls-2" d="M185.48,187.24a1.26,1.26,0,0,0,1,.1l8.88-2.44c.32-.09.41-.28.21-.42l-5.63-4a1.25,1.25,0,0,0-.95-.1l-8.87,2.44c-.33.09-.42.28-.22.42Z"/><path class="cls-2" d="M190.34,193.55a1.3,1.3,0,0,0,.95.1l8.87-2.44c.32-.09.42-.28.22-.42l-5.63-4a1.35,1.35,0,0,0-.95-.1l-8.88,2.45c-.31.08-.41.27-.21.42Z"/><path class="cls-2" d="M204.08,197.41a1.27,1.27,0,0,0,.94.1l8.88-2.44c.31-.09.41-.28.21-.42l-5.63-4a1.25,1.25,0,0,0-.95-.1L198.65,193c-.31.09-.41.28-.2.42Z"/><path class="cls-2" d="M228.11,199.4a1.3,1.3,0,0,0,.95.11l8.87-2.45c.32-.08.42-.27.22-.42l-6.61-4.7a1.3,1.3,0,0,0-.95-.1l-8.88,2.45c-.32.08-.41.28-.21.42Z"/><path class="cls-2" d="M212.81,203.62a1.66,1.66,0,0,0,1.13,0l11.62-3.2c.42-.12.6-.33.4-.47l-6.61-4.7a1.6,1.6,0,0,0-1.13-.05l-11.63,3.2c-.42.11-.59.33-.39.47Z"/><path class="cls-2" d="M136.41,224.7a1.21,1.21,0,0,0,.88.05l8.87-2.44c.32-.09.45-.26.28-.38L144,220.2a1.23,1.23,0,0,0-.89-.06l-8.87,2.44c-.32.09-.45.26-.28.38Z"/><path class="cls-2" d="M124.54,228.11a1.29,1.29,0,0,0,.89.06l8.86-2.45c.33-.09.45-.25.29-.37l-2.45-1.74a1.23,1.23,0,0,0-.89-.06L122.37,226c-.32.09-.44.26-.27.38Z"/><path class="cls-2" d="M112,231.43a1.21,1.21,0,0,0,.88,0l8.87-2.44c.32-.09.45-.26.29-.37L119.66,227a1.21,1.21,0,0,0-.88-.05l-8.87,2.44c-.32.09-.45.25-.29.37Z"/><path class="cls-2" d="M119.9,224.89a1.27,1.27,0,0,0,.88.05l8.87-2.44c.32-.09.45-.26.29-.37l-2.35-1.68a1.32,1.32,0,0,0-.88,0l-8.87,2.45c-.32.08-.45.25-.29.36Z"/><path class="cls-2" d="M151.75,220.42a1.3,1.3,0,0,0,.95.1l57.76-15.9c.32-.09.42-.28.21-.42l-6.6-4.7a1.31,1.31,0,0,0-.95-.1l-57.76,15.9c-.32.08-.42.28-.22.42Z"/><path class="cls-2" d="M214.44,202.11h.09l6.78-1.87s.06,0,.05,0l-.41-.29h-.09l-6.79,1.87s-.06,0,0,0Z"/><path class="cls-2" d="M231.86,196.71h0l2.88-.79s0,0,0,0l-.41-.29s0,0,0,0l-2.88.79s0,0,0,0Z"/><path class="cls-2" d="M191.91,200.76a1.29,1.29,0,0,0,1,.1l8.87-2.45c.32-.08.42-.27.22-.42l-5.63-4a1.31,1.31,0,0,0-.95-.1l-8.88,2.44c-.32.09-.41.28-.21.42Z"/><path class="cls-2" d="M179.69,204.12a1.28,1.28,0,0,0,.94.1l8.88-2.44c.31-.09.41-.28.21-.42l-5.63-4a1.3,1.3,0,0,0-1-.11l-8.87,2.45c-.32.08-.41.27-.21.42Z"/><path class="cls-2" d="M167.47,207.48a1.27,1.27,0,0,0,.94.11l8.88-2.45c.31-.09.41-.28.21-.42l-5.63-4a1.3,1.3,0,0,0-1-.1L162,203.06c-.31.09-.41.28-.2.42Z"/><path class="cls-2" d="M155.24,210.85a1.3,1.3,0,0,0,.95.1l8.88-2.44c.32-.09.41-.28.21-.43l-5.63-4a1.3,1.3,0,0,0-1-.1l-8.88,2.44c-.32.09-.41.28-.21.43Z"/><path class="cls-2" d="M143,214.21a1.3,1.3,0,0,0,.95.1l8.88-2.44c.31-.09.41-.28.21-.42l-5.63-4a1.3,1.3,0,0,0-1-.11l-8.87,2.45c-.32.08-.42.28-.22.42Z"/><path class="cls-2" d="M130.8,217.57a1.28,1.28,0,0,0,.94.1l8.88-2.44c.32-.09.41-.28.21-.42l-5.63-4a1.3,1.3,0,0,0-.95-.11l-8.87,2.45c-.32.08-.41.28-.21.42Z"/><path class="cls-2" d="M103.27,225.15a1.3,1.3,0,0,0,1,.1l24.18-6.66c.32-.08.41-.27.21-.42l-5.63-4a1.3,1.3,0,0,0-1-.1l-24.18,6.65c-.32.09-.41.28-.21.43Z"/><path class="cls-2" d="M178.18,196.89a1.23,1.23,0,0,0,.94.1l8.88-2.44c.32-.09.41-.28.21-.42l-5.63-4a1.28,1.28,0,0,0-.94-.1l-8.88,2.44c-.32.09-.41.28-.21.42Z"/><path class="cls-2" d="M166,200.26a1.36,1.36,0,0,0,1,.1l8.88-2.45c.31-.08.41-.27.21-.42l-5.63-4a1.28,1.28,0,0,0-.94-.1l-8.88,2.44c-.32.09-.42.28-.22.42Z"/><path class="cls-2" d="M153.73,203.62a1.31,1.31,0,0,0,1,.1l8.87-2.44c.32-.09.42-.28.22-.42l-5.63-4a1.35,1.35,0,0,0-.95-.1l-8.87,2.45c-.32.08-.42.28-.22.42Z"/><path class="cls-2" d="M141.51,207a1.26,1.26,0,0,0,1,.1l8.87-2.44c.32-.09.42-.27.21-.42l-5.63-4a1.27,1.27,0,0,0-.94-.1l-8.88,2.44c-.31.09-.41.28-.21.42Z"/><path class="cls-2" d="M129.28,210.34a1.26,1.26,0,0,0,.95.1l8.88-2.44c.32-.09.41-.27.21-.42l-5.63-4a1.27,1.27,0,0,0-.94-.1l-8.88,2.44c-.32.09-.41.28-.22.42Z"/><path class="cls-2" d="M117.07,213.71a1.27,1.27,0,0,0,.94.1l8.87-2.44c.33-.09.42-.28.22-.43l-5.63-4a1.3,1.3,0,0,0-1-.1l-8.87,2.44c-.32.09-.41.28-.21.42Z"/><path class="cls-2" d="M104.84,217.07a1.31,1.31,0,0,0,1,.1l8.88-2.44c.32-.09.41-.28.21-.42l-5.63-4a1.28,1.28,0,0,0-.94-.11l-8.88,2.45c-.32.09-.41.28-.22.42Z"/><path class="cls-2" d="M173.32,190.58a1.25,1.25,0,0,0,1,.11l8.87-2.45c.32-.08.41-.27.21-.42l-5.63-4a1.28,1.28,0,0,0-.94-.1l-8.88,2.44c-.32.09-.41.28-.21.42Z"/><path class="cls-2" d="M161.1,194a1.3,1.3,0,0,0,1,.1l8.87-2.44c.32-.09.42-.28.21-.42l-5.63-4a1.32,1.32,0,0,0-.94-.1l-8.88,2.45c-.32.08-.41.27-.21.42Z"/><path class="cls-2" d="M148.88,197.31a1.25,1.25,0,0,0,1,.1L158.7,195c.32-.09.41-.27.21-.42l-5.63-4a1.28,1.28,0,0,0-.94-.1l-8.88,2.44c-.32.09-.41.28-.21.42Z"/><path class="cls-2" d="M136.66,200.67a1.22,1.22,0,0,0,.94.11l8.88-2.44c.32-.09.41-.28.21-.43l-5.63-4a1.3,1.3,0,0,0-.95-.1l-8.87,2.44c-.32.09-.41.28-.21.42Z"/><path class="cls-2" d="M124.43,204a1.26,1.26,0,0,0,.95.11l8.87-2.44c.32-.09.42-.28.21-.43l-5.63-4a1.27,1.27,0,0,0-.94-.1L119,199.61c-.31.09-.41.28-.21.42Z"/><path class="cls-2" d="M112.21,207.4a1.25,1.25,0,0,0,1,.1l8.88-2.44c.31-.09.41-.28.2-.42l-5.63-4a1.28,1.28,0,0,0-.94-.11L106.79,203c-.32.09-.41.28-.21.42Z"/><path class="cls-2" d="M100,210.76a1.3,1.3,0,0,0,1,.11l8.87-2.45c.32-.08.42-.27.21-.42l-5.63-4a1.27,1.27,0,0,0-.94-.1l-8.88,2.44c-.32.09-.41.28-.21.42Z"/><path class="cls-2" d="M197.7,183.88a1.31,1.31,0,0,0,1,.1l15-4.14c.32-.09.42-.28.21-.43l-5.62-4a1.3,1.3,0,0,0-.95-.1l-15.05,4.15c-.32.08-.42.27-.22.41Z"/><path class="cls-2" d="M80,208.62a1.27,1.27,0,0,0,.94.1L96,204.58c.32-.09.42-.28.21-.42l-5.62-4a1.37,1.37,0,0,0-.95-.1L74.6,204.19c-.32.09-.42.28-.21.43Z"/><path class="cls-2" d="M202.56,190.18a1.26,1.26,0,0,0,.95.1l17.94-4.93c.32-.09.42-.28.22-.42l-5.63-4a1.35,1.35,0,0,0-.95-.1l-17.94,4.94c-.32.09-.42.28-.22.42Z"/><path class="cls-2" d="M216.29,194.05a1.3,1.3,0,0,0,1,.1l12-3.29c.32-.09.42-.28.22-.42l-5.63-4a1.3,1.3,0,0,0-.95-.1l-12,3.29c-.32.09-.42.28-.22.43Z"/><path class="cls-2" d="M183.91,180a1.25,1.25,0,0,0,1,.1l8.87-2.44c.32-.09.41-.28.21-.42l-5.63-4a1.25,1.25,0,0,0-.95-.1l-8.86,2.44c-.33.09-.42.28-.22.42Z"/><path class="cls-2" d="M171.74,183.38a1.3,1.3,0,0,0,.95.1l8.88-2.45c.31-.08.41-.27.21-.42l-5.63-4a1.3,1.3,0,0,0-1-.1L166.33,179c-.32.09-.42.28-.22.42Z"/><path class="cls-2" d="M159.52,186.74a1.31,1.31,0,0,0,.95.1l8.88-2.44c.31-.09.41-.28.21-.42l-5.63-4a1.3,1.3,0,0,0-1-.11l-8.87,2.45c-.33.08-.42.27-.21.42Z"/><path class="cls-2" d="M147.3,190.1a1.25,1.25,0,0,0,.95.1l8.87-2.44c.32-.09.41-.27.21-.42l-5.63-4a1.29,1.29,0,0,0-.95-.1l-8.87,2.44c-.32.09-.41.28-.21.42Z"/><path class="cls-2" d="M135.08,193.46a1.24,1.24,0,0,0,.95.11l8.87-2.44c.32-.09.42-.28.21-.43l-5.62-4a1.31,1.31,0,0,0-1-.1L129.66,189c-.32.09-.41.28-.21.42Z"/><path class="cls-2" d="M122.85,196.83a1.31,1.31,0,0,0,1,.1l8.88-2.44c.32-.09.41-.28.21-.43l-5.63-4a1.3,1.3,0,0,0-1-.1l-8.87,2.44c-.32.09-.42.28-.21.43Z"/><path class="cls-2" d="M110.63,200.19a1.3,1.3,0,0,0,1,.1l8.88-2.44c.32-.09.41-.28.21-.42l-5.63-4a1.3,1.3,0,0,0-1-.11l-8.87,2.45c-.32.09-.42.27-.22.42Z"/><path class="cls-2" d="M98.41,203.55a1.3,1.3,0,0,0,1,.11l8.88-2.45c.31-.09.41-.27.21-.42l-5.63-4a1.31,1.31,0,0,0-.95-.1L93,199.13c-.31.09-.41.28-.2.42Z"/><path class="cls-2" d="M91.23,207.26a1.2,1.2,0,0,1,.51,0,1,1,0,0,1,.43.13l5.63,4a.18.18,0,0,1,.09.23.46.46,0,0,1-.3.19l-2.31.63,7.38,5.25c.09.07.13.15.09.23a.48.48,0,0,1-.31.19l-6,1.65a1.68,1.68,0,0,1-.51,0,.87.87,0,0,1-.43-.14l-13.39-9.52c-.09-.06-.13-.14-.08-.23a.5.5,0,0,1,.3-.19Z"/><path class="cls-2" d="M218,192h.09l6.78-1.87s.06,0,0,0l-.41-.29a.14.14,0,0,0-.09,0l-6.79,1.87s-.06,0,0,0Z"/><path class="cls-2" d="M180.94,232.88l32.53-8.76c.38-.1.38-.39,0-.65l-13.22-9.32a1.88,1.88,0,0,0-1.36-.29l-32.53,8.75c-.37.11-.38.4,0,.66l13.23,9.32A1.87,1.87,0,0,0,180.94,232.88Z"/><path class="cls-3" d="M44.27,102.51v-.17a.34.34,0,0,0,0-.1v0h0s0-.09,0-.13a.51.51,0,0,0,0-.13h0v0s0-.06,0-.09l0-.12s0,0,0-.06v-.07a.56.56,0,0,1,0-.12s0-.07,0-.11h0a.61.61,0,0,0,0-.12l.06-.12v0l0-.06.06-.12a.22.22,0,0,0,.05-.08h0l.06-.11.06-.09,0,0h0l0,0a.86.86,0,0,1,.07-.1l.08-.1h0a.76.76,0,0,0,.08-.11l.09-.09,0-.06,0,0,.15-.14.05,0h0l.2-.17,0,0,0,0,.07-.05.12-.09.05,0h0l.05,0,.12-.08.09,0h0l.13-.08.14-.07h0l.14-.06.14-.07h0l.11,0,.14,0,.05,0h0l.09,0,.15,0,3.49-.94,3.83,2.93-3.72.84-.14,0-.15.06-.14.06-.06,0-.23.11h0l-.23.13h0l-.21.13,0,0a1.33,1.33,0,0,0-.19.14l0,0-.18.15-.09.08-.11.09-.12.12-.07.08a.23.23,0,0,0-.07.07L49,103l0,0-.14.18h0a2.43,2.43,0,0,0-.14.2v0a2,2,0,0,0-.12.19l0,0a1.74,1.74,0,0,0-.1.19l0,0-.09.2v0a1.19,1.19,0,0,0-.08.2v0l-.06.21v0c0,.07,0,.14,0,.21s0,.07,0,.11a.51.51,0,0,0,0,.13.57.57,0,0,0,0,.13.66.66,0,0,0,0,.14v.14s0,.08,0,.12v.2l.8,10.89a20.22,20.22,0,0,1,2.54,3.28s3.51,81.34,3.51,81.34c0,.36,1.39,3,1,2.71l-3.57-3.6a4.25,4.25,0,0,1-1.28-2.64l-6.74-94.05-.06-.92a.45.45,0,0,1,0-.11v-.1h0Z"/><path class="cls-2" d="M48.2,99,51,101.1a.62.62,0,0,0,.5.11L195.23,64.72h0l.8-.2.11,0,.15,0,.35,0h0l.33,0h0l.32,0h0l.29,0h.06l.27.07.08,0,.19.07.15.07.12.07a2,2,0,0,1,.31.19l-3.72-2.83a3.28,3.28,0,0,0-.31-.2l0,0h0a1.23,1.23,0,0,0-.26-.12h0l-.08,0-.13,0h0l-.1,0-.09,0h0l-.19,0h0l-.16,0H193l-.16,0-.14,0-.15,0-.15,0-.38.1h0l-.21.05h0L48.29,98.25C47.94,98.34,47.88,98.74,48.2,99ZM193.13,62.31Z"/><path class="cls-4" d="M51.32,101.34,195.68,62.87c2-.52,3.65.46,3.77,2.19l5.77,78.64a1.6,1.6,0,0,1,0,.31l.64,8.64a4.32,4.32,0,0,1-3.32,4.08L58.18,195.21c-2,.52-3.65-.46-3.78-2.19l-5.76-78.64c0-.11,0-.21,0-.32L48,105.43A4.32,4.32,0,0,1,51.32,101.34Z"/><path class="cls-5" d="M55.4,106.54l136.79-35.3c1.86-.48,3.47.31,3.59,1.77l.81,9.29a1.86,1.86,0,0,1,.07.34l5.78,66.18c.13,1.46-1.27,3-3.13,3.51L62.52,187.63c-1.86.48-3.47-.32-3.59-1.77l-.81-9.29a2,2,0,0,1-.07-.35l-5.78-66.17C52.14,108.59,53.54,107,55.4,106.54Z"/><line class="cls-6" x1="204.7" y1="162.52" x2="57.72" y2="203.62"/><path class="cls-7" d="M66.45,110,183.34,79c2.34-.63,4.4,1,4.61,3.54l4.94,60.67A5.63,5.63,0,0,1,189,149L72.15,180c-2.33.62-4.39-1-4.6-3.54l-4.94-60.67A5.65,5.65,0,0,1,66.45,110Z"/><path class="cls-8" d="M63.47,126.4l-.88-10.78a5.81,5.81,0,0,1,3.93-5.79l116.9-31c2.33-.62,4.39,1,4.6,3.54l.88,10.8Z"/><path class="cls-9" d="M148.12,148.44c2.47-5.63,8.11-10.25,15.46-12.76,8.12-2.77,15.85-1.52,20.31,2.73"/><path class="cls-9" d="M150.41,121.28c.93,4.62,5.86,7.37,11,6.14s8.53-6,7.59-10.56-5.86-7.37-11-6.14S149.47,116.67,150.41,121.28Z"/><line class="cls-10" x1="135.47" y1="127.8" x2="70.06" y2="146.48"/><line class="cls-10" x1="131.08" y1="149.96" x2="84.88" y2="163.16"/></g></svg>