<svg id="Layer_1" data-name="Layer 1" xmlns="http://www.w3.org/2000/svg" viewBox="0 0 612 360"><defs><style>.cls-1{fill:#fff;}.cls-2{fill:#3c190d;}.cls-3{fill:#fcb415;}.cls-4{fill:#1ba8e1;}.cls-5{fill:#2064b0;}</style></defs><path class="cls-1" d="M210.58,186.22v-24h0V125.09A17.87,17.87,0,0,0,200.5,109L155.81,87.77a87.54,87.54,0,0,1-9.92-5.51V95.44c0,2.39.15,4.91,1.46,6.82l-14.41-6.84c-1.83-.87-7.84-4.11-10.92-6.88v22.88c0,3.07.74,7.22,2.92,9.09l-7.19-3.41c-4-1.88-10.54-7-13.76-13.43v28h0v97.76h0V230a30.84,30.84,0,0,0,16,26.71l37.44,21,25-14.15h0l1.85-1,2-1.14h0l8.49-4.8a30.88,30.88,0,0,0,15.88-26.76Z"/><rect class="cls-2" x="238.93" y="230.52" width="22.39" height="3.03"/><path class="cls-2" d="M252,217.7c0,4.49-2.95,7.44-7,7.44s-7-2.95-7-7.44,2.95-7.45,7-7.45S252,213.2,252,217.7Zm-9.56,0c0,4.81.77,6.64,2.57,6.64s2.58-1.83,2.58-6.64S246.77,211,245,211,242.39,212.85,242.39,217.7Z"/><path class="cls-2" d="M264.39,206.78c0,.83-.55,1.32-1.44,1.58h-.48c-.66-2.52-1.21-3.07-2.18-3.07s-1.52.83-1.52,2.92v2.32h3v1h-3v10.48c0,1.86,0,1.86,2.55,2v.81H252.9v-.81c1.72-.14,1.72-.14,1.72-2V211.57H252.9v-.78l1.72-.26V210c0-2.58,1.66-5.44,6.1-5.44C263,204.52,264.39,205.38,264.39,206.78Z"/><path class="cls-2" d="M310.35,159.54V176c0,3.91,0,3.91,3.37,4.21v1.68H299.15v-1.68c2.47-.3,2.47-.3,2.47-4.21v-16.8c0-2-.9-4.09-3.55-4.09-4.15,0-5.66,5.84-5.66,9.45V176c0,3.91,0,3.91,3.43,4.21v1.68H280.31v-1.68c3.37-.3,3.37-.3,3.37-4.21V157.07c0-2.7-.18-2.7-3.37-3v-1.69a80.51,80.51,0,0,1,9.15-1.14c2.23,0,3,.42,3,2.95v4c1.75-5.54,5.6-7,9.57-7C306.92,151.18,310.35,153.82,310.35,159.54Z"/><path class="cls-2" d="M327.74,154.19V176c0,3.91,0,3.91,3.43,4.21v1.68H315.64v-1.68c3.38-.3,3.38-.3,3.38-4.21V157.07c0-2.7-.31-2.7-3.38-3v-1.69a77.67,77.67,0,0,1,9.15-1.14C327,151.24,327.74,151.66,327.74,154.19Zm.49-10.54a4.73,4.73,0,0,1-5.06,4.7,4.78,4.78,0,0,1-5.12-4.7,4.83,4.83,0,0,1,5.12-4.81A4.78,4.78,0,0,1,328.23,143.65Z"/><path class="cls-2" d="M414.24,155.27a4.55,4.55,0,0,1-2.11,3.85l-1,.3a5.72,5.72,0,0,0-4.09-1.8c-2.47,0-5,2.76-5,7.52V176c0,3.86-.12,3.86,5.66,4.16v1.68H390v-1.68c3.37-.3,3.37-.3,3.37-4.16v-19c0-2.7-.18-2.7-3.37-3v-1.69a88.22,88.22,0,0,1,9.51-1.14c1.81,0,2.59.54,2.59,3.07v5.59c1.63-6.68,4.46-8.72,7.71-8.72C412.68,151.18,414.24,153,414.24,155.27Z"/><path class="cls-2" d="M435.61,152.62a2.92,2.92,0,0,1,1.44,2.53l.67,5.78h-1.63c-1.86-6.08-4.21-8.13-7.16-8.13-2.53,0-4.4,1.51-4.4,4.21,0,6.57,14.57,5.24,14.57,15.71,0,5.42-4.51,9.76-12.82,9.76a21.5,21.5,0,0,1-8.37-1.51,2.91,2.91,0,0,1-1.8-2.59l-.79-5H417c2.41,5.9,5,7.46,8.91,7.46,2.77,0,4.93-1.68,4.93-4.76,0-7.22-14.5-5.59-14.5-15.83,0-4.69,3.37-9,11.37-9A19.47,19.47,0,0,1,435.61,152.62Z"/><path class="cls-2" d="M453.49,154.19V176c0,3.91,0,3.91,3.43,4.21v1.68H441.39v-1.68c3.37-.3,3.37-.3,3.37-4.21V157.07c0-2.7-.3-2.7-3.37-3v-1.69a77.18,77.18,0,0,1,9.15-1.14C452.76,151.24,453.49,151.66,453.49,154.19Zm.48-10.54a5.1,5.1,0,0,1-10.17,0,5.09,5.09,0,0,1,10.17,0Z"/><path class="cls-2" d="M352.12,151.78v1.62c.7,0,1.28.11,1.78.18,2,.35,1.73,1.17,1.3,2.53L350,172.65l-6.2-16.42c-.67-1.8-.25-2.53,3.31-2.83v-1.62H330.87v1.62c2.29.3,2.77.48,3.5,2.35l10.35,26.42h4.69L358,156.11c.66-2,1-2.41,4.52-2.71v-1.62Z"/><path class="cls-2" d="M387.51,162.85c0-8.66-6.31-11.67-12-11.67-7.89,0-14.87,6.26-14.87,15.65,0,9.63,6.08,15.65,14.63,15.65a14.69,14.69,0,0,0,12-6.57l-.78-1.14a10.45,10.45,0,0,1-7.58,3.13c-3.61,0-8.61-1.8-9-11.56h17.45A20.2,20.2,0,0,0,387.51,162.85Zm-8.36,1.32h-9.32c.14-7.63,1.94-11.37,5.41-11.37,2.95,0,4.39,2.65,4.39,7.58A15.57,15.57,0,0,1,379.15,164.17Z"/><path class="cls-2" d="M497.31,151.78v1.62c3.9.28,3.55,1,3.07,2.71l-5.14,15.78L489,156.23c-.66-1.8-.24-2.53,3.31-2.83v-1.62h-22v-7.23h-2.23l-6.5,7.23-3.61.54v1.62h3.61v21.85c0,5.24,2.71,6.69,6.92,6.69a65.06,65.06,0,0,0,8.43-.61v-1.68c-4.87,0-6.62-1-6.62-5.54V153.94h7.32a1.8,1.8,0,0,1,1.65,1.1l12.28,29.26c-1.41,3.85-4.46,5-6.2,5a10,10,0,0,1-6.32-2.23l-.54.48c0,2.53,1.32,6.38,5.65,6.38,3.92,0,7.23-2,10.48-11.74l8.61-26.06c.66-2,1-2.41,4.51-2.71v-1.62Z"/><path class="cls-2" d="M314.1,194.25v-1.63H299.57l-9,31.93-9.48-31.93h-14v1.63c3.37.3,3.61.3,3.61,4.27v29.13c0,3.92-.12,3.92-3.61,4.22v1.68h10.72v-1.68c-4.58-.3-4-.3-4-4.22V201.07l9.91,32.42h7.16l10-35.33v29.49c0,3.92-.12,3.92-3.61,4.22v1.68H314.1v-1.68c-3.55-.3-3.61-.3-3.61-4.22V198.52C310.49,194.55,310.55,194.55,314.1,194.25Z"/><path class="cls-2" d="M340.47,212.24V228c0,2.65.12,3.62,3.37,3.92v1.68a28,28,0,0,1-5.6.54c-4.15,0-6.2-1.32-6.5-5.65a8.92,8.92,0,0,1-8.6,5.71c-4.4,0-7.77-2.64-7.77-7.4,0-6.38,6.14-8.73,16.37-10.11v-6.32c0-3.13-1.14-5.6-4.21-5.6-2.65,0-4,1.38-4,3.61a13.89,13.89,0,0,0,.48,3.43l-.6.6a6.55,6.55,0,0,1-2.71.67,3.65,3.65,0,0,1-3.85-3.8c0-3.73,4.81-6.38,11.61-6.38C337,202.85,340.47,206.41,340.47,212.24Zm-8.73,6c-4.21.79-7.22,2.41-7.22,6.68,0,3.13,1.57,4.4,3.25,4.4,2.83,0,4-3.25,4-7Z"/><path class="cls-2" d="M375.26,211.22v16.43c0,3.92,0,3.92,3.37,4.22v1.68H364.07v-1.68c2.47-.3,2.47-.3,2.47-4.22V210.86c0-2-.91-4.09-3.56-4.09-4.15,0-5.65,5.84-5.65,9.45v11.43c0,3.92,0,3.92,3.43,4.22v1.68H345.23v-1.68c3.37-.3,3.37-.3,3.37-4.22v-18.9c0-2.71-.18-2.71-3.37-3v-1.68a80.8,80.8,0,0,1,9.15-1.15c2.22,0,2.95.43,2.95,3v4c1.74-5.54,5.59-7.05,9.57-7.05C371.83,202.85,375.26,205.5,375.26,211.22Z"/><path class="cls-2" d="M392.48,205.86v21.79c0,3.92,0,3.92,3.43,4.22v1.68H380.38v-1.68c3.37-.3,3.37-.3,3.37-4.22v-18.9c0-2.71-.3-2.71-3.37-3v-1.68a77.66,77.66,0,0,1,9.15-1.15C391.76,202.91,392.48,203.34,392.48,205.86Zm.48-10.53a5.1,5.1,0,0,1-10.17,0,5.09,5.09,0,0,1,10.17,0Z"/><path class="cls-2" d="M415.71,203.46v2.16h-6.62v20.71c0,4.57,1.75,5.54,6.62,5.54v1.68a65.07,65.07,0,0,1-8.42.6c-4.22,0-6.93-1.44-6.93-6.68V205.62h-3.61V204l3.61-.54,6.5-7.23h2.23v7.23Z"/><path class="cls-2" d="M445,218.5c0,9.45-6.2,15.65-14.69,15.65s-14.63-6.2-14.63-15.65,6.2-15.65,14.63-15.65S445,209.05,445,218.5Zm-20.11,0c0,10.12,1.63,14,5.42,14s5.42-3.85,5.42-14-1.63-14-5.42-14S424.86,208.33,424.86,218.5Z"/><path class="cls-2" d="M457.56,193.77v15.65c1.44-4.7,4.81-6.57,8.78-6.57,6.57,0,11.08,4.58,11.08,15.65,0,9-4.88,15.65-12.94,15.65a11.6,11.6,0,0,1-6.92-1.8l-7.05,1.8h-1.68V196.59c0-2.64-.3-2.64-3.37-3V192a77.18,77.18,0,0,1,9.15-1.14C456.83,190.82,457.56,191.24,457.56,193.77Zm0,22.45v14.14a6.83,6.83,0,0,0,4.51,1.81c4.21,0,6.14-3.37,6.14-13.67,0-10.11-2.89-11.73-5.3-11.73C460.14,206.77,457.56,209.23,457.56,216.22Z"/><path class="cls-2" d="M504.65,212.24V228c0,2.65.12,3.62,3.37,3.92v1.68a28,28,0,0,1-5.6.54c-4.15,0-6.2-1.32-6.5-5.65a8.92,8.92,0,0,1-8.61,5.71c-4.39,0-7.76-2.64-7.76-7.4,0-6.38,6.14-8.73,16.37-10.11v-6.32c0-3.13-1.14-5.6-4.21-5.6-2.65,0-4,1.38-4,3.61a13.89,13.89,0,0,0,.48,3.43l-.61.6a6.47,6.47,0,0,1-2.7.67,3.66,3.66,0,0,1-3.86-3.8c0-3.73,4.82-6.38,11.62-6.38C501.16,202.85,504.65,206.41,504.65,212.24Zm-8.73,6c-4.21.79-7.22,2.41-7.22,6.68,0,3.13,1.56,4.4,3.25,4.4,2.83,0,4-3.25,4-7Z"/><path class="cls-2" d="M275.53,146.83l-.1,19.33c0,10.55-5.27,16.32-14.72,16.32-10.92,0-18.17-6.08-18.17-16.38V146.84h0c0-4-.06-4-3.61-4.27v-1.63h16.81v1.63c-3.49.3-3.61.3-3.61,4.27h0v19.63c0,8,3.9,12.3,10.09,12.3,7.15,0,10.15-4.89,10.15-12.55V146.83h0c0-4-1.84-4-5.33-4.27v-1.63h13.79v1.63c-3.05.3-5.3.3-5.3,4.27Z"/><path class="cls-3" d="M108.28,226.83V230a26.44,26.44,0,0,0,13.76,23l35.32,19.84,23.89-13.5C175.71,238.21,124.26,234.51,108.28,226.83Z"/><path class="cls-2" d="M206.28,188.11c-3.8,6.79-10.52,10.58-17.17,12.83a221.08,221.08,0,0,1-22.8,5.77c-19.8,4.27-41,9.74-52.09,15.84,6,2.84,14.45,5.07,23.46,7.42,20.4,5.33,43.52,11.37,47.52,27.11l7.44-4.21a26.48,26.48,0,0,0,13.7-23Z"/><path class="cls-2" d="M147.87,202.45c.73-1.52,1.47-2.65,1.82-3.5.43-1,.18-1.27-1.1-1.4a38.33,38.33,0,0,1-6.63-1.12c.51,1.21,2,5.91.18,8.56,1.34,2.43,5.81,6.1,8,7.75,1.87-.39,4.16-.8,6.06-1.17a61,61,0,0,1-7.53-4.92C147.11,205.31,147,204.33,147.87,202.45Z"/><path class="cls-2" d="M191.41,166.37c.94-.47,1.89-1.08,2.87-1.66-2.39.54-4.43-1.21-7.65-2.12a5.24,5.24,0,0,0-6.18,2.39.74.74,0,0,1-1.2.11c-5.91-6.48-13.49-6.23-19.9-.64-8.37,7.3-14.35,10.93-18.91,13.3-5.24,2.7-6.7,5.06-7.74,7.44a3.84,3.84,0,0,0-4.17-.24c-1.48,1-2.08,2.8-2.7,4.38-1.12,2.86-4.24,7.87-7.71,8,4.7,1.59,6.94.45,8.38-2,1-1.78.84-4,1.23-6.05.33-1.77,1.89-3.94,4.29-2.33a23.83,23.83,0,0,0-1,8.92c.4,3.32.56,9.2-.56,10.72.07,3.49-.25,5.42-1.36,7.77-.87,1.82-1.39,3.76-1,5,1.35.12,3.46-1.9,5.15-2.36a13.85,13.85,0,0,1,0-6.65c1.8-6.09,4.94-6.59,6.68-12.81.76-2.72,1.72-2.31,3.91-1.93,6.65,1.14,9.53.65,14.17-1.56-.5,3.82-.08,10.16,5.39,13.35,2.13,1.24,2.12,1.64,3,1.4.49-.14,4.41.26,2.81-1.49a10.49,10.49,0,0,1-2.73-7.26,6.59,6.59,0,0,1,3.11-5.74,9.29,9.29,0,0,0,4.53,3.63,11.54,11.54,0,0,0,2.75.36c.58,0,.84.3.6.84-.44,1-1.59,1.63-2.15,2.33a3.92,3.92,0,0,0,1.09,5.79c.33-1.94,3-5.18,3.91-6.27,1.56-1.86,2.73-2.72,2-4.47a19.39,19.39,0,0,0-4-5.85,10.5,10.5,0,0,0-3.7.84,12.56,12.56,0,0,1,10.35-3c2.21.51,3.56,2,3.43,4.13C190,191,190.82,188,191,185.16a7.11,7.11,0,0,0,2.31-1.39,2.6,2.6,0,0,0,.52-1.69c0-2.65,1.6-6.07,1.55-8.41A8.39,8.39,0,0,0,191.41,166.37Z"/><path class="cls-1" d="M190.83,175.59s0-1.16-.31-1.49a.75.75,0,0,0-1.1,0,.85.85,0,0,0,0,1.17C189.73,175.58,190.83,175.59,190.83,175.59Z"/><path class="cls-1" d="M185.71,165.44c.27-.2.58-.4.91-.6a5.14,5.14,0,0,0-.38.6c-.64,1.1-1.81,3.54,0,5.65.85,1-.31,1.81-1.53,1.22C184,171.92,181.47,168.55,185.71,165.44Z"/><path class="cls-3" d="M195,223.85c-4.87-6.1-7.92-8-6.75-15.08-2.92,2.87-5,5.62-4.93,10.76.05,4.94,5.39,9.64,7.54,14.27a8.44,8.44,0,0,1,.28,7c.24-2.05-1.35-3.94-2.86-5.26-2.11-1.84-2.88-2-5-4.81a9,9,0,0,1-1.57-6.51c-1.16,2.5-2.26,5.9-2.25,7.83,0,8.93,10.12,8,8.3,13.43,8.8-3.22,11-9.18,10.92-12.82S197,226.44,195,223.85Z"/><path class="cls-4" d="M206.28,133.27c-2.11-3.93-11-8.54-21.77-13.66l-27.19-12.89a12.48,12.48,0,0,1-7.13-11.28V89.56a20.48,20.48,0,0,0,4.29,2.34l44.17,20.95a13.61,13.61,0,0,1,7.63,12.24Z"/><path class="cls-5" d="M126.32,96.45v12a13,13,0,0,0,7.45,11.77l45.37,21.51c10.36,4.92,23.2,12.71,27.14,20.53V145.28c0-7.53-4.34-12.38-11.15-15.61l-64-30.36A21.88,21.88,0,0,1,126.32,96.45Z"/><path class="cls-5" d="M147.34,152.93l-37.19-17.64a5.63,5.63,0,0,1-1.87-1.4v49.22c3.62-7.29,9.14-11.21,19.73-13.92l18.73-4.78C152.73,162.23,152.46,155.36,147.34,152.93Z"/><path class="cls-4" d="M151.25,137.74,115.91,121c-4-1.9-6.38-3.91-7.62-6.49v9.6a8.36,8.36,0,0,0,4.78,7.56l35.11,16.65c2.16,1,5.89,3.59,5.89,8.47a9.4,9.4,0,0,1-2.39,6C161.58,157.83,163.27,143.44,151.25,137.74Z"/></svg>