<?xml version="1.0" encoding="UTF-8" standalone="no"?>
<!-- Created with Inkscape (http://www.inkscape.org/) -->

<svg
   xmlns:dc="http://purl.org/dc/elements/1.1/"
   xmlns:cc="http://creativecommons.org/ns#"
   xmlns:rdf="http://www.w3.org/1999/02/22-rdf-syntax-ns#"
   xmlns:svg="http://www.w3.org/2000/svg"
   xmlns="http://www.w3.org/2000/svg"
   xmlns:sodipodi="http://sodipodi.sourceforge.net/DTD/sodipodi-0.dtd"
   xmlns:inkscape="http://www.inkscape.org/namespaces/inkscape"
   width="1076.89"
   height="141.25"
   id="svg13624"
   version="1.1"
   inkscape:version="0.48.1 "
   sodipodi:docname="Neues Dokument 2">
  <defs
     id="defs13626" />
  <sodipodi:namedview
     id="base"
     pagecolor="#ffffff"
     bordercolor="#666666"
     borderopacity="1.0"
     inkscape:pageopacity="0.0"
     inkscape:pageshadow="2"
     inkscape:zoom="0.83794602"
     inkscape:cx="538.44501"
     inkscape:cy="70.624995"
     inkscape:document-units="px"
     inkscape:current-layer="layer1"
     showgrid="false"
     fit-margin-top="0"
     fit-margin-left="0"
     fit-margin-right="0"
     fit-margin-bottom="0"
     inkscape:window-width="1024"
     inkscape:window-height="708"
     inkscape:window-x="-4"
     inkscape:window-y="-4"
     inkscape:window-maximized="1" />
  <metadata
     id="metadata13629">
    <rdf:RDF>
      <cc:Work
         rdf:about="">
        <dc:format>image/svg+xml</dc:format>
        <dc:type
           rdf:resource="http://purl.org/dc/dcmitype/StillImage" />
        <dc:title></dc:title>
      </cc:Work>
    </rdf:RDF>
  </metadata>
  <g
     inkscape:label="Ebene 1"
     inkscape:groupmode="layer"
     id="layer1"
     transform="translate(224.27196,-389.8767)">
    <path
       inkscape:connector-curvature="0"
       style="fill:#211e1e;fill-opacity:1;fill-rule:nonzero;stroke:none"
       d="m -136.43729,482.44993 -3.2959,0 -3.80859,9.375 c -8.00781,19.50684 -14.30664,27.56349 -25.31739,27.56349 -15.625,0 -26.24511,-20.23926 -26.24511,-62.06055 0,-37.5 10.74219,-55.68847 24.92676,-55.68847 11.03515,0 18.38379,10.13184 25.19531,27.56348 l 3.80859,9.74121 3.2959,0 -3.2959,-35.42481 c -7.34864,-5.24903 -16.52832,-8.64258 -27.83202,-8.64258 -24.41407,0 -50.26856,21.58204 -50.26856,65.82032 0,43.13965 20.75196,65.42969 49.63378,65.42969 11.66993,0 23.21778,-3.93066 30.29785,-9.5459 l 2.90528,-34.13087 z m 0,0"
       id="path1834" />
    <path
       inkscape:connector-curvature="0"
       style="fill:#211e1e;fill-opacity:1;fill-rule:nonzero;stroke:none"
       d="m -49.410926,524.80834 0,-3.19824 -1.9043,-0.63476 c -5.22461,-1.75782 -7.8125,-7.32423 -10.37597,-17.06544 l -24.19434,-90.52734 -3.68652,0 -9.936527,7.17773 -21.752927,78.24707 c -3.78418,13.54981 -7.8125,20.41016 -13.06152,22.31445 l -1.34278,0.48829 0,3.19824 c 2.2461,0 10.15625,-0.34179 14.18458,-0.34179 4.0039,0 11.15723,0.34179 13.15918,0.34179 l 0,-3.19824 -2.56348,-0.63476 c -5.24902,-1.26954 -6.34766,-4.78517 -6.34766,-8.76465 0,-3.9795 1.09864,-9.25294 2.44141,-14.35548 l 2.7832,-11.15723 26.782224,0 4.02832,15.94239 c 1.09864,4.46778 1.66015,7.9834 1.66015,10.20508 0,4.46777 -1.5625,6.86035 -6.90917,8.12989 l -2.7832,0.63476 0,3.19824 c 2.00195,0 16.8457,-0.34179 20.84961,-0.34179 3.90625,0 16.8457,0.34179 18.96972,0.34179 z m -37.47558,-44.9463 -23.339844,0 11.718747,-46.55761 11.621097,46.55761 z m 0,0"
       id="path1836" />
    <path
       inkscape:connector-curvature="0"
       style="fill:#211e1e;fill-opacity:1;fill-rule:nonzero;stroke:none"
       d="m 14.734574,494.19311 -2.68553,0 -4.1259901,8.93554 c -5.46875,11.792 -9.47265,15.77149 -17.1874996,15.77149 l -1.0009803,0 c -9.69237,0 -11.37695,-3.02734 -11.37695,-19.60449 l 0,-50.83009 c 0,-24.38964 0.78125,-26.46484 8.37403,-28.68652 l 3.6865203,-1.12304 0,-3.19825 c -2.1240203,0 -17.1875003,0.31739 -21.2158203,0.31739 -4.0039,0 -17.06543,-0.31739 -19.28711,-0.31739 l 0,3.19825 3.68652,1.12304 c 5.56641,1.73339 6.46973,6.20117 6.46973,28.51563 l 0,43.67675 c 0,22.31445 -0.90332,26.75782 -6.46973,28.51563 l -3.68652,1.12305 0,3.19825 c 2.44141,0 17.62696,-0.34179 21.63086,-0.34179 4.02832,0 20.2148503,0.17089 26.5624999,0.17089 l 12.1582001,0 4.46777,-30.44433 z m 0,0"
       id="path1838" />
    <path
       inkscape:connector-curvature="0"
       style="fill:#211e1e;fill-opacity:1;fill-rule:nonzero;stroke:none"
       d="m 95.515824,482.57201 0,-3.19824 c -2.46581,0 -12.84178,0.31737 -16.8457,0.31737 -4.02832,0 -16.18652,-0.31737 -18.4082,-0.31737 l 0,3.19824 3.66212,1.09863 c 6.25,1.92872 7.49511,5.10254 7.49511,20.41016 l 0,2.70997 c 0,7.17774 -2.34375,13.3789 -11.93848,13.3789 -13.28125,0 -22.31445,-17.21192 -22.31445,-52.7588 0,-31.39648 8.91113,-47.31445 21.1914,-47.31445 9.59473,0 15.50293,8.91114 21.41114,23.41309 l 3.24706,7.9834 2.78322,0 -2.78322,-29.80958 c -6.25,-4.46776 -14.0625,-7.32421 -23.65722,-7.32421 -20.75195,0 -42.72461,18.31055 -42.72461,55.93262 0,36.64551 17.96875,55.61523 41.16211,55.61523 12.28028,0 26.12305,-3.02734 33.12989,-7.17773 l 0,-3.17382 c -5.00489,-2.70996 -5.00489,-4.15039 -5.00489,-13.86719 l 0,-1.58691 c 0,-10.37598 0.87891,-14.81934 6.46972,-16.57715 l 3.125,-0.95215 z m 0,0"
       id="path1840" />
    <path
       inkscape:connector-curvature="0"
       style="fill:#211e1e;fill-opacity:1;fill-rule:nonzero;stroke:none"
       d="m 177.39572,524.80834 0,-3.19824 -1.9043,-0.63476 c -5.22461,-1.75782 -7.8125,-7.32423 -10.37597,-17.06544 l -24.19434,-90.52734 -3.68653,0 -9.93652,7.17773 -21.75293,78.24707 c -3.78418,13.54981 -7.812506,20.41016 -13.061526,22.31445 l -1.34278,0.48829 0,3.19824 c 2.2461,0 10.156246,-0.34179 14.184586,-0.34179 4.0039,0 11.15722,0.34179 13.15917,0.34179 l 0,-3.19824 -2.56347,-0.63476 c -5.24903,-1.26954 -6.34765,-4.78517 -6.34765,-8.76465 0,-3.9795 1.09862,-9.25294 2.4414,-14.35548 l 2.7832,-11.15723 26.78224,0 4.02831,15.94239 c 1.09864,4.46778 1.66016,7.9834 1.66016,10.20508 0,4.46777 -1.5625,6.86035 -6.90919,8.12989 l -2.7832,0.63476 0,3.19824 c 2.00195,0 16.8457,-0.34179 20.84962,-0.34179 3.90625,0 16.8457,0.34179 18.96972,0.34179 z m -37.47559,-44.9463 -23.33983,0 11.71875,-46.55761 11.62108,46.55761 z m 0,0"
       id="path1842" />
    <path
       inkscape:connector-curvature="0"
       style="fill:#211e1e;fill-opacity:1;fill-rule:nonzero;stroke:none"
       d="m 255.16427,524.46655 -0.34179,-3.02734 c -4.58985,-0.78125 -6.25,-2.85645 -11.71875,-14.01369 l -17.62696,-36.01074 c 10.03419,-5.10253 17.40723,-14.99024 17.40723,-28.36914 0,-18.65235 -12.06054,-27.417 -29.46777,-27.417 -4.90723,0 -12.71973,0.14649 -16.72363,0.14649 -4.02833,0 -17.74903,-0.31739 -19.9707,-0.31739 l 0,3.19825 3.68652,1.12305 c 5.5664,1.73339 6.46973,6.20117 6.46973,28.51563 l 0,43.67675 c 0,22.31445 -0.90333,26.75782 -6.46973,28.51563 l -3.68652,1.12305 0,3.19825 c 2.22167,0 15.2832,-0.34179 19.2871,-0.34179 4.02832,0 18.18848,0.34179 20.3125,0.34179 l 0,-3.19825 -3.68652,-1.12305 c -6.78711,-2.07519 -7.47071,-4.46778 -7.47071,-28.68653 l 0,-16.40625 c 0.6836,0.14649 1.46485,0.31739 2.2461,0.31739 l 16.5039,35.05859 c 4.56544,9.7168 10.03419,14.67286 19.31153,14.67286 4.78516,0 8.69141,-0.31739 11.93847,-0.97656 z m -30.9082,-79.51662 c 0,19.4336 -7.03125,26.29395 -15.52734,26.29395 -1.5625,0 -2.78321,-0.14649 -3.56446,-0.31739 l 0,-49.56053 c 1.5625,-0.31739 3.90625,-0.63478 6.46973,-0.63478 8.81348,0 12.62207,9.39943 12.62207,24.21875 z m 0,0"
       id="path1844" />
    <path
       inkscape:connector-curvature="0"
       style="fill:#211e1e;fill-opacity:1;fill-rule:nonzero;stroke:none"
       d="m 330.68186,418.65599 0,-3.19825 c -2.12402,0 -9.25294,0.31739 -13.28125,0.31739 -4.12599,0 -13.72071,-0.31739 -15.84474,-0.31739 l 0,3.19825 2.68555,0.80567 c 3.68653,1.09863 5.68848,3.66211 5.68848,7.00683 0,3.66212 -0.78125,6.68945 -2.56348,11.62109 l -12.37792,33.78906 -14.50195,-36.96288 c -1.80665,-4.63868 -2.46583,-6.68945 -2.46583,-9.08203 0,-2.70996 1.2207,-5.27344 6.03028,-6.54297 l 2.34375,-0.63477 0,-3.19825 c -2.00195,0 -19.18945,0.31739 -23.0957,0.31739 -4.02833,0 -16.84572,-0.31739 -18.96974,-0.31739 l 0,3.19825 2.22169,0.80567 c 5.37108,1.9043 8.37402,5.88378 12.1582,14.33105 l 20.6543,47.80273 0,10.20508 c 0,24.38965 -0.78125,26.46485 -8.37403,28.68653 l -3.68652,1.12305 0,3.19825 c 2.12402,0 17.1875,-0.34179 21.21582,-0.34179 4.0039,0 19.06738,0.34179 21.1914,0.34179 l 0,-3.19825 -3.68652,-1.12305 c -7.59278,-2.22168 -8.37403,-4.29688 -8.37403,-28.68653 l 0,-12.25585 15.74708,-39.20899 c 5.24902,-13.08594 7.8125,-18.50586 15.38086,-21.04492 l 1.9043,-0.63477 z m 0,0"
       id="path1846" />
    <path
       inkscape:connector-curvature="0"
       style="fill:#211e1e;fill-opacity:1;fill-rule:nonzero;stroke:none"
       d="m 476.22873,524.83275 0,-3.75976 -4.32129,-1.31837 c -6.56738,-2.05077 -7.61719,-7.2998 -7.61719,-33.54491 l 0,-51.3916 c 0,-26.24513 1.04981,-31.49415 7.61719,-33.54493 l 4.32129,-1.31836 0,-3.75976 c -2.61231,0 -17.96875,0.39062 -22.70508,0.39062 -4.73633,0 -21.38672,-0.39062 -23.87695,-0.39062 l 0,3.75976 4.32129,1.31836 c 8.00781,2.41699 8.78906,5.24903 8.78906,33.74024 l 0,20.62987 -36.23046,0 0,-20.62987 c 0,-28.49121 0.80566,-31.32325 8.81347,-33.74024 l 4.32129,-1.31836 0,-3.75976 c -2.49024,0 -19.16504,0.39062 -23.87695,0.39062 -4.73634,0 -20.09278,-0.39062 -22.70509,-0.39062 l 0,3.75976 4.3213,1.31836 c 6.56738,2.05078 7.61719,7.2998 7.61719,33.54493 l 0,51.3916 c 0,26.24511 -1.04981,31.49414 -7.61719,33.54491 l -4.3213,1.31837 0,3.75976 c 2.61231,0 17.96875,-0.39063 22.70509,-0.39063 4.71191,0 21.38671,0.39063 23.87695,0.39063 l 0,-3.75976 -4.32129,-1.31837 c -8.00781,-2.4414 -8.81347,-5.24901 -8.81347,-33.74023 l 0,-22.31446 36.23046,0 0,22.31446 c 0,28.49122 -0.78125,31.29883 -8.78906,33.74023 l -4.32129,1.31837 0,3.75976 c 2.49024,0 19.14062,-0.39063 23.87695,-0.39063 4.73633,0 20.09277,0.39063 22.70508,0.39063 z m 0,0"
       id="path1852" />
    <path
       inkscape:connector-curvature="0"
       style="fill:#211e1e;fill-opacity:1;fill-rule:nonzero;stroke:none"
       d="m 542.82541,497.85521 -2.46583,0 -3.125,5.73731 c -6.34765,11.79199 -10.81542,15.30762 -19.50683,15.30762 l -1.46484,0 c -9.69239,0 -11.37695,-3.02734 -11.37695,-19.60449 l 0,-27.73438 5.9082,0.31737 c 13.28125,0.80567 14.62402,4.95607 15.40527,14.67285 l 0.12213,1.44044 2.66114,0 c 0,-3.36914 -0.21973,-14.03809 -0.21973,-19.92187 0,-5.73732 0.21973,-15.47852 0.21973,-18.96973 l -2.66114,0 -0.12213,1.41601 c -0.78125,9.74122 -2.56347,13.40333 -15.40527,14.03809 l -5.9082,0.31739 0,-42.06543 c 2.7832,-0.65917 5.81054,-1.12305 9.0332,-1.12305 l 1.00098,0 c 9.27734,0 14.0625,4.29688 18.96972,13.54981 l 3.90625,7.32422 2.46583,0 -3.4668,-26.92872 -8.91114,0 c -2.02636,0 -26.68457,0.14649 -30.68848,0.14649 -3.90625,0 -18.53027,-0.31739 -20.75195,-0.31739 l 0,3.19825 3.68653,1.12305 c 5.5664,1.73339 6.46972,6.20117 6.46972,28.51563 l 0,43.67675 c 0,22.31445 -0.90332,26.75782 -6.46972,28.51563 l -3.68653,1.12305 0,3.19824 c 2.22168,0 15.72266,-0.34179 19.62891,-0.34179 4.02832,0 25.34179,0.17089 31.56738,0.17089 l 11.6211,0 3.56445,-26.78223 z m 0,0"
       id="path1854" />
    <path
       inkscape:connector-curvature="0"
       style="fill:#211e1e;fill-opacity:1;fill-rule:nonzero;stroke:none"
       d="m 623.05002,524.46655 -0.3418,-3.02734 c -4.58985,-0.78125 -6.25,-2.85645 -11.71875,-14.01369 l -17.62695,-36.01074 c 10.03418,-5.10253 17.40723,-14.99024 17.40723,-28.36914 0,-18.65235 -12.06055,-27.417 -29.46778,-27.417 -4.90722,0 -12.71972,0.14649 -16.72363,0.14649 -4.02832,0 -17.74903,-0.31739 -19.9707,-0.31739 l 0,3.19825 3.68652,1.12305 c 5.5664,1.73339 6.46973,6.20117 6.46973,28.51563 l 0,43.67675 c 0,22.31445 -0.90333,26.75782 -6.46973,28.51563 l -3.68652,1.12305 0,3.19825 c 2.22167,0 15.2832,-0.34179 19.28711,-0.34179 4.02831,0 18.18847,0.34179 20.3125,0.34179 l 0,-3.19825 -3.68653,-1.12305 c -6.78711,-2.07519 -7.4707,-4.46778 -7.4707,-28.68653 l 0,-16.40625 c 0.68359,0.14649 1.46484,0.31739 2.24609,0.31739 l 16.50391,35.05859 c 4.56543,9.7168 10.03418,14.67286 19.31153,14.67286 4.78515,0 8.6914,-0.31739 11.93847,-0.97656 z m -30.90821,-79.51662 c 0,19.4336 -7.03125,26.29395 -15.52734,26.29395 -1.5625,0 -2.7832,-0.14649 -3.56445,-0.31739 l 0,-49.56053 c 1.5625,-0.31739 3.90625,-0.63478 6.46973,-0.63478 8.81347,0 12.62206,9.39943 12.62206,24.21875 z m 0,0"
       id="path1856" />
    <path
       inkscape:connector-curvature="0"
       style="fill:#211e1e;fill-opacity:1;fill-rule:nonzero;stroke:none"
       d="m 700.68186,524.80834 0,-3.19824 -1.9043,-0.63476 c -5.22461,-1.75782 -7.8125,-7.32423 -10.37598,-17.06544 l -24.19433,-90.52734 -3.68653,0 -9.93652,7.17773 -21.75293,78.24707 c -3.78418,13.54981 -7.8125,20.41016 -13.06152,22.31445 l -1.34278,0.48829 0,3.19824 c 2.24609,0 10.15625,-0.34179 14.18458,-0.34179 4.0039,0 11.15722,0.34179 13.15917,0.34179 l 0,-3.19824 -2.56347,-0.63476 c -5.24903,-1.26954 -6.34766,-4.78517 -6.34766,-8.76465 0,-3.9795 1.09863,-9.25294 2.44141,-14.35548 l 2.7832,-11.15723 26.78222,0 4.02833,15.94239 c 1.09862,4.46778 1.66015,7.9834 1.66015,10.20508 0,4.46777 -1.5625,6.86035 -6.90918,8.12989 l -2.7832,0.63476 0,3.19824 c 2.00195,0 16.8457,-0.34179 20.8496,-0.34179 3.90625,0 16.84572,0.34179 18.96974,0.34179 z m -37.47559,-44.9463 -23.33985,0 11.71875,-46.55761 11.6211,46.55761 z m 0,0"
       id="path1858" />
    <path
       inkscape:connector-curvature="0"
       style="fill:#211e1e;fill-opacity:1;fill-rule:nonzero;stroke:none"
       d="m 764.83225,494.19311 -2.68555,0 -4.12598,8.93554 c -5.46875,11.792 -9.47266,15.77149 -17.1875,15.77149 l -1.00097,0 c -9.69239,0 -11.37695,-3.02734 -11.37695,-19.60449 l 0,-50.83009 c 0,-24.38964 0.78125,-26.46484 8.37401,-28.68652 l 3.68652,-1.12304 0,-3.19825 c -2.12402,0 -17.1875,0.31739 -21.21581,0.31739 -4.00391,0 -17.06544,-0.31739 -19.28711,-0.31739 l 0,3.19825 3.68652,1.12304 c 5.5664,1.73339 6.46973,6.20117 6.46973,28.51563 l 0,43.67675 c 0,22.31445 -0.90333,26.75782 -6.46973,28.51563 l -3.68652,1.12305 0,3.19825 c 2.4414,0 17.62695,-0.34179 21.63086,-0.34179 4.02831,0 20.21484,0.17089 26.5625,0.17089 l 12.1582,0 4.46778,-30.44433 z m 0,0"
       id="path1860" />
    <path
       inkscape:connector-curvature="0"
       style="fill:#211e1e;fill-opacity:1;fill-rule:nonzero;stroke:none"
       d="m 847.6203,470.43822 c 0,-34.57031 -18.4082,-54.98048 -46.4111,-54.98048 -5.0293,0 -16.3086,0.31739 -20.6543,0.31739 -4.0039,0 -12.81738,-0.31739 -14.9414,-0.31739 l 0,3.19825 3.68652,1.12305 c 5.5664,1.73339 6.46973,6.20117 6.46973,28.51563 l 0,43.67675 c 0,22.31445 -0.90333,26.75782 -6.46973,28.51563 l -3.68652,1.12305 0,3.19825 c 2.12402,0 15.2832,-0.34179 19.2871,-0.34179 5.1514,0 9.2773,0.48827 19.873,0.48827 24.7559,0 42.8467,-19.43358 42.8467,-54.5166 z m -20.5322,1.29395 c 0,32.17773 -8.374,47.80273 -21.3135,47.80273 -9.0332,0 -11.7187,-4.93164 -11.7187,-19.43359 l 0,-78.58888 c 1.2207,-0.14647 3.3447,-0.31737 5.249,-0.31737 19.1895,0 27.7832,17.5293 27.7832,50.53711 z m 0,0"
       id="path1862" />
  </g>
</svg>
