<svg xmlns="http://www.w3.org/2000/svg" width="200" height="200" viewBox="0 0 200 200"><rect width="200" height="200" fill="#fff"/><rect width="200" height="200" fill="#fff"/><path d="M83.11,104.58a1,1,0,0,0-1,.87h-38l21.73-1.9a.61.61,0,0,0,.72.46.6.6,0,1,0-.26-1.18.61.61,0,0,0-.47.55l-21.74,1.9,31.31-5.52a.95.95,0,1,0,.65-1.17,1,1,0,0,0-.68.93v.08L44,105.13l16.39-4.46a.84.84,0,1,0,0-.16l-16.24,4.42L74.82,93.76l0-.08,0-.08L44,104.8l19.78-9.22a.67.67,0,1,0,.22-.92.66.66,0,0,0-.29.76L44,104.61,75.57,86.52a1,1,0,1,0,.23-1.33,1,1,0,0,0-.4.78.9.9,0,0,0,.09.4l-31.76,18.2L58.07,94.46a.62.62,0,1,0,.92-.84.63.63,0,0,0-.88,0,.64.64,0,0,0-.13.75l-14.18,10,25-21-.11-.13-25.06,21L61.85,86.08a.61.61,0,1,0-.12-.85.62.62,0,0,0,0,.73L43.49,104.15,69.54,73.06A.94.94,0,0,0,70.6,71.5.94.94,0,0,0,69.41,73l-26,31L55.9,86.13a.55.55,0,0,0,.28.07.6.6,0,0,0,.6-.6.6.6,0,1,0-1.2,0,.56.56,0,0,0,.19.45L43.25,103.91l15.9-27.53a.9.9,0,0,0,.4.09A1,1,0,1,0,59,76.3L43.09,103.85,54.36,79.62a.47.47,0,0,0,.17,0,.61.61,0,1,0-.6-.6.6.6,0,0,0,.27.5L43,103.7,53,76.44a1.07,1.07,0,0,0,.25,0,1,1,0,1,0,0-1.93,1,1,0,0,0-1,1,1,1,0,0,0,.56.88l-10,27.3,4.83-17.81h.07a.6.6,0,1,0,0-1.2.6.6,0,0,0-.6.6.59.59,0,0,0,.36.55l-4.85,17.9,5.54-31.37h.08a1,1,0,1,0-.25,0l-5.52,31.31,1.9-21.74a.59.59,0,0,0,.56-.63.6.6,0,0,0-.64-.55.59.59,0,0,0-.55.63.61.61,0,0,0,.46.54l-1.9,21.73v-48h-.17v48L39.94,78.93a.61.61,0,0,0,.45-.72.6.6,0,1,0-1.17.27.59.59,0,0,0,.55.46L42,103.6,36.45,72.32a.94.94,0,0,0,.64-1.17.94.94,0,0,0-1.81.52,1,1,0,0,0,.92.69h.08l5.52,31.31L36.16,82.58a.6.6,0,1,0-.24,0H36l5.66,21.12-10-27.36A1,1,0,0,0,32.16,75a1,1,0,0,0-1.38-.52,1,1,0,0,0,.7,2l9.94,27.16L33.94,87.32a.6.6,0,0,0-.65-1,.59.59,0,0,0-.18.82.61.61,0,0,0,.51.28l.17,0L41.41,104,19.62,66.42a1,1,0,1,0-1.12-1.64,1,1,0,0,0,1,1.72L41.2,103.94,26.82,83.56a.63.63,0,0,0-.85-.93.63.63,0,0,0,0,.89.62.62,0,0,0,.74.13L41,104,20.62,79.66a1,1,0,0,0-1.38-1.4,1,1,0,0,0,1.25,1.5l20.43,24.36L25.49,88.69a.61.61,0,0,0-.12-.85.6.6,0,0,0-.84.12.6.6,0,0,0,.11.85.62.62,0,0,0,.73,0l15.46,15.45-27-22.55a1,1,0,1,0-.79.41.92.92,0,0,0,.68-.29l26.84,22.45L24.32,92.8a.68.68,0,0,0,.07-.27.61.61,0,1,0-1.21,0,.62.62,0,0,0,.6.61.6.6,0,0,0,.44-.19l16.44,11.6L13.07,88.61a1,1,0,1,0-.09.14l27.51,15.88L18.26,94.23l0-.18a.6.6,0,1,0-.1.33l22.35,10.46L2.9,91.3a1,1,0,0,0,0-.24,1,1,0,1,0-1,1,1,1,0,0,0,.88-.56L40.3,104.94l-21-5.63a.17.17,0,0,1,0-.07.6.6,0,1,0-.6.6.61.61,0,0,0,.55-.37l21.08,5.65L9,99.6a.25.25,0,0,0,0-.08,1,1,0,1,0-1,1A1,1,0,0,0,9,99.76l31.36,5.53-18.49-1.58a.59.59,0,0,0-.63-.55.59.59,0,0,0-.55.63.59.59,0,0,0,1.17.09l18.39,1.57H14.87a1,1,0,0,0-1-.87,1,1,0,1,0,1,1H40.3l-21.74,1.9a.6.6,0,0,0-.72-.46.61.61,0,0,0-.46.72.61.61,0,0,0,1.2-.09l21.73-1.91L9,111.31a.92.92,0,0,0-1.16-.65.94.94,0,1,0,.52,1.81.93.93,0,0,0,.68-.92.25.25,0,0,0,0-.08L40.34,106l-13.89,3.72a.6.6,0,0,0-.79-.32.59.59,0,0,0-.32.78.6.6,0,0,0,.79.32.59.59,0,0,0,.36-.55v-.07l13.9-3.72L10.51,117a1,1,0,1,0-.45,1.26.92.92,0,0,0,.54-.86,1.07,1.07,0,0,0,0-.25l29.87-10.87-19.77,9.22a.61.61,0,0,0-.83-.17.6.6,0,0,0,.65,1,.57.57,0,0,0,.27-.5.88.88,0,0,0,0-.17l19.74-9.21-33,19,.08.15,33-19L19.76,121.16a.59.59,0,0,0-.84,0,.6.6,0,0,0,0,.84.61.61,0,0,0,.85,0,.63.63,0,0,0,.19-.44.6.6,0,0,0-.07-.27l20.83-14.59L16.34,127.14a1,1,0,1,0,0,1.39,1,1,0,0,0,.12-1.27L40.8,106.83,25.37,122.26a.61.61,0,1,0,.12.85.62.62,0,0,0,0-.73L40.92,107,20.49,131.3a.94.94,0,1,0-1.06,1.56.94.94,0,0,0,1.19-1.45l20.43-24.35-9.54,13.63a.57.57,0,1,0,.14.09l9.55-13.65L20.57,143a1,1,0,0,0-.4-.1,1,1,0,1,0,.95,1,1,1,0,0,0-.4-.79l20.6-35.79-9.17,19.65a.61.61,0,1,0,.34.8.6.6,0,0,0-.19-.71l9.18-19.7L30.61,137.18a1,1,0,0,0-.24,0,1,1,0,1,0,.4.09l10.87-29.87-4.83,18h-.07a.6.6,0,1,0,.6.6.59.59,0,0,0-.36-.55l4.85-18.12-4.37,25.57h-.08a1,1,0,1,0,1,1,1,1,0,0,0-.71-1L42,107.44l-1.92,23.42a.59.59,0,1,0,.17,0l1.91-23.28V140.2h.16V107.51L43.71,124a.57.57,0,1,0,.16,0l-1.42-16.62L49,143.48a.95.95,0,1,0,1.17.65.94.94,0,0,0-.92-.68h-.09l-6.46-36,6.15,22.92a.58.58,0,1,0,.23,0H49l-6.16-23,10.87,29.87a1,1,0,1,0,.4-.09.67.67,0,0,0-.24,0L43,107.31l9.22,19.78a.65.65,0,1,0,.9.21.66.66,0,0,0-.75-.28l-9.21-19.75L58,133.05a1,1,0,1,0,1.38.27A1,1,0,0,0,58.1,133L43.25,107.15l10.24,14.67a.62.62,0,1,0,.88,0,.63.63,0,0,0-.74-.14L43.37,107l20.45,24.37a1,1,0,0,0,0,1.39,1,1,0,0,0,1.4,0A1,1,0,0,0,64,131.3L43.52,107,53,116.4a.58.58,0,0,0-.12.36.62.62,0,0,0,.6.61.61.61,0,0,0,.61-.6.6.6,0,0,0-.6-.61.63.63,0,0,0-.37.12l-9.46-9.47,18.53,15.51a.93.93,0,0,0,.24,1.31.95.95,0,1,0-.14-1.44L43.77,106.72l17.85,12.5a.64.64,0,0,0-.07.27.61.61,0,1,0,.61-.6.64.64,0,0,0-.45.19L43.84,106.57l27.53,15.89a.93.93,0,0,0-.09.4,1,1,0,1,0,1.92,0,1,1,0,0,0-1-1,1,1,0,0,0-.8.41l-27.53-15.9,17.33,8.08a.59.59,0,0,0,.41.73.58.58,0,0,0,.73-.4.59.59,0,0,0-.4-.73.61.61,0,0,0-.67.25L44,106.27l33.85,12.29a1.07,1.07,0,0,0,0,.25,1,1,0,0,0,1.93,0,1,1,0,0,0-1.84-.42l-33.83-12.3,21.07,5.65a.17.17,0,0,0,0,.07.61.61,0,1,0,0-.23L44.09,106l31.32,5.52a.22.22,0,0,0,0,.08,1,1,0,1,0,1-1,1,1,0,0,0-1,.7l-31.36-5.53L58.33,107a.59.59,0,0,0,.63.56.6.6,0,0,0,.56-.63.6.6,0,0,0-1.18-.09l-14.14-1.2h38a1,1,0,1,0,1-1" fill="#ffa300"/><path d="M42.22,54.67a1,1,0,1,0,1,.95,1,1,0,0,0-1-.95" fill="#ffa300"/><path d="M7.56,124.51a1,1,0,1,0,0,1.91,1,1,0,0,0,0-1.91" fill="#ffa300"/><path d="M42.22,139.24a1,1,0,1,0,1,1h0a1,1,0,0,0-1-1" fill="#ffa300"/><path d="M74.79,92.72a1,1,0,1,0,1,1,1,1,0,0,0-1-1" fill="#ffa300"/><path d="M68.77,82.3a1,1,0,1,0,1,1h0a1,1,0,0,0-1-1" fill="#ffa300"/><path d="M76.35,85a1,1,0,1,0,1,1h0a1,1,0,0,0-1-1" fill="#e50019"/><path d="M9.65,116.43a1,1,0,1,0,1,1,1,1,0,0,0-1-1" fill="#e50019"/><path d="M53.2,74.56a1,1,0,1,0,1,1,1,1,0,0,0-1-1" fill="#e50019"/><path d="M70.08,71.31a1,1,0,1,0,1,1h0a1,1,0,0,0-1-1" fill="#00204a"/><path d="M13.92,104.58a1,1,0,1,0,1,1,1,1,0,0,0-1-1" fill="#00204a"/><path d="M62.93,121.91a1,1,0,1,0,1,1h0a1,1,0,0,0-1-1" fill="#00204a"/><path d="M15.67,126.86a1,1,0,1,0,1,1,1,1,0,0,0-1-1" fill="#00204a"/><path d="M30.36,137.15a1,1,0,1,0,1,1,1,1,0,0,0-1-1" fill="#e50019"/><path d="M19.07,64.68a1,1,0,1,0,0,1.91,1,1,0,0,0,.95-1h0a1,1,0,0,0-.95-1" fill="#e50019"/><path d="M64.5,131.13a1,1,0,1,0,1,1,1,1,0,0,0-1-1" fill="#e50019"/><path d="M47.38,110.1a.41.41,0,0,1,.11-.56l0,0c1.56-1.24,4.94-4,5.1-4.12-.38-.21-.71-.4-1-.57a.32.32,0,0,1-.2-.42c.08-.26.58-2.27.77-3.05-.17,0-1.71.36-2.36.52-.28.06-.44,0-.54-.26-.22-.52-.47-1-.73-1.59-1.16,1.09-2.22,2.23-3.38,3.27l-.14-.06c.52-2.14,1-4.28,1.56-6.47-.78.31-1.5.58-2.21.88-.24.1-.34,0-.43-.15L42.2,94l-2,3.48a.25.25,0,0,1-.33.14l-.05,0c-.28-.13-1.69-.7-2.16-.89.5,2.28,1.07,4.48,1.52,6.71l-.14.06-3.55-3.4-.48,1.19c-.29.7-.16.62-.94.5s-1.3-.2-2-.32c0,.12.6,2.15.89,3.09.08.26,0,.39-.27.46s-.72.22-1.11.34c.08.08,3.35,2.86,4.94,4.2.49.41.49.41.21,1,0,.09-.51.93-.71,1.32l5.77-1.26.57,0c1,.21,5.26,1.08,5.66,1.15-.25-.58-.46-1.11-.71-1.61" fill="#e50019"/><path d="M101.76,109.92a6.71,6.71,0,0,0,5.41-2.36l-1.84-1.86a4.79,4.79,0,0,1-3.47,1.54A3.91,3.91,0,0,1,98,103.1v0A3.91,3.91,0,0,1,101.86,99a4.84,4.84,0,0,1,3.37,1.49l1.85-2.13a6.82,6.82,0,0,0-5.21-2A6.71,6.71,0,0,0,95,102.8v.33a6.67,6.67,0,0,0,6.54,6.79Z" fill="#da291c"/><path d="M112.92,109.88A3.9,3.9,0,0,0,116,108.6v1.09h2.77v-5.86a4.4,4.4,0,0,0-1.09-3.22,4.67,4.67,0,0,0-3.42-1.14,9,9,0,0,0-3.92.81l.72,2.19a7.62,7.62,0,0,1,2.79-.55c1.43,0,2.17.66,2.17,1.85v.17a7.16,7.16,0,0,0-2.47-.41c-2.4,0-4.08,1-4.08,3.22v0C109.45,108.79,111,109.88,112.92,109.88Zm.87-2c-.92,0-1.56-.45-1.56-1.22v0c0-.9.75-1.39,2-1.39a4.44,4.44,0,0,1,1.83.37v.51c0,1-.91,1.77-2.25,1.77Z" fill="#da291c"/><path d="M122.09,109.7H125v-5.64c0-1.36.69-2.06,1.79-2.06s1.73.7,1.73,2.06v5.64h2.87v-6.55c0-2.32-1.26-3.75-3.43-3.75a3.6,3.6,0,0,0-3,1.62V99.59h-2.87Z" fill="#da291c"/><path d="M141.19,109.92a6.73,6.73,0,0,0,5.42-2.36l-1.85-1.86a4.77,4.77,0,0,1-3.47,1.54,3.92,3.92,0,0,1-3.83-4.14v0A3.91,3.91,0,0,1,141.29,99a4.86,4.86,0,0,1,3.38,1.49l1.84-2.13a6.78,6.78,0,0,0-5.2-2,6.7,6.7,0,0,0-6.88,6.53c0,.1,0,.2,0,.3v0a6.67,6.67,0,0,0,6.54,6.79Z" fill="#002554"/><path d="M155.71,109.92a6.83,6.83,0,0,0,7-6.82v0a7,7,0,0,0-14,0v0A6.77,6.77,0,0,0,155.71,109.92Zm0-2.68a4,4,0,0,1-4-4.14v0a4,4,0,0,1,4-4.11,4,4,0,0,1,4,4.15v0a3.94,3.94,0,0,1-4,4.11Z" fill="#002554"/><path d="M168.91,109.79h2.57l5.34-13.29h-3.13l-3.46,9.29-3.45-9.29h-3.2Z" fill="#002554"/><path d="M179.86,109.7h2.9V96.5h-2.9Z" fill="#002554"/><path d="M186.83,109.7H192c4.15,0,7-2.89,7-6.6v0c0-3.72-2.87-6.56-7-6.56h-5.14Zm2.9-2.63V99.12H192a3.79,3.79,0,0,1,4,4v0a3.76,3.76,0,0,1-4,3.94Z" fill="#002554"/></svg>