<svg height='100px' width='100px'  fill="#000000" xmlns="http://www.w3.org/2000/svg" xmlns:xlink="http://www.w3.org/1999/xlink" viewBox="0 0 73 100" version="1.1" x="0px" y="0px"><title>Newspaper daily newsreading illustration info graphic explainer\</title><desc>Created with Sketch.</desc><g stroke="none" stroke-width="1" fill="none" fill-rule="evenodd"><path d="M72.713923,17 L60,17 C57.790861,17 56,15.209139 56,13 L56,0.305496399 C56.0261883,0.32118712 56.0520091,0.337451736 56.07783,0.35385 C56.09302,0.36357 56.10911,0.37217 56.1243,0.38213 C56.16647,0.41041 56.2066,0.44163 56.24673,0.47262 C56.26509,0.48688 56.28459,0.49977 56.30272,0.51448 C56.34421,0.54864 56.38298,0.58552 56.42197,0.6224 C56.43648,0.63597 56.45212,0.64819 56.46641,0.66244 L72.33597,16.49955 C72.35003,16.5138 72.36227,16.52941 72.3761,16.54389 C72.41305,16.58281 72.45001,16.62149 72.48424,16.6629 C72.4992,16.681 72.5119,16.70045 72.52618,16.719 C72.55724,16.75905 72.58852,16.79887 72.61686,16.84118 C72.62707,16.85633 72.63545,16.8724 72.6452,16.88778 C72.6688198,16.9248274 72.6921634,16.9618686 72.713923,17 Z M55,0.00408113245 L55,14 C55,16.209139 56.790861,18 59,18 L72.9977912,18 C72.9992578,18.0330836 73,18.0662734 73,18.09955 L73,97.73756 C73,98.98688 71.9848,100 70.73292,100 L2.26708,100 C1.01497,100 0,98.98688 0,97.73756 L0,2.26244 C0,1.01312 1.01497,0 2.26708,0 L54.86335,0 C54.9090477,0 54.9545824,0.00139377646 55,0.004081132 Z M27.4044742,69.2562887 C28.839701,69.2562887 29.864866,68.2311238 29.864866,66.795897 C29.864866,65.3606701 28.839701,64.2329897 27.4044742,64.2329897 L17.4603917,64.2329897 C16.0251649,64.2329897 15,65.3606701 15,66.795897 C15,68.2311238 16.0251649,69.2562887 17.4603917,69.2562887 L27.4044742,69.2562887 Z M27.4044742,59.2096908 C28.839701,59.2096908 29.864866,58.1845259 29.864866,56.749299 C29.864866,55.3140722 28.839701,54.1863918 27.4044742,54.1863918 L17.4603917,54.1863918 C16.0251649,54.1863918 15,55.3140722 15,56.749299 C15,58.1845259 16.0251649,59.2096908 17.4603917,59.2096908 L27.4044742,59.2096908 Z M27.4044742,49.1630928 C28.839701,49.1630928 29.864866,48.1379279 29.864866,46.7027011 C29.864866,45.2674742 28.839701,44.1397938 27.4044742,44.1397938 L17.4603917,44.1397938 C16.0251649,44.1397938 15,45.2674742 15,46.7027011 C15,48.1379279 16.0251649,49.1630928 17.4603917,49.1630928 L27.4044742,49.1630928 Z M43.4790309,19.023299 C44.9142578,19.023299 45.9394227,17.9981341 45.9394227,16.5629072 C45.9394227,15.1276804 44.9142578,14 43.4790309,14 L17.4603917,14 C16.0251649,14 15,15.1276804 15,16.5629072 C15,17.9981341 16.0251649,19.023299 17.4603917,19.023299 L43.4790309,19.023299 Z M55.5349485,79.3028867 C56.9701753,79.3028867 57.9953402,78.2777218 57.9953402,76.8424949 C57.9953402,75.4072681 56.9701753,74.2795877 55.5349485,74.2795877 L40.567567,74.2795877 C39.1323402,74.2795877 38.1071753,75.4072681 38.1071753,76.8424949 C38.1071753,78.2777218 39.1323402,79.3028867 40.567567,79.3028867 L55.5349485,79.3028867 Z M55.5349485,89.3494846 C56.9701753,89.3494846 57.9953402,88.3243197 57.9953402,86.8890929 C57.9953402,85.453866 56.9701753,84.3261856 55.5349485,84.3261856 L40.567567,84.3261856 C39.1323402,84.3261856 38.1071753,85.453866 38.1071753,86.8890929 C38.1071753,88.3243197 39.1323402,89.3494846 40.567567,89.3494846 L55.5349485,89.3494846 Z M57.9953402,36.1025155 L57.9953402,27.0605773 C57.9953402,25.3960068 56.6459414,24.0465979 54.9813608,24.0465979 L18.0139794,24.0465979 C16.3494088,24.0465979 15,25.3960068 15,27.0605773 L15,36.1025155 C15,37.7670861 16.3494088,39.1164949 18.0139794,39.1164949 L54.9813608,39.1164949 C56.6459414,39.1164949 57.9953402,37.7670861 57.9953402,36.1025155 Z M32.4277732,79.3028867 C33.863,79.3028867 34.8881649,78.2777218 34.8881649,76.8424949 C34.8881649,75.4072681 33.863,74.2795877 32.4277732,74.2795877 L17.4603917,74.2795877 C16.0251649,74.2795877 15,75.4072681 15,76.8424949 C15,78.2777218 16.0251649,79.3028867 17.4603917,79.3028867 L32.4277732,79.3028867 Z M32.4277732,89.3494846 C33.863,89.3494846 34.8881649,88.3243197 34.8881649,86.8890929 C34.8881649,85.453866 33.863,84.3261856 32.4277732,84.3261856 L17.4603917,84.3261856 C16.0251649,84.3261856 15,85.453866 15,86.8890929 C15,88.3243197 16.0251649,89.3494846 17.4603917,89.3494846 L32.4277732,89.3494846 Z M55.9860206,43.8745637 L36.8974845,43.8745637 C35.2329139,43.8745637 33.8835051,45.2239725 33.8835051,46.888543 L33.8835051,66.9817389 C33.8835051,68.6463095 35.2329139,69.9957183 36.8974845,69.9957183 L55.9860206,69.9957183 C57.6506012,69.9957183 59,68.6463095 59,66.9817389 L59,46.888543 C59,45.2239725 57.6506012,43.8745637 55.9860206,43.8745637 Z" fill="#000000" fill-rule="nonzero"></path></g></svg>