<svg height='100px' width='100px'  fill="#000000" xmlns="http://www.w3.org/2000/svg" xmlns:xlink="http://www.w3.org/1999/xlink" version="1.1" x="0px" y="0px" viewBox="0 0 66 66" style="enable-background:new 0 0 66 66;" xml:space="preserve"><path d="M43.69,9.94c-0.57-0.35-1.06-0.84-1.41-1.41l-8.68,8.68h2.83L43.69,9.94z"></path><path d="M46.02,8.61c1.33,0,2.41-1.08,2.41-2.41s-1.08-2.41-2.41-2.41c-1.33,0-2.41,1.08-2.41,2.41S44.69,8.61,46.02,8.61z"></path><path d="M29.6,17.21h2.83l-8.71-8.68c-0.35,0.57-0.84,1.06-1.41,1.41L29.6,17.21z"></path><path d="M19.98,8.61c1.33,0,2.41-1.08,2.41-2.41s-1.08-2.41-2.41-2.41s-2.41,1.08-2.41,2.41S18.65,8.61,19.98,8.61z"></path><path d="M9,55.21h38v-29H9V55.21z M23.75,35.15c0-1.34,1.48-2.14,2.6-1.41l8.57,5.56c1.02,0.66,1.02,2.16,0,2.83l-8.57,5.56  c-1.12,0.73-2.6-0.08-2.6-1.41V35.15z"></path><path d="M60,19.21H6c-2.21,0-4,1.79-4,4v35c0,2.21,1.79,4,4,4h54c2.21,0,4-1.79,4-4v-35C64,21,62.21,19.21,60,19.21z M49,56.21  c0,0.55-0.45,1-1,1H8c-0.55,0-1-0.45-1-1v-31c0-0.55,0.45-1,1-1h40c0.55,0,1,0.45,1,1V56.21z M56,55.28c-1.82,0-3.29-1.47-3.29-3.29  s1.47-3.29,3.29-3.29s3.29,1.47,3.29,3.29S57.82,55.28,56,55.28z M56,43.72c-1.82,0-3.29-1.47-3.29-3.29s1.47-3.29,3.29-3.29  s3.29,1.47,3.29,3.29S57.82,43.72,56,43.72z"></path></svg>