<svg xmlns="http://www.w3.org/2000/svg" xmlns:xlink="http://www.w3.org/1999/xlink" viewBox="0 0 322.94 322.94"><defs><style>.cls-1{fill:none;}.cls-2{fill:#bcbcbc;}.cls-3{clip-path:url(#clip-path);}.cls-4{fill:#3c3f44;}.cls-5{fill:#772f16;}.cls-6{fill:#9fafbc;}.cls-7{fill:#e4ad81;}.cls-8{fill:#d79561;}.cls-9{fill:#152063;}.cls-10{fill:#0b1547;}.cls-11{fill:#dfe9f4;}.cls-12{fill:#b6c5d3;}.cls-13,.cls-61{fill:#fff;}.cls-14{fill:#bf8258;}.cls-15{fill:#fbc6a1;}.cls-16{fill:#6d8c99;}.cls-17{opacity:0.8;}.cls-18,.cls-61{opacity:0.6;}.cls-19{fill:#fbc5a1;}.cls-20{fill:#fac4a0;}.cls-21{fill:#fac3a0;}.cls-22{fill:#fac2a0;}.cls-23{fill:#fac29f;}.cls-24{fill:#fac19f;}.cls-25{fill:#f9c19f;}.cls-26{fill:#f9c09f;}.cls-27{fill:#f9bf9e;}.cls-28{fill:#f9be9e;}.cls-29{fill:#f8bd9e;}.cls-30{fill:#f8bd9d;}.cls-31{fill:#f8bc9d;}.cls-32{fill:#f8bb9d;}.cls-33{fill:#f8ba9d;}.cls-34{fill:#f7ba9c;}.cls-35{fill:#f7b99c;}.cls-36{fill:#f7b89c;}.cls-37{fill:#f7b79c;}.cls-38{fill:#f7b79b;}.cls-39{fill:#f6b69b;}.cls-40{fill:#f6b59b;}.cls-41{fill:#f6b49a;}.cls-42{fill:#f6b39a;}.cls-43{fill:#f5b39a;}.cls-44{fill:#f5b29a;}.cls-45{fill:#f5b299;}.cls-46{fill:#f5b199;}.cls-47{fill:#f5b099;}.cls-48{fill:#f4af98;}.cls-49{fill:#f4ae98;}.cls-50{fill:#c3c3c9;}.cls-51{fill:#5e0c00;}.cls-52{fill:#e88282;}.cls-53{fill:#fab6b7;}.cls-54{fill:#602100;}.cls-55{fill:#eebd95;}.cls-56{fill:#f7d6bf;}.cls-57{fill:#8e4420;}.cls-58{fill:#61bcbc;opacity:0.4;}.cls-59{fill:#1a1156;}.cls-60{fill:#7381c9;}</style><clipPath id="clip-path"><rect class="cls-1" width="322.94" height="322.94" rx="64.41"/></clipPath></defs><g id="background"><rect class="cls-2" width="322.94" height="322.94" rx="64.41"/></g><g id="image"><g class="cls-3"><path class="cls-4" d="M102.85,454.37v14.17s15,7.81,18.8,9.2c11.56,4.26,32.26,8.3,49.88,6.38,19.51-2.12,36.2-6.33,40.84-7.08,6.5-1.07,18.79-3.9,18.79-3.9s-3.25-33.29-4-45S223.72,322.63,217,303.5a351.12,351.12,0,0,1-11.1-40.38l-78.07,6.37s-12,8-15.73,41.18-3.79,75.7-6,96.95S102.85,454.37,102.85,454.37Z"/><path class="cls-5" d="M133.7,32.1c-10,11.66-10.88,25.56-8.73,38.63,2.44,14.79,5.47,33.24,14,40.13a34.35,34.35,0,0,0,15.83,5.31c20.2,2.28,30.72-5.59,30.72-5.59,3.3-2.2,6.61-7.71,8.54-16,2.4-10.32,9.17-44-.7-58.42C182.82,20.74,148.84,14.38,133.7,32.1Z"/><path class="cls-6" d="M144.05,127.12c-6.5-5.31-2.51-11.38.47-13.77s25.88-2.65,32.61-.58,10,5.85,8.4,12.22,6.23.27-4.34,6.38S150.56,132.43,144.05,127.12Z"/><path class="cls-7" d="M146.94,98.08s.37,17.71-2.16,21.25-16.63,9.91-16.63,9.91,10.36,36.24,26.75,42.86c18.43,7.43,26.74,3.18,34.33-3.19s14.1-33.65,14.1-33.65-17.71-9.56-19.16-18.06,0-20.19,0-20.19-4.33,10.28-13.73,8.86S146.94,98.08,146.94,98.08Z"/><path class="cls-8" d="M187.46,123.24a30.56,30.56,0,0,0-2.56,7.07c-2.17,9.56-7.59,17-11.21,26.91-2.08,5.7-4,12.4-4,12.4s-2.81-5.47-4.7-9.92a132.18,132.18,0,0,0-11.57-21.6c-2.42-3.56-6.14-13.33-8.33-19.38a4.28,4.28,0,0,1-.34.61c-2.53,3.54-16.63,9.91-16.63,9.91s10.36,36.24,26.75,42.86c18.43,7.43,26.74,3.18,34.33-3.19s14.1-33.65,14.1-33.65S193,129.67,187.46,123.24Z"/><path class="cls-8" d="M171.88,118.26a19.19,19.19,0,0,0,12-3.41A91.59,91.59,0,0,1,184.17,97s-4.33,10.28-13.73,8.86-23.5-7.79-23.5-7.79.05,2.29,0,5.39C150.7,108.61,159.29,118,171.88,118.26Z"/><path class="cls-9" d="M143.78,117.29s7.05,18.33,11.66,26.56a206.32,206.32,0,0,1,9.76,20.45c2.44,6.11,4.06,9.3,4.06,9.3s3.8-9.83,6.51-17.53,7-17.53,8.13-21.78a82.08,82.08,0,0,0,1.63-11.42l12.2,9,7.32,2.92s-5.75,24.33-10,36.92c-7.87,23.11-17.08,38.78-22.77,40.11S146,189,140.53,175.46s-12.38-46.22-12.38-46.22,8.59-3.72,10.21-5.31S143.78,117.29,143.78,117.29Z"/><path class="cls-10" d="M159,160.06s-.27-4,.82-2.93,8.94,18.07,8.94,18.07,2.71-5.32,5.15-10.36c1.95-4,3.26-4.78,3.26-2.66l-.28,3.19s-1.08-1.6-2.16.53-5.7,11.69-5.7,11.69l-8.94-17.8Z"/><path class="cls-10" d="M159,160.06s7.08,18.59,8.65,23.87,1.75,6.44,1.75,6.44.39-4.49,1.56-11.13,7.42-20.11,7.42-20.11-5.46,21.67-5.85,26.94-2.05,17.2-2.05,17.2-5.76-15.64-7.72-23.64S159,160.06,159,160.06Z"/><path class="cls-11" d="M93.09,144.12a46.66,46.66,0,0,1,8-5.31,87.4,87.4,0,0,1,14.82-6c4.7-1.41,10.84-3.18,14.46-5.31s11.2-7.79,11.2-7.79,11.48,29,14.46,34.71,6.74,19.19,8.89,27c1.57,5.71,4.49,16.79,4.49,16.79s2.35-17.13,4.88-24.21,3.79-15.68,6.32-25.25,5.4-27.47,5.4-27.47,11.95,9.06,16.65,10.47,19.88,9.21,22.77,11.34,6.86,7.08,6.86,7.08-5.42,13.46-6.86,24.44-6.15,32.23-5.42,38.6-5.81,11.42-4.7,15.23c.72,2.48,1.44,23,4.33,30.81s9.76,34.36,12.29,49.59c1.5,9,13.59,154.06,13.59,154.06s-21.14,3.19-35.78,9.56c-15.81,6.89-68.32,11.16-89.47,0s-29.28-15.94-29.28-15.94,3.26-44.62,6.51-70.13,6.48-82.51,9.74-104.82,11.41-38.63,13-54.57-1.62-38.25-6.5-49.41S93.09,144.12,93.09,144.12Z"/><path class="cls-12" d="M218.06,229.38c-1.11-3.8,2.62-9.82,1.9-16.2s4-27.62,5.42-38.6A89.88,89.88,0,0,1,228.49,161c-3.11,4.89-3.14,7.77-3.47,6.14s1.08-9.21.72-11.33-1.45,2.83-1.45,3.89-1.08,6.38-2.53,12.75a57.45,57.45,0,0,1-1.8,7.1s-1.44-.71-2.17-4.61-.72-4.25-.36-8.85,1.44-8.16,0-6.39-1.81,9.92-2.17,16.29,1.8,11.69,1.44,22.32-2.53,14.52-5.06,19.83-11.56,8.5-15.18,9.92-17.71,8.85-21.68,9.2-15.55-2.47-23.14-3.54-10.48-3.18-16.62-2.48-6.14-.35-7.59-2.47-2.53-8.15-3.62-14.17,0-22,.73-28.33-1.45-12.75-1.81-8.15-2.53,8.85-4,6.37,0-9.2-1.08-16.29-2.53-16.29-2.89-18.77-1.81,3.19-.72,12.4,2.53,18.41,2.53,18.41a130.3,130.3,0,0,0-5.79-13.45c-3.25-6.38-9.76-14.88-13-17.71-.74-.65-1.14-.57-1.28,0,4.92,7.21,13.76,20.62,17.21,28.49,4.88,11.16,8.13,33.47,6.5,49.41s-9.78,32.25-13,54.57c-.3,2-.6,4.41-.9,7,3.62.13,8-1.57,13.19-1,9.39,1.06,19.51,6,23.49,3.54s8.67-11,8.67-11,20.6,2.83,26.75,4.25,18.07,1.77,18.07,1.77l8.68,8.5c5.86,5.74,13.41,4.59,20.59,2.83,2.9-.71,4.71,8.86,6.15,11.34-2.53-15.23-9.4-41.79-12.29-49.59S218.78,231.87,218.06,229.38Z"/><path class="cls-13" d="M97.79,142c-1.28,1.25-3.25,1.41.36,2.83a16.63,16.63,0,0,1,9,7.44c2.17,3.89,4.7,10.27,4.34,4.95s-3.62-9.2-.37-12.39,5.06-5.31,6.51-1.42a32.78,32.78,0,0,1,1.81,13.11c-.36,3.54,4.33-1.77,3.61-11s-1.44-10.27.72-11,6.87-2.48,6.15-3.9-10.84,2.48-14.1,3.54S100,139.87,97.79,142Z"/><path class="cls-13" d="M205.05,134.82l9.48,4A45.22,45.22,0,0,1,225,145.89a16.22,16.22,0,0,1,3.62,6s-1.81-2.48-4.34-2.12-.72,9.56-3.25,6,.36-7.44-3.61-9.56S204.23,137.56,205.05,134.82Z"/><path class="cls-13" d="M129.6,180.25c-2.94,4-1.81,17-2.53,22.66s.36,15.23,5.42,18.77,11.2,3.55,16.62,2.84,5.06-3.55.37-7.44-9.76-7.08-9-11.33,3.61,3.54,6.14,0-2.53-15.23-6.14-20.55S133.21,175.29,129.6,180.25Z"/><path class="cls-13" d="M188.87,223.1s-5.42-6-1.81-15.23,2.9-14.87,5.79-18.06,4.33,6,7.23,2.83,4.33-13.1,7.22-6.73,6.15,14.52,2.17,24.44S196.1,226.29,188.87,223.1Z"/><path class="cls-12" d="M134.3,127.12l-5.06,17.71h9c3.25,0,9-.36,9-.36l-6.87,11.69a36.89,36.89,0,0,1,11.2,8.5C166.42,181.93,169,200.08,169,200.08a142.9,142.9,0,0,0-9.39-32.94c-4.85-11.6-10.85-30.1-14.1-36.83s-5.78-7.79-5.78-7.79Z"/><path class="cls-11" d="M146.22,113s-1.89-.44-2.17,2,10.12,32.41,11.93,35.95,9.78,28.42,11.43,35.42c1.81,7.7,3,17,3,17s-2.86-14-6.35-21.1c-4.29-8.79-9.76-17.18-15-22.47a39.15,39.15,0,0,0-6.86-5.66l6.5-9.92s-14.45-1.42-15.9-1.06-.72-2.84,1.08-8.15,3.26-12,3.26-12,2.89-2.48,3.61-5,1.09-5,3.25-5Z"/><path class="cls-12" d="M169,200.08a89.45,89.45,0,0,1,10.48-23.73,155.91,155.91,0,0,1,16.63-20.54s-2.53-2.13-4.34-3.54-3.61-3.19-3.61-3.19,7.23-1.77,9.4-2.48a38.61,38.61,0,0,0,4.33-1.77s-4.7-9.92-6.5-12.4a58.13,58.13,0,0,0-6.15-6.37s-.36,7.43-1.8,11.33-6.51,15.58-9,20.9-4.62,18.76-5.71,24.07S169,200.08,169,200.08Z"/><path class="cls-11" d="M169,200.08s2.53-18.42,4.7-27.27,6.51-23.73,9-30.46,3.48-18.5,3.23-21.1c-.39-4.1-1.79-4-1.79-4l-.32-2.35a54.45,54.45,0,0,1,4.3,5.9,165.87,165.87,0,0,1,9.4,16.29,49.78,49.78,0,0,1,2.89,6.73,58.85,58.85,0,0,1-8.68,2.48l-4,.7h0a23.11,23.11,0,0,0,5.06,3.55l3.61,2.12s-5.42,5.67-9.4,10.27A82.19,82.19,0,0,0,175.22,182C172.72,187.74,169,200.08,169,200.08Z"/><path class="cls-12" d="M171,479c0-1.15-1.22-114.5-.42-146.82.13-5.21.44-11.07.73-16.73.8-15.31,1.63-31.14-.68-37.94-3.56-10.45-1.19-44-.64-49.83.79-8.57-.69-25.5-1-27.58l.87-.12c.1.75,2.43,18.36,1.62,27.13-.76,8.24-2.45,40.36.77,49.83,2.42,7.12,1.59,23.13.78,38.6-.3,5.66-.6,11.5-.73,16.69-.81,32.28.72,145.81.74,147Z"/><path class="cls-13" d="M156.78,301.11s-17.89,6.37-26.83,7.17-12.2-10.36-14.64,2.39S99.05,448.52,99.05,448.52l22.77-114.74-9.65,134.38q3.66,1.95,8,4.27c9.45,5,25.17,6.89,41.07,6.86Z"/><path class="cls-13" d="M241.93,463.47l-21.72-160s-12.2,4-22,3.19-14.63-5.58-14.63-5.58l4.73,176.34c9.09-1.25,16.76-3,21.34-5,1.74-.75,3.57-1.47,5.45-2.13l-2.25-143.69,19.39,138.83C236.16,464.56,239.55,463.9,241.93,463.47Z"/><path class="cls-6" d="M226.41,283.37c-2.56-10.36-5.26-20-6.82-24.15-2.89-7.79-3.61-28.33-4.33-30.81a5.25,5.25,0,0,1,.57-3.58c-1.57,1.92-4.85,1.64-7.07,2.18,0,0-15.9,2.12-23.49,3.89S152,236.57,148,236.22s-16.63-2.13-18.43-5.67a75,75,0,0,0-7.23-11c-1.09-1.06-.36-12.75-1.81-22.67-1.42-9.74-10.17-30.76-16-35.52a139.23,139.23,0,0,1,9.11,16.18c4.88,11.16,8.13,33.47,6.5,49.41s-9.78,32.25-13,54.57c0,.11,0,.22,0,.34a68.52,68.52,0,0,0,8.73.73c4.7,0,13.74,1.78,16.63,3.19s6.14.71,8.31-2.48S145.15,272,145.15,272l6.5-1.77s4.7,2.12,8.68,3.89,18.07,5,23.49,6,14.46,2.13,14.46,2.13,4.34,8.15,7.59,8.85,9-1.77,13-3.54A55.67,55.67,0,0,0,226.41,283.37Z"/><path class="cls-6" d="M214.66,223.31c-.09.37.29,2.2-4.83,5.72.66-1.23,8.64,1.46,8.8-9.52-.12-5.2.36-9,1.33-16.58,1.45-11.34,3.25-22.69,3.25-22.69s-2.24,6.15-3.28,9.25C218.43,193.93,216.56,215.55,214.66,223.31Z"/><path class="cls-11" d="M93.09,144.12a7.33,7.33,0,0,0-2.17,4c-.54,2.66-6,25.24-6.5,31.35S82.25,198.84,80.89,206s-4.6,12-2.71,17.53,5.7,18.59,6.51,23.64,2.17,15.14,6.51,19.66c0,0,9.48,6.11,18.16-.53s11.11-22.05,11.11-22.05,0-11.69.27-19.39,0-28.42-3.79-39.85S97.16,146.51,93.09,144.12Z"/><path class="cls-12" d="M110.17,171.74c2.17,4.25,4.88,15.14,7,25.77s0,15.67,0,15.67-3.53-11.69-5.42-16.73a45.29,45.29,0,0,0-7.59-13c-2.44-2.66-7.38-7.72-6.24-5.31,1.9,4,3.8,6.11,8.68,17.53,1.8,4.22,3.79,10.36,2.16,8.77S102,202,97.7,200.16s-3.52,1.33-2.17,3.46,5.42,5.58,6,7.44-3.53,1.32-6.78,1.06-3.8.53-5.15,1.59,4.88,4.78,3.79,4.52-4.61-1.57-4.88-.27c-.54,2.66,3.58,4,6.51,6.91,2.17,2.12,7.86,5,10,10.36-7.32-4.25-11.11-4.52-11.11-4.52l-13.41.2c1.76,5.91,3.64,12.88,4.19,16.27.81,5,2.17,15.14,6.51,19.66,0,0,9.48,6.11,18.16-.53s11.11-22.05,11.11-22.05,0-11.69.27-19.39,0-28.42-3.79-39.85a93.94,93.94,0,0,0-5.11-11.57C110.39,171.56,109.64,170.71,110.17,171.74Z"/><path class="cls-13" d="M92.28,147.57c-.34,1.65-2.17,9-2.71,12s-3,13.82-3.53,16.21A61.91,61.91,0,0,0,85,186.62,59.94,59.94,0,0,1,84.15,197c-.54,2.65-3.26,13.81-4.07,16.73s-.27,6.64,0,9a21.16,21.16,0,0,0,.81,4s3.53-1.86,6.51-.27.27-4.78-1.9-11.15.54-5.32,3.25-6.38,6,.27,2.17-6.64S87.4,185.56,88.21,184s8.41,9,8.41,6.91-8.41-10.1-7.59-15.14,4.6,2.12,6.77,6.11,1.09-.53-1.35-10.36,1.35-10.63,1.62-14.61S93.09,143.59,92.28,147.57Z"/><path class="cls-7" d="M212.37,250.72s-37.83-2.79-52.05-4.25c-12.11-1.24-18.82-3.61-25.66-7.26-3-1.57-5.59-5.93-7.23-8-5.42-6.73-9-12.75-11.93-16.29s-12-9.47-12-9.47-1.76.44-1.76,1.5,0,2.13,2,3.9a40.44,40.44,0,0,1,4.15,4.6s-4.7-1.94-6.5-2.48a34.24,34.24,0,0,0-4.88-1.06c-2.17-.35-5.42-.71-5.24,1.06s2.21,3,2.21,3-2.76,0-3.12,1.46.91,2.66,2.89,4.07,6,2.13,6,2.13-2,1.06,0,2.3,7.59,5.49,7.59,5.49,2.71,6.2,4.15,9.56,7,10.1,14.1,12.22c5.9,1.78,24.58,13.28,35.78,17.53,14,5.31,30,8.5,40.12,8.5,7.26,0,19.88-2.48,21.14-6.9s-4.88-24.09-4.88-24.09Z"/><path class="cls-8" d="M111,241c1.45,3.37,7,10.1,14.1,12.22,5.9,1.78,24.58,13.28,35.78,17.53,14,5.31,30,8.5,40.12,8.5,7.26,0,19.88-2.48,21.14-6.9s-4.88-24.09-4.88-24.09l-4.87,2.48s-9.18-.67-20.18-1.54a29.9,29.9,0,0,0-.61,9c.91,5.84,2.53,10.8.73,13.81s-7.59,1.77-13.92.36-22-7.26-25.84-9.21-19.7-10.27-22.77-11.33-8.5-3-11.57-5.14-7.95-13.46-8.67-14.7a18.51,18.51,0,0,0-6.51-5,28.67,28.67,0,0,1-4.67-2.28c0,.36.16.78.88,1.22,2,1.24,7.59,5.49,7.59,5.49S109.54,237.62,111,241Z"/><path class="cls-14" d="M151.46,266.48s17.89-7.08,23.32-10.27S193,249.13,193,249.13l1.44,8.32s-3.07-1.59-3.79-2.65a74.31,74.31,0,0,1-7.23,2.83c-3.79,1.24-18.79,7.08-22,8.15A16.94,16.94,0,0,1,151.46,266.48Z"/><path class="cls-8" d="M102.31,206.14a4.17,4.17,0,0,0,2,3.72c2.31,1.59,4.88,3.59,7.19,5.45a35,35,0,0,1,5,4.91,20.36,20.36,0,0,1,2.85,4.91s-4.48-5.57-5.83-6.77-5.65-2.88-5.65-2.88-2.75-2.7-3.84-4S100.41,208.13,102.31,206.14Z"/><path class="cls-8" d="M91.29,213a36.13,36.13,0,0,0,5.06,2.31c2.84.93,6.77,2.65,9.35,3.58a22.78,22.78,0,0,1,6.37,3.19c1.9,1.46,5.42,7.3,5.42,7.3s-4.47-5.57-6.51-6.5-7.86-3.86-9.75-4.65S93.5,216,93.5,216A5.25,5.25,0,0,1,91.29,213Z"/><path class="cls-8" d="M90.38,217.43a11.25,11.25,0,0,0,4.34,3.19,33.38,33.38,0,0,0,5.56,1.59c2.16.4,5.28,2.66,6.77,3.59s6.24,5.31,6.24,5.31H111.8s-6.64-5.05-9-6.24a9.47,9.47,0,0,0-3.61-1.24s-5.88-1.55-7.37-2.75A4,4,0,0,1,90.38,217.43Z"/><path class="cls-12" d="M133.21,247.45s5.49-10.45,9-10.54.51,31-.58,35.77-3,10.89-5.42,9.83S125.62,280.65,133.21,247.45Z"/><path class="cls-7" d="M119.93,237.88s26.84-1.06,38.49-1.86,26-2.65,32.8-4.25,11.93-1.59,17.35-1.85,16.81-.54,16.81-.54,5.15,5.58-1.36,13-16.26,9.3-22.23,9a35.08,35.08,0,0,0-16.26,2.66c-6,2.39-29.82,13-41.75,15.93s-33.61,4-37.95-.26-2.71-11.42,3.26-20.45S119.93,237.88,119.93,237.88Z"/><path class="cls-8" d="M143.78,270c11.93-2.92,35.79-13.54,41.75-15.93a35.08,35.08,0,0,1,16.26-2.66c6,.27,15.73-1.59,22.23-9s1.36-13,1.36-13l-.71,0c-5.2-.33-6-.61-7.7.25-.77,3.27-.91,6.48-2.71,9.3-2.71,4.25-9.21,8.76-13.28,9.29s-14.91-.53-22,2.13-23.85,8.23-30.36,10.36-10,1.33-10,1.33a28.48,28.48,0,0,1,1.09-10.36c1.62-4.78,1.89-12.22,1.89-13l.58-1.77c-11.07.53-22.26,1-22.26,1s-4.88,2.39-10.84,11.43-7.59,16.2-3.26,20.45S131.86,273,143.78,270Z"/><path class="cls-15" d="M144.05,238.41s14.91-1.59,21.15-2.12,27.65-4,32.26-4.78,16.26-.53,16.26-.53-13,2.12-16,2.92-18,2.75-22.95,3.36S144.05,238.41,144.05,238.41Z"/><path class="cls-11" d="M80.5,230.91s11.78-1.53,16.66-1.79,15.72,1.33,20.6,2.39,8.67,3.19,13,3.72,11.42,1.68,11.42,1.68-3.56,10.27-4.1,13.19-4.61,19.92-2.71,26.83,3.8,3.72,3.8,3.72-.82,3.19-4.88,1.86a89.06,89.06,0,0,0-19-4c-6.13-.79-16.81-4.26-20.06-6.65-3.73-2.74-7.05-5.57-8.67-11.68S80.5,230.91,80.5,230.91Z"/><path class="cls-13" d="M88.75,233.63s11.39-.26,16-1.59a20,20,0,0,1,9.49-.53c2.44.26,6.5,1.86,8.67,2.66s8.67,2.65,10.3,2.39,6.51,1.06,6.51,1.06a43.31,43.31,0,0,0-3,8.5c-.82,4-2.17,18.06-3.53,15.4s0-7.43-3.79-10.89-11.93-6.11-16-7.43S77.1,240,88.75,233.63Z"/><path class="cls-11" d="M210.13,247s8.47-3.5,8.47-9.34-2.44-16.74-1.63-22.05,3-19.65,6.24-35.33a312.58,312.58,0,0,1,8.4-31.07,16.68,16.68,0,0,1,4.34,5.57c1.35,3.19,5.15,24.17,6.23,27.63s7,17.26,8.41,21.51,1.62,17.27,1.89,24.44-1.89,22.85-3,30.28-4.53,12.15-7.59,14.08l-7.59,4.78L225.65,282s-19.47,8.19-20.33,7.17a29,29,0,0,1-5.42-9.56,165.74,165.74,0,0,1-4.34-17,111.21,111.21,0,0,1-1.63-11.42s5.48-.89,8.63-1.75C206.73,248.28,210.13,247,210.13,247Z"/><path class="cls-12" d="M219.68,232c3-1.86,7.59,0,12.47.27s3.8-1.6-1.35-4.25-4.88-2.4-6-4,4.07-12.75,7-18.86-.81-5.84-5.15,1.86-4.34,11.42-4.88,10.1.73-25,2.09-30.9,4-20.35,5.06-28.33c-.14.1-1.77,6.17-2,6.52-1.31,4.79-2.69,10.27-3.83,15.78-3.25,15.68-5.42,30-6.24,35.33s1.63,16.2,1.63,22.05c0,2.6-2,4.93-4.18,6.72,2.56-1.17,4.81-2,5.81-1.94,3,.26,8.13,9.3,8.94,6.91s-4.06-10.1-4.06-10.1,7,2.66,10.84,7.17,3.79-.79-1.9-7.17S216.7,233.9,219.68,232Z"/><path class="cls-13" d="M233.51,155.27c-1.22,1.92-2.71,8.5-3.25,13s-1.9,17.27-1.9,21.52.27,3.72,4.88-2.66,3.79-.27,5.69,1.33,2.71-1.86,1.36-7.17-2.72-18.07-3.8-21.25S234.86,153.15,233.51,155.27Z"/><path class="cls-13" d="M233.24,214.77c3.49-6,4.88-11.42,7.32-15.93s3.79-6.91,5.42-2.39,3,14.07,3.52,17.79.27,13.55.27,18.6-.54,14.87-1.62,15.67-1.9-4.25-4.88-6.38S230.53,235,236,234.7s10.57,1.32,8.13-3.46-13-2.39-9.49-6.9,5.7-6.11,3.53-6.64S231.07,218.49,233.24,214.77Z"/><path class="cls-13" d="M197.73,252.23s3.89-1.11,10.13-3.19c4.61-1.54,7.76-5.31,11.28-3.45s7.86,5.84,7.05,8.5-4.88-1.6-9.76-.27-15.45,5.31-17.62,4.25S193.66,253,197.73,252.23Z"/><path class="cls-13" d="M146.42,111.59a9.1,9.1,0,0,0-4.1,2.34c-2.63,2.93-4,7.52-4.59,9.47-.39,1.32-4.29,17.18-4.29,17.18h8.2s-3.91-.19-3.32-4.88,3.2-16,3.2-16,1.27-4.39,2.56-5.46a6.21,6.21,0,0,1,2.14-1.27Z"/><path class="cls-13" d="M147.5,147.81l-3.71,5.85a73,73,0,0,1,7.61,6.45c2.34,2.53,9.76,14.44,9.76,14.44s-8.2-14.64-10.74-17.76-1.56-5.67-1.36-7.42S149.64,144.29,147.5,147.81Z"/><path class="cls-13" d="M171.51,184.51s3.23-17.58,7.22-29.87a175.6,175.6,0,0,0,6.64-26.36A20.47,20.47,0,0,0,184,116.57l-.16-1.72,2.89,4.06a19,19,0,0,1,1.56,6c.2,3.13-2.93,14.06-4.29,19.33-1,3.86-5.53,16.3-7.23,21.87C174.63,173.19,171.51,184.51,171.51,184.51Z"/><path class="cls-16" d="M142.89,216c1.87-.37,3.77-.85,5.42-1.28l2.14-.54a58,58,0,0,0,6.82-2.05l-.81-1.86a59.14,59.14,0,0,1-6.54,2l-2.18.55c-3.51.9-9.38,2.42-11.66,1.52-2.67-1.05-5-9.81-6.5-15.61-1.73-6.55-4.12-19.94-4.15-20.07l-2.12.33c0,.13,2.43,13.59,4.18,20.22,2.31,8.81,4.35,15.65,7.76,17C137.06,216.91,140,216.62,142.89,216Z"/><path class="cls-16" d="M135.16,220.33s2.82-1.62,7.75-4c1-.51,2-.95,2.89-1.36,3.47-1.61,6-2.77,8.24-5.48,1.29-1.53,1.83-5.6,1.68-8.65a96.67,96.67,0,0,0-1.27-10.1c-.22-1.31-.4-2.45-.51-3.33-.59-4.69-4.66-17.87-4.83-18.43l-2.07.56c0,.13,4.19,13.58,4.76,18.11.11.89.3,2.06.52,3.39a92.25,92.25,0,0,1,1.25,9.9c.15,3.16-.52,6.47-1.22,7.32-2,2.34-4.17,3.36-7.5,4.91-.91.41-1.88.86-2.94,1.38-5,2.46-7.76,4.05-7.88,4.11Z"/><path class="cls-10" d="M162,212.83c1.77-.58,2-1.46,2.42-2.66s-1.51-3.24-3.21-3.21-2.7,1.16-4,1.57-1.58,1.86-1.3,3.37a3.12,3.12,0,0,0,1.65,2.12Z"/><path class="cls-10" d="M132.25,223.23c-1.58,1-2.47.61-3.73.18s-1.84-3.08-.79-4.33,2.62-1.31,3.75-2,2.53-.05,3.64,1.08a2.89,2.89,0,0,1,.8,2.51Z"/><path class="cls-16" d="M148.85,167s2.91,7.31,2.82,8.43a2,2,0,0,1-3.44.77c-1.21-1.44-2.36-8.06-2.36-8.06A6.29,6.29,0,0,1,148.85,167Z"/><path class="cls-16" d="M125.7,175.87a25.51,25.51,0,0,1,1.06,7.75c-.54.75-3.12,1.46-3.5,0-1.19-4.7-.41-6.91-.41-6.91S124.29,175.32,125.7,175.87Z"/><path class="cls-10" d="M124.59,178.71a1.53,1.53,0,0,0,1.28-1.54c0-.11-.47-10.54,1.79-15.57a10.15,10.15,0,0,1,6.29-5.16,6.34,6.34,0,0,1,5.41.92c5.27,3.63,7.37,13.31,7.39,13.41a1.61,1.61,0,0,0,1.9,1.19h0a1.52,1.52,0,0,0,1.25-1.77c-.1-.44-2.38-10.93-8.64-15.25a9.74,9.74,0,0,0-8.19-1.4,13.2,13.2,0,0,0-8.41,6.9c-2.53,5.66-2.05,16.42-2,16.87a1.57,1.57,0,0,0,1.68,1.44A1.09,1.09,0,0,0,124.59,178.71Z"/><path class="cls-10" d="M135.05,156l-.5-1.42c0-.11-.87-2.8-1-11-.21-9.41,2.94-15.89,3.69-19.55.64-3.15-.9-1.39-1.47-.58-1.93,2.75-5.72,7.69-5.45,20.19.19,8.77,1.1,11.56,1.2,11.85l.51,1.43Z"/><path class="cls-10" d="M198.84,219c-1.14,5.32-6.14,8.86-11.16,7.92s-8.18-6-7.05-11.32,6.13-8.86,11.16-7.92S200,213.64,198.84,219Z"/><path class="cls-16" d="M200.31,218.46c-1.13,5.31-6.13,8.86-11.16,7.92s-8.18-6-7-11.32,6.13-8.86,11.16-7.92S201.45,213.15,200.31,218.46Z"/><path class="cls-10" d="M199.67,217.6a6.32,6.32,0,0,1-7.15,5.08,6,6,0,0,1-4.52-7.26,6.33,6.33,0,0,1,7.16-5.07A5.93,5.93,0,0,1,199.67,217.6Z"/><path class="cls-16" d="M198.35,217.36a4.88,4.88,0,0,1-5.53,3.92,4.6,4.6,0,0,1-3.5-5.61,4.91,4.91,0,0,1,5.54-3.93A4.6,4.6,0,0,1,198.35,217.36Z"/><path class="cls-16" d="M190.82,207.71l1.93-8.46s2.06-.37,2.59,1-1.53,7.15-1.53,7.15S193.19,209.43,190.82,207.71Z"/><path class="cls-10" d="M193.68,202.6a2,2,0,0,1-.53-.08,1.6,1.6,0,0,1-1.11-2c.07-.18,5-14.87,4.87-36.49-.2-31.38-8.46-41.9-12.9-47.43a31.42,31.42,0,0,1-.39-4.1l2.48,2.63c4.67,5.81,14,16.44,14.25,48.88.14,22.2-4.82,36.89-5,37.5A1.73,1.73,0,0,1,193.68,202.6Z"/><path class="cls-15" d="M144.08,38.67c-3.19,2.18-8.29,11-8.29,17.52s1.05,15.77,1.05,20.43c0,5.92-.24,7.77,1.73,13.41,2.27,6.5,7.34,12.7,12.47,17,4.83,4.06,9.83,6.72,14.58,7.21,6,.6,10-2.67,13.4-6.55,2.33-2.65,9.45-12,10.79-17a59.77,59.77,0,0,0,1.63-16.92c-.27-2.58-.53-16.55-.27-19.39s-2.61-14.23-13.32-18.88S151.66,33.5,144.08,38.67Z"/><path class="cls-15" d="M190.52,67.24s1.57-5,3.14-2.52,1,7,.19,10.48-.39,4.46-.78,6.4a1.53,1.53,0,0,1-2.94.38c-.39-1.16.2-3.1.2-5.81S190.52,67.24,190.52,67.24Z"/><path class="cls-8" d="M191.3,69.57s.2-2.71,1.18-1.74.78,3.87.78,3.87-1.17-1.35-1.37,0,.2,1,.59,3.11a3.83,3.83,0,0,1-1.37,3.49S190.72,71.7,191.3,69.57Z"/><path class="cls-15" d="M136.84,67.24s-3.15-5.24-4.72-2.71.6,7.17,1.39,10.67.39,4.46.78,6.4a1.53,1.53,0,0,0,2.94.38c.39-1.16-.2-3.1-.2-5.81S136.84,67.24,136.84,67.24Z"/><path class="cls-8" d="M136.05,69.57s-.19-2.71-1.17-1.74-.79,3.87-.79,3.87,1.18-1.35,1.38,0-.2,1-.59,3.11a3.8,3.8,0,0,0,1.37,3.49S136.64,71.7,136.05,69.57Z"/><g class="cls-17"><g class="cls-18"><path class="cls-15" d="M175.87,73.34c2.63-1.12,8.24-2.73,12.2.77,2.07,1.83,3.45,11.48-.37,14.82s-4.77,1.22-6.7-2.2-6.38-2.82-7.94-6.62A5.11,5.11,0,0,1,175.87,73.34Z"/><path class="cls-19" d="M176,73.39c2.58-1.1,8.09-2.67,12,.79,2,1.8,3.35,11.22-.39,14.47s-4.68,1.2-6.59-2.14-6.24-2.78-7.76-6.49A5,5,0,0,1,176,73.39Z"/><path class="cls-19" d="M176,73.43c2.53-1.07,7.94-2.59,11.69.81,2,1.79,3.26,11-.41,14.13s-4.59,1.19-6.46-2.08-6.11-2.74-7.59-6.36A4.93,4.93,0,0,1,176,73.43Z"/><path class="cls-20" d="M176.11,73.47c2.48-1,7.79-2.51,11.44.84,1.92,1.76,3.17,10.7-.43,13.78s-4.51,1.17-6.35-2-6-2.7-7.4-6.24A4.83,4.83,0,0,1,176.11,73.47Z"/><path class="cls-20" d="M176.19,73.51c2.43-1,7.64-2.43,11.19.86,1.87,1.74,3.07,10.45-.45,13.44s-4.43,1.16-6.24-2-5.83-2.66-7.22-6.11A4.75,4.75,0,0,1,176.19,73.51Z"/><path class="cls-21" d="M176.27,73.55c2.38-1,7.5-2.35,10.93.89,1.83,1.72,3,10.19-.47,13.09s-4.34,1.14-6.12-1.9-5.69-2.62-7-6A4.68,4.68,0,0,1,176.27,73.55Z"/><path class="cls-22" d="M176.35,73.59c2.34-.94,7.35-2.27,10.68.91,1.77,1.7,2.88,9.94-.49,12.75s-4.25,1.13-6-1.84-5.55-2.58-6.85-5.86A4.57,4.57,0,0,1,176.35,73.59Z"/><path class="cls-23" d="M176.43,73.63c2.29-.91,7.2-2.19,10.43.94,1.72,1.67,2.78,9.67-.51,12.4s-4.17,1.11-5.89-1.78-5.42-2.54-6.68-5.73A4.5,4.5,0,0,1,176.43,73.63Z"/><path class="cls-24" d="M176.51,73.68c2.24-.89,7.05-2.12,10.17.95,1.68,1.66,2.69,9.42-.53,12.06s-4.08,1.09-5.77-1.72-5.28-2.5-6.5-5.6A4.4,4.4,0,0,1,176.51,73.68Z"/><path class="cls-25" d="M176.59,73.72c2.18-.86,6.9-2,9.92,1,1.63,1.63,2.59,9.16-.55,11.71s-4,1.08-5.66-1.66-5.15-2.46-6.31-5.48A4.3,4.3,0,0,1,176.59,73.72Z"/><path class="cls-26" d="M176.67,73.76c2.13-.83,6.75-2,9.67,1,1.58,1.6,2.49,8.89-.58,11.37s-3.9,1-5.54-1.61-5-2.42-6.13-5.35A4.23,4.23,0,0,1,176.67,73.76Z"/><path class="cls-26" d="M176.75,73.8c2.08-.79,6.61-1.89,9.42,1,1.52,1.59,2.39,8.64-.6,11s-3.82,1-5.43-1.55-4.87-2.38-5.95-5.22A4.15,4.15,0,0,1,176.75,73.8Z"/><path class="cls-27" d="M176.83,73.84c2-.76,6.46-1.81,9.16,1.06,1.48,1.56,2.3,8.38-.61,10.68s-3.74,1-5.31-1.49-4.74-2.34-5.77-5.1S175.49,74.34,176.83,73.84Z"/><path class="cls-28" d="M176.91,73.88c2-.73,6.31-1.72,8.91,1.08,1.43,1.55,2.2,8.13-.64,10.34s-3.65,1-5.19-1.43-4.6-2.3-5.59-5S175.58,74.37,176.91,73.88Z"/><path class="cls-28" d="M177,73.92c1.93-.7,6.16-1.64,8.66,1.11,1.38,1.52,2.1,7.86-.66,10s-3.56,1-5.08-1.37-4.46-2.26-5.41-4.84S175.67,74.4,177,73.92Z"/><path class="cls-29" d="M177.07,74c1.88-.68,6-1.57,8.4,1.12,1.34,1.51,2,7.61-.67,9.65s-3.48,1-5-1.31-4.32-2.22-5.22-4.72S175.77,74.43,177.07,74Z"/><path class="cls-30" d="M177.15,74c1.83-.65,5.86-1.49,8.15,1.15,1.28,1.48,1.91,7.35-.7,9.3s-3.39,1-4.85-1.25-4.19-2.18-5-4.59S175.86,74.46,177.15,74Z"/><path class="cls-31" d="M177.23,74.05c1.78-.62,5.71-1.41,7.9,1.17,1.23,1.47,1.82,7.1-.72,9s-3.31.94-4.74-1.19-4-2.14-4.86-4.46S176,74.49,177.23,74.05Z"/><path class="cls-32" d="M177.31,74.09c1.73-.59,5.56-1.33,7.64,1.2,1.19,1.44,1.73,6.83-.73,8.61s-3.23.93-4.62-1.13-3.92-2.1-4.68-4.34S176,74.52,177.31,74.09Z"/><path class="cls-32" d="M177.39,74.13c1.68-.56,5.42-1.24,7.39,1.22,1.14,1.43,1.63,6.58-.76,8.27s-3.13.91-4.5-1.07-3.78-2.06-4.5-4.21S176.13,74.55,177.39,74.13Z"/><path class="cls-33" d="M177.47,74.17c1.63-.54,5.27-1.16,7.14,1.25,1.09,1.4,1.53,6.32-.78,7.92s-3.05.9-4.39-1-3.64-2-4.32-4.08S176.22,74.58,177.47,74.17Z"/><path class="cls-34" d="M177.55,74.21c1.58-.51,5.12-1.08,6.88,1.28,1,1.38,1.44,6.05-.79,7.57s-3,.88-4.28-1-3.5-2-4.14-4S176.32,74.61,177.55,74.21Z"/><path class="cls-35" d="M177.63,74.26c1.52-.49,5-1,6.63,1.29,1,1.36,1.34,5.8-.82,7.24s-2.88.85-4.16-.9-3.36-1.94-3.95-3.83S176.41,74.64,177.63,74.26Z"/><path class="cls-35" d="M177.71,74.3c1.47-.46,4.81-.91,6.38,1.32.94,1.34,1.24,5.54-.84,6.89s-2.79.84-4-.84-3.23-1.9-3.78-3.7S176.5,74.67,177.71,74.3Z"/><path class="cls-36" d="M177.79,74.34c1.42-.43,4.66-.83,6.13,1.34.89,1.33,1.14,5.29-.86,6.55s-2.71.82-3.93-.78-3.09-1.86-3.6-3.58S176.59,74.7,177.79,74.34Z"/><path class="cls-37" d="M177.87,74.38c1.37-.41,4.51-.74,5.87,1.37.85,1.31,1,5-.88,6.2s-2.62.81-3.81-.72-3-1.82-3.41-3.45S176.68,74.73,177.87,74.38Z"/><path class="cls-38" d="M178,74.42c1.32-.38,4.36-.65,5.62,1.39.79,1.29,1,4.77-.9,5.86s-2.54.79-3.7-.66-2.81-1.78-3.23-3.32S176.77,74.76,178,74.42Z"/><path class="cls-39" d="M178,74.46c1.26-.35,4.21-.57,5.37,1.42.74,1.27.85,4.51-.93,5.51s-2.45.78-3.58-.6-2.67-1.74-3-3.19S176.86,74.79,178,74.46Z"/><path class="cls-39" d="M178.11,74.5c1.21-.32,4-.48,5.11,1.44.7,1.26.76,4.25-.94,5.17s-2.36.76-3.46-.54-2.55-1.7-2.87-3.07S177,74.82,178.11,74.5Z"/><path class="cls-40" d="M178.19,74.55c1.16-.31,3.9-.4,4.86,1.46.64,1.24.66,4-1,4.82s-2.28.74-3.35-.48-2.41-1.66-2.69-2.94S177.05,74.85,178.19,74.55Z"/><path class="cls-41" d="M178.27,74.59c1.11-.28,3.74-.31,4.61,1.48.59,1.23.56,3.74-1,4.48s-2.19.73-3.23-.42-2.27-1.62-2.51-2.81S177.14,74.87,178.27,74.59Z"/><path class="cls-41" d="M178.35,74.63c1.05-.26,3.58-.22,4.35,1.51.54,1.21.47,3.48-1,4.13s-2.11.71-3.12-.36-2.13-1.58-2.32-2.69S177.23,74.9,178.35,74.63Z"/><path class="cls-42" d="M178.43,74.67c1-.23,3.43-.12,4.1,1.54.49,1.19.38,3.21-1,3.78s-2,.7-3-.3-2-1.54-2.14-2.56S177.32,74.93,178.43,74.67Z"/><path class="cls-43" d="M178.51,74.71c1-.21,3.27,0,3.85,1.56.43,1.18.28,3-1.05,3.44s-1.93.68-2.89-.24-1.85-1.5-2-2.43A2.57,2.57,0,0,1,178.51,74.71Z"/><path class="cls-44" d="M178.59,74.75c.9-.18,3.1.06,3.59,1.59.38,1.16.19,2.7-1.06,3.09s-1.85.67-2.77-.18-1.72-1.46-1.78-2.31A2.53,2.53,0,0,1,178.59,74.75Z"/><path class="cls-45" d="M178.67,74.79c.84-.16,2.94.16,3.34,1.61.32,1.16.09,2.45-1.08,2.76s-1.77.64-2.66-.13-1.58-1.42-1.6-2.18A2.52,2.52,0,0,1,178.67,74.79Z"/><path class="cls-46" d="M178.75,74.84c.79-.15,2.77.24,3.09,1.63.26,1.14,0,2.18-1.11,2.41s-1.68.62-2.54-.07-1.44-1.38-1.42-2A2.49,2.49,0,0,1,178.75,74.84Z"/><path class="cls-47" d="M178.83,74.88c.74-.12,2.6.33,2.84,1.65.19,1.13-.11,1.93-1.13,2.07s-1.59.61-2.43,0-1.3-1.33-1.23-1.92A2.48,2.48,0,0,1,178.83,74.88Z"/><path class="cls-47" d="M178.91,74.92c.69-.1,2.43.43,2.58,1.68s-.2,1.67-1.14,1.72-1.51.59-2.32,0A2,2,0,0,1,177,76.57,2.52,2.52,0,0,1,178.91,74.92Z"/><path class="cls-48" d="M179,75c.63-.08,2.26.52,2.33,1.7s-.3,1.41-1.17,1.38-1.42.58-2.19.1a1.6,1.6,0,0,1-.88-1.66A2.59,2.59,0,0,1,179,75Z"/><path class="cls-48" d="M179.07,75c.58-.06,2.08.61,2.08,1.73s-.4,1.15-1.19,1-1.34.56-2.08.16a1.26,1.26,0,0,1-.69-1.54A2.71,2.71,0,0,1,179.07,75Z"/><path class="cls-49" d="M177.29,76.29A2.91,2.91,0,0,1,179.15,75c.53,0,1.91.69,1.82,1.75s-.49.9-1.21.69-1.24.55-2,.22A1,1,0,0,1,177.29,76.29Z"/></g><g class="cls-18"><path class="cls-15" d="M152.93,73.34c-2.64-1.12-8.24-2.73-12.2.77-2.07,1.83-3.46,11.48.37,14.82s4.76,1.22,6.69-2.2,6.39-2.82,8-6.62A5.11,5.11,0,0,0,152.93,73.34Z"/><path class="cls-19" d="M152.85,73.39c-2.59-1.1-8.08-2.66-11.95.79-2,1.81-3.36,11.22.39,14.47s4.68,1.2,6.58-2.14,6.25-2.78,7.76-6.49A5,5,0,0,0,152.85,73.39Z"/><path class="cls-19" d="M152.77,73.43c-2.54-1.07-7.94-2.59-11.7.81-2,1.79-3.26,11,.41,14.13s4.6,1.19,6.47-2.08,6.11-2.74,7.58-6.36A4.92,4.92,0,0,0,152.77,73.43Z"/><path class="cls-20" d="M152.69,73.47c-2.49-1-7.8-2.51-11.44.84-1.92,1.76-3.17,10.7.43,13.78s4.51,1.17,6.35-2,6-2.7,7.4-6.24A4.84,4.84,0,0,0,152.69,73.47Z"/><path class="cls-20" d="M152.61,73.51c-2.44-1-7.65-2.43-11.19.86-1.87,1.74-3.07,10.45.45,13.44s4.42,1.16,6.24-2,5.83-2.66,7.21-6.11A4.75,4.75,0,0,0,152.61,73.51Z"/><path class="cls-21" d="M152.53,73.55c-2.39-1-7.5-2.35-10.94.89-1.82,1.72-3,10.19.47,13.09s4.34,1.14,6.12-1.9,5.7-2.62,7-6A4.67,4.67,0,0,0,152.53,73.55Z"/><path class="cls-22" d="M152.45,73.59c-2.34-.94-7.35-2.27-10.68.91-1.78,1.7-2.88,9.94.49,12.75s4.25,1.13,6-1.84,5.56-2.58,6.86-5.86A4.58,4.58,0,0,0,152.45,73.59Z"/><path class="cls-23" d="M152.37,73.63c-2.29-.91-7.2-2.19-10.43.94-1.73,1.67-2.78,9.67.51,12.4s4.17,1.11,5.89-1.78,5.42-2.54,6.67-5.73A4.5,4.5,0,0,0,152.37,73.63Z"/><path class="cls-24" d="M152.29,73.68c-2.24-.89-7-2.12-10.18.95-1.67,1.66-2.68,9.42.53,12.06s4.08,1.09,5.78-1.72,5.28-2.5,6.49-5.6A4.4,4.4,0,0,0,152.29,73.68Z"/><path class="cls-25" d="M152.21,73.72c-2.19-.86-6.91-2-9.92,1-1.63,1.63-2.59,9.16.55,11.71s4,1.08,5.66-1.66,5.14-2.46,6.31-5.48A4.31,4.31,0,0,0,152.21,73.72Z"/><path class="cls-26" d="M152.13,73.76c-2.14-.83-6.76-2-9.67,1-1.58,1.6-2.49,8.89.57,11.37s3.91,1,5.55-1.61,5-2.42,6.12-5.35A4.22,4.22,0,0,0,152.13,73.76Z"/><path class="cls-26" d="M152.05,73.8c-2.09-.79-6.61-1.88-9.42,1-1.53,1.59-2.39,8.64.6,11s3.82,1,5.42-1.55,4.87-2.38,5.95-5.22A4.14,4.14,0,0,0,152.05,73.8Z"/><path class="cls-27" d="M152,73.84c-2-.76-6.46-1.8-9.17,1.06-1.48,1.56-2.3,8.38.62,10.68s3.74,1,5.31-1.49,4.73-2.34,5.77-5.1S153.3,74.34,152,73.84Z"/><path class="cls-28" d="M151.89,73.88c-2-.73-6.31-1.72-8.91,1.08-1.43,1.55-2.21,8.13.63,10.34s3.65,1,5.2-1.43,4.59-2.3,5.59-5S153.21,74.37,151.89,73.88Z"/><path class="cls-28" d="M151.81,73.92c-1.94-.7-6.16-1.64-8.66,1.11-1.38,1.52-2.11,7.86.66,10s3.56,1,5.08-1.37,4.46-2.26,5.4-4.84S153.12,74.4,151.81,73.92Z"/><path class="cls-29" d="M151.73,74c-1.89-.68-6-1.57-8.41,1.12-1.33,1.51-2,7.61.68,9.65s3.48,1,5-1.31,4.32-2.22,5.22-4.72S153,74.43,151.73,74Z"/><path class="cls-30" d="M151.65,74c-1.84-.65-5.87-1.49-8.15,1.15-1.29,1.48-1.92,7.35.69,9.3s3.4,1,4.85-1.25,4.19-2.18,5.05-4.59S152.94,74.46,151.65,74Z"/><path class="cls-31" d="M151.57,74.05c-1.78-.62-5.72-1.41-7.9,1.17-1.24,1.47-1.82,7.1.72,9s3.3.94,4.73-1.19,4-2.14,4.86-4.46S152.85,74.49,151.57,74.05Z"/><path class="cls-32" d="M151.49,74.09c-1.73-.59-5.57-1.32-7.65,1.2-1.19,1.44-1.72,6.83.74,8.61s3.22.93,4.62-1.13,3.91-2.1,4.68-4.34S152.75,74.52,151.49,74.09Z"/><path class="cls-32" d="M151.41,74.13c-1.68-.56-5.42-1.24-7.39,1.22-1.14,1.43-1.63,6.58.75,8.27s3.14.91,4.51-1.07,3.77-2.06,4.5-4.21S152.66,74.55,151.41,74.13Z"/><path class="cls-33" d="M151.33,74.17c-1.63-.54-5.27-1.16-7.14,1.25-1.09,1.4-1.53,6.32.78,7.92s3.05.9,4.39-1,3.63-2,4.31-4.08S152.57,74.58,151.33,74.17Z"/><path class="cls-34" d="M151.25,74.21c-1.58-.51-5.12-1.07-6.89,1.28-1,1.38-1.43,6.05.8,7.57s3,.88,4.27-1,3.5-2,4.14-4S152.48,74.61,151.25,74.21Z"/><path class="cls-35" d="M151.17,74.26c-1.53-.49-5-1-6.63,1.29-1,1.37-1.34,5.8.81,7.24s2.88.85,4.16-.9,3.36-1.94,4-3.83S152.39,74.64,151.17,74.26Z"/><path class="cls-35" d="M151.09,74.3c-1.48-.46-4.82-.91-6.38,1.32-1,1.34-1.24,5.54.84,6.89s2.79.84,4-.84,3.23-1.9,3.77-3.7S152.3,74.67,151.09,74.3Z"/><path class="cls-36" d="M151,74.34c-1.42-.43-4.67-.83-6.13,1.34-.89,1.33-1.14,5.29.86,6.55s2.71.82,3.93-.78,3.09-1.86,3.59-3.58S152.21,74.7,151,74.34Z"/><path class="cls-37" d="M150.93,74.38c-1.37-.41-4.52-.74-5.88,1.37-.84,1.31-1,5,.88,6.2s2.63.81,3.82-.72,2.95-1.82,3.41-3.45S152.11,74.73,150.93,74.38Z"/><path class="cls-38" d="M150.85,74.42c-1.32-.38-4.36-.65-5.62,1.39-.8,1.29-1,4.77.9,5.86s2.53.79,3.69-.66,2.82-1.78,3.23-3.32S152,74.76,150.85,74.42Z"/><path class="cls-39" d="M150.76,74.46c-1.26-.35-4.2-.57-5.36,1.42-.75,1.27-.86,4.51.92,5.51s2.45.78,3.58-.6,2.68-1.74,3-3.19S151.93,74.79,150.76,74.46Z"/><path class="cls-39" d="M150.68,74.5c-1.21-.32-4.05-.48-5.11,1.44-.69,1.26-.76,4.25,1,5.17s2.36.76,3.46-.54,2.54-1.7,2.87-3.07S151.84,74.82,150.68,74.5Z"/><path class="cls-40" d="M150.6,74.55c-1.15-.31-3.89-.4-4.85,1.46-.65,1.24-.67,4,1,4.82s2.28.74,3.35-.48,2.4-1.66,2.68-2.94S151.75,74.85,150.6,74.55Z"/><path class="cls-41" d="M150.52,74.59c-1.1-.28-3.74-.31-4.6,1.48-.59,1.23-.57,3.74,1,4.48s2.19.73,3.24-.42,2.26-1.62,2.5-2.81S151.66,74.87,150.52,74.59Z"/><path class="cls-41" d="M150.44,74.63c-1.05-.26-3.58-.21-4.35,1.51-.54,1.21-.47,3.48,1,4.13s2.1.71,3.12-.36,2.12-1.58,2.32-2.69S151.57,74.9,150.44,74.63Z"/><path class="cls-42" d="M150.36,74.67c-1-.23-3.42-.12-4.09,1.54-.49,1.19-.38,3.21,1,3.78s2,.7,3-.3,2-1.54,2.15-2.56S151.48,74.93,150.36,74.67Z"/><path class="cls-43" d="M150.28,74.71c-.94-.21-3.26,0-3.84,1.56-.43,1.18-.28,3,1,3.44s1.94.68,2.89-.24,1.85-1.5,2-2.43A2.56,2.56,0,0,0,150.28,74.71Z"/><path class="cls-44" d="M150.2,74.75c-.89-.18-3.1.06-3.59,1.59-.38,1.16-.18,2.7,1.07,3.09s1.85.67,2.77-.18,1.71-1.46,1.78-2.31A2.53,2.53,0,0,0,150.2,74.75Z"/><path class="cls-45" d="M150.12,74.79c-.84-.16-2.93.16-3.34,1.61-.32,1.16-.08,2.45,1.09,2.76s1.76.64,2.66-.13,1.57-1.42,1.6-2.18A2.52,2.52,0,0,0,150.12,74.79Z"/><path class="cls-46" d="M150,74.84c-.78-.15-2.77.24-3.08,1.63-.26,1.14,0,2.18,1.1,2.41s1.68.62,2.55-.07,1.43-1.38,1.41-2A2.48,2.48,0,0,0,150,74.84Z"/><path class="cls-47" d="M150,74.88c-.73-.12-2.6.33-2.83,1.65-.2,1.13.11,1.93,1.13,2.07s1.59.61,2.42,0a2.43,2.43,0,0,0,1.24-1.92A2.5,2.5,0,0,0,150,74.88Z"/><path class="cls-47" d="M149.88,74.92c-.68-.1-2.43.43-2.58,1.68s.21,1.67,1.15,1.72,1.51.59,2.31,0a2,2,0,0,0,1.06-1.79A2.53,2.53,0,0,0,149.88,74.92Z"/><path class="cls-48" d="M149.8,75c-.63-.08-2.25.52-2.32,1.7s.3,1.41,1.16,1.38,1.42.58,2.2.1a1.58,1.58,0,0,0,.87-1.66A2.57,2.57,0,0,0,149.8,75Z"/><path class="cls-48" d="M149.72,75c-.57-.06-2.08.61-2.07,1.73s.39,1.15,1.19,1,1.33.56,2.08.16a1.27,1.27,0,0,0,.69-1.54A2.73,2.73,0,0,0,149.72,75Z"/><path class="cls-49" d="M151.51,76.29A2.94,2.94,0,0,0,149.64,75c-.52,0-1.9.69-1.82,1.75s.49.9,1.21.69,1.25.55,2,.22A1,1,0,0,0,151.51,76.29Z"/></g></g><path class="cls-8" d="M149.64,88.51c-.66.91-2,2.33-1.57,3.88s1.31,1.43,1.31,1.43a4.66,4.66,0,0,1-.13-3.24A2.92,2.92,0,0,0,149.64,88.51Z"/><path class="cls-8" d="M180.46,88.13c.66.9,2,2.32,1.57,3.88s-1.3,1.42-1.3,1.42a4.7,4.7,0,0,0,.13-3.23A2.9,2.9,0,0,1,180.46,88.13Z"/><path class="cls-13" d="M151.14,91.39s8.23.39,10.68.49a100.43,100.43,0,0,0,10.87-.49c2.16-.29,6.86-1.16,7-.87s-1,4.46-6,7.47-13.36,1.78-16.36.67c-4.21-1.55-6.8-6.24-6.8-6.24S149.87,91.1,151.14,91.39Z"/><path class="cls-50" d="M172.69,91.39a100.43,100.43,0,0,1-10.87.49c-2.45-.1-10.68-.49-10.68-.49-.75-.17-.88.26-.87.65a53.75,53.75,0,0,0,9.88,1.68c6.27.47,15.64.11,19.43-2.73a1.7,1.7,0,0,0,.07-.47C179.55,90.23,174.85,91.1,172.69,91.39Z"/><path class="cls-50" d="M151.14,93.91c1.21,1.31,4.12,4,6.17,4.75,3,1.11,11.37,2.33,16.36-.67,1.24-.75,2.83-3.07,3.63-3.88a39.58,39.58,0,0,1-13.72,2.71C158.07,96.78,153.58,94.77,151.14,93.91Z"/><path class="cls-51" d="M151.43,93.23a23.31,23.31,0,0,0,8,2.91c3.82.39,7.38.82,12.63-.48a25.26,25.26,0,0,0,6.76-3.3s-4,5-14.5,4.75S151.43,93.23,151.43,93.23Z"/><path class="cls-51" d="M154.67,97.21a22.34,22.34,0,0,1-1.47-5.72l-1.77-.1c-1.27-.29-.92,1-.92,1A15.57,15.57,0,0,0,154.67,97.21Z"/><path class="cls-51" d="M179.65,90.52a10.47,10.47,0,0,0-3.09.27,30.37,30.37,0,0,1-.85,5.74,8.9,8.9,0,0,0,2.66-3.81C178.84,91.75,179.68,90.63,179.65,90.52Z"/><path class="cls-52" d="M150.26,91.68c.29-.68.78-.68,2.55-.77,2.38-.13,7.34-.78,8.71-.49a15.77,15.77,0,0,0,4.51.49,27.24,27.24,0,0,1,4.6-.78c2-.1,4.9-.1,6.27,0s2.82-.08,2.75.39-6.57,2.23-7.94,2.13-6,.49-8,.49-7.35-.78-8.82-.88S150.14,92,150.26,91.68Z"/><path class="cls-52" d="M150.65,91.78a9,9,0,0,0,3,3.1c5.29,3.32,13.67,4.07,19.1,1.75a12.35,12.35,0,0,0,4.51-2.91c.69-.77,2.35-3.2,2.35-3.2-.22.32.38-.1-.11,1.17-.35.9-1,1.89-1.35,2.68a12.89,12.89,0,0,1-2.39,3.55,11.88,11.88,0,0,1-7.71,3.56c-6.55.41-13.29-.88-16.77-7-.44-.78-1.36-2.34-1.11-2.65S150.65,91.78,150.65,91.78Z"/><path class="cls-53" d="M157.51,97.89c-.13-.68,2.05-.19,2.84.19s1.57.2,2.15.68.69,1.17-.68,1.17S157.7,99,157.51,97.89Z"/><path class="cls-53" d="M166.62,99.64c-.58-.22,0-1,1.08-1.26s3.32-.68,4.11-1,.78.77-.49,1.93S167.7,100,166.62,99.64Z"/><path class="cls-8" d="M167.3,85.57c.49-.19,1-1,1.77-1.55s1.86-.68,2.05-.19,0,.29-1.07.58A18,18,0,0,0,167.3,85.57Z"/><path class="cls-8" d="M162.5,85.28a11.53,11.53,0,0,0-1.47-1,4.22,4.22,0,0,0-2.15-.19c-.39.1-.59.48.29.77s1.28,0,2,.2A5.84,5.84,0,0,0,162.5,85.28Z"/><path class="cls-8" d="M157.44,78.89a3,3,0,0,1-.57,1.33,2.76,2.76,0,0,0-.61,1.17,2.59,2.59,0,0,0,.22,1.23,5.33,5.33,0,0,0,.65,1.18l0,0a2.07,2.07,0,0,1-1.15-1,2.1,2.1,0,0,1-.15-1.55,3,3,0,0,1,.84-1.27,2.75,2.75,0,0,0,.74-1.16Z"/><path class="cls-8" d="M172.43,78.88a2.75,2.75,0,0,0,.74,1.16,3,3,0,0,1,.84,1.27,2.06,2.06,0,0,1-1.3,2.54l0,0a5,5,0,0,0,.66-1.18,2.58,2.58,0,0,0,.21-1.23,2.62,2.62,0,0,0-.6-1.17,2.87,2.87,0,0,1-.57-1.33Z"/><path class="cls-8" d="M158.39,68.89a8.73,8.73,0,0,0-4.9-4.85A7.44,7.44,0,0,0,146,65.21c-1.27,1.16-2.74,3.44-3.33,4,.93.1,1.42-.38,3.09-.58s2.5-1.36,4.95-1.45a15.55,15.55,0,0,1,4.9.29A28.37,28.37,0,0,1,158.39,68.89Z"/><path class="cls-13" d="M158,69.41c.68-.52-.39-1-.88-1.35s-2.36-2.24-4.41-2.81a5.65,5.65,0,0,0-4.8.49c-1.18.79-2.45,1.62-3.43,2.18s-2.06,1.17-1.57,1.37a8.62,8.62,0,0,0,3,1,14.78,14.78,0,0,0,5.7.12c2.15-.45,3.72-.57,4.41-.68Z"/><path d="M148.1,65.59l-.38.26a3.51,3.51,0,0,0-.5,1.78,3.57,3.57,0,0,0,1.66,3,12.51,12.51,0,0,0,2.75-.22c.68-.15,1.3-.25,1.85-.34a3.54,3.54,0,0,0,1-2.45,3.6,3.6,0,0,0-.55-1.89,7.86,7.86,0,0,0-1.21-.49C150.65,64.69,149.28,64.81,148.1,65.59Z"/><path class="cls-13" d="M148.79,69.48a2.3,2.3,0,0,1-.74-1.9c.2-1.06.74-1.4,1-.82s0,.81-.14,1.36A2.84,2.84,0,0,0,148.79,69.48Z"/><path class="cls-13" d="M152.31,69.28c-.4,0,.79-.68.59-1.45s.3-1.07.59-.3A1.22,1.22,0,0,1,152.31,69.28Z"/><path class="cls-54" d="M158.17,69c0-.16-.17-.28-.3-.39a4.57,4.57,0,0,0-.47-.29c-.16-.1-.33-.19-.49-.3l-.44-.35a17.32,17.32,0,0,0-1.81-1.27,7.78,7.78,0,0,0-2-.87,7.56,7.56,0,0,0-2.11-.24,4.61,4.61,0,0,0-2,.53,4.28,4.28,0,0,0-.42.26l-.46.32c-.31.21-.63.41-.95.6-.64.38-1.3.75-2,1.07l-1,.46a3.56,3.56,0,0,0-.94.52l-.08,0a1.31,1.31,0,0,1,.36-.47l.44-.38c.29-.23.6-.45.9-.66l1.81-1.29.91-.63.48-.3a3.5,3.5,0,0,1,.54-.29,5.44,5.44,0,0,1,2.37-.45,8,8,0,0,1,2.3.4,8.33,8.33,0,0,1,2.05,1.07,17.24,17.24,0,0,1,1.73,1.45l.41.37a4.87,4.87,0,0,0,.43.33,3.63,3.63,0,0,1,.46.34.82.82,0,0,1,.31.49Z"/><path class="cls-54" d="M142.83,69.08c0,.09,0,.14.1.17h0a7,7,0,0,0,1.79.59c.62.14,1.25.25,1.87.34a17.74,17.74,0,0,0,3.78.22,15.48,15.48,0,0,0,1.88-.27q1-.16,1.92-.27c.63-.08,1.28-.12,1.91-.21l1.9-.28h0a.42.42,0,0,0,.21-.34h.05a.46.46,0,0,1-.22.39h0l-1.89.37c-.63.11-1.27.19-1.9.29s-1.26.21-1.89.34a14.35,14.35,0,0,1-1.91.34,13.36,13.36,0,0,1-3.89-.13c-.64-.13-1.26-.28-1.88-.47a5.71,5.71,0,0,1-1.76-.84h0a.2.2,0,0,1-.12-.12s0-.12,0-.16Z"/><path class="cls-8" d="M169.65,68.36a8.7,8.7,0,0,1,4.9-4.85A7.46,7.46,0,0,1,182,64.67c1.27,1.17,2.74,3.45,3.33,4-.93.1-1.42-.39-3.09-.58s-2.49-1.36-4.94-1.46a15.84,15.84,0,0,0-4.9.29A29.41,29.41,0,0,0,169.65,68.36Z"/><path class="cls-13" d="M170.05,68.87c-.69-.51.39-1,.88-1.34s2.35-2.25,4.41-2.81a5.63,5.63,0,0,1,4.8.49c1.17.78,2.45,1.62,3.43,2.18s2.05,1.16,1.56,1.37a8.38,8.38,0,0,1-3,1,14.63,14.63,0,0,1-5.71.12c-2.15-.45-3.72-.56-4.4-.67Z"/><path d="M179.94,65.06l.39.26a3.54,3.54,0,0,1-1.16,4.79,12.55,12.55,0,0,1-2.76-.23c-.68-.14-1.29-.25-1.85-.33a3.54,3.54,0,0,1-1-2.45,3.49,3.49,0,0,1,.56-1.89,6,6,0,0,1,1.21-.49C177.39,64.16,178.76,64.27,179.94,65.06Z"/><path class="cls-13" d="M179.26,68.94a2.28,2.28,0,0,0,.73-1.89c-.2-1.07-.73-1.41-1-.83s0,.81.15,1.36A3,3,0,0,1,179.26,68.94Z"/><path class="cls-13" d="M175.73,68.75c.4,0-.79-.68-.59-1.46s-.29-1.07-.59-.29A1.22,1.22,0,0,0,175.73,68.75Z"/><path class="cls-54" d="M169.78,68.5a.78.78,0,0,1,.31-.5c.14-.12.3-.23.45-.34a5,5,0,0,0,.44-.32l.41-.38a16.11,16.11,0,0,1,1.73-1.44,7.78,7.78,0,0,1,2-1.07,8.48,8.48,0,0,1,2.3-.41,5.59,5.59,0,0,1,2.37.45,5.86,5.86,0,0,1,.55.3l.47.3.92.62,1.8,1.3c.3.21.61.43.91.66.14.12.29.24.43.38a1.14,1.14,0,0,1,.36.47l-.08,0a3.3,3.3,0,0,0-.94-.52l-1-.46c-.69-.32-1.34-.7-2-1.08l-1-.59-.45-.32a3.78,3.78,0,0,0-.43-.26,4.34,4.34,0,0,0-2-.53,7.64,7.64,0,0,0-2.11.24,7.13,7.13,0,0,0-2,.87,16.88,16.88,0,0,0-1.81,1.27l-.44.34a4.3,4.3,0,0,1-.49.3,3.58,3.58,0,0,0-.46.29.71.71,0,0,0-.31.4Z"/><path class="cls-54" d="M185.25,68.53a.17.17,0,0,1,0,.16.3.3,0,0,1-.13.12h0a5.71,5.71,0,0,1-1.76.84c-.62.19-1.24.35-1.88.48a13.36,13.36,0,0,1-3.89.13,16.94,16.94,0,0,1-1.91-.35c-.63-.13-1.25-.24-1.89-.33s-1.26-.18-1.9-.29L170,68.91h0a.51.51,0,0,1-.22-.4h0a.4.4,0,0,0,.22.33h0l1.9.28c.63.08,1.28.12,1.92.2s1.27.17,1.91.28a15.48,15.48,0,0,0,1.88.27,18.42,18.42,0,0,0,3.78-.22c.62-.09,1.25-.21,1.87-.34a7.59,7.59,0,0,0,1.8-.59h0c.08,0,.14-.07.1-.17Z"/><path class="cls-54" d="M169.23,61.88c-.19.5-.13,1.29,2,.51a73.55,73.55,0,0,1,8-2.58c2.74-.65,3.79-.52,5.35.52a29.25,29.25,0,0,1,3.79,3.36s-2.87-4-4.18-4.92a7.55,7.55,0,0,0-6.4-1C174.85,58.52,169.88,60.2,169.23,61.88Z"/><path class="cls-54" d="M158.39,62.39c.19.5.13,1.3-2,.52a71.41,71.41,0,0,0-8-2.58c-2.74-.65-3.79-.52-5.35.51a29.83,29.83,0,0,0-3.79,3.37s2.87-4,4.18-4.92a7.54,7.54,0,0,1,6.4-1C152.77,59,157.73,60.71,158.39,62.39Z"/><path class="cls-55" d="M162.64,111.55c-.48-.72.48-3.32,3.58-3.32s4.79,1,3.83,2.13-2.63,1.19-3.83,1.9S162.64,111.55,162.64,111.55Z"/><path class="cls-7" d="M147.11,36.7s2.06,8.78,16.06,11.51c12.86,2.5,23.42.45,28,18.4,0,0,.91-14.31-2.53-21.81S150.78,25.18,147.11,36.7Z"/><path class="cls-56" d="M139,86.08a26.72,26.72,0,0,0,1.35,4.6,25.06,25.06,0,0,0,2.1,4.25,21.41,21.41,0,0,0,1.34,1.93c.48.62,1,1.23,1.53,1.83q1.58,1.78,3.29,3.47c1.14,1.14,2.3,2.24,3.49,3.32.59.54,1.19,1.08,1.79,1.6l.92.78c.3.25.61.51.92.74,1.3.93,2.61,1.87,4,2.7a18.65,18.65,0,0,0,2.1,1.16,9,9,0,0,0,1.11.46,5.23,5.23,0,0,0,1.17.27,6.27,6.27,0,0,1-2.42-.38,16.84,16.84,0,0,1-2.29-.92c-.74-.36-1.46-.75-2.17-1.15s-1.4-.84-2.1-1.27-1.35-1-2-1.47-1.27-1-1.89-1.56c-1.24-1.06-2.43-2.17-3.59-3.31s-2.27-2.36-3.31-3.61c-.52-.64-1-1.27-1.51-2a17.1,17.1,0,0,1-1.3-2.11,21.53,21.53,0,0,1-1.81-4.57A19.7,19.7,0,0,1,139,86.08Z"/><path class="cls-56" d="M190.11,82.44a15.51,15.51,0,0,1,.09,3.12,19.23,19.23,0,0,1-.47,3.09,15.23,15.23,0,0,1-1,3,9.66,9.66,0,0,1-1.69,2.64c.39-1,.73-1.92,1-2.89s.54-2,.77-2.93.44-2,.64-3S189.88,83.46,190.11,82.44Z"/><path class="cls-5" d="M148.13,25.53s-9.13.73-13.78,8.63c-6,10.18-3.92,20.15-3.16,24.28.61,3.34,5.12,15.24,5.12,15.24s1.08-8.37,1.26-12.32c.24-5.45.71-12.43,3.84-15.15A91,91,0,0,0,148.47,39S148.33,29.6,148.13,25.53Z"/><path class="cls-5" d="M145.88,32c.37,3.79.88,6.07,8.79,10.42,6.67,3.67,13.13,4.18,20.29,6.09,6.88,1.84,8.9,1.67,12.23,5.93s4.11,15.13,4.11,15.13,1.11-4.42,2.28-10.62c1.41-7.45,2.15-14.63-1.7-21.36-6.22-10.91-17.68-16.74-30.39-16.65-5.69,0-12.09,1-15.51,4.84C144.76,27.14,145.63,29.37,145.88,32Z"/><path class="cls-57" d="M142.06,25.94a17.8,17.8,0,0,0-1.61,1.12c-.52.39-1,.8-1.52,1.23a35.57,35.57,0,0,0-2.8,2.69,37,37,0,0,0-4.63,6.17,36.56,36.56,0,0,0-3.21,7,38.77,38.77,0,0,0-1.74,7.45,54.72,54.72,0,0,0-.53,7.67,58.18,58.18,0,0,0,.49,7.69c.16,1.28.38,2.55.62,3.82s.54,2.52.88,3.77.71,2.48,1.13,3.71c.21.61.44,1.22.67,1.82s.49,1.21.77,1.8a32.72,32.72,0,0,1-1.8-3.48c-.53-1.2-1-2.42-1.42-3.66a49.71,49.71,0,0,1-1.92-7.62,51.36,51.36,0,0,1-.72-7.84,53.08,53.08,0,0,1,.47-7.86,38.22,38.22,0,0,1,1.88-7.69,34.53,34.53,0,0,1,3.52-7.1,33.15,33.15,0,0,1,5.07-6.07,30.65,30.65,0,0,1,3-2.53A21.7,21.7,0,0,1,142.06,25.94Z"/><path class="cls-57" d="M132.05,88.8c0,.79.08,1.56.16,2.34s.18,1.55.31,2.31a34.71,34.71,0,0,0,1,4.57c.12.37.24.75.38,1.12a10.86,10.86,0,0,0,.47,1.11,15.48,15.48,0,0,0,1.16,2.07,20.26,20.26,0,0,0,1.42,1.89,14.54,14.54,0,0,0,1.67,1.66c-.7-1.41-1.43-2.75-2.09-4.12-.33-.68-.64-1.36-.94-2-.14-.35-.28-.69-.41-1s-.25-.7-.36-1.06c-.48-1.44-.9-2.91-1.36-4.39S132.59,90.27,132.05,88.8Z"/><path class="cls-57" d="M146.34,33.21A38.19,38.19,0,0,0,151,38a28.17,28.17,0,0,0,5.44,3.72,21.18,21.18,0,0,0,3,1.26c1,.32,2.14.61,3.21.88,2.16.55,4.34,1.07,6.52,1.56s4.37,1,6.56,1.56c1.09.27,2.18.55,3.27.86s2.17.62,3.24,1a13.21,13.21,0,0,1,1.61.69,9.52,9.52,0,0,1,1.47,1A10.69,10.69,0,0,1,187.71,53a14.39,14.39,0,0,1,1.5,3,24.17,24.17,0,0,1,.9,3.23,20.47,20.47,0,0,0-3-5.89,10.22,10.22,0,0,0-2.34-2.21,11.94,11.94,0,0,0-1.38-.79,14.44,14.44,0,0,0-1.52-.57c-2.1-.64-4.29-1.14-6.47-1.63s-4.37-1-6.56-1.48-4.37-1-6.55-1.65c-1.09-.31-2.16-.62-3.26-1A19.4,19.4,0,0,1,156,42.6a26.39,26.39,0,0,1-5.38-4.16,33.45,33.45,0,0,1-2.27-2.5A28.94,28.94,0,0,1,146.34,33.21Z"/><path class="cls-57" d="M143,26.85a30,30,0,0,0-3.55,3.29,38.31,38.31,0,0,0-3,3.71,37.81,37.81,0,0,0-2.54,4,38.38,38.38,0,0,0-2,4.3,65.6,65.6,0,0,0-2.89,9.11c-.19.77-.36,1.56-.52,2.34s-.3,1.57-.43,2.36c-.27,1.59-.48,3.18-.61,4.79a30.32,30.32,0,0,1-.07-4.86q.08-1.22.21-2.43c.09-.81.22-1.61.35-2.42a45.62,45.62,0,0,1,2.69-9.4,35.53,35.53,0,0,1,2.18-4.42,32.11,32.11,0,0,1,2.82-4A30.11,30.11,0,0,1,139,29.67c.62-.53,1.26-1.05,1.92-1.53A17.27,17.27,0,0,1,143,26.85Z"/><path class="cls-57" d="M147.57,28.67a11.06,11.06,0,0,0,1.45.92c.5.28,1,.54,1.54.77a26.47,26.47,0,0,0,3.21,1.22,40.15,40.15,0,0,0,6.69,1.48c1.13.15,2.26.26,3.41.35s2.32.21,3.48.36A60.4,60.4,0,0,1,174.24,35a30.32,30.32,0,0,1,6.64,2.45,14.45,14.45,0,0,1,3,2,11.11,11.11,0,0,1,1.25,1.32c.37.48.7,1,1,1.47A31.43,31.43,0,0,1,189,48.66a49.93,49.93,0,0,1,1.74,6.67c-.71-2.18-1.48-4.34-2.38-6.44-.44-1-.91-2.08-1.43-3.09a28.08,28.08,0,0,0-1.71-2.91,14.83,14.83,0,0,0-1-1.32A10.5,10.5,0,0,0,183,40.41a14.28,14.28,0,0,0-2.77-1.79,25.8,25.8,0,0,0-3.11-1.3c-1.07-.37-2.16-.69-3.26-1A63.48,63.48,0,0,0,167.17,35c-1.13-.17-2.27-.32-3.41-.44s-2.32-.29-3.47-.5a34.86,34.86,0,0,1-6.75-1.89,26,26,0,0,1-3.15-1.51A14.65,14.65,0,0,1,147.57,28.67Z"/><path class="cls-57" d="M188,30.34A21.72,21.72,0,0,1,190,32.46c.65.74,1.25,1.53,1.83,2.33a34.38,34.38,0,0,1,3,5.1A32.58,32.58,0,0,1,197,45.47a33.55,33.55,0,0,1,1,5.87,64.47,64.47,0,0,1-.13,11.79c-.09,1-.2,1.95-.32,2.93S197.25,68,197.1,69c-.33,1.93-.69,3.85-1.18,5.75.37-3.89.66-7.78.83-11.66,0-1,.08-1.94.1-2.91s0-1.94,0-2.91c0-1.94-.08-3.87-.24-5.79-.08-1-.19-1.91-.34-2.86-.07-.47-.16-.94-.25-1.41s-.19-.94-.3-1.4a36.89,36.89,0,0,0-1.81-5.47,41.17,41.17,0,0,0-2.61-5.18A37.43,37.43,0,0,0,188,30.34Z"/><path class="cls-54" d="M137.57,61.36c.24-5.45.71-12.43,3.84-15.15a77.28,77.28,0,0,0,7.38-8s-.92-.76-1.68-1.51c-2.37,3.09-4.71,4.13-8,6.77s-4.21,3.83-4.21,9.34,1.56,17.87,1.45,20.87C136.31,73.68,137.39,65.31,137.57,61.36Z"/><path class="cls-54" d="M148.85,30.45c0,1.67,5.31,8.6,12.55,11.1s13.1,1.21,20.6,5c4.84,2.45,7.3,6.27,7.64,7.94a16.91,16.91,0,0,0-7.42-9.68C177.22,41.73,165,40.94,159,36a52.77,52.77,0,0,0,11,3.09c3.88.66,5.51-.25,9.85,2a24.27,24.27,0,0,1,6.89,6.21,15.1,15.1,0,0,0-9.24-8.67c-2.06-.68-6-1.29-8.59-1.84-4.61-1-8-1.77-11.64-2.5C151.54,33.12,148.85,30.45,148.85,30.45Z"/><path class="cls-58" d="M167.87,69a3.65,3.65,0,0,1,.45-2.89c.72-.91,3.44-1.27,4.7-1.45s9.47-.79,13,.18c3,.81,2.89,2.44,2.89,3.07s-.52,6.85-1.54,8.33a5.43,5.43,0,0,1-3.25,1.8,60.66,60.66,0,0,1-10.13,0A5.83,5.83,0,0,1,170,75.35,22.63,22.63,0,0,1,167.87,69Z"/><path class="cls-59" d="M191.09,64.16c-.54-.09-2.21-.38-3.75-.56a89.77,89.77,0,0,0-11.43-.1,59.85,59.85,0,0,0-9.85,1.81,6.25,6.25,0,0,1-1.72.09V68a2.47,2.47,0,0,1,1.72.54c.72.63,1.45,4.16,3,7.14s3.92,3.43,6.08,3.71a48.73,48.73,0,0,0,9.23-.18,6.82,6.82,0,0,0,3.55-1.78c1.29-1.42,2.49-8.71,2.58-9.34s1.08-.46,1.63-.73.54-1.44.54-2.08S191.63,64.25,191.09,64.16Zm-2.15,3.77c0,.64-.52,6.85-1.54,8.33a5.43,5.43,0,0,1-3.25,1.8,60.66,60.66,0,0,1-10.13,0A5.83,5.83,0,0,1,170,75.35,22.63,22.63,0,0,1,167.87,69a3.65,3.65,0,0,1,.45-2.89c.72-.91,3.44-1.27,4.7-1.45s9.45-.72,13,.18A3.44,3.44,0,0,1,188.94,67.93Z"/><path class="cls-60" d="M185.69,64.74a6.62,6.62,0,0,1,1.59.64,3.59,3.59,0,0,1,1.27,1.15,2.66,2.66,0,0,1,.42,1.65c0,.57-.09,1.13-.14,1.7-.12,1.14-.26,2.27-.47,3.39A16.85,16.85,0,0,1,188,75c-.08.27-.16.54-.27.81a3.54,3.54,0,0,1-.19.39,2.31,2.31,0,0,1-.25.36,4.31,4.31,0,0,1-1.38,1,7.85,7.85,0,0,1-1.63.56l-.21,0-.22,0-.42,0-.86,0q-.85,0-1.71.06c-1.14,0-2.28,0-3.42,0-.57,0-1.14,0-1.71,0a16.47,16.47,0,0,1-1.71-.16v0l.85,0h.86c.57,0,1.13,0,1.7,0l1.71-.07,1.7-.08,1.7-.1.84-.07.41,0,.19,0h.07l.1,0a7.27,7.27,0,0,0,1.51-.52,3.64,3.64,0,0,0,1.2-.9A1.34,1.34,0,0,0,187,76L187,76a.16.16,0,0,0,0-.07,2.39,2.39,0,0,0,.16-.32,6.18,6.18,0,0,0,.26-.76c.16-.52.27-1.07.39-1.62.22-1.1.38-2.22.54-3.34.08-.56.14-1.13.2-1.68a1.5,1.5,0,0,0,0-.2.61.61,0,0,0,0-.19,1.55,1.55,0,0,0,0-.37,2.45,2.45,0,0,0-.28-.72,2.92,2.92,0,0,0-.48-.63,4.68,4.68,0,0,0-.64-.52,7.28,7.28,0,0,0-.73-.41,6.71,6.71,0,0,0-.78-.32Z"/><path class="cls-60" d="M170.75,76.45a4.74,4.74,0,0,1-.65-.77,4,4,0,0,1-.25-.45l-.21-.45c-.28-.61-.54-1.23-.77-1.86s-.44-1.27-.62-1.92a14.72,14.72,0,0,1-.43-2h0a4.63,4.63,0,0,1-.12-.9,4,4,0,0,1,.08-.91,3,3,0,0,1,.32-.86l.13-.19a1.29,1.29,0,0,1,.16-.17,1.32,1.32,0,0,1,.38-.25,4.67,4.67,0,0,1,.86-.31c.29-.08.59-.15.88-.21.59-.12,1.19-.21,1.78-.31V65c-.58.18-1.16.33-1.74.5-.28.09-.57.18-.84.28a5.42,5.42,0,0,0-.77.34,1.7,1.7,0,0,0-.28.21l0,0h0v0h0v0l0,0-.09.16a3,3,0,0,0-.24.73,4.12,4.12,0,0,0,0,.79c0,.14,0,.27,0,.41l0,.2,0,.09a.37.37,0,0,1,0,.09V69c0,.07,0,.15,0,.23l.05.23.1.48c.06.32.14.64.22,1s.17.64.26,1,.19.64.28,1,.19.63.3.95.21.63.32.94c.06.16.11.32.17.47l0,.12a.49.49,0,0,1,0,.11l.1.22a4.63,4.63,0,0,0,.24.43c.09.14.19.27.29.41Z"/><path class="cls-58" d="M161.27,69a3.67,3.67,0,0,0-.46-2.89c-.72-.91-3.43-1.27-4.7-1.45s-9.46-.79-13,.18c-3,.81-2.9,2.44-2.9,3.07s.52,6.85,1.54,8.33a5.42,5.42,0,0,0,3.26,1.8,60.65,60.65,0,0,0,10.13,0,5.78,5.78,0,0,0,4.06-2.71A22.89,22.89,0,0,0,161.27,69Z"/><path class="cls-59" d="M136.48,65.31c0,.64,0,1.81.55,2.08s1.53.09,1.62.73,1.22,7.92,2.51,9.34a6.59,6.59,0,0,0,3.48,1.78,48.7,48.7,0,0,0,9.23.18c2.16-.28,4.68-.72,6.22-3.71s2.26-6.51,3-7.14a2.45,2.45,0,0,1,1.71-.54V65.4a6.18,6.18,0,0,1-1.71-.09,74.44,74.44,0,0,0-10.77-1.9,76.85,76.85,0,0,0-10.59.09c-1.54.18-3.52.73-4.06.82S136.48,64.68,136.48,65.31Zm6.61-.45c3.47-1.24,11.42-.13,12.68,0s4.32.31,5,1.22a3.67,3.67,0,0,1,.46,2.89,22.89,22.89,0,0,1-2.09,6.33,5.78,5.78,0,0,1-4.06,2.71,60.65,60.65,0,0,1-10.13,0,5.42,5.42,0,0,1-3.26-1.8c-1-1.48-1.54-7.69-1.54-8.33S140.6,65.75,143.09,64.86Z"/><path class="cls-60" d="M143.44,64.74a6.62,6.62,0,0,0-1.59.64,3.56,3.56,0,0,0-1.26,1.15,2.6,2.6,0,0,0-.43,1.65c0,.57.09,1.13.15,1.7.11,1.14.26,2.27.46,3.39.1.56.22,1.12.37,1.68q.12.4.27.81a3.54,3.54,0,0,0,.19.39,2.31,2.31,0,0,0,.25.36,4.24,4.24,0,0,0,1.39,1,7.77,7.77,0,0,0,1.62.56l.22,0,.21,0,.43,0,.85,0q.85,0,1.71.06c1.14,0,2.28,0,3.42,0,.57,0,1.14,0,1.71,0a16.47,16.47,0,0,0,1.71-.16v0c-.28,0-.57,0-.85,0h-.85c-.57,0-1.14,0-1.71,0l-1.7-.07-1.71-.08-1.7-.1-.84-.07-.41,0-.19,0h-.07l-.1,0a7.47,7.47,0,0,1-1.51-.52,3.64,3.64,0,0,1-1.2-.9,1.34,1.34,0,0,1-.11-.14l0-.07a.43.43,0,0,1,0-.07,2.39,2.39,0,0,1-.16-.32,6.18,6.18,0,0,1-.26-.76c-.15-.52-.27-1.07-.38-1.62-.23-1.1-.39-2.22-.55-3.34-.07-.56-.14-1.13-.2-1.68,0-.07,0-.14,0-.2v-.19a2.33,2.33,0,0,1,0-.37,2.76,2.76,0,0,1,.28-.72,2.92,2.92,0,0,1,.48-.63,5.38,5.38,0,0,1,.64-.52c.23-.15.48-.28.73-.41a6.86,6.86,0,0,1,.79-.32Z"/><path class="cls-60" d="M158.38,76.45a5.37,5.37,0,0,0,.66-.77,3.88,3.88,0,0,0,.24-.45l.21-.45c.29-.61.54-1.23.77-1.86a18.66,18.66,0,0,0,.62-1.92,16.49,16.49,0,0,0,.44-2h0a4.61,4.61,0,0,0,.11-.9,3.47,3.47,0,0,0-.08-.91,2.71,2.71,0,0,0-.32-.86,2.14,2.14,0,0,0-.13-.19,1.22,1.22,0,0,0-.15-.17,1.36,1.36,0,0,0-.39-.25,4.67,4.67,0,0,0-.86-.31c-.29-.08-.58-.15-.88-.21-.59-.12-1.19-.21-1.78-.31V65c.58.18,1.17.33,1.74.5.28.09.57.18.84.28a5,5,0,0,1,.77.34,1.36,1.36,0,0,1,.28.21l0,0h0v0h0l0,0,0,0a1.29,1.29,0,0,1,.09.16,2.61,2.61,0,0,1,.24.73,3.44,3.44,0,0,1,0,.79,2.85,2.85,0,0,1,0,.41,1.62,1.62,0,0,1,0,.2l0,.09s0,.07,0,.09V69c0,.07,0,.15,0,.23l-.05.23-.09.48c-.07.32-.15.64-.23,1s-.16.64-.25,1-.19.64-.29,1-.19.63-.3.95-.21.63-.32.94c-.06.16-.11.32-.17.47l0,.12s0,.07,0,.11l-.1.22a4.63,4.63,0,0,1-.24.43c-.09.14-.18.27-.29.41Z"/><path class="cls-61" d="M185.86,69.83c-.45-.27-.54-1-.54-2.17s1.26-1.35,1.53-.36.19,2.08-.36,2.44S185.86,69.83,185.86,69.83Z"/><path class="cls-61" d="M186.16,70.71c-.53-.12-.42.65-.32,1,0,0,.39.36.64,0A.67.67,0,0,0,186.16,70.71Z"/><path class="cls-61" d="M142.83,69.65c.45-.27.54-1,.54-2.17s-1.26-1.36-1.54-.37-.18,2.09.37,2.45S142.83,69.65,142.83,69.65Z"/><path class="cls-61" d="M142.53,70.52c.53-.12.42.65.31,1,0,0-.38.36-.63,0A.67.67,0,0,1,142.53,70.52Z"/></g></g></svg>