<svg xmlns="http://www.w3.org/2000/svg" viewBox="0 0 322.94 322.94"><defs><style>.cls-1{fill:#bcbcbc;}.cls-2{fill:#fff;}.cls-3{fill:#f2f3fc;}.cls-4{fill:#152063;}.cls-5{fill:none;stroke:#0f2769;stroke-linecap:round;stroke-linejoin:round;stroke-width:2.65px;}</style></defs><g id="background"><rect class="cls-1" width="322.94" height="322.94" rx="64.41"/></g><g id="image"><path class="cls-2" d="M185,273.9,94.29,249.8c-12.2-3.24-19.46-18.38-16.14-33.65L109.76,70.9c3.32-15.27,16-25.11,28.22-21.86l90.66,24.09c12.2,3.25,19.47,18.39,16.15,33.66L213.18,252C209.85,267.31,197.15,277.14,185,273.9Z"/><path class="cls-3" d="M183.69,236.35,109,216.48c-10.06-2.67-16-15.16-13.31-27.74L121.7,69,233,98.57,207,218.33C204.22,230.91,193.75,239,183.69,236.35Z"/><path class="cls-4" d="M200.28,97.48,146.23,84.72A8.33,8.33,0,0,1,140,74.8h0a8.24,8.24,0,0,1,9.93-6.11L204,81.45a8.33,8.33,0,0,1,6.22,9.92h0A8.24,8.24,0,0,1,200.28,97.48Z"/><path class="cls-5" d="M187.74,154.78c-3.45-7.87-11.33-14.32-21.6-17.83-11.35-3.88-22.15-2.12-28.39,3.82"/><path class="cls-5" d="M184.54,116.83c-1.31,6.45-8.19,10.29-15.36,8.58s-11.92-8.32-10.61-14.77,8.19-10.29,15.36-8.58S185.85,110.38,184.54,116.83Z"/><line class="cls-5" x1="121.44" y1="153.26" x2="193.38" y2="173.81"/><line class="cls-5" x1="126.27" y1="177.63" x2="177.09" y2="192.15"/></g></svg>