<svg xmlns="http://www.w3.org/2000/svg" viewBox="0 0 288 288"><defs><style>.cls-1{fill:#f2f3fc;}</style></defs><g id="Layer_1" data-name="Layer 1"><path class="cls-1" d="M259.84,153.73l-113-107.58a4.1,4.1,0,0,0-5.66,0l-113,107.58A4.11,4.11,0,0,0,31,160.81H56.34v78a4.2,4.2,0,0,0,4.2,4.19h61.61a4.19,4.19,0,0,0,4.19-4.19V193h0v-4.07a4.2,4.2,0,0,1,4.19-4.19h26.94a4.2,4.2,0,0,1,4.19,4.19V193h0v45.78a4.19,4.19,0,0,0,4.19,4.19h61.61a4.2,4.2,0,0,0,4.2-4.19v-78H257A4.11,4.11,0,0,0,259.84,153.73Z"/></g></svg>