<svg xmlns="http://www.w3.org/2000/svg" viewBox="0 0 288 288"><defs><style>.cls-1{fill:#f2f3fc;}</style></defs><g id="Layer_1" data-name="Layer 1"><path class="cls-1" d="M147.13,46.22l112.1,47a4,4,0,0,1,0,7.28L147.13,147.39a7.44,7.44,0,0,1-5.71,0L28.56,100.16a3.6,3.6,0,0,1,0-6.64l112.86-47.3A7.35,7.35,0,0,1,147.13,46.22Z"/><path class="cls-1" d="M221.08,173l-75.57,31.63a4,4,0,0,1-3,0L66.92,173a3.89,3.89,0,0,0-3,0L29,187.63a3.91,3.91,0,0,0,0,7.21l110.86,46.4a10.86,10.86,0,0,0,8.34,0L259,194.84a3.91,3.91,0,0,0,0-7.21L224.11,173A3.89,3.89,0,0,0,221.08,173Z"/><path class="cls-1" d="M142.47,157.41,66.93,125.8a3.94,3.94,0,0,0-3.05,0L29.06,140.39a4,4,0,0,0,0,7.29l109.31,45.75a14.6,14.6,0,0,0,11.24,0l109.31-45.75a4,4,0,0,0,0-7.29L224.12,125.8a3.94,3.94,0,0,0-3.05,0l-75.54,31.61A4,4,0,0,1,142.47,157.41Z"/></g></svg>