<svg xmlns="http://www.w3.org/2000/svg" width="157.545" height="156.789" viewBox="0 0 157.545 156.789">
  <g id="Group_2480" data-name="Group 2480" transform="translate(-5691.707 -1102.225)">
    <g id="Group_2249" data-name="Group 2249">
      <path id="Path_3280" data-name="Path 3280" d="M5756.688,1110.476c.173-.028,2.483-.488,2.737-.574.612-.21.758-.412.845-1.116a5.167,5.167,0,0,0,0-1.092.14.14,0,0,1,.128-.177l.547-.066a.132.132,0,0,1,.158.154c-.006.379.281,2.16.334,2.485.123.761.377,1.788.494,2.237a.156.156,0,0,1-.1.2l-.468.141c-.1.039-.159-.018-.206-.168-.088-.274-.3-.754-.4-.981a1.03,1.03,0,0,0-1.069-.7c-1.039.056-2.538.3-2.885.352l.217,1.348c.189,1.172.572,3.272.641,3.706.2,1.126.817,1.474,1.511,1.494a9.042,9.042,0,0,0,1.632-.1c.369-.06,1.451-.256,1.9-.373a4.264,4.264,0,0,0,1.767-1.065,19.986,19.986,0,0,0,1.413-2.567c.048-.118.1-.216.24-.172l.38.139c.119.047.128.114.092.3l-.637,3.378a.467.467,0,0,1-.425.4c-.109.016-.591.071-1.9.259-1.3.21-3.413.528-6.8,1.073-.805.129-1.409.25-1.843.319-.453.1-.732.163-.927.194-.129.021-.2-.011-.219-.121l-.1-.587c-.014-.087.048-.118.2-.142l.867-.141c1-.16,1.062-.327.932-1.13l-1.171-7.275c-.29-1.8-.77-4.51-.827-4.724-.2-.681-.44-.8-1.244-.669l-.782.126c-.108.018-.177.007-.2-.124l-.094-.586c-.01-.065.026-.116.133-.134.479-.077,1.249-.133,2.683-.365l.956-.153c2.15-.346,4.3-.714,6.446-1.059.347-.057.753-.168.861-.185a.157.157,0,0,1,.192.082l1.67,3.317c.036.084.047.15-.033.206l-.3.227c-.058.054-.154,0-.184-.038a18.065,18.065,0,0,0-2.569-2.126,3.4,3.4,0,0,0-1.745-.32l-3.88.535Z" fill="#152063"/>
      <path id="Path_3281" data-name="Path 3281" d="M5777.007,1116.662c-.015.352.178.47.464.482l.7.03c.2.009.237.077.232.209l-.014.352c-.008.153-.056.239-.187.233-.154-.006-.833-.1-2.086-.155-1.12-.048-1.826-.013-1.979-.019-.133-.006-.174-.073-.166-.25l.015-.351c.006-.154.074-.195.293-.185l.638.026c.241.011.423-.091.461-.485.047-.571.1-1.273.123-1.845l.125-2.9c.038-.88.064-1.517-.553-2.005a2.418,2.418,0,0,0-1.587-.466,2.591,2.591,0,0,0-1.817.782,2.157,2.157,0,0,0-.569,1.473l-.2,4.548c-.024.594.035.729.5.748l.549.023c.176.008.217.077.211.231l-.016.372c0,.132-.052.2-.163.192-.154-.007-.744-.1-1.908-.148-1.121-.048-1.828-.012-1.96-.018-.108,0-.15-.072-.144-.2l.016-.4c.006-.132.053-.2.229-.189l.636.027c.287.013.443-.047.459-.42l.22-5.142a1.355,1.355,0,0,0-.846-1.336l-.171-.095c-.151-.073-.17-.138-.167-.206l0-.109c0-.11.1-.173.207-.211l1.934-.975a1.2,1.2,0,0,1,.4-.137c.11.006.151.1.165.271l.1,1.348.043,0a4.418,4.418,0,0,1,3.08-1.476,3.411,3.411,0,0,1,1.848.564,3.206,3.206,0,0,1,1.118,2.139Z" fill="#152063"/>
      <path id="Path_3282" data-name="Path 3282" d="M5778.486,1123.354a1.991,1.991,0,0,1-.723-1.979c.258-1.2,1.684-1.866,2.813-2.095l.018-.085a1.705,1.705,0,0,1-1.117-1.816c.222-1.033,1.561-1.511,2.375-1.629l.008-.043a3.418,3.418,0,0,1,3.05-6.026,3.535,3.535,0,0,1,2.442,1.828,3.9,3.9,0,0,1,2.2-.4.907.907,0,0,1,.817,1.12.834.834,0,0,1-1.009.614,1.093,1.093,0,0,1-.684-.483.877.877,0,0,0-.409-.291,1.616,1.616,0,0,0-.717-.018,4.124,4.124,0,0,1-.029,1.7,3.618,3.618,0,0,1-1.293,2.152,3.932,3.932,0,0,1-3.8.2c-.467.08-1.269.358-1.4.96-.189.883.9,1.049,2.359,1.271,1.783.293,2.816.718,3.533,1.569a2.589,2.589,0,0,1,.611,2.292,3.14,3.14,0,0,1-2.01,2.335,6.605,6.605,0,0,1-3.894.222A6.907,6.907,0,0,1,5778.486,1123.354Zm7.574-.692c.272-1.269-.488-2.444-2.671-2.756l-2.1-.291a2.353,2.353,0,0,0-2.165,1.694,2.117,2.117,0,0,0,.521,1.665,4.972,4.972,0,0,0,2.881,1.248C5783.326,1124.392,5785.813,1124.341,5786.06,1122.662Zm-.034-9.592a2.729,2.729,0,0,0-.165-2.061,1.654,1.654,0,0,0-.931-.693,2.006,2.006,0,0,0-1.656.274,3.633,3.633,0,0,0-1.318,2.372,2.729,2.729,0,0,0,.285,2.018,1.8,1.8,0,0,0,1.175.815C5784.879,1116.109,5785.734,1114.425,5786.026,1113.07Z" fill="#152063"/>
      <path id="Path_3283" data-name="Path 3283" d="M5795.964,1121.958a1.008,1.008,0,0,0,.837-.037c.121-.071.177-.1.236-.005l.145.243c.038.085.041.2-.161.363a1.816,1.816,0,0,1-1.987.4,1.638,1.638,0,0,1-.94-1.93l-.041-.016a4.74,4.74,0,0,1-2.512.486,4.1,4.1,0,0,1-1.261-.334c-.495-.187-1.08-.878-.591-2.175.358-.947,1.1-1.606,3-1.713a14.577,14.577,0,0,0,2.777-.316l.5-1.317a2.57,2.57,0,0,0,.147-1.261,1.676,1.676,0,0,0-1.064-.92,2.473,2.473,0,0,0-1.5-.073c-.389.16-.321.538-.461.909-.272.72-.689,1.079-1.533.762-.33-.125-.424-.373-.245-.846a2.76,2.76,0,0,1,2.15-1.4,4.849,4.849,0,0,1,2.783.227,2.263,2.263,0,0,1,1.437,1.179,1.948,1.948,0,0,1-.1,1.632l-1.646,4.362C5795.486,1121.355,5795.594,1121.818,5795.964,1121.958Zm-.753-4.422c-.951.275-3.124-.074-3.77,1.634a1.084,1.084,0,0,0,.645,1.537c.6.225,1.959-.085,2.169-.639Z" fill="#152063"/>
      <path id="Path_3284" data-name="Path 3284" d="M5795.06,1128.366a1.989,1.989,0,0,1-.108-2.1c.6-1.074,2.157-1.287,3.3-1.174l.044-.076a1.7,1.7,0,0,1-.533-2.065c.515-.919,1.935-.982,2.748-.855l.021-.037a3.418,3.418,0,0,1,4.69-4.86,3.532,3.532,0,0,1,1.794,2.467,3.908,3.908,0,0,1,2.221.262.91.91,0,0,1,.451,1.313.836.836,0,0,1-1.146.289,1.1,1.1,0,0,1-.51-.664.862.862,0,0,0-.307-.4,1.585,1.585,0,0,0-.677-.23,4.18,4.18,0,0,1-.53,1.62,3.618,3.618,0,0,1-1.871,1.673,4.086,4.086,0,0,1-2.763-.287,4.132,4.132,0,0,1-.925-.644c-.469-.062-1.318-.033-1.618.505-.442.785.55,1.265,1.879,1.91,1.615.8,2.478,1.515,2.913,2.539a2.592,2.592,0,0,1-.092,2.369,3.138,3.138,0,0,1-2.608,1.639,6.6,6.6,0,0,1-3.787-.937A6.857,6.857,0,0,1,5795.06,1128.366Zm7.438,1.572c.635-1.131.255-2.478-1.738-3.419l-1.918-.9a2.358,2.358,0,0,0-2.567.983,2.115,2.115,0,0,0,.006,1.743c.386.8,1.024,1.279,2.385,2.042C5799.377,1130.786,5801.766,1131.47,5802.5,1129.938Zm2.8-9.173a2.727,2.727,0,0,0,.449-2.017,1.66,1.66,0,0,0-.685-.938,2.021,2.021,0,0,0-1.663-.226,3.652,3.652,0,0,0-1.959,1.877,2.73,2.73,0,0,0-.321,2.013,1.788,1.788,0,0,0,.882,1.125C5803.3,1123.33,5804.617,1121.975,5805.295,1120.765Z" fill="#152063"/>
      <path id="Path_3285" data-name="Path 3285" d="M5810.717,1124.882a5.609,5.609,0,0,0-.7.793c-1.321,1.706-1.239,3.83.154,4.906a2.981,2.981,0,0,0,3.021.449.179.179,0,0,1,.225.034l.131.3c.039.057.032.136-.2.26a3.967,3.967,0,0,1-4.235-.246,4.024,4.024,0,0,1-1.775-3.35,5.237,5.237,0,0,1,1.363-3.342,4.956,4.956,0,0,1,3.239-1.919,4.091,4.091,0,0,1,3.2,1.005,3.28,3.28,0,0,1,.576,4.538c-.188.245-.424.117-.7-.1Zm3.171,1.619c.331.257.538.278.659.12a1.818,1.818,0,0,0-.143-2.585c-.765-.593-1.886-.655-3.214.376Z" fill="#152063"/>
      <path id="Path_3286" data-name="Path 3286" d="M5835.246,1156.948c-.591-.049-4.142-.234-4.617-.2-.153.024-.377.047-.483.079-.294.089-.386.394-.246.857l.3.989c.043.148.022.223-.084.255l-.484.148c-.147.045-.209-.006-.24-.109-.09-.3-.291-1.179-.668-2.421-.467-1.537-.672-1.981-.762-2.276-.031-.106,0-.16.123-.2l.506-.155a.157.157,0,0,1,.2.124l.224.737c.192.632.577.838,1.34.926.381.044,4.745.4,6.656.482.466.018,5.51.347,6.137.362a.89.89,0,0,0,.723-.2c.065-.089.144-.205.229-.231.063-.019.159,0,.247.132a4.412,4.412,0,0,0,1.585,1.427c.136.073.24.111.272.216.038.127-.075.208-.287.341-1.206.8-5.421,3.881-6.648,4.691-1.494.983-4.992,3.544-5.513,4.025a1.645,1.645,0,0,0-.512,1.719l.211.7c.039.127-.012.187-.1.212l-.526.162c-.106.031-.167-.019-.21-.163-.115-.378-.187-.84-.705-2.546-.533-1.747-.82-2.466-.969-2.953-.031-.1.012-.187.139-.225l.484-.149c.125-.038.166.019.2.146l.16.526c.178.589.448.715.993.388.707-.4,3.138-2.082,3.89-2.634Zm2.258,4.7c.572-.381,5.316-3.69,5.6-3.891.129-.107.263-.194.244-.257-.026-.085-.2-.124-.387-.135-.305-.023-6.3-.382-6.875-.37Z" fill="#152063"/>
      <path id="Path_3287" data-name="Path 3287" d="M5840.934,1169.415c0-.109.082-.179.236-.164l.662.061c.134.015.157.08.165.257l.054,1.275.4-.017a6.2,6.2,0,0,1,4.2,1.3,4.708,4.708,0,0,1,1.884,3.489,3.36,3.36,0,0,1-1.178,2.869,5.278,5.278,0,0,1,1.9,3.819c.051,1.207-.612,2.227-1.4,2.261a1.017,1.017,0,0,1-1.121-.99c-.02-.505.226-.89.8-1.377a1.3,1.3,0,0,0,.613-1.148,2.212,2.212,0,0,0-.839-1.638c-1.165-.987-2.97-.956-4.509-.891l-.418.017.133,3.189a10.886,10.886,0,0,0,.432,2.4,2.211,2.211,0,0,1,.107.436c.006.154-.1.158-.26.142-.376-.05-1.76.008-3.739.091l-2.419.1c-.856.036-1.648.069-1.889.1-.4.017-.568.112-.553.443l.04.945c0,.153-.059.2-.192.206l-.373.016c-.154.005-.221-.035-.226-.166-.007-.176.035-.728-.024-2.115-.054-1.3-.146-1.931-.156-2.151,0-.11.037-.179.169-.184l.438-.018c.133-.006.18.058.187.212l.037.879c.009.22.124.326.519.332l5.125-.215c1.427-.06,1.767-.362,1.7-1.922l-.113-2.682-1.978.082c-2.595.11-4.617.194-4.858.248-.307.013-.568.069-.554.42l.041.99c.008.176-.035.221-.166.227l-.354.015c-.174.007-.263-.034-.267-.12-.005-.133.033-.795-.034-2.378-.031-.726-.143-1.844-.15-2.021-.006-.132.035-.177.147-.181l.483-.021c.109,0,.155.037.163.214l.029.724c.018.418.285.5.792.5l6.64-.279-.189-4.528-1.98.082c-2.594.109-4.616.194-4.857.226-.372.06-.568.133-.548.595l.025.593c.009.2-.035.244-.166.25l-.352.014c-.175.008-.265-.032-.269-.142-.006-.133.025-.948-.018-1.981-.05-1.209-.164-2.328-.17-2.5-.006-.132.036-.178.145-.182l.484-.021c.11,0,.157.038.164.213l.044,1.056c.017.418.285.494.791.495l6.64-.278Zm1.183,3.012.19,4.529.4-.016a5.836,5.836,0,0,1,3.668.814l.043-.022a2.065,2.065,0,0,1,.695-1.793,1.311,1.311,0,0,0,.348-1.159,2.157,2.157,0,0,0-.846-1.771c-1.065-.77-3-.644-3.856-.608Z" fill="#152063"/>
      <path id="Path_3288" data-name="Path 3288" d="M5838.5,1189.3c1.109.17,1.353.028,1.773-.53l.282-.38c.063-.125.092-.164.178-.151l.131.02c.087.014.124.064.169.2l.779,2.322a.672.672,0,0,1,.04.319c-.02.131-.153.132-.284.111l-1.56-.127-.014.087a3.753,3.753,0,0,1,1.491,2.9.993.993,0,0,1-1.127.962,1.06,1.06,0,0,1-.924-1.077,1.447,1.447,0,0,1,.269-.6,1.423,1.423,0,0,0,.284-.693,1.564,1.564,0,0,0-.716-1.424,2.413,2.413,0,0,0-.663-.324l-4.525-.693c-.674-.1-.915.015-.984.471l-.158,1.024c-.019.13-.088.143-.218.122l-.393-.061c-.131-.02-.191-.051-.18-.14.021-.132.241-1.12.42-2.295.207-1.348.283-2.273.3-2.4.013-.086.063-.123.236-.1l.371.057c.153.023.189.073.159.269l-.131.849c-.05.325.058.5.341.541.714.132,1.475.249,2.607.423Z" fill="#152063"/>
      <path id="Path_3289" data-name="Path 3289" d="M5835.06,1202.91c1.534.548,2.03.4,2.46.177a2.373,2.373,0,0,0,.844-1.192,2.548,2.548,0,0,0-.491-2.417,2.614,2.614,0,0,0-1.285-.786l-4.1-1.463c-.332-.118-.583-.068-.687.222l-.266.747c-.066.186-.115.191-.26.139l-.332-.117c-.144-.053-.22-.1-.168-.246.067-.187.329-.724.735-1.863.39-1.1.566-1.784.624-1.951.045-.124.1-.151.246-.1l.374.132c.165.059.171.108.1.315l-.251.7c-.067.188.021.335.408.5.344.146.717.28,1.068.406l3.688,1.315a1.117,1.117,0,0,0,1.263-.2l.383-.355c.1-.081.155-.107.219-.086l.166.059a.282.282,0,0,1,.121.184l.281,2.157a1.085,1.085,0,0,1-.015.436c-.044.125-.212.135-.358.083l-1.23-.344-.022.061a4.286,4.286,0,0,1,.489,3.608,2.673,2.673,0,0,1-2.432,1.772l-.037.1a4.354,4.354,0,0,1,.509,3.614,2.619,2.619,0,0,1-1.286,1.641,3.153,3.153,0,0,1-2.9.086l-4.62-1.647a.4.4,0,0,0-.569.286l-.2.561c-.066.186-.123.212-.267.16l-.353-.125c-.145-.052-.192-.115-.154-.215.052-.145.319-.7.676-1.7.369-1.037.573-1.8.624-1.953.044-.123.121-.143.266-.091l.351.125c.145.052.172.109.092.336l-.186.519a.4.4,0,0,0,.246.555c.461.211,1.207.477,1.663.638l3.067,1.094a2.084,2.084,0,0,0,1.871-.009,2.632,2.632,0,0,0,.981-1.378,2.472,2.472,0,0,0-.433-2.185,4.489,4.489,0,0,0-1.99-1.038l-3.583-1.278c-.269-.1-.514-.067-.624.244l-.252.705c-.067.186-.122.213-.268.161l-.332-.118c-.165-.06-.213-.123-.174-.224.051-.145.307-.662.719-1.822.4-1.119.588-1.846.631-1.971.039-.1.115-.123.26-.071l.332.117c.166.06.2.1.132.281l-.213.6c-.119.332-.08.485.189.581Z" fill="#152063"/>
      <path id="Path_3290" data-name="Path 3290" d="M5809.486,1237.448c-.1-.584-.832-4.066-.98-4.515-.064-.144-.141-.355-.2-.447-.162-.263-.481-.273-.891-.018l-.88.543c-.132.081-.211.078-.268-.016l-.266-.429c-.082-.132-.049-.2.045-.262.264-.162,1.064-.58,2.169-1.262,1.366-.845,1.743-1.156,2.006-1.318.092-.059.153-.043.222.068l.279.449a.156.156,0,0,1-.069.224l-.656.405c-.56.347-.661.772-.553,1.532.055.38.828,4.688,1.235,6.558.1.456,1.072,5.417,1.216,6.027.059.221.116.522.375.647a.618.618,0,0,1,.281.163c.035.056.044.154-.064.272a4.447,4.447,0,0,0-.975,1.9c-.036.151-.046.262-.139.318-.112.07-.219-.019-.4-.191-1.085-.958-5.138-4.248-6.234-5.227-1.332-1.194-4.7-3.922-5.3-4.3a1.65,1.65,0,0,0-1.794-.055l-.618.382c-.111.07-.183.037-.23-.038l-.29-.469c-.058-.094-.025-.165.106-.246.338-.208.766-.4,2.283-1.333,1.551-.96,2.172-1.422,2.6-1.688a.168.168,0,0,1,.253.078l.268.429c.068.113.024.165-.088.236l-.469.289c-.524.324-.575.615-.121,1.057.566.583,2.815,2.5,3.54,3.09Zm-3.963,3.381c.514.457,4.924,4.2,5.192,4.422.137.1.255.205.311.17.076-.046.069-.224.033-.407-.058-.3-1.241-6.192-1.4-6.742Z" fill="#152063"/>
      <path id="Path_3291" data-name="Path 3291" d="M5795.674,1238.542c.126.021.175.144.234.238l1.11,1.811c.06.094.015.159-.059.212l-.242.165c-.074.053-.153.035-.233-.05l-.9-.8c-.707-.6-1.193-1-2.279-.574a1.6,1.6,0,0,0-1.074,2.026c.359.922,1.019,1.279,2.723,1.108,1.345-.124,2.8.039,3.435,1.657a2.911,2.911,0,0,1-1.892,3.621,4.108,4.108,0,0,1-2.054.306c-.363-.022-.443-.11-.511-.224l-.869-1.314a.2.2,0,0,1,.072-.24l.214-.179c.073-.053.124-.048.223.03l1.066.67a1.683,1.683,0,0,0,1.747.239,1.551,1.551,0,0,0,1.049-1.968c-.465-1.189-1.516-1.037-2.633-.933-1.662.154-2.846-.092-3.483-1.662-.627-1.666.317-3.241,2.058-3.922A4.142,4.142,0,0,1,5795.674,1238.542Z" fill="#152063"/>
      <path id="Path_3292" data-name="Path 3292" d="M5790.992,1253.234c.211.877.361,1.225,1.476,1.254.249.009.319.013.335.079l.045.192c.02.086-.034.144-.227.281l-1.959,1.46a1.435,1.435,0,0,1-.43.282c-.127.033-.175-.07-.214-.332-.137-1.052-.885-4.2-1.5-6.765l-.8-3.381a2.122,2.122,0,0,0-.971.48,23.567,23.567,0,0,0-1.7,2.936c-.073.266-.032.437.115.492a.978.978,0,0,0,.588,0c.15-.037.186.024.216.153l.1.406c.025.107,0,.181-.11.2-.127.032-.914.151-2,.409-1.048.25-1.567.442-1.717.481-.087.019-.143-.036-.178-.185l-.093-.385c-.03-.128-.019-.176.131-.213l.149-.035a3.2,3.2,0,0,0,1.361-.843c.257-.244,1.659-2.339,2.217-3.218-.529-.326-4.98-3.066-5.384-3.151a3.046,3.046,0,0,0-1.184-.033c-.128.029-.181,0-.217-.152l-.091-.386c-.031-.128,0-.2.146-.239.171-.039.785-.117,1.792-.358,1.261-.3,2.145-.578,2.316-.619.107-.025.165.029.2.179l.082.342c.026.106,0,.18-.173.221l-.151.037a.253.253,0,0,0-.152.4c.1.155,3.16,2.164,3.578,2.4a1.6,1.6,0,0,0,.977.017l-.225-.943c-.178-.748-.351-1.475-.551-2.218-.094-.295-.235-.419-.535-.348l-.62.148c-.149.036-.2,0-.233-.125l-.086-.365c-.041-.172-.014-.245.115-.275s.849-.135,1.919-.39c1.155-.274,1.888-.516,2.039-.552.063-.015.127.059.157.188l.086.363c.037.151-.018.209-.167.244l-.792.19c-.278.065-.329.325-.264.6.2.948.457,2.108.906,3.991Z" fill="#152063"/>
      <path id="Path_3293" data-name="Path 3293" d="M5763.9,1246.325c1.167-1.242,2.9-3.3,5.706-3.109,2.107.149,4.515,1.66,4.338,4.184a5.262,5.262,0,0,1-2.035,3.584,12.2,12.2,0,0,1-2.671,1.622c1.453.983,2.147,2.112,2.091,2.9-.12,1.734-2.52,3.6-3.815,3.5a3.221,3.221,0,0,1-2.86-3.264c.123-1.136,1.648-2.442,2.625-2.859a15.535,15.535,0,0,1-4.332-4.6,14,14,0,0,0-2.421,3.425.624.624,0,0,0,.633.728l.373.027c.132.008.15.075.142.164l-.033.483c0,.066-.03.107-.162.1-.2-.015-1.377-.164-2.123-.215-.812-.055-2.133-.082-2.264-.089s-.149-.077-.143-.165l.032-.46c.007-.088.033-.152.164-.144l.373.026c1.1.077,1.323,0,1.712-.519.17-.232,2.685-3.406,3.319-3.981-.3-.4-1.25-1.651-1.537-1.959a4.332,4.332,0,0,0-2.848-1.851c-1.338-.094-2.434,1.374-2.532,1.543-.049.063-.1.082-.178.01l-.315-.221c-.042-.026-.038-.092.013-.2a4.577,4.577,0,0,1,4.274-2.482C5761.8,1242.673,5763.045,1245.052,5763.9,1246.325Zm.448.539a17.064,17.064,0,0,0,4.484,5.251c1.663-.766,3.18-2.292,3.262-4.094a3.743,3.743,0,0,0-3.412-3.546C5766.535,1244.326,5764.969,1246.244,5764.352,1246.864Zm5.438,8.956c.057-.813-1.082-1.863-2.069-2.571a3.164,3.164,0,0,0-1.773,2.655c-.052.746.528,2.241,1.624,2.318C5768.647,1258.3,5769.7,1257.091,5769.79,1255.82Z" fill="#152063"/>
      <path id="Path_3294" data-name="Path 3294" d="M5749.586,1240.868c.172.282.269.392.372.433.122.05.262-.061.466-.217.212-.176.322-.156.467-.1.122.047.183.191.051.4-.284.479-1.525,2.992-1.823,3.561-.069.114-.109.1-.192.064l-.3-.142c-.081-.034-.106-.09-.057-.213a4.326,4.326,0,0,0,.211-2.664,3.677,3.677,0,0,0-2.259-2.653,2.812,2.812,0,0,0-3.814,1.486c-.84,2.106.362,3.485,1.769,4.709a8.5,8.5,0,0,1,2.323,2.847,4.3,4.3,0,0,1-.169,3.39,4.157,4.157,0,0,1-2.311,2.11,4.387,4.387,0,0,1-3.252-.16,6.367,6.367,0,0,1-2.207-1.474c-.142-.175-.254-.195-.4-.134l-.364.138a.424.424,0,0,1-.314.018c-.1-.041-.1-.23-.025-.413.285-.716.85-2.906,1.01-3.364.041-.1.078-.133.167-.122l.27.036a.094.094,0,0,1,.1.111,5.344,5.344,0,0,0,.361,2.773,3.075,3.075,0,0,0,1.878,1.769,2.494,2.494,0,0,0,3.427-1.4,2.681,2.681,0,0,0,.076-2.031,6.923,6.923,0,0,0-1.841-2.155c-1.23-1.012-2.237-1.817-2.612-3.009a4.294,4.294,0,0,1,.208-3.137c.964-2.412,3.257-3.889,5.955-2.812A5.411,5.411,0,0,1,5749.586,1240.868Z" fill="#152063"/>
      <path id="Path_3295" data-name="Path 3295" d="M5733.5,1245.868c-.717,1.135-.623,1.481-.094,2.127l.246.311c.089.107.1.139.061.194l-.107.167c-.047.075-.114.058-.34.045l-2.58-.2a1.191,1.191,0,0,1-.523-.121c-.11-.071-.091-.266.145-.559s2.639-4.058,3.226-4.99l.751-1.189-.093-.059a4.2,4.2,0,0,1-3.313-.4,2.889,2.889,0,0,1-1.372-1.906c-.344-1.311.292-2.236.927-3.24l.668-1.062c.658-1.042,1.347-2.219,1.572-2.572.141-.223-.123-.468-.514-.714l-.314-.2c-.151-.1-.183-.167-.1-.3l.176-.279c.1-.148.179-.2.29-.127.132.082.691.515,1.752,1.183.912.575,1.616.942,1.783,1.046.131.082.133.162.039.31l-.2.315c-.061.094-.113.138-.226.069l-.427-.271c-.317-.2-.711-.4-.93-.092-.183.248-.788,1.245-1.163,1.841l-.949,1.507c-.658,1.042-1.055,1.834-.831,2.677a2.023,2.023,0,0,0,.9,1.3,2.681,2.681,0,0,0,2.223.308,1.892,1.892,0,0,0,.949-.675l2.559-4.057c.375-.6.423-.8.072-1.021l-.559-.352c-.131-.082-.181-.166-.111-.277l.2-.317c.084-.13.168-.181.279-.109.149.094.876.631,1.733,1.17.93.587,1.672.976,1.84,1.082.074.047.094.138.012.268l-.212.335c-.082.13-.168.1-.373-.027l-.39-.246c-.3-.188-.624-.29-.8-.09-.278.318-1.568,2.364-2.332,3.574Z" fill="#152063"/>
      <path id="Path_3296" data-name="Path 3296" d="M5725.526,1226.227a1,1,0,0,0-.8-.26c-.138.024-.2.026-.222-.08l-.049-.277c-.006-.093.034-.2.278-.283a1.815,1.815,0,0,1,2,.325,1.639,1.639,0,0,1,.2,2.137l.033.03a4.719,4.719,0,0,1,2.519.43,4.149,4.149,0,0,1,1.062.758c.4.35.7,1.2-.216,2.242-.668.761-1.6,1.116-3.408.545a14.521,14.521,0,0,0-2.709-.684l-.93,1.056a2.547,2.547,0,0,0-.583,1.128,1.669,1.669,0,0,0,.671,1.236,2.471,2.471,0,0,0,1.379.6c.42-.012.488-.389.75-.687.51-.577,1.025-.767,1.7-.171.266.233.266.5-.068.878a2.767,2.767,0,0,1-2.505.549,4.845,4.845,0,0,1-2.523-1.2,2.254,2.254,0,0,1-.928-1.608,1.943,1.943,0,0,1,.669-1.492l3.08-3.5C5725.76,1226.96,5725.824,1226.49,5725.526,1226.227Zm-.856,4.4c.986.077,2.894,1.172,4.1-.2a1.081,1.081,0,0,0-.06-1.663c-.479-.421-1.862-.612-2.254-.168Z" fill="#152063"/>
      <path id="Path_3297" data-name="Path 3297" d="M5719.737,1227.181c-.841.742-.89,1.02-.729,1.7l.111.459c.054.129.067.178,0,.235l-.1.088c-.066.058-.127.053-.265,0l-2.282-.892a.656.656,0,0,1-.27-.173c-.088-.1,0-.2.1-.29l1.1-1.116-.058-.066a3.757,3.757,0,0,1-3.182-.715,1,1,0,0,1-.015-1.482,1.065,1.065,0,0,1,1.42-.02,1.447,1.447,0,0,1,.291.595,1.41,1.41,0,0,0,.346.662,1.567,1.567,0,0,0,1.552.364,2.4,2.4,0,0,0,.674-.3l3.433-3.027c.514-.451.577-.712.27-1.058l-.684-.776c-.087-.1-.052-.16.047-.247l.3-.261c.1-.088.164-.115.223-.048.088.1.707.9,1.492,1.793.9,1.023,1.561,1.673,1.649,1.772.058.067.055.127-.078.244l-.28.247c-.115.1-.178.1-.309-.05l-.568-.644c-.217-.247-.418-.275-.633-.086-.559.462-1.137.972-2,1.729Z" fill="#152063"/>
      <path id="Path_3298" data-name="Path 3298" d="M5714.692,1221.065a5.541,5.541,0,0,0,.91-.541c1.781-1.214,2.359-3.259,1.367-4.714a2.98,2.98,0,0,0-2.735-1.357.179.179,0,0,1-.2-.1l-.033-.324c-.02-.067.01-.14.272-.186a3.97,3.97,0,0,1,3.953,1.539,4.034,4.034,0,0,1,.655,3.734,5.238,5.238,0,0,1-2.328,2.759,4.957,4.957,0,0,1-3.672.825,4.081,4.081,0,0,1-2.735-1.943,3.28,3.28,0,0,1,.851-4.494c.254-.174.44.019.637.31Zm-2.516-2.52c-.235-.346-.424-.429-.588-.317a1.818,1.818,0,0,0-.664,2.5c.545.8,1.593,1.2,3.174.632Z" fill="#152063"/>
      <path id="Path_3299" data-name="Path 3299" d="M5698.938,1182.558c0-.175-.075-2.529-.118-2.793-.107-.639-.282-.815-.963-1.017a5.226,5.226,0,0,0-1.077-.18.14.14,0,0,1-.154-.155l.025-.55a.133.133,0,0,1,.177-.132c.373.069,2.177.077,2.506.079.77,0,1.827-.08,2.289-.122a.156.156,0,0,1,.176.133l.062.484c.022.11-.045.153-.2.175-.285.043-.791.172-1.035.237a1.032,1.032,0,0,0-.861.942c-.116,1.034-.122,2.551-.123,2.9l1.364.006c1.186.005,3.321-.028,3.761-.027,1.142-.016,1.586-.564,1.721-1.246a9.1,9.1,0,0,0,.161-1.628c0-.373-.015-1.471-.057-1.933a4.238,4.238,0,0,0-.761-1.918,20.218,20.218,0,0,0-2.3-1.815c-.11-.065-.2-.133-.131-.263l.2-.351c.065-.111.131-.11.307-.043l3.228,1.18a.464.464,0,0,1,.327.486c0,.109-.025.593-.053,1.913-.006,1.32-.037,3.452-.053,6.885,0,.813.015,1.428.012,1.869.022.462.041.747.041.945,0,.132-.045.2-.156.2l-.594,0c-.087,0-.109-.067-.107-.221l0-.88c0-1.011-.149-1.1-.962-1.1l-7.368-.036c-1.826-.008-4.576.023-4.795.044-.7.085-.859.3-.864,1.118l0,.791c0,.111-.023.175-.156.175l-.593,0c-.066,0-.109-.045-.109-.154,0-.484.072-1.253.079-2.705l0-.968c.01-2.177,0-4.354.009-6.532,0-.352-.041-.77-.04-.88a.157.157,0,0,1,.109-.175l3.547-1.106c.088-.021.154-.021.2.067l.175.33c.044.067-.022.155-.066.177a17.958,17.958,0,0,0-2.518,2.187,3.4,3.4,0,0,0-.6,1.67l-.107,3.914Z" fill="#152063"/>
      <path id="Path_3300" data-name="Path 3300" d="M5706.58,1167.962l.012-.064c-.775-.508-4.2-2.739-5-3.117-.554-.263-.929-.179-1,.209l-.082.433c-.014.065-.125.066-.234.045l-.389-.075c-.129-.027-.164-.077-.148-.163.058-.3.216-.766.4-1.716.163-.844.2-1.374.235-1.569.033-.172.06-.19.233-.157l.367.071c.15.03.217.043.195.15l-.08.41a.885.885,0,0,0,.109.716,22.977,22.977,0,0,0,3.145,2.4c.6.386,3.918,2.685,4.054,2.8.269.232.442.376.4.613-.04.217-.26.309-.541.367l-4.71.839c-.185.031-2.841.438-3.216.522-.679.159-.9.342-.97.731l-.084.432c-.02.109-.112.113-.241.088l-.388-.074c-.151-.03-.164-.076-.127-.272.045-.237.181-.591.414-1.8.222-1.146.265-1.72.31-1.957.035-.173.086-.208.215-.182l.389.075c.131.025.213.064.187.192l-.083.432a.377.377,0,0,0,.335.469,18.822,18.822,0,0,0,2.705-.195C5703.416,1168.562,5706.082,1168.113,5706.58,1167.962Z" fill="#152063"/>
      <path id="Path_3301" data-name="Path 3301" d="M5708.656,1162.363a4.914,4.914,0,0,1-6.486-3.032,4.748,4.748,0,0,1-.008-3.131,4.648,4.648,0,0,1,2.234-2.474,4.877,4.877,0,0,1,3.879-.208,5.022,5.022,0,0,1,2.932,6.2A4.447,4.447,0,0,1,5708.656,1162.363Zm-1.208-7.178c-2.3-.819-4.346.345-4.724,1.4a2.123,2.123,0,0,0,.1,1.832,4.31,4.31,0,0,0,2.864,2.255,4.741,4.741,0,0,0,3.181.245,2.438,2.438,0,0,0,1.809-1.67C5711.233,1157.674,5709.666,1155.974,5707.448,1155.185Z" fill="#152063"/>
      <path id="Path_3302" data-name="Path 3302" d="M5702.512,1147.037c-.791-.434-1.15-.558-1.919.249-.175.179-.227.227-.284.195l-.173-.095c-.077-.042-.084-.122-.056-.356l.234-2.433a1.461,1.461,0,0,1,.081-.51c.064-.114.169-.082.39.066.873.606,3.705,2.166,6.018,3.439l3.045,1.677a2.178,2.178,0,0,0,.3-1.042,23.907,23.907,0,0,0-1.034-3.232c-.148-.232-.3-.317-.443-.244a.991.991,0,0,0-.391.439c-.075.133-.144.121-.258.057l-.367-.2c-.095-.053-.133-.123-.082-.223.065-.115.505-.777,1.047-1.759.519-.945.727-1.458.8-1.59.044-.078.122-.084.258-.01l.346.192c.116.062.143.1.07.238l-.075.135a3.186,3.186,0,0,0-.289,1.574c0,.353.618,2.8.892,3.8.6-.172,5.617-1.627,5.953-1.87a3.113,3.113,0,0,0,.822-.852c.064-.116.123-.134.257-.06l.348.192a.167.167,0,0,1,.078.268c-.086.154-.441.661-.939,1.569-.627,1.135-1.014,1.978-1.1,2.131-.053.1-.131.1-.266.03l-.308-.171c-.1-.053-.133-.123-.049-.277l.074-.135a.253.253,0,0,0-.19-.382c-.187-.028-3.728.885-4.187,1.034a1.607,1.607,0,0,0-.668.712l.848.468c.674.371,1.33.732,2.014,1.085.281.129.468.106.616-.164l.309-.558c.075-.136.133-.153.25-.089l.327.18c.154.086.191.156.128.27s-.472.722-1,1.686c-.574,1.039-.887,1.745-.961,1.88-.032.058-.131.054-.246-.009l-.328-.181c-.134-.074-.141-.153-.067-.288l.393-.714c.136-.25-.021-.462-.272-.6-.837-.488-1.867-1.079-3.562-2.013Z" fill="#152063"/>
      <path id="Path_3303" data-name="Path 3303" d="M5714.467,1140.334a5.6,5.6,0,0,0,.8.7c1.711,1.312,3.833,1.221,4.9-.176a2.986,2.986,0,0,0,.434-3.023.177.177,0,0,1,.032-.223l.3-.134c.057-.039.136-.033.261.2a3.967,3.967,0,0,1-.226,4.235,4.025,4.025,0,0,1-3.342,1.79,5.238,5.238,0,0,1-3.348-1.347,4.966,4.966,0,0,1-1.931-3.23,4.072,4.072,0,0,1,.991-3.206,3.278,3.278,0,0,1,4.533-.6c.244.187.12.424-.1.7Zm1.6-3.178c.255-.331.275-.536.118-.657a1.82,1.82,0,0,0-2.585.151c-.589.768-.645,1.89.392,3.213Z" fill="#152063"/>
    </g>
    <g id="Group_2251" data-name="Group 2251">
      <path id="Path_3304" data-name="Path 3304" d="M5722.927,1133.258a56.035,56.035,0,0,1,27.12-16.559" fill="none" stroke="#152063" stroke-miterlimit="10" stroke-width="0.808"/>
      <g id="Group_2250" data-name="Group 2250">
        <path id="Path_3305" data-name="Path 3305" d="M5746.681,1120.936a.322.322,0,0,1-.03-.456l3.261-3.717-4.746-1.383a.323.323,0,1,1,.18-.621l5.234,1.526a.323.323,0,0,1,.153.523l-3.6,4.1a.324.324,0,0,1-.456.03Z" fill="#152063"/>
      </g>
    </g>
    <g id="Group_2253" data-name="Group 2253">
      <path id="Path_3306" data-name="Path 3306" d="M5711.092,1212.3a55.894,55.894,0,0,1-7.379-23.007" fill="none" stroke="#152063" stroke-miterlimit="10" stroke-width="0.808"/>
      <g id="Group_2252" data-name="Group 2252">
        <path id="Path_3307" data-name="Path 3307" d="M5707.285,1193.353a.324.324,0,0,1-.454-.051l-3.085-3.864-2.2,4.429a.323.323,0,1,1-.579-.287l2.422-4.884a.325.325,0,0,1,.255-.178.328.328,0,0,1,.288.12l3.4,4.26a.324.324,0,0,1-.051.455Z" fill="#152063"/>
      </g>
    </g>
    <g id="Group_2255" data-name="Group 2255">
      <path id="Path_3308" data-name="Path 3308" d="M5829.311,1212.246a55.879,55.879,0,0,1-15.156,18.817" fill="none" stroke="#152063" stroke-miterlimit="10" stroke-width="0.808"/>
      <g id="Group_2254" data-name="Group 2254">
        <path id="Path_3309" data-name="Path 3309" d="M5815.581,1225.847a.325.325,0,0,1,.207.408l-1.53,4.7,4.908-.6a.323.323,0,0,1,.079.642l-5.412.663a.323.323,0,0,1-.347-.42l1.687-5.185a.328.328,0,0,1,.1-.149A.325.325,0,0,1,5815.581,1225.847Z" fill="#152063"/>
      </g>
    </g>
    <g id="Group_2257" data-name="Group 2257">
      <path id="Path_3310" data-name="Path 3310" d="M5817.272,1132.373a55.877,55.877,0,0,1,13.747,19.87" fill="none" stroke="#152063" stroke-miterlimit="10" stroke-width="0.808"/>
      <g id="Group_2256" data-name="Group 2256">
        <path id="Path_3311" data-name="Path 3311" d="M5826.421,1149.4a.324.324,0,0,1,.45-.083l4.075,2.8.814-4.877a.323.323,0,1,1,.638.106l-.9,5.377a.323.323,0,0,1-.5.214l-4.493-3.088a.322.322,0,0,1-.114-.14A.326.326,0,0,1,5826.421,1149.4Z" fill="#152063"/>
      </g>
    </g>
  </g>
</svg>
